G04 EAGLE Gerber RS-274X export*
G75*
%MOMM*%
%FSLAX34Y34*%
%LPD*%
%INSolderpaste Top*%
%IPPOS*%
%AMOC8*
5,1,8,0,0,1.08239X$1,22.5*%
G01*
%ADD10R,0.700000X0.600000*%
%ADD11R,0.600000X0.700000*%
%ADD12R,1.000000X1.100000*%
%ADD13R,3.250000X0.686000*%
%ADD14R,0.710000X0.686000*%
%ADD15R,4.520000X3.800000*%
%ADD16C,0.230000*%
%ADD17R,3.700000X3.700000*%
%ADD18R,0.800000X0.800000*%
%ADD19R,0.220000X0.475000*%
%ADD20R,0.320000X0.650000*%
%ADD21R,2.500000X3.500000*%
%ADD22R,0.220000X0.660000*%
%ADD23R,0.350000X0.440000*%


D10*
X253365Y112094D03*
X253365Y122094D03*
X246190Y103616D03*
X246190Y93616D03*
X285750Y151274D03*
X285750Y161274D03*
X293624Y161274D03*
X293624Y151274D03*
X277876Y151274D03*
X277876Y161274D03*
X270002Y151274D03*
X270002Y161274D03*
D11*
X307992Y153543D03*
X317992Y153543D03*
D10*
X300609Y151274D03*
X300609Y161274D03*
X265811Y174007D03*
X265811Y184007D03*
D11*
X262683Y104648D03*
X252683Y104648D03*
D10*
X265811Y190898D03*
X265811Y200898D03*
D11*
X335868Y147511D03*
X345868Y147511D03*
D12*
X360562Y125413D03*
X377562Y125413D03*
D11*
X334883Y161481D03*
X324883Y161481D03*
D13*
X299276Y302657D03*
D14*
X324676Y302657D03*
D15*
X305626Y341757D03*
D13*
X299212Y238077D03*
D14*
X324612Y238077D03*
D15*
X305562Y277177D03*
D13*
X247206Y302657D03*
D14*
X272606Y302657D03*
D15*
X253556Y341757D03*
D13*
X247142Y238077D03*
D14*
X272542Y238077D03*
D15*
X253492Y277177D03*
D13*
X351346Y302657D03*
D14*
X376746Y302657D03*
D15*
X357696Y341757D03*
D13*
X351282Y238077D03*
D14*
X376682Y238077D03*
D15*
X357632Y277177D03*
D16*
X330579Y146198D02*
X330579Y138498D01*
X325579Y138498D02*
X325579Y146198D01*
X320579Y146198D02*
X320579Y138498D01*
X315579Y138498D02*
X315579Y146198D01*
X310579Y146198D02*
X310579Y138498D01*
X305579Y138498D02*
X305579Y146198D01*
X300579Y146198D02*
X300579Y138498D01*
X295579Y138498D02*
X295579Y146198D01*
X290579Y146198D02*
X290579Y138498D01*
X285429Y133348D02*
X277729Y133348D01*
X277729Y128348D02*
X285429Y128348D01*
X285429Y123348D02*
X277729Y123348D01*
X277729Y118348D02*
X285429Y118348D01*
X285429Y113348D02*
X277729Y113348D01*
X277729Y108348D02*
X285429Y108348D01*
X285429Y103348D02*
X277729Y103348D01*
X277729Y98348D02*
X285429Y98348D01*
X285429Y93348D02*
X277729Y93348D01*
X290579Y88198D02*
X290579Y80498D01*
X295579Y80498D02*
X295579Y88198D01*
X300579Y88198D02*
X300579Y80498D01*
X305579Y80498D02*
X305579Y88198D01*
X310579Y88198D02*
X310579Y80498D01*
X315579Y80498D02*
X315579Y88198D01*
X320579Y88198D02*
X320579Y80498D01*
X325579Y80498D02*
X325579Y88198D01*
X330579Y88198D02*
X330579Y80498D01*
X335729Y93348D02*
X343429Y93348D01*
X343429Y98348D02*
X335729Y98348D01*
X335729Y103348D02*
X343429Y103348D01*
X343429Y108348D02*
X335729Y108348D01*
X335729Y113348D02*
X343429Y113348D01*
X343429Y118348D02*
X335729Y118348D01*
X335729Y123348D02*
X343429Y123348D01*
X343429Y128348D02*
X335729Y128348D01*
X335779Y133348D02*
X343479Y133348D01*
D17*
X310579Y113348D03*
D11*
X243887Y112776D03*
X233887Y112776D03*
X233887Y120650D03*
X243887Y120650D03*
X243887Y127635D03*
X233887Y127635D03*
D18*
X242754Y85725D03*
X257754Y85725D03*
D10*
X238316Y103616D03*
X238316Y93616D03*
D19*
X323596Y176784D03*
X319596Y176784D03*
X315596Y176784D03*
X311596Y176784D03*
X307596Y176784D03*
X303596Y176784D03*
X299596Y176784D03*
X295596Y176784D03*
X291596Y176784D03*
X287596Y176784D03*
X323596Y198684D03*
X319596Y198684D03*
X315596Y198684D03*
X311596Y198684D03*
X307596Y198684D03*
X303596Y198684D03*
X299596Y198684D03*
X295596Y198684D03*
X291596Y198684D03*
X287596Y198684D03*
D20*
X333096Y177784D03*
X278096Y177784D03*
X333096Y197784D03*
X278096Y197784D03*
D10*
X358394Y94535D03*
X358394Y84535D03*
X266129Y82757D03*
X266129Y92757D03*
D11*
X335868Y154496D03*
X345868Y154496D03*
D10*
X367348Y94535D03*
X367348Y84535D03*
X273114Y82757D03*
X273114Y92757D03*
D11*
X307992Y160528D03*
X317992Y160528D03*
D21*
X434086Y353302D03*
X434086Y288302D03*
X177038Y353302D03*
X177038Y288302D03*
X177038Y187909D03*
X177038Y252909D03*
X177038Y152452D03*
X177038Y87452D03*
X434086Y187909D03*
X434086Y252909D03*
X434086Y152388D03*
X434086Y87388D03*
X91059Y353302D03*
X91059Y288302D03*
X90996Y187909D03*
X90996Y252909D03*
X520129Y353302D03*
X520129Y288302D03*
X520129Y188353D03*
X520129Y253353D03*
D22*
X292862Y-6858D03*
X296862Y-6858D03*
X300862Y-6858D03*
X304862Y-6858D03*
X308862Y-6858D03*
X312862Y-6858D03*
X316862Y-6858D03*
X320862Y-6858D03*
X324862Y-6858D03*
X328862Y-6858D03*
X292862Y-20658D03*
X296862Y-20658D03*
X300862Y-20658D03*
X304862Y-20658D03*
X308862Y-20658D03*
X312862Y-20658D03*
X316862Y-20658D03*
X320862Y-20658D03*
X324862Y-20658D03*
X328862Y-20658D03*
D23*
X283362Y-13758D03*
X338362Y-13758D03*
M02*
