G75*
%MOIN*%
%OFA0B0*%
%FSLAX25Y25*%
%IPPOS*%
%LPD*%
%AMOC8*
5,1,8,0,0,1.08239X$1,22.5*
%
%ADD10R,0.01981X0.06706*%
%ADD11R,0.06706X0.01981*%
%ADD12R,0.21154X0.21154*%
%ADD13R,0.13398X0.07887*%
%ADD14R,0.04737X0.05131*%
%ADD15R,0.05131X0.04737*%
%ADD16R,0.03950X0.03950*%
%ADD17R,0.20800X0.10800*%
%ADD18R,0.04343X0.04343*%
%ADD19R,0.03162X0.05918*%
%ADD20C,0.06800*%
%ADD21R,0.02965X0.03044*%
%ADD22R,0.14580X0.10643*%
%ADD23R,0.03556X0.03556*%
%ADD24C,0.05600*%
%ADD25R,0.05918X0.06706*%
%ADD26R,0.06706X0.05918*%
%ADD27C,0.06800*%
%ADD28C,0.12611*%
%ADD29C,0.03378*%
%ADD30R,0.04362X0.04362*%
%ADD31C,0.03181*%
D10*
X0059150Y0123514D03*
X0061119Y0123514D03*
X0063087Y0123514D03*
X0065056Y0123514D03*
X0067024Y0123514D03*
X0068993Y0123514D03*
X0070961Y0123514D03*
X0072930Y0123514D03*
X0074898Y0123514D03*
X0076867Y0123514D03*
X0078835Y0123514D03*
X0080804Y0123514D03*
X0126650Y0123514D03*
X0128619Y0123514D03*
X0130587Y0123514D03*
X0132556Y0123514D03*
X0134524Y0123514D03*
X0136493Y0123514D03*
X0138461Y0123514D03*
X0140430Y0123514D03*
X0142398Y0123514D03*
X0144367Y0123514D03*
X0146335Y0123514D03*
X0148304Y0123514D03*
X0194150Y0123514D03*
X0196119Y0123514D03*
X0198087Y0123514D03*
X0200056Y0123514D03*
X0202024Y0123514D03*
X0203993Y0123514D03*
X0205961Y0123514D03*
X0207930Y0123514D03*
X0209898Y0123514D03*
X0211867Y0123514D03*
X0213835Y0123514D03*
X0215804Y0123514D03*
X0215804Y0156979D03*
X0213835Y0156979D03*
X0211867Y0156979D03*
X0209898Y0156979D03*
X0207930Y0156979D03*
X0205961Y0156979D03*
X0203993Y0156979D03*
X0202024Y0156979D03*
X0200056Y0156979D03*
X0198087Y0156979D03*
X0196119Y0156979D03*
X0194150Y0156979D03*
X0148304Y0156979D03*
X0146335Y0156979D03*
X0144367Y0156979D03*
X0142398Y0156979D03*
X0140430Y0156979D03*
X0138461Y0156979D03*
X0136493Y0156979D03*
X0134524Y0156979D03*
X0132556Y0156979D03*
X0130587Y0156979D03*
X0128619Y0156979D03*
X0126650Y0156979D03*
X0080804Y0156979D03*
X0078835Y0156979D03*
X0076867Y0156979D03*
X0074898Y0156979D03*
X0072930Y0156979D03*
X0070961Y0156979D03*
X0068993Y0156979D03*
X0067024Y0156979D03*
X0065056Y0156979D03*
X0063087Y0156979D03*
X0061119Y0156979D03*
X0059150Y0156979D03*
D11*
X0053245Y0151073D03*
X0053245Y0149105D03*
X0053245Y0147136D03*
X0053245Y0145168D03*
X0053245Y0143199D03*
X0053245Y0141231D03*
X0053245Y0139262D03*
X0053245Y0137294D03*
X0053245Y0135325D03*
X0053245Y0133357D03*
X0053245Y0131388D03*
X0053245Y0129420D03*
X0086709Y0129420D03*
X0086709Y0131388D03*
X0086709Y0133357D03*
X0086709Y0135325D03*
X0086709Y0137294D03*
X0086709Y0139262D03*
X0086709Y0141231D03*
X0086709Y0143199D03*
X0086709Y0145168D03*
X0086709Y0147136D03*
X0086709Y0149105D03*
X0086709Y0151073D03*
X0120745Y0151073D03*
X0120745Y0149105D03*
X0120745Y0147136D03*
X0120745Y0145168D03*
X0120745Y0143199D03*
X0120745Y0141231D03*
X0120745Y0139262D03*
X0120745Y0137294D03*
X0120745Y0135325D03*
X0120745Y0133357D03*
X0120745Y0131388D03*
X0120745Y0129420D03*
X0154209Y0129420D03*
X0154209Y0131388D03*
X0154209Y0133357D03*
X0154209Y0135325D03*
X0154209Y0137294D03*
X0154209Y0139262D03*
X0154209Y0141231D03*
X0154209Y0143199D03*
X0154209Y0145168D03*
X0154209Y0147136D03*
X0154209Y0149105D03*
X0154209Y0151073D03*
X0188245Y0151073D03*
X0188245Y0149105D03*
X0188245Y0147136D03*
X0188245Y0145168D03*
X0188245Y0143199D03*
X0188245Y0141231D03*
X0188245Y0139262D03*
X0188245Y0137294D03*
X0188245Y0135325D03*
X0188245Y0133357D03*
X0188245Y0131388D03*
X0188245Y0129420D03*
X0221709Y0129420D03*
X0221709Y0131388D03*
X0221709Y0133357D03*
X0221709Y0135325D03*
X0221709Y0137294D03*
X0221709Y0139262D03*
X0221709Y0141231D03*
X0221709Y0143199D03*
X0221709Y0145168D03*
X0221709Y0147136D03*
X0221709Y0149105D03*
X0221709Y0151073D03*
D12*
X0204977Y0140247D03*
X0137477Y0140247D03*
X0069977Y0140247D03*
D13*
X0070400Y0189080D03*
X0047900Y0189080D03*
X0047900Y0211127D03*
X0070400Y0211127D03*
X0092900Y0211127D03*
X0115400Y0211752D03*
X0137900Y0211127D03*
X0160400Y0211127D03*
X0182900Y0211752D03*
X0205400Y0211127D03*
X0227900Y0211127D03*
X0227900Y0189080D03*
X0205400Y0189080D03*
X0182900Y0189705D03*
X0160400Y0189080D03*
X0137900Y0189080D03*
X0115400Y0189705D03*
X0092900Y0189080D03*
D14*
X0089997Y0169479D03*
X0089997Y0164479D03*
X0093525Y0159075D03*
X0102275Y0157200D03*
X0109150Y0157825D03*
X0114150Y0156575D03*
X0109150Y0151132D03*
X0114150Y0149882D03*
X0114372Y0144479D03*
X0107679Y0144479D03*
X0101650Y0145325D03*
X0102275Y0150507D03*
X0093525Y0152382D03*
X0083304Y0164479D03*
X0083304Y0169479D03*
X0072497Y0169479D03*
X0072497Y0164479D03*
X0065804Y0164479D03*
X0065804Y0169479D03*
X0047900Y0161575D03*
X0041650Y0160507D03*
X0041650Y0154075D03*
X0047900Y0154882D03*
X0041650Y0147382D03*
X0042900Y0139075D03*
X0042900Y0132382D03*
X0041650Y0167200D03*
X0096650Y0137200D03*
X0101650Y0138632D03*
X0101650Y0129700D03*
X0096650Y0130507D03*
X0101650Y0123007D03*
X0161650Y0151132D03*
X0161650Y0157825D03*
X0170400Y0155325D03*
X0170400Y0148632D03*
X0169150Y0143450D03*
X0175804Y0144479D03*
X0182497Y0144479D03*
X0181650Y0149882D03*
X0176650Y0151132D03*
X0176650Y0157825D03*
X0181650Y0156575D03*
X0164997Y0164479D03*
X0164997Y0169479D03*
X0158304Y0169479D03*
X0158304Y0164479D03*
X0146247Y0164479D03*
X0146247Y0169479D03*
X0139554Y0169479D03*
X0139554Y0164479D03*
X0164150Y0136575D03*
X0169150Y0136757D03*
X0169150Y0129700D03*
X0164150Y0129882D03*
X0169150Y0123007D03*
X0231650Y0151132D03*
X0231650Y0157825D03*
X0233122Y0163854D03*
X0233122Y0168854D03*
X0226429Y0168854D03*
X0226429Y0163854D03*
X0213747Y0165729D03*
X0213747Y0170729D03*
X0207054Y0170729D03*
X0207054Y0165729D03*
X0239150Y0144075D03*
X0233525Y0137825D03*
X0239150Y0137382D03*
X0239150Y0131575D03*
X0233525Y0131132D03*
X0239150Y0124882D03*
X0153122Y0065729D03*
X0146429Y0065729D03*
D15*
X0158304Y0065729D03*
X0164997Y0065729D03*
X0174554Y0118229D03*
X0181247Y0118229D03*
X0181247Y0130729D03*
X0174554Y0130729D03*
X0173525Y0163632D03*
X0179150Y0163632D03*
X0179150Y0170325D03*
X0173525Y0170325D03*
X0113747Y0130729D03*
X0107054Y0130729D03*
X0107054Y0118229D03*
X0113747Y0118229D03*
X0049997Y0119479D03*
X0043304Y0119479D03*
X0034775Y0161132D03*
X0034775Y0167825D03*
D16*
X0061650Y0165276D03*
X0061650Y0171182D03*
X0094150Y0169932D03*
X0094150Y0164026D03*
X0150400Y0165276D03*
X0154150Y0165276D03*
X0154150Y0171182D03*
X0150400Y0171182D03*
X0217900Y0171182D03*
X0221650Y0171182D03*
X0221650Y0165276D03*
X0217900Y0165276D03*
D17*
X0185400Y0221354D03*
X0185400Y0235104D03*
X0185400Y0250104D03*
X0117900Y0250104D03*
X0117900Y0235104D03*
X0117900Y0221354D03*
X0050400Y0220729D03*
X0050400Y0235104D03*
X0050400Y0250104D03*
D18*
X0051025Y0110729D03*
X0051025Y0107604D03*
X0046650Y0107604D03*
X0046650Y0110729D03*
X0042275Y0110729D03*
X0042275Y0107604D03*
X0037900Y0107604D03*
X0037900Y0110729D03*
X0042900Y0096979D03*
X0047900Y0096979D03*
X0052900Y0096979D03*
X0057900Y0096979D03*
X0062900Y0096979D03*
X0067900Y0096979D03*
X0072900Y0096979D03*
X0077900Y0096979D03*
X0082900Y0096979D03*
X0087900Y0096979D03*
X0092900Y0096979D03*
X0097900Y0096979D03*
X0102900Y0096979D03*
X0110400Y0096979D03*
X0115400Y0096979D03*
X0120400Y0096979D03*
X0125400Y0096979D03*
X0130400Y0096979D03*
X0135400Y0096979D03*
X0140400Y0096979D03*
X0145400Y0096979D03*
X0150400Y0096979D03*
X0160400Y0096979D03*
X0165400Y0096979D03*
X0170400Y0096979D03*
X0182900Y0096979D03*
X0187900Y0096979D03*
X0192900Y0096979D03*
X0197900Y0096979D03*
X0202900Y0096979D03*
X0207900Y0096979D03*
X0212900Y0096979D03*
X0217900Y0096979D03*
X0227900Y0096979D03*
X0232900Y0096979D03*
X0237900Y0096979D03*
X0234775Y0107604D03*
X0234775Y0110729D03*
X0230400Y0110729D03*
X0230400Y0107604D03*
X0226025Y0107604D03*
X0226025Y0110729D03*
X0221650Y0110729D03*
X0221650Y0107604D03*
X0212900Y0107604D03*
X0212900Y0110729D03*
X0208525Y0110729D03*
X0208525Y0107604D03*
X0204150Y0107604D03*
X0204150Y0110729D03*
X0199775Y0110729D03*
X0199775Y0107604D03*
X0191025Y0107604D03*
X0191025Y0110729D03*
X0186650Y0110729D03*
X0186650Y0107604D03*
X0182275Y0107604D03*
X0182275Y0110729D03*
X0177900Y0110729D03*
X0177900Y0107604D03*
X0173525Y0107604D03*
X0173525Y0110729D03*
X0164775Y0110729D03*
X0164775Y0107604D03*
X0160400Y0107604D03*
X0160400Y0110729D03*
X0156025Y0110729D03*
X0156025Y0107604D03*
X0151650Y0107604D03*
X0151650Y0110729D03*
X0142900Y0110729D03*
X0142900Y0107604D03*
X0138525Y0107604D03*
X0138525Y0110729D03*
X0134150Y0110729D03*
X0134150Y0107604D03*
X0129775Y0107604D03*
X0129775Y0110729D03*
X0121025Y0110729D03*
X0121025Y0107604D03*
X0116650Y0107604D03*
X0116650Y0110729D03*
X0112275Y0110729D03*
X0112275Y0107604D03*
X0107900Y0107604D03*
X0107900Y0110729D03*
X0103525Y0110729D03*
X0103525Y0107604D03*
X0094775Y0107604D03*
X0094775Y0110729D03*
X0090400Y0110729D03*
X0090400Y0107604D03*
X0086025Y0107604D03*
X0086025Y0110729D03*
X0081650Y0110729D03*
X0081650Y0107604D03*
X0072900Y0107604D03*
X0072900Y0110729D03*
X0068525Y0110729D03*
X0068525Y0107604D03*
X0064150Y0107604D03*
X0064150Y0110729D03*
X0059775Y0110729D03*
X0059775Y0107604D03*
X0243525Y0107604D03*
X0243525Y0110729D03*
X0247900Y0110729D03*
X0247900Y0107604D03*
D19*
X0215410Y0210626D03*
X0219150Y0218854D03*
X0211670Y0218854D03*
X0151650Y0218229D03*
X0144170Y0218229D03*
X0147910Y0210001D03*
X0085400Y0218854D03*
X0077920Y0218854D03*
X0081660Y0210626D03*
D20*
X0035400Y0031354D03*
X0035400Y0041354D03*
X0035400Y0051354D03*
X0035400Y0119479D03*
X0035400Y0129479D03*
X0035400Y0139479D03*
X0035400Y0197604D03*
X0035400Y0207604D03*
X0035400Y0217604D03*
X0245400Y0231354D03*
X0245400Y0241354D03*
X0245400Y0251354D03*
X0245400Y0173229D03*
X0245400Y0163229D03*
X0245400Y0153229D03*
X0245400Y0095104D03*
X0245400Y0085104D03*
X0245400Y0075104D03*
X0245400Y0065104D03*
X0245400Y0055104D03*
X0245400Y0045104D03*
D21*
X0247467Y0038854D03*
X0242900Y0038854D03*
X0242900Y0028815D03*
X0247467Y0028815D03*
D22*
X0233195Y0045104D03*
X0207605Y0045104D03*
X0193195Y0045104D03*
X0167605Y0045104D03*
X0153195Y0045104D03*
X0127605Y0045104D03*
X0113195Y0045104D03*
X0087605Y0045104D03*
X0073195Y0045104D03*
X0047605Y0045104D03*
X0047605Y0080104D03*
X0073195Y0080104D03*
X0087605Y0080104D03*
X0113195Y0080104D03*
X0127605Y0080104D03*
X0153195Y0080104D03*
X0167605Y0080104D03*
X0193195Y0080104D03*
X0207605Y0080104D03*
X0233195Y0080104D03*
D23*
X0239150Y0107604D03*
X0239150Y0110104D03*
X0217275Y0110104D03*
X0217275Y0107604D03*
X0195400Y0107604D03*
X0195400Y0110104D03*
X0169150Y0110104D03*
X0169150Y0107604D03*
X0147275Y0107604D03*
X0147275Y0110104D03*
X0125400Y0110104D03*
X0125400Y0107604D03*
X0099150Y0107604D03*
X0099150Y0110104D03*
X0077275Y0110104D03*
X0077275Y0107604D03*
X0055400Y0107604D03*
X0055400Y0110104D03*
D24*
X0278400Y0163829D02*
X0278400Y0168629D01*
X0288400Y0168629D02*
X0288400Y0163829D01*
X0289150Y0179579D02*
X0289150Y0184379D01*
X0299150Y0184379D02*
X0299150Y0179579D01*
X0309150Y0179579D02*
X0309150Y0184379D01*
X0319150Y0184379D02*
X0319150Y0179579D01*
X0329150Y0179579D02*
X0329150Y0184379D01*
X0339150Y0184379D02*
X0339150Y0179579D01*
X0349150Y0179579D02*
X0349150Y0184379D01*
X0349150Y0209579D02*
X0349150Y0214379D01*
X0339150Y0214379D02*
X0339150Y0209579D01*
X0329150Y0209579D02*
X0329150Y0214379D01*
X0319150Y0214379D02*
X0319150Y0209579D01*
X0309150Y0209579D02*
X0309150Y0214379D01*
X0299150Y0214379D02*
X0299150Y0209579D01*
X0289150Y0209579D02*
X0289150Y0214379D01*
X0279150Y0214379D02*
X0279150Y0209579D01*
X0277650Y0225579D02*
X0277650Y0230379D01*
X0287650Y0230379D02*
X0287650Y0225579D01*
X0279150Y0184379D02*
X0279150Y0179579D01*
D25*
X0341035Y0165479D03*
X0348515Y0165479D03*
D26*
X0298525Y0166219D03*
X0298525Y0158739D03*
X0297900Y0226739D03*
X0297900Y0234219D03*
X0034775Y0155719D03*
X0034775Y0148239D03*
D27*
X0308400Y0156604D02*
X0308400Y0162604D01*
X0318400Y0162604D02*
X0318400Y0156604D01*
X0361150Y0170604D02*
X0367150Y0170604D01*
X0367150Y0180604D02*
X0361150Y0180604D01*
X0362650Y0195479D02*
X0362650Y0201479D01*
X0372650Y0201479D02*
X0372650Y0195479D01*
X0349025Y0227979D02*
X0349025Y0233979D01*
X0339025Y0233979D02*
X0339025Y0227979D01*
X0319150Y0228229D02*
X0319150Y0234229D01*
X0309150Y0234229D02*
X0309150Y0228229D01*
D28*
X0382275Y0239479D03*
X0382275Y0143229D03*
X0268525Y0143229D03*
D29*
X0240590Y0148418D03*
X0239150Y0143450D03*
X0233525Y0137825D03*
X0239150Y0137382D03*
X0233525Y0131132D03*
X0230914Y0125078D03*
X0226040Y0122750D03*
X0234775Y0116073D03*
X0230400Y0110729D03*
X0212003Y0118849D03*
X0206025Y0118921D03*
X0204150Y0113671D03*
X0208525Y0110729D03*
X0189441Y0125540D03*
X0181025Y0117762D03*
X0173525Y0114060D03*
X0164775Y0110729D03*
X0160400Y0110729D03*
X0144439Y0118889D03*
X0138461Y0118985D03*
X0138525Y0110729D03*
X0134150Y0110729D03*
X0112889Y0110729D03*
X0113747Y0118229D03*
X0113868Y0123286D03*
X0123971Y0125540D03*
X0134835Y0131558D03*
X0139896Y0131558D03*
X0148525Y0141344D03*
X0141025Y0150507D03*
X0152183Y0156604D03*
X0155357Y0158490D03*
X0150400Y0161612D03*
X0154150Y0171182D03*
X0173525Y0165668D03*
X0184054Y0168602D03*
X0186693Y0166180D03*
X0190271Y0164980D03*
X0190271Y0153753D03*
X0186693Y0153753D03*
X0177793Y0149733D03*
X0175014Y0153771D03*
X0176207Y0144479D03*
X0170229Y0143450D03*
X0169150Y0136757D03*
X0164150Y0136500D03*
X0164150Y0129882D03*
X0174528Y0134786D03*
X0179946Y0136956D03*
X0173008Y0122184D03*
X0160939Y0123828D03*
X0182275Y0110179D03*
X0179040Y0097604D03*
X0170400Y0091354D03*
X0160996Y0087275D03*
X0156487Y0090714D03*
X0162174Y0081297D03*
X0154025Y0069783D03*
X0156650Y0065729D03*
X0148247Y0064943D03*
X0146025Y0058765D03*
X0142447Y0058765D03*
X0140853Y0066543D03*
X0137275Y0066543D03*
X0133697Y0066543D03*
X0127788Y0058771D03*
X0123410Y0057947D03*
X0122410Y0048536D03*
X0130400Y0048536D03*
X0132900Y0048536D03*
X0109908Y0070396D03*
X0106330Y0070396D03*
X0102752Y0070396D03*
X0090400Y0076661D03*
X0091979Y0090426D03*
X0106711Y0091979D03*
X0116650Y0087286D03*
X0119150Y0087286D03*
X0129150Y0081844D03*
X0130120Y0091626D03*
X0133698Y0092448D03*
X0137056Y0090746D03*
X0094775Y0110729D03*
X0090400Y0110729D03*
X0076867Y0118985D03*
X0070889Y0118913D03*
X0068525Y0111779D03*
X0064150Y0110729D03*
X0056671Y0121325D03*
X0042990Y0111354D03*
X0039040Y0097604D03*
X0083483Y0126740D03*
X0086709Y0128699D03*
X0080622Y0136354D03*
X0068122Y0141354D03*
X0071025Y0150094D03*
X0081810Y0149475D03*
X0083483Y0155646D03*
X0086650Y0153753D03*
X0082178Y0159224D03*
X0088267Y0168733D03*
X0093525Y0157336D03*
X0101650Y0145325D03*
X0107679Y0144479D03*
X0101650Y0138632D03*
X0096650Y0137200D03*
X0096650Y0130507D03*
X0113971Y0137294D03*
X0127287Y0149238D03*
X0123971Y0156634D03*
X0120608Y0158331D03*
X0128609Y0166390D03*
X0123011Y0167309D03*
X0118433Y0168509D03*
X0106650Y0171354D03*
X0109150Y0157336D03*
X0109150Y0151132D03*
X0065400Y0168733D03*
X0050733Y0165830D03*
X0041650Y0164740D03*
X0034775Y0155719D03*
X0044803Y0143425D03*
X0056150Y0151784D03*
X0037900Y0192750D03*
X0042900Y0197604D03*
X0042900Y0200104D03*
X0042900Y0202604D03*
X0042900Y0205104D03*
X0045400Y0205104D03*
X0047900Y0205104D03*
X0050400Y0205104D03*
X0052900Y0205104D03*
X0052900Y0202604D03*
X0050400Y0202604D03*
X0047900Y0202604D03*
X0045400Y0202604D03*
X0045400Y0200104D03*
X0047900Y0200104D03*
X0050400Y0200104D03*
X0052900Y0200104D03*
X0052900Y0197604D03*
X0050400Y0197604D03*
X0047900Y0197604D03*
X0045400Y0197604D03*
X0061711Y0200944D03*
X0065400Y0200104D03*
X0065400Y0202604D03*
X0065400Y0205104D03*
X0067900Y0205104D03*
X0070400Y0205104D03*
X0072900Y0205104D03*
X0075400Y0205104D03*
X0075400Y0202604D03*
X0072900Y0202604D03*
X0070400Y0202604D03*
X0067900Y0202604D03*
X0067900Y0200104D03*
X0070400Y0200104D03*
X0072900Y0200104D03*
X0075400Y0200104D03*
X0075400Y0197604D03*
X0072900Y0197604D03*
X0070400Y0197604D03*
X0067900Y0197604D03*
X0065400Y0197604D03*
X0080309Y0200104D03*
X0087900Y0200104D03*
X0087900Y0202604D03*
X0087900Y0205104D03*
X0090400Y0205104D03*
X0092900Y0205104D03*
X0095400Y0205104D03*
X0097900Y0205104D03*
X0097900Y0202604D03*
X0095400Y0202604D03*
X0092900Y0202604D03*
X0090400Y0202604D03*
X0090400Y0200104D03*
X0092900Y0200104D03*
X0095400Y0200104D03*
X0097900Y0200104D03*
X0097900Y0197604D03*
X0095400Y0197604D03*
X0092900Y0197604D03*
X0090400Y0197604D03*
X0087900Y0197604D03*
X0102900Y0205104D03*
X0110400Y0205104D03*
X0112900Y0205104D03*
X0115400Y0205104D03*
X0117900Y0205104D03*
X0120400Y0205104D03*
X0120400Y0202604D03*
X0117900Y0202604D03*
X0115400Y0202604D03*
X0112900Y0202604D03*
X0110400Y0202604D03*
X0110400Y0200104D03*
X0112900Y0200104D03*
X0115400Y0200104D03*
X0117900Y0200104D03*
X0120400Y0200104D03*
X0120400Y0197604D03*
X0117900Y0197604D03*
X0115400Y0197604D03*
X0112900Y0197604D03*
X0110400Y0197604D03*
X0129810Y0195477D03*
X0132900Y0197604D03*
X0132900Y0200104D03*
X0132900Y0202604D03*
X0132900Y0205104D03*
X0135400Y0205104D03*
X0137900Y0205104D03*
X0140400Y0205104D03*
X0142900Y0205104D03*
X0142900Y0202604D03*
X0140400Y0202604D03*
X0137900Y0202604D03*
X0135400Y0202604D03*
X0135400Y0200104D03*
X0137900Y0200104D03*
X0140400Y0200104D03*
X0142900Y0200104D03*
X0142900Y0197604D03*
X0140400Y0197604D03*
X0137900Y0197604D03*
X0135400Y0197604D03*
X0147789Y0200104D03*
X0155400Y0200104D03*
X0155400Y0202604D03*
X0155400Y0205104D03*
X0157900Y0205104D03*
X0160400Y0205104D03*
X0162900Y0205104D03*
X0165400Y0205104D03*
X0165400Y0202604D03*
X0162900Y0202604D03*
X0160400Y0202604D03*
X0157900Y0202604D03*
X0157900Y0200104D03*
X0160400Y0200104D03*
X0162900Y0200104D03*
X0165400Y0200104D03*
X0165400Y0197604D03*
X0162900Y0197604D03*
X0160400Y0197604D03*
X0157900Y0197604D03*
X0155400Y0197604D03*
X0170400Y0205104D03*
X0177900Y0205104D03*
X0180400Y0205104D03*
X0182900Y0205104D03*
X0185400Y0205104D03*
X0187900Y0205104D03*
X0187900Y0202604D03*
X0185400Y0202604D03*
X0182900Y0202604D03*
X0180400Y0202604D03*
X0177900Y0202604D03*
X0177900Y0200104D03*
X0180400Y0200104D03*
X0182900Y0200104D03*
X0185400Y0200104D03*
X0187900Y0200104D03*
X0187900Y0197604D03*
X0185400Y0197604D03*
X0182900Y0197604D03*
X0180400Y0197604D03*
X0177900Y0197604D03*
X0196387Y0201354D03*
X0200400Y0202604D03*
X0200400Y0205104D03*
X0202900Y0205104D03*
X0205400Y0205104D03*
X0207900Y0205104D03*
X0210400Y0205104D03*
X0210400Y0202604D03*
X0207900Y0202604D03*
X0205400Y0202604D03*
X0202900Y0202604D03*
X0202900Y0200104D03*
X0200400Y0200104D03*
X0200400Y0197604D03*
X0202900Y0197604D03*
X0205400Y0197604D03*
X0205400Y0200104D03*
X0207900Y0200104D03*
X0210400Y0200104D03*
X0210400Y0197604D03*
X0207900Y0197604D03*
X0215309Y0200104D03*
X0222900Y0200104D03*
X0222900Y0202604D03*
X0222900Y0205104D03*
X0225400Y0205104D03*
X0227900Y0205104D03*
X0230400Y0205104D03*
X0232900Y0205104D03*
X0232900Y0202604D03*
X0230400Y0202604D03*
X0227900Y0202604D03*
X0225400Y0202604D03*
X0225400Y0200104D03*
X0227900Y0200104D03*
X0230400Y0200104D03*
X0232900Y0200104D03*
X0232900Y0197604D03*
X0230400Y0197604D03*
X0227900Y0197604D03*
X0225400Y0197604D03*
X0223525Y0194513D03*
X0239039Y0205104D03*
X0222900Y0216560D03*
X0222900Y0223854D03*
X0222900Y0226354D03*
X0222900Y0228854D03*
X0222900Y0231354D03*
X0225400Y0231354D03*
X0227900Y0231354D03*
X0230400Y0231354D03*
X0232900Y0231354D03*
X0232900Y0228854D03*
X0230400Y0228854D03*
X0227900Y0228854D03*
X0225400Y0228854D03*
X0225400Y0226354D03*
X0227900Y0226354D03*
X0230400Y0226354D03*
X0232900Y0226354D03*
X0232900Y0223854D03*
X0230400Y0223854D03*
X0227900Y0223854D03*
X0225400Y0223854D03*
X0210400Y0223854D03*
X0210400Y0226354D03*
X0210400Y0228854D03*
X0210400Y0231354D03*
X0207900Y0231354D03*
X0205400Y0231354D03*
X0202900Y0231354D03*
X0200400Y0231354D03*
X0200400Y0228854D03*
X0202900Y0228854D03*
X0205400Y0228854D03*
X0207900Y0228854D03*
X0207900Y0226354D03*
X0205400Y0226354D03*
X0202900Y0226354D03*
X0200400Y0226354D03*
X0200400Y0223854D03*
X0202900Y0223854D03*
X0205400Y0223854D03*
X0207900Y0223854D03*
X0207275Y0235515D03*
X0187900Y0226354D03*
X0185400Y0226354D03*
X0182900Y0226354D03*
X0180400Y0226354D03*
X0177900Y0226354D03*
X0177900Y0223854D03*
X0180400Y0223854D03*
X0182900Y0223854D03*
X0185400Y0223854D03*
X0187900Y0223854D03*
X0187900Y0221354D03*
X0185400Y0221354D03*
X0182900Y0221354D03*
X0180400Y0221354D03*
X0177900Y0221354D03*
X0177900Y0218854D03*
X0180400Y0218854D03*
X0182900Y0218854D03*
X0185400Y0218854D03*
X0187900Y0218854D03*
X0165400Y0223854D03*
X0165400Y0226354D03*
X0165400Y0228854D03*
X0165400Y0231354D03*
X0162900Y0231354D03*
X0160400Y0231354D03*
X0157900Y0231354D03*
X0155400Y0231354D03*
X0155400Y0228854D03*
X0157900Y0228854D03*
X0160400Y0228854D03*
X0162900Y0228854D03*
X0162900Y0226354D03*
X0160400Y0226354D03*
X0157900Y0226354D03*
X0155400Y0226354D03*
X0155400Y0223854D03*
X0157900Y0223854D03*
X0160400Y0223854D03*
X0162900Y0223854D03*
X0142900Y0223229D03*
X0142900Y0225729D03*
X0142900Y0228229D03*
X0142900Y0230729D03*
X0140400Y0230729D03*
X0137900Y0230729D03*
X0135400Y0230729D03*
X0132900Y0230729D03*
X0132900Y0228229D03*
X0135400Y0228229D03*
X0137900Y0228229D03*
X0140400Y0228229D03*
X0140400Y0225729D03*
X0137900Y0225729D03*
X0135400Y0225729D03*
X0132900Y0225729D03*
X0132900Y0223229D03*
X0135400Y0223229D03*
X0137900Y0223229D03*
X0140400Y0223229D03*
X0141025Y0235515D03*
X0120400Y0226354D03*
X0117900Y0226354D03*
X0115400Y0226354D03*
X0112900Y0226354D03*
X0110400Y0226354D03*
X0110400Y0223854D03*
X0112900Y0223854D03*
X0115400Y0223854D03*
X0117900Y0223854D03*
X0120400Y0223854D03*
X0120400Y0221354D03*
X0117900Y0221354D03*
X0115400Y0221354D03*
X0112900Y0221354D03*
X0110400Y0221354D03*
X0110400Y0218854D03*
X0112900Y0218854D03*
X0115400Y0218854D03*
X0117900Y0218854D03*
X0120400Y0218854D03*
X0097900Y0223229D03*
X0097900Y0225729D03*
X0097900Y0228229D03*
X0097900Y0230729D03*
X0095400Y0230729D03*
X0092900Y0230729D03*
X0090400Y0230729D03*
X0087900Y0230729D03*
X0087900Y0228229D03*
X0090400Y0228229D03*
X0092900Y0228229D03*
X0095400Y0228229D03*
X0095400Y0225729D03*
X0092900Y0225729D03*
X0090400Y0225729D03*
X0087900Y0225729D03*
X0087900Y0223229D03*
X0090400Y0223229D03*
X0092900Y0223229D03*
X0095400Y0223229D03*
X0075400Y0223229D03*
X0075400Y0225729D03*
X0075400Y0228229D03*
X0075400Y0230729D03*
X0072900Y0230729D03*
X0070400Y0230729D03*
X0067900Y0230729D03*
X0065400Y0230729D03*
X0065400Y0228229D03*
X0067900Y0228229D03*
X0070400Y0228229D03*
X0072900Y0228229D03*
X0072900Y0225729D03*
X0070400Y0225729D03*
X0067900Y0225729D03*
X0065400Y0225729D03*
X0065400Y0223229D03*
X0067900Y0223229D03*
X0070400Y0223229D03*
X0072900Y0223229D03*
X0076650Y0235515D03*
X0052900Y0226354D03*
X0050400Y0226354D03*
X0047900Y0226354D03*
X0045400Y0226354D03*
X0042900Y0226354D03*
X0042900Y0223854D03*
X0045400Y0223854D03*
X0047900Y0223854D03*
X0050400Y0223854D03*
X0052900Y0223854D03*
X0052900Y0221354D03*
X0050400Y0221354D03*
X0047900Y0221354D03*
X0045400Y0221354D03*
X0042900Y0221354D03*
X0042900Y0218854D03*
X0045400Y0218854D03*
X0047900Y0218854D03*
X0050400Y0218854D03*
X0052900Y0218854D03*
X0039411Y0227604D03*
X0198712Y0146333D03*
X0206650Y0150507D03*
X0219150Y0158034D03*
X0221179Y0155003D03*
X0226189Y0156190D03*
X0232275Y0158843D03*
X0241650Y0158229D03*
X0217900Y0161612D03*
X0207733Y0166979D03*
X0209150Y0137594D03*
X0214437Y0131358D03*
X0238525Y0087225D03*
X0212900Y0079479D03*
X0210400Y0079479D03*
X0207900Y0079479D03*
X0205400Y0079479D03*
X0205400Y0076979D03*
X0202900Y0076979D03*
X0207900Y0076979D03*
X0210400Y0076979D03*
X0212900Y0076979D03*
X0229506Y0064307D03*
X0229506Y0060729D03*
X0212900Y0048536D03*
X0212900Y0046036D03*
X0210400Y0046036D03*
X0207900Y0046036D03*
X0205400Y0046036D03*
X0202900Y0046036D03*
X0202900Y0048536D03*
X0205400Y0048536D03*
X0207900Y0048536D03*
X0210400Y0048536D03*
X0223525Y0037983D03*
X0208525Y0031979D03*
X0188525Y0029479D03*
X0183636Y0044590D03*
X0165252Y0042752D03*
X0193204Y0059165D03*
X0237275Y0037983D03*
X0240511Y0031585D03*
X0246650Y0030507D03*
X0094775Y0030411D03*
X0085400Y0043509D03*
X0085400Y0046036D03*
X0082900Y0046036D03*
X0082900Y0048536D03*
X0085400Y0048536D03*
X0087900Y0048536D03*
X0087900Y0046036D03*
X0090400Y0046036D03*
X0092900Y0046036D03*
X0092900Y0048536D03*
X0090400Y0048536D03*
X0090306Y0062509D03*
X0062900Y0062281D03*
X0061650Y0043536D03*
X0061650Y0041036D03*
X0059150Y0041036D03*
X0056650Y0041036D03*
X0054150Y0041036D03*
X0054150Y0043536D03*
X0056650Y0043536D03*
X0059150Y0043536D03*
X0064150Y0043536D03*
X0064150Y0041036D03*
X0075400Y0029786D03*
X0236650Y0235104D03*
D30*
X0234775Y0182604D03*
X0230400Y0182604D03*
X0226025Y0182604D03*
X0221650Y0182604D03*
X0217275Y0182604D03*
X0212900Y0182604D03*
X0208525Y0182604D03*
X0204150Y0182604D03*
X0199775Y0182604D03*
X0195400Y0182604D03*
X0191025Y0182604D03*
X0186650Y0182604D03*
X0182275Y0182604D03*
X0177900Y0182604D03*
X0173525Y0182604D03*
X0169150Y0182604D03*
X0164775Y0182604D03*
X0160400Y0182604D03*
X0156025Y0182604D03*
X0151650Y0182604D03*
X0147275Y0182604D03*
X0142900Y0182604D03*
X0138525Y0182604D03*
X0134150Y0182604D03*
X0129775Y0182604D03*
X0125400Y0182604D03*
X0121025Y0182604D03*
X0116650Y0182604D03*
X0112275Y0182604D03*
X0107900Y0182604D03*
X0103525Y0182604D03*
X0099150Y0182604D03*
X0094775Y0182604D03*
X0090400Y0182604D03*
X0086025Y0182604D03*
X0081650Y0182604D03*
X0077275Y0182604D03*
X0072900Y0182604D03*
X0068525Y0182604D03*
X0064150Y0182604D03*
X0059775Y0182604D03*
X0055400Y0182604D03*
X0051025Y0182604D03*
X0046650Y0182604D03*
X0042275Y0182604D03*
X0037900Y0182604D03*
X0042900Y0178229D03*
X0047900Y0178229D03*
X0052900Y0178229D03*
X0057900Y0178229D03*
X0062900Y0178229D03*
X0067900Y0178229D03*
X0072900Y0178229D03*
X0077900Y0178229D03*
X0082900Y0178229D03*
X0087900Y0178229D03*
X0092900Y0178229D03*
X0097900Y0178229D03*
X0102900Y0178229D03*
X0110400Y0178229D03*
X0115400Y0178229D03*
X0120400Y0178229D03*
X0125400Y0178229D03*
X0130400Y0178229D03*
X0135400Y0178229D03*
X0140400Y0178229D03*
X0145400Y0178229D03*
X0150400Y0178229D03*
X0160400Y0178229D03*
X0165400Y0178229D03*
X0170400Y0178229D03*
X0184150Y0178229D03*
X0188525Y0178229D03*
X0192900Y0178229D03*
X0197900Y0178229D03*
X0202900Y0178229D03*
X0207900Y0178229D03*
X0212900Y0178229D03*
X0217900Y0178229D03*
X0227900Y0178229D03*
X0232900Y0178229D03*
X0237900Y0178229D03*
X0239150Y0182604D03*
X0243525Y0182604D03*
X0247900Y0182604D03*
X0247900Y0104479D03*
X0243525Y0104479D03*
X0239150Y0104479D03*
X0234775Y0104479D03*
X0230400Y0104479D03*
X0226025Y0104479D03*
X0221650Y0104479D03*
X0217275Y0104479D03*
X0212900Y0104479D03*
X0208525Y0104479D03*
X0204150Y0104479D03*
X0199775Y0104479D03*
X0195400Y0104479D03*
X0191025Y0104479D03*
X0186650Y0104479D03*
X0182275Y0104479D03*
X0177900Y0104479D03*
X0173525Y0104479D03*
X0169150Y0104479D03*
X0164775Y0104479D03*
X0160400Y0104479D03*
X0156025Y0104479D03*
X0151650Y0104479D03*
X0147275Y0104479D03*
X0142900Y0104479D03*
X0138525Y0104479D03*
X0134150Y0104479D03*
X0129775Y0104479D03*
X0125400Y0104479D03*
X0121025Y0104479D03*
X0116650Y0104479D03*
X0112275Y0104479D03*
X0107900Y0104479D03*
X0103525Y0104479D03*
X0099150Y0104479D03*
X0094775Y0104479D03*
X0090400Y0104479D03*
X0086025Y0104479D03*
X0081650Y0104479D03*
X0077275Y0104479D03*
X0072900Y0104479D03*
X0068525Y0104479D03*
X0064150Y0104479D03*
X0059775Y0104479D03*
X0055400Y0104479D03*
X0051025Y0104479D03*
X0046650Y0104479D03*
X0042275Y0104479D03*
X0037900Y0104479D03*
X0042900Y0100104D03*
X0047900Y0100104D03*
X0052900Y0100104D03*
X0057900Y0100104D03*
X0062900Y0100104D03*
X0067900Y0100104D03*
X0072900Y0100104D03*
X0077900Y0100104D03*
X0082900Y0100104D03*
X0087900Y0100104D03*
X0092900Y0100104D03*
X0097900Y0100104D03*
X0102900Y0100104D03*
X0110400Y0100104D03*
X0115400Y0100104D03*
X0120400Y0100104D03*
X0125400Y0100104D03*
X0130400Y0100104D03*
X0135400Y0100104D03*
X0140400Y0100104D03*
X0145400Y0100104D03*
X0150400Y0100104D03*
X0160400Y0100104D03*
X0165400Y0100104D03*
X0170400Y0100104D03*
X0182900Y0100104D03*
X0187900Y0100104D03*
X0192900Y0100104D03*
X0197900Y0100104D03*
X0202900Y0100104D03*
X0207900Y0100104D03*
X0212900Y0100104D03*
X0217900Y0100104D03*
X0227900Y0100104D03*
X0232900Y0100104D03*
X0237900Y0100104D03*
D31*
X0241650Y0200729D03*
M02*
