M48
;GenerationSoftware,Autodesk,EAGLE,9.6.2*%
;CreationDate,2020-09-13T20:47:30Z*%
FMAT,2
ICI,OFF
METRIC,TZ,000.000
T4C0.200
T3C0.400
T2C1.000
T1C1.016
%
G90
M71
T1
X3461Y23304
X3461Y8064
X52578Y15659
X52578Y13119
X52578Y10579
X57658Y35985
X57658Y33445
X3461Y28384
X57658Y13119
X57658Y15659
X57658Y10579
X3461Y25844
X57658Y30905
X3461Y20765
X3461Y18225
X3461Y15684
X3461Y13144
X3461Y10605
X57658Y8039
X55118Y15659
X55118Y13119
X55118Y10579
X50038Y15659
X50038Y13119
X50038Y10579
X3461Y30924
X20917Y1981
X57658Y28365
X57658Y25825
X57658Y23285
X57658Y20739
X57658Y18199
X23457Y1981
X25997Y1981
X28537Y1981
X31077Y1981
X33617Y1981
X36157Y1981
X38697Y1981
X41237Y1981
X3461Y36005
X3461Y33465
T2
X22047Y32760
X39065Y35274
X39065Y34017
X39065Y32760
X39065Y31502
X22047Y31502
X39065Y30245
X22047Y30245
X39065Y15646
X22047Y25914
X22047Y24657
X39065Y27172
X39065Y25914
X39065Y24657
X39065Y23400
X22047Y23400
X23787Y6947
X25044Y6947
X26302Y6947
X29299Y6947
X30556Y6947
X31813Y6947
X34811Y6947
X36068Y6947
X37325Y6947
X37325Y37128
X36068Y37128
X34811Y37128
X31813Y37128
X30556Y37128
X29299Y37128
X26302Y37128
X25044Y37128
X39065Y28429
X22047Y28429
X22047Y27172
X39065Y12573
X22047Y13830
X39065Y13830
X22047Y35274
X39065Y8801
X39065Y10058
X39065Y11316
X22047Y8801
X22047Y10058
X23787Y37128
X22047Y12573
X39065Y16904
X39065Y18161
X39065Y19418
X22047Y16904
X22047Y18161
X22047Y19418
X22047Y20676
X39065Y20676
X22047Y15646
X22047Y34017
X22047Y11316
T3
X28035Y23685
X28035Y24219
X28569Y23685
X29102Y23685
X29635Y23685
X30169Y23685
X30702Y23685
X31236Y23685
X29801Y24219
X29801Y24752
X30334Y24219
X30867Y24219
X31401Y24219
X30334Y24752
X30867Y24752
X31401Y24752
X29293Y31858
X29826Y31858
X30359Y31858
X30893Y31858
X31426Y31858
X31960Y31858
X32493Y31858
X28759Y31325
X29293Y31325
X29826Y31325
X30359Y31325
X30893Y31325
X31426Y31325
X31960Y31325
X32493Y31325
X15881Y17380
X37897Y31858
X37363Y31858
X37897Y31325
X37363Y31325
X36830Y31858
X36297Y31858
X35763Y31858
X35230Y31858
X34696Y31858
X34163Y31858
X33630Y31858
X36830Y31325
X36297Y31325
X35763Y31325
X35230Y31325
X34696Y31325
X34163Y31325
X33630Y31325
X36894Y23685
X36894Y24219
X36894Y24752
X36354Y23685
X35820Y23685
X35287Y23685
X34754Y23685
X34220Y23685
X33687Y23685
X36354Y24219
X35820Y24219
X35287Y24219
X34754Y24219
X34220Y24219
X36354Y24752
X35820Y24752
X35287Y24752
X34754Y24752
X34220Y24752
X43072Y10109
X42539Y10109
X44139Y10109
X43605Y10109
X44672Y10109
X45206Y10109
X45739Y10109
X43072Y9576
X42539Y9576
X44139Y9576
X43605Y9576
X44672Y9576
X45206Y9576
X45739Y9576
X43072Y9042
X42539Y9042
X44139Y9042
X43605Y9042
X44672Y9042
X45206Y9042
X45739Y9042
X43072Y8509
X42539Y8509
X44139Y8509
X43605Y8509
X44672Y8509
X45206Y8509
X45739Y8509
X43072Y7976
X42539Y7976
X44139Y7976
X43605Y7976
X44672Y7976
X45206Y7976
X45739Y7976
X43072Y7442
X42539Y7442
X44139Y7442
X43605Y7442
X44672Y7442
X45206Y7442
X45739Y7442
X43047Y30112
X42513Y30112
X44113Y30112
X43580Y30112
X44647Y30112
X45180Y30112
X45714Y30112
X43047Y29578
X42513Y29578
X44113Y29578
X43580Y29578
X44647Y29578
X45180Y29578
X45714Y29578
X43047Y29045
X42513Y29045
X44113Y29045
X43580Y29045
X44647Y29045
X45180Y29045
X45714Y29045
X43047Y28511
X42513Y28511
X44113Y28511
X43580Y28511
X44647Y28511
X45180Y28511
X45714Y28511
X43047Y27978
X42513Y27978
X44113Y27978
X43580Y27978
X44647Y27978
X45180Y27978
X45714Y27978
X43047Y27445
X42513Y27445
X44113Y27445
X43580Y27445
X44647Y27445
X45180Y27445
X45714Y27445
X43040Y26562
X42507Y26562
X44107Y26562
X43574Y26562
X44640Y26562
X45174Y26562
X45707Y26562
X43040Y26029
X42507Y26029
X44107Y26029
X43574Y26029
X44640Y26029
X45174Y26029
X45707Y26029
X43040Y25495
X42507Y25495
X44107Y25495
X43574Y25495
X44640Y25495
X45174Y25495
X45707Y25495
X43040Y24962
X42507Y24962
X44107Y24962
X43574Y24962
X44640Y24962
X45174Y24962
X45707Y24962
X43040Y24428
X42507Y24428
X44107Y24428
X43574Y24428
X44640Y24428
X45174Y24428
X45707Y24428
X43040Y23895
X42507Y23895
X44107Y23895
X43574Y23895
X44640Y23895
X45174Y23895
X45707Y23895
X51175Y30207
X50641Y30207
X52241Y30207
X51708Y30207
X52775Y30207
X53308Y30207
X53842Y30207
X51175Y29674
X50641Y29674
X52241Y29674
X51708Y29674
X52775Y29674
X53308Y29674
X53842Y29674
X51175Y29140
X50641Y29140
X52241Y29140
X51708Y29140
X52775Y29140
X53308Y29140
X53842Y29140
X51175Y28607
X50641Y28607
X52241Y28607
X51708Y28607
X52775Y28607
X53308Y28607
X53842Y28607
X51175Y28073
X50641Y28073
X52241Y28073
X51708Y28073
X52775Y28073
X53308Y28073
X53842Y28073
X51175Y27540
X50641Y27540
X52241Y27540
X51708Y27540
X52775Y27540
X53308Y27540
X53842Y27540
X51168Y26657
X50635Y26657
X52235Y26657
X51702Y26657
X52768Y26657
X53302Y26657
X53835Y26657
X51168Y26124
X50635Y26124
X52235Y26124
X51702Y26124
X52768Y26124
X53302Y26124
X53835Y26124
X51168Y25590
X50635Y25590
X52235Y25590
X51702Y25590
X52768Y25590
X53302Y25590
X53835Y25590
X51168Y25057
X50635Y25057
X52235Y25057
X51702Y25057
X52768Y25057
X53302Y25057
X53835Y25057
X51168Y24524
X50635Y24524
X52235Y24524
X51702Y24524
X52768Y24524
X53302Y24524
X53835Y24524
X51168Y23990
X50635Y23990
X52235Y23990
X51702Y23990
X52768Y23990
X53302Y23990
X53835Y23990
X18047Y10147
X18580Y10147
X16980Y10147
X17513Y10147
X16447Y10147
X15913Y10147
X15380Y10147
X18047Y9614
X18580Y9614
X16980Y9614
X17513Y9614
X16447Y9614
X15913Y9614
X15380Y9614
X18047Y9081
X18580Y9081
X16980Y9081
X17513Y9081
X16447Y9081
X15913Y9081
X15380Y9081
X18047Y8547
X18580Y8547
X16980Y8547
X17513Y8547
X16447Y8547
X15913Y8547
X15380Y8547
X18047Y8014
X18580Y8014
X16980Y8014
X17513Y8014
X16447Y8014
X15913Y8014
X15380Y8014
X18047Y7480
X18580Y7480
X16980Y7480
X17513Y7480
X16447Y7480
X15913Y7480
X15380Y7480
X18015Y30105
X18548Y30105
X16948Y30105
X17482Y30105
X16415Y30105
X15881Y30105
X15348Y30105
X18015Y29572
X18548Y29572
X16948Y29572
X17482Y29572
X16415Y29572
X15881Y29572
X15348Y29572
X18015Y29039
X18548Y29039
X16948Y29039
X17482Y29039
X16415Y29039
X15881Y29039
X15348Y29039
X18015Y28505
X18548Y28505
X16948Y28505
X17482Y28505
X16415Y28505
X15881Y28505
X15348Y28505
X18015Y27972
X18548Y27972
X16948Y27972
X17482Y27972
X16415Y27972
X15881Y27972
X15348Y27972
X18015Y27438
X18548Y27438
X16948Y27438
X17482Y27438
X16415Y27438
X15881Y27438
X15348Y27438
X18021Y26556
X18555Y26556
X16955Y26556
X17488Y26556
X16421Y26556
X15888Y26556
X15354Y26556
X18021Y26022
X18555Y26022
X16955Y26022
X17488Y26022
X16421Y26022
X15888Y26022
X15354Y26022
X18021Y25489
X18555Y25489
X16955Y25489
X17488Y25489
X16421Y25489
X15888Y25489
X15354Y25489
X18021Y24955
X18555Y24955
X16955Y24955
X17488Y24955
X16421Y24955
X15888Y24955
X15354Y24955
X18021Y24422
X18555Y24422
X16955Y24422
X17488Y24422
X16421Y24422
X15888Y24422
X15354Y24422
X18021Y23889
X18555Y23889
X16955Y23889
X17488Y23889
X16421Y23889
X15888Y23889
X15354Y23889
X10046Y30150
X10579Y30150
X8979Y30150
X9512Y30150
X8446Y30150
X7912Y30150
X7379Y30150
X10046Y29616
X10579Y29616
X8979Y29616
X9512Y29616
X8446Y29616
X7912Y29616
X7379Y29616
X10046Y29083
X10579Y29083
X8979Y29083
X9512Y29083
X8446Y29083
X7912Y29083
X7379Y29083
X10046Y28550
X10579Y28550
X8979Y28550
X9512Y28550
X8446Y28550
X7912Y28550
X7379Y28550
X10046Y28016
X10579Y28016
X8979Y28016
X9512Y28016
X8446Y28016
X7912Y28016
X7379Y28016
X10046Y27483
X10579Y27483
X8979Y27483
X9512Y27483
X8446Y27483
X7912Y27483
X7379Y27483
X10052Y26600
X10585Y26600
X8985Y26600
X9519Y26600
X8452Y26600
X7918Y26600
X7385Y26600
X10052Y26067
X10585Y26067
X8985Y26067
X9519Y26067
X8452Y26067
X7918Y26067
X7385Y26067
X10052Y25533
X10585Y25533
X8985Y25533
X9519Y25533
X8452Y25533
X7918Y25533
X7385Y25533
X10052Y25000
X10585Y25000
X8985Y25000
X9519Y25000
X8452Y25000
X7918Y25000
X7385Y25000
X10052Y24467
X10585Y24467
X8985Y24467
X9519Y24467
X8452Y24467
X7918Y24467
X7385Y24467
X10052Y23933
X10585Y23933
X8985Y23933
X9519Y23933
X8452Y23933
X7918Y23933
X7385Y23933
X42602Y20123
X43136Y20123
X43669Y20123
X44202Y20123
X42602Y19590
X43136Y19590
X43669Y19590
X44202Y19590
X42602Y19056
X43136Y19056
X43669Y19056
X44202Y19056
X42602Y18523
X43136Y18523
X43669Y18523
X44202Y18523
X42602Y17990
X43136Y17990
X43669Y17990
X44202Y17990
X42602Y17456
X43136Y17456
X43669Y17456
X44202Y17456
X42596Y16574
X43129Y16574
X43663Y16574
X44196Y16574
X42596Y16040
X43129Y16040
X43663Y16040
X44196Y16040
X42596Y15507
X43129Y15507
X43663Y15507
X44196Y15507
X42596Y14973
X43129Y14973
X43663Y14973
X44196Y14973
X42596Y14440
X43129Y14440
X43663Y14440
X44196Y14440
X42596Y13906
X43129Y13906
X43663Y13906
X44196Y13906
X50686Y20568
X50152Y20568
X51752Y20568
X51219Y20568
X52286Y20568
X52819Y20568
X53353Y20568
X50686Y20034
X50152Y20034
X51752Y20034
X51219Y20034
X52286Y20034
X52819Y20034
X53353Y20034
X50686Y19501
X50152Y19501
X51752Y19501
X51219Y19501
X52286Y19501
X52819Y19501
X53353Y19501
X50686Y18967
X50152Y18967
X51752Y18967
X51219Y18967
X52286Y18967
X52819Y18967
X53353Y18967
X50686Y18434
X50152Y18434
X51752Y18434
X51219Y18434
X52286Y18434
X52819Y18434
X53353Y18434
X50686Y17901
X50152Y17901
X51752Y17901
X51219Y17901
X52286Y17901
X52819Y17901
X53353Y17901
X50965Y36601
X50432Y36601
X52032Y36601
X51498Y36601
X52565Y36601
X53099Y36601
X53632Y36601
X50965Y36068
X50432Y36068
X52032Y36068
X51498Y36068
X52565Y36068
X53099Y36068
X53632Y36068
X50965Y35535
X50432Y35535
X52032Y35535
X51498Y35535
X52565Y35535
X53099Y35535
X53632Y35535
X50965Y35001
X50432Y35001
X52032Y35001
X51498Y35001
X52565Y35001
X53099Y35001
X53632Y35001
X50965Y34468
X50432Y34468
X52032Y34468
X51498Y34468
X52565Y34468
X53099Y34468
X53632Y34468
X50965Y33934
X50432Y33934
X52032Y33934
X51498Y33934
X52565Y33934
X53099Y33934
X53632Y33934
X43066Y36620
X42532Y36620
X44132Y36620
X43599Y36620
X44666Y36620
X45199Y36620
X45733Y36620
X43066Y36087
X42532Y36087
X44132Y36087
X43599Y36087
X44666Y36087
X45199Y36087
X45733Y36087
X43066Y35554
X42532Y35554
X44132Y35554
X43599Y35554
X44666Y35554
X45199Y35554
X45733Y35554
X43066Y35020
X42532Y35020
X44132Y35020
X43599Y35020
X44666Y35020
X45199Y35020
X45733Y35020
X43066Y34487
X42532Y34487
X44132Y34487
X43599Y34487
X44666Y34487
X45199Y34487
X45733Y34487
X43066Y33953
X42532Y33953
X44132Y33953
X43599Y33953
X44666Y33953
X45199Y33953
X45733Y33953
X18555Y20047
X18021Y20047
X17488Y20047
X16955Y20047
X18555Y19514
X18021Y19514
X17488Y19514
X16955Y19514
X18555Y18980
X18021Y18980
X17488Y18980
X16955Y18980
X18555Y18447
X18021Y18447
X17488Y18447
X16955Y18447
X18555Y17913
X18021Y17913
X17488Y17913
X16955Y17913
X18555Y17380
X18021Y17380
X17488Y17380
X16955Y17380
X18561Y16497
X18028Y16497
X17494Y16497
X16961Y16497
X18561Y15964
X18028Y15964
X17494Y15964
X16961Y15964
X18561Y15430
X18028Y15430
X17494Y15430
X16961Y15430
X18561Y14897
X18028Y14897
X17494Y14897
X16961Y14897
X18561Y14364
X18028Y14364
X17494Y14364
X16961Y14364
X18561Y13830
X18028Y13830
X17494Y13830
X16961Y13830
X10300Y20079
X10833Y20079
X9233Y20079
X9766Y20079
X8700Y20079
X8166Y20079
X7633Y20079
X10300Y19545
X10833Y19545
X9233Y19545
X9766Y19545
X8700Y19545
X8166Y19545
X7633Y19545
X10300Y19012
X10833Y19012
X9233Y19012
X9766Y19012
X8700Y19012
X8166Y19012
X7633Y19012
X10300Y18479
X10833Y18479
X9233Y18479
X9766Y18479
X8700Y18479
X8166Y18479
X7633Y18479
X10300Y17945
X10833Y17945
X9233Y17945
X9766Y17945
X8700Y17945
X8166Y17945
X7633Y17945
X10300Y17412
X10833Y17412
X9233Y17412
X9766Y17412
X8700Y17412
X8166Y17412
X7633Y17412
X10128Y36640
X10662Y36640
X9061Y36640
X9595Y36640
X8528Y36640
X7995Y36640
X7461Y36640
X10128Y36106
X10662Y36106
X9061Y36106
X9595Y36106
X8528Y36106
X7995Y36106
X7461Y36106
X10128Y35573
X10662Y35573
X9061Y35573
X9595Y35573
X8528Y35573
X7995Y35573
X7461Y35573
X10128Y35039
X10662Y35039
X9061Y35039
X9595Y35039
X8528Y35039
X7995Y35039
X7461Y35039
X10128Y34506
X10662Y34506
X9061Y34506
X9595Y34506
X8528Y34506
X7995Y34506
X7461Y34506
X10128Y33973
X10662Y33973
X9061Y33973
X9595Y33973
X8528Y33973
X7995Y33973
X7461Y33973
X17996Y36627
X18529Y36627
X16929Y36627
X17463Y36627
X16396Y36627
X15862Y36627
X15329Y36627
X17996Y36093
X18529Y36093
X16929Y36093
X17463Y36093
X16396Y36093
X15862Y36093
X15329Y36093
X17996Y35560
X18529Y35560
X16929Y35560
X17463Y35560
X16396Y35560
X15862Y35560
X15329Y35560
X17996Y35027
X18529Y35027
X16929Y35027
X17463Y35027
X16396Y35027
X15862Y35027
X15329Y35027
X17996Y34493
X18529Y34493
X16929Y34493
X17463Y34493
X16396Y34493
X15862Y34493
X15329Y34493
X17996Y33960
X18529Y33960
X16929Y33960
X17463Y33960
X16396Y33960
X15862Y33960
X15329Y33960
X16415Y20047
X15881Y20047
X15348Y20047
X16415Y19514
X15881Y19514
X15348Y19514
X16415Y18980
X15881Y18980
X15348Y18980
X16415Y18447
X15881Y18447
X15348Y18447
X16415Y17913
X15881Y17913
X15348Y17913
X16415Y17380
X15348Y17380
X16421Y16497
X15888Y16497
X15354Y16497
X16421Y15964
X15888Y15964
X15354Y15964
X16421Y15430
X15888Y15430
X15354Y15430
X16421Y14897
X15888Y14897
X15354Y14897
X16421Y14364
X15888Y14364
X15354Y14364
X16421Y13830
X15888Y13830
X15354Y13830
X44748Y20123
X45282Y20123
X45815Y20123
X44748Y19590
X45282Y19590
X45815Y19590
X44748Y19056
X45282Y19056
X45815Y19056
X44748Y18523
X45282Y18523
X45815Y18523
X44748Y17990
X45282Y17990
X45815Y17990
X44748Y17456
X45282Y17456
X45815Y17456
X44742Y16574
X45275Y16574
X45809Y16574
X44742Y16040
X45275Y16040
X45809Y16040
X44742Y15507
X45275Y15507
X45809Y15507
X44742Y14973
X45275Y14973
X45809Y14973
X44742Y14440
X45275Y14440
X45809Y14440
X44742Y13906
X45275Y13906
X45809Y13906
X23216Y23679
X23216Y24213
X23216Y24746
X23216Y25279
X23749Y25279
X24282Y25279
X24816Y25279
X25349Y25279
X25883Y25279
X23749Y24746
X24282Y24746
X24816Y24746
X25349Y24746
X25883Y24746
X23749Y24213
X24282Y24213
X24816Y24213
X25349Y24213
X25883Y24213
X23749Y23679
X24282Y23679
X24816Y23679
X25349Y23679
X25883Y23679
X23216Y31858
X23216Y31325
X23749Y31858
X23749Y31325
X24282Y31858
X24282Y31325
X24816Y31858
X24816Y31325
X25349Y31858
X25883Y31858
X26416Y31858
X26949Y31858
X25349Y31325
X25883Y31325
X26416Y31325
X26949Y31325
X27483Y31858
X27483Y31325
X28226Y31858
X28226Y31325
X28759Y31858
T4
X34257Y8439
X29560Y20486
X30760Y20486
X30061Y15934
X31799Y15757
X25462Y20091
X25268Y10465
X23832Y10362
X35615Y8227
X36285Y15802
X37046Y19796
X26683Y15418
X31058Y11341
X25376Y14435
X25376Y14105
X25090Y14270
X25090Y13940
X37376Y19796
X37706Y19796
X37211Y19510
X37541Y19510
X37211Y20082
X37541Y20082
X31058Y11671
X30772Y11506
X31344Y11506
X31344Y11836
X30772Y11836
X31058Y12001
X31629Y11671
X31629Y12001
X31344Y12167
X31058Y12332
X30772Y12167
X30486Y11671
X30486Y12001
X30486Y12332
X31629Y12332
X31629Y11341
X30486Y11341
X37376Y19224
X37046Y19224
X37706Y19224
X37376Y20367
X37706Y20367
X37046Y20367
X23400Y16443
X23730Y16424
X23584Y16716
X23260Y16742
X23914Y16697
X24060Y16399
X23768Y16989
X30760Y18823
X29048Y17013
X32148Y23723
X30566Y16719
X28334Y19868
X33132Y26045
X32565Y16813
X28550Y16743
X29560Y18461
X29520Y21029
X31140Y22587
X32752Y21077
X37890Y16459
X37230Y16459
X37560Y16459
X30799Y21270
X28678Y24467
X33786Y19755
X33427Y16833
X23870Y14903
X29153Y25097
X26886Y12459
X27980Y26337
X32050Y17003
X28575Y15874
X36056Y12358
X37890Y17602
X37230Y17602
X37560Y17602
X29553Y26708
X34774Y9524
X28333Y25154
X33723Y26462
X30360Y18455
X28048Y17009
X24600Y15669
X31553Y16719
X32779Y24467
X26160Y16256
X34217Y19419
X30051Y8435
X23863Y13913
X23870Y14243
X23863Y14573
X25895Y9572
X26899Y13248
X34938Y11876
X26459Y12120
X32488Y15874
X35265Y21630
X27261Y30266
X29953Y25502
X31702Y18455
X29547Y16743
X27788Y16077
X33166Y28402
X28759Y18455
X27505Y16896
X25160Y17101
X25550Y13003
X28421Y21558
X31953Y25502
X29159Y18829
X28621Y21053
X30585Y22587
X30053Y17005
X34217Y20091
X35073Y8191
X32701Y15191
X29551Y8162
X23578Y20067
X25462Y17766
X23578Y18167
X26721Y14511
X28111Y7615
X26016Y8776
X33057Y7587
X34790Y18712
X34179Y21274
X33471Y9335
X34501Y18232
X34722Y21452
X33963Y17751
X26721Y13969
X35808Y21808
X33180Y26588
X29960Y18829
X25913Y17101
X25768Y13572
X28753Y25502
X22606Y29337
X32360Y18455
X25129Y16250
X25913Y18174
X26721Y11336
X26793Y9891
X27334Y19690
X27569Y7615
X37446Y22884
X33600Y7593
X27375Y19148
X35827Y15151
X37437Y22341
X34938Y10308
X34938Y10851
X32986Y17170
X36894Y22163
X33820Y17208
X36351Y21985
X26001Y11553
X26030Y12464
X28892Y9674
X30799Y15654
X37401Y9093
X36342Y14966
X38195Y12795
X38170Y12224
X38043Y13087
X37382Y13113
X37713Y13100
X37509Y12249
X37840Y12236
X38017Y12516
X37865Y12808
X37535Y12821
X37687Y12529
X37357Y12541
X37395Y17316
X37230Y17031
X37395Y16745
X37725Y16745
X37725Y17316
X37560Y17031
X37890Y17031
X25704Y7857
X26278Y19117
X33563Y15933
X35063Y9046
X33167Y8435
X37922Y10138
X37878Y10715
X37548Y10690
X37211Y10665
X37592Y10112
X37262Y10087
X37738Y10411
X37071Y10366
X37402Y10392
X36932Y8220
X36608Y8226
X36278Y8239
X35947Y8226
X23165Y8785
X23152Y9115
X23158Y9445
X23165Y9782
X24333Y10080
X24162Y10360
X24003Y10074
X23673Y10068
X23336Y10068
X23171Y10354
X23501Y10354
X23438Y17021
X24098Y16970
X38479Y29350
M30