G04 EAGLE Gerber RS-274X export*
G75*
%MOMM*%
%FSLAX34Y34*%
%LPD*%
%INSilkscreen Bottom*%
%IPPOS*%
%AMOC8*
5,1,8,0,0,1.08239X$1,22.5*%
G01*
%ADD10C,0.076200*%
%ADD11C,0.127000*%
%ADD12C,0.152400*%
%ADD13C,0.203200*%


D10*
X220409Y309245D02*
X261874Y309245D01*
X261874Y233934D01*
X349250Y309245D02*
X390716Y309245D01*
X349250Y309245D02*
X349250Y233934D01*
D11*
X345501Y95027D02*
X345501Y80027D01*
X330501Y80027D01*
X345501Y160027D02*
X345501Y175027D01*
X330501Y175027D01*
X265501Y175027D02*
X250501Y175027D01*
X250501Y160027D01*
X250501Y95027D02*
X250501Y80027D01*
X265501Y80027D01*
X330501Y80027D02*
X345501Y95027D01*
X257776Y176674D02*
X257776Y205674D01*
X240776Y205674D01*
X240776Y181674D01*
X240776Y176674D01*
X245776Y176674D01*
X257776Y176674D01*
X245776Y181674D02*
X240776Y181674D01*
X245776Y181674D02*
X245776Y176674D01*
D12*
X274033Y260406D02*
X337033Y260406D01*
X337033Y245406D02*
X274033Y245406D01*
X337033Y245406D02*
X337033Y260406D01*
X274033Y260406D02*
X274033Y245406D01*
X270096Y176914D02*
X341096Y176914D01*
X341096Y202914D02*
X270096Y202914D01*
X341096Y202914D02*
X341096Y176914D01*
X270096Y176914D02*
X270096Y202914D01*
D13*
X133059Y272302D02*
X133059Y354802D01*
X118559Y369302D02*
X105559Y369302D01*
X76559Y369302D02*
X63559Y369302D01*
X49059Y354802D02*
X49059Y272302D01*
X76559Y272302D01*
X105559Y272302D02*
X133059Y272302D01*
X133059Y354802D02*
X118559Y369302D01*
X63559Y369302D02*
X49059Y354802D01*
X105059Y357302D02*
X105943Y356951D01*
X106818Y356578D01*
X107684Y356184D01*
X108540Y355769D01*
X109386Y355333D01*
X110220Y354877D01*
X111044Y354401D01*
X111855Y353904D01*
X112655Y353389D01*
X113441Y352854D01*
X114214Y352299D01*
X114974Y351727D01*
X115719Y351136D01*
X116450Y350527D01*
X117166Y349900D01*
X117866Y349256D01*
X118551Y348595D01*
X119219Y347918D01*
X119870Y347225D01*
X120504Y346516D01*
X121121Y345792D01*
X121721Y345053D01*
X122302Y344300D01*
X122864Y343533D01*
X123408Y342752D01*
X123932Y341959D01*
X124437Y341153D01*
X124923Y340334D01*
X125388Y339505D01*
X125833Y338664D01*
X126257Y337813D01*
X126661Y336951D01*
X127043Y336080D01*
X127404Y335200D01*
X127744Y334311D01*
X128061Y333415D01*
X128357Y332511D01*
X128631Y331600D01*
X128883Y330682D01*
X129112Y329759D01*
X129319Y328830D01*
X129503Y327897D01*
X129664Y326960D01*
X129802Y326019D01*
X129918Y325074D01*
X130010Y324128D01*
X130080Y323179D01*
X130126Y322229D01*
X130149Y321278D01*
X130149Y320326D01*
X130126Y319375D01*
X130080Y318425D01*
X130010Y317476D01*
X129918Y316530D01*
X129802Y315585D01*
X129664Y314644D01*
X129503Y313707D01*
X129319Y312774D01*
X129112Y311845D01*
X128883Y310922D01*
X128631Y310004D01*
X128357Y309093D01*
X128061Y308189D01*
X127744Y307293D01*
X127404Y306404D01*
X127043Y305524D01*
X126661Y304653D01*
X126257Y303791D01*
X125833Y302940D01*
X125388Y302099D01*
X124923Y301270D01*
X124437Y300451D01*
X123932Y299645D01*
X123408Y298852D01*
X122864Y298071D01*
X122302Y297304D01*
X121721Y296551D01*
X121121Y295812D01*
X120504Y295088D01*
X119870Y294379D01*
X119219Y293686D01*
X118551Y293009D01*
X117866Y292348D01*
X117166Y291704D01*
X116450Y291077D01*
X115719Y290468D01*
X114974Y289877D01*
X114214Y289305D01*
X113441Y288750D01*
X112655Y288215D01*
X111855Y287700D01*
X111044Y287203D01*
X110220Y286727D01*
X109386Y286271D01*
X108540Y285835D01*
X107684Y285420D01*
X106818Y285026D01*
X105943Y284653D01*
X105059Y284302D01*
X77059Y284302D02*
X76175Y284653D01*
X75300Y285026D01*
X74434Y285420D01*
X73578Y285835D01*
X72732Y286271D01*
X71898Y286727D01*
X71074Y287203D01*
X70263Y287700D01*
X69463Y288215D01*
X68677Y288750D01*
X67904Y289305D01*
X67144Y289877D01*
X66399Y290468D01*
X65668Y291077D01*
X64952Y291704D01*
X64252Y292348D01*
X63567Y293009D01*
X62899Y293686D01*
X62248Y294379D01*
X61614Y295088D01*
X60997Y295812D01*
X60397Y296551D01*
X59816Y297304D01*
X59254Y298071D01*
X58710Y298852D01*
X58186Y299645D01*
X57681Y300451D01*
X57195Y301270D01*
X56730Y302099D01*
X56285Y302940D01*
X55861Y303791D01*
X55457Y304653D01*
X55075Y305524D01*
X54714Y306404D01*
X54374Y307293D01*
X54057Y308189D01*
X53761Y309093D01*
X53487Y310004D01*
X53235Y310922D01*
X53006Y311845D01*
X52799Y312774D01*
X52615Y313707D01*
X52454Y314644D01*
X52316Y315585D01*
X52200Y316530D01*
X52108Y317476D01*
X52038Y318425D01*
X51992Y319375D01*
X51969Y320326D01*
X51969Y321278D01*
X51992Y322229D01*
X52038Y323179D01*
X52108Y324128D01*
X52200Y325074D01*
X52316Y326019D01*
X52454Y326960D01*
X52615Y327897D01*
X52799Y328830D01*
X53006Y329759D01*
X53235Y330682D01*
X53487Y331600D01*
X53761Y332511D01*
X54057Y333415D01*
X54374Y334311D01*
X54714Y335200D01*
X55075Y336080D01*
X55457Y336951D01*
X55861Y337813D01*
X56285Y338664D01*
X56730Y339505D01*
X57195Y340334D01*
X57681Y341153D01*
X58186Y341959D01*
X58710Y342752D01*
X59254Y343533D01*
X59816Y344300D01*
X60397Y345053D01*
X60997Y345792D01*
X61614Y346516D01*
X62248Y347225D01*
X62899Y347918D01*
X63567Y348595D01*
X64252Y349256D01*
X64952Y349900D01*
X65668Y350527D01*
X66399Y351136D01*
X67144Y351727D01*
X67904Y352299D01*
X68677Y352854D01*
X69463Y353389D01*
X70263Y353904D01*
X71074Y354401D01*
X71898Y354877D01*
X72732Y355333D01*
X73578Y355769D01*
X74434Y356184D01*
X75300Y356578D01*
X76175Y356951D01*
X77059Y357302D01*
X562129Y354802D02*
X562129Y272302D01*
X547629Y369302D02*
X534629Y369302D01*
X505629Y369302D02*
X492629Y369302D01*
X478129Y354802D02*
X478129Y272302D01*
X505629Y272302D01*
X534629Y272302D02*
X562129Y272302D01*
X562129Y354802D02*
X547629Y369302D01*
X492629Y369302D02*
X478129Y354802D01*
X534128Y357302D02*
X535012Y356951D01*
X535887Y356578D01*
X536753Y356184D01*
X537609Y355769D01*
X538455Y355333D01*
X539289Y354877D01*
X540113Y354401D01*
X540924Y353904D01*
X541724Y353389D01*
X542510Y352854D01*
X543283Y352299D01*
X544043Y351727D01*
X544788Y351136D01*
X545519Y350527D01*
X546235Y349900D01*
X546935Y349256D01*
X547620Y348595D01*
X548288Y347918D01*
X548939Y347225D01*
X549573Y346516D01*
X550190Y345792D01*
X550790Y345053D01*
X551371Y344300D01*
X551933Y343533D01*
X552477Y342752D01*
X553001Y341959D01*
X553506Y341153D01*
X553992Y340334D01*
X554457Y339505D01*
X554902Y338664D01*
X555326Y337813D01*
X555730Y336951D01*
X556112Y336080D01*
X556473Y335200D01*
X556813Y334311D01*
X557130Y333415D01*
X557426Y332511D01*
X557700Y331600D01*
X557952Y330682D01*
X558181Y329759D01*
X558388Y328830D01*
X558572Y327897D01*
X558733Y326960D01*
X558871Y326019D01*
X558987Y325074D01*
X559079Y324128D01*
X559149Y323179D01*
X559195Y322229D01*
X559218Y321278D01*
X559218Y320326D01*
X559195Y319375D01*
X559149Y318425D01*
X559079Y317476D01*
X558987Y316530D01*
X558871Y315585D01*
X558733Y314644D01*
X558572Y313707D01*
X558388Y312774D01*
X558181Y311845D01*
X557952Y310922D01*
X557700Y310004D01*
X557426Y309093D01*
X557130Y308189D01*
X556813Y307293D01*
X556473Y306404D01*
X556112Y305524D01*
X555730Y304653D01*
X555326Y303791D01*
X554902Y302940D01*
X554457Y302099D01*
X553992Y301270D01*
X553506Y300451D01*
X553001Y299645D01*
X552477Y298852D01*
X551933Y298071D01*
X551371Y297304D01*
X550790Y296551D01*
X550190Y295812D01*
X549573Y295088D01*
X548939Y294379D01*
X548288Y293686D01*
X547620Y293009D01*
X546935Y292348D01*
X546235Y291704D01*
X545519Y291077D01*
X544788Y290468D01*
X544043Y289877D01*
X543283Y289305D01*
X542510Y288750D01*
X541724Y288215D01*
X540924Y287700D01*
X540113Y287203D01*
X539289Y286727D01*
X538455Y286271D01*
X537609Y285835D01*
X536753Y285420D01*
X535887Y285026D01*
X535012Y284653D01*
X534128Y284302D01*
X506129Y284302D02*
X505245Y284653D01*
X504370Y285026D01*
X503504Y285420D01*
X502648Y285835D01*
X501802Y286271D01*
X500968Y286727D01*
X500144Y287203D01*
X499333Y287700D01*
X498533Y288215D01*
X497747Y288750D01*
X496974Y289305D01*
X496214Y289877D01*
X495469Y290468D01*
X494738Y291077D01*
X494022Y291704D01*
X493322Y292348D01*
X492637Y293009D01*
X491969Y293686D01*
X491318Y294379D01*
X490684Y295088D01*
X490067Y295812D01*
X489467Y296551D01*
X488886Y297304D01*
X488324Y298071D01*
X487780Y298852D01*
X487256Y299645D01*
X486751Y300451D01*
X486265Y301270D01*
X485800Y302099D01*
X485355Y302940D01*
X484931Y303791D01*
X484527Y304653D01*
X484145Y305524D01*
X483784Y306404D01*
X483444Y307293D01*
X483127Y308189D01*
X482831Y309093D01*
X482557Y310004D01*
X482305Y310922D01*
X482076Y311845D01*
X481869Y312774D01*
X481685Y313707D01*
X481524Y314644D01*
X481386Y315585D01*
X481270Y316530D01*
X481178Y317476D01*
X481108Y318425D01*
X481062Y319375D01*
X481039Y320326D01*
X481039Y321278D01*
X481062Y322229D01*
X481108Y323179D01*
X481178Y324128D01*
X481270Y325074D01*
X481386Y326019D01*
X481524Y326960D01*
X481685Y327897D01*
X481869Y328830D01*
X482076Y329759D01*
X482305Y330682D01*
X482557Y331600D01*
X482831Y332511D01*
X483127Y333415D01*
X483444Y334311D01*
X483784Y335200D01*
X484145Y336080D01*
X484527Y336951D01*
X484931Y337813D01*
X485355Y338664D01*
X485800Y339505D01*
X486265Y340334D01*
X486751Y341153D01*
X487256Y341959D01*
X487780Y342752D01*
X488324Y343533D01*
X488886Y344300D01*
X489467Y345053D01*
X490067Y345792D01*
X490684Y346516D01*
X491318Y347225D01*
X491969Y347918D01*
X492637Y348595D01*
X493322Y349256D01*
X494022Y349900D01*
X494738Y350527D01*
X495469Y351136D01*
X496214Y351727D01*
X496974Y352299D01*
X497747Y352854D01*
X498533Y353389D01*
X499333Y353904D01*
X500144Y354401D01*
X500968Y354877D01*
X501802Y355333D01*
X502648Y355769D01*
X503504Y356184D01*
X504370Y356578D01*
X505245Y356951D01*
X506129Y357302D01*
X219038Y354802D02*
X219038Y272302D01*
X204538Y369302D02*
X191538Y369302D01*
X162538Y369302D02*
X149538Y369302D01*
X135038Y354802D02*
X135038Y272302D01*
X162538Y272302D01*
X191538Y272302D02*
X219038Y272302D01*
X219038Y354802D02*
X204538Y369302D01*
X149538Y369302D02*
X135038Y354802D01*
X191038Y357302D02*
X191922Y356951D01*
X192797Y356578D01*
X193663Y356184D01*
X194519Y355769D01*
X195365Y355333D01*
X196199Y354877D01*
X197023Y354401D01*
X197834Y353904D01*
X198634Y353389D01*
X199420Y352854D01*
X200193Y352299D01*
X200953Y351727D01*
X201698Y351136D01*
X202429Y350527D01*
X203145Y349900D01*
X203845Y349256D01*
X204530Y348595D01*
X205198Y347918D01*
X205849Y347225D01*
X206483Y346516D01*
X207100Y345792D01*
X207700Y345053D01*
X208281Y344300D01*
X208843Y343533D01*
X209387Y342752D01*
X209911Y341959D01*
X210416Y341153D01*
X210902Y340334D01*
X211367Y339505D01*
X211812Y338664D01*
X212236Y337813D01*
X212640Y336951D01*
X213022Y336080D01*
X213383Y335200D01*
X213723Y334311D01*
X214040Y333415D01*
X214336Y332511D01*
X214610Y331600D01*
X214862Y330682D01*
X215091Y329759D01*
X215298Y328830D01*
X215482Y327897D01*
X215643Y326960D01*
X215781Y326019D01*
X215897Y325074D01*
X215989Y324128D01*
X216059Y323179D01*
X216105Y322229D01*
X216128Y321278D01*
X216128Y320326D01*
X216105Y319375D01*
X216059Y318425D01*
X215989Y317476D01*
X215897Y316530D01*
X215781Y315585D01*
X215643Y314644D01*
X215482Y313707D01*
X215298Y312774D01*
X215091Y311845D01*
X214862Y310922D01*
X214610Y310004D01*
X214336Y309093D01*
X214040Y308189D01*
X213723Y307293D01*
X213383Y306404D01*
X213022Y305524D01*
X212640Y304653D01*
X212236Y303791D01*
X211812Y302940D01*
X211367Y302099D01*
X210902Y301270D01*
X210416Y300451D01*
X209911Y299645D01*
X209387Y298852D01*
X208843Y298071D01*
X208281Y297304D01*
X207700Y296551D01*
X207100Y295812D01*
X206483Y295088D01*
X205849Y294379D01*
X205198Y293686D01*
X204530Y293009D01*
X203845Y292348D01*
X203145Y291704D01*
X202429Y291077D01*
X201698Y290468D01*
X200953Y289877D01*
X200193Y289305D01*
X199420Y288750D01*
X198634Y288215D01*
X197834Y287700D01*
X197023Y287203D01*
X196199Y286727D01*
X195365Y286271D01*
X194519Y285835D01*
X193663Y285420D01*
X192797Y285026D01*
X191922Y284653D01*
X191038Y284302D01*
X163038Y284302D02*
X162154Y284653D01*
X161279Y285026D01*
X160413Y285420D01*
X159557Y285835D01*
X158711Y286271D01*
X157877Y286727D01*
X157053Y287203D01*
X156242Y287700D01*
X155442Y288215D01*
X154656Y288750D01*
X153883Y289305D01*
X153123Y289877D01*
X152378Y290468D01*
X151647Y291077D01*
X150931Y291704D01*
X150231Y292348D01*
X149546Y293009D01*
X148878Y293686D01*
X148227Y294379D01*
X147593Y295088D01*
X146976Y295812D01*
X146376Y296551D01*
X145795Y297304D01*
X145233Y298071D01*
X144689Y298852D01*
X144165Y299645D01*
X143660Y300451D01*
X143174Y301270D01*
X142709Y302099D01*
X142264Y302940D01*
X141840Y303791D01*
X141436Y304653D01*
X141054Y305524D01*
X140693Y306404D01*
X140353Y307293D01*
X140036Y308189D01*
X139740Y309093D01*
X139466Y310004D01*
X139214Y310922D01*
X138985Y311845D01*
X138778Y312774D01*
X138594Y313707D01*
X138433Y314644D01*
X138295Y315585D01*
X138179Y316530D01*
X138087Y317476D01*
X138017Y318425D01*
X137971Y319375D01*
X137948Y320326D01*
X137948Y321278D01*
X137971Y322229D01*
X138017Y323179D01*
X138087Y324128D01*
X138179Y325074D01*
X138295Y326019D01*
X138433Y326960D01*
X138594Y327897D01*
X138778Y328830D01*
X138985Y329759D01*
X139214Y330682D01*
X139466Y331600D01*
X139740Y332511D01*
X140036Y333415D01*
X140353Y334311D01*
X140693Y335200D01*
X141054Y336080D01*
X141436Y336951D01*
X141840Y337813D01*
X142264Y338664D01*
X142709Y339505D01*
X143174Y340334D01*
X143660Y341153D01*
X144165Y341959D01*
X144689Y342752D01*
X145233Y343533D01*
X145795Y344300D01*
X146376Y345053D01*
X146976Y345792D01*
X147593Y346516D01*
X148227Y347225D01*
X148878Y347918D01*
X149546Y348595D01*
X150231Y349256D01*
X150931Y349900D01*
X151647Y350527D01*
X152378Y351136D01*
X153123Y351727D01*
X153883Y352299D01*
X154656Y352854D01*
X155442Y353389D01*
X156242Y353904D01*
X157053Y354401D01*
X157877Y354877D01*
X158711Y355333D01*
X159557Y355769D01*
X160413Y356184D01*
X161279Y356578D01*
X162154Y356951D01*
X163038Y357302D01*
X476086Y354802D02*
X476086Y272302D01*
X461586Y369302D02*
X448586Y369302D01*
X419586Y369302D02*
X406586Y369302D01*
X392086Y354802D02*
X392086Y272302D01*
X419586Y272302D01*
X448586Y272302D02*
X476086Y272302D01*
X476086Y354802D02*
X461586Y369302D01*
X406586Y369302D02*
X392086Y354802D01*
X448086Y357302D02*
X448970Y356951D01*
X449845Y356578D01*
X450711Y356184D01*
X451567Y355769D01*
X452413Y355333D01*
X453247Y354877D01*
X454071Y354401D01*
X454882Y353904D01*
X455682Y353389D01*
X456468Y352854D01*
X457241Y352299D01*
X458001Y351727D01*
X458746Y351136D01*
X459477Y350527D01*
X460193Y349900D01*
X460893Y349256D01*
X461578Y348595D01*
X462246Y347918D01*
X462897Y347225D01*
X463531Y346516D01*
X464148Y345792D01*
X464748Y345053D01*
X465329Y344300D01*
X465891Y343533D01*
X466435Y342752D01*
X466959Y341959D01*
X467464Y341153D01*
X467950Y340334D01*
X468415Y339505D01*
X468860Y338664D01*
X469284Y337813D01*
X469688Y336951D01*
X470070Y336080D01*
X470431Y335200D01*
X470771Y334311D01*
X471088Y333415D01*
X471384Y332511D01*
X471658Y331600D01*
X471910Y330682D01*
X472139Y329759D01*
X472346Y328830D01*
X472530Y327897D01*
X472691Y326960D01*
X472829Y326019D01*
X472945Y325074D01*
X473037Y324128D01*
X473107Y323179D01*
X473153Y322229D01*
X473176Y321278D01*
X473176Y320326D01*
X473153Y319375D01*
X473107Y318425D01*
X473037Y317476D01*
X472945Y316530D01*
X472829Y315585D01*
X472691Y314644D01*
X472530Y313707D01*
X472346Y312774D01*
X472139Y311845D01*
X471910Y310922D01*
X471658Y310004D01*
X471384Y309093D01*
X471088Y308189D01*
X470771Y307293D01*
X470431Y306404D01*
X470070Y305524D01*
X469688Y304653D01*
X469284Y303791D01*
X468860Y302940D01*
X468415Y302099D01*
X467950Y301270D01*
X467464Y300451D01*
X466959Y299645D01*
X466435Y298852D01*
X465891Y298071D01*
X465329Y297304D01*
X464748Y296551D01*
X464148Y295812D01*
X463531Y295088D01*
X462897Y294379D01*
X462246Y293686D01*
X461578Y293009D01*
X460893Y292348D01*
X460193Y291704D01*
X459477Y291077D01*
X458746Y290468D01*
X458001Y289877D01*
X457241Y289305D01*
X456468Y288750D01*
X455682Y288215D01*
X454882Y287700D01*
X454071Y287203D01*
X453247Y286727D01*
X452413Y286271D01*
X451567Y285835D01*
X450711Y285420D01*
X449845Y285026D01*
X448970Y284653D01*
X448086Y284302D01*
X420086Y284302D02*
X419202Y284653D01*
X418327Y285026D01*
X417461Y285420D01*
X416605Y285835D01*
X415759Y286271D01*
X414925Y286727D01*
X414101Y287203D01*
X413290Y287700D01*
X412490Y288215D01*
X411704Y288750D01*
X410931Y289305D01*
X410171Y289877D01*
X409426Y290468D01*
X408695Y291077D01*
X407979Y291704D01*
X407279Y292348D01*
X406594Y293009D01*
X405926Y293686D01*
X405275Y294379D01*
X404641Y295088D01*
X404024Y295812D01*
X403424Y296551D01*
X402843Y297304D01*
X402281Y298071D01*
X401737Y298852D01*
X401213Y299645D01*
X400708Y300451D01*
X400222Y301270D01*
X399757Y302099D01*
X399312Y302940D01*
X398888Y303791D01*
X398484Y304653D01*
X398102Y305524D01*
X397741Y306404D01*
X397401Y307293D01*
X397084Y308189D01*
X396788Y309093D01*
X396514Y310004D01*
X396262Y310922D01*
X396033Y311845D01*
X395826Y312774D01*
X395642Y313707D01*
X395481Y314644D01*
X395343Y315585D01*
X395227Y316530D01*
X395135Y317476D01*
X395065Y318425D01*
X395019Y319375D01*
X394996Y320326D01*
X394996Y321278D01*
X395019Y322229D01*
X395065Y323179D01*
X395135Y324128D01*
X395227Y325074D01*
X395343Y326019D01*
X395481Y326960D01*
X395642Y327897D01*
X395826Y328830D01*
X396033Y329759D01*
X396262Y330682D01*
X396514Y331600D01*
X396788Y332511D01*
X397084Y333415D01*
X397401Y334311D01*
X397741Y335200D01*
X398102Y336080D01*
X398484Y336951D01*
X398888Y337813D01*
X399312Y338664D01*
X399757Y339505D01*
X400222Y340334D01*
X400708Y341153D01*
X401213Y341959D01*
X401737Y342752D01*
X402281Y343533D01*
X402843Y344300D01*
X403424Y345053D01*
X404024Y345792D01*
X404641Y346516D01*
X405275Y347225D01*
X405926Y347918D01*
X406594Y348595D01*
X407279Y349256D01*
X407979Y349900D01*
X408695Y350527D01*
X409426Y351136D01*
X410171Y351727D01*
X410931Y352299D01*
X411704Y352854D01*
X412490Y353389D01*
X413290Y353904D01*
X414101Y354401D01*
X414925Y354877D01*
X415759Y355333D01*
X416605Y355769D01*
X417461Y356184D01*
X418327Y356578D01*
X419202Y356951D01*
X420086Y357302D01*
X135038Y268909D02*
X135038Y186409D01*
X149538Y171909D02*
X162538Y171909D01*
X191538Y171909D02*
X204538Y171909D01*
X219038Y186409D02*
X219038Y268909D01*
X191538Y268909D01*
X162538Y268909D02*
X135038Y268909D01*
X135038Y186409D02*
X149538Y171909D01*
X204538Y171909D02*
X219038Y186409D01*
X163038Y183909D02*
X162154Y184260D01*
X161279Y184633D01*
X160413Y185027D01*
X159557Y185442D01*
X158711Y185878D01*
X157877Y186334D01*
X157053Y186810D01*
X156242Y187307D01*
X155442Y187822D01*
X154656Y188357D01*
X153883Y188912D01*
X153123Y189484D01*
X152378Y190075D01*
X151647Y190684D01*
X150931Y191311D01*
X150231Y191955D01*
X149546Y192616D01*
X148878Y193293D01*
X148227Y193986D01*
X147593Y194695D01*
X146976Y195419D01*
X146376Y196158D01*
X145795Y196911D01*
X145233Y197678D01*
X144689Y198459D01*
X144165Y199252D01*
X143660Y200058D01*
X143174Y200877D01*
X142709Y201706D01*
X142264Y202547D01*
X141840Y203398D01*
X141436Y204260D01*
X141054Y205131D01*
X140693Y206011D01*
X140353Y206900D01*
X140036Y207796D01*
X139740Y208700D01*
X139466Y209611D01*
X139214Y210529D01*
X138985Y211452D01*
X138778Y212381D01*
X138594Y213314D01*
X138433Y214251D01*
X138295Y215192D01*
X138179Y216137D01*
X138087Y217083D01*
X138017Y218032D01*
X137971Y218982D01*
X137948Y219933D01*
X137948Y220885D01*
X137971Y221836D01*
X138017Y222786D01*
X138087Y223735D01*
X138179Y224681D01*
X138295Y225626D01*
X138433Y226567D01*
X138594Y227504D01*
X138778Y228437D01*
X138985Y229366D01*
X139214Y230289D01*
X139466Y231207D01*
X139740Y232118D01*
X140036Y233022D01*
X140353Y233918D01*
X140693Y234807D01*
X141054Y235687D01*
X141436Y236558D01*
X141840Y237420D01*
X142264Y238271D01*
X142709Y239112D01*
X143174Y239941D01*
X143660Y240760D01*
X144165Y241566D01*
X144689Y242359D01*
X145233Y243140D01*
X145795Y243907D01*
X146376Y244660D01*
X146976Y245399D01*
X147593Y246123D01*
X148227Y246832D01*
X148878Y247525D01*
X149546Y248202D01*
X150231Y248863D01*
X150931Y249507D01*
X151647Y250134D01*
X152378Y250743D01*
X153123Y251334D01*
X153883Y251906D01*
X154656Y252461D01*
X155442Y252996D01*
X156242Y253511D01*
X157053Y254008D01*
X157877Y254484D01*
X158711Y254940D01*
X159557Y255376D01*
X160413Y255791D01*
X161279Y256185D01*
X162154Y256558D01*
X163038Y256909D01*
X191038Y256909D02*
X191922Y256558D01*
X192797Y256185D01*
X193663Y255791D01*
X194519Y255376D01*
X195365Y254940D01*
X196199Y254484D01*
X197023Y254008D01*
X197834Y253511D01*
X198634Y252996D01*
X199420Y252461D01*
X200193Y251906D01*
X200953Y251334D01*
X201698Y250743D01*
X202429Y250134D01*
X203145Y249507D01*
X203845Y248863D01*
X204530Y248202D01*
X205198Y247525D01*
X205849Y246832D01*
X206483Y246123D01*
X207100Y245399D01*
X207700Y244660D01*
X208281Y243907D01*
X208843Y243140D01*
X209387Y242359D01*
X209911Y241566D01*
X210416Y240760D01*
X210902Y239941D01*
X211367Y239112D01*
X211812Y238271D01*
X212236Y237420D01*
X212640Y236558D01*
X213022Y235687D01*
X213383Y234807D01*
X213723Y233918D01*
X214040Y233022D01*
X214336Y232118D01*
X214610Y231207D01*
X214862Y230289D01*
X215091Y229366D01*
X215298Y228437D01*
X215482Y227504D01*
X215643Y226567D01*
X215781Y225626D01*
X215897Y224681D01*
X215989Y223735D01*
X216059Y222786D01*
X216105Y221836D01*
X216128Y220885D01*
X216128Y219933D01*
X216105Y218982D01*
X216059Y218032D01*
X215989Y217083D01*
X215897Y216137D01*
X215781Y215192D01*
X215643Y214251D01*
X215482Y213314D01*
X215298Y212381D01*
X215091Y211452D01*
X214862Y210529D01*
X214610Y209611D01*
X214336Y208700D01*
X214040Y207796D01*
X213723Y206900D01*
X213383Y206011D01*
X213022Y205131D01*
X212640Y204260D01*
X212236Y203398D01*
X211812Y202547D01*
X211367Y201706D01*
X210902Y200877D01*
X210416Y200058D01*
X209911Y199252D01*
X209387Y198459D01*
X208843Y197678D01*
X208281Y196911D01*
X207700Y196158D01*
X207100Y195419D01*
X206483Y194695D01*
X205849Y193986D01*
X205198Y193293D01*
X204530Y192616D01*
X203845Y191955D01*
X203145Y191311D01*
X202429Y190684D01*
X201698Y190075D01*
X200953Y189484D01*
X200193Y188912D01*
X199420Y188357D01*
X198634Y187822D01*
X197834Y187307D01*
X197023Y186810D01*
X196199Y186334D01*
X195365Y185878D01*
X194519Y185442D01*
X193663Y185027D01*
X192797Y184633D01*
X191922Y184260D01*
X191038Y183909D01*
X392086Y186409D02*
X392086Y268909D01*
X406586Y171909D02*
X419586Y171909D01*
X448586Y171909D02*
X461586Y171909D01*
X476086Y186409D02*
X476086Y268909D01*
X448586Y268909D01*
X419586Y268909D02*
X392086Y268909D01*
X392086Y186409D02*
X406586Y171909D01*
X461586Y171909D02*
X476086Y186409D01*
X420086Y183909D02*
X419202Y184260D01*
X418327Y184633D01*
X417461Y185027D01*
X416605Y185442D01*
X415759Y185878D01*
X414925Y186334D01*
X414101Y186810D01*
X413290Y187307D01*
X412490Y187822D01*
X411704Y188357D01*
X410931Y188912D01*
X410171Y189484D01*
X409426Y190075D01*
X408695Y190684D01*
X407979Y191311D01*
X407279Y191955D01*
X406594Y192616D01*
X405926Y193293D01*
X405275Y193986D01*
X404641Y194695D01*
X404024Y195419D01*
X403424Y196158D01*
X402843Y196911D01*
X402281Y197678D01*
X401737Y198459D01*
X401213Y199252D01*
X400708Y200058D01*
X400222Y200877D01*
X399757Y201706D01*
X399312Y202547D01*
X398888Y203398D01*
X398484Y204260D01*
X398102Y205131D01*
X397741Y206011D01*
X397401Y206900D01*
X397084Y207796D01*
X396788Y208700D01*
X396514Y209611D01*
X396262Y210529D01*
X396033Y211452D01*
X395826Y212381D01*
X395642Y213314D01*
X395481Y214251D01*
X395343Y215192D01*
X395227Y216137D01*
X395135Y217083D01*
X395065Y218032D01*
X395019Y218982D01*
X394996Y219933D01*
X394996Y220885D01*
X395019Y221836D01*
X395065Y222786D01*
X395135Y223735D01*
X395227Y224681D01*
X395343Y225626D01*
X395481Y226567D01*
X395642Y227504D01*
X395826Y228437D01*
X396033Y229366D01*
X396262Y230289D01*
X396514Y231207D01*
X396788Y232118D01*
X397084Y233022D01*
X397401Y233918D01*
X397741Y234807D01*
X398102Y235687D01*
X398484Y236558D01*
X398888Y237420D01*
X399312Y238271D01*
X399757Y239112D01*
X400222Y239941D01*
X400708Y240760D01*
X401213Y241566D01*
X401737Y242359D01*
X402281Y243140D01*
X402843Y243907D01*
X403424Y244660D01*
X404024Y245399D01*
X404641Y246123D01*
X405275Y246832D01*
X405926Y247525D01*
X406594Y248202D01*
X407279Y248863D01*
X407979Y249507D01*
X408695Y250134D01*
X409426Y250743D01*
X410171Y251334D01*
X410931Y251906D01*
X411704Y252461D01*
X412490Y252996D01*
X413290Y253511D01*
X414101Y254008D01*
X414925Y254484D01*
X415759Y254940D01*
X416605Y255376D01*
X417461Y255791D01*
X418327Y256185D01*
X419202Y256558D01*
X420086Y256909D01*
X448086Y256909D02*
X448970Y256558D01*
X449845Y256185D01*
X450711Y255791D01*
X451567Y255376D01*
X452413Y254940D01*
X453247Y254484D01*
X454071Y254008D01*
X454882Y253511D01*
X455682Y252996D01*
X456468Y252461D01*
X457241Y251906D01*
X458001Y251334D01*
X458746Y250743D01*
X459477Y250134D01*
X460193Y249507D01*
X460893Y248863D01*
X461578Y248202D01*
X462246Y247525D01*
X462897Y246832D01*
X463531Y246123D01*
X464148Y245399D01*
X464748Y244660D01*
X465329Y243907D01*
X465891Y243140D01*
X466435Y242359D01*
X466959Y241566D01*
X467464Y240760D01*
X467950Y239941D01*
X468415Y239112D01*
X468860Y238271D01*
X469284Y237420D01*
X469688Y236558D01*
X470070Y235687D01*
X470431Y234807D01*
X470771Y233918D01*
X471088Y233022D01*
X471384Y232118D01*
X471658Y231207D01*
X471910Y230289D01*
X472139Y229366D01*
X472346Y228437D01*
X472530Y227504D01*
X472691Y226567D01*
X472829Y225626D01*
X472945Y224681D01*
X473037Y223735D01*
X473107Y222786D01*
X473153Y221836D01*
X473176Y220885D01*
X473176Y219933D01*
X473153Y218982D01*
X473107Y218032D01*
X473037Y217083D01*
X472945Y216137D01*
X472829Y215192D01*
X472691Y214251D01*
X472530Y213314D01*
X472346Y212381D01*
X472139Y211452D01*
X471910Y210529D01*
X471658Y209611D01*
X471384Y208700D01*
X471088Y207796D01*
X470771Y206900D01*
X470431Y206011D01*
X470070Y205131D01*
X469688Y204260D01*
X469284Y203398D01*
X468860Y202547D01*
X468415Y201706D01*
X467950Y200877D01*
X467464Y200058D01*
X466959Y199252D01*
X466435Y198459D01*
X465891Y197678D01*
X465329Y196911D01*
X464748Y196158D01*
X464148Y195419D01*
X463531Y194695D01*
X462897Y193986D01*
X462246Y193293D01*
X461578Y192616D01*
X460893Y191955D01*
X460193Y191311D01*
X459477Y190684D01*
X458746Y190075D01*
X458001Y189484D01*
X457241Y188912D01*
X456468Y188357D01*
X455682Y187822D01*
X454882Y187307D01*
X454071Y186810D01*
X453247Y186334D01*
X452413Y185878D01*
X451567Y185442D01*
X450711Y185027D01*
X449845Y184633D01*
X448970Y184260D01*
X448086Y183909D01*
X476086Y153888D02*
X476086Y71388D01*
X461586Y168388D02*
X448586Y168388D01*
X419586Y168388D02*
X406586Y168388D01*
X392086Y153888D02*
X392086Y71388D01*
X419586Y71388D01*
X448586Y71388D02*
X476086Y71388D01*
X476086Y153888D02*
X461586Y168388D01*
X406586Y168388D02*
X392086Y153888D01*
X448086Y156388D02*
X448970Y156037D01*
X449845Y155664D01*
X450711Y155270D01*
X451567Y154855D01*
X452413Y154419D01*
X453247Y153963D01*
X454071Y153487D01*
X454882Y152990D01*
X455682Y152475D01*
X456468Y151940D01*
X457241Y151385D01*
X458001Y150813D01*
X458746Y150222D01*
X459477Y149613D01*
X460193Y148986D01*
X460893Y148342D01*
X461578Y147681D01*
X462246Y147004D01*
X462897Y146311D01*
X463531Y145602D01*
X464148Y144878D01*
X464748Y144139D01*
X465329Y143386D01*
X465891Y142619D01*
X466435Y141838D01*
X466959Y141045D01*
X467464Y140239D01*
X467950Y139420D01*
X468415Y138591D01*
X468860Y137750D01*
X469284Y136899D01*
X469688Y136037D01*
X470070Y135166D01*
X470431Y134286D01*
X470771Y133397D01*
X471088Y132501D01*
X471384Y131597D01*
X471658Y130686D01*
X471910Y129768D01*
X472139Y128845D01*
X472346Y127916D01*
X472530Y126983D01*
X472691Y126046D01*
X472829Y125105D01*
X472945Y124160D01*
X473037Y123214D01*
X473107Y122265D01*
X473153Y121315D01*
X473176Y120364D01*
X473176Y119412D01*
X473153Y118461D01*
X473107Y117511D01*
X473037Y116562D01*
X472945Y115616D01*
X472829Y114671D01*
X472691Y113730D01*
X472530Y112793D01*
X472346Y111860D01*
X472139Y110931D01*
X471910Y110008D01*
X471658Y109090D01*
X471384Y108179D01*
X471088Y107275D01*
X470771Y106379D01*
X470431Y105490D01*
X470070Y104610D01*
X469688Y103739D01*
X469284Y102877D01*
X468860Y102026D01*
X468415Y101185D01*
X467950Y100356D01*
X467464Y99537D01*
X466959Y98731D01*
X466435Y97938D01*
X465891Y97157D01*
X465329Y96390D01*
X464748Y95637D01*
X464148Y94898D01*
X463531Y94174D01*
X462897Y93465D01*
X462246Y92772D01*
X461578Y92095D01*
X460893Y91434D01*
X460193Y90790D01*
X459477Y90163D01*
X458746Y89554D01*
X458001Y88963D01*
X457241Y88391D01*
X456468Y87836D01*
X455682Y87301D01*
X454882Y86786D01*
X454071Y86289D01*
X453247Y85813D01*
X452413Y85357D01*
X451567Y84921D01*
X450711Y84506D01*
X449845Y84112D01*
X448970Y83739D01*
X448086Y83388D01*
X420086Y83388D02*
X419202Y83739D01*
X418327Y84112D01*
X417461Y84506D01*
X416605Y84921D01*
X415759Y85357D01*
X414925Y85813D01*
X414101Y86289D01*
X413290Y86786D01*
X412490Y87301D01*
X411704Y87836D01*
X410931Y88391D01*
X410171Y88963D01*
X409426Y89554D01*
X408695Y90163D01*
X407979Y90790D01*
X407279Y91434D01*
X406594Y92095D01*
X405926Y92772D01*
X405275Y93465D01*
X404641Y94174D01*
X404024Y94898D01*
X403424Y95637D01*
X402843Y96390D01*
X402281Y97157D01*
X401737Y97938D01*
X401213Y98731D01*
X400708Y99537D01*
X400222Y100356D01*
X399757Y101185D01*
X399312Y102026D01*
X398888Y102877D01*
X398484Y103739D01*
X398102Y104610D01*
X397741Y105490D01*
X397401Y106379D01*
X397084Y107275D01*
X396788Y108179D01*
X396514Y109090D01*
X396262Y110008D01*
X396033Y110931D01*
X395826Y111860D01*
X395642Y112793D01*
X395481Y113730D01*
X395343Y114671D01*
X395227Y115616D01*
X395135Y116562D01*
X395065Y117511D01*
X395019Y118461D01*
X394996Y119412D01*
X394996Y120364D01*
X395019Y121315D01*
X395065Y122265D01*
X395135Y123214D01*
X395227Y124160D01*
X395343Y125105D01*
X395481Y126046D01*
X395642Y126983D01*
X395826Y127916D01*
X396033Y128845D01*
X396262Y129768D01*
X396514Y130686D01*
X396788Y131597D01*
X397084Y132501D01*
X397401Y133397D01*
X397741Y134286D01*
X398102Y135166D01*
X398484Y136037D01*
X398888Y136899D01*
X399312Y137750D01*
X399757Y138591D01*
X400222Y139420D01*
X400708Y140239D01*
X401213Y141045D01*
X401737Y141838D01*
X402281Y142619D01*
X402843Y143386D01*
X403424Y144139D01*
X404024Y144878D01*
X404641Y145602D01*
X405275Y146311D01*
X405926Y147004D01*
X406594Y147681D01*
X407279Y148342D01*
X407979Y148986D01*
X408695Y149613D01*
X409426Y150222D01*
X410171Y150813D01*
X410931Y151385D01*
X411704Y151940D01*
X412490Y152475D01*
X413290Y152990D01*
X414101Y153487D01*
X414925Y153963D01*
X415759Y154419D01*
X416605Y154855D01*
X417461Y155270D01*
X418327Y155664D01*
X419202Y156037D01*
X420086Y156388D01*
X478129Y186853D02*
X478129Y269353D01*
X492629Y172353D02*
X505629Y172353D01*
X534629Y172353D02*
X547629Y172353D01*
X562129Y186853D02*
X562129Y269353D01*
X534629Y269353D01*
X505629Y269353D02*
X478129Y269353D01*
X478129Y186853D02*
X492629Y172353D01*
X547629Y172353D02*
X562129Y186853D01*
X506129Y184353D02*
X505245Y184704D01*
X504370Y185077D01*
X503504Y185471D01*
X502648Y185886D01*
X501802Y186322D01*
X500968Y186778D01*
X500144Y187254D01*
X499333Y187751D01*
X498533Y188266D01*
X497747Y188801D01*
X496974Y189356D01*
X496214Y189928D01*
X495469Y190519D01*
X494738Y191128D01*
X494022Y191755D01*
X493322Y192399D01*
X492637Y193060D01*
X491969Y193737D01*
X491318Y194430D01*
X490684Y195139D01*
X490067Y195863D01*
X489467Y196602D01*
X488886Y197355D01*
X488324Y198122D01*
X487780Y198903D01*
X487256Y199696D01*
X486751Y200502D01*
X486265Y201321D01*
X485800Y202150D01*
X485355Y202991D01*
X484931Y203842D01*
X484527Y204704D01*
X484145Y205575D01*
X483784Y206455D01*
X483444Y207344D01*
X483127Y208240D01*
X482831Y209144D01*
X482557Y210055D01*
X482305Y210973D01*
X482076Y211896D01*
X481869Y212825D01*
X481685Y213758D01*
X481524Y214695D01*
X481386Y215636D01*
X481270Y216581D01*
X481178Y217527D01*
X481108Y218476D01*
X481062Y219426D01*
X481039Y220377D01*
X481039Y221329D01*
X481062Y222280D01*
X481108Y223230D01*
X481178Y224179D01*
X481270Y225125D01*
X481386Y226070D01*
X481524Y227011D01*
X481685Y227948D01*
X481869Y228881D01*
X482076Y229810D01*
X482305Y230733D01*
X482557Y231651D01*
X482831Y232562D01*
X483127Y233466D01*
X483444Y234362D01*
X483784Y235251D01*
X484145Y236131D01*
X484527Y237002D01*
X484931Y237864D01*
X485355Y238715D01*
X485800Y239556D01*
X486265Y240385D01*
X486751Y241204D01*
X487256Y242010D01*
X487780Y242803D01*
X488324Y243584D01*
X488886Y244351D01*
X489467Y245104D01*
X490067Y245843D01*
X490684Y246567D01*
X491318Y247276D01*
X491969Y247969D01*
X492637Y248646D01*
X493322Y249307D01*
X494022Y249951D01*
X494738Y250578D01*
X495469Y251187D01*
X496214Y251778D01*
X496974Y252350D01*
X497747Y252905D01*
X498533Y253440D01*
X499333Y253955D01*
X500144Y254452D01*
X500968Y254928D01*
X501802Y255384D01*
X502648Y255820D01*
X503504Y256235D01*
X504370Y256629D01*
X505245Y257002D01*
X506129Y257353D01*
X534128Y257353D02*
X535012Y257002D01*
X535887Y256629D01*
X536753Y256235D01*
X537609Y255820D01*
X538455Y255384D01*
X539289Y254928D01*
X540113Y254452D01*
X540924Y253955D01*
X541724Y253440D01*
X542510Y252905D01*
X543283Y252350D01*
X544043Y251778D01*
X544788Y251187D01*
X545519Y250578D01*
X546235Y249951D01*
X546935Y249307D01*
X547620Y248646D01*
X548288Y247969D01*
X548939Y247276D01*
X549573Y246567D01*
X550190Y245843D01*
X550790Y245104D01*
X551371Y244351D01*
X551933Y243584D01*
X552477Y242803D01*
X553001Y242010D01*
X553506Y241204D01*
X553992Y240385D01*
X554457Y239556D01*
X554902Y238715D01*
X555326Y237864D01*
X555730Y237002D01*
X556112Y236131D01*
X556473Y235251D01*
X556813Y234362D01*
X557130Y233466D01*
X557426Y232562D01*
X557700Y231651D01*
X557952Y230733D01*
X558181Y229810D01*
X558388Y228881D01*
X558572Y227948D01*
X558733Y227011D01*
X558871Y226070D01*
X558987Y225125D01*
X559079Y224179D01*
X559149Y223230D01*
X559195Y222280D01*
X559218Y221329D01*
X559218Y220377D01*
X559195Y219426D01*
X559149Y218476D01*
X559079Y217527D01*
X558987Y216581D01*
X558871Y215636D01*
X558733Y214695D01*
X558572Y213758D01*
X558388Y212825D01*
X558181Y211896D01*
X557952Y210973D01*
X557700Y210055D01*
X557426Y209144D01*
X557130Y208240D01*
X556813Y207344D01*
X556473Y206455D01*
X556112Y205575D01*
X555730Y204704D01*
X555326Y203842D01*
X554902Y202991D01*
X554457Y202150D01*
X553992Y201321D01*
X553506Y200502D01*
X553001Y199696D01*
X552477Y198903D01*
X551933Y198122D01*
X551371Y197355D01*
X550790Y196602D01*
X550190Y195863D01*
X549573Y195139D01*
X548939Y194430D01*
X548288Y193737D01*
X547620Y193060D01*
X546935Y192399D01*
X546235Y191755D01*
X545519Y191128D01*
X544788Y190519D01*
X544043Y189928D01*
X543283Y189356D01*
X542510Y188801D01*
X541724Y188266D01*
X540924Y187751D01*
X540113Y187254D01*
X539289Y186778D01*
X538455Y186322D01*
X537609Y185886D01*
X536753Y185471D01*
X535887Y185077D01*
X535012Y184704D01*
X534128Y184353D01*
X48996Y186409D02*
X48996Y268909D01*
X63496Y171909D02*
X76496Y171909D01*
X105496Y171909D02*
X118496Y171909D01*
X132996Y186409D02*
X132996Y268909D01*
X105496Y268909D01*
X76496Y268909D02*
X48996Y268909D01*
X48996Y186409D02*
X63496Y171909D01*
X118496Y171909D02*
X132996Y186409D01*
X76996Y183909D02*
X76112Y184260D01*
X75237Y184633D01*
X74371Y185027D01*
X73515Y185442D01*
X72669Y185878D01*
X71835Y186334D01*
X71011Y186810D01*
X70200Y187307D01*
X69400Y187822D01*
X68614Y188357D01*
X67841Y188912D01*
X67081Y189484D01*
X66336Y190075D01*
X65605Y190684D01*
X64889Y191311D01*
X64189Y191955D01*
X63504Y192616D01*
X62836Y193293D01*
X62185Y193986D01*
X61551Y194695D01*
X60934Y195419D01*
X60334Y196158D01*
X59753Y196911D01*
X59191Y197678D01*
X58647Y198459D01*
X58123Y199252D01*
X57618Y200058D01*
X57132Y200877D01*
X56667Y201706D01*
X56222Y202547D01*
X55798Y203398D01*
X55394Y204260D01*
X55012Y205131D01*
X54651Y206011D01*
X54311Y206900D01*
X53994Y207796D01*
X53698Y208700D01*
X53424Y209611D01*
X53172Y210529D01*
X52943Y211452D01*
X52736Y212381D01*
X52552Y213314D01*
X52391Y214251D01*
X52253Y215192D01*
X52137Y216137D01*
X52045Y217083D01*
X51975Y218032D01*
X51929Y218982D01*
X51906Y219933D01*
X51906Y220885D01*
X51929Y221836D01*
X51975Y222786D01*
X52045Y223735D01*
X52137Y224681D01*
X52253Y225626D01*
X52391Y226567D01*
X52552Y227504D01*
X52736Y228437D01*
X52943Y229366D01*
X53172Y230289D01*
X53424Y231207D01*
X53698Y232118D01*
X53994Y233022D01*
X54311Y233918D01*
X54651Y234807D01*
X55012Y235687D01*
X55394Y236558D01*
X55798Y237420D01*
X56222Y238271D01*
X56667Y239112D01*
X57132Y239941D01*
X57618Y240760D01*
X58123Y241566D01*
X58647Y242359D01*
X59191Y243140D01*
X59753Y243907D01*
X60334Y244660D01*
X60934Y245399D01*
X61551Y246123D01*
X62185Y246832D01*
X62836Y247525D01*
X63504Y248202D01*
X64189Y248863D01*
X64889Y249507D01*
X65605Y250134D01*
X66336Y250743D01*
X67081Y251334D01*
X67841Y251906D01*
X68614Y252461D01*
X69400Y252996D01*
X70200Y253511D01*
X71011Y254008D01*
X71835Y254484D01*
X72669Y254940D01*
X73515Y255376D01*
X74371Y255791D01*
X75237Y256185D01*
X76112Y256558D01*
X76996Y256909D01*
X104995Y256909D02*
X105879Y256558D01*
X106754Y256185D01*
X107620Y255791D01*
X108476Y255376D01*
X109322Y254940D01*
X110156Y254484D01*
X110980Y254008D01*
X111791Y253511D01*
X112591Y252996D01*
X113377Y252461D01*
X114150Y251906D01*
X114910Y251334D01*
X115655Y250743D01*
X116386Y250134D01*
X117102Y249507D01*
X117802Y248863D01*
X118487Y248202D01*
X119155Y247525D01*
X119806Y246832D01*
X120440Y246123D01*
X121057Y245399D01*
X121657Y244660D01*
X122238Y243907D01*
X122800Y243140D01*
X123344Y242359D01*
X123868Y241566D01*
X124373Y240760D01*
X124859Y239941D01*
X125324Y239112D01*
X125769Y238271D01*
X126193Y237420D01*
X126597Y236558D01*
X126979Y235687D01*
X127340Y234807D01*
X127680Y233918D01*
X127997Y233022D01*
X128293Y232118D01*
X128567Y231207D01*
X128819Y230289D01*
X129048Y229366D01*
X129255Y228437D01*
X129439Y227504D01*
X129600Y226567D01*
X129738Y225626D01*
X129854Y224681D01*
X129946Y223735D01*
X130016Y222786D01*
X130062Y221836D01*
X130085Y220885D01*
X130085Y219933D01*
X130062Y218982D01*
X130016Y218032D01*
X129946Y217083D01*
X129854Y216137D01*
X129738Y215192D01*
X129600Y214251D01*
X129439Y213314D01*
X129255Y212381D01*
X129048Y211452D01*
X128819Y210529D01*
X128567Y209611D01*
X128293Y208700D01*
X127997Y207796D01*
X127680Y206900D01*
X127340Y206011D01*
X126979Y205131D01*
X126597Y204260D01*
X126193Y203398D01*
X125769Y202547D01*
X125324Y201706D01*
X124859Y200877D01*
X124373Y200058D01*
X123868Y199252D01*
X123344Y198459D01*
X122800Y197678D01*
X122238Y196911D01*
X121657Y196158D01*
X121057Y195419D01*
X120440Y194695D01*
X119806Y193986D01*
X119155Y193293D01*
X118487Y192616D01*
X117802Y191955D01*
X117102Y191311D01*
X116386Y190684D01*
X115655Y190075D01*
X114910Y189484D01*
X114150Y188912D01*
X113377Y188357D01*
X112591Y187822D01*
X111791Y187307D01*
X110980Y186810D01*
X110156Y186334D01*
X109322Y185878D01*
X108476Y185442D01*
X107620Y185027D01*
X106754Y184633D01*
X105879Y184260D01*
X104995Y183909D01*
X219038Y153952D02*
X219038Y71452D01*
X204538Y168452D02*
X191538Y168452D01*
X162538Y168452D02*
X149538Y168452D01*
X135038Y153952D02*
X135038Y71452D01*
X162538Y71452D01*
X191538Y71452D02*
X219038Y71452D01*
X219038Y153952D02*
X204538Y168452D01*
X149538Y168452D02*
X135038Y153952D01*
X191038Y156452D02*
X191922Y156101D01*
X192797Y155728D01*
X193663Y155334D01*
X194519Y154919D01*
X195365Y154483D01*
X196199Y154027D01*
X197023Y153551D01*
X197834Y153054D01*
X198634Y152539D01*
X199420Y152004D01*
X200193Y151449D01*
X200953Y150877D01*
X201698Y150286D01*
X202429Y149677D01*
X203145Y149050D01*
X203845Y148406D01*
X204530Y147745D01*
X205198Y147068D01*
X205849Y146375D01*
X206483Y145666D01*
X207100Y144942D01*
X207700Y144203D01*
X208281Y143450D01*
X208843Y142683D01*
X209387Y141902D01*
X209911Y141109D01*
X210416Y140303D01*
X210902Y139484D01*
X211367Y138655D01*
X211812Y137814D01*
X212236Y136963D01*
X212640Y136101D01*
X213022Y135230D01*
X213383Y134350D01*
X213723Y133461D01*
X214040Y132565D01*
X214336Y131661D01*
X214610Y130750D01*
X214862Y129832D01*
X215091Y128909D01*
X215298Y127980D01*
X215482Y127047D01*
X215643Y126110D01*
X215781Y125169D01*
X215897Y124224D01*
X215989Y123278D01*
X216059Y122329D01*
X216105Y121379D01*
X216128Y120428D01*
X216128Y119476D01*
X216105Y118525D01*
X216059Y117575D01*
X215989Y116626D01*
X215897Y115680D01*
X215781Y114735D01*
X215643Y113794D01*
X215482Y112857D01*
X215298Y111924D01*
X215091Y110995D01*
X214862Y110072D01*
X214610Y109154D01*
X214336Y108243D01*
X214040Y107339D01*
X213723Y106443D01*
X213383Y105554D01*
X213022Y104674D01*
X212640Y103803D01*
X212236Y102941D01*
X211812Y102090D01*
X211367Y101249D01*
X210902Y100420D01*
X210416Y99601D01*
X209911Y98795D01*
X209387Y98002D01*
X208843Y97221D01*
X208281Y96454D01*
X207700Y95701D01*
X207100Y94962D01*
X206483Y94238D01*
X205849Y93529D01*
X205198Y92836D01*
X204530Y92159D01*
X203845Y91498D01*
X203145Y90854D01*
X202429Y90227D01*
X201698Y89618D01*
X200953Y89027D01*
X200193Y88455D01*
X199420Y87900D01*
X198634Y87365D01*
X197834Y86850D01*
X197023Y86353D01*
X196199Y85877D01*
X195365Y85421D01*
X194519Y84985D01*
X193663Y84570D01*
X192797Y84176D01*
X191922Y83803D01*
X191038Y83452D01*
X163038Y83452D02*
X162154Y83803D01*
X161279Y84176D01*
X160413Y84570D01*
X159557Y84985D01*
X158711Y85421D01*
X157877Y85877D01*
X157053Y86353D01*
X156242Y86850D01*
X155442Y87365D01*
X154656Y87900D01*
X153883Y88455D01*
X153123Y89027D01*
X152378Y89618D01*
X151647Y90227D01*
X150931Y90854D01*
X150231Y91498D01*
X149546Y92159D01*
X148878Y92836D01*
X148227Y93529D01*
X147593Y94238D01*
X146976Y94962D01*
X146376Y95701D01*
X145795Y96454D01*
X145233Y97221D01*
X144689Y98002D01*
X144165Y98795D01*
X143660Y99601D01*
X143174Y100420D01*
X142709Y101249D01*
X142264Y102090D01*
X141840Y102941D01*
X141436Y103803D01*
X141054Y104674D01*
X140693Y105554D01*
X140353Y106443D01*
X140036Y107339D01*
X139740Y108243D01*
X139466Y109154D01*
X139214Y110072D01*
X138985Y110995D01*
X138778Y111924D01*
X138594Y112857D01*
X138433Y113794D01*
X138295Y114735D01*
X138179Y115680D01*
X138087Y116626D01*
X138017Y117575D01*
X137971Y118525D01*
X137948Y119476D01*
X137948Y120428D01*
X137971Y121379D01*
X138017Y122329D01*
X138087Y123278D01*
X138179Y124224D01*
X138295Y125169D01*
X138433Y126110D01*
X138594Y127047D01*
X138778Y127980D01*
X138985Y128909D01*
X139214Y129832D01*
X139466Y130750D01*
X139740Y131661D01*
X140036Y132565D01*
X140353Y133461D01*
X140693Y134350D01*
X141054Y135230D01*
X141436Y136101D01*
X141840Y136963D01*
X142264Y137814D01*
X142709Y138655D01*
X143174Y139484D01*
X143660Y140303D01*
X144165Y141109D01*
X144689Y141902D01*
X145233Y142683D01*
X145795Y143450D01*
X146376Y144203D01*
X146976Y144942D01*
X147593Y145666D01*
X148227Y146375D01*
X148878Y147068D01*
X149546Y147745D01*
X150231Y148406D01*
X150931Y149050D01*
X151647Y149677D01*
X152378Y150286D01*
X153123Y150877D01*
X153883Y151449D01*
X154656Y152004D01*
X155442Y152539D01*
X156242Y153054D01*
X157053Y153551D01*
X157877Y154027D01*
X158711Y154483D01*
X159557Y154919D01*
X160413Y155334D01*
X161279Y155728D01*
X162154Y156101D01*
X163038Y156452D01*
M02*
