G04 EAGLE Gerber RS-274X export*
G75*
%MOMM*%
%FSLAX34Y34*%
%LPD*%
%INBottom Copper*%
%IPPOS*%
%AMOC8*
5,1,8,0,0,1.08239X$1,22.5*%
G01*
%ADD10C,0.230000*%
%ADD11R,0.230000X0.600000*%
%ADD12R,0.600000X0.230000*%
%ADD13C,0.185000*%
%ADD14R,4.500000X4.200000*%
%ADD15R,3.100000X0.700000*%
%ADD16R,0.700000X0.700000*%
%ADD17R,0.700000X0.600000*%
%ADD18R,0.600000X0.700000*%
%ADD19R,1.000000X0.500000*%
%ADD20P,1.732040X8X22.500000*%
%ADD21C,1.600200*%
%ADD22C,0.558800*%
%ADD23C,0.609600*%
%ADD24C,1.500000*%
%ADD25P,1.814519X8X22.500000*%
%ADD26P,1.814519X8X292.500000*%
%ADD27P,1.924489X8X112.500000*%
%ADD28P,1.732040X8X292.500000*%
%ADD29R,3.200000X1.800000*%
%ADD30R,2.540000X5.080000*%
%ADD31R,2.000000X2.000000*%
%ADD32C,0.088900*%
%ADD33C,0.454000*%
%ADD34C,0.152400*%
%ADD35C,0.825000*%
%ADD36C,0.812800*%
%ADD37C,1.270000*%
%ADD38C,0.203200*%
%ADD39C,0.604000*%

G36*
X996979Y-438D02*
X996979Y-438D01*
X997008Y-440D01*
X997069Y-418D01*
X997133Y-404D01*
X997157Y-387D01*
X997184Y-377D01*
X997231Y-331D01*
X997284Y-293D01*
X997298Y-267D01*
X997319Y-247D01*
X997331Y-208D01*
X997375Y-129D01*
X997382Y-39D01*
X997394Y0D01*
X997394Y996950D01*
X997388Y996979D01*
X997390Y997008D01*
X997368Y997069D01*
X997354Y997133D01*
X997337Y997157D01*
X997327Y997184D01*
X997281Y997231D01*
X997243Y997284D01*
X997217Y997298D01*
X997197Y997319D01*
X997158Y997331D01*
X997079Y997375D01*
X996989Y997382D01*
X996950Y997394D01*
X0Y997394D01*
X-29Y997388D01*
X-58Y997390D01*
X-119Y997368D01*
X-183Y997354D01*
X-207Y997337D01*
X-234Y997327D01*
X-281Y997281D01*
X-334Y997243D01*
X-348Y997217D01*
X-369Y997197D01*
X-381Y997158D01*
X-425Y997079D01*
X-432Y996989D01*
X-444Y996950D01*
X-444Y0D01*
X-438Y-29D01*
X-440Y-58D01*
X-418Y-119D01*
X-404Y-183D01*
X-387Y-207D01*
X-377Y-234D01*
X-331Y-281D01*
X-293Y-334D01*
X-267Y-348D01*
X-247Y-369D01*
X-208Y-381D01*
X-129Y-425D01*
X-39Y-432D01*
X0Y-444D01*
X996950Y-444D01*
X996979Y-438D01*
G37*
%LPC*%
G36*
X128378Y109854D02*
X128378Y109854D01*
X126230Y110744D01*
X124536Y112438D01*
X124504Y112485D01*
X124472Y112504D01*
X124447Y112530D01*
X124409Y112542D01*
X124343Y112582D01*
X124238Y112594D01*
X124200Y112605D01*
X98164Y112605D01*
X98019Y112574D01*
X97994Y112571D01*
X97856Y112514D01*
X93660Y112514D01*
X93522Y112571D01*
X93376Y112598D01*
X93352Y112605D01*
X92338Y112605D01*
X91621Y113322D01*
X91497Y113403D01*
X91478Y113418D01*
X90198Y113948D01*
X90052Y113975D01*
X90029Y113982D01*
X11253Y113982D01*
X9207Y116028D01*
X9207Y372922D01*
X11253Y374968D01*
X331647Y374968D01*
X333693Y372922D01*
X333693Y116028D01*
X331647Y113982D01*
X252122Y113982D01*
X252079Y113973D01*
X252036Y113973D01*
X252004Y113956D01*
X251939Y113942D01*
X251840Y113869D01*
X251808Y113852D01*
X250562Y112605D01*
X218700Y112605D01*
X218664Y112598D01*
X218628Y112599D01*
X218574Y112578D01*
X218517Y112566D01*
X218487Y112544D01*
X218453Y112530D01*
X218429Y112500D01*
X218366Y112454D01*
X218349Y112423D01*
X216670Y110744D01*
X214522Y109854D01*
X212198Y109854D01*
X210037Y110749D01*
X209994Y110757D01*
X209954Y110774D01*
X209918Y110771D01*
X209853Y110783D01*
X209733Y110753D01*
X209698Y110749D01*
X207537Y109854D01*
X205213Y109854D01*
X203052Y110749D01*
X203009Y110757D01*
X202969Y110774D01*
X202933Y110771D01*
X202868Y110783D01*
X202748Y110753D01*
X202713Y110749D01*
X200552Y109854D01*
X198228Y109854D01*
X196067Y110749D01*
X196024Y110757D01*
X195984Y110774D01*
X195948Y110771D01*
X195883Y110783D01*
X195763Y110753D01*
X195728Y110749D01*
X193567Y109854D01*
X191243Y109854D01*
X189082Y110749D01*
X189039Y110757D01*
X188999Y110774D01*
X188963Y110771D01*
X188898Y110783D01*
X188778Y110753D01*
X188743Y110749D01*
X186582Y109854D01*
X184258Y109854D01*
X182097Y110749D01*
X182054Y110757D01*
X182014Y110774D01*
X181978Y110771D01*
X181913Y110783D01*
X181793Y110753D01*
X181758Y110749D01*
X179597Y109854D01*
X177273Y109854D01*
X175112Y110749D01*
X175069Y110757D01*
X175029Y110774D01*
X174993Y110771D01*
X174928Y110783D01*
X174808Y110753D01*
X174773Y110749D01*
X172612Y109854D01*
X170288Y109854D01*
X168127Y110749D01*
X168084Y110757D01*
X168044Y110774D01*
X168008Y110771D01*
X167943Y110783D01*
X167823Y110753D01*
X167788Y110749D01*
X165627Y109854D01*
X163303Y109854D01*
X161142Y110749D01*
X161099Y110757D01*
X161059Y110774D01*
X161023Y110771D01*
X160958Y110783D01*
X160838Y110753D01*
X160803Y110749D01*
X158642Y109854D01*
X156318Y109854D01*
X154157Y110749D01*
X154114Y110757D01*
X154074Y110774D01*
X154038Y110771D01*
X153973Y110783D01*
X153853Y110753D01*
X153818Y110749D01*
X151657Y109854D01*
X149333Y109854D01*
X147172Y110749D01*
X147129Y110757D01*
X147089Y110774D01*
X147053Y110771D01*
X146988Y110783D01*
X146868Y110753D01*
X146833Y110749D01*
X144672Y109854D01*
X142348Y109854D01*
X140187Y110749D01*
X140144Y110757D01*
X140104Y110774D01*
X140068Y110771D01*
X140003Y110783D01*
X139883Y110753D01*
X139848Y110749D01*
X137687Y109854D01*
X135363Y109854D01*
X133202Y110749D01*
X133159Y110757D01*
X133119Y110774D01*
X133083Y110771D01*
X133018Y110783D01*
X132898Y110753D01*
X132863Y110749D01*
X130702Y109854D01*
X128378Y109854D01*
G37*
%LPD*%
%LPC*%
G36*
X490074Y112140D02*
X490074Y112140D01*
X487926Y113030D01*
X486283Y114673D01*
X486201Y114871D01*
X486180Y114901D01*
X486168Y114936D01*
X486127Y114978D01*
X486094Y115025D01*
X486063Y115044D01*
X486037Y115070D01*
X486000Y115082D01*
X485933Y115122D01*
X485829Y115134D01*
X485791Y115145D01*
X454288Y115145D01*
X453296Y116138D01*
X453259Y116161D01*
X453234Y116188D01*
X453233Y116188D01*
X453228Y116193D01*
X453194Y116203D01*
X453138Y116239D01*
X453016Y116258D01*
X452982Y116268D01*
X372949Y116268D01*
X370903Y118314D01*
X370903Y168609D01*
X370894Y168652D01*
X370894Y168695D01*
X370877Y168727D01*
X370872Y168750D01*
X370872Y191404D01*
X370874Y191407D01*
X370893Y191529D01*
X370903Y191563D01*
X370903Y279734D01*
X370894Y279777D01*
X370894Y279820D01*
X370877Y279852D01*
X370872Y279875D01*
X370872Y302529D01*
X370874Y302532D01*
X370893Y302654D01*
X370903Y302688D01*
X370903Y375208D01*
X372949Y377254D01*
X693343Y377254D01*
X695389Y375208D01*
X695389Y302688D01*
X695398Y302645D01*
X695398Y302601D01*
X695415Y302569D01*
X695420Y302547D01*
X695420Y279893D01*
X695418Y279890D01*
X695399Y279768D01*
X695389Y279734D01*
X695389Y191563D01*
X695398Y191520D01*
X695398Y191477D01*
X695415Y191445D01*
X695420Y191422D01*
X695420Y168768D01*
X695418Y168765D01*
X695399Y168643D01*
X695389Y168609D01*
X695389Y118314D01*
X693343Y116268D01*
X613818Y116268D01*
X613775Y116259D01*
X613732Y116259D01*
X613700Y116242D01*
X613635Y116228D01*
X613536Y116155D01*
X613504Y116138D01*
X612258Y114891D01*
X580396Y114891D01*
X580360Y114884D01*
X580324Y114885D01*
X580270Y114864D01*
X580213Y114852D01*
X580183Y114830D01*
X580149Y114816D01*
X580125Y114786D01*
X580062Y114740D01*
X580045Y114709D01*
X578366Y113030D01*
X576218Y112140D01*
X573894Y112140D01*
X571733Y113035D01*
X571690Y113043D01*
X571650Y113060D01*
X571614Y113057D01*
X571549Y113069D01*
X571429Y113039D01*
X571394Y113035D01*
X569233Y112140D01*
X566909Y112140D01*
X564748Y113035D01*
X564705Y113043D01*
X564665Y113060D01*
X564629Y113057D01*
X564564Y113069D01*
X564444Y113039D01*
X564409Y113035D01*
X562248Y112140D01*
X559924Y112140D01*
X557763Y113035D01*
X557720Y113043D01*
X557680Y113060D01*
X557644Y113057D01*
X557579Y113069D01*
X557459Y113039D01*
X557424Y113035D01*
X555263Y112140D01*
X552939Y112140D01*
X550778Y113035D01*
X550735Y113043D01*
X550695Y113060D01*
X550659Y113057D01*
X550594Y113069D01*
X550474Y113039D01*
X550439Y113035D01*
X548278Y112140D01*
X545954Y112140D01*
X543793Y113035D01*
X543750Y113043D01*
X543710Y113060D01*
X543674Y113057D01*
X543609Y113069D01*
X543489Y113039D01*
X543454Y113035D01*
X541293Y112140D01*
X538969Y112140D01*
X536808Y113035D01*
X536765Y113043D01*
X536725Y113060D01*
X536689Y113057D01*
X536624Y113069D01*
X536504Y113039D01*
X536469Y113035D01*
X534308Y112140D01*
X531984Y112140D01*
X529823Y113035D01*
X529780Y113043D01*
X529740Y113060D01*
X529704Y113057D01*
X529639Y113069D01*
X529519Y113039D01*
X529484Y113035D01*
X527323Y112140D01*
X524999Y112140D01*
X522838Y113035D01*
X522795Y113043D01*
X522755Y113060D01*
X522719Y113057D01*
X522654Y113069D01*
X522534Y113039D01*
X522499Y113035D01*
X520338Y112140D01*
X518014Y112140D01*
X515853Y113035D01*
X515810Y113043D01*
X515770Y113060D01*
X515734Y113057D01*
X515669Y113069D01*
X515549Y113039D01*
X515514Y113035D01*
X513353Y112140D01*
X511029Y112140D01*
X508868Y113035D01*
X508825Y113043D01*
X508785Y113060D01*
X508749Y113057D01*
X508684Y113069D01*
X508564Y113039D01*
X508529Y113035D01*
X506368Y112140D01*
X504044Y112140D01*
X501883Y113035D01*
X501840Y113043D01*
X501800Y113060D01*
X501764Y113057D01*
X501699Y113069D01*
X501579Y113039D01*
X501544Y113035D01*
X499383Y112140D01*
X497059Y112140D01*
X494898Y113035D01*
X494855Y113043D01*
X494815Y113060D01*
X494779Y113057D01*
X494714Y113069D01*
X494594Y113039D01*
X494559Y113035D01*
X492398Y112140D01*
X490074Y112140D01*
G37*
%LPD*%
G36*
X32378Y221808D02*
X32378Y221808D01*
X32385Y221807D01*
X32469Y221828D01*
X32554Y221846D01*
X32560Y221850D01*
X32567Y221852D01*
X32635Y221906D01*
X32704Y221957D01*
X32708Y221964D01*
X32714Y221968D01*
X32753Y222046D01*
X32795Y222121D01*
X32796Y222129D01*
X32799Y222135D01*
X32804Y222222D01*
X32811Y222308D01*
X32808Y222315D01*
X32809Y222322D01*
X32777Y222403D01*
X32748Y222484D01*
X32742Y222490D01*
X32740Y222497D01*
X32721Y222512D01*
X32617Y222619D01*
X32575Y222632D01*
X32540Y222660D01*
X32125Y222832D01*
X29157Y225800D01*
X27551Y229677D01*
X27551Y233873D01*
X29157Y237750D01*
X32125Y240718D01*
X36002Y242324D01*
X40198Y242324D01*
X44075Y240718D01*
X47043Y237750D01*
X48649Y233873D01*
X48649Y229677D01*
X47043Y225800D01*
X44075Y222832D01*
X43660Y222660D01*
X43653Y222656D01*
X43646Y222654D01*
X43577Y222603D01*
X43505Y222553D01*
X43502Y222547D01*
X43496Y222543D01*
X43454Y222467D01*
X43409Y222393D01*
X43408Y222385D01*
X43405Y222379D01*
X43398Y222293D01*
X43388Y222207D01*
X43390Y222200D01*
X43389Y222192D01*
X43419Y222111D01*
X43445Y222028D01*
X43450Y222023D01*
X43452Y222016D01*
X43513Y221953D01*
X43571Y221889D01*
X43578Y221886D01*
X43583Y221881D01*
X43607Y221874D01*
X43743Y221815D01*
X43787Y221819D01*
X43829Y221806D01*
X83171Y221806D01*
X83178Y221808D01*
X83185Y221807D01*
X83269Y221828D01*
X83354Y221846D01*
X83360Y221850D01*
X83367Y221852D01*
X83435Y221906D01*
X83504Y221957D01*
X83508Y221964D01*
X83514Y221968D01*
X83553Y222045D01*
X83595Y222121D01*
X83596Y222129D01*
X83599Y222135D01*
X83604Y222222D01*
X83611Y222308D01*
X83608Y222315D01*
X83608Y222322D01*
X83577Y222403D01*
X83548Y222484D01*
X83542Y222490D01*
X83540Y222497D01*
X83520Y222512D01*
X83417Y222619D01*
X83375Y222632D01*
X83340Y222660D01*
X82925Y222832D01*
X79957Y225800D01*
X78351Y229677D01*
X78351Y233873D01*
X79957Y237750D01*
X82925Y240718D01*
X86802Y242324D01*
X90998Y242324D01*
X94875Y240718D01*
X97843Y237750D01*
X99449Y233873D01*
X99449Y229677D01*
X97843Y225800D01*
X94875Y222832D01*
X94460Y222660D01*
X94453Y222656D01*
X94446Y222654D01*
X94377Y222603D01*
X94306Y222553D01*
X94302Y222547D01*
X94296Y222543D01*
X94254Y222467D01*
X94209Y222393D01*
X94208Y222385D01*
X94205Y222379D01*
X94198Y222293D01*
X94188Y222207D01*
X94190Y222200D01*
X94189Y222192D01*
X94219Y222111D01*
X94245Y222028D01*
X94250Y222023D01*
X94252Y222016D01*
X94313Y221953D01*
X94371Y221889D01*
X94378Y221886D01*
X94383Y221881D01*
X94407Y221874D01*
X94543Y221815D01*
X94587Y221819D01*
X94629Y221806D01*
X140321Y221806D01*
X140328Y221808D01*
X140335Y221807D01*
X140419Y221828D01*
X140504Y221846D01*
X140510Y221850D01*
X140517Y221852D01*
X140585Y221906D01*
X140654Y221957D01*
X140658Y221964D01*
X140664Y221968D01*
X140703Y222046D01*
X140745Y222121D01*
X140746Y222129D01*
X140749Y222135D01*
X140754Y222222D01*
X140761Y222308D01*
X140758Y222315D01*
X140759Y222322D01*
X140727Y222403D01*
X140698Y222484D01*
X140692Y222490D01*
X140690Y222497D01*
X140671Y222512D01*
X140567Y222619D01*
X140525Y222632D01*
X140490Y222660D01*
X140075Y222832D01*
X137107Y225800D01*
X135501Y229677D01*
X135501Y233873D01*
X137107Y237750D01*
X140075Y240718D01*
X143952Y242324D01*
X148148Y242324D01*
X152025Y240718D01*
X154993Y237750D01*
X156599Y233873D01*
X156599Y229677D01*
X154993Y225800D01*
X152025Y222832D01*
X151610Y222660D01*
X151603Y222656D01*
X151596Y222654D01*
X151527Y222603D01*
X151455Y222553D01*
X151452Y222547D01*
X151446Y222543D01*
X151404Y222467D01*
X151359Y222393D01*
X151358Y222385D01*
X151355Y222379D01*
X151348Y222293D01*
X151338Y222207D01*
X151340Y222200D01*
X151339Y222192D01*
X151369Y222111D01*
X151395Y222028D01*
X151400Y222023D01*
X151402Y222016D01*
X151463Y221953D01*
X151521Y221889D01*
X151528Y221886D01*
X151533Y221881D01*
X151557Y221874D01*
X151693Y221815D01*
X151737Y221819D01*
X151779Y221806D01*
X191121Y221806D01*
X191128Y221808D01*
X191135Y221807D01*
X191219Y221828D01*
X191304Y221846D01*
X191310Y221850D01*
X191317Y221852D01*
X191385Y221906D01*
X191454Y221957D01*
X191458Y221964D01*
X191464Y221968D01*
X191503Y222046D01*
X191545Y222121D01*
X191546Y222129D01*
X191549Y222135D01*
X191554Y222222D01*
X191561Y222308D01*
X191558Y222315D01*
X191559Y222322D01*
X191527Y222403D01*
X191498Y222484D01*
X191492Y222490D01*
X191490Y222497D01*
X191471Y222512D01*
X191367Y222619D01*
X191325Y222632D01*
X191290Y222660D01*
X190875Y222832D01*
X187907Y225800D01*
X186301Y229677D01*
X186301Y233873D01*
X187907Y237750D01*
X190875Y240718D01*
X194752Y242324D01*
X198948Y242324D01*
X202825Y240718D01*
X205793Y237750D01*
X207399Y233873D01*
X207399Y229677D01*
X205793Y225800D01*
X202825Y222832D01*
X202410Y222660D01*
X202403Y222656D01*
X202396Y222654D01*
X202327Y222603D01*
X202255Y222553D01*
X202252Y222547D01*
X202246Y222543D01*
X202204Y222467D01*
X202159Y222393D01*
X202158Y222385D01*
X202155Y222379D01*
X202148Y222293D01*
X202138Y222207D01*
X202140Y222200D01*
X202139Y222192D01*
X202169Y222111D01*
X202195Y222028D01*
X202200Y222023D01*
X202202Y222016D01*
X202263Y221953D01*
X202321Y221889D01*
X202328Y221886D01*
X202333Y221881D01*
X202357Y221874D01*
X202493Y221815D01*
X202537Y221819D01*
X202579Y221806D01*
X248271Y221806D01*
X248278Y221808D01*
X248285Y221807D01*
X248369Y221828D01*
X248454Y221846D01*
X248460Y221850D01*
X248467Y221852D01*
X248535Y221906D01*
X248604Y221957D01*
X248608Y221964D01*
X248614Y221968D01*
X248653Y222046D01*
X248695Y222121D01*
X248696Y222129D01*
X248699Y222135D01*
X248704Y222222D01*
X248711Y222308D01*
X248708Y222315D01*
X248709Y222322D01*
X248677Y222403D01*
X248648Y222484D01*
X248642Y222490D01*
X248640Y222497D01*
X248621Y222512D01*
X248517Y222619D01*
X248475Y222632D01*
X248440Y222660D01*
X248025Y222832D01*
X245057Y225800D01*
X243451Y229677D01*
X243451Y233873D01*
X245057Y237750D01*
X248025Y240718D01*
X251902Y242324D01*
X256098Y242324D01*
X259975Y240718D01*
X262943Y237750D01*
X264549Y233873D01*
X264549Y229677D01*
X262943Y225800D01*
X259975Y222832D01*
X259560Y222660D01*
X259553Y222656D01*
X259546Y222654D01*
X259477Y222603D01*
X259405Y222553D01*
X259402Y222547D01*
X259396Y222543D01*
X259354Y222467D01*
X259309Y222393D01*
X259308Y222385D01*
X259305Y222379D01*
X259298Y222293D01*
X259288Y222207D01*
X259290Y222200D01*
X259289Y222192D01*
X259319Y222111D01*
X259345Y222028D01*
X259350Y222023D01*
X259352Y222016D01*
X259413Y221953D01*
X259471Y221889D01*
X259478Y221886D01*
X259483Y221881D01*
X259507Y221874D01*
X259643Y221815D01*
X259687Y221819D01*
X259729Y221806D01*
X299071Y221806D01*
X299078Y221808D01*
X299085Y221807D01*
X299169Y221828D01*
X299254Y221846D01*
X299260Y221850D01*
X299267Y221852D01*
X299335Y221906D01*
X299404Y221957D01*
X299408Y221964D01*
X299414Y221968D01*
X299453Y222046D01*
X299495Y222121D01*
X299496Y222129D01*
X299499Y222135D01*
X299504Y222222D01*
X299511Y222308D01*
X299508Y222315D01*
X299509Y222322D01*
X299477Y222403D01*
X299448Y222484D01*
X299442Y222490D01*
X299440Y222497D01*
X299421Y222512D01*
X299317Y222619D01*
X299275Y222632D01*
X299240Y222660D01*
X298825Y222832D01*
X295857Y225800D01*
X294251Y229677D01*
X294251Y233873D01*
X295857Y237750D01*
X298825Y240718D01*
X302702Y242324D01*
X306898Y242324D01*
X310775Y240718D01*
X313743Y237750D01*
X315349Y233873D01*
X315349Y229677D01*
X313743Y225800D01*
X310775Y222832D01*
X310360Y222660D01*
X310353Y222656D01*
X310346Y222654D01*
X310277Y222603D01*
X310205Y222553D01*
X310202Y222547D01*
X310196Y222543D01*
X310154Y222467D01*
X310109Y222393D01*
X310108Y222385D01*
X310105Y222379D01*
X310098Y222293D01*
X310088Y222207D01*
X310090Y222200D01*
X310089Y222192D01*
X310119Y222111D01*
X310145Y222028D01*
X310150Y222023D01*
X310152Y222016D01*
X310213Y221953D01*
X310271Y221889D01*
X310278Y221886D01*
X310283Y221881D01*
X310307Y221874D01*
X310443Y221815D01*
X310487Y221819D01*
X310529Y221806D01*
X330200Y221806D01*
X330229Y221812D01*
X330258Y221810D01*
X330319Y221832D01*
X330383Y221846D01*
X330407Y221863D01*
X330434Y221873D01*
X330481Y221919D01*
X330534Y221957D01*
X330548Y221983D01*
X330569Y222003D01*
X330581Y222042D01*
X330625Y222121D01*
X330632Y222211D01*
X330644Y222250D01*
X330644Y371475D01*
X330638Y371504D01*
X330640Y371533D01*
X330618Y371594D01*
X330604Y371658D01*
X330587Y371682D01*
X330577Y371709D01*
X330531Y371756D01*
X330493Y371809D01*
X330467Y371823D01*
X330447Y371844D01*
X330408Y371856D01*
X330329Y371900D01*
X330239Y371907D01*
X330200Y371919D01*
X12700Y371919D01*
X12671Y371913D01*
X12642Y371915D01*
X12581Y371893D01*
X12517Y371879D01*
X12493Y371862D01*
X12466Y371852D01*
X12419Y371806D01*
X12366Y371768D01*
X12352Y371742D01*
X12331Y371722D01*
X12319Y371683D01*
X12275Y371604D01*
X12268Y371514D01*
X12256Y371475D01*
X12256Y222250D01*
X12262Y222221D01*
X12260Y222192D01*
X12282Y222131D01*
X12296Y222067D01*
X12313Y222043D01*
X12323Y222016D01*
X12369Y221969D01*
X12407Y221916D01*
X12433Y221902D01*
X12453Y221881D01*
X12492Y221869D01*
X12571Y221825D01*
X12661Y221818D01*
X12700Y221806D01*
X32371Y221806D01*
X32378Y221808D01*
G37*
G36*
X520129Y119325D02*
X520129Y119325D01*
X520165Y119323D01*
X520219Y119345D01*
X520276Y119357D01*
X520306Y119379D01*
X520340Y119392D01*
X520364Y119422D01*
X520427Y119468D01*
X520478Y119561D01*
X520503Y119591D01*
X521208Y121293D01*
X522851Y122936D01*
X524999Y123826D01*
X527323Y123826D01*
X529484Y122931D01*
X529527Y122923D01*
X529567Y122906D01*
X529603Y122909D01*
X529668Y122897D01*
X529788Y122927D01*
X529823Y122931D01*
X531984Y123826D01*
X534308Y123826D01*
X536469Y122931D01*
X536512Y122923D01*
X536552Y122906D01*
X536588Y122909D01*
X536653Y122897D01*
X536773Y122927D01*
X536808Y122931D01*
X538969Y123826D01*
X541293Y123826D01*
X543454Y122931D01*
X543497Y122923D01*
X543537Y122906D01*
X543573Y122909D01*
X543638Y122897D01*
X543758Y122927D01*
X543793Y122931D01*
X545954Y123826D01*
X548278Y123826D01*
X550439Y122931D01*
X550482Y122923D01*
X550522Y122906D01*
X550558Y122909D01*
X550623Y122897D01*
X550743Y122927D01*
X550778Y122931D01*
X552939Y123826D01*
X555263Y123826D01*
X557424Y122931D01*
X557467Y122923D01*
X557507Y122906D01*
X557543Y122909D01*
X557608Y122897D01*
X557728Y122927D01*
X557763Y122931D01*
X559924Y123826D01*
X562248Y123826D01*
X564409Y122931D01*
X564452Y122923D01*
X564492Y122906D01*
X564528Y122909D01*
X564593Y122897D01*
X564713Y122927D01*
X564748Y122931D01*
X566909Y123826D01*
X569233Y123826D01*
X571381Y122936D01*
X573024Y121293D01*
X573249Y120750D01*
X573253Y120744D01*
X573255Y120737D01*
X573306Y120667D01*
X573356Y120596D01*
X573362Y120592D01*
X573366Y120586D01*
X573442Y120544D01*
X573516Y120499D01*
X573524Y120499D01*
X573530Y120495D01*
X573616Y120488D01*
X573702Y120478D01*
X573710Y120480D01*
X573717Y120480D01*
X573798Y120509D01*
X573881Y120535D01*
X573886Y120540D01*
X573893Y120543D01*
X573956Y120603D01*
X574020Y120661D01*
X574023Y120668D01*
X574028Y120673D01*
X574035Y120697D01*
X574094Y120833D01*
X574090Y120877D01*
X574103Y120920D01*
X574103Y165658D01*
X576149Y167704D01*
X691896Y167704D01*
X691925Y167710D01*
X691954Y167708D01*
X692015Y167730D01*
X692079Y167744D01*
X692103Y167761D01*
X692130Y167771D01*
X692177Y167817D01*
X692230Y167855D01*
X692244Y167881D01*
X692265Y167901D01*
X692277Y167940D01*
X692321Y168019D01*
X692328Y168109D01*
X692340Y168148D01*
X692340Y277719D01*
X692334Y277747D01*
X692336Y277776D01*
X692314Y277838D01*
X692300Y277902D01*
X692283Y277925D01*
X692273Y277953D01*
X692227Y278000D01*
X692189Y278052D01*
X692163Y278066D01*
X692143Y278087D01*
X692104Y278099D01*
X692025Y278143D01*
X691935Y278151D01*
X691896Y278162D01*
X686187Y278162D01*
X686042Y278131D01*
X686017Y278128D01*
X684469Y277487D01*
X680273Y277487D01*
X678725Y278128D01*
X678579Y278155D01*
X678555Y278162D01*
X671053Y278162D01*
X671050Y278164D01*
X670928Y278183D01*
X670894Y278193D01*
X515549Y278193D01*
X515521Y278187D01*
X515492Y278189D01*
X515430Y278167D01*
X515366Y278153D01*
X515343Y278136D01*
X515315Y278126D01*
X515268Y278080D01*
X515216Y278042D01*
X515202Y278016D01*
X515181Y277996D01*
X515169Y277957D01*
X515125Y277878D01*
X515117Y277788D01*
X515106Y277749D01*
X515106Y253456D01*
X515110Y253434D01*
X515108Y253412D01*
X515130Y253343D01*
X515145Y253273D01*
X515158Y253255D01*
X515165Y253234D01*
X515214Y253180D01*
X515257Y253122D01*
X515276Y253112D01*
X515291Y253095D01*
X515357Y253066D01*
X515421Y253031D01*
X515443Y253030D01*
X515463Y253021D01*
X515502Y253025D01*
X515607Y253016D01*
X515681Y253042D01*
X515719Y253046D01*
X517123Y253628D01*
X517153Y253648D01*
X517188Y253661D01*
X517230Y253701D01*
X517277Y253734D01*
X517296Y253766D01*
X517322Y253791D01*
X517334Y253828D01*
X517374Y253895D01*
X517386Y254000D01*
X517397Y254038D01*
X517397Y263899D01*
X519183Y265685D01*
X547109Y265685D01*
X548895Y263899D01*
X548895Y254038D01*
X548902Y254002D01*
X548901Y253965D01*
X548922Y253911D01*
X548934Y253854D01*
X548956Y253825D01*
X548969Y253791D01*
X549000Y253766D01*
X549046Y253704D01*
X549138Y253653D01*
X549169Y253628D01*
X551821Y252529D01*
X554789Y249561D01*
X556395Y245684D01*
X556395Y241488D01*
X555279Y238793D01*
X555252Y238647D01*
X555245Y238623D01*
X555245Y235849D01*
X555276Y235704D01*
X555279Y235679D01*
X556395Y232984D01*
X556395Y228788D01*
X555279Y226093D01*
X555252Y225947D01*
X555245Y225923D01*
X555245Y223149D01*
X555251Y223122D01*
X555249Y223097D01*
X555267Y223044D01*
X555276Y223004D01*
X555279Y222979D01*
X556395Y220284D01*
X556395Y216088D01*
X554789Y212211D01*
X551821Y209243D01*
X547944Y207637D01*
X543748Y207637D01*
X541053Y208753D01*
X540907Y208780D01*
X540883Y208787D01*
X538109Y208787D01*
X537964Y208756D01*
X537939Y208753D01*
X535244Y207637D01*
X531048Y207637D01*
X528353Y208753D01*
X528207Y208780D01*
X528183Y208787D01*
X525409Y208787D01*
X525264Y208756D01*
X525239Y208753D01*
X522544Y207637D01*
X518348Y207637D01*
X515719Y208726D01*
X515698Y208730D01*
X515678Y208741D01*
X515606Y208747D01*
X515535Y208760D01*
X515514Y208754D01*
X515492Y208756D01*
X515423Y208732D01*
X515353Y208714D01*
X515336Y208700D01*
X515315Y208693D01*
X515263Y208643D01*
X515206Y208598D01*
X515196Y208578D01*
X515181Y208563D01*
X515169Y208525D01*
X515121Y208431D01*
X515117Y208353D01*
X515106Y208316D01*
X515106Y196121D01*
X515115Y196078D01*
X515114Y196034D01*
X515131Y196002D01*
X515145Y195938D01*
X515206Y195856D01*
X515208Y195852D01*
X515214Y195845D01*
X515219Y195838D01*
X515236Y195807D01*
X515459Y195584D01*
X515496Y195560D01*
X515526Y195529D01*
X515561Y195518D01*
X515617Y195482D01*
X515739Y195464D01*
X515773Y195454D01*
X516846Y195454D01*
X518993Y194564D01*
X520637Y192921D01*
X521526Y190773D01*
X521526Y188449D01*
X520637Y186301D01*
X518993Y184658D01*
X516846Y183768D01*
X514521Y183768D01*
X512361Y184663D01*
X512318Y184671D01*
X512278Y184688D01*
X512242Y184685D01*
X512176Y184697D01*
X512056Y184667D01*
X512021Y184663D01*
X509861Y183768D01*
X507536Y183768D01*
X505389Y184658D01*
X503745Y186301D01*
X502856Y188449D01*
X502856Y190773D01*
X503745Y192921D01*
X505389Y194564D01*
X506702Y195108D01*
X506732Y195129D01*
X506767Y195141D01*
X506809Y195182D01*
X506856Y195215D01*
X506875Y195246D01*
X506901Y195272D01*
X506913Y195309D01*
X506953Y195376D01*
X506965Y195480D01*
X506976Y195518D01*
X506976Y277749D01*
X506971Y277774D01*
X506972Y277794D01*
X506972Y277796D01*
X506972Y277807D01*
X506950Y277868D01*
X506937Y277932D01*
X506919Y277956D01*
X506909Y277983D01*
X506864Y278030D01*
X506825Y278083D01*
X506800Y278097D01*
X506779Y278118D01*
X506740Y278130D01*
X506661Y278174D01*
X506571Y278181D01*
X506533Y278193D01*
X395398Y278193D01*
X395355Y278184D01*
X395312Y278184D01*
X395280Y278167D01*
X395257Y278162D01*
X387737Y278162D01*
X387592Y278131D01*
X387567Y278128D01*
X386019Y277487D01*
X381823Y277487D01*
X380275Y278128D01*
X380129Y278155D01*
X380105Y278162D01*
X374396Y278162D01*
X374367Y278156D01*
X374338Y278158D01*
X374277Y278136D01*
X374213Y278123D01*
X374189Y278105D01*
X374162Y278095D01*
X374115Y278050D01*
X374062Y278011D01*
X374048Y277986D01*
X374027Y277965D01*
X374015Y277926D01*
X373971Y277847D01*
X373964Y277757D01*
X373952Y277719D01*
X373952Y168148D01*
X373958Y168119D01*
X373956Y168090D01*
X373978Y168029D01*
X373992Y167965D01*
X374009Y167941D01*
X374019Y167914D01*
X374065Y167867D01*
X374103Y167814D01*
X374129Y167800D01*
X374149Y167779D01*
X374188Y167767D01*
X374267Y167723D01*
X374357Y167716D01*
X374396Y167704D01*
X490143Y167704D01*
X492189Y165658D01*
X492189Y127190D01*
X492195Y127162D01*
X492193Y127133D01*
X492215Y127071D01*
X492229Y127007D01*
X492246Y126984D01*
X492256Y126956D01*
X492302Y126909D01*
X492340Y126857D01*
X492366Y126843D01*
X492386Y126822D01*
X492425Y126810D01*
X492504Y126766D01*
X492594Y126758D01*
X492633Y126747D01*
X508836Y126747D01*
X511627Y123956D01*
X511664Y123932D01*
X511694Y123901D01*
X511729Y123890D01*
X511785Y123854D01*
X511907Y123836D01*
X511941Y123826D01*
X513353Y123826D01*
X515501Y122936D01*
X517144Y121293D01*
X517849Y119591D01*
X517870Y119561D01*
X517882Y119527D01*
X517923Y119485D01*
X517956Y119437D01*
X517987Y119418D01*
X518012Y119392D01*
X518050Y119381D01*
X518116Y119341D01*
X518221Y119329D01*
X518259Y119317D01*
X520093Y119317D01*
X520129Y119325D01*
G37*
G36*
X123508Y117039D02*
X123508Y117039D01*
X123544Y117037D01*
X123598Y117059D01*
X123655Y117071D01*
X123685Y117093D01*
X123719Y117106D01*
X123743Y117136D01*
X123806Y117182D01*
X123857Y117275D01*
X123882Y117305D01*
X124587Y119007D01*
X126230Y120650D01*
X128378Y121540D01*
X130702Y121540D01*
X132863Y120645D01*
X132906Y120637D01*
X132946Y120620D01*
X132982Y120623D01*
X133047Y120611D01*
X133167Y120641D01*
X133202Y120645D01*
X135363Y121540D01*
X137687Y121540D01*
X139848Y120645D01*
X139891Y120637D01*
X139931Y120620D01*
X139967Y120623D01*
X140032Y120611D01*
X140152Y120641D01*
X140187Y120645D01*
X142348Y121540D01*
X144672Y121540D01*
X146833Y120645D01*
X146876Y120637D01*
X146916Y120620D01*
X146952Y120623D01*
X147017Y120611D01*
X147137Y120641D01*
X147172Y120645D01*
X149333Y121540D01*
X151657Y121540D01*
X153805Y120650D01*
X155448Y119007D01*
X156153Y117305D01*
X156174Y117275D01*
X156186Y117241D01*
X156227Y117199D01*
X156260Y117151D01*
X156291Y117132D01*
X156316Y117106D01*
X156354Y117095D01*
X156420Y117055D01*
X156525Y117043D01*
X156563Y117031D01*
X158397Y117031D01*
X158433Y117039D01*
X158469Y117037D01*
X158523Y117059D01*
X158580Y117071D01*
X158610Y117093D01*
X158644Y117106D01*
X158668Y117136D01*
X158731Y117182D01*
X158782Y117275D01*
X158807Y117305D01*
X159512Y119007D01*
X161155Y120650D01*
X163303Y121540D01*
X165627Y121540D01*
X167788Y120645D01*
X167831Y120637D01*
X167871Y120620D01*
X167907Y120623D01*
X167972Y120611D01*
X168092Y120641D01*
X168127Y120645D01*
X170288Y121540D01*
X172612Y121540D01*
X174773Y120645D01*
X174816Y120637D01*
X174856Y120620D01*
X174892Y120623D01*
X174957Y120611D01*
X175077Y120641D01*
X175112Y120645D01*
X177273Y121540D01*
X179597Y121540D01*
X181758Y120645D01*
X181801Y120637D01*
X181841Y120620D01*
X181877Y120623D01*
X181942Y120611D01*
X182062Y120641D01*
X182097Y120645D01*
X184258Y121540D01*
X186582Y121540D01*
X188743Y120645D01*
X188786Y120637D01*
X188826Y120620D01*
X188862Y120623D01*
X188927Y120611D01*
X189047Y120641D01*
X189082Y120645D01*
X191243Y121540D01*
X193567Y121540D01*
X195728Y120645D01*
X195771Y120637D01*
X195811Y120620D01*
X195847Y120623D01*
X195912Y120611D01*
X196032Y120641D01*
X196067Y120645D01*
X198228Y121540D01*
X200552Y121540D01*
X202713Y120645D01*
X202756Y120637D01*
X202796Y120620D01*
X202832Y120623D01*
X202897Y120611D01*
X203017Y120641D01*
X203052Y120645D01*
X205213Y121540D01*
X207537Y121540D01*
X209685Y120650D01*
X211328Y119007D01*
X212033Y117305D01*
X212054Y117275D01*
X212066Y117241D01*
X212107Y117199D01*
X212140Y117151D01*
X212171Y117132D01*
X212196Y117106D01*
X212234Y117095D01*
X212300Y117055D01*
X212405Y117043D01*
X212443Y117031D01*
X330200Y117031D01*
X330229Y117037D01*
X330258Y117035D01*
X330319Y117057D01*
X330383Y117071D01*
X330407Y117088D01*
X330434Y117098D01*
X330481Y117144D01*
X330534Y117182D01*
X330548Y117208D01*
X330569Y117228D01*
X330581Y117267D01*
X330625Y117346D01*
X330632Y117436D01*
X330644Y117475D01*
X330644Y219075D01*
X330638Y219104D01*
X330640Y219133D01*
X330618Y219194D01*
X330604Y219258D01*
X330587Y219282D01*
X330577Y219309D01*
X330531Y219356D01*
X330493Y219409D01*
X330467Y219423D01*
X330447Y219444D01*
X330408Y219456D01*
X330329Y219500D01*
X330239Y219507D01*
X330200Y219519D01*
X175958Y219519D01*
X175930Y219513D01*
X175901Y219515D01*
X175839Y219493D01*
X175775Y219479D01*
X175752Y219462D01*
X175724Y219452D01*
X175677Y219406D01*
X175625Y219368D01*
X175611Y219342D01*
X175590Y219322D01*
X175578Y219283D01*
X175534Y219204D01*
X175526Y219114D01*
X175515Y219075D01*
X175515Y217992D01*
X174653Y217130D01*
X174641Y217112D01*
X174624Y217098D01*
X174591Y217034D01*
X174551Y216973D01*
X174548Y216951D01*
X174538Y216931D01*
X174535Y216859D01*
X174524Y216787D01*
X174530Y216766D01*
X174529Y216744D01*
X174555Y216677D01*
X174575Y216607D01*
X174590Y216590D01*
X174598Y216570D01*
X174628Y216545D01*
X174697Y216464D01*
X174767Y216431D01*
X174797Y216407D01*
X177425Y215318D01*
X180393Y212350D01*
X181999Y208473D01*
X181999Y204277D01*
X180393Y200400D01*
X177425Y197432D01*
X173548Y195826D01*
X169352Y195826D01*
X166723Y196915D01*
X166702Y196919D01*
X166682Y196930D01*
X166610Y196936D01*
X166539Y196949D01*
X166518Y196943D01*
X166496Y196945D01*
X166427Y196921D01*
X166357Y196903D01*
X166340Y196889D01*
X166319Y196882D01*
X166267Y196832D01*
X166210Y196787D01*
X166200Y196767D01*
X166185Y196752D01*
X166173Y196714D01*
X166125Y196620D01*
X166121Y196542D01*
X166110Y196505D01*
X166110Y193699D01*
X159960Y187549D01*
X159937Y187513D01*
X159905Y187482D01*
X159895Y187447D01*
X159859Y187392D01*
X159840Y187269D01*
X159830Y187236D01*
X159830Y186163D01*
X158941Y184015D01*
X157297Y182372D01*
X155150Y181482D01*
X152825Y181482D01*
X150665Y182377D01*
X150622Y182385D01*
X150582Y182402D01*
X150546Y182399D01*
X150480Y182411D01*
X150360Y182381D01*
X150325Y182377D01*
X148165Y181482D01*
X145840Y181482D01*
X143693Y182372D01*
X142049Y184015D01*
X141160Y186163D01*
X141160Y188487D01*
X142049Y190635D01*
X143693Y192278D01*
X145840Y193168D01*
X148165Y193168D01*
X150325Y192273D01*
X150368Y192265D01*
X150408Y192248D01*
X150444Y192251D01*
X150509Y192239D01*
X150630Y192269D01*
X150665Y192273D01*
X152825Y193168D01*
X153898Y193168D01*
X153941Y193177D01*
X153985Y193176D01*
X154017Y193193D01*
X154081Y193207D01*
X154181Y193281D01*
X154212Y193298D01*
X157850Y196936D01*
X157874Y196973D01*
X157905Y197003D01*
X157916Y197038D01*
X157952Y197094D01*
X157970Y197216D01*
X157980Y197250D01*
X157980Y211954D01*
X164787Y218761D01*
X164795Y218774D01*
X164807Y218782D01*
X164846Y218852D01*
X164889Y218919D01*
X164891Y218933D01*
X164898Y218946D01*
X164904Y219025D01*
X164916Y219104D01*
X164912Y219118D01*
X164913Y219133D01*
X164887Y219208D01*
X164865Y219284D01*
X164855Y219295D01*
X164850Y219309D01*
X164795Y219366D01*
X164744Y219427D01*
X164730Y219433D01*
X164720Y219444D01*
X164686Y219454D01*
X164574Y219507D01*
X164508Y219508D01*
X164473Y219519D01*
X12700Y219519D01*
X12671Y219513D01*
X12642Y219515D01*
X12581Y219493D01*
X12517Y219479D01*
X12493Y219462D01*
X12466Y219452D01*
X12419Y219406D01*
X12366Y219368D01*
X12352Y219342D01*
X12331Y219322D01*
X12319Y219283D01*
X12275Y219204D01*
X12268Y219114D01*
X12256Y219075D01*
X12256Y117475D01*
X12262Y117446D01*
X12260Y117417D01*
X12282Y117356D01*
X12296Y117292D01*
X12313Y117268D01*
X12323Y117241D01*
X12369Y117194D01*
X12407Y117141D01*
X12433Y117127D01*
X12453Y117106D01*
X12492Y117094D01*
X12571Y117050D01*
X12661Y117043D01*
X12700Y117031D01*
X123472Y117031D01*
X123508Y117039D01*
G37*
G36*
X691925Y281248D02*
X691925Y281248D01*
X691954Y281246D01*
X692015Y281268D01*
X692079Y281282D01*
X692103Y281299D01*
X692130Y281309D01*
X692177Y281355D01*
X692230Y281393D01*
X692244Y281419D01*
X692265Y281439D01*
X692277Y281478D01*
X692321Y281557D01*
X692328Y281647D01*
X692340Y281686D01*
X692340Y373761D01*
X692334Y373790D01*
X692336Y373819D01*
X692314Y373880D01*
X692300Y373944D01*
X692283Y373968D01*
X692273Y373995D01*
X692227Y374042D01*
X692189Y374095D01*
X692163Y374109D01*
X692143Y374130D01*
X692104Y374142D01*
X692025Y374186D01*
X691935Y374193D01*
X691896Y374205D01*
X374396Y374205D01*
X374367Y374199D01*
X374338Y374201D01*
X374277Y374179D01*
X374213Y374165D01*
X374189Y374148D01*
X374162Y374138D01*
X374115Y374092D01*
X374062Y374054D01*
X374048Y374028D01*
X374027Y374008D01*
X374015Y373969D01*
X373971Y373890D01*
X373964Y373800D01*
X373952Y373761D01*
X373952Y281686D01*
X373958Y281657D01*
X373956Y281628D01*
X373978Y281567D01*
X373992Y281503D01*
X374009Y281479D01*
X374019Y281452D01*
X374065Y281405D01*
X374103Y281352D01*
X374129Y281338D01*
X374149Y281317D01*
X374188Y281305D01*
X374267Y281261D01*
X374357Y281254D01*
X374396Y281242D01*
X691896Y281242D01*
X691925Y281248D01*
G37*
%LPC*%
G36*
X731724Y111442D02*
X731724Y111442D01*
X729678Y113488D01*
X729678Y166200D01*
X729669Y166243D01*
X729669Y166286D01*
X729652Y166318D01*
X729638Y166383D01*
X729614Y166415D01*
X729614Y220241D01*
X729649Y220295D01*
X729668Y220418D01*
X729678Y220452D01*
X729678Y241921D01*
X731724Y243968D01*
X736589Y243968D01*
X736734Y243999D01*
X736758Y244002D01*
X736824Y244029D01*
X739678Y244029D01*
X739744Y244002D01*
X739890Y243975D01*
X739913Y243968D01*
X743510Y243968D01*
X743655Y243999D01*
X743680Y244002D01*
X743746Y244029D01*
X746599Y244029D01*
X746665Y244002D01*
X746811Y243975D01*
X746835Y243968D01*
X750432Y243968D01*
X750577Y243999D01*
X750601Y244002D01*
X750667Y244029D01*
X753521Y244029D01*
X753587Y244002D01*
X753733Y243975D01*
X753756Y243968D01*
X757353Y243968D01*
X757498Y243999D01*
X757523Y244002D01*
X757589Y244029D01*
X760442Y244029D01*
X760508Y244002D01*
X760654Y243975D01*
X760678Y243968D01*
X763183Y243968D01*
X763218Y243975D01*
X763255Y243974D01*
X763309Y243995D01*
X763366Y244007D01*
X763395Y244029D01*
X763429Y244043D01*
X763454Y244073D01*
X763516Y244119D01*
X763565Y244206D01*
X765231Y245872D01*
X767378Y246762D01*
X769703Y246762D01*
X771863Y245867D01*
X771906Y245859D01*
X771946Y245842D01*
X771982Y245845D01*
X772019Y245838D01*
X772022Y245838D01*
X772024Y245838D01*
X772047Y245833D01*
X772168Y245863D01*
X772203Y245867D01*
X774363Y246762D01*
X776688Y246762D01*
X778848Y245867D01*
X778891Y245859D01*
X778931Y245842D01*
X778967Y245845D01*
X779004Y245838D01*
X779007Y245838D01*
X779009Y245838D01*
X779032Y245833D01*
X779153Y245863D01*
X779188Y245867D01*
X781348Y246762D01*
X783673Y246762D01*
X785833Y245867D01*
X785876Y245859D01*
X785916Y245842D01*
X785952Y245845D01*
X785989Y245838D01*
X785992Y245838D01*
X785994Y245838D01*
X786017Y245833D01*
X786138Y245863D01*
X786173Y245867D01*
X788333Y246762D01*
X790658Y246762D01*
X792818Y245867D01*
X792861Y245859D01*
X792901Y245842D01*
X792937Y245845D01*
X792974Y245838D01*
X792977Y245838D01*
X792979Y245838D01*
X793002Y245833D01*
X793123Y245863D01*
X793158Y245867D01*
X795318Y246762D01*
X797643Y246762D01*
X799803Y245867D01*
X799846Y245859D01*
X799886Y245842D01*
X799922Y245845D01*
X799959Y245838D01*
X799962Y245838D01*
X799964Y245838D01*
X799987Y245833D01*
X800108Y245863D01*
X800143Y245867D01*
X802303Y246762D01*
X804628Y246762D01*
X806788Y245867D01*
X806831Y245859D01*
X806871Y245842D01*
X806907Y245845D01*
X806944Y245838D01*
X806947Y245838D01*
X806949Y245838D01*
X806972Y245833D01*
X807093Y245863D01*
X807128Y245867D01*
X809288Y246762D01*
X811613Y246762D01*
X813773Y245867D01*
X813816Y245859D01*
X813856Y245842D01*
X813892Y245845D01*
X813929Y245838D01*
X813932Y245838D01*
X813934Y245838D01*
X813957Y245833D01*
X814078Y245863D01*
X814113Y245867D01*
X816273Y246762D01*
X818598Y246762D01*
X820758Y245867D01*
X820801Y245859D01*
X820841Y245842D01*
X820877Y245845D01*
X820914Y245838D01*
X820917Y245838D01*
X820919Y245838D01*
X820942Y245833D01*
X821063Y245863D01*
X821098Y245867D01*
X823258Y246762D01*
X825583Y246762D01*
X827743Y245867D01*
X827786Y245859D01*
X827826Y245842D01*
X827862Y245845D01*
X827899Y245838D01*
X827902Y245838D01*
X827904Y245838D01*
X827927Y245833D01*
X828048Y245863D01*
X828083Y245867D01*
X830243Y246762D01*
X832568Y246762D01*
X834728Y245867D01*
X834771Y245859D01*
X834811Y245842D01*
X834847Y245845D01*
X834884Y245838D01*
X834887Y245838D01*
X834889Y245838D01*
X834912Y245833D01*
X835033Y245863D01*
X835068Y245867D01*
X837228Y246762D01*
X839553Y246762D01*
X841713Y245867D01*
X841756Y245859D01*
X841796Y245842D01*
X841832Y245845D01*
X841869Y245838D01*
X841872Y245838D01*
X841874Y245838D01*
X841897Y245833D01*
X842018Y245863D01*
X842053Y245867D01*
X844213Y246762D01*
X846538Y246762D01*
X848698Y245867D01*
X848741Y245859D01*
X848781Y245842D01*
X848817Y245845D01*
X848854Y245838D01*
X848857Y245838D01*
X848859Y245838D01*
X848882Y245833D01*
X849003Y245863D01*
X849038Y245867D01*
X851198Y246762D01*
X853523Y246762D01*
X855670Y245872D01*
X857314Y244229D01*
X858203Y242081D01*
X858203Y241300D01*
X858209Y241271D01*
X858207Y241242D01*
X858229Y241181D01*
X858243Y241117D01*
X858260Y241093D01*
X858270Y241066D01*
X858316Y241019D01*
X858354Y240966D01*
X858380Y240952D01*
X858400Y240931D01*
X858439Y240919D01*
X858518Y240875D01*
X858608Y240868D01*
X858647Y240856D01*
X889494Y240856D01*
X891541Y238810D01*
X891541Y219089D01*
X891290Y218838D01*
X891266Y218801D01*
X891235Y218770D01*
X891224Y218736D01*
X891188Y218680D01*
X891170Y218558D01*
X891160Y218524D01*
X891160Y167937D01*
X891169Y167895D01*
X891168Y167851D01*
X891185Y167819D01*
X891199Y167754D01*
X891273Y167655D01*
X891290Y167623D01*
X891350Y167563D01*
X891350Y113488D01*
X889304Y111442D01*
X731724Y111442D01*
G37*
%LPD*%
%LPC*%
G36*
X767378Y250126D02*
X767378Y250126D01*
X765231Y251015D01*
X763587Y252659D01*
X763487Y252900D01*
X763467Y252930D01*
X763454Y252964D01*
X763414Y253006D01*
X763381Y253054D01*
X763350Y253073D01*
X763324Y253099D01*
X763287Y253110D01*
X763220Y253150D01*
X763115Y253162D01*
X763077Y253174D01*
X731915Y253174D01*
X729868Y255220D01*
X729868Y328408D01*
X731915Y330455D01*
X766596Y330455D01*
X766632Y330462D01*
X766669Y330461D01*
X766723Y330482D01*
X766779Y330494D01*
X766809Y330516D01*
X766843Y330529D01*
X766868Y330560D01*
X766930Y330606D01*
X766981Y330698D01*
X767006Y330729D01*
X767080Y330906D01*
X768723Y332550D01*
X770871Y333439D01*
X773195Y333439D01*
X775356Y332544D01*
X775399Y332537D01*
X775439Y332519D01*
X775475Y332523D01*
X775540Y332511D01*
X775660Y332541D01*
X775695Y332544D01*
X777856Y333439D01*
X780180Y333439D01*
X782328Y332550D01*
X783971Y330906D01*
X784045Y330729D01*
X784066Y330699D01*
X784078Y330664D01*
X784118Y330622D01*
X784151Y330575D01*
X784183Y330556D01*
X784208Y330530D01*
X784245Y330518D01*
X784312Y330478D01*
X784417Y330466D01*
X784455Y330455D01*
X796030Y330455D01*
X796073Y330464D01*
X796117Y330463D01*
X796149Y330480D01*
X796214Y330494D01*
X796313Y330568D01*
X796344Y330585D01*
X797036Y331276D01*
X801442Y331276D01*
X801640Y331079D01*
X801664Y331063D01*
X801683Y331040D01*
X801742Y331012D01*
X801797Y330977D01*
X801826Y330973D01*
X801853Y330960D01*
X801918Y330959D01*
X801982Y330950D01*
X802011Y330958D01*
X802040Y330957D01*
X802075Y330976D01*
X802162Y331001D01*
X802232Y331060D01*
X802267Y331079D01*
X802465Y331276D01*
X806871Y331276D01*
X807074Y331073D01*
X807099Y331057D01*
X807118Y331035D01*
X807177Y331007D01*
X807231Y330972D01*
X807260Y330967D01*
X807287Y330955D01*
X807352Y330954D01*
X807417Y330944D01*
X807445Y330952D01*
X807474Y330952D01*
X807510Y330971D01*
X807597Y330996D01*
X807666Y331054D01*
X807702Y331073D01*
X807894Y331265D01*
X812300Y331265D01*
X812492Y331073D01*
X812517Y331057D01*
X812536Y331035D01*
X812595Y331007D01*
X812650Y330972D01*
X812679Y330967D01*
X812705Y330955D01*
X812770Y330954D01*
X812835Y330944D01*
X812863Y330952D01*
X812893Y330952D01*
X812928Y330971D01*
X813015Y330996D01*
X813084Y331054D01*
X813120Y331073D01*
X813323Y331276D01*
X817729Y331276D01*
X817927Y331079D01*
X817951Y331063D01*
X817970Y331040D01*
X818029Y331012D01*
X818084Y330977D01*
X818113Y330973D01*
X818140Y330960D01*
X818205Y330959D01*
X818269Y330950D01*
X818298Y330958D01*
X818327Y330957D01*
X818362Y330976D01*
X818450Y331001D01*
X818519Y331060D01*
X818554Y331079D01*
X818752Y331276D01*
X823158Y331276D01*
X823356Y331079D01*
X823380Y331063D01*
X823399Y331040D01*
X823458Y331012D01*
X823513Y330977D01*
X823542Y330973D01*
X823569Y330960D01*
X823634Y330959D01*
X823698Y330950D01*
X823727Y330958D01*
X823756Y330957D01*
X823791Y330976D01*
X823879Y331001D01*
X823948Y331060D01*
X823983Y331079D01*
X824181Y331276D01*
X828587Y331276D01*
X828785Y331079D01*
X828809Y331063D01*
X828828Y331040D01*
X828887Y331012D01*
X828942Y330977D01*
X828971Y330973D01*
X828998Y330960D01*
X829063Y330959D01*
X829127Y330950D01*
X829156Y330958D01*
X829185Y330957D01*
X829220Y330976D01*
X829307Y331001D01*
X829377Y331060D01*
X829412Y331079D01*
X829610Y331276D01*
X834016Y331276D01*
X834214Y331079D01*
X834238Y331063D01*
X834257Y331040D01*
X834316Y331012D01*
X834371Y330977D01*
X834400Y330973D01*
X834427Y330960D01*
X834492Y330959D01*
X834556Y330950D01*
X834585Y330958D01*
X834614Y330957D01*
X834649Y330976D01*
X834737Y331001D01*
X834806Y331060D01*
X834841Y331079D01*
X835039Y331276D01*
X839445Y331276D01*
X839649Y331073D01*
X839673Y331057D01*
X839692Y331034D01*
X839751Y331006D01*
X839806Y330971D01*
X839835Y330967D01*
X839862Y330954D01*
X839927Y330953D01*
X839991Y330944D01*
X840020Y330952D01*
X840049Y330951D01*
X840084Y330970D01*
X840171Y330995D01*
X840241Y331054D01*
X840276Y331073D01*
X840468Y331264D01*
X844874Y331264D01*
X845554Y330585D01*
X845590Y330561D01*
X845621Y330530D01*
X845655Y330519D01*
X845711Y330483D01*
X845833Y330465D01*
X845867Y330455D01*
X889050Y330455D01*
X891061Y328443D01*
X891186Y328363D01*
X891205Y328347D01*
X891484Y328232D01*
X893128Y326588D01*
X894017Y324441D01*
X894017Y322116D01*
X893122Y319956D01*
X893115Y319913D01*
X893097Y319873D01*
X893101Y319837D01*
X893089Y319772D01*
X893119Y319651D01*
X893122Y319616D01*
X894017Y317456D01*
X894017Y315131D01*
X893122Y312971D01*
X893115Y312928D01*
X893097Y312888D01*
X893101Y312852D01*
X893089Y312787D01*
X893119Y312666D01*
X893122Y312631D01*
X894017Y310471D01*
X894017Y308146D01*
X893239Y306268D01*
X893233Y306232D01*
X893217Y306199D01*
X893216Y306141D01*
X893206Y306084D01*
X893215Y306049D01*
X893214Y306012D01*
X893232Y305977D01*
X893251Y305902D01*
X893317Y305820D01*
X893335Y305785D01*
X893343Y305777D01*
X894271Y303536D01*
X894271Y301111D01*
X893343Y298870D01*
X893335Y298862D01*
X893316Y298832D01*
X893289Y298807D01*
X893265Y298754D01*
X893234Y298705D01*
X893229Y298669D01*
X893214Y298635D01*
X893218Y298596D01*
X893206Y298520D01*
X893235Y298418D01*
X893239Y298379D01*
X894017Y296501D01*
X894017Y294176D01*
X893122Y292016D01*
X893115Y291973D01*
X893097Y291933D01*
X893101Y291897D01*
X893089Y291832D01*
X893119Y291711D01*
X893122Y291676D01*
X894017Y289516D01*
X894017Y287191D01*
X893122Y285031D01*
X893120Y285019D01*
X893119Y285016D01*
X893118Y285006D01*
X893115Y284988D01*
X893097Y284948D01*
X893101Y284912D01*
X893089Y284847D01*
X893119Y284726D01*
X893122Y284691D01*
X894017Y282531D01*
X894017Y280206D01*
X893122Y278046D01*
X893115Y278003D01*
X893097Y277963D01*
X893101Y277927D01*
X893089Y277862D01*
X893119Y277741D01*
X893122Y277706D01*
X894017Y275546D01*
X894017Y273221D01*
X893122Y271061D01*
X893115Y271018D01*
X893097Y270978D01*
X893101Y270942D01*
X893089Y270877D01*
X893119Y270756D01*
X893122Y270721D01*
X894017Y268561D01*
X894017Y266236D01*
X893122Y264076D01*
X893115Y264033D01*
X893097Y263993D01*
X893101Y263957D01*
X893089Y263892D01*
X893119Y263771D01*
X893122Y263736D01*
X894017Y261576D01*
X894017Y259251D01*
X893128Y257104D01*
X891484Y255460D01*
X891314Y255390D01*
X891191Y255305D01*
X891170Y255293D01*
X889050Y253174D01*
X857824Y253174D01*
X857788Y253166D01*
X857751Y253168D01*
X857697Y253146D01*
X857640Y253134D01*
X857611Y253112D01*
X857577Y253099D01*
X857552Y253069D01*
X857490Y253023D01*
X857439Y252930D01*
X857414Y252900D01*
X857314Y252659D01*
X855670Y251015D01*
X853523Y250126D01*
X851198Y250126D01*
X849038Y251021D01*
X848995Y251028D01*
X848955Y251046D01*
X848919Y251042D01*
X848853Y251054D01*
X848733Y251024D01*
X848698Y251021D01*
X846538Y250126D01*
X844213Y250126D01*
X842053Y251021D01*
X842010Y251028D01*
X841970Y251046D01*
X841934Y251042D01*
X841868Y251054D01*
X841748Y251024D01*
X841713Y251021D01*
X839553Y250126D01*
X837228Y250126D01*
X835068Y251021D01*
X835025Y251028D01*
X834985Y251046D01*
X834949Y251042D01*
X834883Y251054D01*
X834763Y251024D01*
X834728Y251021D01*
X832568Y250126D01*
X830243Y250126D01*
X828083Y251021D01*
X828040Y251028D01*
X828000Y251046D01*
X827964Y251042D01*
X827898Y251054D01*
X827778Y251024D01*
X827743Y251021D01*
X825583Y250126D01*
X823258Y250126D01*
X821098Y251021D01*
X821055Y251028D01*
X821015Y251046D01*
X820979Y251042D01*
X820913Y251054D01*
X820793Y251024D01*
X820758Y251021D01*
X818598Y250126D01*
X816273Y250126D01*
X814113Y251021D01*
X814070Y251028D01*
X814030Y251046D01*
X813994Y251042D01*
X813929Y251054D01*
X813808Y251024D01*
X813773Y251021D01*
X811613Y250126D01*
X809288Y250126D01*
X807128Y251021D01*
X807085Y251028D01*
X807045Y251046D01*
X807009Y251042D01*
X806944Y251054D01*
X806823Y251024D01*
X806788Y251021D01*
X804628Y250126D01*
X802303Y250126D01*
X800143Y251021D01*
X800100Y251028D01*
X800060Y251046D01*
X800024Y251042D01*
X799959Y251054D01*
X799838Y251024D01*
X799803Y251021D01*
X797643Y250126D01*
X795318Y250126D01*
X793158Y251021D01*
X793115Y251028D01*
X793075Y251046D01*
X793039Y251042D01*
X792973Y251054D01*
X792853Y251024D01*
X792818Y251021D01*
X790658Y250126D01*
X788333Y250126D01*
X786173Y251021D01*
X786130Y251029D01*
X786090Y251046D01*
X786054Y251042D01*
X785989Y251054D01*
X785868Y251024D01*
X785833Y251021D01*
X783673Y250126D01*
X781348Y250126D01*
X779188Y251021D01*
X779145Y251029D01*
X779105Y251046D01*
X779069Y251042D01*
X779004Y251054D01*
X778883Y251024D01*
X778848Y251021D01*
X776688Y250126D01*
X774363Y250126D01*
X772203Y251021D01*
X772160Y251028D01*
X772120Y251046D01*
X772084Y251042D01*
X772019Y251054D01*
X771898Y251024D01*
X771863Y251021D01*
X769703Y250126D01*
X767378Y250126D01*
G37*
%LPD*%
G36*
X887886Y114497D02*
X887886Y114497D01*
X887915Y114495D01*
X887976Y114517D01*
X888040Y114531D01*
X888064Y114548D01*
X888091Y114558D01*
X888138Y114604D01*
X888191Y114642D01*
X888205Y114668D01*
X888226Y114688D01*
X888238Y114727D01*
X888282Y114806D01*
X888289Y114896D01*
X888301Y114935D01*
X888301Y166116D01*
X888295Y166145D01*
X888297Y166174D01*
X888275Y166235D01*
X888261Y166299D01*
X888244Y166323D01*
X888234Y166350D01*
X888188Y166397D01*
X888150Y166450D01*
X888124Y166464D01*
X888104Y166485D01*
X888065Y166497D01*
X887986Y166541D01*
X887896Y166548D01*
X887857Y166560D01*
X875687Y166560D01*
X875645Y166551D01*
X875601Y166551D01*
X875569Y166534D01*
X875504Y166520D01*
X875405Y166447D01*
X875374Y166430D01*
X873132Y164188D01*
X839395Y164188D01*
X837860Y165723D01*
X837153Y166430D01*
X837117Y166454D01*
X837086Y166485D01*
X837052Y166495D01*
X836996Y166531D01*
X836873Y166550D01*
X836840Y166560D01*
X793722Y166560D01*
X793708Y166557D01*
X793693Y166559D01*
X793617Y166537D01*
X793539Y166520D01*
X793528Y166511D01*
X793513Y166507D01*
X793452Y166456D01*
X793389Y166409D01*
X793382Y166396D01*
X793370Y166386D01*
X793336Y166314D01*
X793298Y166245D01*
X793297Y166230D01*
X793290Y166217D01*
X793289Y166137D01*
X793282Y166058D01*
X793287Y166044D01*
X793287Y166030D01*
X793304Y165998D01*
X793346Y165882D01*
X793392Y165834D01*
X793409Y165802D01*
X795209Y164002D01*
X795209Y159848D01*
X792271Y156910D01*
X788079Y156910D01*
X788028Y156943D01*
X787906Y156961D01*
X787872Y156971D01*
X785594Y156971D01*
X785552Y156962D01*
X785508Y156963D01*
X785476Y156946D01*
X785411Y156932D01*
X785382Y156910D01*
X781157Y156910D01*
X781107Y156943D01*
X780984Y156961D01*
X780951Y156971D01*
X778673Y156971D01*
X778630Y156962D01*
X778586Y156963D01*
X778554Y156946D01*
X778490Y156932D01*
X778461Y156910D01*
X774236Y156910D01*
X774185Y156943D01*
X774063Y156961D01*
X774029Y156971D01*
X771751Y156971D01*
X771709Y156962D01*
X771665Y156963D01*
X771633Y156946D01*
X771568Y156932D01*
X771539Y156910D01*
X767314Y156910D01*
X767264Y156943D01*
X767141Y156961D01*
X767108Y156971D01*
X764830Y156971D01*
X764787Y156962D01*
X764743Y156963D01*
X764711Y156946D01*
X764647Y156932D01*
X764618Y156910D01*
X760431Y156910D01*
X757493Y159848D01*
X757493Y164002D01*
X759293Y165802D01*
X759301Y165815D01*
X759313Y165823D01*
X759352Y165893D01*
X759395Y165960D01*
X759397Y165974D01*
X759404Y165987D01*
X759411Y166066D01*
X759422Y166145D01*
X759418Y166159D01*
X759420Y166174D01*
X759393Y166249D01*
X759371Y166325D01*
X759361Y166336D01*
X759356Y166350D01*
X759301Y166407D01*
X759250Y166468D01*
X759236Y166474D01*
X759226Y166485D01*
X759192Y166495D01*
X759080Y166548D01*
X759014Y166549D01*
X758980Y166560D01*
X733171Y166560D01*
X733142Y166554D01*
X733113Y166556D01*
X733052Y166534D01*
X732988Y166520D01*
X732964Y166503D01*
X732937Y166493D01*
X732890Y166447D01*
X732837Y166409D01*
X732823Y166383D01*
X732802Y166363D01*
X732790Y166324D01*
X732746Y166245D01*
X732739Y166155D01*
X732727Y166116D01*
X732727Y114935D01*
X732733Y114906D01*
X732731Y114877D01*
X732753Y114816D01*
X732767Y114752D01*
X732784Y114728D01*
X732794Y114701D01*
X732840Y114654D01*
X732878Y114601D01*
X732904Y114587D01*
X732924Y114566D01*
X732963Y114554D01*
X733042Y114510D01*
X733132Y114503D01*
X733171Y114491D01*
X887857Y114491D01*
X887886Y114497D01*
G37*
G36*
X485204Y119325D02*
X485204Y119325D01*
X485240Y119323D01*
X485294Y119345D01*
X485351Y119357D01*
X485381Y119379D01*
X485415Y119392D01*
X485439Y119422D01*
X485502Y119468D01*
X485553Y119561D01*
X485578Y119591D01*
X486283Y121293D01*
X487926Y122936D01*
X488866Y123325D01*
X488896Y123346D01*
X488930Y123358D01*
X488972Y123399D01*
X489020Y123432D01*
X489039Y123463D01*
X489065Y123489D01*
X489076Y123526D01*
X489116Y123593D01*
X489120Y123625D01*
X489121Y123626D01*
X489122Y123644D01*
X489128Y123697D01*
X489140Y123735D01*
X489140Y142315D01*
X489131Y142358D01*
X489131Y142402D01*
X489114Y142434D01*
X489100Y142498D01*
X489027Y142598D01*
X489010Y142629D01*
X486103Y145536D01*
X484497Y149413D01*
X484497Y153609D01*
X486103Y157486D01*
X486164Y157547D01*
X486180Y157572D01*
X486202Y157591D01*
X486230Y157650D01*
X486266Y157705D01*
X486270Y157734D01*
X486282Y157760D01*
X486284Y157825D01*
X486293Y157890D01*
X486285Y157918D01*
X486286Y157947D01*
X486267Y157983D01*
X486242Y158070D01*
X486183Y158139D01*
X486164Y158175D01*
X486103Y158236D01*
X484497Y162113D01*
X484497Y164211D01*
X484491Y164240D01*
X484493Y164269D01*
X484471Y164330D01*
X484458Y164394D01*
X484440Y164418D01*
X484430Y164445D01*
X484385Y164492D01*
X484346Y164545D01*
X484321Y164559D01*
X484300Y164580D01*
X484261Y164592D01*
X484182Y164636D01*
X484092Y164643D01*
X484054Y164655D01*
X374396Y164655D01*
X374367Y164649D01*
X374338Y164651D01*
X374277Y164629D01*
X374213Y164615D01*
X374189Y164598D01*
X374162Y164588D01*
X374115Y164542D01*
X374062Y164504D01*
X374048Y164478D01*
X374027Y164458D01*
X374015Y164419D01*
X373971Y164340D01*
X373964Y164250D01*
X373952Y164211D01*
X373952Y119761D01*
X373958Y119732D01*
X373956Y119703D01*
X373978Y119642D01*
X373992Y119578D01*
X374009Y119554D01*
X374019Y119527D01*
X374065Y119480D01*
X374103Y119427D01*
X374129Y119413D01*
X374149Y119392D01*
X374188Y119380D01*
X374267Y119336D01*
X374357Y119329D01*
X374396Y119317D01*
X485168Y119317D01*
X485204Y119325D01*
G37*
G36*
X691925Y119323D02*
X691925Y119323D01*
X691954Y119321D01*
X692015Y119343D01*
X692079Y119357D01*
X692103Y119374D01*
X692130Y119384D01*
X692177Y119430D01*
X692230Y119468D01*
X692244Y119494D01*
X692265Y119514D01*
X692277Y119553D01*
X692321Y119632D01*
X692328Y119722D01*
X692340Y119761D01*
X692340Y164211D01*
X692334Y164240D01*
X692336Y164269D01*
X692314Y164330D01*
X692300Y164394D01*
X692283Y164418D01*
X692273Y164445D01*
X692227Y164492D01*
X692189Y164545D01*
X692163Y164559D01*
X692143Y164580D01*
X692104Y164592D01*
X692025Y164636D01*
X691935Y164643D01*
X691896Y164655D01*
X582642Y164655D01*
X582599Y164646D01*
X582555Y164646D01*
X582523Y164629D01*
X582459Y164615D01*
X582359Y164542D01*
X582328Y164525D01*
X579251Y161447D01*
X579227Y161411D01*
X579196Y161380D01*
X579185Y161345D01*
X579149Y161290D01*
X579131Y161167D01*
X579121Y161134D01*
X579121Y122365D01*
X579130Y122322D01*
X579129Y122278D01*
X579146Y122246D01*
X579160Y122182D01*
X579234Y122082D01*
X579251Y122051D01*
X580009Y121293D01*
X580714Y119591D01*
X580735Y119561D01*
X580747Y119527D01*
X580788Y119485D01*
X580821Y119437D01*
X580852Y119418D01*
X580877Y119392D01*
X580915Y119381D01*
X580981Y119341D01*
X581086Y119329D01*
X581124Y119317D01*
X691896Y119317D01*
X691925Y119323D01*
G37*
%LPC*%
G36*
X594548Y207637D02*
X594548Y207637D01*
X591853Y208753D01*
X591707Y208780D01*
X591683Y208787D01*
X582683Y208787D01*
X580897Y210573D01*
X580897Y262269D01*
X580894Y262284D01*
X580896Y262298D01*
X580874Y262375D01*
X580858Y262452D01*
X580849Y262464D01*
X580845Y262478D01*
X580793Y262539D01*
X580746Y262603D01*
X580733Y262610D01*
X580724Y262621D01*
X580652Y262655D01*
X580582Y262694D01*
X580568Y262695D01*
X580554Y262701D01*
X580475Y262703D01*
X580396Y262709D01*
X580382Y262704D01*
X580367Y262704D01*
X580336Y262688D01*
X580219Y262646D01*
X580172Y262600D01*
X580140Y262583D01*
X577349Y259792D01*
X572943Y259792D01*
X569827Y262908D01*
X569827Y267314D01*
X572943Y270430D01*
X577349Y270430D01*
X580465Y267314D01*
X580465Y264538D01*
X580468Y264523D01*
X580466Y264509D01*
X580488Y264432D01*
X580504Y264354D01*
X580513Y264343D01*
X580517Y264328D01*
X580569Y264268D01*
X580616Y264204D01*
X580629Y264197D01*
X580638Y264186D01*
X580710Y264151D01*
X580780Y264113D01*
X580794Y264112D01*
X580808Y264105D01*
X580887Y264104D01*
X580966Y264098D01*
X580980Y264103D01*
X580995Y264102D01*
X581026Y264119D01*
X581143Y264161D01*
X581190Y264207D01*
X581222Y264224D01*
X582683Y265685D01*
X610609Y265685D01*
X612395Y263899D01*
X612395Y254038D01*
X612402Y254002D01*
X612401Y253965D01*
X612422Y253911D01*
X612434Y253854D01*
X612456Y253825D01*
X612469Y253791D01*
X612500Y253766D01*
X612546Y253704D01*
X612638Y253653D01*
X612669Y253628D01*
X614139Y253019D01*
X614285Y252992D01*
X614309Y252985D01*
X617083Y252985D01*
X617228Y253016D01*
X617253Y253019D01*
X619948Y254135D01*
X624144Y254135D01*
X628021Y252529D01*
X630989Y249561D01*
X632595Y245684D01*
X632595Y241488D01*
X631479Y238793D01*
X631452Y238647D01*
X631445Y238623D01*
X631445Y235849D01*
X631476Y235704D01*
X631479Y235679D01*
X632595Y232984D01*
X632595Y228788D01*
X631479Y226093D01*
X631452Y225947D01*
X631445Y225923D01*
X631445Y223149D01*
X631451Y223122D01*
X631449Y223097D01*
X631467Y223044D01*
X631476Y223004D01*
X631479Y222979D01*
X632595Y220284D01*
X632595Y216088D01*
X630989Y212211D01*
X628021Y209243D01*
X624144Y207637D01*
X619948Y207637D01*
X617253Y208753D01*
X617107Y208780D01*
X617083Y208787D01*
X614309Y208787D01*
X614164Y208756D01*
X614139Y208753D01*
X611444Y207637D01*
X607248Y207637D01*
X604553Y208753D01*
X604407Y208780D01*
X604383Y208787D01*
X601609Y208787D01*
X601464Y208756D01*
X601439Y208753D01*
X598744Y207637D01*
X594548Y207637D01*
G37*
%LPD*%
%LPC*%
G36*
X442148Y207637D02*
X442148Y207637D01*
X438271Y209243D01*
X435303Y212211D01*
X433697Y216088D01*
X433697Y220284D01*
X434813Y222979D01*
X434819Y223010D01*
X434828Y223026D01*
X434833Y223087D01*
X434840Y223125D01*
X434847Y223149D01*
X434847Y225923D01*
X434816Y226068D01*
X434813Y226093D01*
X433697Y228788D01*
X433697Y232984D01*
X434813Y235679D01*
X434840Y235825D01*
X434847Y235849D01*
X434847Y238623D01*
X434816Y238768D01*
X434813Y238793D01*
X433697Y241488D01*
X433697Y245684D01*
X435303Y249561D01*
X438271Y252529D01*
X442148Y254135D01*
X446344Y254135D01*
X449039Y253019D01*
X449185Y252992D01*
X449209Y252985D01*
X451983Y252985D01*
X452128Y253016D01*
X452153Y253019D01*
X453623Y253628D01*
X453653Y253648D01*
X453688Y253661D01*
X453730Y253701D01*
X453777Y253734D01*
X453796Y253765D01*
X453822Y253791D01*
X453834Y253828D01*
X453874Y253895D01*
X453886Y254000D01*
X453897Y254038D01*
X453897Y263899D01*
X455683Y265685D01*
X483609Y265685D01*
X485395Y263899D01*
X485395Y210573D01*
X483609Y208787D01*
X474609Y208787D01*
X474464Y208756D01*
X474439Y208753D01*
X471744Y207637D01*
X467548Y207637D01*
X464853Y208753D01*
X464707Y208780D01*
X464683Y208787D01*
X461909Y208787D01*
X461764Y208756D01*
X461739Y208753D01*
X459044Y207637D01*
X454848Y207637D01*
X452153Y208753D01*
X452007Y208780D01*
X451983Y208787D01*
X449209Y208787D01*
X449064Y208756D01*
X449039Y208753D01*
X446344Y207637D01*
X442148Y207637D01*
G37*
%LPD*%
%LPC*%
G36*
X216036Y168605D02*
X216036Y168605D01*
X214250Y170391D01*
X214250Y190917D01*
X216036Y192703D01*
X250562Y192703D01*
X252348Y190917D01*
X252348Y190496D01*
X252354Y190468D01*
X252352Y190439D01*
X252374Y190377D01*
X252387Y190313D01*
X252405Y190290D01*
X252415Y190262D01*
X252460Y190215D01*
X252499Y190163D01*
X252524Y190149D01*
X252545Y190128D01*
X252584Y190116D01*
X252663Y190072D01*
X252753Y190064D01*
X252791Y190053D01*
X275002Y190053D01*
X275045Y190062D01*
X275089Y190061D01*
X275121Y190078D01*
X275185Y190092D01*
X275285Y190166D01*
X275316Y190183D01*
X280202Y195069D01*
X280210Y195081D01*
X280222Y195090D01*
X280260Y195159D01*
X280303Y195226D01*
X280306Y195241D01*
X280313Y195254D01*
X280319Y195333D01*
X280331Y195412D01*
X280327Y195426D01*
X280328Y195440D01*
X280301Y195515D01*
X280280Y195592D01*
X280270Y195603D01*
X280265Y195617D01*
X280210Y195674D01*
X280158Y195735D01*
X280145Y195741D01*
X280135Y195751D01*
X280101Y195762D01*
X279989Y195815D01*
X279923Y195816D01*
X279888Y195826D01*
X277302Y195826D01*
X273425Y197432D01*
X270457Y200400D01*
X268851Y204277D01*
X268851Y208473D01*
X270457Y212350D01*
X273425Y215318D01*
X277302Y216924D01*
X281498Y216924D01*
X285375Y215318D01*
X288343Y212350D01*
X289949Y208473D01*
X289949Y205887D01*
X289952Y205872D01*
X289950Y205858D01*
X289972Y205781D01*
X289988Y205704D01*
X289997Y205692D01*
X290001Y205678D01*
X290053Y205617D01*
X290100Y205553D01*
X290113Y205546D01*
X290122Y205535D01*
X290194Y205501D01*
X290264Y205462D01*
X290278Y205461D01*
X290292Y205455D01*
X290371Y205453D01*
X290450Y205447D01*
X290464Y205452D01*
X290479Y205452D01*
X290510Y205468D01*
X290627Y205510D01*
X290674Y205556D01*
X290706Y205573D01*
X294645Y209512D01*
X294725Y209636D01*
X294741Y209656D01*
X295857Y212350D01*
X298825Y215318D01*
X302702Y216924D01*
X306898Y216924D01*
X310775Y215318D01*
X313743Y212350D01*
X315349Y208473D01*
X315349Y204277D01*
X313743Y200400D01*
X310775Y197432D01*
X308081Y196316D01*
X307959Y196231D01*
X307937Y196220D01*
X284403Y172686D01*
X280949Y171255D01*
X252791Y171255D01*
X252763Y171249D01*
X252734Y171251D01*
X252672Y171229D01*
X252608Y171216D01*
X252585Y171198D01*
X252557Y171188D01*
X252510Y171143D01*
X252458Y171104D01*
X252444Y171079D01*
X252423Y171058D01*
X252411Y171019D01*
X252367Y170940D01*
X252359Y170850D01*
X252348Y170812D01*
X252348Y170391D01*
X250562Y168605D01*
X216036Y168605D01*
G37*
%LPD*%
G36*
X771922Y167456D02*
X771922Y167456D01*
X771951Y167454D01*
X772012Y167476D01*
X772076Y167490D01*
X772100Y167507D01*
X772127Y167517D01*
X772174Y167563D01*
X772227Y167601D01*
X772241Y167627D01*
X772262Y167647D01*
X772274Y167686D01*
X772318Y167765D01*
X772325Y167855D01*
X772337Y167894D01*
X772337Y174859D01*
X772858Y175380D01*
X778597Y175380D01*
X778639Y175389D01*
X778683Y175389D01*
X778715Y175406D01*
X778780Y175420D01*
X778879Y175493D01*
X778910Y175510D01*
X782316Y178916D01*
X782340Y178953D01*
X782371Y178983D01*
X782382Y179018D01*
X782418Y179074D01*
X782436Y179196D01*
X782446Y179230D01*
X782446Y218758D01*
X782440Y218786D01*
X782442Y218815D01*
X782420Y218877D01*
X782407Y218941D01*
X782389Y218964D01*
X782379Y218992D01*
X782334Y219039D01*
X782295Y219091D01*
X782270Y219105D01*
X782249Y219126D01*
X782210Y219138D01*
X782131Y219182D01*
X782041Y219190D01*
X782003Y219201D01*
X733108Y219201D01*
X733079Y219195D01*
X733050Y219197D01*
X732988Y219175D01*
X732924Y219162D01*
X732901Y219144D01*
X732873Y219134D01*
X732826Y219089D01*
X732774Y219050D01*
X732760Y219025D01*
X732739Y219004D01*
X732727Y218965D01*
X732683Y218886D01*
X732675Y218796D01*
X732664Y218758D01*
X732664Y167894D01*
X732670Y167865D01*
X732668Y167836D01*
X732690Y167775D01*
X732703Y167711D01*
X732721Y167687D01*
X732731Y167660D01*
X732776Y167613D01*
X732815Y167560D01*
X732841Y167546D01*
X732861Y167525D01*
X732900Y167513D01*
X732979Y167469D01*
X733069Y167462D01*
X733108Y167450D01*
X771893Y167450D01*
X771922Y167456D01*
G37*
G36*
X827970Y257878D02*
X827970Y257878D01*
X827999Y257878D01*
X828035Y257897D01*
X828122Y257922D01*
X828191Y257980D01*
X828227Y257999D01*
X829710Y259482D01*
X829726Y259507D01*
X829748Y259526D01*
X829776Y259585D01*
X829811Y259640D01*
X829816Y259669D01*
X829828Y259695D01*
X829829Y259761D01*
X829839Y259825D01*
X829831Y259853D01*
X829831Y259883D01*
X829812Y259918D01*
X829787Y260005D01*
X829729Y260074D01*
X829710Y260110D01*
X829311Y260509D01*
X829274Y260532D01*
X829244Y260564D01*
X829209Y260574D01*
X829153Y260610D01*
X829031Y260629D01*
X828997Y260639D01*
X826695Y260639D01*
X826174Y261160D01*
X826174Y267897D01*
X826695Y268418D01*
X829733Y268418D01*
X830254Y267897D01*
X830254Y264559D01*
X830263Y264517D01*
X830262Y264473D01*
X830279Y264441D01*
X830293Y264376D01*
X830367Y264277D01*
X830384Y264246D01*
X830417Y264213D01*
X830429Y264205D01*
X830438Y264193D01*
X830507Y264154D01*
X830574Y264111D01*
X830589Y264109D01*
X830602Y264102D01*
X830681Y264095D01*
X830759Y264084D01*
X830774Y264088D01*
X830788Y264086D01*
X830863Y264113D01*
X830939Y264135D01*
X830951Y264145D01*
X830965Y264150D01*
X831022Y264205D01*
X831082Y264256D01*
X831089Y264270D01*
X831099Y264280D01*
X831110Y264314D01*
X831163Y264425D01*
X831164Y264492D01*
X831174Y264526D01*
X831174Y267897D01*
X831750Y268473D01*
X831774Y268509D01*
X831805Y268540D01*
X831815Y268574D01*
X831851Y268630D01*
X831870Y268753D01*
X831880Y268786D01*
X831880Y269357D01*
X835552Y273029D01*
X840988Y273029D01*
X841031Y273038D01*
X841075Y273038D01*
X841107Y273055D01*
X841171Y273069D01*
X841271Y273142D01*
X841302Y273159D01*
X841583Y273441D01*
X841607Y273477D01*
X841638Y273508D01*
X841649Y273543D01*
X841685Y273598D01*
X841703Y273721D01*
X841713Y273754D01*
X841713Y285951D01*
X846194Y290432D01*
X846218Y290468D01*
X846249Y290499D01*
X846260Y290533D01*
X846296Y290589D01*
X846314Y290712D01*
X846324Y290745D01*
X846324Y292312D01*
X846315Y292354D01*
X846316Y292398D01*
X846299Y292430D01*
X846285Y292495D01*
X846211Y292594D01*
X846194Y292625D01*
X845197Y293622D01*
X844546Y294273D01*
X844546Y298784D01*
X845197Y299435D01*
X846194Y300432D01*
X846218Y300468D01*
X846249Y300499D01*
X846260Y300533D01*
X846296Y300589D01*
X846314Y300712D01*
X846324Y300745D01*
X846324Y303047D01*
X846845Y303568D01*
X850183Y303568D01*
X850226Y303577D01*
X850269Y303577D01*
X850301Y303594D01*
X850366Y303608D01*
X850465Y303681D01*
X850497Y303698D01*
X850530Y303731D01*
X850538Y303744D01*
X850550Y303752D01*
X850588Y303822D01*
X850631Y303888D01*
X850633Y303903D01*
X850641Y303916D01*
X850647Y303995D01*
X850659Y304074D01*
X850655Y304088D01*
X850656Y304103D01*
X850629Y304178D01*
X850608Y304254D01*
X850598Y304265D01*
X850593Y304279D01*
X850538Y304336D01*
X850486Y304397D01*
X850473Y304403D01*
X850463Y304414D01*
X850429Y304424D01*
X850317Y304477D01*
X850251Y304478D01*
X850216Y304489D01*
X846845Y304489D01*
X846324Y305010D01*
X846324Y308047D01*
X846845Y308568D01*
X853583Y308568D01*
X854158Y307993D01*
X854195Y307969D01*
X854225Y307938D01*
X854260Y307927D01*
X854316Y307891D01*
X854438Y307873D01*
X854472Y307863D01*
X856766Y307863D01*
X856781Y307866D01*
X856795Y307864D01*
X856872Y307886D01*
X856949Y307902D01*
X856961Y307911D01*
X856975Y307915D01*
X857036Y307967D01*
X857100Y308014D01*
X857107Y308027D01*
X857118Y308036D01*
X857152Y308108D01*
X857191Y308178D01*
X857192Y308192D01*
X857198Y308206D01*
X857200Y308285D01*
X857206Y308364D01*
X857201Y308378D01*
X857201Y308393D01*
X857185Y308424D01*
X857143Y308541D01*
X857097Y308588D01*
X857080Y308620D01*
X856496Y309204D01*
X855636Y310064D01*
X855599Y310088D01*
X855569Y310119D01*
X855534Y310130D01*
X855478Y310166D01*
X855356Y310184D01*
X855322Y310194D01*
X853798Y310194D01*
X853756Y310185D01*
X853712Y310186D01*
X853680Y310169D01*
X853615Y310155D01*
X853516Y310081D01*
X853484Y310064D01*
X852909Y309489D01*
X847519Y309489D01*
X846324Y310684D01*
X846324Y310804D01*
X846321Y310818D01*
X846323Y310833D01*
X846301Y310910D01*
X846285Y310987D01*
X846276Y310999D01*
X846272Y311013D01*
X846220Y311074D01*
X846173Y311138D01*
X846160Y311145D01*
X846151Y311156D01*
X846079Y311190D01*
X846009Y311229D01*
X845995Y311230D01*
X845981Y311236D01*
X845902Y311237D01*
X845823Y311244D01*
X845809Y311239D01*
X845794Y311239D01*
X845763Y311222D01*
X845646Y311181D01*
X845599Y311135D01*
X845567Y311118D01*
X845532Y311083D01*
X812737Y311083D01*
X809311Y314509D01*
X809274Y314532D01*
X809244Y314564D01*
X809209Y314574D01*
X809153Y314610D01*
X809031Y314629D01*
X808997Y314639D01*
X806695Y314639D01*
X806174Y315160D01*
X806174Y321897D01*
X806317Y322040D01*
X806322Y322047D01*
X806325Y322049D01*
X806328Y322055D01*
X806337Y322061D01*
X806376Y322131D01*
X806419Y322198D01*
X806421Y322212D01*
X806428Y322225D01*
X806435Y322304D01*
X806447Y322383D01*
X806442Y322397D01*
X806444Y322412D01*
X806417Y322487D01*
X806395Y322563D01*
X806386Y322574D01*
X806381Y322588D01*
X806325Y322646D01*
X806274Y322706D01*
X806261Y322712D01*
X806250Y322723D01*
X806216Y322733D01*
X806105Y322786D01*
X806038Y322787D01*
X806004Y322798D01*
X805309Y322798D01*
X805281Y322792D01*
X805252Y322794D01*
X805190Y322772D01*
X805126Y322758D01*
X805103Y322741D01*
X805075Y322731D01*
X805028Y322685D01*
X804976Y322647D01*
X804962Y322621D01*
X804941Y322601D01*
X804929Y322562D01*
X804885Y322483D01*
X804877Y322393D01*
X804866Y322354D01*
X804866Y321795D01*
X804875Y321752D01*
X804874Y321709D01*
X804891Y321677D01*
X804905Y321612D01*
X804979Y321513D01*
X804996Y321481D01*
X805254Y321223D01*
X805254Y315834D01*
X804059Y314639D01*
X802369Y314639D01*
X801174Y315834D01*
X801174Y321223D01*
X801432Y321481D01*
X801456Y321518D01*
X801487Y321549D01*
X801498Y321583D01*
X801534Y321639D01*
X801552Y321761D01*
X801562Y321795D01*
X801562Y324411D01*
X801553Y324454D01*
X801554Y324497D01*
X801537Y324529D01*
X801523Y324594D01*
X801508Y324614D01*
X801508Y326962D01*
X801502Y326990D01*
X801504Y327019D01*
X801482Y327081D01*
X801469Y327145D01*
X801451Y327168D01*
X801441Y327196D01*
X801396Y327243D01*
X801357Y327295D01*
X801331Y327309D01*
X801311Y327330D01*
X801272Y327342D01*
X801193Y327386D01*
X801103Y327394D01*
X801064Y327405D01*
X797115Y327405D01*
X797087Y327399D01*
X797058Y327401D01*
X796996Y327379D01*
X796932Y327366D01*
X796909Y327348D01*
X796881Y327338D01*
X796834Y327293D01*
X796782Y327254D01*
X796768Y327229D01*
X796747Y327208D01*
X796735Y327169D01*
X796691Y327090D01*
X796683Y327000D01*
X796672Y326962D01*
X796672Y326071D01*
X795394Y324793D01*
X795378Y324768D01*
X795355Y324749D01*
X795327Y324690D01*
X795292Y324635D01*
X795288Y324606D01*
X795275Y324580D01*
X795274Y324514D01*
X795265Y324450D01*
X795273Y324422D01*
X795272Y324392D01*
X795291Y324357D01*
X795316Y324270D01*
X795375Y324200D01*
X795394Y324165D01*
X797337Y322221D01*
X797337Y319604D01*
X795486Y317753D01*
X792869Y317753D01*
X792674Y317947D01*
X792662Y317955D01*
X792653Y317967D01*
X792583Y318006D01*
X792517Y318049D01*
X792502Y318051D01*
X792489Y318058D01*
X792410Y318065D01*
X792332Y318076D01*
X792317Y318072D01*
X792303Y318073D01*
X792228Y318047D01*
X792151Y318025D01*
X792140Y318015D01*
X792126Y318010D01*
X792069Y317955D01*
X792008Y317904D01*
X792002Y317890D01*
X791992Y317880D01*
X791981Y317846D01*
X791928Y317734D01*
X791927Y317668D01*
X791917Y317633D01*
X791917Y317544D01*
X791396Y317023D01*
X783658Y317023D01*
X783137Y317544D01*
X783137Y324281D01*
X783309Y324453D01*
X783325Y324478D01*
X783348Y324497D01*
X783375Y324556D01*
X783411Y324611D01*
X783415Y324640D01*
X783428Y324666D01*
X783429Y324731D01*
X783438Y324796D01*
X783430Y324824D01*
X783431Y324853D01*
X783412Y324889D01*
X783387Y324976D01*
X783328Y325045D01*
X783309Y325081D01*
X782319Y326071D01*
X782319Y326962D01*
X782313Y326990D01*
X782315Y327019D01*
X782293Y327081D01*
X782280Y327145D01*
X782262Y327168D01*
X782252Y327196D01*
X782207Y327243D01*
X782168Y327295D01*
X782143Y327309D01*
X782122Y327330D01*
X782083Y327342D01*
X782004Y327386D01*
X781914Y327394D01*
X781876Y327405D01*
X767587Y327405D01*
X767558Y327399D01*
X767529Y327401D01*
X767468Y327379D01*
X767404Y327366D01*
X767380Y327348D01*
X767353Y327338D01*
X767306Y327293D01*
X767253Y327254D01*
X767239Y327229D01*
X767218Y327208D01*
X767206Y327169D01*
X767162Y327090D01*
X767155Y327000D01*
X767143Y326962D01*
X767143Y325254D01*
X767149Y325226D01*
X767147Y325197D01*
X767169Y325135D01*
X767183Y325071D01*
X767200Y325048D01*
X767210Y325020D01*
X767256Y324973D01*
X767294Y324921D01*
X767320Y324907D01*
X767340Y324886D01*
X767379Y324874D01*
X767458Y324830D01*
X767548Y324822D01*
X767587Y324811D01*
X773513Y324811D01*
X774034Y324290D01*
X774034Y308678D01*
X773513Y308157D01*
X767587Y308157D01*
X767558Y308151D01*
X767529Y308153D01*
X767468Y308131D01*
X767404Y308118D01*
X767380Y308100D01*
X767353Y308090D01*
X767306Y308045D01*
X767253Y308006D01*
X767239Y307981D01*
X767218Y307960D01*
X767206Y307921D01*
X767162Y307842D01*
X767155Y307752D01*
X767143Y307714D01*
X767143Y299498D01*
X767149Y299469D01*
X767147Y299440D01*
X767169Y299379D01*
X767183Y299315D01*
X767200Y299291D01*
X767210Y299264D01*
X767256Y299217D01*
X767294Y299164D01*
X767320Y299150D01*
X767340Y299129D01*
X767379Y299117D01*
X767458Y299073D01*
X767548Y299066D01*
X767587Y299054D01*
X774220Y299054D01*
X774263Y299063D01*
X774307Y299063D01*
X774339Y299080D01*
X774403Y299094D01*
X774503Y299167D01*
X774534Y299184D01*
X775365Y300015D01*
X775381Y300040D01*
X775403Y300059D01*
X775431Y300118D01*
X775467Y300173D01*
X775471Y300202D01*
X775483Y300228D01*
X775485Y300294D01*
X775494Y300358D01*
X775486Y300386D01*
X775487Y300416D01*
X775468Y300451D01*
X775443Y300538D01*
X775384Y300607D01*
X775365Y300643D01*
X774135Y301873D01*
X774135Y304490D01*
X775986Y306341D01*
X778384Y306341D01*
X778427Y306350D01*
X778471Y306350D01*
X778503Y306367D01*
X778567Y306381D01*
X778667Y306454D01*
X778698Y306471D01*
X780140Y307913D01*
X792007Y307913D01*
X792049Y307922D01*
X792093Y307922D01*
X792125Y307939D01*
X792190Y307953D01*
X792289Y308026D01*
X792320Y308043D01*
X792845Y308568D01*
X799583Y308568D01*
X800104Y308047D01*
X800104Y305010D01*
X799583Y304489D01*
X792845Y304489D01*
X792219Y305115D01*
X792183Y305138D01*
X792152Y305170D01*
X792118Y305180D01*
X792062Y305216D01*
X791939Y305235D01*
X791906Y305245D01*
X781429Y305245D01*
X781386Y305236D01*
X781342Y305236D01*
X781310Y305219D01*
X781246Y305205D01*
X781146Y305132D01*
X781115Y305115D01*
X780585Y304584D01*
X780561Y304548D01*
X780530Y304517D01*
X780519Y304482D01*
X780483Y304427D01*
X780465Y304304D01*
X780455Y304271D01*
X780455Y303933D01*
X780461Y303904D01*
X780459Y303875D01*
X780481Y303813D01*
X780494Y303749D01*
X780512Y303726D01*
X780522Y303698D01*
X780567Y303651D01*
X780606Y303599D01*
X780631Y303585D01*
X780652Y303564D01*
X780691Y303552D01*
X780770Y303508D01*
X780860Y303501D01*
X780898Y303489D01*
X783429Y303489D01*
X784567Y302351D01*
X784592Y302335D01*
X784611Y302312D01*
X784670Y302284D01*
X784725Y302249D01*
X784754Y302245D01*
X784780Y302232D01*
X784846Y302231D01*
X784910Y302222D01*
X784938Y302230D01*
X784968Y302229D01*
X785003Y302248D01*
X785090Y302273D01*
X785159Y302332D01*
X785195Y302351D01*
X786241Y303396D01*
X788858Y303396D01*
X789262Y302993D01*
X789299Y302969D01*
X789329Y302938D01*
X789364Y302927D01*
X789419Y302891D01*
X789542Y302873D01*
X789576Y302863D01*
X791956Y302863D01*
X791999Y302872D01*
X792043Y302871D01*
X792075Y302888D01*
X792139Y302902D01*
X792239Y302976D01*
X792270Y302993D01*
X792845Y303568D01*
X799583Y303568D01*
X800104Y303047D01*
X800104Y300010D01*
X799583Y299489D01*
X792845Y299489D01*
X792270Y300064D01*
X792233Y300088D01*
X792203Y300119D01*
X792168Y300130D01*
X792112Y300166D01*
X791990Y300184D01*
X791956Y300194D01*
X791153Y300194D01*
X791124Y300188D01*
X791095Y300190D01*
X791033Y300168D01*
X790970Y300155D01*
X790946Y300137D01*
X790919Y300127D01*
X790872Y300082D01*
X790819Y300043D01*
X790805Y300018D01*
X790784Y299997D01*
X790772Y299958D01*
X790728Y299879D01*
X790721Y299789D01*
X790709Y299751D01*
X790709Y298928D01*
X790402Y298620D01*
X790394Y298608D01*
X790382Y298599D01*
X790343Y298530D01*
X790300Y298463D01*
X790298Y298448D01*
X790291Y298435D01*
X790284Y298356D01*
X790273Y298278D01*
X790277Y298263D01*
X790276Y298249D01*
X790302Y298174D01*
X790324Y298097D01*
X790334Y298086D01*
X790339Y298072D01*
X790394Y298015D01*
X790445Y297954D01*
X790459Y297948D01*
X790469Y297938D01*
X790503Y297927D01*
X790615Y297874D01*
X790681Y297873D01*
X790715Y297863D01*
X791956Y297863D01*
X791999Y297872D01*
X792043Y297871D01*
X792075Y297888D01*
X792139Y297902D01*
X792239Y297976D01*
X792270Y297993D01*
X792845Y298568D01*
X799583Y298568D01*
X800104Y298047D01*
X800104Y295010D01*
X799583Y294489D01*
X795176Y294489D01*
X795162Y294486D01*
X795147Y294488D01*
X795070Y294466D01*
X794993Y294449D01*
X794981Y294440D01*
X794967Y294436D01*
X794906Y294385D01*
X794842Y294338D01*
X794835Y294325D01*
X794824Y294315D01*
X794790Y294243D01*
X794751Y294174D01*
X794750Y294159D01*
X794744Y294146D01*
X794743Y294066D01*
X794736Y293987D01*
X794741Y293973D01*
X794741Y293959D01*
X794757Y293927D01*
X794799Y293811D01*
X794845Y293763D01*
X794862Y293731D01*
X794895Y293698D01*
X794929Y293676D01*
X794930Y293676D01*
X794932Y293675D01*
X794962Y293643D01*
X794997Y293633D01*
X795053Y293597D01*
X795175Y293578D01*
X795209Y293568D01*
X799583Y293568D01*
X800104Y293047D01*
X800104Y290010D01*
X799583Y289489D01*
X796212Y289489D01*
X796197Y289486D01*
X796183Y289488D01*
X796106Y289466D01*
X796029Y289449D01*
X796017Y289440D01*
X796003Y289436D01*
X795942Y289385D01*
X795878Y289338D01*
X795871Y289325D01*
X795860Y289315D01*
X795826Y289243D01*
X795787Y289174D01*
X795786Y289159D01*
X795780Y289146D01*
X795778Y289066D01*
X795772Y288987D01*
X795777Y288973D01*
X795777Y288958D01*
X795793Y288927D01*
X795835Y288811D01*
X795881Y288763D01*
X795898Y288731D01*
X795931Y288698D01*
X795965Y288676D01*
X795966Y288676D01*
X795968Y288674D01*
X795998Y288643D01*
X796033Y288633D01*
X796089Y288597D01*
X796211Y288579D01*
X796245Y288568D01*
X799583Y288568D01*
X800104Y288047D01*
X800104Y285010D01*
X799583Y284489D01*
X795176Y284489D01*
X795162Y284486D01*
X795147Y284488D01*
X795070Y284466D01*
X794993Y284449D01*
X794981Y284440D01*
X794967Y284436D01*
X794906Y284385D01*
X794842Y284338D01*
X794835Y284325D01*
X794824Y284315D01*
X794790Y284243D01*
X794751Y284174D01*
X794750Y284159D01*
X794744Y284146D01*
X794743Y284066D01*
X794736Y283987D01*
X794741Y283973D01*
X794741Y283958D01*
X794758Y283927D01*
X794799Y283811D01*
X794845Y283763D01*
X794862Y283731D01*
X794895Y283698D01*
X794929Y283676D01*
X794930Y283676D01*
X794932Y283674D01*
X794963Y283643D01*
X794997Y283633D01*
X795053Y283597D01*
X795175Y283579D01*
X795209Y283568D01*
X799583Y283568D01*
X800104Y283047D01*
X800104Y280010D01*
X799583Y279489D01*
X795176Y279489D01*
X795162Y279486D01*
X795147Y279488D01*
X795070Y279466D01*
X794993Y279449D01*
X794981Y279440D01*
X794967Y279436D01*
X794906Y279385D01*
X794842Y279338D01*
X794835Y279325D01*
X794824Y279315D01*
X794790Y279243D01*
X794751Y279174D01*
X794750Y279159D01*
X794744Y279146D01*
X794743Y279066D01*
X794736Y278987D01*
X794741Y278973D01*
X794741Y278958D01*
X794758Y278927D01*
X794799Y278811D01*
X794845Y278763D01*
X794862Y278731D01*
X794895Y278698D01*
X794929Y278676D01*
X794930Y278676D01*
X794932Y278674D01*
X794963Y278643D01*
X794997Y278633D01*
X795053Y278597D01*
X795175Y278579D01*
X795209Y278568D01*
X799583Y278568D01*
X800104Y278047D01*
X800104Y275072D01*
X800113Y275029D01*
X800112Y274985D01*
X800129Y274953D01*
X800143Y274889D01*
X800217Y274789D01*
X800234Y274758D01*
X802252Y272739D01*
X802286Y272717D01*
X802287Y272717D01*
X802289Y272716D01*
X802320Y272684D01*
X802354Y272674D01*
X802410Y272638D01*
X802532Y272619D01*
X802566Y272609D01*
X818056Y272609D01*
X822032Y268634D01*
X822032Y260423D01*
X820425Y258816D01*
X820409Y258792D01*
X820386Y258773D01*
X820359Y258714D01*
X820323Y258659D01*
X820319Y258630D01*
X820306Y258603D01*
X820305Y258538D01*
X820296Y258474D01*
X820304Y258445D01*
X820303Y258416D01*
X820322Y258381D01*
X820347Y258293D01*
X820406Y258224D01*
X820425Y258189D01*
X820614Y257999D01*
X820639Y257983D01*
X820658Y257961D01*
X820717Y257933D01*
X820772Y257898D01*
X820801Y257894D01*
X820827Y257881D01*
X820892Y257880D01*
X820957Y257870D01*
X820985Y257878D01*
X821014Y257878D01*
X821050Y257897D01*
X821137Y257922D01*
X821206Y257980D01*
X821242Y257999D01*
X822895Y259652D01*
X825946Y259652D01*
X827599Y257999D01*
X827624Y257983D01*
X827643Y257961D01*
X827702Y257933D01*
X827757Y257898D01*
X827786Y257894D01*
X827812Y257881D01*
X827877Y257880D01*
X827942Y257870D01*
X827970Y257878D01*
G37*
G36*
X871645Y167523D02*
X871645Y167523D01*
X871688Y167522D01*
X871720Y167539D01*
X871785Y167553D01*
X871884Y167627D01*
X871916Y167644D01*
X876914Y172642D01*
X877430Y172642D01*
X877459Y172648D01*
X877488Y172646D01*
X877549Y172668D01*
X877613Y172682D01*
X877637Y172699D01*
X877664Y172709D01*
X877711Y172755D01*
X877764Y172793D01*
X877778Y172819D01*
X877799Y172839D01*
X877811Y172878D01*
X877855Y172957D01*
X877862Y173047D01*
X877874Y173086D01*
X877874Y174859D01*
X878395Y175380D01*
X886132Y175380D01*
X886653Y174859D01*
X886653Y167958D01*
X886659Y167929D01*
X886657Y167900D01*
X886679Y167838D01*
X886693Y167774D01*
X886710Y167751D01*
X886720Y167723D01*
X886766Y167676D01*
X886804Y167624D01*
X886830Y167610D01*
X886850Y167589D01*
X886889Y167577D01*
X886968Y167533D01*
X887058Y167525D01*
X887097Y167514D01*
X887667Y167514D01*
X887695Y167520D01*
X887724Y167518D01*
X887786Y167540D01*
X887850Y167553D01*
X887873Y167571D01*
X887901Y167581D01*
X887948Y167626D01*
X888000Y167665D01*
X888014Y167691D01*
X888035Y167711D01*
X888047Y167750D01*
X888091Y167829D01*
X888099Y167919D01*
X888110Y167958D01*
X888110Y218758D01*
X888104Y218786D01*
X888106Y218815D01*
X888084Y218877D01*
X888071Y218941D01*
X888053Y218964D01*
X888043Y218992D01*
X887998Y219039D01*
X887959Y219091D01*
X887934Y219105D01*
X887913Y219126D01*
X887874Y219138D01*
X887795Y219182D01*
X887705Y219190D01*
X887667Y219201D01*
X840509Y219201D01*
X840481Y219195D01*
X840452Y219197D01*
X840390Y219175D01*
X840326Y219162D01*
X840303Y219144D01*
X840275Y219134D01*
X840228Y219089D01*
X840176Y219050D01*
X840162Y219025D01*
X840141Y219004D01*
X840129Y218965D01*
X840085Y218886D01*
X840077Y218796D01*
X840066Y218758D01*
X840066Y168373D01*
X840070Y168352D01*
X840070Y168343D01*
X840075Y168328D01*
X840074Y168287D01*
X840091Y168255D01*
X840105Y168190D01*
X840179Y168091D01*
X840196Y168059D01*
X840611Y167644D01*
X840648Y167620D01*
X840678Y167589D01*
X840713Y167578D01*
X840769Y167542D01*
X840891Y167524D01*
X840925Y167514D01*
X871602Y167514D01*
X871645Y167523D01*
G37*
G36*
X824690Y167456D02*
X824690Y167456D01*
X824719Y167454D01*
X824781Y167476D01*
X824845Y167490D01*
X824868Y167507D01*
X824896Y167517D01*
X824943Y167563D01*
X824995Y167601D01*
X825009Y167627D01*
X825030Y167647D01*
X825042Y167686D01*
X825086Y167765D01*
X825094Y167855D01*
X825105Y167894D01*
X825105Y174859D01*
X825626Y175380D01*
X830962Y175380D01*
X831005Y175389D01*
X831048Y175389D01*
X831080Y175406D01*
X831145Y175420D01*
X831244Y175493D01*
X831276Y175510D01*
X833563Y177797D01*
X833567Y177804D01*
X833572Y177808D01*
X833586Y177834D01*
X833618Y177865D01*
X833628Y177899D01*
X833664Y177955D01*
X833683Y178077D01*
X833693Y178111D01*
X833693Y218758D01*
X833687Y218786D01*
X833689Y218815D01*
X833667Y218877D01*
X833653Y218941D01*
X833636Y218964D01*
X833626Y218992D01*
X833580Y219039D01*
X833542Y219091D01*
X833516Y219105D01*
X833496Y219126D01*
X833457Y219138D01*
X833378Y219182D01*
X833288Y219190D01*
X833249Y219201D01*
X787972Y219201D01*
X787943Y219195D01*
X787914Y219197D01*
X787852Y219175D01*
X787788Y219162D01*
X787765Y219144D01*
X787737Y219134D01*
X787690Y219089D01*
X787638Y219050D01*
X787624Y219025D01*
X787603Y219004D01*
X787591Y218965D01*
X787547Y218886D01*
X787539Y218796D01*
X787528Y218758D01*
X787528Y167894D01*
X787534Y167865D01*
X787532Y167836D01*
X787554Y167775D01*
X787567Y167711D01*
X787585Y167687D01*
X787595Y167660D01*
X787640Y167613D01*
X787679Y167560D01*
X787705Y167546D01*
X787725Y167525D01*
X787764Y167513D01*
X787843Y167469D01*
X787933Y167462D01*
X787972Y167450D01*
X824662Y167450D01*
X824690Y167456D01*
G37*
%LPC*%
G36*
X369758Y612513D02*
X369758Y612513D01*
X365881Y614119D01*
X362913Y617087D01*
X361307Y620964D01*
X361307Y625160D01*
X362913Y629037D01*
X362974Y629098D01*
X362990Y629123D01*
X363012Y629142D01*
X363040Y629201D01*
X363076Y629256D01*
X363080Y629285D01*
X363092Y629311D01*
X363094Y629376D01*
X363103Y629441D01*
X363095Y629469D01*
X363096Y629498D01*
X363077Y629534D01*
X363052Y629621D01*
X362993Y629690D01*
X362974Y629726D01*
X362913Y629787D01*
X361307Y633664D01*
X361307Y637860D01*
X362913Y641737D01*
X362974Y641798D01*
X362980Y641808D01*
X362988Y641814D01*
X362996Y641828D01*
X363012Y641842D01*
X363040Y641901D01*
X363076Y641956D01*
X363079Y641976D01*
X363079Y641977D01*
X363080Y641983D01*
X363080Y641985D01*
X363092Y642011D01*
X363094Y642076D01*
X363103Y642141D01*
X363095Y642169D01*
X363096Y642198D01*
X363077Y642234D01*
X363052Y642321D01*
X362993Y642390D01*
X362974Y642426D01*
X362913Y642487D01*
X361307Y646364D01*
X361307Y650560D01*
X362913Y654437D01*
X362974Y654498D01*
X362990Y654523D01*
X363012Y654542D01*
X363040Y654601D01*
X363076Y654656D01*
X363080Y654685D01*
X363092Y654711D01*
X363094Y654776D01*
X363103Y654841D01*
X363095Y654869D01*
X363096Y654898D01*
X363077Y654934D01*
X363052Y655021D01*
X362993Y655090D01*
X362974Y655126D01*
X362913Y655187D01*
X361307Y659064D01*
X361307Y663260D01*
X362913Y667137D01*
X362974Y667198D01*
X362990Y667223D01*
X363012Y667242D01*
X363040Y667301D01*
X363076Y667356D01*
X363080Y667385D01*
X363092Y667411D01*
X363094Y667476D01*
X363103Y667541D01*
X363095Y667569D01*
X363096Y667598D01*
X363077Y667634D01*
X363052Y667721D01*
X362993Y667790D01*
X362974Y667826D01*
X362913Y667887D01*
X361307Y671764D01*
X361307Y675960D01*
X362913Y679837D01*
X362974Y679898D01*
X362990Y679923D01*
X363012Y679942D01*
X363040Y680001D01*
X363076Y680056D01*
X363080Y680085D01*
X363092Y680111D01*
X363094Y680176D01*
X363103Y680241D01*
X363095Y680269D01*
X363096Y680298D01*
X363077Y680334D01*
X363052Y680421D01*
X362993Y680490D01*
X362974Y680526D01*
X362913Y680587D01*
X361307Y684464D01*
X361307Y688660D01*
X362913Y692537D01*
X365881Y695505D01*
X369758Y697111D01*
X373954Y697111D01*
X377831Y695505D01*
X380799Y692537D01*
X382405Y688660D01*
X382405Y684464D01*
X380799Y680587D01*
X380738Y680526D01*
X380722Y680501D01*
X380700Y680482D01*
X380672Y680423D01*
X380636Y680368D01*
X380632Y680339D01*
X380620Y680313D01*
X380618Y680248D01*
X380609Y680183D01*
X380617Y680155D01*
X380616Y680125D01*
X380635Y680090D01*
X380660Y680003D01*
X380719Y679934D01*
X380738Y679898D01*
X380799Y679837D01*
X382405Y675960D01*
X382405Y671764D01*
X380799Y667887D01*
X380738Y667826D01*
X380722Y667801D01*
X380700Y667782D01*
X380672Y667723D01*
X380636Y667668D01*
X380632Y667639D01*
X380620Y667613D01*
X380618Y667548D01*
X380609Y667483D01*
X380617Y667455D01*
X380616Y667425D01*
X380635Y667390D01*
X380660Y667303D01*
X380719Y667234D01*
X380738Y667198D01*
X380799Y667137D01*
X382405Y663260D01*
X382405Y659064D01*
X380799Y655187D01*
X380738Y655126D01*
X380722Y655101D01*
X380700Y655082D01*
X380672Y655023D01*
X380636Y654968D01*
X380632Y654939D01*
X380620Y654913D01*
X380618Y654848D01*
X380609Y654783D01*
X380617Y654755D01*
X380616Y654725D01*
X380635Y654690D01*
X380660Y654603D01*
X380719Y654534D01*
X380738Y654498D01*
X380799Y654437D01*
X382405Y650560D01*
X382405Y646364D01*
X380799Y642487D01*
X380738Y642426D01*
X380722Y642401D01*
X380700Y642382D01*
X380672Y642323D01*
X380636Y642268D01*
X380632Y642239D01*
X380620Y642213D01*
X380618Y642148D01*
X380609Y642083D01*
X380617Y642055D01*
X380616Y642025D01*
X380635Y641990D01*
X380660Y641903D01*
X380676Y641884D01*
X380681Y641872D01*
X380721Y641831D01*
X380738Y641798D01*
X380799Y641737D01*
X382405Y637860D01*
X382405Y633664D01*
X380799Y629787D01*
X380738Y629726D01*
X380722Y629701D01*
X380700Y629682D01*
X380672Y629623D01*
X380636Y629568D01*
X380632Y629539D01*
X380620Y629513D01*
X380618Y629448D01*
X380609Y629383D01*
X380617Y629355D01*
X380616Y629325D01*
X380635Y629290D01*
X380660Y629203D01*
X380719Y629134D01*
X380738Y629098D01*
X380799Y629037D01*
X382405Y625160D01*
X382405Y620964D01*
X380799Y617087D01*
X377831Y614119D01*
X373954Y612513D01*
X369758Y612513D01*
G37*
%LPD*%
%LPC*%
G36*
X693608Y612513D02*
X693608Y612513D01*
X689731Y614119D01*
X686763Y617087D01*
X685157Y620964D01*
X685157Y625160D01*
X686763Y629037D01*
X686824Y629098D01*
X686840Y629123D01*
X686862Y629142D01*
X686890Y629201D01*
X686926Y629256D01*
X686930Y629285D01*
X686942Y629311D01*
X686944Y629376D01*
X686953Y629441D01*
X686945Y629469D01*
X686946Y629499D01*
X686927Y629534D01*
X686902Y629621D01*
X686843Y629690D01*
X686824Y629726D01*
X686763Y629787D01*
X685157Y633664D01*
X685157Y637860D01*
X686763Y641737D01*
X686824Y641798D01*
X686830Y641808D01*
X686838Y641814D01*
X686846Y641828D01*
X686862Y641842D01*
X686890Y641901D01*
X686926Y641956D01*
X686929Y641976D01*
X686929Y641977D01*
X686930Y641983D01*
X686930Y641985D01*
X686942Y642011D01*
X686944Y642076D01*
X686953Y642141D01*
X686945Y642169D01*
X686946Y642198D01*
X686927Y642234D01*
X686902Y642321D01*
X686843Y642390D01*
X686824Y642426D01*
X686763Y642487D01*
X685157Y646364D01*
X685157Y650560D01*
X686763Y654437D01*
X686824Y654498D01*
X686840Y654523D01*
X686862Y654542D01*
X686890Y654601D01*
X686926Y654656D01*
X686930Y654685D01*
X686942Y654711D01*
X686944Y654776D01*
X686953Y654841D01*
X686945Y654869D01*
X686946Y654898D01*
X686927Y654934D01*
X686902Y655021D01*
X686843Y655090D01*
X686824Y655126D01*
X686763Y655187D01*
X685157Y659064D01*
X685157Y663260D01*
X686763Y667137D01*
X686824Y667198D01*
X686840Y667223D01*
X686862Y667242D01*
X686890Y667301D01*
X686926Y667356D01*
X686930Y667385D01*
X686942Y667411D01*
X686944Y667476D01*
X686953Y667541D01*
X686945Y667569D01*
X686946Y667598D01*
X686927Y667634D01*
X686902Y667721D01*
X686843Y667790D01*
X686824Y667826D01*
X686763Y667887D01*
X685157Y671764D01*
X685157Y675960D01*
X686763Y679837D01*
X686824Y679898D01*
X686840Y679923D01*
X686862Y679942D01*
X686890Y680001D01*
X686926Y680056D01*
X686930Y680085D01*
X686942Y680111D01*
X686944Y680176D01*
X686953Y680241D01*
X686945Y680269D01*
X686946Y680298D01*
X686927Y680334D01*
X686902Y680421D01*
X686843Y680490D01*
X686824Y680526D01*
X686763Y680587D01*
X685157Y684464D01*
X685157Y688660D01*
X686763Y692537D01*
X689731Y695505D01*
X693608Y697111D01*
X697804Y697111D01*
X701681Y695505D01*
X704649Y692537D01*
X706255Y688660D01*
X706255Y684464D01*
X704649Y680587D01*
X704588Y680526D01*
X704572Y680501D01*
X704550Y680482D01*
X704522Y680423D01*
X704486Y680368D01*
X704482Y680339D01*
X704470Y680313D01*
X704468Y680248D01*
X704459Y680183D01*
X704467Y680155D01*
X704466Y680125D01*
X704485Y680090D01*
X704510Y680003D01*
X704569Y679934D01*
X704588Y679898D01*
X704649Y679837D01*
X706255Y675960D01*
X706255Y671764D01*
X704649Y667887D01*
X704588Y667826D01*
X704572Y667801D01*
X704550Y667782D01*
X704522Y667723D01*
X704486Y667668D01*
X704482Y667639D01*
X704470Y667613D01*
X704468Y667548D01*
X704459Y667483D01*
X704467Y667455D01*
X704466Y667425D01*
X704485Y667390D01*
X704510Y667303D01*
X704569Y667234D01*
X704588Y667198D01*
X704649Y667137D01*
X706255Y663260D01*
X706255Y659064D01*
X704649Y655187D01*
X704588Y655126D01*
X704572Y655101D01*
X704550Y655082D01*
X704522Y655023D01*
X704486Y654968D01*
X704482Y654939D01*
X704470Y654913D01*
X704468Y654848D01*
X704459Y654783D01*
X704467Y654755D01*
X704466Y654725D01*
X704485Y654690D01*
X704510Y654603D01*
X704569Y654534D01*
X704588Y654498D01*
X704649Y654437D01*
X706255Y650560D01*
X706255Y646364D01*
X704649Y642487D01*
X704588Y642426D01*
X704572Y642401D01*
X704550Y642382D01*
X704522Y642323D01*
X704486Y642268D01*
X704482Y642239D01*
X704470Y642213D01*
X704468Y642148D01*
X704459Y642083D01*
X704467Y642055D01*
X704466Y642025D01*
X704485Y641990D01*
X704510Y641903D01*
X704526Y641884D01*
X704531Y641872D01*
X704571Y641831D01*
X704588Y641798D01*
X704649Y641737D01*
X706255Y637860D01*
X706255Y633664D01*
X704649Y629787D01*
X704588Y629726D01*
X704572Y629701D01*
X704550Y629682D01*
X704522Y629623D01*
X704486Y629568D01*
X704482Y629539D01*
X704470Y629513D01*
X704468Y629448D01*
X704459Y629383D01*
X704467Y629355D01*
X704466Y629326D01*
X704485Y629290D01*
X704510Y629203D01*
X704569Y629134D01*
X704588Y629098D01*
X704649Y629037D01*
X706255Y625160D01*
X706255Y620964D01*
X704649Y617087D01*
X701681Y614119D01*
X697804Y612513D01*
X693608Y612513D01*
G37*
%LPD*%
%LPC*%
G36*
X395158Y612513D02*
X395158Y612513D01*
X391281Y614119D01*
X388313Y617087D01*
X386707Y620964D01*
X386707Y625160D01*
X388313Y629037D01*
X388374Y629098D01*
X388390Y629123D01*
X388412Y629142D01*
X388440Y629201D01*
X388476Y629256D01*
X388480Y629285D01*
X388492Y629311D01*
X388494Y629376D01*
X388503Y629441D01*
X388495Y629469D01*
X388496Y629498D01*
X388477Y629534D01*
X388452Y629621D01*
X388393Y629690D01*
X388374Y629726D01*
X388313Y629787D01*
X386707Y633664D01*
X386707Y637860D01*
X388313Y641737D01*
X388374Y641798D01*
X388380Y641808D01*
X388388Y641814D01*
X388396Y641828D01*
X388412Y641842D01*
X388440Y641901D01*
X388476Y641956D01*
X388479Y641976D01*
X388479Y641977D01*
X388480Y641983D01*
X388480Y641985D01*
X388492Y642011D01*
X388494Y642076D01*
X388503Y642141D01*
X388495Y642169D01*
X388496Y642198D01*
X388477Y642234D01*
X388452Y642321D01*
X388393Y642390D01*
X388374Y642426D01*
X388313Y642487D01*
X386707Y646364D01*
X386707Y650560D01*
X388313Y654437D01*
X388374Y654498D01*
X388390Y654523D01*
X388412Y654542D01*
X388440Y654601D01*
X388476Y654656D01*
X388480Y654685D01*
X388492Y654711D01*
X388494Y654776D01*
X388503Y654841D01*
X388495Y654869D01*
X388496Y654898D01*
X388477Y654934D01*
X388452Y655021D01*
X388393Y655090D01*
X388374Y655126D01*
X388313Y655187D01*
X386707Y659064D01*
X386707Y663260D01*
X388313Y667137D01*
X388374Y667198D01*
X388390Y667223D01*
X388412Y667242D01*
X388440Y667301D01*
X388476Y667356D01*
X388480Y667385D01*
X388492Y667411D01*
X388494Y667476D01*
X388503Y667541D01*
X388495Y667569D01*
X388496Y667598D01*
X388477Y667634D01*
X388452Y667721D01*
X388393Y667790D01*
X388374Y667826D01*
X388313Y667887D01*
X386707Y671764D01*
X386707Y675960D01*
X388313Y679837D01*
X388374Y679898D01*
X388390Y679923D01*
X388412Y679942D01*
X388440Y680001D01*
X388476Y680056D01*
X388480Y680085D01*
X388492Y680111D01*
X388494Y680176D01*
X388503Y680241D01*
X388495Y680269D01*
X388496Y680298D01*
X388477Y680334D01*
X388452Y680421D01*
X388393Y680490D01*
X388374Y680526D01*
X388313Y680587D01*
X386707Y684464D01*
X386707Y688660D01*
X388313Y692537D01*
X391281Y695505D01*
X395158Y697111D01*
X399354Y697111D01*
X403231Y695505D01*
X406199Y692537D01*
X407805Y688660D01*
X407805Y684464D01*
X406199Y680587D01*
X406138Y680526D01*
X406122Y680501D01*
X406100Y680482D01*
X406072Y680423D01*
X406036Y680368D01*
X406032Y680339D01*
X406020Y680313D01*
X406018Y680248D01*
X406009Y680183D01*
X406017Y680155D01*
X406016Y680125D01*
X406035Y680090D01*
X406060Y680003D01*
X406119Y679934D01*
X406138Y679898D01*
X406199Y679837D01*
X407805Y675960D01*
X407805Y671764D01*
X406199Y667887D01*
X406138Y667826D01*
X406122Y667801D01*
X406100Y667782D01*
X406072Y667723D01*
X406036Y667668D01*
X406032Y667639D01*
X406020Y667613D01*
X406018Y667548D01*
X406009Y667483D01*
X406017Y667455D01*
X406016Y667425D01*
X406035Y667390D01*
X406060Y667303D01*
X406119Y667234D01*
X406138Y667198D01*
X406199Y667137D01*
X407805Y663260D01*
X407805Y659064D01*
X406199Y655187D01*
X406138Y655126D01*
X406122Y655101D01*
X406100Y655082D01*
X406072Y655023D01*
X406036Y654968D01*
X406032Y654939D01*
X406020Y654913D01*
X406018Y654848D01*
X406009Y654783D01*
X406017Y654755D01*
X406016Y654725D01*
X406035Y654690D01*
X406060Y654603D01*
X406119Y654534D01*
X406138Y654498D01*
X406199Y654437D01*
X407805Y650560D01*
X407805Y646364D01*
X406199Y642487D01*
X406138Y642426D01*
X406122Y642401D01*
X406100Y642382D01*
X406072Y642323D01*
X406036Y642268D01*
X406032Y642239D01*
X406020Y642213D01*
X406018Y642148D01*
X406009Y642083D01*
X406017Y642055D01*
X406016Y642025D01*
X406035Y641990D01*
X406060Y641903D01*
X406076Y641884D01*
X406081Y641872D01*
X406121Y641831D01*
X406138Y641798D01*
X406199Y641737D01*
X407805Y637860D01*
X407805Y633664D01*
X406199Y629787D01*
X406138Y629726D01*
X406122Y629701D01*
X406100Y629682D01*
X406072Y629623D01*
X406036Y629568D01*
X406032Y629539D01*
X406020Y629513D01*
X406018Y629448D01*
X406009Y629383D01*
X406017Y629355D01*
X406016Y629325D01*
X406035Y629290D01*
X406060Y629203D01*
X406119Y629134D01*
X406138Y629098D01*
X406199Y629037D01*
X407805Y625160D01*
X407805Y620964D01*
X406199Y617087D01*
X403231Y614119D01*
X399354Y612513D01*
X395158Y612513D01*
G37*
%LPD*%
%LPC*%
G36*
X71308Y612513D02*
X71308Y612513D01*
X67431Y614119D01*
X64463Y617087D01*
X62857Y620964D01*
X62857Y625160D01*
X64463Y629037D01*
X64524Y629098D01*
X64540Y629123D01*
X64562Y629142D01*
X64590Y629201D01*
X64626Y629256D01*
X64630Y629285D01*
X64642Y629311D01*
X64644Y629376D01*
X64653Y629441D01*
X64645Y629469D01*
X64646Y629498D01*
X64627Y629534D01*
X64602Y629621D01*
X64543Y629690D01*
X64524Y629726D01*
X64463Y629787D01*
X62857Y633664D01*
X62857Y637860D01*
X64463Y641737D01*
X64524Y641798D01*
X64530Y641808D01*
X64538Y641814D01*
X64546Y641828D01*
X64562Y641842D01*
X64590Y641901D01*
X64626Y641956D01*
X64629Y641976D01*
X64629Y641977D01*
X64630Y641983D01*
X64630Y641985D01*
X64642Y642011D01*
X64644Y642076D01*
X64653Y642141D01*
X64645Y642169D01*
X64646Y642198D01*
X64627Y642234D01*
X64602Y642321D01*
X64543Y642390D01*
X64524Y642426D01*
X64463Y642487D01*
X62857Y646364D01*
X62857Y650560D01*
X64463Y654437D01*
X64524Y654498D01*
X64540Y654523D01*
X64562Y654542D01*
X64590Y654601D01*
X64626Y654656D01*
X64630Y654685D01*
X64642Y654711D01*
X64644Y654776D01*
X64653Y654841D01*
X64645Y654869D01*
X64646Y654898D01*
X64627Y654934D01*
X64602Y655021D01*
X64543Y655090D01*
X64524Y655126D01*
X64463Y655187D01*
X62857Y659064D01*
X62857Y663260D01*
X64463Y667137D01*
X64524Y667198D01*
X64540Y667223D01*
X64562Y667242D01*
X64590Y667301D01*
X64626Y667356D01*
X64630Y667385D01*
X64642Y667411D01*
X64644Y667476D01*
X64653Y667541D01*
X64645Y667569D01*
X64646Y667598D01*
X64627Y667634D01*
X64602Y667721D01*
X64543Y667790D01*
X64524Y667826D01*
X64463Y667887D01*
X62857Y671764D01*
X62857Y675960D01*
X64463Y679837D01*
X64524Y679898D01*
X64540Y679923D01*
X64562Y679942D01*
X64590Y680001D01*
X64626Y680056D01*
X64630Y680085D01*
X64642Y680111D01*
X64644Y680176D01*
X64653Y680241D01*
X64645Y680269D01*
X64646Y680298D01*
X64627Y680334D01*
X64602Y680421D01*
X64543Y680490D01*
X64524Y680526D01*
X64463Y680587D01*
X62857Y684464D01*
X62857Y688660D01*
X64463Y692537D01*
X67431Y695505D01*
X71308Y697111D01*
X75504Y697111D01*
X79381Y695505D01*
X82349Y692537D01*
X83955Y688660D01*
X83955Y684464D01*
X82349Y680587D01*
X82288Y680526D01*
X82272Y680501D01*
X82250Y680482D01*
X82222Y680423D01*
X82186Y680368D01*
X82182Y680339D01*
X82170Y680313D01*
X82168Y680248D01*
X82159Y680183D01*
X82167Y680155D01*
X82166Y680125D01*
X82185Y680090D01*
X82210Y680003D01*
X82269Y679934D01*
X82288Y679898D01*
X82349Y679837D01*
X83955Y675960D01*
X83955Y671764D01*
X82349Y667887D01*
X82288Y667826D01*
X82272Y667801D01*
X82250Y667782D01*
X82222Y667723D01*
X82186Y667668D01*
X82182Y667639D01*
X82170Y667613D01*
X82168Y667548D01*
X82159Y667483D01*
X82167Y667455D01*
X82166Y667425D01*
X82185Y667390D01*
X82210Y667303D01*
X82269Y667234D01*
X82288Y667198D01*
X82349Y667137D01*
X83955Y663260D01*
X83955Y659064D01*
X82349Y655187D01*
X82288Y655126D01*
X82272Y655101D01*
X82250Y655082D01*
X82222Y655023D01*
X82186Y654968D01*
X82182Y654939D01*
X82170Y654913D01*
X82168Y654848D01*
X82159Y654783D01*
X82167Y654755D01*
X82166Y654725D01*
X82185Y654690D01*
X82210Y654603D01*
X82269Y654534D01*
X82288Y654498D01*
X82349Y654437D01*
X83955Y650560D01*
X83955Y646364D01*
X82349Y642487D01*
X82288Y642426D01*
X82272Y642401D01*
X82250Y642382D01*
X82222Y642323D01*
X82186Y642268D01*
X82182Y642239D01*
X82170Y642213D01*
X82168Y642148D01*
X82159Y642083D01*
X82167Y642055D01*
X82166Y642025D01*
X82185Y641990D01*
X82210Y641903D01*
X82226Y641884D01*
X82231Y641872D01*
X82271Y641831D01*
X82288Y641798D01*
X82349Y641737D01*
X83955Y637860D01*
X83955Y633664D01*
X82349Y629787D01*
X82288Y629726D01*
X82272Y629701D01*
X82250Y629682D01*
X82222Y629623D01*
X82186Y629568D01*
X82182Y629539D01*
X82170Y629513D01*
X82168Y629448D01*
X82159Y629383D01*
X82167Y629355D01*
X82166Y629325D01*
X82185Y629290D01*
X82210Y629203D01*
X82269Y629134D01*
X82288Y629098D01*
X82349Y629037D01*
X83955Y625160D01*
X83955Y620964D01*
X82349Y617087D01*
X79381Y614119D01*
X75504Y612513D01*
X71308Y612513D01*
G37*
%LPD*%
%LPC*%
G36*
X92338Y168605D02*
X92338Y168605D01*
X90552Y170391D01*
X90552Y190943D01*
X90562Y190963D01*
X90597Y191018D01*
X90601Y191047D01*
X90614Y191073D01*
X90615Y191138D01*
X90625Y191203D01*
X90617Y191231D01*
X90617Y191260D01*
X90598Y191296D01*
X90573Y191383D01*
X90515Y191452D01*
X90496Y191488D01*
X85763Y196220D01*
X85639Y196300D01*
X85619Y196316D01*
X82925Y197432D01*
X79957Y200400D01*
X78351Y204277D01*
X78351Y208473D01*
X79957Y212350D01*
X82925Y215318D01*
X86802Y216924D01*
X90998Y216924D01*
X94875Y215318D01*
X97843Y212350D01*
X98959Y209656D01*
X99043Y209534D01*
X99055Y209512D01*
X114863Y193704D01*
X115734Y192833D01*
X115771Y192809D01*
X115801Y192778D01*
X115836Y192767D01*
X115892Y192731D01*
X116014Y192713D01*
X116048Y192703D01*
X126864Y192703D01*
X128650Y190917D01*
X128650Y170391D01*
X126864Y168605D01*
X92338Y168605D01*
G37*
%LPD*%
%LPC*%
G36*
X914508Y706119D02*
X914508Y706119D01*
X912360Y707009D01*
X910717Y708652D01*
X909827Y710800D01*
X909827Y713124D01*
X910722Y715285D01*
X910730Y715328D01*
X910747Y715368D01*
X910744Y715404D01*
X910756Y715469D01*
X910726Y715589D01*
X910722Y715624D01*
X909827Y717785D01*
X909827Y720109D01*
X910722Y722270D01*
X910725Y722286D01*
X910731Y722296D01*
X910733Y722319D01*
X910747Y722353D01*
X910744Y722389D01*
X910756Y722454D01*
X910726Y722574D01*
X910722Y722609D01*
X909827Y724770D01*
X909827Y727094D01*
X910722Y729255D01*
X910730Y729298D01*
X910747Y729338D01*
X910744Y729374D01*
X910756Y729439D01*
X910726Y729559D01*
X910722Y729594D01*
X909827Y731755D01*
X909827Y734079D01*
X910722Y736240D01*
X910730Y736283D01*
X910747Y736323D01*
X910744Y736359D01*
X910756Y736424D01*
X910726Y736544D01*
X910722Y736579D01*
X909827Y738740D01*
X909827Y741064D01*
X910722Y743225D01*
X910730Y743268D01*
X910747Y743308D01*
X910744Y743344D01*
X910756Y743409D01*
X910726Y743529D01*
X910722Y743564D01*
X909827Y745725D01*
X909827Y748049D01*
X910722Y750210D01*
X910727Y750236D01*
X910736Y750252D01*
X910738Y750270D01*
X910747Y750293D01*
X910744Y750329D01*
X910756Y750394D01*
X910750Y750418D01*
X910751Y750439D01*
X910728Y750505D01*
X910726Y750514D01*
X910722Y750549D01*
X909827Y752710D01*
X909827Y755034D01*
X910722Y757195D01*
X910730Y757238D01*
X910747Y757278D01*
X910744Y757314D01*
X910756Y757379D01*
X910726Y757499D01*
X910722Y757534D01*
X909827Y759695D01*
X909827Y762019D01*
X910722Y764180D01*
X910730Y764223D01*
X910747Y764263D01*
X910744Y764299D01*
X910756Y764364D01*
X910726Y764484D01*
X910722Y764519D01*
X909827Y766680D01*
X909827Y769004D01*
X910722Y771165D01*
X910730Y771208D01*
X910747Y771248D01*
X910744Y771284D01*
X910756Y771349D01*
X910726Y771469D01*
X910722Y771504D01*
X909827Y773665D01*
X909827Y775989D01*
X910722Y778150D01*
X910730Y778193D01*
X910747Y778233D01*
X910744Y778269D01*
X910756Y778334D01*
X910744Y778382D01*
X910745Y778395D01*
X910730Y778436D01*
X910726Y778454D01*
X910722Y778489D01*
X909827Y780650D01*
X909827Y782974D01*
X910722Y785135D01*
X910730Y785178D01*
X910747Y785218D01*
X910744Y785254D01*
X910756Y785319D01*
X910726Y785439D01*
X910722Y785474D01*
X909827Y787635D01*
X909827Y789959D01*
X910722Y792120D01*
X910730Y792163D01*
X910747Y792203D01*
X910744Y792239D01*
X910756Y792304D01*
X910726Y792424D01*
X910722Y792459D01*
X909827Y794620D01*
X909827Y796944D01*
X910717Y799092D01*
X912360Y800735D01*
X914508Y801625D01*
X916832Y801625D01*
X918980Y800735D01*
X920623Y799092D01*
X921513Y796944D01*
X921513Y794620D01*
X920618Y792459D01*
X920610Y792416D01*
X920593Y792376D01*
X920596Y792340D01*
X920584Y792275D01*
X920614Y792155D01*
X920618Y792120D01*
X921513Y789959D01*
X921513Y787635D01*
X920618Y785474D01*
X920610Y785431D01*
X920593Y785391D01*
X920596Y785355D01*
X920584Y785290D01*
X920614Y785170D01*
X920618Y785135D01*
X921513Y782974D01*
X921513Y780650D01*
X920618Y778489D01*
X920615Y778474D01*
X920611Y778466D01*
X920609Y778443D01*
X920593Y778406D01*
X920596Y778370D01*
X920584Y778305D01*
X920614Y778185D01*
X920618Y778150D01*
X921513Y775989D01*
X921513Y773665D01*
X920618Y771504D01*
X920610Y771461D01*
X920593Y771421D01*
X920596Y771385D01*
X920584Y771320D01*
X920614Y771200D01*
X920618Y771165D01*
X921513Y769004D01*
X921513Y766680D01*
X920618Y764519D01*
X920610Y764476D01*
X920593Y764436D01*
X920596Y764400D01*
X920584Y764335D01*
X920614Y764215D01*
X920618Y764180D01*
X921513Y762019D01*
X921513Y759695D01*
X920618Y757534D01*
X920610Y757491D01*
X920593Y757451D01*
X920596Y757415D01*
X920584Y757350D01*
X920614Y757230D01*
X920618Y757195D01*
X921513Y755034D01*
X921513Y752710D01*
X920618Y750549D01*
X920614Y750528D01*
X920604Y750510D01*
X920602Y750488D01*
X920593Y750466D01*
X920596Y750430D01*
X920584Y750365D01*
X920590Y750342D01*
X920589Y750323D01*
X920609Y750266D01*
X920614Y750245D01*
X920618Y750210D01*
X921513Y748049D01*
X921513Y745725D01*
X920618Y743564D01*
X920610Y743521D01*
X920593Y743481D01*
X920596Y743445D01*
X920584Y743380D01*
X920614Y743260D01*
X920618Y743225D01*
X921513Y741064D01*
X921513Y738740D01*
X920618Y736579D01*
X920610Y736536D01*
X920593Y736496D01*
X920596Y736460D01*
X920584Y736395D01*
X920614Y736275D01*
X920618Y736240D01*
X921513Y734079D01*
X921513Y731755D01*
X920618Y729594D01*
X920610Y729551D01*
X920593Y729511D01*
X920596Y729475D01*
X920584Y729410D01*
X920614Y729290D01*
X920618Y729255D01*
X921513Y727094D01*
X921513Y724770D01*
X920618Y722609D01*
X920610Y722566D01*
X920593Y722526D01*
X920596Y722490D01*
X920584Y722425D01*
X920595Y722382D01*
X920594Y722367D01*
X920610Y722321D01*
X920614Y722305D01*
X920618Y722270D01*
X921513Y720109D01*
X921513Y717785D01*
X920618Y715624D01*
X920610Y715581D01*
X920593Y715541D01*
X920596Y715505D01*
X920584Y715440D01*
X920614Y715320D01*
X920618Y715285D01*
X921513Y713124D01*
X921513Y710800D01*
X920623Y708652D01*
X918980Y707009D01*
X916832Y706119D01*
X914508Y706119D01*
G37*
%LPD*%
G36*
X734690Y220101D02*
X734690Y220101D01*
X734734Y220100D01*
X734766Y220117D01*
X734770Y220118D01*
X780662Y220118D01*
X780772Y220102D01*
X780805Y220092D01*
X782003Y220092D01*
X782031Y220098D01*
X782060Y220096D01*
X782122Y220118D01*
X782186Y220131D01*
X782209Y220149D01*
X782237Y220159D01*
X782284Y220204D01*
X782336Y220243D01*
X782350Y220269D01*
X782371Y220289D01*
X782383Y220328D01*
X782427Y220407D01*
X782430Y220447D01*
X782435Y220456D01*
X782435Y220500D01*
X782446Y220536D01*
X782446Y220557D01*
X782441Y220579D01*
X782442Y220593D01*
X782437Y220608D01*
X782438Y220643D01*
X782421Y220675D01*
X782407Y220740D01*
X782333Y220839D01*
X782316Y220870D01*
X776391Y226796D01*
X776354Y226819D01*
X776324Y226851D01*
X776289Y226861D01*
X776233Y226897D01*
X776111Y226916D01*
X776077Y226926D01*
X771858Y226926D01*
X771021Y227763D01*
X769924Y228860D01*
X769924Y236792D01*
X769918Y236820D01*
X769920Y236849D01*
X769898Y236911D01*
X769884Y236975D01*
X769867Y236998D01*
X769857Y237026D01*
X769811Y237073D01*
X769773Y237125D01*
X769747Y237139D01*
X769727Y237160D01*
X769688Y237172D01*
X769609Y237216D01*
X769519Y237224D01*
X769480Y237235D01*
X767015Y237235D01*
X764857Y239393D01*
X764857Y240475D01*
X764851Y240503D01*
X764853Y240532D01*
X764831Y240594D01*
X764817Y240658D01*
X764800Y240681D01*
X764790Y240709D01*
X764744Y240756D01*
X764706Y240808D01*
X764680Y240822D01*
X764660Y240843D01*
X764621Y240855D01*
X764542Y240899D01*
X764452Y240907D01*
X764413Y240918D01*
X733171Y240918D01*
X733142Y240912D01*
X733113Y240914D01*
X733052Y240892D01*
X732988Y240879D01*
X732964Y240861D01*
X732937Y240851D01*
X732890Y240806D01*
X732837Y240767D01*
X732823Y240742D01*
X732802Y240721D01*
X732790Y240682D01*
X732746Y240603D01*
X732739Y240513D01*
X732727Y240475D01*
X732727Y220536D01*
X732733Y220507D01*
X732731Y220478D01*
X732753Y220416D01*
X732767Y220352D01*
X732784Y220329D01*
X732794Y220301D01*
X732840Y220254D01*
X732878Y220202D01*
X732904Y220188D01*
X732924Y220167D01*
X732963Y220155D01*
X733042Y220111D01*
X733132Y220103D01*
X733171Y220092D01*
X734648Y220092D01*
X734690Y220101D01*
G37*
%LPC*%
G36*
X868102Y825499D02*
X868102Y825499D01*
X865861Y826427D01*
X865854Y826435D01*
X865823Y826455D01*
X865799Y826482D01*
X865745Y826505D01*
X865696Y826537D01*
X865660Y826542D01*
X865627Y826556D01*
X865588Y826553D01*
X865511Y826564D01*
X865410Y826535D01*
X865370Y826531D01*
X863492Y825753D01*
X861168Y825753D01*
X859007Y826648D01*
X858964Y826656D01*
X858924Y826673D01*
X858888Y826670D01*
X858823Y826682D01*
X858703Y826652D01*
X858668Y826648D01*
X856507Y825753D01*
X854183Y825753D01*
X852022Y826648D01*
X851979Y826656D01*
X851939Y826673D01*
X851903Y826670D01*
X851838Y826682D01*
X851718Y826652D01*
X851683Y826648D01*
X849522Y825753D01*
X847198Y825753D01*
X845050Y826643D01*
X843407Y828286D01*
X842517Y830434D01*
X842517Y832758D01*
X843407Y834906D01*
X845050Y836549D01*
X847198Y837439D01*
X849522Y837439D01*
X851683Y836544D01*
X851726Y836536D01*
X851766Y836519D01*
X851802Y836522D01*
X851867Y836510D01*
X851987Y836540D01*
X852022Y836544D01*
X854183Y837439D01*
X856507Y837439D01*
X858668Y836544D01*
X858711Y836536D01*
X858751Y836519D01*
X858787Y836522D01*
X858852Y836510D01*
X858972Y836540D01*
X859007Y836544D01*
X861168Y837439D01*
X863492Y837439D01*
X865370Y836661D01*
X865406Y836654D01*
X865439Y836639D01*
X865498Y836638D01*
X865555Y836627D01*
X865590Y836636D01*
X865627Y836636D01*
X865661Y836654D01*
X865736Y836673D01*
X865819Y836738D01*
X865854Y836757D01*
X865861Y836765D01*
X868102Y837693D01*
X870528Y837693D01*
X872769Y836765D01*
X872776Y836757D01*
X872807Y836737D01*
X872831Y836710D01*
X872885Y836687D01*
X872934Y836655D01*
X872970Y836650D01*
X873003Y836636D01*
X873042Y836639D01*
X873119Y836628D01*
X873220Y836657D01*
X873260Y836661D01*
X875138Y837439D01*
X877462Y837439D01*
X879623Y836544D01*
X879666Y836536D01*
X879706Y836519D01*
X879742Y836522D01*
X879807Y836510D01*
X879927Y836540D01*
X879962Y836544D01*
X882123Y837439D01*
X884447Y837439D01*
X886608Y836544D01*
X886651Y836536D01*
X886691Y836519D01*
X886727Y836522D01*
X886792Y836510D01*
X886912Y836540D01*
X886947Y836544D01*
X889108Y837439D01*
X891432Y837439D01*
X893593Y836544D01*
X893636Y836536D01*
X893676Y836519D01*
X893712Y836522D01*
X893777Y836510D01*
X893897Y836540D01*
X893932Y836544D01*
X896093Y837439D01*
X898417Y837439D01*
X900578Y836544D01*
X900621Y836536D01*
X900661Y836519D01*
X900697Y836522D01*
X900762Y836510D01*
X900882Y836540D01*
X900917Y836544D01*
X903078Y837439D01*
X905402Y837439D01*
X907563Y836544D01*
X907606Y836536D01*
X907646Y836519D01*
X907682Y836522D01*
X907747Y836510D01*
X907867Y836540D01*
X907902Y836544D01*
X910063Y837439D01*
X912387Y837439D01*
X914535Y836549D01*
X916178Y834906D01*
X917068Y832758D01*
X917068Y830434D01*
X916178Y828286D01*
X914535Y826643D01*
X912387Y825753D01*
X910063Y825753D01*
X907902Y826648D01*
X907859Y826656D01*
X907819Y826673D01*
X907783Y826670D01*
X907718Y826682D01*
X907598Y826652D01*
X907563Y826648D01*
X905402Y825753D01*
X903078Y825753D01*
X900917Y826648D01*
X900874Y826656D01*
X900834Y826673D01*
X900798Y826670D01*
X900733Y826682D01*
X900613Y826652D01*
X900578Y826648D01*
X898417Y825753D01*
X896093Y825753D01*
X893932Y826648D01*
X893889Y826656D01*
X893849Y826673D01*
X893813Y826670D01*
X893748Y826682D01*
X893628Y826652D01*
X893593Y826648D01*
X891432Y825753D01*
X889108Y825753D01*
X886947Y826648D01*
X886904Y826656D01*
X886864Y826673D01*
X886828Y826670D01*
X886763Y826682D01*
X886643Y826652D01*
X886608Y826648D01*
X884447Y825753D01*
X882123Y825753D01*
X879962Y826648D01*
X879919Y826656D01*
X879879Y826673D01*
X879843Y826670D01*
X879778Y826682D01*
X879658Y826652D01*
X879623Y826648D01*
X877462Y825753D01*
X875138Y825753D01*
X873260Y826531D01*
X873224Y826538D01*
X873191Y826553D01*
X873132Y826554D01*
X873075Y826565D01*
X873040Y826556D01*
X873003Y826556D01*
X872969Y826538D01*
X872894Y826519D01*
X872811Y826454D01*
X872776Y826435D01*
X872769Y826427D01*
X870528Y825499D01*
X868102Y825499D01*
G37*
%LPD*%
%LPC*%
G36*
X143745Y613536D02*
X143745Y613536D01*
X141597Y614426D01*
X139954Y616069D01*
X139064Y618217D01*
X139064Y620541D01*
X139959Y622702D01*
X139967Y622745D01*
X139984Y622785D01*
X139981Y622821D01*
X139993Y622886D01*
X139963Y623006D01*
X139959Y623041D01*
X139064Y625202D01*
X139064Y627526D01*
X139959Y629687D01*
X139967Y629730D01*
X139984Y629770D01*
X139981Y629806D01*
X139993Y629871D01*
X139963Y629991D01*
X139959Y630026D01*
X139064Y632187D01*
X139064Y634511D01*
X139959Y636672D01*
X139967Y636715D01*
X139984Y636755D01*
X139981Y636791D01*
X139993Y636856D01*
X139963Y636976D01*
X139959Y637011D01*
X139064Y639172D01*
X139064Y641496D01*
X139959Y643657D01*
X139967Y643700D01*
X139984Y643740D01*
X139981Y643776D01*
X139993Y643841D01*
X139963Y643961D01*
X139959Y643996D01*
X139064Y646157D01*
X139064Y648481D01*
X139959Y650642D01*
X139967Y650685D01*
X139984Y650725D01*
X139981Y650761D01*
X139993Y650826D01*
X139963Y650946D01*
X139959Y650981D01*
X139064Y653142D01*
X139064Y655466D01*
X139959Y657627D01*
X139967Y657670D01*
X139984Y657710D01*
X139981Y657746D01*
X139993Y657811D01*
X139963Y657931D01*
X139959Y657966D01*
X139064Y660127D01*
X139064Y662451D01*
X139959Y664612D01*
X139967Y664655D01*
X139984Y664695D01*
X139981Y664731D01*
X139993Y664796D01*
X139963Y664916D01*
X139959Y664951D01*
X139064Y667112D01*
X139064Y669436D01*
X139959Y671597D01*
X139967Y671640D01*
X139984Y671680D01*
X139981Y671716D01*
X139993Y671781D01*
X139963Y671901D01*
X139959Y671936D01*
X139064Y674097D01*
X139064Y676421D01*
X139959Y678582D01*
X139967Y678625D01*
X139984Y678665D01*
X139981Y678701D01*
X139993Y678766D01*
X139963Y678886D01*
X139959Y678921D01*
X139064Y681082D01*
X139064Y683406D01*
X139954Y685554D01*
X141597Y687197D01*
X143745Y688087D01*
X146069Y688087D01*
X148217Y687197D01*
X149860Y685554D01*
X150750Y683406D01*
X150750Y681082D01*
X149855Y678921D01*
X149847Y678878D01*
X149830Y678838D01*
X149833Y678802D01*
X149821Y678737D01*
X149851Y678617D01*
X149855Y678582D01*
X150750Y676421D01*
X150750Y674097D01*
X149855Y671936D01*
X149847Y671893D01*
X149830Y671853D01*
X149833Y671817D01*
X149821Y671752D01*
X149851Y671632D01*
X149855Y671597D01*
X150750Y669436D01*
X150750Y667112D01*
X149855Y664951D01*
X149847Y664908D01*
X149830Y664868D01*
X149833Y664832D01*
X149821Y664767D01*
X149843Y664680D01*
X149843Y664679D01*
X149851Y664647D01*
X149855Y664612D01*
X150750Y662451D01*
X150750Y660127D01*
X149855Y657966D01*
X149847Y657923D01*
X149830Y657883D01*
X149833Y657847D01*
X149821Y657782D01*
X149851Y657662D01*
X149855Y657627D01*
X150750Y655466D01*
X150750Y653142D01*
X149855Y650981D01*
X149847Y650938D01*
X149830Y650898D01*
X149833Y650862D01*
X149821Y650797D01*
X149851Y650677D01*
X149855Y650642D01*
X150750Y648481D01*
X150750Y646157D01*
X149855Y643996D01*
X149847Y643953D01*
X149830Y643913D01*
X149833Y643877D01*
X149821Y643812D01*
X149851Y643692D01*
X149855Y643657D01*
X150750Y641496D01*
X150750Y639172D01*
X149855Y637011D01*
X149847Y636968D01*
X149830Y636928D01*
X149833Y636892D01*
X149821Y636827D01*
X149851Y636707D01*
X149855Y636672D01*
X150750Y634511D01*
X150750Y632187D01*
X149855Y630026D01*
X149847Y629983D01*
X149830Y629943D01*
X149833Y629907D01*
X149821Y629842D01*
X149851Y629722D01*
X149855Y629687D01*
X150750Y627526D01*
X150750Y625202D01*
X149855Y623041D01*
X149847Y622998D01*
X149830Y622958D01*
X149833Y622922D01*
X149821Y622857D01*
X149851Y622737D01*
X149855Y622702D01*
X150750Y620541D01*
X150750Y618217D01*
X149860Y616069D01*
X148217Y614426D01*
X146069Y613536D01*
X143745Y613536D01*
G37*
%LPD*%
%LPC*%
G36*
X467595Y613536D02*
X467595Y613536D01*
X465447Y614426D01*
X463804Y616069D01*
X462914Y618217D01*
X462914Y620541D01*
X463809Y622702D01*
X463817Y622745D01*
X463834Y622785D01*
X463831Y622821D01*
X463843Y622886D01*
X463813Y623006D01*
X463809Y623041D01*
X462914Y625202D01*
X462914Y627526D01*
X463809Y629687D01*
X463817Y629730D01*
X463834Y629770D01*
X463831Y629806D01*
X463843Y629871D01*
X463813Y629991D01*
X463809Y630026D01*
X462914Y632187D01*
X462914Y634511D01*
X463809Y636672D01*
X463817Y636715D01*
X463834Y636755D01*
X463831Y636791D01*
X463843Y636856D01*
X463813Y636976D01*
X463809Y637011D01*
X462914Y639172D01*
X462914Y641496D01*
X463809Y643657D01*
X463817Y643700D01*
X463834Y643740D01*
X463831Y643776D01*
X463843Y643841D01*
X463813Y643961D01*
X463809Y643996D01*
X462914Y646157D01*
X462914Y648481D01*
X463809Y650642D01*
X463817Y650685D01*
X463834Y650725D01*
X463831Y650761D01*
X463843Y650826D01*
X463813Y650946D01*
X463809Y650981D01*
X462914Y653142D01*
X462914Y655466D01*
X463809Y657627D01*
X463817Y657670D01*
X463834Y657710D01*
X463831Y657746D01*
X463843Y657811D01*
X463813Y657931D01*
X463809Y657966D01*
X462914Y660127D01*
X462914Y662451D01*
X463809Y664612D01*
X463817Y664655D01*
X463834Y664695D01*
X463831Y664731D01*
X463843Y664796D01*
X463813Y664916D01*
X463809Y664951D01*
X462914Y667112D01*
X462914Y669436D01*
X463809Y671597D01*
X463817Y671640D01*
X463834Y671680D01*
X463831Y671716D01*
X463843Y671781D01*
X463813Y671901D01*
X463809Y671936D01*
X462914Y674097D01*
X462914Y676421D01*
X463809Y678582D01*
X463817Y678625D01*
X463834Y678665D01*
X463831Y678701D01*
X463843Y678766D01*
X463813Y678886D01*
X463809Y678921D01*
X462914Y681082D01*
X462914Y683406D01*
X463804Y685554D01*
X465447Y687197D01*
X467595Y688087D01*
X469919Y688087D01*
X472067Y687197D01*
X473710Y685554D01*
X474600Y683406D01*
X474600Y681082D01*
X473705Y678921D01*
X473697Y678878D01*
X473680Y678838D01*
X473683Y678802D01*
X473671Y678737D01*
X473701Y678617D01*
X473705Y678582D01*
X474600Y676421D01*
X474600Y674097D01*
X473705Y671936D01*
X473697Y671893D01*
X473680Y671853D01*
X473683Y671817D01*
X473671Y671752D01*
X473701Y671632D01*
X473705Y671597D01*
X474600Y669436D01*
X474600Y667112D01*
X473705Y664951D01*
X473697Y664908D01*
X473680Y664868D01*
X473683Y664832D01*
X473671Y664767D01*
X473693Y664680D01*
X473693Y664679D01*
X473701Y664647D01*
X473705Y664612D01*
X474600Y662451D01*
X474600Y660127D01*
X473705Y657966D01*
X473697Y657923D01*
X473680Y657883D01*
X473683Y657847D01*
X473671Y657782D01*
X473701Y657662D01*
X473705Y657627D01*
X474600Y655466D01*
X474600Y653142D01*
X473705Y650981D01*
X473697Y650938D01*
X473680Y650898D01*
X473683Y650862D01*
X473671Y650797D01*
X473701Y650677D01*
X473705Y650642D01*
X474600Y648481D01*
X474600Y646157D01*
X473705Y643996D01*
X473697Y643953D01*
X473680Y643913D01*
X473683Y643877D01*
X473671Y643812D01*
X473701Y643692D01*
X473705Y643657D01*
X474600Y641496D01*
X474600Y639172D01*
X473705Y637011D01*
X473697Y636968D01*
X473680Y636928D01*
X473683Y636892D01*
X473671Y636827D01*
X473701Y636707D01*
X473705Y636672D01*
X474600Y634511D01*
X474600Y632187D01*
X473705Y630026D01*
X473697Y629983D01*
X473680Y629943D01*
X473683Y629907D01*
X473671Y629842D01*
X473701Y629722D01*
X473705Y629687D01*
X474600Y627526D01*
X474600Y625202D01*
X473705Y623041D01*
X473697Y622998D01*
X473680Y622958D01*
X473683Y622922D01*
X473671Y622857D01*
X473701Y622737D01*
X473705Y622702D01*
X474600Y620541D01*
X474600Y618217D01*
X473710Y616069D01*
X472067Y614426D01*
X469919Y613536D01*
X467595Y613536D01*
G37*
%LPD*%
G36*
X787459Y220101D02*
X787459Y220101D01*
X787503Y220100D01*
X787535Y220117D01*
X787539Y220118D01*
X833249Y220118D01*
X833278Y220124D01*
X833307Y220122D01*
X833368Y220144D01*
X833432Y220158D01*
X833456Y220175D01*
X833483Y220185D01*
X833530Y220231D01*
X833583Y220269D01*
X833597Y220295D01*
X833618Y220315D01*
X833630Y220354D01*
X833674Y220433D01*
X833681Y220523D01*
X833693Y220562D01*
X833693Y222346D01*
X833689Y222365D01*
X833689Y222368D01*
X833687Y222375D01*
X833684Y222389D01*
X833684Y222433D01*
X833667Y222465D01*
X833653Y222530D01*
X833580Y222629D01*
X833563Y222660D01*
X832045Y224178D01*
X832008Y224201D01*
X831978Y224233D01*
X831943Y224243D01*
X831888Y224279D01*
X831765Y224298D01*
X831731Y224308D01*
X823800Y224308D01*
X822702Y225405D01*
X821362Y226746D01*
X820264Y227843D01*
X820264Y235774D01*
X820255Y235817D01*
X820256Y235861D01*
X820239Y235893D01*
X820225Y235958D01*
X820151Y236057D01*
X820134Y236088D01*
X819125Y237098D01*
X819088Y237121D01*
X819058Y237153D01*
X819023Y237163D01*
X818967Y237199D01*
X818845Y237218D01*
X818811Y237228D01*
X818624Y237228D01*
X818600Y237235D01*
X815910Y237235D01*
X815405Y237740D01*
X815370Y237762D01*
X815366Y237767D01*
X815365Y237767D01*
X815337Y237795D01*
X815303Y237806D01*
X815247Y237842D01*
X815125Y237860D01*
X815091Y237870D01*
X812795Y237870D01*
X812752Y237861D01*
X812709Y237862D01*
X812677Y237845D01*
X812612Y237831D01*
X812513Y237757D01*
X812481Y237740D01*
X811976Y237235D01*
X808925Y237235D01*
X808420Y237740D01*
X808385Y237762D01*
X808381Y237767D01*
X808380Y237767D01*
X808352Y237795D01*
X808318Y237806D01*
X808262Y237842D01*
X808140Y237860D01*
X808106Y237870D01*
X805810Y237870D01*
X805767Y237861D01*
X805724Y237862D01*
X805692Y237845D01*
X805627Y237831D01*
X805528Y237757D01*
X805496Y237740D01*
X804991Y237235D01*
X801940Y237235D01*
X801435Y237740D01*
X801400Y237762D01*
X801396Y237767D01*
X801395Y237767D01*
X801367Y237795D01*
X801333Y237806D01*
X801277Y237842D01*
X801155Y237860D01*
X801121Y237870D01*
X791840Y237870D01*
X791797Y237861D01*
X791754Y237862D01*
X791722Y237845D01*
X791657Y237831D01*
X791558Y237757D01*
X791526Y237740D01*
X791021Y237235D01*
X787970Y237235D01*
X787465Y237740D01*
X787430Y237762D01*
X787426Y237767D01*
X787425Y237767D01*
X787397Y237795D01*
X787363Y237806D01*
X787307Y237842D01*
X787185Y237860D01*
X787151Y237870D01*
X785305Y237870D01*
X785276Y237864D01*
X785247Y237866D01*
X785185Y237844D01*
X785121Y237831D01*
X785098Y237813D01*
X785070Y237803D01*
X785023Y237758D01*
X784971Y237719D01*
X784957Y237694D01*
X784936Y237673D01*
X784924Y237634D01*
X784880Y237555D01*
X784872Y237465D01*
X784861Y237427D01*
X784861Y223181D01*
X784866Y223157D01*
X784865Y223140D01*
X784870Y223126D01*
X784869Y223095D01*
X784886Y223063D01*
X784900Y222998D01*
X784974Y222899D01*
X784991Y222868D01*
X785750Y222109D01*
X785750Y220536D01*
X785756Y220507D01*
X785754Y220478D01*
X785776Y220416D01*
X785789Y220352D01*
X785807Y220329D01*
X785817Y220301D01*
X785862Y220254D01*
X785901Y220202D01*
X785926Y220188D01*
X785947Y220167D01*
X785986Y220155D01*
X786065Y220111D01*
X786155Y220103D01*
X786193Y220092D01*
X787416Y220092D01*
X787459Y220101D01*
G37*
G36*
X875828Y222540D02*
X875828Y222540D01*
X875872Y222540D01*
X875904Y222557D01*
X875969Y222571D01*
X876068Y222644D01*
X876099Y222661D01*
X880482Y227044D01*
X880505Y227080D01*
X880537Y227111D01*
X880547Y227146D01*
X880583Y227201D01*
X880602Y227324D01*
X880612Y227357D01*
X880612Y228895D01*
X880606Y228924D01*
X880608Y228953D01*
X880586Y229014D01*
X880572Y229078D01*
X880555Y229102D01*
X880545Y229129D01*
X880499Y229176D01*
X880461Y229229D01*
X880435Y229243D01*
X880415Y229264D01*
X880376Y229276D01*
X880297Y229320D01*
X880207Y229327D01*
X880168Y229339D01*
X878395Y229339D01*
X877874Y229860D01*
X877874Y237363D01*
X877868Y237392D01*
X877870Y237421D01*
X877848Y237482D01*
X877834Y237546D01*
X877817Y237570D01*
X877807Y237597D01*
X877761Y237644D01*
X877723Y237697D01*
X877697Y237711D01*
X877677Y237732D01*
X877638Y237744D01*
X877559Y237788D01*
X877469Y237795D01*
X877430Y237807D01*
X854642Y237807D01*
X854599Y237798D01*
X854555Y237798D01*
X854523Y237781D01*
X854459Y237767D01*
X854359Y237694D01*
X854328Y237677D01*
X853886Y237235D01*
X850835Y237235D01*
X850393Y237677D01*
X850356Y237701D01*
X850326Y237732D01*
X850291Y237742D01*
X850236Y237778D01*
X850113Y237797D01*
X850079Y237807D01*
X840672Y237807D01*
X840629Y237798D01*
X840585Y237798D01*
X840553Y237781D01*
X840489Y237767D01*
X840389Y237694D01*
X840358Y237677D01*
X840172Y237491D01*
X840161Y237474D01*
X840152Y237468D01*
X840141Y237447D01*
X840117Y237424D01*
X840107Y237389D01*
X840071Y237334D01*
X840068Y237316D01*
X840061Y237304D01*
X840055Y237230D01*
X840052Y237211D01*
X840042Y237177D01*
X840042Y227861D01*
X840051Y227819D01*
X840051Y227775D01*
X840068Y227743D01*
X840082Y227678D01*
X840106Y227646D01*
X840114Y227622D01*
X840154Y227581D01*
X840155Y227579D01*
X840172Y227548D01*
X845059Y222661D01*
X845095Y222638D01*
X845126Y222606D01*
X845160Y222596D01*
X845216Y222560D01*
X845339Y222541D01*
X845372Y222531D01*
X875786Y222531D01*
X875828Y222540D01*
G37*
G36*
X746905Y282196D02*
X746905Y282196D01*
X746948Y282196D01*
X746980Y282213D01*
X747045Y282227D01*
X747144Y282300D01*
X747176Y282317D01*
X753332Y288474D01*
X756069Y288474D01*
X756112Y288483D01*
X756156Y288482D01*
X756188Y288499D01*
X756253Y288513D01*
X756352Y288587D01*
X756383Y288604D01*
X756757Y288978D01*
X756781Y289015D01*
X756812Y289045D01*
X756823Y289080D01*
X756859Y289135D01*
X756877Y289258D01*
X756887Y289292D01*
X756887Y295014D01*
X756881Y295042D01*
X756883Y295071D01*
X756861Y295133D01*
X756848Y295197D01*
X756830Y295220D01*
X756820Y295248D01*
X756775Y295295D01*
X756736Y295347D01*
X756711Y295361D01*
X756690Y295382D01*
X756651Y295394D01*
X756572Y295438D01*
X756482Y295446D01*
X756444Y295457D01*
X750696Y295457D01*
X750667Y295451D01*
X750638Y295453D01*
X750577Y295431D01*
X750513Y295418D01*
X750489Y295400D01*
X750462Y295390D01*
X750415Y295345D01*
X750362Y295306D01*
X750348Y295281D01*
X750327Y295260D01*
X750315Y295221D01*
X750271Y295142D01*
X750264Y295052D01*
X750252Y295014D01*
X750252Y288104D01*
X749731Y287583D01*
X742994Y287583D01*
X742473Y288104D01*
X742473Y326962D01*
X742467Y326990D01*
X742469Y327019D01*
X742447Y327081D01*
X742433Y327145D01*
X742416Y327168D01*
X742406Y327196D01*
X742360Y327243D01*
X742322Y327295D01*
X742296Y327309D01*
X742276Y327330D01*
X742237Y327342D01*
X742158Y327386D01*
X742068Y327394D01*
X742029Y327405D01*
X733362Y327405D01*
X733333Y327399D01*
X733304Y327401D01*
X733242Y327379D01*
X733178Y327366D01*
X733155Y327348D01*
X733127Y327338D01*
X733080Y327293D01*
X733028Y327254D01*
X733014Y327229D01*
X732993Y327208D01*
X732981Y327169D01*
X732937Y327090D01*
X732929Y327000D01*
X732918Y326962D01*
X732918Y285329D01*
X732924Y285300D01*
X732922Y285271D01*
X732944Y285210D01*
X732957Y285146D01*
X732975Y285122D01*
X732985Y285095D01*
X733030Y285048D01*
X733069Y284995D01*
X733095Y284981D01*
X733115Y284960D01*
X733154Y284948D01*
X733233Y284904D01*
X733323Y284897D01*
X733362Y284885D01*
X743734Y284885D01*
X744255Y284364D01*
X744255Y282631D01*
X744261Y282602D01*
X744259Y282573D01*
X744281Y282512D01*
X744295Y282448D01*
X744312Y282424D01*
X744322Y282397D01*
X744368Y282350D01*
X744406Y282297D01*
X744432Y282283D01*
X744452Y282262D01*
X744491Y282250D01*
X744570Y282206D01*
X744660Y282199D01*
X744699Y282187D01*
X746862Y282187D01*
X746905Y282196D01*
G37*
%LPC*%
G36*
X554236Y509523D02*
X554236Y509523D01*
X547242Y516517D01*
X547242Y526407D01*
X554236Y533401D01*
X564126Y533401D01*
X571120Y526407D01*
X571120Y516517D01*
X564126Y509523D01*
X554236Y509523D01*
G37*
%LPD*%
%LPC*%
G36*
X528836Y509523D02*
X528836Y509523D01*
X521842Y516517D01*
X521842Y526407D01*
X528836Y533401D01*
X538726Y533401D01*
X545720Y526407D01*
X545720Y516517D01*
X538726Y509523D01*
X528836Y509523D01*
G37*
%LPD*%
%LPC*%
G36*
X503436Y509523D02*
X503436Y509523D01*
X496442Y516517D01*
X496442Y526407D01*
X503436Y533401D01*
X513326Y533401D01*
X520320Y526407D01*
X520320Y516517D01*
X513326Y509523D01*
X503436Y509523D01*
G37*
%LPD*%
%LPC*%
G36*
X579636Y509523D02*
X579636Y509523D01*
X572642Y516517D01*
X572642Y526407D01*
X579636Y533401D01*
X589526Y533401D01*
X596520Y526407D01*
X596520Y516517D01*
X589526Y509523D01*
X579636Y509523D01*
G37*
%LPD*%
%LPC*%
G36*
X331986Y509523D02*
X331986Y509523D01*
X324992Y516517D01*
X324992Y526407D01*
X331986Y533401D01*
X341876Y533401D01*
X348870Y526407D01*
X348870Y516517D01*
X341876Y509523D01*
X331986Y509523D01*
G37*
%LPD*%
%LPC*%
G36*
X281186Y509523D02*
X281186Y509523D01*
X274192Y516517D01*
X274192Y526407D01*
X281186Y533401D01*
X291076Y533401D01*
X298070Y526407D01*
X298070Y516517D01*
X291076Y509523D01*
X281186Y509523D01*
G37*
%LPD*%
%LPC*%
G36*
X230386Y509523D02*
X230386Y509523D01*
X223392Y516517D01*
X223392Y526407D01*
X230386Y533401D01*
X240276Y533401D01*
X247270Y526407D01*
X247270Y516517D01*
X240276Y509523D01*
X230386Y509523D01*
G37*
%LPD*%
%LPC*%
G36*
X154186Y509523D02*
X154186Y509523D01*
X147192Y516517D01*
X147192Y526407D01*
X154186Y533401D01*
X164076Y533401D01*
X171070Y526407D01*
X171070Y516517D01*
X164076Y509523D01*
X154186Y509523D01*
G37*
%LPD*%
%LPC*%
G36*
X940697Y538733D02*
X940697Y538733D01*
X933703Y545727D01*
X933703Y555617D01*
X940697Y562611D01*
X950587Y562611D01*
X957581Y555617D01*
X957581Y545727D01*
X950587Y538733D01*
X940697Y538733D01*
G37*
%LPD*%
%LPC*%
G36*
X915297Y538733D02*
X915297Y538733D01*
X908303Y545727D01*
X908303Y555617D01*
X915297Y562611D01*
X925187Y562611D01*
X932181Y555617D01*
X932181Y545727D01*
X925187Y538733D01*
X915297Y538733D01*
G37*
%LPD*%
%LPC*%
G36*
X889897Y538733D02*
X889897Y538733D01*
X882903Y545727D01*
X882903Y555617D01*
X889897Y562611D01*
X899787Y562611D01*
X906781Y555617D01*
X906781Y545727D01*
X899787Y538733D01*
X889897Y538733D01*
G37*
%LPD*%
%LPC*%
G36*
X966097Y538733D02*
X966097Y538733D01*
X959103Y545727D01*
X959103Y555617D01*
X966097Y562611D01*
X975987Y562611D01*
X982981Y555617D01*
X982981Y545727D01*
X975987Y538733D01*
X966097Y538733D01*
G37*
%LPD*%
%LPC*%
G36*
X128786Y509523D02*
X128786Y509523D01*
X121792Y516517D01*
X121792Y526407D01*
X128786Y533401D01*
X138676Y533401D01*
X145670Y526407D01*
X145670Y516517D01*
X138676Y509523D01*
X128786Y509523D01*
G37*
%LPD*%
%LPC*%
G36*
X103386Y509523D02*
X103386Y509523D01*
X96392Y516517D01*
X96392Y526407D01*
X103386Y533401D01*
X113276Y533401D01*
X120270Y526407D01*
X120270Y516517D01*
X113276Y509523D01*
X103386Y509523D01*
G37*
%LPD*%
%LPC*%
G36*
X478036Y509523D02*
X478036Y509523D01*
X471042Y516517D01*
X471042Y526407D01*
X478036Y533401D01*
X487926Y533401D01*
X494920Y526407D01*
X494920Y516517D01*
X487926Y509523D01*
X478036Y509523D01*
G37*
%LPD*%
%LPC*%
G36*
X204986Y509523D02*
X204986Y509523D01*
X197992Y516517D01*
X197992Y526407D01*
X204986Y533401D01*
X214876Y533401D01*
X221870Y526407D01*
X221870Y516517D01*
X214876Y509523D01*
X204986Y509523D01*
G37*
%LPD*%
%LPC*%
G36*
X452636Y509523D02*
X452636Y509523D01*
X445642Y516517D01*
X445642Y526407D01*
X452636Y533401D01*
X462526Y533401D01*
X469520Y526407D01*
X469520Y516517D01*
X462526Y509523D01*
X452636Y509523D01*
G37*
%LPD*%
%LPC*%
G36*
X427236Y509523D02*
X427236Y509523D01*
X420242Y516517D01*
X420242Y526407D01*
X427236Y533401D01*
X437126Y533401D01*
X444120Y526407D01*
X444120Y516517D01*
X437126Y509523D01*
X427236Y509523D01*
G37*
%LPD*%
%LPC*%
G36*
X179586Y509523D02*
X179586Y509523D01*
X172592Y516517D01*
X172592Y526407D01*
X179586Y533401D01*
X189476Y533401D01*
X196470Y526407D01*
X196470Y516517D01*
X189476Y509523D01*
X179586Y509523D01*
G37*
%LPD*%
%LPC*%
G36*
X255786Y509523D02*
X255786Y509523D01*
X248792Y516517D01*
X248792Y526407D01*
X255786Y533401D01*
X265676Y533401D01*
X272670Y526407D01*
X272670Y516517D01*
X265676Y509523D01*
X255786Y509523D01*
G37*
%LPD*%
%LPC*%
G36*
X605036Y509523D02*
X605036Y509523D01*
X598042Y516517D01*
X598042Y526407D01*
X605036Y533401D01*
X614926Y533401D01*
X621920Y526407D01*
X621920Y516517D01*
X614926Y509523D01*
X605036Y509523D01*
G37*
%LPD*%
%LPC*%
G36*
X655836Y509523D02*
X655836Y509523D01*
X648842Y516517D01*
X648842Y526407D01*
X655836Y533401D01*
X665726Y533401D01*
X672720Y526407D01*
X672720Y516517D01*
X665726Y509523D01*
X655836Y509523D01*
G37*
%LPD*%
%LPC*%
G36*
X630436Y509523D02*
X630436Y509523D01*
X623442Y516517D01*
X623442Y526407D01*
X630436Y533401D01*
X640326Y533401D01*
X647320Y526407D01*
X647320Y516517D01*
X640326Y509523D01*
X630436Y509523D01*
G37*
%LPD*%
%LPC*%
G36*
X306586Y509523D02*
X306586Y509523D01*
X299592Y516517D01*
X299592Y526407D01*
X306586Y533401D01*
X316476Y533401D01*
X323470Y526407D01*
X323470Y516517D01*
X316476Y509523D01*
X306586Y509523D01*
G37*
%LPD*%
%LPC*%
G36*
X966307Y869441D02*
X966307Y869441D01*
X959611Y876137D01*
X959611Y885607D01*
X966307Y892303D01*
X975777Y892303D01*
X982473Y885607D01*
X982473Y876137D01*
X975777Y869441D01*
X966307Y869441D01*
G37*
%LPD*%
%LPC*%
G36*
X940907Y869441D02*
X940907Y869441D01*
X934211Y876137D01*
X934211Y885607D01*
X940907Y892303D01*
X950377Y892303D01*
X957073Y885607D01*
X957073Y876137D01*
X950377Y869441D01*
X940907Y869441D01*
G37*
%LPD*%
%LPC*%
G36*
X915507Y869441D02*
X915507Y869441D01*
X908811Y876137D01*
X908811Y885607D01*
X915507Y892303D01*
X924977Y892303D01*
X931673Y885607D01*
X931673Y876137D01*
X924977Y869441D01*
X915507Y869441D01*
G37*
%LPD*%
%LPC*%
G36*
X890107Y869441D02*
X890107Y869441D01*
X883411Y876137D01*
X883411Y885607D01*
X890107Y892303D01*
X899577Y892303D01*
X906273Y885607D01*
X906273Y876137D01*
X899577Y869441D01*
X890107Y869441D01*
G37*
%LPD*%
%LPC*%
G36*
X864707Y869441D02*
X864707Y869441D01*
X858011Y876137D01*
X858011Y885607D01*
X864707Y892303D01*
X874177Y892303D01*
X880873Y885607D01*
X880873Y876137D01*
X874177Y869441D01*
X864707Y869441D01*
G37*
%LPD*%
%LPC*%
G36*
X839307Y869441D02*
X839307Y869441D01*
X832611Y876137D01*
X832611Y885607D01*
X839307Y892303D01*
X848777Y892303D01*
X855473Y885607D01*
X855473Y876137D01*
X848777Y869441D01*
X839307Y869441D01*
G37*
%LPD*%
%LPC*%
G36*
X915507Y844041D02*
X915507Y844041D01*
X908811Y850737D01*
X908811Y860207D01*
X915507Y866903D01*
X924977Y866903D01*
X931673Y860207D01*
X931673Y850737D01*
X924977Y844041D01*
X915507Y844041D01*
G37*
%LPD*%
%LPC*%
G36*
X966307Y844041D02*
X966307Y844041D01*
X959611Y850737D01*
X959611Y860207D01*
X966307Y866903D01*
X975777Y866903D01*
X982473Y860207D01*
X982473Y850737D01*
X975777Y844041D01*
X966307Y844041D01*
G37*
%LPD*%
%LPC*%
G36*
X940907Y844041D02*
X940907Y844041D01*
X934211Y850737D01*
X934211Y860207D01*
X940907Y866903D01*
X950377Y866903D01*
X957073Y860207D01*
X957073Y850737D01*
X950377Y844041D01*
X940907Y844041D01*
G37*
%LPD*%
%LPC*%
G36*
X839307Y844041D02*
X839307Y844041D01*
X832611Y850737D01*
X832611Y860207D01*
X839307Y866903D01*
X848777Y866903D01*
X855473Y860207D01*
X855473Y850737D01*
X848777Y844041D01*
X839307Y844041D01*
G37*
%LPD*%
%LPC*%
G36*
X864707Y844041D02*
X864707Y844041D01*
X858011Y850737D01*
X858011Y860207D01*
X864707Y866903D01*
X874177Y866903D01*
X880873Y860207D01*
X880873Y850737D01*
X874177Y844041D01*
X864707Y844041D01*
G37*
%LPD*%
%LPC*%
G36*
X940907Y691641D02*
X940907Y691641D01*
X934211Y698337D01*
X934211Y707807D01*
X940907Y714503D01*
X950377Y714503D01*
X957073Y707807D01*
X957073Y698337D01*
X950377Y691641D01*
X940907Y691641D01*
G37*
%LPD*%
%LPC*%
G36*
X966307Y691641D02*
X966307Y691641D01*
X959611Y698337D01*
X959611Y707807D01*
X966307Y714503D01*
X975777Y714503D01*
X982473Y707807D01*
X982473Y698337D01*
X975777Y691641D01*
X966307Y691641D01*
G37*
%LPD*%
%LPC*%
G36*
X890107Y844041D02*
X890107Y844041D01*
X883411Y850737D01*
X883411Y860207D01*
X890107Y866903D01*
X899577Y866903D01*
X906273Y860207D01*
X906273Y850737D01*
X899577Y844041D01*
X890107Y844041D01*
G37*
%LPD*%
%LPC*%
G36*
X966307Y818641D02*
X966307Y818641D01*
X959611Y825337D01*
X959611Y834807D01*
X966307Y841503D01*
X975777Y841503D01*
X982473Y834807D01*
X982473Y825337D01*
X975777Y818641D01*
X966307Y818641D01*
G37*
%LPD*%
%LPC*%
G36*
X940907Y818641D02*
X940907Y818641D01*
X934211Y825337D01*
X934211Y834807D01*
X940907Y841503D01*
X950377Y841503D01*
X957073Y834807D01*
X957073Y825337D01*
X950377Y818641D01*
X940907Y818641D01*
G37*
%LPD*%
%LPC*%
G36*
X966307Y793241D02*
X966307Y793241D01*
X959611Y799937D01*
X959611Y809407D01*
X966307Y816103D01*
X975777Y816103D01*
X982473Y809407D01*
X982473Y799937D01*
X975777Y793241D01*
X966307Y793241D01*
G37*
%LPD*%
%LPC*%
G36*
X940907Y767841D02*
X940907Y767841D01*
X934211Y774537D01*
X934211Y784007D01*
X940907Y790703D01*
X950377Y790703D01*
X957073Y784007D01*
X957073Y774537D01*
X950377Y767841D01*
X940907Y767841D01*
G37*
%LPD*%
%LPC*%
G36*
X940907Y793241D02*
X940907Y793241D01*
X934211Y799937D01*
X934211Y809407D01*
X940907Y816103D01*
X950377Y816103D01*
X957073Y809407D01*
X957073Y799937D01*
X950377Y793241D01*
X940907Y793241D01*
G37*
%LPD*%
%LPC*%
G36*
X966307Y767841D02*
X966307Y767841D01*
X959611Y774537D01*
X959611Y784007D01*
X966307Y790703D01*
X975777Y790703D01*
X982473Y784007D01*
X982473Y774537D01*
X975777Y767841D01*
X966307Y767841D01*
G37*
%LPD*%
%LPC*%
G36*
X966307Y742441D02*
X966307Y742441D01*
X959611Y749137D01*
X959611Y758607D01*
X966307Y765303D01*
X975777Y765303D01*
X982473Y758607D01*
X982473Y749137D01*
X975777Y742441D01*
X966307Y742441D01*
G37*
%LPD*%
%LPC*%
G36*
X940907Y717041D02*
X940907Y717041D01*
X934211Y723737D01*
X934211Y733207D01*
X940907Y739903D01*
X950377Y739903D01*
X957073Y733207D01*
X957073Y723737D01*
X950377Y717041D01*
X940907Y717041D01*
G37*
%LPD*%
%LPC*%
G36*
X940907Y742441D02*
X940907Y742441D01*
X934211Y749137D01*
X934211Y758607D01*
X940907Y765303D01*
X950377Y765303D01*
X957073Y758607D01*
X957073Y749137D01*
X950377Y742441D01*
X940907Y742441D01*
G37*
%LPD*%
%LPC*%
G36*
X966307Y717041D02*
X966307Y717041D01*
X959611Y723737D01*
X959611Y733207D01*
X966307Y739903D01*
X975777Y739903D01*
X982473Y733207D01*
X982473Y723737D01*
X975777Y717041D01*
X966307Y717041D01*
G37*
%LPD*%
G36*
X860123Y262751D02*
X860123Y262751D01*
X860152Y262750D01*
X860187Y262769D01*
X860275Y262794D01*
X860344Y262853D01*
X860379Y262872D01*
X861001Y263494D01*
X884487Y263494D01*
X884952Y263028D01*
X884977Y263013D01*
X884996Y262990D01*
X885055Y262962D01*
X885110Y262927D01*
X885139Y262923D01*
X885165Y262910D01*
X885231Y262909D01*
X885295Y262899D01*
X885323Y262907D01*
X885353Y262907D01*
X885388Y262926D01*
X885475Y262951D01*
X885544Y263009D01*
X885580Y263028D01*
X886144Y263592D01*
X886160Y263617D01*
X886182Y263636D01*
X886210Y263695D01*
X886245Y263750D01*
X886249Y263779D01*
X886262Y263805D01*
X886263Y263870D01*
X886273Y263935D01*
X886265Y263963D01*
X886265Y263993D01*
X886246Y264028D01*
X886221Y264115D01*
X886163Y264184D01*
X886144Y264220D01*
X884779Y265585D01*
X884742Y265608D01*
X884711Y265640D01*
X884677Y265650D01*
X884621Y265686D01*
X884499Y265705D01*
X884465Y265715D01*
X876749Y265715D01*
X876228Y266236D01*
X876228Y272973D01*
X876749Y273494D01*
X884047Y273494D01*
X884076Y273500D01*
X884105Y273498D01*
X884166Y273520D01*
X884230Y273534D01*
X884254Y273551D01*
X884281Y273561D01*
X884328Y273607D01*
X884381Y273645D01*
X884395Y273671D01*
X884416Y273691D01*
X884428Y273730D01*
X884472Y273809D01*
X884479Y273899D01*
X884491Y273938D01*
X884491Y275909D01*
X886144Y277562D01*
X886160Y277587D01*
X886182Y277606D01*
X886210Y277665D01*
X886245Y277720D01*
X886249Y277749D01*
X886262Y277775D01*
X886263Y277840D01*
X886273Y277905D01*
X886265Y277933D01*
X886265Y277963D01*
X886246Y277998D01*
X886221Y278085D01*
X886163Y278154D01*
X886144Y278190D01*
X884491Y279843D01*
X884491Y280511D01*
X884485Y280540D01*
X884487Y280569D01*
X884465Y280630D01*
X884451Y280694D01*
X884434Y280718D01*
X884424Y280745D01*
X884378Y280792D01*
X884340Y280845D01*
X884314Y280859D01*
X884294Y280880D01*
X884255Y280892D01*
X884176Y280936D01*
X884086Y280943D01*
X884047Y280955D01*
X871526Y280955D01*
X871512Y280952D01*
X871497Y280954D01*
X871421Y280932D01*
X871343Y280915D01*
X871331Y280906D01*
X871317Y280902D01*
X871256Y280851D01*
X871193Y280804D01*
X871185Y280791D01*
X871174Y280781D01*
X871140Y280709D01*
X871102Y280640D01*
X871100Y280625D01*
X871094Y280612D01*
X871093Y280532D01*
X871086Y280453D01*
X871091Y280439D01*
X871091Y280424D01*
X871108Y280393D01*
X871149Y280277D01*
X871196Y280229D01*
X871213Y280197D01*
X871419Y279991D01*
X871419Y273254D01*
X870898Y272733D01*
X863160Y272733D01*
X862639Y273254D01*
X862639Y278019D01*
X862636Y278034D01*
X862638Y278048D01*
X862616Y278125D01*
X862600Y278202D01*
X862591Y278214D01*
X862587Y278228D01*
X862535Y278289D01*
X862488Y278353D01*
X862475Y278360D01*
X862466Y278371D01*
X862394Y278405D01*
X862324Y278444D01*
X862310Y278445D01*
X862296Y278451D01*
X862217Y278453D01*
X862138Y278459D01*
X862124Y278454D01*
X862109Y278454D01*
X862078Y278438D01*
X861961Y278396D01*
X861914Y278350D01*
X861882Y278333D01*
X860656Y277107D01*
X860640Y277083D01*
X860618Y277064D01*
X860590Y277005D01*
X860555Y276950D01*
X860550Y276921D01*
X860538Y276894D01*
X860537Y276829D01*
X860527Y276765D01*
X860535Y276736D01*
X860535Y276707D01*
X860554Y276672D01*
X860579Y276584D01*
X860637Y276515D01*
X860656Y276480D01*
X861743Y275393D01*
X861743Y272775D01*
X859892Y270924D01*
X857275Y270924D01*
X855424Y272775D01*
X855424Y275393D01*
X856521Y276490D01*
X856537Y276514D01*
X856559Y276533D01*
X856587Y276592D01*
X856622Y276647D01*
X856626Y276676D01*
X856639Y276703D01*
X856640Y276768D01*
X856650Y276832D01*
X856642Y276861D01*
X856642Y276890D01*
X856623Y276925D01*
X856598Y277013D01*
X856540Y277082D01*
X856521Y277117D01*
X855434Y278204D01*
X855434Y280456D01*
X855427Y280485D01*
X855430Y280514D01*
X855408Y280575D01*
X855394Y280639D01*
X855377Y280663D01*
X855367Y280690D01*
X855321Y280737D01*
X855282Y280790D01*
X855257Y280804D01*
X855236Y280825D01*
X855198Y280837D01*
X855119Y280881D01*
X855028Y280888D01*
X854990Y280900D01*
X854547Y280900D01*
X854519Y280894D01*
X854490Y280896D01*
X854428Y280874D01*
X854364Y280860D01*
X854341Y280843D01*
X854313Y280833D01*
X854266Y280787D01*
X854214Y280749D01*
X854200Y280723D01*
X854179Y280703D01*
X854167Y280664D01*
X854123Y280585D01*
X854115Y280495D01*
X854104Y280456D01*
X854104Y280010D01*
X853583Y279489D01*
X847658Y279489D01*
X847630Y279483D01*
X847601Y279485D01*
X847539Y279463D01*
X847475Y279449D01*
X847452Y279432D01*
X847424Y279422D01*
X847377Y279376D01*
X847325Y279338D01*
X847311Y279312D01*
X847290Y279292D01*
X847278Y279253D01*
X847234Y279174D01*
X847226Y279084D01*
X847215Y279045D01*
X847215Y272784D01*
X846303Y271872D01*
X843607Y269176D01*
X843599Y269163D01*
X843587Y269155D01*
X843548Y269085D01*
X843505Y269018D01*
X843503Y269004D01*
X843496Y268991D01*
X843489Y268912D01*
X843478Y268833D01*
X843482Y268819D01*
X843480Y268804D01*
X843507Y268729D01*
X843529Y268653D01*
X843539Y268642D01*
X843544Y268628D01*
X843599Y268571D01*
X843650Y268510D01*
X843664Y268504D01*
X843674Y268493D01*
X843708Y268483D01*
X843820Y268430D01*
X843886Y268429D01*
X843920Y268418D01*
X844059Y268418D01*
X845299Y267178D01*
X845324Y267162D01*
X845343Y267140D01*
X845402Y267112D01*
X845456Y267077D01*
X845485Y267072D01*
X845512Y267060D01*
X845577Y267059D01*
X845642Y267049D01*
X845670Y267057D01*
X845699Y267057D01*
X845735Y267076D01*
X845822Y267101D01*
X845891Y267159D01*
X845926Y267178D01*
X846304Y267556D01*
X847402Y268653D01*
X853970Y268653D01*
X859752Y262872D01*
X859776Y262856D01*
X859795Y262834D01*
X859854Y262806D01*
X859909Y262770D01*
X859938Y262766D01*
X859965Y262754D01*
X860030Y262753D01*
X860094Y262743D01*
X860123Y262751D01*
G37*
%LPC*%
G36*
X703829Y714882D02*
X703829Y714882D01*
X697356Y721355D01*
X697356Y730509D01*
X703829Y736982D01*
X712983Y736982D01*
X719456Y730509D01*
X719456Y721355D01*
X712983Y714882D01*
X703829Y714882D01*
G37*
%LPD*%
%LPC*%
G36*
X379979Y714882D02*
X379979Y714882D01*
X373506Y721355D01*
X373506Y730509D01*
X379979Y736982D01*
X389133Y736982D01*
X395606Y730509D01*
X395606Y721355D01*
X389133Y714882D01*
X379979Y714882D01*
G37*
%LPD*%
%LPC*%
G36*
X56129Y714882D02*
X56129Y714882D01*
X49656Y721355D01*
X49656Y730509D01*
X56129Y736982D01*
X65283Y736982D01*
X71756Y730509D01*
X71756Y721355D01*
X65283Y714882D01*
X56129Y714882D01*
G37*
%LPD*%
%LPC*%
G36*
X844545Y609472D02*
X844545Y609472D01*
X838072Y615945D01*
X838072Y625099D01*
X844545Y631572D01*
X853699Y631572D01*
X860172Y625099D01*
X860172Y615945D01*
X853699Y609472D01*
X844545Y609472D01*
G37*
%LPD*%
%LPC*%
G36*
X946145Y609472D02*
X946145Y609472D01*
X939672Y615945D01*
X939672Y625099D01*
X946145Y631572D01*
X955299Y631572D01*
X961772Y625099D01*
X961772Y615945D01*
X955299Y609472D01*
X946145Y609472D01*
G37*
%LPD*%
%LPC*%
G36*
X829244Y812919D02*
X829244Y812919D01*
X825367Y814525D01*
X822399Y817493D01*
X820793Y821370D01*
X820793Y825566D01*
X822399Y829443D01*
X825367Y832411D01*
X829244Y834017D01*
X833440Y834017D01*
X837317Y832411D01*
X840285Y829443D01*
X841891Y825566D01*
X841891Y821370D01*
X840285Y817493D01*
X837317Y814525D01*
X833440Y812919D01*
X829244Y812919D01*
G37*
%LPD*%
%LPC*%
G36*
X36002Y195826D02*
X36002Y195826D01*
X32125Y197432D01*
X29157Y200400D01*
X27551Y204277D01*
X27551Y208473D01*
X29157Y212350D01*
X32125Y215318D01*
X36002Y216924D01*
X40198Y216924D01*
X44075Y215318D01*
X47043Y212350D01*
X48649Y208473D01*
X48649Y204277D01*
X47043Y200400D01*
X44075Y197432D01*
X40198Y195826D01*
X36002Y195826D01*
G37*
%LPD*%
%LPC*%
G36*
X61402Y195826D02*
X61402Y195826D01*
X57525Y197432D01*
X54557Y200400D01*
X52951Y204277D01*
X52951Y208473D01*
X54557Y212350D01*
X57525Y215318D01*
X61402Y216924D01*
X65598Y216924D01*
X69475Y215318D01*
X72443Y212350D01*
X74049Y208473D01*
X74049Y204277D01*
X72443Y200400D01*
X69475Y197432D01*
X65598Y195826D01*
X61402Y195826D01*
G37*
%LPD*%
%LPC*%
G36*
X143952Y195826D02*
X143952Y195826D01*
X140075Y197432D01*
X137107Y200400D01*
X135501Y204277D01*
X135501Y208473D01*
X137107Y212350D01*
X140075Y215318D01*
X143952Y216924D01*
X148148Y216924D01*
X152025Y215318D01*
X154993Y212350D01*
X156599Y208473D01*
X156599Y204277D01*
X154993Y200400D01*
X152025Y197432D01*
X148148Y195826D01*
X143952Y195826D01*
G37*
%LPD*%
%LPC*%
G36*
X251902Y195826D02*
X251902Y195826D01*
X248025Y197432D01*
X245057Y200400D01*
X243451Y204277D01*
X243451Y208473D01*
X245057Y212350D01*
X248025Y215318D01*
X251902Y216924D01*
X256098Y216924D01*
X259975Y215318D01*
X262943Y212350D01*
X264549Y208473D01*
X264549Y204277D01*
X262943Y200400D01*
X259975Y197432D01*
X256098Y195826D01*
X251902Y195826D01*
G37*
%LPD*%
%LPC*%
G36*
X829244Y673727D02*
X829244Y673727D01*
X825367Y675333D01*
X822399Y678301D01*
X820793Y682178D01*
X820793Y686374D01*
X822399Y690251D01*
X825367Y693219D01*
X829244Y694825D01*
X833440Y694825D01*
X837317Y693219D01*
X840285Y690251D01*
X841891Y686374D01*
X841891Y682178D01*
X840285Y678301D01*
X837317Y675333D01*
X833440Y673727D01*
X829244Y673727D01*
G37*
%LPD*%
G36*
X754718Y263839D02*
X754718Y263839D01*
X754762Y263838D01*
X754794Y263855D01*
X754859Y263869D01*
X754958Y263943D01*
X754989Y263960D01*
X759070Y268040D01*
X771598Y268040D01*
X772509Y267129D01*
X773645Y265993D01*
X773682Y265969D01*
X773712Y265938D01*
X773747Y265927D01*
X773803Y265891D01*
X773925Y265873D01*
X773959Y265863D01*
X776110Y265863D01*
X776124Y265866D01*
X776139Y265864D01*
X776216Y265886D01*
X776293Y265902D01*
X776305Y265911D01*
X776319Y265915D01*
X776380Y265967D01*
X776444Y266014D01*
X776451Y266027D01*
X776462Y266036D01*
X776496Y266108D01*
X776535Y266178D01*
X776536Y266192D01*
X776542Y266206D01*
X776543Y266285D01*
X776550Y266364D01*
X776545Y266378D01*
X776545Y266393D01*
X776529Y266424D01*
X776487Y266541D01*
X776441Y266588D01*
X776424Y266620D01*
X776176Y266868D01*
X776176Y269486D01*
X776379Y269689D01*
X776387Y269701D01*
X776399Y269710D01*
X776437Y269780D01*
X776480Y269846D01*
X776482Y269861D01*
X776490Y269874D01*
X776496Y269953D01*
X776508Y270031D01*
X776504Y270046D01*
X776505Y270060D01*
X776478Y270135D01*
X776456Y270212D01*
X776447Y270223D01*
X776442Y270237D01*
X776386Y270294D01*
X776335Y270355D01*
X776322Y270361D01*
X776312Y270371D01*
X776278Y270382D01*
X776166Y270435D01*
X776100Y270436D01*
X776065Y270446D01*
X773524Y270446D01*
X770365Y273606D01*
X770365Y274052D01*
X770359Y274080D01*
X770361Y274110D01*
X770339Y274171D01*
X770325Y274235D01*
X770308Y274258D01*
X770298Y274286D01*
X770252Y274333D01*
X770214Y274385D01*
X770188Y274399D01*
X770168Y274421D01*
X770129Y274432D01*
X770050Y274476D01*
X769960Y274484D01*
X769921Y274495D01*
X744699Y274495D01*
X744670Y274489D01*
X744641Y274492D01*
X744580Y274470D01*
X744516Y274456D01*
X744492Y274438D01*
X744465Y274429D01*
X744418Y274383D01*
X744365Y274344D01*
X744351Y274319D01*
X744330Y274298D01*
X744318Y274260D01*
X744274Y274180D01*
X744267Y274090D01*
X744255Y274052D01*
X744255Y269127D01*
X743734Y268606D01*
X733362Y268606D01*
X733333Y268600D01*
X733304Y268602D01*
X733242Y268580D01*
X733178Y268566D01*
X733155Y268549D01*
X733127Y268539D01*
X733080Y268493D01*
X733028Y268455D01*
X733014Y268429D01*
X732993Y268409D01*
X732981Y268370D01*
X732937Y268291D01*
X732929Y268201D01*
X732918Y268162D01*
X732918Y266329D01*
X732924Y266300D01*
X732922Y266271D01*
X732944Y266210D01*
X732957Y266146D01*
X732975Y266122D01*
X732985Y266095D01*
X733030Y266048D01*
X733069Y265995D01*
X733095Y265981D01*
X733115Y265960D01*
X733154Y265948D01*
X733233Y265904D01*
X733323Y265897D01*
X733362Y265885D01*
X743734Y265885D01*
X744255Y265364D01*
X744255Y264273D01*
X744261Y264245D01*
X744259Y264216D01*
X744281Y264154D01*
X744295Y264090D01*
X744312Y264067D01*
X744322Y264039D01*
X744368Y263992D01*
X744406Y263940D01*
X744432Y263926D01*
X744452Y263905D01*
X744491Y263893D01*
X744570Y263849D01*
X744660Y263841D01*
X744699Y263830D01*
X754676Y263830D01*
X754718Y263839D01*
G37*
G36*
X875976Y310964D02*
X875976Y310964D01*
X875990Y310962D01*
X876067Y310984D01*
X876144Y311001D01*
X876156Y311010D01*
X876170Y311014D01*
X876231Y311065D01*
X876295Y311112D01*
X876302Y311125D01*
X876313Y311135D01*
X876347Y311207D01*
X876386Y311276D01*
X876387Y311291D01*
X876393Y311304D01*
X876395Y311384D01*
X876401Y311463D01*
X876396Y311477D01*
X876396Y311492D01*
X876380Y311523D01*
X876338Y311639D01*
X876292Y311687D01*
X876275Y311719D01*
X876101Y311892D01*
X876101Y315206D01*
X876092Y315248D01*
X876093Y315292D01*
X876076Y315324D01*
X876062Y315389D01*
X875999Y315473D01*
X875998Y315476D01*
X875993Y315482D01*
X875988Y315488D01*
X875971Y315519D01*
X871550Y319941D01*
X871513Y319964D01*
X871483Y319996D01*
X871448Y320006D01*
X871393Y320042D01*
X871270Y320061D01*
X871236Y320071D01*
X859552Y320071D01*
X859523Y320065D01*
X859494Y320067D01*
X859432Y320045D01*
X859368Y320031D01*
X859345Y320014D01*
X859317Y320004D01*
X859270Y319958D01*
X859218Y319920D01*
X859204Y319894D01*
X859183Y319874D01*
X859171Y319835D01*
X859127Y319756D01*
X859120Y319666D01*
X859108Y319627D01*
X859108Y317489D01*
X857257Y315638D01*
X854639Y315638D01*
X853860Y316417D01*
X853835Y316433D01*
X853816Y316456D01*
X853757Y316483D01*
X853703Y316519D01*
X853674Y316523D01*
X853647Y316536D01*
X853582Y316537D01*
X853517Y316546D01*
X853489Y316538D01*
X853460Y316539D01*
X853424Y316520D01*
X853337Y316495D01*
X853268Y316436D01*
X853232Y316417D01*
X851141Y314326D01*
X851133Y314313D01*
X851121Y314305D01*
X851083Y314235D01*
X851039Y314168D01*
X851037Y314154D01*
X851030Y314141D01*
X851024Y314062D01*
X851012Y313983D01*
X851016Y313969D01*
X851015Y313954D01*
X851042Y313879D01*
X851063Y313803D01*
X851073Y313792D01*
X851078Y313778D01*
X851133Y313721D01*
X851185Y313660D01*
X851198Y313654D01*
X851208Y313643D01*
X851242Y313633D01*
X851354Y313580D01*
X851420Y313579D01*
X851455Y313568D01*
X852909Y313568D01*
X853484Y312993D01*
X853521Y312969D01*
X853552Y312938D01*
X853586Y312927D01*
X853642Y312891D01*
X853764Y312873D01*
X853798Y312863D01*
X856611Y312863D01*
X858383Y311091D01*
X858420Y311068D01*
X858450Y311036D01*
X858485Y311026D01*
X858540Y310990D01*
X858663Y310971D01*
X858697Y310961D01*
X875961Y310961D01*
X875976Y310964D01*
G37*
G36*
X764442Y256229D02*
X764442Y256229D01*
X764471Y256227D01*
X764532Y256249D01*
X764596Y256263D01*
X764620Y256280D01*
X764647Y256290D01*
X764694Y256336D01*
X764747Y256374D01*
X764761Y256400D01*
X764782Y256420D01*
X764794Y256459D01*
X764838Y256538D01*
X764845Y256628D01*
X764857Y256667D01*
X764857Y257494D01*
X765711Y258348D01*
X765719Y258361D01*
X765731Y258369D01*
X765769Y258439D01*
X765812Y258506D01*
X765814Y258520D01*
X765822Y258533D01*
X765828Y258612D01*
X765840Y258691D01*
X765836Y258705D01*
X765837Y258720D01*
X765810Y258795D01*
X765788Y258871D01*
X765779Y258882D01*
X765774Y258896D01*
X765719Y258953D01*
X765667Y259014D01*
X765654Y259020D01*
X765643Y259031D01*
X765610Y259041D01*
X765498Y259094D01*
X765432Y259095D01*
X765397Y259106D01*
X759997Y259106D01*
X759476Y259627D01*
X759476Y263601D01*
X759473Y263615D01*
X759475Y263630D01*
X759453Y263707D01*
X759436Y263784D01*
X759427Y263796D01*
X759423Y263810D01*
X759372Y263871D01*
X759325Y263935D01*
X759312Y263942D01*
X759302Y263953D01*
X759230Y263987D01*
X759161Y264026D01*
X759146Y264027D01*
X759133Y264033D01*
X759053Y264034D01*
X758974Y264041D01*
X758960Y264036D01*
X758946Y264036D01*
X758914Y264020D01*
X758798Y263978D01*
X758750Y263932D01*
X758718Y263915D01*
X755965Y261161D01*
X744699Y261161D01*
X744670Y261155D01*
X744641Y261157D01*
X744580Y261135D01*
X744516Y261122D01*
X744492Y261104D01*
X744465Y261094D01*
X744418Y261049D01*
X744365Y261010D01*
X744351Y260985D01*
X744330Y260964D01*
X744318Y260925D01*
X744274Y260846D01*
X744267Y260756D01*
X744255Y260718D01*
X744255Y259627D01*
X743734Y259106D01*
X733362Y259106D01*
X733333Y259100D01*
X733304Y259102D01*
X733242Y259080D01*
X733178Y259066D01*
X733155Y259049D01*
X733127Y259039D01*
X733080Y258993D01*
X733028Y258955D01*
X733014Y258929D01*
X732993Y258909D01*
X732981Y258870D01*
X732937Y258791D01*
X732929Y258701D01*
X732918Y258662D01*
X732918Y256667D01*
X732924Y256638D01*
X732922Y256609D01*
X732944Y256548D01*
X732957Y256484D01*
X732975Y256460D01*
X732985Y256433D01*
X733030Y256386D01*
X733069Y256333D01*
X733095Y256319D01*
X733115Y256298D01*
X733154Y256286D01*
X733233Y256242D01*
X733323Y256235D01*
X733362Y256223D01*
X764413Y256223D01*
X764442Y256229D01*
G37*
%LPC*%
G36*
X680893Y259792D02*
X680893Y259792D01*
X677777Y262908D01*
X677777Y267314D01*
X680893Y270430D01*
X685299Y270430D01*
X688415Y267314D01*
X688415Y262908D01*
X685299Y259792D01*
X680893Y259792D01*
G37*
%LPD*%
%LPC*%
G36*
X422993Y205792D02*
X422993Y205792D01*
X419877Y208908D01*
X419877Y213314D01*
X422993Y216430D01*
X427399Y216430D01*
X430515Y213314D01*
X430515Y208908D01*
X427399Y205792D01*
X422993Y205792D01*
G37*
%LPD*%
%LPC*%
G36*
X530943Y185816D02*
X530943Y185816D01*
X527827Y188932D01*
X527827Y193338D01*
X530943Y196454D01*
X535349Y196454D01*
X538465Y193338D01*
X538465Y188932D01*
X535349Y185816D01*
X530943Y185816D01*
G37*
%LPD*%
%LPC*%
G36*
X638893Y173116D02*
X638893Y173116D01*
X635777Y176232D01*
X635777Y180638D01*
X638893Y183754D01*
X643299Y183754D01*
X646415Y180638D01*
X646415Y176232D01*
X643299Y173116D01*
X638893Y173116D01*
G37*
%LPD*%
%LPC*%
G36*
X465120Y134316D02*
X465120Y134316D01*
X462004Y137432D01*
X462004Y141838D01*
X465120Y144954D01*
X469526Y144954D01*
X472642Y141838D01*
X472642Y137432D01*
X469526Y134316D01*
X465120Y134316D01*
G37*
%LPD*%
%LPC*%
G36*
X680893Y132792D02*
X680893Y132792D01*
X677777Y135908D01*
X677777Y140314D01*
X680893Y143430D01*
X685299Y143430D01*
X688415Y140314D01*
X688415Y135908D01*
X685299Y132792D01*
X680893Y132792D01*
G37*
%LPD*%
G36*
X875686Y283629D02*
X875686Y283629D01*
X875715Y283627D01*
X875777Y283649D01*
X875841Y283663D01*
X875864Y283680D01*
X875892Y283690D01*
X875939Y283736D01*
X875991Y283774D01*
X876005Y283800D01*
X876026Y283820D01*
X876038Y283859D01*
X876082Y283938D01*
X876090Y284028D01*
X876101Y284067D01*
X876101Y288895D01*
X876092Y288937D01*
X876093Y288981D01*
X876076Y289013D01*
X876062Y289078D01*
X875988Y289177D01*
X875971Y289208D01*
X875686Y289494D01*
X875649Y289517D01*
X875619Y289549D01*
X875584Y289559D01*
X875528Y289595D01*
X875406Y289614D01*
X875372Y289624D01*
X863944Y289624D01*
X863915Y289618D01*
X863886Y289620D01*
X863825Y289598D01*
X863761Y289584D01*
X863737Y289567D01*
X863710Y289557D01*
X863663Y289511D01*
X863610Y289473D01*
X863596Y289447D01*
X863575Y289427D01*
X863563Y289388D01*
X863519Y289309D01*
X863512Y289219D01*
X863500Y289180D01*
X863500Y287786D01*
X861747Y286033D01*
X861731Y286008D01*
X861709Y285989D01*
X861681Y285930D01*
X861646Y285876D01*
X861641Y285847D01*
X861629Y285820D01*
X861628Y285755D01*
X861618Y285690D01*
X861626Y285662D01*
X861626Y285633D01*
X861645Y285597D01*
X861669Y285510D01*
X861728Y285441D01*
X861747Y285405D01*
X862280Y284873D01*
X863399Y283753D01*
X863436Y283730D01*
X863467Y283698D01*
X863501Y283688D01*
X863557Y283652D01*
X863679Y283633D01*
X863713Y283623D01*
X875658Y283623D01*
X875686Y283629D01*
G37*
G36*
X840759Y315535D02*
X840759Y315535D01*
X840788Y315533D01*
X840850Y315555D01*
X840914Y315569D01*
X840937Y315586D01*
X840965Y315596D01*
X841012Y315642D01*
X841064Y315680D01*
X841078Y315706D01*
X841099Y315726D01*
X841111Y315765D01*
X841155Y315844D01*
X841163Y315934D01*
X841174Y315973D01*
X841174Y321223D01*
X842369Y322418D01*
X842440Y322418D01*
X842483Y322427D01*
X842527Y322427D01*
X842559Y322444D01*
X842623Y322458D01*
X842723Y322531D01*
X842754Y322548D01*
X846853Y326648D01*
X846861Y326660D01*
X846873Y326669D01*
X846912Y326738D01*
X846955Y326805D01*
X846957Y326820D01*
X846964Y326833D01*
X846971Y326912D01*
X846982Y326991D01*
X846978Y327005D01*
X846980Y327019D01*
X846953Y327094D01*
X846931Y327171D01*
X846921Y327182D01*
X846916Y327196D01*
X846861Y327253D01*
X846810Y327314D01*
X846796Y327320D01*
X846786Y327330D01*
X846752Y327341D01*
X846640Y327394D01*
X846574Y327395D01*
X846540Y327405D01*
X840845Y327405D01*
X840817Y327399D01*
X840787Y327401D01*
X840726Y327379D01*
X840662Y327366D01*
X840639Y327348D01*
X840611Y327338D01*
X840564Y327293D01*
X840512Y327254D01*
X840498Y327229D01*
X840476Y327208D01*
X840465Y327169D01*
X840421Y327090D01*
X840413Y327000D01*
X840402Y326962D01*
X840402Y324649D01*
X838551Y322798D01*
X835933Y322798D01*
X834841Y323890D01*
X834817Y323906D01*
X834798Y323928D01*
X834738Y323956D01*
X834684Y323991D01*
X834655Y323996D01*
X834628Y324008D01*
X834563Y324009D01*
X834498Y324019D01*
X834470Y324011D01*
X834441Y324011D01*
X834405Y323992D01*
X834318Y323967D01*
X834249Y323909D01*
X834214Y323890D01*
X833500Y323176D01*
X833492Y323163D01*
X833480Y323155D01*
X833441Y323085D01*
X833398Y323018D01*
X833396Y323004D01*
X833389Y322991D01*
X833382Y322912D01*
X833371Y322833D01*
X833375Y322819D01*
X833373Y322804D01*
X833400Y322729D01*
X833422Y322653D01*
X833432Y322642D01*
X833437Y322628D01*
X833492Y322571D01*
X833543Y322510D01*
X833557Y322504D01*
X833567Y322493D01*
X833601Y322483D01*
X833713Y322430D01*
X833779Y322429D01*
X833813Y322418D01*
X834733Y322418D01*
X835254Y321897D01*
X835254Y317524D01*
X835263Y317481D01*
X835262Y317437D01*
X835279Y317405D01*
X835293Y317340D01*
X835367Y317241D01*
X835384Y317210D01*
X836934Y315659D01*
X836971Y315636D01*
X837001Y315604D01*
X837036Y315594D01*
X837092Y315558D01*
X837214Y315539D01*
X837248Y315529D01*
X840731Y315529D01*
X840759Y315535D01*
G37*
%LPC*%
G36*
X881976Y158638D02*
X881976Y158638D01*
X880125Y160489D01*
X880125Y163107D01*
X881976Y164958D01*
X884594Y164958D01*
X886445Y163107D01*
X886445Y160489D01*
X884594Y158638D01*
X881976Y158638D01*
G37*
%LPD*%
D10*
X843214Y262679D02*
X843214Y266379D01*
D11*
X838214Y264529D03*
X833214Y264529D03*
X828214Y264529D03*
X823214Y264529D03*
X818214Y264529D03*
X813214Y264529D03*
X808214Y264529D03*
D10*
X803214Y262679D02*
X803214Y266379D01*
X798064Y271529D02*
X794364Y271529D01*
D12*
X796214Y276529D03*
X796214Y281529D03*
X796214Y286529D03*
X796214Y291529D03*
X796214Y296529D03*
X796214Y301529D03*
X796214Y306529D03*
D10*
X794364Y311529D02*
X798064Y311529D01*
X803214Y316679D02*
X803214Y320379D01*
D11*
X808214Y318529D03*
X813214Y318529D03*
X818214Y318529D03*
X823214Y318529D03*
X828214Y318529D03*
X833214Y318529D03*
X838214Y318529D03*
D10*
X843214Y320379D02*
X843214Y316679D01*
X848364Y311529D02*
X852064Y311529D01*
D12*
X850214Y306529D03*
X850214Y301529D03*
X850214Y296529D03*
X850214Y291529D03*
X850214Y286529D03*
X850214Y281529D03*
X850214Y276529D03*
D10*
X852064Y271529D02*
X848364Y271529D01*
D13*
X840789Y273954D02*
X840789Y309104D01*
X840789Y273954D02*
X805639Y273954D01*
X805639Y309104D01*
X840789Y309104D01*
X840789Y275711D02*
X805639Y275711D01*
X805639Y277468D02*
X840789Y277468D01*
X840789Y279225D02*
X805639Y279225D01*
X805639Y280982D02*
X840789Y280982D01*
X840789Y282739D02*
X805639Y282739D01*
X805639Y284496D02*
X840789Y284496D01*
X840789Y286253D02*
X805639Y286253D01*
X805639Y288010D02*
X840789Y288010D01*
X840789Y289767D02*
X805639Y289767D01*
X805639Y291524D02*
X840789Y291524D01*
X840789Y293281D02*
X805639Y293281D01*
X805639Y295038D02*
X840789Y295038D01*
X840789Y296795D02*
X805639Y296795D01*
X805639Y298552D02*
X840789Y298552D01*
X840789Y300309D02*
X805639Y300309D01*
X805639Y302066D02*
X840789Y302066D01*
X840789Y303823D02*
X805639Y303823D01*
X805639Y305580D02*
X840789Y305580D01*
X840789Y307337D02*
X805639Y307337D01*
X805639Y309094D02*
X840789Y309094D01*
D14*
X757727Y135491D03*
D15*
X750727Y170991D03*
D16*
X776727Y170991D03*
D14*
X757727Y198229D03*
D15*
X750727Y233729D03*
D16*
X776727Y233729D03*
D14*
X810495Y198229D03*
D15*
X803495Y233729D03*
D16*
X829495Y233729D03*
D14*
X810495Y135491D03*
D15*
X803495Y170991D03*
D16*
X829495Y170991D03*
D14*
X863264Y135491D03*
D15*
X856264Y170991D03*
D16*
X882264Y170991D03*
D14*
X863264Y198229D03*
D15*
X856264Y233729D03*
D16*
X882264Y233729D03*
D17*
X862013Y323961D03*
X862013Y313961D03*
X872617Y305292D03*
X872617Y295292D03*
X880491Y315261D03*
X880491Y305261D03*
X880491Y296656D03*
X880491Y286656D03*
X867029Y276623D03*
X867029Y286623D03*
X869887Y323961D03*
X869887Y313961D03*
X872744Y259605D03*
X872744Y269605D03*
X787527Y320913D03*
X787527Y310913D03*
X864870Y259605D03*
X864870Y269605D03*
D18*
X753254Y307721D03*
X763254Y307721D03*
X736363Y299847D03*
X746363Y299847D03*
X763254Y299847D03*
X753254Y299847D03*
D17*
X770636Y305165D03*
X770636Y295165D03*
D18*
X753254Y323469D03*
X763254Y323469D03*
X736363Y323469D03*
X746363Y323469D03*
X763254Y291973D03*
X753254Y291973D03*
X746363Y315595D03*
X736363Y315595D03*
X746363Y307721D03*
X736363Y307721D03*
D19*
X765366Y281496D03*
X765366Y271996D03*
X765366Y262496D03*
X738366Y281496D03*
X738366Y271996D03*
X738366Y262496D03*
D18*
X746363Y291973D03*
X736363Y291973D03*
X763254Y315595D03*
X753254Y315595D03*
X780145Y320421D03*
X770145Y320421D03*
X770145Y312547D03*
X780145Y312547D03*
D20*
X849122Y620522D03*
D21*
X813562Y620522D03*
D20*
X950722Y620522D03*
D21*
X915162Y620522D03*
D22*
X810451Y255969D03*
X803466Y255969D03*
X796481Y255969D03*
X789496Y255969D03*
X782511Y255969D03*
X775526Y255969D03*
X768541Y255969D03*
X817436Y255969D03*
X824421Y255969D03*
X831406Y255969D03*
X838391Y255969D03*
X845376Y255969D03*
X852361Y255969D03*
X888175Y323279D03*
X888175Y316294D03*
X888175Y309309D03*
D23*
X888175Y302324D03*
D22*
X888175Y295339D03*
X888175Y288354D03*
X888175Y281369D03*
X888175Y274384D03*
X888175Y267399D03*
X888175Y260414D03*
X792988Y327597D03*
X786003Y327597D03*
X779018Y327597D03*
X772033Y327597D03*
X768541Y240919D03*
X775526Y240919D03*
X782511Y240919D03*
X789496Y240919D03*
X796481Y240919D03*
X803466Y240919D03*
X810451Y240919D03*
X817436Y240919D03*
X824421Y240919D03*
X831406Y240919D03*
X838391Y240919D03*
X845376Y240919D03*
X852361Y240919D03*
D17*
X778129Y276115D03*
X778129Y286115D03*
X880618Y259605D03*
X880618Y269605D03*
D22*
X915670Y753872D03*
X915670Y746887D03*
X915670Y739902D03*
X915670Y732917D03*
X915670Y725932D03*
X915670Y718947D03*
X915670Y711962D03*
X915670Y760857D03*
X915670Y767842D03*
X915670Y774827D03*
X915670Y781812D03*
X915670Y788797D03*
X915670Y795782D03*
X848360Y831596D03*
X855345Y831596D03*
X862330Y831596D03*
D23*
X869315Y831596D03*
D22*
X876300Y831596D03*
X883285Y831596D03*
X890270Y831596D03*
X897255Y831596D03*
X904240Y831596D03*
X911225Y831596D03*
D24*
X799592Y684276D03*
X831342Y684276D03*
X799592Y823468D03*
X831342Y823468D03*
D25*
X844042Y855472D03*
X844042Y880872D03*
X869442Y855472D03*
X869442Y880872D03*
X894842Y855472D03*
X894842Y880872D03*
X920242Y855472D03*
X920242Y880872D03*
D26*
X945642Y880872D03*
X971042Y880872D03*
X945642Y855472D03*
X971042Y855472D03*
X945642Y830072D03*
X971042Y830072D03*
X945642Y804672D03*
X971042Y804672D03*
X945642Y779272D03*
X971042Y779272D03*
X945642Y753872D03*
X971042Y753872D03*
X945642Y728472D03*
X971042Y728472D03*
X945642Y703072D03*
X971042Y703072D03*
D27*
X793242Y550672D03*
X818642Y550672D03*
X844042Y550672D03*
X869442Y550672D03*
X894842Y550672D03*
X920242Y550672D03*
X945642Y550672D03*
X971042Y550672D03*
D28*
X384556Y725932D03*
D21*
X384556Y761492D03*
D28*
X708406Y725932D03*
D21*
X708406Y761492D03*
D24*
X88900Y231775D03*
X63500Y231775D03*
X38100Y231775D03*
D29*
X471551Y183194D03*
X471551Y127194D03*
X594995Y182940D03*
X594995Y126940D03*
D22*
X491236Y117983D03*
X498221Y117983D03*
X505206Y117983D03*
X512191Y117983D03*
X519176Y117983D03*
X526161Y117983D03*
X533146Y117983D03*
X540131Y117983D03*
X547116Y117983D03*
X554101Y117983D03*
X561086Y117983D03*
X568071Y117983D03*
X575056Y117983D03*
X494729Y189611D03*
X501714Y189611D03*
X508699Y189611D03*
X515684Y189611D03*
D30*
X469646Y237236D03*
X533146Y237236D03*
X596646Y237236D03*
D31*
X682371Y291211D03*
X383921Y291211D03*
X383921Y180086D03*
X682371Y180086D03*
D29*
X109601Y124654D03*
X109601Y180654D03*
X233299Y124654D03*
X233299Y180654D03*
D22*
X129540Y115697D03*
X136525Y115697D03*
X143510Y115697D03*
X150495Y115697D03*
X157480Y115697D03*
X164465Y115697D03*
X171450Y115697D03*
X178435Y115697D03*
X185420Y115697D03*
X192405Y115697D03*
X199390Y115697D03*
X206375Y115697D03*
X213360Y115697D03*
X133033Y187325D03*
X140018Y187325D03*
X147003Y187325D03*
X153988Y187325D03*
D24*
X38100Y206375D03*
X63500Y206375D03*
X88900Y206375D03*
X146050Y206375D03*
X171450Y206375D03*
X196850Y206375D03*
X196850Y231775D03*
X171450Y231775D03*
X146050Y231775D03*
X304800Y231775D03*
X279400Y231775D03*
X254000Y231775D03*
X254000Y206375D03*
X279400Y206375D03*
X304800Y206375D03*
D28*
X60706Y725932D03*
D21*
X60706Y761492D03*
D27*
X108331Y521462D03*
X133731Y521462D03*
X159131Y521462D03*
X184531Y521462D03*
X209931Y521462D03*
X235331Y521462D03*
X260731Y521462D03*
X286131Y521462D03*
X311531Y521462D03*
X336931Y521462D03*
X432181Y521462D03*
X457581Y521462D03*
X482981Y521462D03*
X508381Y521462D03*
X533781Y521462D03*
X559181Y521462D03*
X584581Y521462D03*
X609981Y521462D03*
X635381Y521462D03*
X660781Y521462D03*
D22*
X144907Y682244D03*
X144907Y675259D03*
X144907Y668274D03*
X144907Y661289D03*
X144907Y654304D03*
X144907Y647319D03*
X144907Y640334D03*
X144907Y633349D03*
X144907Y626364D03*
X144907Y619379D03*
X468757Y682244D03*
X468757Y675259D03*
X468757Y668274D03*
X468757Y661289D03*
X468757Y654304D03*
X468757Y647319D03*
X468757Y640334D03*
X468757Y633349D03*
X468757Y626364D03*
X468757Y619379D03*
D32*
X823214Y291529D02*
X838214Y276529D01*
D33*
X762580Y271805D03*
D34*
X762771Y271996D02*
X765366Y271996D01*
X762771Y271996D02*
X762580Y271805D01*
D33*
X736266Y292069D03*
D34*
X838214Y317717D02*
X838214Y318529D01*
D33*
X842671Y325946D03*
D34*
X841163Y324438D02*
X841163Y324333D01*
X841163Y324438D02*
X842671Y325946D01*
X838214Y321384D02*
X838214Y318529D01*
X838214Y321384D02*
X841163Y324333D01*
D33*
X799239Y325958D03*
D34*
X780145Y320421D02*
X780145Y312547D01*
X780145Y312357D01*
X796214Y311529D02*
X800382Y315696D01*
X800382Y324815D02*
X799239Y325958D01*
X800382Y324815D02*
X800382Y315696D01*
X780145Y320421D02*
X780145Y322978D01*
X862013Y313961D02*
X869887Y313961D01*
X850214Y276529D02*
X850214Y271529D01*
D33*
X867029Y286228D03*
D34*
X867029Y286623D01*
X855594Y271529D02*
X850214Y271529D01*
X855594Y271529D02*
X856959Y270163D01*
X864312Y270163D02*
X864870Y269605D01*
X864312Y270163D02*
X856959Y270163D01*
X796214Y311529D02*
X795598Y310913D01*
X787527Y310913D01*
X781589Y310913D01*
X780145Y312357D01*
X780145Y320421D02*
X779018Y321548D01*
X779018Y327597D01*
X772868Y307396D02*
X770636Y305165D01*
X772868Y307396D02*
X773828Y307396D01*
X778789Y312357D02*
X780145Y312357D01*
X778789Y312357D02*
X773828Y307396D01*
D33*
X753889Y291973D03*
D34*
X736363Y291973D02*
X736266Y292069D01*
X750300Y286822D02*
X753236Y289758D01*
X753236Y291321D02*
X753889Y291973D01*
X753236Y291321D02*
X753236Y289758D01*
X741514Y286822D02*
X736363Y291973D01*
X741514Y286822D02*
X750300Y286822D01*
X736363Y291973D02*
X736363Y299847D01*
X736363Y307721D01*
X736363Y315595D01*
X736363Y323469D01*
D33*
X864870Y269605D03*
D34*
X872744Y269605D01*
D33*
X872744Y269605D03*
X862013Y313961D03*
X869887Y313961D03*
X736363Y315595D03*
X804734Y310009D03*
X841693Y290449D03*
X823214Y291529D03*
X841693Y308814D03*
D34*
X824408Y291529D01*
X823214Y291529D01*
X823214Y264529D01*
D33*
X804736Y284099D03*
X751967Y258890D03*
X778447Y319215D03*
X824040Y269558D03*
X746363Y291973D03*
X738366Y271805D03*
X804668Y325958D03*
D34*
X803214Y324504D01*
X843214Y320673D02*
X843214Y318529D01*
X843214Y320673D02*
X848741Y326200D01*
X859774Y326200D01*
X862013Y323961D01*
X869887Y323961D01*
D33*
X867029Y276623D03*
D34*
X845613Y264529D02*
X843214Y264529D01*
X845613Y264529D02*
X848086Y267002D01*
X853286Y267002D01*
X860683Y259605D02*
X864870Y259605D01*
X860683Y259605D02*
X853286Y267002D01*
D33*
X880491Y315261D03*
X872617Y305292D03*
X879285Y296846D03*
X864870Y259605D03*
D34*
X872744Y259605D01*
X873172Y320654D02*
X873172Y320675D01*
X869887Y323961D01*
X878566Y315261D02*
X880491Y315261D01*
X878566Y315261D02*
X873172Y320654D01*
X803214Y318529D02*
X803214Y324504D01*
X794178Y320913D02*
X787527Y320913D01*
D33*
X794178Y320913D03*
D34*
X880491Y296846D02*
X880491Y296656D01*
X880491Y296846D02*
X879285Y296846D01*
D35*
X745173Y236855D03*
X752094Y236855D03*
X759016Y236855D03*
X738251Y236855D03*
X745173Y229934D03*
X752094Y229934D03*
X759016Y229934D03*
X738251Y229934D03*
D34*
X745173Y233729D02*
X750727Y233729D01*
X745173Y233729D02*
X745173Y229934D01*
X776727Y233729D02*
X782511Y239513D01*
X782511Y240919D01*
X757727Y177991D02*
X750727Y170991D01*
X757727Y177991D02*
X757727Y198229D01*
D35*
X769430Y161925D03*
X776351Y161925D03*
X783273Y161925D03*
X762508Y161925D03*
X790194Y161925D03*
X776605Y202121D03*
X769684Y202121D03*
X769684Y181356D03*
X776605Y188278D03*
X769684Y188278D03*
X776605Y181356D03*
X776605Y195199D03*
X763715Y198628D03*
X769684Y195199D03*
X763715Y191707D03*
D36*
X762508Y161925D02*
X790194Y161925D01*
D34*
X771576Y237884D02*
X768541Y240919D01*
X771576Y229545D02*
X772543Y228578D01*
X776945Y228578D01*
X784098Y221425D01*
X784098Y178362D01*
X776727Y170991D01*
X771576Y229545D02*
X771576Y237884D01*
D33*
X829495Y233729D03*
D34*
X803495Y191229D02*
X803495Y170991D01*
D35*
X799910Y188278D03*
X806831Y188278D03*
X813753Y188278D03*
X792988Y188278D03*
X799910Y181356D03*
X806831Y181356D03*
X813753Y181356D03*
X792988Y181356D03*
X820674Y181356D03*
X820674Y188278D03*
X827596Y181356D03*
X827596Y188278D03*
D34*
X835345Y177243D02*
X835345Y223214D01*
X832599Y225960D01*
X824484Y225960D01*
X829495Y171394D02*
X829495Y170991D01*
X829495Y171394D02*
X835345Y177243D01*
X821916Y236642D02*
X819679Y238880D01*
X821916Y228528D02*
X824484Y225960D01*
X819679Y238880D02*
X819475Y238880D01*
X817436Y240919D01*
X821916Y236642D02*
X821916Y228528D01*
X861764Y198229D02*
X863264Y198229D01*
X863264Y177991D02*
X856264Y170991D01*
X863264Y177991D02*
X863264Y198229D01*
D35*
X844296Y202121D03*
X851218Y202121D03*
X851218Y181356D03*
X844296Y188278D03*
X851218Y188278D03*
X844296Y181356D03*
X844296Y195199D03*
X857187Y198628D03*
X851218Y195199D03*
X857187Y191707D03*
D34*
X872447Y165840D02*
X840080Y165840D01*
X838414Y167505D01*
X877598Y170991D02*
X882264Y170991D01*
X877598Y170991D02*
X872447Y165840D01*
X825311Y228578D02*
X824344Y229545D01*
X824344Y237912D01*
X824421Y237989D01*
X824421Y240919D01*
X833394Y228578D02*
X838414Y223557D01*
X833394Y228578D02*
X825311Y228578D01*
X838414Y223557D02*
X838414Y167505D01*
X882264Y226490D02*
X882264Y233729D01*
X882264Y226490D02*
X876654Y220880D01*
X838391Y226993D02*
X838391Y240919D01*
X844504Y220880D02*
X876654Y220880D01*
X844504Y220880D02*
X838391Y226993D01*
X845376Y240919D02*
X852566Y233729D01*
X856264Y233729D01*
D35*
X855345Y233617D03*
X862267Y233617D03*
X869188Y233617D03*
X848424Y233617D03*
X855345Y226695D03*
X862267Y226695D03*
X869188Y226695D03*
X848424Y226695D03*
D33*
X753952Y299911D03*
D24*
X371856Y861187D03*
X371856Y848487D03*
X371856Y835787D03*
X371856Y823087D03*
X371856Y810387D03*
X371856Y797687D03*
X397256Y797687D03*
X397256Y810387D03*
X397256Y823087D03*
X397256Y835787D03*
X397256Y848487D03*
X397256Y861187D03*
X695706Y861187D03*
X695706Y848487D03*
X695706Y835787D03*
X695706Y823087D03*
X695706Y810387D03*
X695706Y797687D03*
X73406Y861187D03*
X73406Y848487D03*
X73406Y835787D03*
X73406Y823087D03*
X73406Y810387D03*
X73406Y797687D03*
D34*
X753254Y299911D02*
X753254Y299847D01*
X753254Y299911D02*
X753952Y299911D01*
D33*
X763254Y323469D03*
X763254Y307721D03*
X753254Y315595D03*
X851662Y263081D03*
D32*
X842185Y260195D02*
X840731Y261650D01*
X842185Y260195D02*
X844243Y260195D01*
X840731Y262012D02*
X838214Y264529D01*
X840731Y262012D02*
X840731Y261650D01*
X844243Y260195D02*
X847128Y263081D01*
X851662Y263081D01*
X808214Y317493D02*
X808214Y318529D01*
X808214Y317493D02*
X813290Y312417D01*
X846623Y314061D02*
X848990Y314061D01*
X844979Y312417D02*
X813290Y312417D01*
X844979Y312417D02*
X846623Y314061D01*
X853726Y318798D02*
X855948Y318798D01*
D33*
X855948Y318798D03*
D32*
X853726Y318798D02*
X848990Y314061D01*
D33*
X837242Y325958D03*
D32*
X796214Y291529D02*
X795178Y291529D01*
X791956Y294751D01*
X780021Y294751D02*
X777295Y297477D01*
D33*
X777295Y297477D03*
D32*
X780021Y294751D02*
X791956Y294751D01*
X796214Y296529D02*
X785921Y296529D01*
D33*
X782120Y300329D03*
D32*
X785921Y296529D01*
D33*
X815526Y325958D03*
D32*
X818214Y323269D01*
X818214Y318529D01*
D33*
X810097Y325947D03*
D32*
X796214Y301529D02*
X788299Y301529D01*
X787549Y300779D01*
X787549Y300237D01*
D33*
X787549Y300237D03*
D32*
X833214Y265564D02*
X833214Y264529D01*
X833214Y268805D01*
X836105Y271695D01*
X841725Y271695D01*
X843048Y273018D01*
X843048Y285398D01*
X846695Y289045D01*
X853766Y289045D01*
X854548Y289826D01*
X854548Y291846D01*
X856137Y293435D01*
D33*
X872617Y295292D03*
D32*
X867559Y295292D01*
X866208Y293940D01*
X860076Y293435D02*
X856137Y293435D01*
X860076Y293435D02*
X860581Y293940D01*
X866208Y293940D01*
D33*
X863979Y299321D03*
D32*
X861397Y299321D01*
X860076Y300642D01*
X857091Y300642D01*
X846662Y299012D02*
X845881Y298231D01*
X845881Y294826D01*
X846662Y294045D01*
X847698Y294045D01*
X850214Y291529D01*
X855461Y299012D02*
X857091Y300642D01*
X855461Y299012D02*
X846662Y299012D01*
D33*
X858584Y297039D03*
D32*
X850724Y297039D01*
X850214Y296529D01*
X858584Y297039D02*
X861165Y297039D01*
X862486Y295718D01*
X876669Y300958D02*
X877451Y301739D01*
X877451Y302221D01*
X880491Y305261D01*
X865471Y295718D02*
X862486Y295718D01*
X865471Y295718D02*
X867784Y298030D01*
X867784Y298844D01*
X869898Y300958D01*
X876669Y300958D01*
D33*
X860489Y306024D03*
D32*
X859984Y306529D01*
X850214Y306529D01*
X796214Y281529D02*
X795101Y281529D01*
X791881Y284826D02*
X791881Y285306D01*
X791881Y285801D01*
X795178Y281529D02*
X796214Y281529D01*
X795178Y281529D02*
X791881Y284826D01*
X791881Y285306D02*
X788277Y288909D01*
X788277Y289369D01*
D33*
X788277Y289369D03*
X858593Y279513D03*
D32*
X796214Y276529D02*
X795178Y276529D01*
X787421Y284286D02*
X785682Y284286D01*
D33*
X785682Y284286D03*
D32*
X787421Y284286D02*
X795178Y276529D01*
D33*
X858584Y274084D03*
X831813Y325958D03*
D32*
X830698Y314976D02*
X829916Y314195D01*
X831813Y324053D02*
X831813Y325958D01*
X831813Y324053D02*
X830698Y322937D01*
X830698Y314976D01*
X829916Y314195D02*
X816512Y314195D01*
X813214Y317493D02*
X813214Y318529D01*
X813214Y317493D02*
X816512Y314195D01*
X850214Y286529D02*
X853764Y286529D01*
X857067Y289832D02*
X858563Y289832D01*
D33*
X858563Y289832D03*
D32*
X857067Y289832D02*
X853764Y286529D01*
X850920Y282234D02*
X850214Y281529D01*
X850920Y282234D02*
X854499Y282234D01*
X860816Y284450D02*
X862977Y282289D01*
X887254Y282289D02*
X888175Y281369D01*
X856715Y284450D02*
X854499Y282234D01*
X856715Y284450D02*
X860816Y284450D01*
X862977Y282289D02*
X887254Y282289D01*
D33*
X865918Y306024D03*
D32*
X865585Y306024D01*
X861981Y302420D01*
X851106Y302420D02*
X850214Y301529D01*
X851106Y302420D02*
X861981Y302420D01*
X856059Y311529D02*
X850214Y311529D01*
X856059Y311529D02*
X857960Y309627D01*
X887856Y309627D02*
X888175Y309309D01*
X887856Y309627D02*
X857960Y309627D01*
X828214Y318529D02*
X828214Y324127D01*
X826384Y325958D01*
D33*
X826384Y325958D03*
D32*
X823214Y323698D02*
X823214Y318529D01*
X823214Y323698D02*
X820955Y325958D01*
D33*
X820955Y325958D03*
X877093Y322279D03*
D32*
X878093Y323279D01*
X888175Y323279D01*
X796214Y271529D02*
X781080Y271529D01*
X758222Y311075D02*
X759701Y312555D01*
X760213Y312555D01*
X763254Y315595D01*
X747598Y280853D02*
X739008Y280853D01*
X738366Y281496D01*
X766294Y312555D02*
X763254Y315595D01*
X766294Y312555D02*
X766806Y312555D01*
X766813Y312547D01*
X770145Y312547D01*
X770145Y320421D01*
X753885Y287140D02*
X747598Y280853D01*
X758222Y288555D02*
X758222Y311075D01*
X758222Y288555D02*
X756806Y287140D01*
X753885Y287140D01*
X780828Y271781D02*
X781080Y271529D01*
X771699Y274159D02*
X771699Y275048D01*
X771699Y274159D02*
X774077Y271781D01*
X780828Y271781D01*
X771699Y275048D02*
X770917Y275830D01*
X744031Y275830D01*
X738366Y281496D01*
X802653Y264529D02*
X803214Y264529D01*
X771045Y266706D02*
X759623Y266706D01*
X755412Y262496D02*
X738366Y262496D01*
X755412Y262496D02*
X759623Y266706D01*
X773222Y264529D02*
X803214Y264529D01*
X773222Y264529D02*
X771045Y266706D01*
X746363Y299847D02*
X746363Y307721D01*
X753254Y307721D01*
D33*
X738366Y262305D03*
X746363Y307721D03*
D32*
X802185Y260195D02*
X804243Y260195D01*
X805698Y261650D01*
X799885Y262496D02*
X765366Y262496D01*
X805698Y262012D02*
X805698Y261650D01*
X802185Y260195D02*
X799885Y262496D01*
X805698Y262012D02*
X808214Y264529D01*
X746363Y315595D02*
X746363Y323469D01*
X753254Y323469D01*
D33*
X765366Y262305D03*
X746363Y315595D03*
D32*
X820698Y268081D02*
X820698Y260976D01*
X815731Y262012D02*
X813214Y264529D01*
X815731Y262012D02*
X815731Y260976D01*
X820698Y268081D02*
X817503Y271275D01*
X801830Y271275D01*
X765366Y281496D02*
X763254Y283608D01*
X815731Y260976D02*
X816512Y260195D01*
X819916Y260195D01*
X820698Y260976D01*
X765366Y281496D02*
X762191Y281496D01*
X763254Y291973D02*
X767445Y291973D01*
X770636Y295165D01*
X763254Y291973D02*
X763254Y299847D01*
X763715Y281496D02*
X765366Y281496D01*
X763254Y281496D01*
X763254Y291973D01*
X765366Y281496D02*
X783377Y281496D01*
X790827Y274045D01*
X799060Y274045D01*
X801830Y271275D01*
X833214Y317493D02*
X833214Y318529D01*
X833214Y317493D02*
X836512Y314195D01*
X844243Y314195D01*
X851751Y321703D01*
X851751Y322279D01*
D33*
X851751Y322279D03*
D32*
X828214Y264529D02*
X828214Y263493D01*
X830731Y260976D02*
X831512Y260195D01*
X834916Y260195D01*
X835698Y260976D01*
X835698Y268048D01*
X830731Y262012D02*
X828214Y264529D01*
X830731Y262012D02*
X830731Y260976D01*
X835698Y268048D02*
X837567Y269917D01*
X842461Y269917D01*
X845881Y283231D02*
X846662Y284012D01*
X849978Y284012D01*
X850011Y284045D01*
X845881Y273337D02*
X842461Y269917D01*
X845881Y273337D02*
X845881Y283231D01*
X849978Y284012D02*
X853762Y284012D01*
X880491Y286656D02*
X882189Y288354D01*
X888175Y288354D01*
X880491Y286656D02*
X880411Y286656D01*
X876109Y290958D01*
X855978Y286228D02*
X853762Y284012D01*
X862944Y290958D02*
X876109Y290958D01*
X862166Y288339D02*
X860055Y286228D01*
X862166Y288339D02*
X862166Y290180D01*
X860055Y286228D02*
X855978Y286228D01*
X862166Y290180D02*
X862944Y290958D01*
X818214Y264529D02*
X818214Y263493D01*
D34*
X818174Y266053D02*
X815048Y269180D01*
X818174Y264569D02*
X818214Y264529D01*
X818174Y264569D02*
X818174Y266053D01*
X815048Y269180D02*
X802054Y269180D01*
X800146Y267272D01*
X780241Y267272D02*
X779336Y268177D01*
D33*
X779336Y268177D03*
D34*
X780241Y267272D02*
X800146Y267272D01*
D33*
X757207Y282321D03*
D32*
X777732Y276115D02*
X778129Y276115D01*
X777732Y276115D02*
X776180Y277666D01*
X759559Y277666D02*
X759032Y278193D01*
X759032Y280496D01*
X757207Y282321D01*
X759559Y277666D02*
X776180Y277666D01*
D34*
X757727Y135491D02*
X810495Y135491D01*
X863264Y135491D01*
D33*
X784005Y172723D03*
D35*
X750697Y132461D03*
X736854Y125540D03*
X743776Y132461D03*
X736854Y118618D03*
X736854Y132461D03*
X743776Y118618D03*
X743776Y125540D03*
X750697Y118618D03*
X750697Y125540D03*
X884111Y132461D03*
X870268Y125540D03*
X877189Y132461D03*
X870268Y118618D03*
X870268Y132461D03*
X877189Y118618D03*
X877189Y125540D03*
X884111Y118618D03*
X884111Y125540D03*
D34*
X796481Y240743D02*
X796481Y240919D01*
X796481Y240743D02*
X803495Y233729D01*
D33*
X883285Y161798D03*
D35*
X795909Y232918D03*
X802831Y232918D03*
X816674Y225997D03*
X788988Y232918D03*
X795909Y225997D03*
X802831Y225997D03*
X809752Y225997D03*
X788988Y225997D03*
D32*
X880618Y259605D02*
X881427Y260414D01*
X888175Y260414D01*
X796214Y286529D02*
X793698Y289045D01*
X792662Y289045D01*
X791881Y289826D01*
X791881Y291148D01*
X790056Y292973D01*
X784987Y292973D02*
X778129Y286115D01*
X784987Y292973D02*
X790056Y292973D01*
X779510Y287782D02*
X779510Y287495D01*
X778129Y286115D01*
D33*
X779510Y287782D03*
D32*
X794182Y306529D02*
X796214Y306529D01*
X796164Y306579D01*
X780693Y306579D01*
X777295Y303182D01*
D33*
X777295Y303182D03*
X880618Y269605D03*
X425196Y211111D03*
D24*
X469646Y218186D03*
X456946Y218186D03*
X444246Y230886D03*
X469646Y230886D03*
X444246Y218186D03*
X456946Y230886D03*
X444246Y243586D03*
X469646Y243586D03*
X456946Y243586D03*
D37*
X444246Y243586D02*
X444246Y218186D01*
X444246Y243586D02*
X469646Y243586D01*
X469646Y230886D02*
X444246Y230886D01*
X444246Y218186D02*
X469646Y218186D01*
D33*
X467323Y139635D03*
D38*
X511851Y117983D02*
X512191Y117983D01*
X511851Y117983D02*
X507152Y122682D01*
X476063Y122682D02*
X471551Y127194D01*
X476063Y122682D02*
X507152Y122682D01*
D24*
X387096Y138811D03*
X399796Y138811D03*
X412496Y138811D03*
X425196Y138811D03*
X437896Y138811D03*
X450596Y138811D03*
X450596Y151511D03*
X437896Y151511D03*
X425196Y151511D03*
X412496Y151511D03*
X399796Y151511D03*
X387096Y151511D03*
D38*
X575056Y163001D02*
X575056Y117983D01*
X575056Y163001D02*
X594995Y182940D01*
D24*
X564896Y164338D03*
X495046Y151511D03*
X507746Y151511D03*
X520446Y151511D03*
X507746Y138811D03*
X520446Y138811D03*
X552196Y151511D03*
X552196Y138811D03*
X495046Y164211D03*
X507746Y164211D03*
X520446Y164211D03*
X552196Y164211D03*
D33*
X575146Y265111D03*
X533146Y191135D03*
D24*
X533146Y230886D03*
X533146Y218186D03*
X520446Y218186D03*
X520446Y230886D03*
X533146Y243586D03*
X520446Y243586D03*
X545846Y243586D03*
X545846Y230886D03*
X545846Y218186D03*
D37*
X533146Y237236D02*
X539496Y243586D01*
X545846Y243586D01*
X533146Y237236D02*
X545846Y224536D01*
X545846Y218186D01*
X520446Y218186D01*
X520446Y243586D01*
X539496Y243586D01*
X539496Y237236D02*
X533146Y237236D01*
X539496Y237236D02*
X545846Y230886D01*
X545846Y218186D02*
X545846Y243586D01*
D33*
X683096Y265111D03*
X641096Y178435D03*
D24*
X609346Y230886D03*
X609346Y218186D03*
X596646Y230886D03*
X596646Y243586D03*
X609346Y243586D03*
X622046Y243586D03*
X622046Y230886D03*
X622046Y218186D03*
X596646Y218186D03*
D37*
X622046Y218186D02*
X622046Y243586D01*
X596646Y243586D01*
X596646Y237236D02*
X596646Y218186D01*
X596646Y237236D02*
X615696Y218186D01*
X622046Y218186D01*
X609346Y218186D02*
X609346Y243586D01*
X622046Y218186D02*
X596646Y218186D01*
D33*
X683096Y138111D03*
D24*
X602996Y138811D03*
X602996Y151511D03*
X615696Y151511D03*
X628396Y151511D03*
X641096Y151511D03*
X653796Y151511D03*
X666496Y151511D03*
X666496Y138811D03*
X653796Y138811D03*
X641096Y138811D03*
X628396Y138811D03*
X615696Y138811D03*
D38*
X515684Y189611D02*
X508699Y189611D01*
X511041Y194254D02*
X511041Y313556D01*
X511041Y194254D02*
X515684Y189611D01*
X511041Y313556D02*
X533146Y335661D01*
D33*
X533146Y335661D03*
D24*
X682371Y288036D03*
X682371Y300736D03*
X682371Y313436D03*
X682371Y326136D03*
X682371Y338836D03*
X682371Y351536D03*
X682371Y364236D03*
X383921Y364236D03*
X383921Y351536D03*
X383921Y338836D03*
X383921Y326136D03*
X383921Y313436D03*
X383921Y300736D03*
X383921Y288036D03*
D38*
X153988Y187325D02*
X147003Y187325D01*
X153988Y187325D02*
X162045Y195383D01*
X171450Y219676D02*
X171450Y231775D01*
X162045Y210271D02*
X162045Y195383D01*
X162045Y210271D02*
X171450Y219676D01*
D24*
X320675Y349250D03*
X320675Y361950D03*
X22225Y361950D03*
X22225Y349250D03*
X320675Y336550D03*
X320675Y323850D03*
X320675Y311150D03*
X320675Y298450D03*
X320675Y285750D03*
X22225Y336550D03*
X22225Y323850D03*
X22225Y311150D03*
X22225Y298450D03*
X22225Y285750D03*
D39*
X133350Y142875D03*
X236474Y119574D03*
D38*
X140018Y187325D02*
X133033Y187325D01*
X133350Y187008D01*
D24*
X320675Y139700D03*
X320675Y127000D03*
X22225Y139700D03*
X22225Y127000D03*
X320675Y152400D03*
X320675Y165100D03*
X320675Y177800D03*
X320675Y190500D03*
X22225Y152400D03*
X22225Y165100D03*
X22225Y177800D03*
X22225Y190500D03*
X95758Y123063D03*
X108331Y123190D03*
X242697Y124841D03*
X229870Y124206D03*
D37*
X109601Y185674D02*
X88900Y206375D01*
X109601Y185674D02*
X109601Y180654D01*
X279079Y180654D02*
X304800Y206375D01*
X279079Y180654D02*
X233299Y180654D01*
D24*
X695706Y623062D03*
X695706Y635762D03*
X695706Y648462D03*
X695706Y661162D03*
X695706Y673862D03*
X695706Y686562D03*
X73406Y623062D03*
X73406Y635762D03*
X73406Y648462D03*
X73406Y661162D03*
X73406Y673862D03*
X73406Y686562D03*
X371856Y623062D03*
X371856Y635762D03*
X371856Y648462D03*
X371856Y661162D03*
X371856Y673862D03*
X371856Y686562D03*
X397256Y623062D03*
X397256Y635762D03*
X397256Y648462D03*
X397256Y661162D03*
X397256Y673862D03*
X397256Y686562D03*
M02*
