G04 EAGLE Gerber RS-274X export*
G75*
%MOMM*%
%FSLAX34Y34*%
%LPD*%
%IN*%
%IPPOS*%
%AMOC8*
5,1,8,0,0,1.08239X$1,22.5*%
G01*
%ADD10C,0.254000*%


D10*
X0Y0D02*
X996950Y0D01*
X996950Y996950D01*
X0Y996950D01*
X0Y0D01*
X468757Y686562D02*
X624205Y686562D01*
X624205Y797687D01*
X468757Y797687D01*
X468757Y686562D01*
X468757Y614934D02*
X501269Y614934D01*
X624205Y614934D01*
X624205Y686562D01*
X468757Y686562D01*
X468757Y614934D01*
X468757Y614934D02*
X624205Y614934D01*
X624205Y797687D01*
X468757Y797687D01*
X468757Y686562D01*
X468757Y614934D01*
X144907Y686562D02*
X300355Y686562D01*
X300355Y797687D01*
X144907Y797687D01*
X144907Y686562D01*
X144907Y614934D02*
X177419Y614934D01*
X300355Y614934D01*
X300355Y686562D01*
X144907Y686562D01*
X144907Y614934D01*
X144907Y614934D02*
X300355Y614934D01*
X300355Y797687D01*
X144907Y797687D01*
X144907Y686562D01*
X144907Y614934D01*
X144907Y614934D02*
X300355Y614934D01*
X300355Y686562D01*
X144907Y686562D01*
X144907Y614934D01*
X789242Y684276D02*
X839534Y684276D01*
X839534Y676148D01*
X915670Y676148D01*
X915670Y831660D01*
X839534Y831660D01*
X839534Y823468D01*
X789242Y823468D01*
X789242Y684276D01*
X144907Y686562D02*
X300355Y686562D01*
X300355Y797687D01*
X144907Y797687D01*
X144907Y686562D01*
X487934Y102934D02*
X578358Y102934D01*
X578358Y117983D01*
X487934Y117983D01*
X487934Y102934D01*
X126238Y100648D02*
X216662Y100648D01*
X216662Y115697D01*
X126238Y115697D01*
X126238Y100648D01*
X888175Y255969D02*
X903224Y255969D01*
X903224Y327597D01*
X888175Y327597D01*
X888175Y255969D01*
X765239Y327597D02*
X855663Y327597D01*
X855663Y342646D01*
X765239Y342646D01*
X765239Y327597D01*
X765239Y240919D02*
X855663Y240919D01*
X855663Y255969D01*
X765239Y255969D01*
X765239Y240919D01*
M02*
