G04 EAGLE Gerber RS-274X export*
G75*
%MOMM*%
%FSLAX34Y34*%
%LPD*%
%INSoldermask Top*%
%IPPOS*%
%AMOC8*
5,1,8,0,0,1.08239X$1,22.5*%
G01*
%ADD10R,3.250800X1.850800*%
%ADD11R,0.650800X0.750800*%
%ADD12R,0.750800X0.650800*%
%ADD13P,1.787026X8X22.500000*%
%ADD14C,1.651000*%
%ADD15C,0.252047*%
%ADD16C,0.270800*%
%ADD17C,0.159772*%
%ADD18R,10.050800X7.050800*%
%ADD19R,0.950800X2.450800*%
%ADD20R,8.150800X2.450800*%
%ADD21C,0.609600*%
%ADD22C,0.660400*%
%ADD23R,2.590800X5.130800*%
%ADD24R,2.050800X2.050800*%
%ADD25C,1.550800*%
%ADD26P,1.869504X8X22.500000*%
%ADD27P,1.869504X8X292.500000*%
%ADD28P,1.979475X8X112.500000*%
%ADD29P,1.787026X8X292.500000*%
%ADD30C,0.504800*%
%ADD31C,0.875800*%
%ADD32C,0.654800*%


D10*
X748665Y175962D03*
X748665Y231962D03*
X872236Y175962D03*
X872236Y231962D03*
D11*
X778019Y312420D03*
X788019Y312420D03*
D12*
X770636Y305165D03*
X770636Y295165D03*
X770636Y312056D03*
X770636Y322056D03*
X770255Y270400D03*
X770255Y280400D03*
X778129Y270400D03*
X778129Y280400D03*
D13*
X849122Y620522D03*
D14*
X813562Y620522D03*
D13*
X950722Y620522D03*
D14*
X915162Y620522D03*
D15*
X842958Y271785D02*
X803470Y271785D01*
X803470Y311273D01*
X842958Y311273D01*
X842958Y271785D01*
X842958Y274179D02*
X803470Y274179D01*
X803470Y276573D02*
X842958Y276573D01*
X842958Y278967D02*
X803470Y278967D01*
X803470Y281361D02*
X842958Y281361D01*
X842958Y283755D02*
X803470Y283755D01*
X803470Y286149D02*
X842958Y286149D01*
X842958Y288543D02*
X803470Y288543D01*
X803470Y290937D02*
X842958Y290937D01*
X842958Y293331D02*
X803470Y293331D01*
X803470Y295725D02*
X842958Y295725D01*
X842958Y298119D02*
X803470Y298119D01*
X803470Y300513D02*
X842958Y300513D01*
X842958Y302907D02*
X803470Y302907D01*
X803470Y305301D02*
X842958Y305301D01*
X842958Y307695D02*
X803470Y307695D01*
X803470Y310089D02*
X842958Y310089D01*
D16*
X797114Y314029D02*
X794314Y314029D01*
D17*
X793759Y309584D02*
X793759Y308474D01*
X793759Y309584D02*
X797669Y309584D01*
X797669Y308474D01*
X793759Y308474D01*
X797669Y304584D02*
X797669Y303474D01*
X793759Y303474D01*
X793759Y304584D01*
X797669Y304584D01*
X797669Y299584D02*
X797669Y298474D01*
X793759Y298474D01*
X793759Y299584D01*
X797669Y299584D01*
X797669Y294584D02*
X797669Y293474D01*
X793759Y293474D01*
X793759Y294584D01*
X797669Y294584D01*
X797669Y289584D02*
X797669Y288474D01*
X793759Y288474D01*
X793759Y289584D01*
X797669Y289584D01*
X797669Y284584D02*
X797669Y283474D01*
X793759Y283474D01*
X793759Y284584D01*
X797669Y284584D01*
X797669Y279584D02*
X797669Y278474D01*
X793759Y278474D01*
X793759Y279584D01*
X797669Y279584D01*
X797669Y274584D02*
X797669Y273474D01*
X793759Y273474D01*
X793759Y274584D01*
X797669Y274584D01*
D16*
X797114Y269029D02*
X794314Y269029D01*
X800714Y265429D02*
X800714Y262629D01*
D17*
X805159Y265984D02*
X806269Y265984D01*
X806269Y262074D01*
X805159Y262074D01*
X805159Y265984D01*
X805159Y263592D02*
X806269Y263592D01*
X806269Y265110D02*
X805159Y265110D01*
X810159Y265984D02*
X811269Y265984D01*
X811269Y262074D01*
X810159Y262074D01*
X810159Y265984D01*
X810159Y263592D02*
X811269Y263592D01*
X811269Y265110D02*
X810159Y265110D01*
X815159Y265984D02*
X816269Y265984D01*
X816269Y262074D01*
X815159Y262074D01*
X815159Y265984D01*
X815159Y263592D02*
X816269Y263592D01*
X816269Y265110D02*
X815159Y265110D01*
X820159Y265984D02*
X821269Y265984D01*
X821269Y262074D01*
X820159Y262074D01*
X820159Y265984D01*
X820159Y263592D02*
X821269Y263592D01*
X821269Y265110D02*
X820159Y265110D01*
X825159Y265984D02*
X826269Y265984D01*
X826269Y262074D01*
X825159Y262074D01*
X825159Y265984D01*
X825159Y263592D02*
X826269Y263592D01*
X826269Y265110D02*
X825159Y265110D01*
X830159Y265984D02*
X831269Y265984D01*
X831269Y262074D01*
X830159Y262074D01*
X830159Y265984D01*
X830159Y263592D02*
X831269Y263592D01*
X831269Y265110D02*
X830159Y265110D01*
X835159Y265984D02*
X836269Y265984D01*
X836269Y262074D01*
X835159Y262074D01*
X835159Y265984D01*
X835159Y263592D02*
X836269Y263592D01*
X836269Y265110D02*
X835159Y265110D01*
X840159Y265984D02*
X841269Y265984D01*
X841269Y262074D01*
X840159Y262074D01*
X840159Y265984D01*
X840159Y263592D02*
X841269Y263592D01*
X841269Y265110D02*
X840159Y265110D01*
D16*
X845714Y265429D02*
X845714Y262629D01*
X849314Y269029D02*
X852114Y269029D01*
D17*
X848759Y273474D02*
X848759Y274584D01*
X852669Y274584D01*
X852669Y273474D01*
X848759Y273474D01*
X848759Y278474D02*
X848759Y279584D01*
X852669Y279584D01*
X852669Y278474D01*
X848759Y278474D01*
X848759Y283474D02*
X848759Y284584D01*
X852669Y284584D01*
X852669Y283474D01*
X848759Y283474D01*
X848759Y288474D02*
X848759Y289584D01*
X852669Y289584D01*
X852669Y288474D01*
X848759Y288474D01*
X848759Y293474D02*
X848759Y294584D01*
X852669Y294584D01*
X852669Y293474D01*
X848759Y293474D01*
X848759Y298474D02*
X848759Y299584D01*
X852669Y299584D01*
X852669Y298474D01*
X848759Y298474D01*
X848759Y303474D02*
X848759Y304584D01*
X852669Y304584D01*
X852669Y303474D01*
X848759Y303474D01*
X848759Y308474D02*
X848759Y309584D01*
X852669Y309584D01*
X852669Y308474D01*
X848759Y308474D01*
D16*
X849314Y314029D02*
X852114Y314029D01*
X845714Y317629D02*
X845714Y320429D01*
D17*
X841269Y317074D02*
X840159Y317074D01*
X840159Y320984D01*
X841269Y320984D01*
X841269Y317074D01*
X841269Y318592D02*
X840159Y318592D01*
X840159Y320110D02*
X841269Y320110D01*
X836269Y317074D02*
X835159Y317074D01*
X835159Y320984D01*
X836269Y320984D01*
X836269Y317074D01*
X836269Y318592D02*
X835159Y318592D01*
X835159Y320110D02*
X836269Y320110D01*
X831269Y317074D02*
X830159Y317074D01*
X830159Y320984D01*
X831269Y320984D01*
X831269Y317074D01*
X831269Y318592D02*
X830159Y318592D01*
X830159Y320110D02*
X831269Y320110D01*
X826269Y317074D02*
X825159Y317074D01*
X825159Y320984D01*
X826269Y320984D01*
X826269Y317074D01*
X826269Y318592D02*
X825159Y318592D01*
X825159Y320110D02*
X826269Y320110D01*
X821269Y317074D02*
X820159Y317074D01*
X820159Y320984D01*
X821269Y320984D01*
X821269Y317074D01*
X821269Y318592D02*
X820159Y318592D01*
X820159Y320110D02*
X821269Y320110D01*
X816269Y317074D02*
X815159Y317074D01*
X815159Y320984D01*
X816269Y320984D01*
X816269Y317074D01*
X816269Y318592D02*
X815159Y318592D01*
X815159Y320110D02*
X816269Y320110D01*
X811269Y317074D02*
X810159Y317074D01*
X810159Y320984D01*
X811269Y320984D01*
X811269Y317074D01*
X811269Y318592D02*
X810159Y318592D01*
X810159Y320110D02*
X811269Y320110D01*
X806269Y317074D02*
X805159Y317074D01*
X805159Y320984D01*
X806269Y320984D01*
X806269Y317074D01*
X806269Y318592D02*
X805159Y318592D01*
X805159Y320110D02*
X806269Y320110D01*
D16*
X800714Y320429D02*
X800714Y317629D01*
D18*
X425196Y338111D03*
D19*
X467196Y265111D03*
D20*
X419196Y265111D03*
D21*
X810451Y255969D03*
X803466Y255969D03*
X796481Y255969D03*
X789496Y255969D03*
X782511Y255969D03*
X775526Y255969D03*
X768541Y255969D03*
X817436Y255969D03*
X824421Y255969D03*
X831406Y255969D03*
X838391Y255969D03*
X845376Y255969D03*
X852361Y255969D03*
X888175Y323279D03*
X888175Y316294D03*
X888175Y309309D03*
D22*
X888175Y302324D03*
D21*
X888175Y295339D03*
X888175Y288354D03*
X888175Y281369D03*
X888175Y274384D03*
X888175Y267399D03*
X888175Y260414D03*
X792988Y327597D03*
X786003Y327597D03*
X779018Y327597D03*
X772033Y327597D03*
X768541Y240919D03*
X775526Y240919D03*
X782511Y240919D03*
X789496Y240919D03*
X796481Y240919D03*
X803466Y240919D03*
X810451Y240919D03*
X817436Y240919D03*
X824421Y240919D03*
X831406Y240919D03*
X838391Y240919D03*
X845376Y240919D03*
X852361Y240919D03*
X772033Y169291D03*
X779018Y169291D03*
X786003Y169291D03*
X792988Y169291D03*
D11*
X788019Y320294D03*
X778019Y320294D03*
X779510Y287782D03*
X769510Y287782D03*
D23*
X775272Y139891D03*
X810451Y139891D03*
X845693Y139891D03*
D24*
X742696Y124460D03*
X878269Y124460D03*
X742696Y155321D03*
X878269Y155321D03*
D21*
X915670Y753872D03*
X915670Y746887D03*
X915670Y739902D03*
X915670Y732917D03*
X915670Y725932D03*
X915670Y718947D03*
X915670Y711962D03*
X915670Y760857D03*
X915670Y767842D03*
X915670Y774827D03*
X915670Y781812D03*
X915670Y788797D03*
X915670Y795782D03*
X848360Y831596D03*
X855345Y831596D03*
X862330Y831596D03*
D22*
X869315Y831596D03*
D21*
X876300Y831596D03*
X883285Y831596D03*
X890270Y831596D03*
X897255Y831596D03*
X904240Y831596D03*
X911225Y831596D03*
D25*
X799592Y684276D03*
X831342Y684276D03*
X799592Y823468D03*
X831342Y823468D03*
D26*
X844042Y855472D03*
X844042Y880872D03*
X869442Y855472D03*
X869442Y880872D03*
X894842Y855472D03*
X894842Y880872D03*
X920242Y855472D03*
X920242Y880872D03*
D27*
X945642Y880872D03*
X971042Y880872D03*
X945642Y855472D03*
X971042Y855472D03*
X945642Y830072D03*
X971042Y830072D03*
X945642Y804672D03*
X971042Y804672D03*
X945642Y779272D03*
X971042Y779272D03*
X945642Y753872D03*
X971042Y753872D03*
X945642Y728472D03*
X971042Y728472D03*
X945642Y703072D03*
X971042Y703072D03*
D28*
X793242Y550672D03*
X818642Y550672D03*
X844042Y550672D03*
X869442Y550672D03*
X894842Y550672D03*
X920242Y550672D03*
X945642Y550672D03*
X971042Y550672D03*
D29*
X384556Y725932D03*
D14*
X384556Y761492D03*
D29*
X708406Y725932D03*
D14*
X708406Y761492D03*
D25*
X88900Y231775D03*
X63500Y231775D03*
X38100Y231775D03*
D21*
X491236Y117983D03*
X498221Y117983D03*
X505206Y117983D03*
X512191Y117983D03*
X519176Y117983D03*
X526161Y117983D03*
X533146Y117983D03*
X540131Y117983D03*
X547116Y117983D03*
X554101Y117983D03*
X561086Y117983D03*
X568071Y117983D03*
X575056Y117983D03*
D18*
X425196Y211111D03*
D19*
X467196Y138111D03*
D20*
X419196Y138111D03*
D18*
X533146Y338111D03*
D19*
X575146Y265111D03*
D20*
X527146Y265111D03*
D18*
X533146Y211111D03*
D19*
X575146Y138111D03*
D20*
X527146Y138111D03*
D18*
X641096Y338111D03*
D19*
X683096Y265111D03*
D20*
X635096Y265111D03*
D18*
X641096Y211111D03*
D19*
X683096Y138111D03*
D20*
X635096Y138111D03*
D21*
X129540Y115697D03*
X136525Y115697D03*
X143510Y115697D03*
X150495Y115697D03*
X157480Y115697D03*
X164465Y115697D03*
X171450Y115697D03*
X178435Y115697D03*
X185420Y115697D03*
X192405Y115697D03*
X199390Y115697D03*
X206375Y115697D03*
X213360Y115697D03*
D23*
X117475Y219075D03*
X222250Y203200D03*
X234950Y260350D03*
D25*
X38100Y206375D03*
X63500Y206375D03*
X88900Y206375D03*
X146050Y206375D03*
X171450Y206375D03*
X196850Y206375D03*
X196850Y231775D03*
X171450Y231775D03*
X146050Y231775D03*
X304800Y231775D03*
X279400Y231775D03*
X254000Y231775D03*
X254000Y206375D03*
X279400Y206375D03*
X304800Y206375D03*
D29*
X60706Y725932D03*
D14*
X60706Y761492D03*
D28*
X108331Y521462D03*
X133731Y521462D03*
X159131Y521462D03*
X184531Y521462D03*
X209931Y521462D03*
X235331Y521462D03*
X260731Y521462D03*
X286131Y521462D03*
X311531Y521462D03*
X336931Y521462D03*
X432181Y521462D03*
X457581Y521462D03*
X482981Y521462D03*
X508381Y521462D03*
X533781Y521462D03*
X559181Y521462D03*
X584581Y521462D03*
X609981Y521462D03*
X635381Y521462D03*
X660781Y521462D03*
D21*
X144907Y682244D03*
X144907Y675259D03*
X144907Y668274D03*
X144907Y661289D03*
X144907Y654304D03*
X144907Y647319D03*
X144907Y640334D03*
X144907Y633349D03*
X144907Y626364D03*
X144907Y619379D03*
X468757Y682244D03*
X468757Y675259D03*
X468757Y668274D03*
X468757Y661289D03*
X468757Y654304D03*
X468757Y647319D03*
X468757Y640334D03*
X468757Y633349D03*
X468757Y626364D03*
X468757Y619379D03*
D30*
X762580Y271805D03*
X736266Y292069D03*
X842671Y325946D03*
X799239Y325958D03*
X867029Y286228D03*
X753889Y291973D03*
X864870Y269605D03*
X872744Y269605D03*
X862013Y313961D03*
X869887Y313961D03*
X736363Y315595D03*
X804734Y310009D03*
X841693Y290449D03*
X823214Y291529D03*
X841693Y308814D03*
X804736Y284099D03*
X751967Y258890D03*
X778447Y319215D03*
X824040Y269558D03*
X746363Y291973D03*
X738366Y271805D03*
X804668Y325958D03*
X867029Y276623D03*
X880491Y315261D03*
X872617Y305292D03*
X879285Y296846D03*
X864870Y259605D03*
X794178Y320913D03*
D31*
X745173Y236855D03*
X752094Y236855D03*
X759016Y236855D03*
X738251Y236855D03*
X745173Y229934D03*
X752094Y229934D03*
X759016Y229934D03*
X738251Y229934D03*
X769430Y161925D03*
X776351Y161925D03*
X783273Y161925D03*
X762508Y161925D03*
X790194Y161925D03*
X776605Y202121D03*
X769684Y202121D03*
X769684Y181356D03*
X776605Y188278D03*
X769684Y188278D03*
X776605Y181356D03*
X776605Y195199D03*
X763715Y198628D03*
X769684Y195199D03*
X763715Y191707D03*
D30*
X829495Y233729D03*
D31*
X799910Y188278D03*
X806831Y188278D03*
X813753Y188278D03*
X792988Y188278D03*
X799910Y181356D03*
X806831Y181356D03*
X813753Y181356D03*
X792988Y181356D03*
X820674Y181356D03*
X820674Y188278D03*
X827596Y181356D03*
X827596Y188278D03*
X844296Y202121D03*
X851218Y202121D03*
X851218Y181356D03*
X844296Y188278D03*
X851218Y188278D03*
X844296Y181356D03*
X844296Y195199D03*
X857187Y198628D03*
X851218Y195199D03*
X857187Y191707D03*
X855345Y233617D03*
X862267Y233617D03*
X869188Y233617D03*
X848424Y233617D03*
X855345Y226695D03*
X862267Y226695D03*
X869188Y226695D03*
X848424Y226695D03*
D30*
X753952Y299911D03*
D25*
X371856Y861187D03*
X371856Y848487D03*
X371856Y835787D03*
X371856Y823087D03*
X371856Y810387D03*
X371856Y797687D03*
X397256Y797687D03*
X397256Y810387D03*
X397256Y823087D03*
X397256Y835787D03*
X397256Y848487D03*
X397256Y861187D03*
X695706Y861187D03*
X695706Y848487D03*
X695706Y835787D03*
X695706Y823087D03*
X695706Y810387D03*
X695706Y797687D03*
X73406Y861187D03*
X73406Y848487D03*
X73406Y835787D03*
X73406Y823087D03*
X73406Y810387D03*
X73406Y797687D03*
D30*
X763254Y323469D03*
X763254Y307721D03*
X753254Y315595D03*
X851662Y263081D03*
X855948Y318798D03*
X837242Y325958D03*
X777295Y297477D03*
X782120Y300329D03*
X815526Y325958D03*
X810097Y325947D03*
X787549Y300237D03*
X872617Y295292D03*
X863979Y299321D03*
X858584Y297039D03*
X860489Y306024D03*
X788277Y289369D03*
X858593Y279513D03*
X785682Y284286D03*
X858584Y274084D03*
X831813Y325958D03*
X858563Y289832D03*
X865918Y306024D03*
X826384Y325958D03*
X820955Y325958D03*
X877093Y322279D03*
X738366Y262305D03*
X746363Y307721D03*
X765366Y262305D03*
X746363Y315595D03*
X851751Y322279D03*
X779336Y268177D03*
X757207Y282321D03*
X784005Y172723D03*
D31*
X750697Y132461D03*
X736854Y125540D03*
X743776Y132461D03*
X736854Y118618D03*
X736854Y132461D03*
X743776Y118618D03*
X743776Y125540D03*
X750697Y118618D03*
X750697Y125540D03*
X884111Y132461D03*
X870268Y125540D03*
X877189Y132461D03*
X870268Y118618D03*
X870268Y132461D03*
X877189Y118618D03*
X877189Y125540D03*
X884111Y118618D03*
X884111Y125540D03*
D30*
X883285Y161798D03*
D31*
X795909Y232918D03*
X802831Y232918D03*
X816674Y225997D03*
X788988Y232918D03*
X795909Y225997D03*
X802831Y225997D03*
X809752Y225997D03*
X788988Y225997D03*
D30*
X779510Y287782D03*
X777295Y303182D03*
X880618Y269605D03*
X425196Y211111D03*
D25*
X469646Y218186D03*
X456946Y218186D03*
X444246Y230886D03*
X469646Y230886D03*
X444246Y218186D03*
X456946Y230886D03*
X444246Y243586D03*
X469646Y243586D03*
X456946Y243586D03*
D30*
X467323Y139635D03*
D25*
X387096Y138811D03*
X399796Y138811D03*
X412496Y138811D03*
X425196Y138811D03*
X437896Y138811D03*
X450596Y138811D03*
X450596Y151511D03*
X437896Y151511D03*
X425196Y151511D03*
X412496Y151511D03*
X399796Y151511D03*
X387096Y151511D03*
X564896Y164338D03*
X495046Y151511D03*
X507746Y151511D03*
X520446Y151511D03*
X507746Y138811D03*
X520446Y138811D03*
X552196Y151511D03*
X552196Y138811D03*
X495046Y164211D03*
X507746Y164211D03*
X520446Y164211D03*
X552196Y164211D03*
D30*
X575146Y265111D03*
X533146Y191135D03*
D25*
X533146Y230886D03*
X533146Y218186D03*
X520446Y218186D03*
X520446Y230886D03*
X533146Y243586D03*
X520446Y243586D03*
X545846Y243586D03*
X545846Y230886D03*
X545846Y218186D03*
D30*
X683096Y265111D03*
X641096Y178435D03*
D25*
X609346Y230886D03*
X609346Y218186D03*
X596646Y230886D03*
X596646Y243586D03*
X609346Y243586D03*
X622046Y243586D03*
X622046Y230886D03*
X622046Y218186D03*
X596646Y218186D03*
D30*
X683096Y138111D03*
D25*
X602996Y138811D03*
X602996Y151511D03*
X615696Y151511D03*
X628396Y151511D03*
X641096Y151511D03*
X653796Y151511D03*
X666496Y151511D03*
X666496Y138811D03*
X653796Y138811D03*
X641096Y138811D03*
X628396Y138811D03*
X615696Y138811D03*
D30*
X533146Y335661D03*
D25*
X682371Y288036D03*
X682371Y300736D03*
X682371Y313436D03*
X682371Y326136D03*
X682371Y338836D03*
X682371Y351536D03*
X682371Y364236D03*
X383921Y364236D03*
X383921Y351536D03*
X383921Y338836D03*
X383921Y326136D03*
X383921Y313436D03*
X383921Y300736D03*
X383921Y288036D03*
X320675Y349250D03*
X320675Y361950D03*
X22225Y361950D03*
X22225Y349250D03*
X320675Y336550D03*
X320675Y323850D03*
X320675Y311150D03*
X320675Y298450D03*
X320675Y285750D03*
X22225Y336550D03*
X22225Y323850D03*
X22225Y311150D03*
X22225Y298450D03*
X22225Y285750D03*
D32*
X133350Y142875D03*
X236474Y119574D03*
D25*
X320675Y139700D03*
X320675Y127000D03*
X22225Y139700D03*
X22225Y127000D03*
X320675Y152400D03*
X320675Y165100D03*
X320675Y177800D03*
X320675Y190500D03*
X22225Y152400D03*
X22225Y165100D03*
X22225Y177800D03*
X22225Y190500D03*
X95758Y123063D03*
X108331Y123190D03*
X242697Y124841D03*
X229870Y124206D03*
X695706Y623062D03*
X695706Y635762D03*
X695706Y648462D03*
X695706Y661162D03*
X695706Y673862D03*
X695706Y686562D03*
X73406Y623062D03*
X73406Y635762D03*
X73406Y648462D03*
X73406Y661162D03*
X73406Y673862D03*
X73406Y686562D03*
X371856Y623062D03*
X371856Y635762D03*
X371856Y648462D03*
X371856Y661162D03*
X371856Y673862D03*
X371856Y686562D03*
X397256Y623062D03*
X397256Y635762D03*
X397256Y648462D03*
X397256Y661162D03*
X397256Y673862D03*
X397256Y686562D03*
M02*
