G04 EAGLE Gerber RS-274X export*
G75*
%MOMM*%
%FSLAX34Y34*%
%LPD*%
%INSolderpaste Top*%
%IPPOS*%
%AMOC8*
5,1,8,0,0,1.08239X$1,22.5*%
G01*
%ADD10R,3.200000X1.800000*%
%ADD11R,0.600000X0.700000*%
%ADD12R,0.700000X0.600000*%
%ADD13C,0.207500*%
%ADD14C,0.220000*%
%ADD15C,0.110000*%
%ADD16R,10.000000X7.000000*%
%ADD17R,0.900000X2.400000*%
%ADD18R,8.100000X2.400000*%
%ADD19C,0.558800*%
%ADD20R,2.540000X5.080000*%


D10*
X748665Y175962D03*
X748665Y231962D03*
X872236Y175962D03*
X872236Y231962D03*
D11*
X778019Y312420D03*
X788019Y312420D03*
D12*
X770636Y305165D03*
X770636Y295165D03*
X770636Y312056D03*
X770636Y322056D03*
X770255Y270400D03*
X770255Y280400D03*
X778129Y270400D03*
X778129Y280400D03*
D13*
X803501Y271816D02*
X842927Y271816D01*
X803501Y271816D02*
X803501Y311242D01*
X842927Y311242D01*
X842927Y271816D01*
X842927Y273787D02*
X803501Y273787D01*
X803501Y275758D02*
X842927Y275758D01*
X842927Y277729D02*
X803501Y277729D01*
X803501Y279700D02*
X842927Y279700D01*
X842927Y281671D02*
X803501Y281671D01*
X803501Y283642D02*
X842927Y283642D01*
X842927Y285613D02*
X803501Y285613D01*
X803501Y287584D02*
X842927Y287584D01*
X842927Y289555D02*
X803501Y289555D01*
X803501Y291526D02*
X842927Y291526D01*
X842927Y293497D02*
X803501Y293497D01*
X803501Y295468D02*
X842927Y295468D01*
X842927Y297439D02*
X803501Y297439D01*
X803501Y299410D02*
X842927Y299410D01*
X842927Y301381D02*
X803501Y301381D01*
X803501Y303352D02*
X842927Y303352D01*
X842927Y305323D02*
X803501Y305323D01*
X803501Y307294D02*
X842927Y307294D01*
X842927Y309265D02*
X803501Y309265D01*
X803501Y311236D02*
X842927Y311236D01*
D14*
X797114Y314029D02*
X794314Y314029D01*
D15*
X793764Y309579D02*
X793764Y308479D01*
X793764Y309579D02*
X797664Y309579D01*
X797664Y308479D01*
X793764Y308479D01*
X793764Y309524D02*
X797664Y309524D01*
X797664Y304579D02*
X797664Y303479D01*
X793764Y303479D01*
X793764Y304579D01*
X797664Y304579D01*
X797664Y304524D02*
X793764Y304524D01*
X797664Y299579D02*
X797664Y298479D01*
X793764Y298479D01*
X793764Y299579D01*
X797664Y299579D01*
X797664Y299524D02*
X793764Y299524D01*
X797664Y294579D02*
X797664Y293479D01*
X793764Y293479D01*
X793764Y294579D01*
X797664Y294579D01*
X797664Y294524D02*
X793764Y294524D01*
X797664Y289579D02*
X797664Y288479D01*
X793764Y288479D01*
X793764Y289579D01*
X797664Y289579D01*
X797664Y289524D02*
X793764Y289524D01*
X797664Y284579D02*
X797664Y283479D01*
X793764Y283479D01*
X793764Y284579D01*
X797664Y284579D01*
X797664Y284524D02*
X793764Y284524D01*
X797664Y279579D02*
X797664Y278479D01*
X793764Y278479D01*
X793764Y279579D01*
X797664Y279579D01*
X797664Y279524D02*
X793764Y279524D01*
X797664Y274579D02*
X797664Y273479D01*
X793764Y273479D01*
X793764Y274579D01*
X797664Y274579D01*
X797664Y274524D02*
X793764Y274524D01*
D14*
X794314Y269029D02*
X797114Y269029D01*
X800714Y265429D02*
X800714Y262629D01*
D15*
X805164Y265979D02*
X806264Y265979D01*
X806264Y262079D01*
X805164Y262079D01*
X805164Y265979D01*
X805164Y263124D02*
X806264Y263124D01*
X806264Y264169D02*
X805164Y264169D01*
X805164Y265214D02*
X806264Y265214D01*
X810164Y265979D02*
X811264Y265979D01*
X811264Y262079D01*
X810164Y262079D01*
X810164Y265979D01*
X810164Y263124D02*
X811264Y263124D01*
X811264Y264169D02*
X810164Y264169D01*
X810164Y265214D02*
X811264Y265214D01*
X815164Y265979D02*
X816264Y265979D01*
X816264Y262079D01*
X815164Y262079D01*
X815164Y265979D01*
X815164Y263124D02*
X816264Y263124D01*
X816264Y264169D02*
X815164Y264169D01*
X815164Y265214D02*
X816264Y265214D01*
X820164Y265979D02*
X821264Y265979D01*
X821264Y262079D01*
X820164Y262079D01*
X820164Y265979D01*
X820164Y263124D02*
X821264Y263124D01*
X821264Y264169D02*
X820164Y264169D01*
X820164Y265214D02*
X821264Y265214D01*
X825164Y265979D02*
X826264Y265979D01*
X826264Y262079D01*
X825164Y262079D01*
X825164Y265979D01*
X825164Y263124D02*
X826264Y263124D01*
X826264Y264169D02*
X825164Y264169D01*
X825164Y265214D02*
X826264Y265214D01*
X830164Y265979D02*
X831264Y265979D01*
X831264Y262079D01*
X830164Y262079D01*
X830164Y265979D01*
X830164Y263124D02*
X831264Y263124D01*
X831264Y264169D02*
X830164Y264169D01*
X830164Y265214D02*
X831264Y265214D01*
X835164Y265979D02*
X836264Y265979D01*
X836264Y262079D01*
X835164Y262079D01*
X835164Y265979D01*
X835164Y263124D02*
X836264Y263124D01*
X836264Y264169D02*
X835164Y264169D01*
X835164Y265214D02*
X836264Y265214D01*
X840164Y265979D02*
X841264Y265979D01*
X841264Y262079D01*
X840164Y262079D01*
X840164Y265979D01*
X840164Y263124D02*
X841264Y263124D01*
X841264Y264169D02*
X840164Y264169D01*
X840164Y265214D02*
X841264Y265214D01*
D14*
X845714Y265429D02*
X845714Y262629D01*
X849314Y269029D02*
X852114Y269029D01*
D15*
X848764Y273479D02*
X848764Y274579D01*
X852664Y274579D01*
X852664Y273479D01*
X848764Y273479D01*
X848764Y274524D02*
X852664Y274524D01*
X848764Y278479D02*
X848764Y279579D01*
X852664Y279579D01*
X852664Y278479D01*
X848764Y278479D01*
X848764Y279524D02*
X852664Y279524D01*
X848764Y283479D02*
X848764Y284579D01*
X852664Y284579D01*
X852664Y283479D01*
X848764Y283479D01*
X848764Y284524D02*
X852664Y284524D01*
X848764Y288479D02*
X848764Y289579D01*
X852664Y289579D01*
X852664Y288479D01*
X848764Y288479D01*
X848764Y289524D02*
X852664Y289524D01*
X848764Y293479D02*
X848764Y294579D01*
X852664Y294579D01*
X852664Y293479D01*
X848764Y293479D01*
X848764Y294524D02*
X852664Y294524D01*
X848764Y298479D02*
X848764Y299579D01*
X852664Y299579D01*
X852664Y298479D01*
X848764Y298479D01*
X848764Y299524D02*
X852664Y299524D01*
X848764Y303479D02*
X848764Y304579D01*
X852664Y304579D01*
X852664Y303479D01*
X848764Y303479D01*
X848764Y304524D02*
X852664Y304524D01*
X848764Y308479D02*
X848764Y309579D01*
X852664Y309579D01*
X852664Y308479D01*
X848764Y308479D01*
X848764Y309524D02*
X852664Y309524D01*
D14*
X852114Y314029D02*
X849314Y314029D01*
X845714Y317629D02*
X845714Y320429D01*
D15*
X841264Y317079D02*
X840164Y317079D01*
X840164Y320979D01*
X841264Y320979D01*
X841264Y317079D01*
X841264Y318124D02*
X840164Y318124D01*
X840164Y319169D02*
X841264Y319169D01*
X841264Y320214D02*
X840164Y320214D01*
X836264Y317079D02*
X835164Y317079D01*
X835164Y320979D01*
X836264Y320979D01*
X836264Y317079D01*
X836264Y318124D02*
X835164Y318124D01*
X835164Y319169D02*
X836264Y319169D01*
X836264Y320214D02*
X835164Y320214D01*
X831264Y317079D02*
X830164Y317079D01*
X830164Y320979D01*
X831264Y320979D01*
X831264Y317079D01*
X831264Y318124D02*
X830164Y318124D01*
X830164Y319169D02*
X831264Y319169D01*
X831264Y320214D02*
X830164Y320214D01*
X826264Y317079D02*
X825164Y317079D01*
X825164Y320979D01*
X826264Y320979D01*
X826264Y317079D01*
X826264Y318124D02*
X825164Y318124D01*
X825164Y319169D02*
X826264Y319169D01*
X826264Y320214D02*
X825164Y320214D01*
X821264Y317079D02*
X820164Y317079D01*
X820164Y320979D01*
X821264Y320979D01*
X821264Y317079D01*
X821264Y318124D02*
X820164Y318124D01*
X820164Y319169D02*
X821264Y319169D01*
X821264Y320214D02*
X820164Y320214D01*
X816264Y317079D02*
X815164Y317079D01*
X815164Y320979D01*
X816264Y320979D01*
X816264Y317079D01*
X816264Y318124D02*
X815164Y318124D01*
X815164Y319169D02*
X816264Y319169D01*
X816264Y320214D02*
X815164Y320214D01*
X811264Y317079D02*
X810164Y317079D01*
X810164Y320979D01*
X811264Y320979D01*
X811264Y317079D01*
X811264Y318124D02*
X810164Y318124D01*
X810164Y319169D02*
X811264Y319169D01*
X811264Y320214D02*
X810164Y320214D01*
X806264Y317079D02*
X805164Y317079D01*
X805164Y320979D01*
X806264Y320979D01*
X806264Y317079D01*
X806264Y318124D02*
X805164Y318124D01*
X805164Y319169D02*
X806264Y319169D01*
X806264Y320214D02*
X805164Y320214D01*
D14*
X800714Y320429D02*
X800714Y317629D01*
D16*
X425196Y338111D03*
D17*
X467196Y265111D03*
D18*
X419196Y265111D03*
D19*
X772033Y169291D03*
X779018Y169291D03*
X786003Y169291D03*
X792988Y169291D03*
D11*
X788019Y320294D03*
X778019Y320294D03*
X779510Y287782D03*
X769510Y287782D03*
D20*
X775272Y139891D03*
X810451Y139891D03*
X845693Y139891D03*
D16*
X425196Y211111D03*
D17*
X467196Y138111D03*
D18*
X419196Y138111D03*
D16*
X533146Y338111D03*
D17*
X575146Y265111D03*
D18*
X527146Y265111D03*
D16*
X533146Y211111D03*
D17*
X575146Y138111D03*
D18*
X527146Y138111D03*
D16*
X641096Y338111D03*
D17*
X683096Y265111D03*
D18*
X635096Y265111D03*
D16*
X641096Y211111D03*
D17*
X683096Y138111D03*
D18*
X635096Y138111D03*
D20*
X117475Y219075D03*
X222250Y203200D03*
X234950Y260350D03*
M02*
