G04 EAGLE Gerber RS-274X export*
G75*
%MOMM*%
%FSLAX34Y34*%
%LPD*%
%INCopper Layer 2*%
%IPPOS*%
%AMOC8*
5,1,8,0,0,1.08239X$1,22.5*%
G01*
%ADD10C,0.101600*%
%ADD11C,0.454000*%
%ADD12C,0.088900*%
%ADD13C,1.500000*%
%ADD14C,0.704000*%
%ADD15C,0.203200*%
%ADD16C,0.152400*%

G36*
X201705Y31185D02*
X201705Y31185D01*
X201734Y31183D01*
X201795Y31205D01*
X201859Y31219D01*
X201883Y31236D01*
X201910Y31246D01*
X201957Y31292D01*
X202010Y31330D01*
X202024Y31356D01*
X202045Y31376D01*
X202057Y31415D01*
X202101Y31494D01*
X202108Y31584D01*
X202120Y31623D01*
X202120Y106991D01*
X202114Y107019D01*
X202116Y107048D01*
X202094Y107110D01*
X202080Y107174D01*
X202063Y107197D01*
X202053Y107225D01*
X202007Y107272D01*
X201969Y107324D01*
X201943Y107338D01*
X201923Y107359D01*
X201884Y107371D01*
X201805Y107415D01*
X201715Y107423D01*
X201676Y107434D01*
X199931Y107434D01*
X196708Y108770D01*
X194241Y111237D01*
X192905Y114460D01*
X192905Y117950D01*
X194241Y121173D01*
X195245Y122178D01*
X195261Y122202D01*
X195283Y122221D01*
X195311Y122280D01*
X195347Y122335D01*
X195351Y122364D01*
X195363Y122391D01*
X195364Y122456D01*
X195374Y122521D01*
X195366Y122549D01*
X195367Y122578D01*
X195348Y122614D01*
X195323Y122701D01*
X195264Y122770D01*
X195245Y122805D01*
X194241Y123810D01*
X193085Y126598D01*
X193065Y126628D01*
X193052Y126663D01*
X193012Y126705D01*
X192979Y126752D01*
X192948Y126771D01*
X192922Y126797D01*
X192885Y126809D01*
X192818Y126849D01*
X192713Y126861D01*
X192676Y126872D01*
X190711Y126872D01*
X190669Y126863D01*
X190625Y126864D01*
X190593Y126847D01*
X190528Y126833D01*
X190429Y126759D01*
X190397Y126742D01*
X185297Y121642D01*
X185273Y121605D01*
X185242Y121574D01*
X185231Y121540D01*
X185195Y121484D01*
X185177Y121362D01*
X185167Y121328D01*
X185167Y83159D01*
X185170Y83145D01*
X185168Y83130D01*
X185190Y83054D01*
X185206Y82976D01*
X185215Y82964D01*
X185219Y82950D01*
X185271Y82890D01*
X185318Y82826D01*
X185331Y82819D01*
X185340Y82807D01*
X185412Y82773D01*
X185482Y82735D01*
X185496Y82734D01*
X185510Y82727D01*
X185589Y82726D01*
X185668Y82719D01*
X185682Y82724D01*
X185697Y82724D01*
X185728Y82741D01*
X185845Y82782D01*
X185892Y82829D01*
X185924Y82846D01*
X186366Y83288D01*
X189300Y83288D01*
X191374Y81214D01*
X191374Y78280D01*
X189300Y76206D01*
X186366Y76206D01*
X185924Y76648D01*
X185912Y76656D01*
X185903Y76668D01*
X185834Y76707D01*
X185767Y76750D01*
X185752Y76752D01*
X185739Y76759D01*
X185660Y76766D01*
X185581Y76777D01*
X185567Y76773D01*
X185553Y76775D01*
X185478Y76748D01*
X185401Y76726D01*
X185390Y76717D01*
X185376Y76712D01*
X185319Y76656D01*
X185258Y76605D01*
X185252Y76592D01*
X185242Y76581D01*
X185231Y76547D01*
X185178Y76435D01*
X185177Y76369D01*
X185167Y76335D01*
X185167Y61799D01*
X171438Y48070D01*
X171414Y48033D01*
X171383Y48002D01*
X171372Y47968D01*
X171336Y47912D01*
X171318Y47790D01*
X171308Y47756D01*
X171308Y45627D01*
X169234Y43553D01*
X166300Y43553D01*
X164226Y45627D01*
X164226Y48561D01*
X166300Y50635D01*
X168429Y50635D01*
X168472Y50644D01*
X168515Y50643D01*
X168547Y50660D01*
X168612Y50674D01*
X168711Y50748D01*
X168743Y50765D01*
X169123Y51145D01*
X169131Y51157D01*
X169142Y51166D01*
X169181Y51235D01*
X169224Y51302D01*
X169226Y51317D01*
X169233Y51330D01*
X169240Y51409D01*
X169252Y51487D01*
X169247Y51502D01*
X169249Y51516D01*
X169222Y51591D01*
X169200Y51668D01*
X169191Y51679D01*
X169186Y51693D01*
X169130Y51750D01*
X169079Y51810D01*
X169066Y51817D01*
X169055Y51827D01*
X169021Y51838D01*
X168910Y51891D01*
X168843Y51892D01*
X168809Y51902D01*
X167158Y51902D01*
X165084Y53976D01*
X165084Y56909D01*
X167158Y58984D01*
X170092Y58984D01*
X172166Y56909D01*
X172166Y55259D01*
X172169Y55245D01*
X172167Y55230D01*
X172189Y55153D01*
X172205Y55076D01*
X172214Y55064D01*
X172218Y55050D01*
X172270Y54989D01*
X172317Y54926D01*
X172330Y54918D01*
X172339Y54907D01*
X172411Y54873D01*
X172481Y54835D01*
X172495Y54833D01*
X172509Y54827D01*
X172588Y54826D01*
X172667Y54819D01*
X172681Y54824D01*
X172696Y54824D01*
X172727Y54841D01*
X172844Y54882D01*
X172891Y54928D01*
X172923Y54945D01*
X181225Y63247D01*
X181249Y63284D01*
X181280Y63315D01*
X181291Y63349D01*
X181327Y63405D01*
X181331Y63436D01*
X181336Y63444D01*
X181340Y63497D01*
X181345Y63527D01*
X181355Y63561D01*
X181355Y74390D01*
X181352Y74404D01*
X181354Y74419D01*
X181332Y74495D01*
X181316Y74573D01*
X181307Y74585D01*
X181303Y74599D01*
X181251Y74659D01*
X181204Y74723D01*
X181191Y74730D01*
X181182Y74742D01*
X181110Y74776D01*
X181040Y74814D01*
X181026Y74815D01*
X181012Y74822D01*
X180933Y74823D01*
X180854Y74830D01*
X180840Y74825D01*
X180825Y74825D01*
X180794Y74808D01*
X180677Y74767D01*
X180630Y74720D01*
X180598Y74703D01*
X180450Y74555D01*
X177516Y74555D01*
X175442Y76629D01*
X175442Y79563D01*
X177516Y81637D01*
X180450Y81637D01*
X180598Y81489D01*
X180610Y81481D01*
X180619Y81469D01*
X180689Y81430D01*
X180755Y81387D01*
X180770Y81385D01*
X180783Y81378D01*
X180862Y81371D01*
X180940Y81360D01*
X180955Y81364D01*
X180969Y81362D01*
X181044Y81389D01*
X181121Y81411D01*
X181132Y81420D01*
X181146Y81425D01*
X181203Y81481D01*
X181264Y81532D01*
X181270Y81545D01*
X181280Y81556D01*
X181291Y81590D01*
X181344Y81702D01*
X181345Y81768D01*
X181355Y81802D01*
X181355Y123090D01*
X188949Y130684D01*
X192676Y130684D01*
X192711Y130691D01*
X192748Y130690D01*
X192802Y130711D01*
X192859Y130723D01*
X192888Y130745D01*
X192922Y130758D01*
X192947Y130789D01*
X193009Y130835D01*
X193060Y130927D01*
X193085Y130958D01*
X194241Y133746D01*
X195245Y134751D01*
X195261Y134775D01*
X195283Y134794D01*
X195311Y134853D01*
X195347Y134908D01*
X195351Y134937D01*
X195363Y134964D01*
X195364Y135029D01*
X195374Y135094D01*
X195366Y135122D01*
X195367Y135151D01*
X195348Y135187D01*
X195323Y135274D01*
X195264Y135343D01*
X195245Y135378D01*
X194241Y136383D01*
X192905Y139606D01*
X192905Y143096D01*
X194241Y146319D01*
X195245Y147324D01*
X195261Y147348D01*
X195283Y147367D01*
X195311Y147426D01*
X195347Y147481D01*
X195351Y147510D01*
X195363Y147537D01*
X195364Y147602D01*
X195374Y147667D01*
X195366Y147695D01*
X195367Y147724D01*
X195348Y147760D01*
X195323Y147847D01*
X195264Y147916D01*
X195245Y147951D01*
X194241Y148956D01*
X192905Y152179D01*
X192905Y155669D01*
X194241Y158892D01*
X195245Y159897D01*
X195261Y159921D01*
X195283Y159940D01*
X195311Y159999D01*
X195347Y160054D01*
X195351Y160083D01*
X195363Y160110D01*
X195364Y160175D01*
X195374Y160240D01*
X195366Y160268D01*
X195367Y160297D01*
X195348Y160333D01*
X195323Y160420D01*
X195264Y160489D01*
X195245Y160524D01*
X194241Y161529D01*
X192905Y164752D01*
X192905Y168242D01*
X194241Y171465D01*
X196708Y173932D01*
X199931Y175268D01*
X201676Y175268D01*
X201705Y175274D01*
X201734Y175272D01*
X201795Y175294D01*
X201859Y175307D01*
X201883Y175325D01*
X201910Y175335D01*
X201957Y175380D01*
X202010Y175419D01*
X202024Y175444D01*
X202045Y175465D01*
X202057Y175504D01*
X202101Y175583D01*
X202108Y175673D01*
X202120Y175711D01*
X202120Y183388D01*
X202114Y183416D01*
X202116Y183443D01*
X202116Y183444D01*
X202116Y183446D01*
X202094Y183507D01*
X202080Y183571D01*
X202063Y183595D01*
X202053Y183622D01*
X202007Y183669D01*
X201969Y183722D01*
X201943Y183736D01*
X201923Y183757D01*
X201884Y183769D01*
X201805Y183813D01*
X201715Y183820D01*
X201676Y183832D01*
X193491Y183832D01*
X193463Y183826D01*
X193434Y183828D01*
X193372Y183806D01*
X193308Y183792D01*
X193285Y183775D01*
X193257Y183765D01*
X193210Y183719D01*
X193158Y183681D01*
X193144Y183655D01*
X193123Y183635D01*
X193111Y183596D01*
X193067Y183517D01*
X193059Y183427D01*
X193048Y183388D01*
X193048Y181643D01*
X191712Y178420D01*
X189245Y175953D01*
X186022Y174617D01*
X182532Y174617D01*
X179309Y175953D01*
X178304Y176957D01*
X178280Y176973D01*
X178261Y176995D01*
X178202Y177023D01*
X178147Y177059D01*
X178118Y177063D01*
X178091Y177075D01*
X178026Y177076D01*
X177961Y177086D01*
X177933Y177078D01*
X177904Y177079D01*
X177868Y177060D01*
X177781Y177035D01*
X177712Y176976D01*
X177677Y176957D01*
X176672Y175953D01*
X173449Y174617D01*
X169959Y174617D01*
X166736Y175953D01*
X165731Y176957D01*
X165707Y176973D01*
X165688Y176995D01*
X165629Y177023D01*
X165574Y177059D01*
X165545Y177063D01*
X165518Y177075D01*
X165453Y177076D01*
X165388Y177086D01*
X165360Y177078D01*
X165331Y177079D01*
X165295Y177060D01*
X165208Y177035D01*
X165139Y176976D01*
X165104Y176957D01*
X164099Y175953D01*
X160876Y174617D01*
X157386Y174617D01*
X154163Y175953D01*
X151696Y178420D01*
X150360Y181643D01*
X150360Y183388D01*
X150354Y183416D01*
X150356Y183443D01*
X150356Y183444D01*
X150356Y183446D01*
X150334Y183507D01*
X150321Y183571D01*
X150303Y183595D01*
X150293Y183622D01*
X150248Y183669D01*
X150209Y183722D01*
X150184Y183736D01*
X150163Y183757D01*
X150124Y183769D01*
X150045Y183813D01*
X149955Y183820D01*
X149917Y183832D01*
X138373Y183832D01*
X138345Y183826D01*
X138316Y183828D01*
X138254Y183806D01*
X138190Y183792D01*
X138167Y183775D01*
X138139Y183765D01*
X138092Y183719D01*
X138040Y183681D01*
X138026Y183655D01*
X138005Y183635D01*
X137993Y183596D01*
X137949Y183517D01*
X137941Y183427D01*
X137930Y183388D01*
X137930Y181643D01*
X136594Y178420D01*
X134127Y175953D01*
X130904Y174617D01*
X127414Y174617D01*
X124191Y175953D01*
X123186Y176957D01*
X123162Y176973D01*
X123143Y176995D01*
X123084Y177023D01*
X123029Y177059D01*
X123000Y177063D01*
X122973Y177075D01*
X122908Y177076D01*
X122843Y177086D01*
X122815Y177078D01*
X122786Y177079D01*
X122750Y177060D01*
X122663Y177035D01*
X122594Y176976D01*
X122559Y176957D01*
X121554Y175953D01*
X118331Y174617D01*
X114841Y174617D01*
X111618Y175953D01*
X110613Y176957D01*
X110589Y176973D01*
X110570Y176995D01*
X110511Y177023D01*
X110456Y177059D01*
X110427Y177063D01*
X110400Y177075D01*
X110335Y177076D01*
X110270Y177086D01*
X110242Y177078D01*
X110213Y177079D01*
X110177Y177060D01*
X110090Y177035D01*
X110021Y176976D01*
X109986Y176957D01*
X108981Y175953D01*
X105758Y174617D01*
X102268Y174617D01*
X99045Y175953D01*
X96578Y178420D01*
X95242Y181643D01*
X95242Y183388D01*
X95236Y183416D01*
X95238Y183443D01*
X95238Y183444D01*
X95238Y183446D01*
X95216Y183507D01*
X95203Y183571D01*
X95185Y183595D01*
X95175Y183622D01*
X95130Y183669D01*
X95091Y183722D01*
X95066Y183736D01*
X95045Y183757D01*
X95006Y183769D01*
X94927Y183813D01*
X94837Y183820D01*
X94799Y183832D01*
X83255Y183832D01*
X83227Y183826D01*
X83198Y183828D01*
X83136Y183806D01*
X83072Y183792D01*
X83049Y183775D01*
X83021Y183765D01*
X82974Y183719D01*
X82922Y183681D01*
X82908Y183655D01*
X82887Y183635D01*
X82875Y183596D01*
X82831Y183517D01*
X82823Y183427D01*
X82812Y183388D01*
X82812Y181643D01*
X81476Y178420D01*
X79009Y175953D01*
X75786Y174617D01*
X74936Y174617D01*
X74922Y174614D01*
X74907Y174616D01*
X74831Y174594D01*
X74753Y174578D01*
X74742Y174569D01*
X74727Y174565D01*
X74667Y174513D01*
X74603Y174466D01*
X74596Y174453D01*
X74584Y174444D01*
X74550Y174372D01*
X74512Y174302D01*
X74511Y174288D01*
X74504Y174274D01*
X74503Y174195D01*
X74497Y174116D01*
X74502Y174102D01*
X74501Y174087D01*
X74518Y174056D01*
X74560Y173939D01*
X74606Y173892D01*
X74623Y173860D01*
X74892Y173591D01*
X74892Y170658D01*
X72818Y168583D01*
X71927Y168583D01*
X71884Y168574D01*
X71841Y168575D01*
X71809Y168558D01*
X71744Y168544D01*
X71645Y168470D01*
X71613Y168454D01*
X71591Y168431D01*
X71583Y168419D01*
X71571Y168410D01*
X71533Y168341D01*
X71490Y168274D01*
X71487Y168259D01*
X71480Y168246D01*
X71474Y168167D01*
X71462Y168089D01*
X71466Y168075D01*
X71465Y168060D01*
X71492Y167985D01*
X71513Y167909D01*
X71523Y167897D01*
X71528Y167883D01*
X71583Y167826D01*
X71634Y167766D01*
X71648Y167759D01*
X71658Y167749D01*
X71692Y167738D01*
X71804Y167685D01*
X71870Y167684D01*
X71905Y167674D01*
X76891Y167674D01*
X76934Y167683D01*
X76978Y167682D01*
X77010Y167699D01*
X77075Y167713D01*
X77174Y167787D01*
X77205Y167804D01*
X79376Y169974D01*
X79400Y170011D01*
X79431Y170042D01*
X79442Y170076D01*
X79477Y170132D01*
X79496Y170254D01*
X79506Y170288D01*
X79506Y172417D01*
X81580Y174491D01*
X84513Y174491D01*
X86587Y172417D01*
X86587Y169483D01*
X84513Y167409D01*
X82385Y167409D01*
X82342Y167400D01*
X82298Y167401D01*
X82266Y167384D01*
X82202Y167370D01*
X82102Y167296D01*
X82071Y167279D01*
X79277Y164485D01*
X79269Y164473D01*
X79257Y164464D01*
X79219Y164395D01*
X79175Y164328D01*
X79173Y164313D01*
X79166Y164300D01*
X79160Y164221D01*
X79148Y164142D01*
X79152Y164128D01*
X79151Y164114D01*
X79178Y164039D01*
X79199Y163962D01*
X79209Y163951D01*
X79214Y163937D01*
X79269Y163880D01*
X79321Y163819D01*
X79334Y163813D01*
X79344Y163803D01*
X79378Y163792D01*
X79490Y163739D01*
X79556Y163738D01*
X79591Y163728D01*
X81865Y163728D01*
X83939Y161654D01*
X83939Y158720D01*
X81865Y156646D01*
X78932Y156646D01*
X76858Y158720D01*
X76858Y161654D01*
X78309Y163105D01*
X78316Y163116D01*
X78327Y163124D01*
X78328Y163125D01*
X78329Y163126D01*
X78367Y163195D01*
X78411Y163262D01*
X78413Y163277D01*
X78420Y163290D01*
X78426Y163369D01*
X78438Y163448D01*
X78434Y163462D01*
X78435Y163476D01*
X78408Y163551D01*
X78387Y163628D01*
X78377Y163639D01*
X78372Y163653D01*
X78317Y163710D01*
X78265Y163771D01*
X78252Y163777D01*
X78242Y163787D01*
X78208Y163798D01*
X78096Y163851D01*
X78030Y163852D01*
X77995Y163862D01*
X75902Y163862D01*
X75888Y163859D01*
X75873Y163861D01*
X75797Y163839D01*
X75719Y163823D01*
X75707Y163814D01*
X75693Y163810D01*
X75633Y163758D01*
X75569Y163711D01*
X75562Y163698D01*
X75550Y163689D01*
X75516Y163617D01*
X75478Y163547D01*
X75477Y163533D01*
X75470Y163519D01*
X75469Y163440D01*
X75462Y163361D01*
X75467Y163347D01*
X75467Y163332D01*
X75484Y163301D01*
X75525Y163184D01*
X75572Y163137D01*
X75589Y163105D01*
X75634Y163060D01*
X75634Y160126D01*
X73560Y158052D01*
X70626Y158052D01*
X70581Y158097D01*
X70569Y158105D01*
X70560Y158117D01*
X70491Y158156D01*
X70424Y158199D01*
X70409Y158201D01*
X70396Y158208D01*
X70317Y158215D01*
X70239Y158226D01*
X70224Y158222D01*
X70210Y158224D01*
X70135Y158197D01*
X70058Y158175D01*
X70047Y158165D01*
X70033Y158161D01*
X69976Y158105D01*
X69915Y158054D01*
X69909Y158041D01*
X69899Y158030D01*
X69888Y157996D01*
X69835Y157885D01*
X69834Y157818D01*
X69824Y157784D01*
X69824Y150958D01*
X68577Y149711D01*
X60468Y141602D01*
X60460Y141589D01*
X60448Y141581D01*
X60409Y141511D01*
X60366Y141444D01*
X60364Y141430D01*
X60357Y141417D01*
X60351Y141338D01*
X60339Y141259D01*
X60343Y141245D01*
X60342Y141230D01*
X60368Y141155D01*
X60390Y141079D01*
X60400Y141068D01*
X60405Y141054D01*
X60460Y140997D01*
X60511Y140936D01*
X60525Y140930D01*
X60535Y140919D01*
X60569Y140909D01*
X60681Y140856D01*
X60747Y140855D01*
X60782Y140844D01*
X74533Y140844D01*
X75444Y139933D01*
X82957Y132420D01*
X82969Y132412D01*
X82978Y132400D01*
X83047Y132362D01*
X83114Y132319D01*
X83129Y132316D01*
X83142Y132309D01*
X83221Y132303D01*
X83300Y132291D01*
X83314Y132295D01*
X83328Y132294D01*
X83403Y132321D01*
X83480Y132343D01*
X83491Y132352D01*
X83505Y132357D01*
X83562Y132412D01*
X83623Y132464D01*
X83629Y132477D01*
X83639Y132487D01*
X83650Y132521D01*
X83703Y132633D01*
X83704Y132699D01*
X83714Y132734D01*
X83705Y132777D01*
X83706Y132820D01*
X83689Y132852D01*
X83675Y132917D01*
X83601Y133016D01*
X83584Y133048D01*
X81720Y134913D01*
X81720Y137846D01*
X83794Y139920D01*
X86727Y139920D01*
X87484Y139163D01*
X87521Y139139D01*
X87551Y139108D01*
X87586Y139097D01*
X87641Y139061D01*
X87764Y139043D01*
X87798Y139033D01*
X88232Y139033D01*
X88275Y139042D01*
X88319Y139041D01*
X88351Y139059D01*
X88415Y139072D01*
X88515Y139146D01*
X88546Y139163D01*
X108696Y159313D01*
X108720Y159350D01*
X108751Y159380D01*
X108762Y159415D01*
X108798Y159471D01*
X108816Y159593D01*
X108826Y159627D01*
X108826Y165748D01*
X113882Y170804D01*
X147009Y170804D01*
X147052Y170813D01*
X147095Y170812D01*
X147127Y170829D01*
X147192Y170843D01*
X147291Y170917D01*
X147323Y170934D01*
X149847Y173458D01*
X153937Y173458D01*
X160098Y167297D01*
X160098Y147512D01*
X160107Y147469D01*
X160107Y147425D01*
X160124Y147393D01*
X160138Y147329D01*
X160211Y147229D01*
X160228Y147198D01*
X162305Y145122D01*
X162305Y142188D01*
X160231Y140114D01*
X157297Y140114D01*
X155223Y142188D01*
X155223Y145122D01*
X157300Y147198D01*
X157323Y147235D01*
X157355Y147265D01*
X157365Y147300D01*
X157401Y147356D01*
X157420Y147478D01*
X157430Y147512D01*
X157430Y166008D01*
X157421Y166050D01*
X157421Y166094D01*
X157404Y166126D01*
X157390Y166191D01*
X157317Y166290D01*
X157300Y166321D01*
X156190Y167431D01*
X156178Y167439D01*
X156169Y167451D01*
X156100Y167489D01*
X156033Y167533D01*
X156018Y167535D01*
X156005Y167542D01*
X155926Y167548D01*
X155847Y167560D01*
X155833Y167556D01*
X155819Y167557D01*
X155744Y167530D01*
X155667Y167509D01*
X155656Y167499D01*
X155642Y167494D01*
X155585Y167439D01*
X155524Y167387D01*
X155518Y167374D01*
X155508Y167364D01*
X155497Y167330D01*
X155444Y167218D01*
X155443Y167152D01*
X155433Y167117D01*
X155433Y167053D01*
X153359Y164979D01*
X153170Y164979D01*
X153127Y164970D01*
X153083Y164971D01*
X153051Y164954D01*
X152987Y164940D01*
X152887Y164866D01*
X152856Y164849D01*
X142517Y154510D01*
X142509Y154498D01*
X142497Y154489D01*
X142459Y154420D01*
X142415Y154353D01*
X142413Y154338D01*
X142406Y154325D01*
X142400Y154246D01*
X142388Y154167D01*
X142392Y154153D01*
X142391Y154139D01*
X142418Y154064D01*
X142439Y153987D01*
X142449Y153976D01*
X142454Y153962D01*
X142509Y153905D01*
X142561Y153844D01*
X142574Y153838D01*
X142584Y153828D01*
X142618Y153817D01*
X142730Y153764D01*
X142796Y153763D01*
X142831Y153753D01*
X142895Y153753D01*
X144969Y151679D01*
X144969Y148745D01*
X142895Y146671D01*
X139961Y146671D01*
X139218Y147415D01*
X139193Y147431D01*
X139174Y147453D01*
X139115Y147481D01*
X139060Y147516D01*
X139031Y147521D01*
X139005Y147533D01*
X138940Y147534D01*
X138875Y147544D01*
X138847Y147536D01*
X138818Y147536D01*
X138782Y147517D01*
X138695Y147492D01*
X138626Y147434D01*
X138590Y147415D01*
X138416Y147240D01*
X138392Y147204D01*
X138361Y147173D01*
X138350Y147139D01*
X138314Y147083D01*
X138296Y146960D01*
X138286Y146927D01*
X138286Y95395D01*
X138295Y95353D01*
X138294Y95309D01*
X138311Y95277D01*
X138325Y95212D01*
X138399Y95113D01*
X138416Y95082D01*
X139873Y93625D01*
X139873Y90691D01*
X137799Y88617D01*
X134865Y88617D01*
X132791Y90691D01*
X132791Y93625D01*
X134344Y95178D01*
X134368Y95214D01*
X134399Y95245D01*
X134410Y95279D01*
X134446Y95335D01*
X134454Y95393D01*
X134455Y95394D01*
X134456Y95402D01*
X134464Y95458D01*
X134474Y95491D01*
X134474Y146927D01*
X134465Y146969D01*
X134466Y147013D01*
X134449Y147045D01*
X134435Y147110D01*
X134361Y147209D01*
X134344Y147240D01*
X132839Y148745D01*
X132839Y151679D01*
X134913Y153753D01*
X136185Y153753D01*
X136228Y153762D01*
X136272Y153761D01*
X136304Y153778D01*
X136369Y153792D01*
X136468Y153866D01*
X136499Y153883D01*
X148697Y166080D01*
X148713Y166105D01*
X148735Y166124D01*
X148763Y166183D01*
X148798Y166238D01*
X148803Y166267D01*
X148815Y166293D01*
X148816Y166359D01*
X148826Y166423D01*
X148818Y166451D01*
X148818Y166481D01*
X148799Y166516D01*
X148774Y166603D01*
X148716Y166672D01*
X148697Y166708D01*
X148351Y167053D01*
X148351Y167692D01*
X148345Y167720D01*
X148347Y167749D01*
X148325Y167811D01*
X148312Y167875D01*
X148294Y167898D01*
X148284Y167926D01*
X148239Y167973D01*
X148200Y168025D01*
X148175Y168039D01*
X148154Y168060D01*
X148115Y168072D01*
X148036Y168116D01*
X147946Y168124D01*
X147908Y168135D01*
X137597Y168135D01*
X137582Y168132D01*
X137567Y168134D01*
X137491Y168112D01*
X137414Y168096D01*
X137402Y168086D01*
X137387Y168082D01*
X137327Y168031D01*
X137264Y167984D01*
X137256Y167970D01*
X137244Y167960D01*
X137211Y167889D01*
X137173Y167820D01*
X137171Y167805D01*
X137165Y167791D01*
X137164Y167712D01*
X137157Y167634D01*
X137163Y167619D01*
X137162Y167603D01*
X137180Y167572D01*
X137220Y167457D01*
X137267Y167409D01*
X137285Y167377D01*
X137289Y167372D01*
X137325Y167350D01*
X137351Y167323D01*
X137355Y167319D01*
X137390Y167308D01*
X137447Y167272D01*
X137567Y167254D01*
X137601Y167244D01*
X140231Y167244D01*
X142305Y165170D01*
X142305Y162236D01*
X140231Y160162D01*
X137297Y160162D01*
X135264Y162195D01*
X135228Y162219D01*
X135197Y162250D01*
X135163Y162261D01*
X135107Y162297D01*
X134984Y162315D01*
X134951Y162325D01*
X134193Y162325D01*
X134165Y162319D01*
X134136Y162321D01*
X134074Y162299D01*
X134010Y162286D01*
X133987Y162268D01*
X133959Y162258D01*
X133912Y162213D01*
X133860Y162174D01*
X133846Y162149D01*
X133825Y162128D01*
X133813Y162089D01*
X133769Y162010D01*
X133761Y161920D01*
X133750Y161882D01*
X133750Y155785D01*
X129193Y151228D01*
X129169Y151191D01*
X129138Y151161D01*
X129127Y151126D01*
X129091Y151070D01*
X129073Y150948D01*
X129063Y150914D01*
X129063Y149402D01*
X129072Y149359D01*
X129071Y149315D01*
X129088Y149283D01*
X129102Y149219D01*
X129176Y149119D01*
X129193Y149088D01*
X132144Y146137D01*
X132144Y126112D01*
X100003Y93970D01*
X99979Y93934D01*
X99948Y93903D01*
X99937Y93868D01*
X99901Y93813D01*
X99883Y93690D01*
X99873Y93657D01*
X99873Y91140D01*
X99879Y91111D01*
X99877Y91082D01*
X99899Y91021D01*
X99912Y90957D01*
X99930Y90933D01*
X99940Y90906D01*
X99985Y90859D01*
X100024Y90806D01*
X100049Y90792D01*
X100070Y90771D01*
X100109Y90759D01*
X100188Y90715D01*
X100278Y90708D01*
X100316Y90696D01*
X102151Y90696D01*
X102193Y90705D01*
X102237Y90705D01*
X102269Y90722D01*
X102334Y90736D01*
X102433Y90809D01*
X102464Y90826D01*
X104541Y92903D01*
X107474Y92903D01*
X109548Y90829D01*
X109548Y87895D01*
X107953Y86301D01*
X107945Y86288D01*
X107933Y86279D01*
X107895Y86210D01*
X107852Y86143D01*
X107850Y86128D01*
X107842Y86116D01*
X107836Y86037D01*
X107824Y85958D01*
X107828Y85944D01*
X107827Y85929D01*
X107854Y85854D01*
X107876Y85778D01*
X107885Y85766D01*
X107890Y85752D01*
X107945Y85695D01*
X107997Y85635D01*
X108010Y85628D01*
X108021Y85618D01*
X108054Y85608D01*
X108166Y85555D01*
X108232Y85553D01*
X108267Y85543D01*
X110231Y85543D01*
X112305Y83469D01*
X112305Y81030D01*
X112311Y81002D01*
X112309Y80973D01*
X112331Y80911D01*
X112344Y80847D01*
X112362Y80824D01*
X112372Y80796D01*
X112417Y80749D01*
X112456Y80697D01*
X112481Y80683D01*
X112502Y80662D01*
X112541Y80650D01*
X112620Y80606D01*
X112710Y80598D01*
X112748Y80587D01*
X137081Y80587D01*
X141685Y75983D01*
X141685Y69473D01*
X138178Y65966D01*
X138155Y65929D01*
X138123Y65899D01*
X138113Y65864D01*
X138077Y65809D01*
X138058Y65686D01*
X138048Y65652D01*
X138048Y61284D01*
X138057Y61242D01*
X138057Y61198D01*
X138074Y61166D01*
X138088Y61101D01*
X138161Y61002D01*
X138178Y60971D01*
X140255Y58894D01*
X140255Y55961D01*
X138181Y53887D01*
X135247Y53887D01*
X133173Y55961D01*
X133173Y58026D01*
X133170Y58040D01*
X133172Y58055D01*
X133150Y58131D01*
X133134Y58209D01*
X133125Y58221D01*
X133121Y58235D01*
X133069Y58295D01*
X133022Y58359D01*
X133009Y58366D01*
X133000Y58378D01*
X132928Y58412D01*
X132858Y58450D01*
X132844Y58451D01*
X132830Y58458D01*
X132751Y58459D01*
X132672Y58466D01*
X132658Y58461D01*
X132643Y58461D01*
X132612Y58444D01*
X132495Y58403D01*
X132448Y58356D01*
X132416Y58339D01*
X132406Y58329D01*
X129472Y58329D01*
X129427Y58374D01*
X129415Y58382D01*
X129406Y58394D01*
X129337Y58433D01*
X129270Y58476D01*
X129255Y58478D01*
X129242Y58485D01*
X129163Y58492D01*
X129085Y58503D01*
X129070Y58499D01*
X129056Y58501D01*
X128981Y58474D01*
X128904Y58452D01*
X128893Y58442D01*
X128879Y58438D01*
X128822Y58382D01*
X128761Y58331D01*
X128755Y58318D01*
X128745Y58307D01*
X128734Y58273D01*
X128681Y58162D01*
X128680Y58095D01*
X128670Y58061D01*
X128670Y44518D01*
X128679Y44476D01*
X128678Y44432D01*
X128695Y44400D01*
X128709Y44335D01*
X128760Y44267D01*
X128763Y44257D01*
X128779Y44241D01*
X128783Y44236D01*
X128800Y44204D01*
X129963Y43041D01*
X130000Y43017D01*
X130031Y42986D01*
X130065Y42975D01*
X130121Y42939D01*
X130243Y42921D01*
X130277Y42911D01*
X132406Y42911D01*
X134480Y40837D01*
X134480Y37903D01*
X132406Y35829D01*
X129472Y35829D01*
X127398Y37903D01*
X127398Y40032D01*
X127389Y40074D01*
X127390Y40118D01*
X127373Y40150D01*
X127359Y40215D01*
X127313Y40276D01*
X127309Y40289D01*
X127288Y40310D01*
X127285Y40314D01*
X127268Y40346D01*
X124858Y42756D01*
X124858Y64405D01*
X124852Y64433D01*
X124854Y64462D01*
X124832Y64524D01*
X124819Y64588D01*
X124801Y64611D01*
X124791Y64639D01*
X124746Y64686D01*
X124707Y64738D01*
X124682Y64752D01*
X124661Y64773D01*
X124622Y64785D01*
X124543Y64829D01*
X124453Y64837D01*
X124415Y64848D01*
X114649Y64848D01*
X114607Y64839D01*
X114563Y64840D01*
X114531Y64823D01*
X114466Y64809D01*
X114367Y64735D01*
X114336Y64718D01*
X103939Y54321D01*
X103915Y54285D01*
X103884Y54254D01*
X103873Y54219D01*
X103866Y54208D01*
X99172Y49514D01*
X99144Y49508D01*
X99044Y49435D01*
X99013Y49418D01*
X95171Y45575D01*
X95147Y45539D01*
X95116Y45508D01*
X95105Y45473D01*
X95069Y45418D01*
X95051Y45295D01*
X95041Y45262D01*
X95041Y42325D01*
X92967Y40251D01*
X90033Y40251D01*
X90023Y40261D01*
X90011Y40269D01*
X90002Y40281D01*
X89933Y40319D01*
X89866Y40362D01*
X89851Y40365D01*
X89838Y40372D01*
X89759Y40378D01*
X89681Y40390D01*
X89666Y40386D01*
X89652Y40387D01*
X89577Y40360D01*
X89500Y40339D01*
X89489Y40329D01*
X89475Y40324D01*
X89418Y40269D01*
X89357Y40217D01*
X89351Y40204D01*
X89341Y40194D01*
X89330Y40160D01*
X89277Y40048D01*
X89276Y39982D01*
X89266Y39947D01*
X89266Y37882D01*
X87192Y35808D01*
X84258Y35808D01*
X82184Y37882D01*
X82184Y40816D01*
X84258Y42890D01*
X84976Y42890D01*
X85004Y42896D01*
X85033Y42894D01*
X85095Y42916D01*
X85159Y42929D01*
X85182Y42947D01*
X85210Y42957D01*
X85257Y43002D01*
X85309Y43041D01*
X85323Y43066D01*
X85344Y43087D01*
X85356Y43126D01*
X85400Y43205D01*
X85408Y43295D01*
X85419Y43333D01*
X85419Y46310D01*
X91143Y52034D01*
X91151Y52047D01*
X91163Y52055D01*
X91202Y52125D01*
X91245Y52192D01*
X91247Y52206D01*
X91254Y52219D01*
X91261Y52298D01*
X91272Y52377D01*
X91268Y52391D01*
X91269Y52406D01*
X91243Y52481D01*
X91221Y52557D01*
X91211Y52568D01*
X91206Y52582D01*
X91151Y52639D01*
X91100Y52700D01*
X91086Y52706D01*
X91076Y52717D01*
X91042Y52727D01*
X90930Y52780D01*
X90864Y52781D01*
X90829Y52792D01*
X89435Y52792D01*
X87359Y54868D01*
X87322Y54892D01*
X87292Y54923D01*
X87257Y54934D01*
X87201Y54970D01*
X87079Y54988D01*
X87045Y54998D01*
X69201Y54998D01*
X68792Y55407D01*
X68756Y55430D01*
X68725Y55462D01*
X68690Y55472D01*
X68635Y55508D01*
X68512Y55526D01*
X68479Y55537D01*
X65542Y55537D01*
X63468Y57611D01*
X63468Y60544D01*
X65542Y62618D01*
X68475Y62618D01*
X70549Y60544D01*
X70549Y58110D01*
X70555Y58082D01*
X70553Y58053D01*
X70575Y57991D01*
X70589Y57927D01*
X70606Y57904D01*
X70616Y57876D01*
X70662Y57829D01*
X70700Y57777D01*
X70726Y57763D01*
X70746Y57742D01*
X70785Y57730D01*
X70864Y57686D01*
X70954Y57678D01*
X70993Y57667D01*
X83829Y57667D01*
X83843Y57670D01*
X83858Y57668D01*
X83934Y57690D01*
X84012Y57706D01*
X84024Y57715D01*
X84038Y57719D01*
X84099Y57771D01*
X84162Y57818D01*
X84169Y57831D01*
X84181Y57840D01*
X84215Y57912D01*
X84253Y57982D01*
X84254Y57996D01*
X84261Y58010D01*
X84262Y58089D01*
X84269Y58168D01*
X84264Y58182D01*
X84264Y58197D01*
X84247Y58228D01*
X84206Y58345D01*
X84159Y58392D01*
X84142Y58424D01*
X82184Y60382D01*
X82184Y63316D01*
X84258Y65390D01*
X87192Y65390D01*
X89266Y63316D01*
X89266Y60317D01*
X89272Y60288D01*
X89270Y60259D01*
X89292Y60198D01*
X89305Y60134D01*
X89323Y60110D01*
X89333Y60083D01*
X89378Y60036D01*
X89417Y59983D01*
X89442Y59969D01*
X89463Y59948D01*
X89502Y59936D01*
X89581Y59892D01*
X89671Y59885D01*
X89709Y59873D01*
X92369Y59873D01*
X92575Y59667D01*
X92600Y59651D01*
X92619Y59628D01*
X92678Y59600D01*
X92733Y59565D01*
X92762Y59561D01*
X92788Y59548D01*
X92853Y59547D01*
X92918Y59538D01*
X92946Y59546D01*
X92976Y59545D01*
X93011Y59564D01*
X93098Y59589D01*
X93167Y59648D01*
X93203Y59667D01*
X94483Y60947D01*
X97417Y60947D01*
X98467Y59897D01*
X98492Y59881D01*
X98511Y59858D01*
X98570Y59830D01*
X98625Y59795D01*
X98654Y59791D01*
X98680Y59778D01*
X98745Y59777D01*
X98810Y59768D01*
X98838Y59776D01*
X98867Y59775D01*
X98903Y59794D01*
X98990Y59819D01*
X99059Y59878D01*
X99095Y59897D01*
X110121Y70923D01*
X110145Y70960D01*
X110176Y70990D01*
X110187Y71025D01*
X110223Y71081D01*
X110241Y71203D01*
X110251Y71237D01*
X110251Y74174D01*
X112325Y76248D01*
X115259Y76248D01*
X117333Y74174D01*
X117333Y71240D01*
X117288Y71195D01*
X117280Y71183D01*
X117268Y71174D01*
X117229Y71105D01*
X117186Y71038D01*
X117184Y71023D01*
X117177Y71010D01*
X117170Y70931D01*
X117159Y70853D01*
X117163Y70838D01*
X117161Y70824D01*
X117188Y70749D01*
X117210Y70672D01*
X117220Y70661D01*
X117224Y70647D01*
X117280Y70590D01*
X117331Y70529D01*
X117344Y70523D01*
X117355Y70513D01*
X117389Y70502D01*
X117500Y70449D01*
X117567Y70448D01*
X117601Y70438D01*
X120329Y70438D01*
X120343Y70441D01*
X120358Y70439D01*
X120435Y70461D01*
X120512Y70477D01*
X120524Y70486D01*
X120538Y70490D01*
X120599Y70542D01*
X120663Y70589D01*
X120670Y70602D01*
X120681Y70611D01*
X120715Y70683D01*
X120754Y70753D01*
X120755Y70767D01*
X120761Y70781D01*
X120762Y70860D01*
X120769Y70939D01*
X120764Y70953D01*
X120764Y70968D01*
X120747Y70999D01*
X120706Y71116D01*
X120660Y71163D01*
X120643Y71195D01*
X120189Y71649D01*
X120189Y74582D01*
X122263Y76656D01*
X123923Y76656D01*
X123965Y76665D01*
X124009Y76664D01*
X124041Y76682D01*
X124106Y76696D01*
X124205Y76769D01*
X124236Y76786D01*
X124611Y77161D01*
X124619Y77173D01*
X124631Y77182D01*
X124670Y77251D01*
X124713Y77318D01*
X124715Y77333D01*
X124722Y77346D01*
X124729Y77425D01*
X124740Y77503D01*
X124736Y77518D01*
X124737Y77532D01*
X124711Y77607D01*
X124689Y77684D01*
X124679Y77695D01*
X124674Y77709D01*
X124619Y77766D01*
X124568Y77827D01*
X124554Y77833D01*
X124544Y77843D01*
X124510Y77854D01*
X124398Y77907D01*
X124332Y77908D01*
X124297Y77918D01*
X111847Y77918D01*
X111804Y77909D01*
X111760Y77910D01*
X111728Y77893D01*
X111664Y77879D01*
X111564Y77805D01*
X111533Y77788D01*
X110809Y77065D01*
X105480Y77065D01*
X105466Y77061D01*
X105451Y77064D01*
X105374Y77042D01*
X105297Y77025D01*
X105285Y77016D01*
X105271Y77012D01*
X105210Y76961D01*
X105146Y76913D01*
X105139Y76901D01*
X105128Y76891D01*
X105094Y76819D01*
X105055Y76750D01*
X105054Y76735D01*
X105048Y76722D01*
X105047Y76642D01*
X105040Y76563D01*
X105045Y76549D01*
X105045Y76534D01*
X105062Y76503D01*
X105103Y76386D01*
X105149Y76339D01*
X105166Y76307D01*
X107300Y74174D01*
X107300Y71240D01*
X105226Y69166D01*
X102292Y69166D01*
X100218Y71240D01*
X100218Y74174D01*
X102292Y76248D01*
X103667Y76248D01*
X103681Y76251D01*
X103696Y76249D01*
X103772Y76271D01*
X103850Y76287D01*
X103862Y76296D01*
X103876Y76300D01*
X103936Y76352D01*
X104000Y76399D01*
X104007Y76412D01*
X104019Y76421D01*
X104053Y76493D01*
X104091Y76563D01*
X104092Y76577D01*
X104099Y76591D01*
X104100Y76670D01*
X104107Y76749D01*
X104102Y76763D01*
X104102Y76778D01*
X104085Y76809D01*
X104043Y76926D01*
X103997Y76973D01*
X103980Y77005D01*
X103010Y77976D01*
X100616Y80370D01*
X100579Y80393D01*
X100549Y80425D01*
X100514Y80435D01*
X100458Y80471D01*
X100336Y80490D01*
X100302Y80500D01*
X97365Y80500D01*
X95291Y82574D01*
X95291Y85507D01*
X96275Y86491D01*
X96283Y86504D01*
X96295Y86512D01*
X96334Y86582D01*
X96377Y86649D01*
X96379Y86663D01*
X96386Y86676D01*
X96393Y86755D01*
X96404Y86834D01*
X96400Y86848D01*
X96402Y86863D01*
X96375Y86938D01*
X96353Y87014D01*
X96343Y87025D01*
X96339Y87039D01*
X96283Y87096D01*
X96232Y87157D01*
X96218Y87163D01*
X96208Y87174D01*
X96174Y87184D01*
X96062Y87237D01*
X95996Y87238D01*
X95962Y87249D01*
X73235Y87249D01*
X72324Y88160D01*
X69628Y90856D01*
X69591Y90879D01*
X69561Y90911D01*
X69526Y90921D01*
X69471Y90957D01*
X69348Y90976D01*
X69314Y90986D01*
X58554Y90986D01*
X58511Y90977D01*
X58467Y90977D01*
X58435Y90960D01*
X58371Y90946D01*
X58271Y90873D01*
X58240Y90856D01*
X56164Y88779D01*
X53230Y88779D01*
X51156Y90853D01*
X51156Y93787D01*
X53230Y95861D01*
X56164Y95861D01*
X58240Y93784D01*
X58277Y93761D01*
X58307Y93729D01*
X58342Y93719D01*
X58398Y93683D01*
X58520Y93664D01*
X58554Y93654D01*
X69780Y93654D01*
X69808Y93660D01*
X69837Y93658D01*
X69899Y93680D01*
X69963Y93694D01*
X69986Y93711D01*
X70014Y93721D01*
X70061Y93767D01*
X70113Y93805D01*
X70127Y93831D01*
X70148Y93851D01*
X70160Y93890D01*
X70204Y93969D01*
X70212Y94059D01*
X70223Y94098D01*
X70223Y95170D01*
X72297Y97244D01*
X75231Y97244D01*
X77305Y95170D01*
X77305Y92236D01*
X75743Y90675D01*
X75735Y90662D01*
X75723Y90654D01*
X75685Y90584D01*
X75642Y90517D01*
X75639Y90503D01*
X75632Y90490D01*
X75626Y90411D01*
X75614Y90332D01*
X75618Y90318D01*
X75617Y90303D01*
X75644Y90228D01*
X75665Y90152D01*
X75675Y90141D01*
X75680Y90127D01*
X75735Y90070D01*
X75787Y90009D01*
X75800Y90003D01*
X75810Y89992D01*
X75844Y89982D01*
X75956Y89929D01*
X76022Y89928D01*
X76057Y89917D01*
X85304Y89917D01*
X85318Y89920D01*
X85333Y89918D01*
X85409Y89940D01*
X85487Y89957D01*
X85499Y89966D01*
X85513Y89970D01*
X85573Y90021D01*
X85637Y90068D01*
X85644Y90081D01*
X85656Y90091D01*
X85690Y90163D01*
X85728Y90232D01*
X85729Y90247D01*
X85736Y90260D01*
X85737Y90340D01*
X85744Y90419D01*
X85739Y90433D01*
X85739Y90447D01*
X85722Y90479D01*
X85681Y90595D01*
X85634Y90643D01*
X85617Y90675D01*
X84297Y91995D01*
X84297Y92865D01*
X84291Y92892D01*
X84293Y92918D01*
X84293Y92919D01*
X84293Y92922D01*
X84271Y92984D01*
X84257Y93048D01*
X84240Y93071D01*
X84230Y93099D01*
X84184Y93146D01*
X84146Y93198D01*
X84120Y93212D01*
X84100Y93233D01*
X84061Y93245D01*
X83982Y93289D01*
X83892Y93297D01*
X83853Y93308D01*
X82619Y93308D01*
X80545Y95382D01*
X80545Y98316D01*
X80590Y98361D01*
X80598Y98373D01*
X80610Y98382D01*
X80648Y98451D01*
X80691Y98518D01*
X80694Y98533D01*
X80701Y98546D01*
X80707Y98625D01*
X80719Y98703D01*
X80715Y98718D01*
X80716Y98732D01*
X80689Y98807D01*
X80668Y98884D01*
X80658Y98895D01*
X80653Y98909D01*
X80598Y98966D01*
X80546Y99027D01*
X80533Y99033D01*
X80523Y99043D01*
X80489Y99054D01*
X80377Y99107D01*
X80311Y99108D01*
X80276Y99118D01*
X79845Y99118D01*
X78748Y100216D01*
X69660Y109303D01*
X69624Y109327D01*
X69593Y109358D01*
X69558Y109369D01*
X69503Y109405D01*
X69380Y109423D01*
X69347Y109433D01*
X63723Y109433D01*
X63681Y109424D01*
X63637Y109425D01*
X63605Y109408D01*
X63540Y109394D01*
X63441Y109320D01*
X63410Y109303D01*
X61651Y107544D01*
X58717Y107544D01*
X56643Y109618D01*
X56643Y112552D01*
X58717Y114626D01*
X61651Y114626D01*
X63410Y112867D01*
X63446Y112843D01*
X63477Y112812D01*
X63511Y112801D01*
X63567Y112765D01*
X63690Y112747D01*
X63723Y112737D01*
X69676Y112737D01*
X69704Y112743D01*
X69733Y112741D01*
X69795Y112763D01*
X69859Y112776D01*
X69882Y112794D01*
X69910Y112804D01*
X69957Y112849D01*
X70009Y112888D01*
X70023Y112913D01*
X70044Y112934D01*
X70056Y112973D01*
X70100Y113052D01*
X70108Y113142D01*
X70119Y113180D01*
X70119Y115170D01*
X70915Y115965D01*
X70931Y115990D01*
X70953Y116009D01*
X70981Y116068D01*
X71016Y116123D01*
X71021Y116152D01*
X71033Y116178D01*
X71034Y116243D01*
X71044Y116308D01*
X71036Y116336D01*
X71036Y116366D01*
X71017Y116401D01*
X70992Y116488D01*
X70934Y116557D01*
X70915Y116593D01*
X70223Y117284D01*
X70223Y120218D01*
X72297Y122292D01*
X75231Y122292D01*
X77305Y120218D01*
X77305Y117284D01*
X76509Y116489D01*
X76493Y116464D01*
X76471Y116445D01*
X76443Y116386D01*
X76408Y116331D01*
X76403Y116302D01*
X76391Y116276D01*
X76390Y116211D01*
X76380Y116146D01*
X76388Y116118D01*
X76388Y116089D01*
X76407Y116053D01*
X76432Y115966D01*
X76490Y115897D01*
X76509Y115861D01*
X77201Y115170D01*
X77201Y112236D01*
X75127Y110162D01*
X74544Y110162D01*
X74530Y110159D01*
X74515Y110161D01*
X74439Y110139D01*
X74361Y110123D01*
X74349Y110114D01*
X74335Y110110D01*
X74274Y110058D01*
X74211Y110011D01*
X74204Y109998D01*
X74192Y109989D01*
X74158Y109917D01*
X74120Y109847D01*
X74119Y109833D01*
X74112Y109819D01*
X74111Y109740D01*
X74104Y109661D01*
X74109Y109647D01*
X74109Y109632D01*
X74126Y109601D01*
X74168Y109484D01*
X74214Y109437D01*
X74231Y109405D01*
X81084Y102552D01*
X81120Y102528D01*
X81151Y102497D01*
X81186Y102486D01*
X81241Y102450D01*
X81364Y102432D01*
X81397Y102422D01*
X84769Y102422D01*
X84783Y102425D01*
X84798Y102423D01*
X84874Y102445D01*
X84952Y102461D01*
X84964Y102470D01*
X84978Y102474D01*
X85038Y102526D01*
X85102Y102573D01*
X85109Y102586D01*
X85121Y102595D01*
X85155Y102667D01*
X85193Y102737D01*
X85194Y102751D01*
X85201Y102765D01*
X85202Y102844D01*
X85209Y102923D01*
X85204Y102937D01*
X85204Y102952D01*
X85187Y102983D01*
X85146Y103100D01*
X85099Y103147D01*
X85082Y103179D01*
X83714Y104547D01*
X83714Y107481D01*
X84458Y108224D01*
X84474Y108249D01*
X84496Y108268D01*
X84524Y108327D01*
X84559Y108382D01*
X84564Y108411D01*
X84576Y108437D01*
X84577Y108502D01*
X84587Y108567D01*
X84579Y108595D01*
X84579Y108625D01*
X84560Y108660D01*
X84535Y108747D01*
X84477Y108816D01*
X84458Y108852D01*
X83714Y109595D01*
X83714Y112529D01*
X84458Y113272D01*
X84474Y113297D01*
X84496Y113316D01*
X84524Y113375D01*
X84559Y113430D01*
X84564Y113459D01*
X84576Y113485D01*
X84577Y113550D01*
X84587Y113615D01*
X84579Y113643D01*
X84579Y113673D01*
X84560Y113708D01*
X84535Y113795D01*
X84477Y113864D01*
X84458Y113900D01*
X83714Y114643D01*
X83714Y117577D01*
X84458Y118320D01*
X84474Y118345D01*
X84496Y118364D01*
X84524Y118423D01*
X84559Y118478D01*
X84564Y118507D01*
X84576Y118533D01*
X84577Y118598D01*
X84587Y118663D01*
X84579Y118691D01*
X84579Y118720D01*
X84560Y118756D01*
X84535Y118843D01*
X84477Y118912D01*
X84458Y118948D01*
X83714Y119691D01*
X83714Y122625D01*
X84472Y123383D01*
X84488Y123407D01*
X84511Y123426D01*
X84539Y123485D01*
X84574Y123540D01*
X84578Y123569D01*
X84591Y123596D01*
X84592Y123661D01*
X84601Y123726D01*
X84593Y123754D01*
X84594Y123783D01*
X84575Y123819D01*
X84550Y123906D01*
X84491Y123975D01*
X84472Y124010D01*
X83705Y124778D01*
X83705Y127715D01*
X83695Y127757D01*
X83696Y127801D01*
X83679Y127833D01*
X83665Y127898D01*
X83591Y127997D01*
X83575Y128028D01*
X73557Y138046D01*
X73521Y138069D01*
X73490Y138101D01*
X73455Y138111D01*
X73400Y138147D01*
X73277Y138166D01*
X73244Y138176D01*
X61514Y138176D01*
X61471Y138167D01*
X61427Y138167D01*
X61395Y138150D01*
X61330Y138136D01*
X61231Y138063D01*
X61200Y138046D01*
X49035Y125881D01*
X44945Y125881D01*
X42052Y128774D01*
X42052Y139658D01*
X43674Y141280D01*
X43682Y141292D01*
X43694Y141301D01*
X43733Y141371D01*
X43776Y141437D01*
X43778Y141452D01*
X43785Y141465D01*
X43792Y141544D01*
X43804Y141623D01*
X43799Y141637D01*
X43801Y141652D01*
X43774Y141726D01*
X43752Y141803D01*
X43743Y141814D01*
X43738Y141828D01*
X43682Y141885D01*
X43631Y141946D01*
X43618Y141952D01*
X43607Y141963D01*
X43573Y141973D01*
X43462Y142026D01*
X43395Y142027D01*
X43361Y142038D01*
X40710Y142038D01*
X40682Y142031D01*
X40653Y142034D01*
X40591Y142012D01*
X40527Y141998D01*
X40504Y141981D01*
X40476Y141971D01*
X40429Y141925D01*
X40377Y141886D01*
X40363Y141861D01*
X40342Y141840D01*
X40330Y141802D01*
X40286Y141723D01*
X40278Y141632D01*
X40267Y141594D01*
X40267Y139606D01*
X38931Y136383D01*
X37927Y135378D01*
X37911Y135354D01*
X37889Y135335D01*
X37861Y135276D01*
X37825Y135221D01*
X37821Y135192D01*
X37809Y135165D01*
X37808Y135100D01*
X37798Y135036D01*
X37806Y135007D01*
X37805Y134978D01*
X37824Y134942D01*
X37849Y134855D01*
X37908Y134786D01*
X37927Y134751D01*
X38931Y133746D01*
X40267Y130523D01*
X40267Y127033D01*
X38931Y123810D01*
X37927Y122805D01*
X37911Y122781D01*
X37889Y122762D01*
X37861Y122703D01*
X37825Y122648D01*
X37821Y122619D01*
X37809Y122592D01*
X37808Y122527D01*
X37798Y122463D01*
X37806Y122434D01*
X37805Y122405D01*
X37824Y122369D01*
X37849Y122282D01*
X37908Y122213D01*
X37927Y122178D01*
X38931Y121173D01*
X40267Y117950D01*
X40267Y114460D01*
X38931Y111237D01*
X36464Y108770D01*
X33241Y107434D01*
X31496Y107434D01*
X31467Y107428D01*
X31438Y107430D01*
X31377Y107408D01*
X31313Y107395D01*
X31289Y107377D01*
X31262Y107367D01*
X31215Y107322D01*
X31162Y107283D01*
X31148Y107258D01*
X31127Y107237D01*
X31115Y107198D01*
X31071Y107119D01*
X31064Y107029D01*
X31052Y106991D01*
X31052Y31623D01*
X31058Y31594D01*
X31056Y31565D01*
X31078Y31504D01*
X31092Y31440D01*
X31109Y31416D01*
X31119Y31389D01*
X31165Y31342D01*
X31203Y31289D01*
X31229Y31275D01*
X31249Y31254D01*
X31288Y31242D01*
X31367Y31198D01*
X31457Y31191D01*
X31496Y31179D01*
X201676Y31179D01*
X201705Y31185D01*
G37*
G36*
X44174Y267656D02*
X44174Y267656D01*
X44188Y267654D01*
X44265Y267676D01*
X44342Y267693D01*
X44354Y267702D01*
X44368Y267706D01*
X44429Y267757D01*
X44493Y267804D01*
X44500Y267817D01*
X44511Y267827D01*
X44545Y267899D01*
X44584Y267968D01*
X44585Y267983D01*
X44591Y267996D01*
X44593Y268076D01*
X44599Y268155D01*
X44594Y268169D01*
X44595Y268184D01*
X44578Y268215D01*
X44536Y268331D01*
X44490Y268379D01*
X44473Y268411D01*
X42580Y270304D01*
X42580Y274272D01*
X43203Y274895D01*
X43207Y274902D01*
X43211Y274904D01*
X43220Y274921D01*
X43241Y274939D01*
X43269Y274998D01*
X43305Y275053D01*
X43309Y275082D01*
X43321Y275108D01*
X43323Y275173D01*
X43332Y275238D01*
X43324Y275266D01*
X43325Y275295D01*
X43306Y275331D01*
X43281Y275418D01*
X43222Y275487D01*
X43203Y275523D01*
X42580Y276146D01*
X42580Y280114D01*
X43203Y280737D01*
X43219Y280762D01*
X43241Y280781D01*
X43269Y280840D01*
X43305Y280895D01*
X43309Y280924D01*
X43321Y280950D01*
X43323Y281015D01*
X43332Y281080D01*
X43324Y281108D01*
X43325Y281137D01*
X43306Y281173D01*
X43281Y281260D01*
X43222Y281329D01*
X43203Y281365D01*
X42580Y281988D01*
X42580Y285956D01*
X43203Y286579D01*
X43219Y286604D01*
X43241Y286623D01*
X43269Y286682D01*
X43305Y286737D01*
X43309Y286766D01*
X43321Y286792D01*
X43323Y286857D01*
X43332Y286922D01*
X43324Y286950D01*
X43325Y286979D01*
X43306Y287015D01*
X43281Y287102D01*
X43222Y287171D01*
X43203Y287207D01*
X42580Y287830D01*
X42580Y291798D01*
X45387Y294605D01*
X49355Y294605D01*
X49978Y293982D01*
X50003Y293966D01*
X50022Y293944D01*
X50081Y293916D01*
X50136Y293880D01*
X50165Y293876D01*
X50191Y293864D01*
X50256Y293862D01*
X50321Y293853D01*
X50349Y293861D01*
X50378Y293860D01*
X50414Y293879D01*
X50501Y293904D01*
X50570Y293963D01*
X50606Y293982D01*
X51229Y294605D01*
X55197Y294605D01*
X55820Y293982D01*
X55845Y293966D01*
X55864Y293944D01*
X55923Y293916D01*
X55978Y293880D01*
X56007Y293876D01*
X56033Y293864D01*
X56098Y293862D01*
X56163Y293853D01*
X56191Y293861D01*
X56220Y293860D01*
X56256Y293879D01*
X56343Y293904D01*
X56412Y293963D01*
X56448Y293982D01*
X57071Y294605D01*
X61039Y294605D01*
X61662Y293982D01*
X61687Y293966D01*
X61706Y293944D01*
X61765Y293916D01*
X61820Y293880D01*
X61849Y293876D01*
X61875Y293864D01*
X61940Y293862D01*
X62005Y293853D01*
X62033Y293861D01*
X62062Y293860D01*
X62098Y293879D01*
X62185Y293904D01*
X62254Y293963D01*
X62290Y293982D01*
X62913Y294605D01*
X66881Y294605D01*
X67504Y293982D01*
X67529Y293966D01*
X67548Y293944D01*
X67607Y293916D01*
X67662Y293880D01*
X67691Y293876D01*
X67717Y293864D01*
X67782Y293862D01*
X67847Y293853D01*
X67875Y293861D01*
X67904Y293860D01*
X67940Y293879D01*
X68027Y293904D01*
X68096Y293963D01*
X68132Y293982D01*
X68755Y294605D01*
X72723Y294605D01*
X75530Y291798D01*
X75530Y287830D01*
X74907Y287207D01*
X74891Y287182D01*
X74869Y287163D01*
X74841Y287104D01*
X74805Y287049D01*
X74801Y287020D01*
X74789Y286994D01*
X74787Y286929D01*
X74778Y286864D01*
X74786Y286836D01*
X74785Y286806D01*
X74804Y286771D01*
X74829Y286684D01*
X74888Y286615D01*
X74907Y286579D01*
X75530Y285956D01*
X75530Y281988D01*
X74907Y281365D01*
X74891Y281340D01*
X74869Y281321D01*
X74841Y281262D01*
X74805Y281207D01*
X74801Y281178D01*
X74789Y281152D01*
X74787Y281087D01*
X74778Y281022D01*
X74786Y280994D01*
X74785Y280964D01*
X74804Y280929D01*
X74829Y280842D01*
X74888Y280773D01*
X74907Y280737D01*
X75530Y280114D01*
X75530Y276146D01*
X74907Y275523D01*
X74891Y275498D01*
X74869Y275479D01*
X74841Y275420D01*
X74805Y275365D01*
X74801Y275336D01*
X74789Y275310D01*
X74787Y275245D01*
X74778Y275180D01*
X74786Y275152D01*
X74785Y275123D01*
X74804Y275087D01*
X74829Y275000D01*
X74852Y274973D01*
X74856Y274963D01*
X74889Y274928D01*
X74907Y274895D01*
X75530Y274272D01*
X75530Y270304D01*
X73637Y268411D01*
X73629Y268398D01*
X73617Y268390D01*
X73578Y268320D01*
X73535Y268253D01*
X73533Y268239D01*
X73526Y268226D01*
X73520Y268147D01*
X73508Y268068D01*
X73512Y268054D01*
X73511Y268039D01*
X73537Y267964D01*
X73559Y267888D01*
X73569Y267877D01*
X73574Y267863D01*
X73629Y267806D01*
X73680Y267745D01*
X73694Y267739D01*
X73704Y267728D01*
X73738Y267718D01*
X73850Y267665D01*
X73916Y267664D01*
X73951Y267653D01*
X152617Y267653D01*
X152632Y267656D01*
X152646Y267654D01*
X152723Y267676D01*
X152800Y267693D01*
X152812Y267702D01*
X152826Y267706D01*
X152887Y267757D01*
X152951Y267804D01*
X152958Y267817D01*
X152969Y267827D01*
X153003Y267899D01*
X153042Y267968D01*
X153043Y267983D01*
X153049Y267996D01*
X153051Y268076D01*
X153057Y268155D01*
X153052Y268169D01*
X153053Y268184D01*
X153036Y268215D01*
X152994Y268331D01*
X152948Y268379D01*
X152931Y268411D01*
X151165Y270177D01*
X151165Y274145D01*
X151788Y274768D01*
X151804Y274793D01*
X151826Y274812D01*
X151854Y274871D01*
X151890Y274926D01*
X151894Y274955D01*
X151906Y274981D01*
X151908Y275046D01*
X151917Y275111D01*
X151909Y275139D01*
X151910Y275169D01*
X151891Y275204D01*
X151866Y275291D01*
X151807Y275360D01*
X151788Y275396D01*
X151165Y276019D01*
X151165Y279987D01*
X151788Y280610D01*
X151804Y280635D01*
X151826Y280654D01*
X151854Y280713D01*
X151890Y280768D01*
X151894Y280797D01*
X151906Y280823D01*
X151908Y280888D01*
X151917Y280953D01*
X151909Y280981D01*
X151910Y281010D01*
X151891Y281046D01*
X151866Y281133D01*
X151810Y281199D01*
X151809Y281200D01*
X151807Y281203D01*
X151788Y281238D01*
X151165Y281861D01*
X151165Y281879D01*
X151161Y281900D01*
X151161Y281911D01*
X151160Y281916D01*
X151161Y281936D01*
X151139Y281998D01*
X151126Y282062D01*
X151108Y282085D01*
X151098Y282113D01*
X151053Y282160D01*
X151014Y282212D01*
X150989Y282226D01*
X150968Y282247D01*
X150929Y282259D01*
X150850Y282303D01*
X150760Y282311D01*
X150722Y282322D01*
X147955Y282322D01*
X147062Y283215D01*
X147050Y283223D01*
X147041Y283235D01*
X146972Y283274D01*
X146905Y283317D01*
X146890Y283319D01*
X146877Y283326D01*
X146798Y283333D01*
X146719Y283344D01*
X146705Y283340D01*
X146691Y283342D01*
X146616Y283315D01*
X146539Y283293D01*
X146528Y283283D01*
X146514Y283279D01*
X146457Y283223D01*
X146396Y283172D01*
X146390Y283158D01*
X146380Y283148D01*
X146369Y283114D01*
X146316Y283002D01*
X146315Y282936D01*
X146305Y282902D01*
X146305Y280380D01*
X144231Y278306D01*
X141297Y278306D01*
X139223Y280380D01*
X139223Y283314D01*
X141297Y285388D01*
X144231Y285388D01*
X145124Y284495D01*
X145136Y284487D01*
X145145Y284475D01*
X145214Y284436D01*
X145281Y284393D01*
X145296Y284391D01*
X145309Y284384D01*
X145388Y284377D01*
X145467Y284366D01*
X145481Y284370D01*
X145495Y284368D01*
X145570Y284395D01*
X145647Y284417D01*
X145658Y284427D01*
X145672Y284431D01*
X145729Y284487D01*
X145790Y284538D01*
X145796Y284552D01*
X145806Y284562D01*
X145817Y284596D01*
X145870Y284708D01*
X145871Y284774D01*
X145881Y284808D01*
X145881Y287330D01*
X147955Y289404D01*
X150722Y289404D01*
X150750Y289410D01*
X150779Y289408D01*
X150841Y289430D01*
X150905Y289443D01*
X150928Y289461D01*
X150956Y289471D01*
X151003Y289516D01*
X151055Y289555D01*
X151069Y289580D01*
X151090Y289601D01*
X151102Y289640D01*
X151146Y289719D01*
X151154Y289809D01*
X151165Y289847D01*
X151165Y291671D01*
X153972Y294478D01*
X157940Y294478D01*
X158563Y293855D01*
X158588Y293839D01*
X158607Y293817D01*
X158666Y293789D01*
X158721Y293753D01*
X158750Y293749D01*
X158776Y293737D01*
X158841Y293735D01*
X158906Y293726D01*
X158934Y293734D01*
X158963Y293733D01*
X158999Y293752D01*
X159086Y293777D01*
X159155Y293836D01*
X159191Y293855D01*
X159814Y294478D01*
X163782Y294478D01*
X164405Y293855D01*
X164430Y293839D01*
X164449Y293817D01*
X164508Y293789D01*
X164563Y293753D01*
X164592Y293749D01*
X164618Y293737D01*
X164683Y293735D01*
X164748Y293726D01*
X164776Y293734D01*
X164805Y293733D01*
X164841Y293752D01*
X164928Y293777D01*
X164997Y293836D01*
X165033Y293855D01*
X165656Y294478D01*
X169624Y294478D01*
X170247Y293855D01*
X170272Y293839D01*
X170291Y293817D01*
X170350Y293789D01*
X170405Y293753D01*
X170434Y293749D01*
X170460Y293737D01*
X170525Y293735D01*
X170590Y293726D01*
X170618Y293734D01*
X170647Y293733D01*
X170683Y293752D01*
X170770Y293777D01*
X170839Y293836D01*
X170875Y293855D01*
X171498Y294478D01*
X175466Y294478D01*
X176089Y293855D01*
X176114Y293839D01*
X176133Y293817D01*
X176192Y293789D01*
X176247Y293753D01*
X176276Y293749D01*
X176302Y293737D01*
X176367Y293735D01*
X176432Y293726D01*
X176460Y293734D01*
X176489Y293733D01*
X176525Y293752D01*
X176612Y293777D01*
X176681Y293836D01*
X176717Y293855D01*
X177340Y294478D01*
X181308Y294478D01*
X183941Y291845D01*
X183966Y291829D01*
X183985Y291807D01*
X184044Y291779D01*
X184099Y291743D01*
X184128Y291739D01*
X184154Y291727D01*
X184219Y291726D01*
X184284Y291716D01*
X184312Y291724D01*
X184341Y291724D01*
X184377Y291743D01*
X184464Y291767D01*
X184533Y291826D01*
X184569Y291845D01*
X186366Y293643D01*
X189300Y293643D01*
X191374Y291569D01*
X191374Y288635D01*
X189300Y286561D01*
X186366Y286561D01*
X184872Y288055D01*
X184860Y288063D01*
X184851Y288075D01*
X184782Y288114D01*
X184715Y288157D01*
X184700Y288159D01*
X184687Y288166D01*
X184608Y288173D01*
X184529Y288184D01*
X184515Y288180D01*
X184501Y288182D01*
X184426Y288155D01*
X184349Y288133D01*
X184338Y288123D01*
X184324Y288119D01*
X184267Y288063D01*
X184206Y288012D01*
X184200Y287998D01*
X184190Y287988D01*
X184179Y287954D01*
X184126Y287842D01*
X184125Y287776D01*
X184115Y287742D01*
X184115Y287703D01*
X183492Y287080D01*
X183476Y287055D01*
X183454Y287036D01*
X183426Y286977D01*
X183390Y286922D01*
X183386Y286893D01*
X183374Y286867D01*
X183372Y286802D01*
X183363Y286737D01*
X183371Y286709D01*
X183370Y286679D01*
X183389Y286644D01*
X183414Y286557D01*
X183459Y286504D01*
X183460Y286500D01*
X183474Y286487D01*
X183492Y286452D01*
X184115Y285829D01*
X184115Y281861D01*
X183492Y281238D01*
X183476Y281213D01*
X183454Y281194D01*
X183426Y281135D01*
X183390Y281080D01*
X183386Y281051D01*
X183374Y281025D01*
X183372Y280960D01*
X183363Y280895D01*
X183371Y280867D01*
X183370Y280837D01*
X183389Y280802D01*
X183414Y280715D01*
X183473Y280646D01*
X183492Y280610D01*
X184115Y279987D01*
X184115Y276019D01*
X183492Y275396D01*
X183476Y275371D01*
X183454Y275352D01*
X183426Y275293D01*
X183390Y275238D01*
X183386Y275209D01*
X183374Y275183D01*
X183372Y275118D01*
X183363Y275053D01*
X183371Y275025D01*
X183370Y274996D01*
X183389Y274960D01*
X183414Y274873D01*
X183473Y274804D01*
X183492Y274768D01*
X184115Y274145D01*
X184115Y270177D01*
X182349Y268411D01*
X182341Y268398D01*
X182329Y268390D01*
X182290Y268320D01*
X182247Y268253D01*
X182245Y268239D01*
X182238Y268226D01*
X182232Y268147D01*
X182220Y268068D01*
X182224Y268054D01*
X182223Y268039D01*
X182249Y267964D01*
X182271Y267888D01*
X182281Y267877D01*
X182286Y267863D01*
X182341Y267806D01*
X182392Y267745D01*
X182406Y267739D01*
X182416Y267728D01*
X182450Y267718D01*
X182562Y267665D01*
X182628Y267664D01*
X182663Y267653D01*
X201676Y267653D01*
X201705Y267659D01*
X201734Y267657D01*
X201795Y267679D01*
X201859Y267693D01*
X201883Y267710D01*
X201910Y267720D01*
X201957Y267766D01*
X202010Y267804D01*
X202024Y267830D01*
X202045Y267850D01*
X202057Y267889D01*
X202101Y267968D01*
X202108Y268058D01*
X202120Y268097D01*
X202120Y342519D01*
X202114Y342548D01*
X202116Y342577D01*
X202094Y342638D01*
X202080Y342702D01*
X202063Y342726D01*
X202053Y342753D01*
X202007Y342800D01*
X201969Y342853D01*
X201943Y342867D01*
X201923Y342888D01*
X201884Y342900D01*
X201805Y342944D01*
X201715Y342951D01*
X201676Y342963D01*
X190182Y342963D01*
X190154Y342957D01*
X190125Y342959D01*
X190063Y342937D01*
X189999Y342923D01*
X189976Y342906D01*
X189948Y342896D01*
X189901Y342850D01*
X189849Y342812D01*
X189835Y342786D01*
X189814Y342766D01*
X189802Y342727D01*
X189758Y342648D01*
X189750Y342558D01*
X189739Y342519D01*
X189739Y335125D01*
X147960Y293346D01*
X147936Y293309D01*
X147905Y293279D01*
X147894Y293244D01*
X147858Y293189D01*
X147840Y293066D01*
X147830Y293032D01*
X147830Y290904D01*
X145756Y288830D01*
X142822Y288830D01*
X142500Y289153D01*
X142475Y289169D01*
X142456Y289191D01*
X142397Y289219D01*
X142342Y289254D01*
X142313Y289258D01*
X142287Y289271D01*
X142221Y289272D01*
X142157Y289282D01*
X142129Y289274D01*
X142099Y289274D01*
X142064Y289255D01*
X141977Y289230D01*
X141908Y289172D01*
X141872Y289153D01*
X140708Y287988D01*
X137774Y287988D01*
X135700Y290062D01*
X135700Y292996D01*
X137774Y295070D01*
X140708Y295070D01*
X141030Y294747D01*
X141055Y294731D01*
X141074Y294709D01*
X141133Y294681D01*
X141188Y294645D01*
X141217Y294641D01*
X141243Y294628D01*
X141309Y294627D01*
X141373Y294618D01*
X141401Y294626D01*
X141431Y294625D01*
X141466Y294644D01*
X141553Y294669D01*
X141623Y294728D01*
X141658Y294747D01*
X142822Y295911D01*
X144951Y295911D01*
X144993Y295920D01*
X145037Y295920D01*
X145069Y295937D01*
X145134Y295951D01*
X145233Y296024D01*
X145265Y296041D01*
X185797Y336574D01*
X185802Y336582D01*
X185808Y336586D01*
X185822Y336612D01*
X185852Y336641D01*
X185863Y336676D01*
X185899Y336731D01*
X185917Y336854D01*
X185927Y336888D01*
X185927Y342519D01*
X185921Y342548D01*
X185923Y342577D01*
X185901Y342638D01*
X185888Y342702D01*
X185870Y342726D01*
X185860Y342753D01*
X185815Y342800D01*
X185776Y342853D01*
X185751Y342867D01*
X185730Y342888D01*
X185691Y342900D01*
X185612Y342944D01*
X185522Y342951D01*
X185484Y342963D01*
X181266Y342963D01*
X181223Y342954D01*
X181179Y342954D01*
X181147Y342937D01*
X181083Y342923D01*
X180983Y342849D01*
X180952Y342833D01*
X180927Y342808D01*
X176959Y342808D01*
X176934Y342833D01*
X176897Y342856D01*
X176867Y342888D01*
X176832Y342898D01*
X176777Y342934D01*
X176654Y342952D01*
X176620Y342963D01*
X175424Y342963D01*
X175381Y342954D01*
X175337Y342954D01*
X175305Y342937D01*
X175241Y342923D01*
X175141Y342849D01*
X175110Y342833D01*
X175085Y342808D01*
X171117Y342808D01*
X171092Y342833D01*
X171055Y342856D01*
X171025Y342888D01*
X170990Y342898D01*
X170935Y342934D01*
X170812Y342952D01*
X170778Y342963D01*
X169582Y342963D01*
X169539Y342954D01*
X169495Y342954D01*
X169463Y342937D01*
X169399Y342923D01*
X169299Y342849D01*
X169268Y342833D01*
X169243Y342808D01*
X165275Y342808D01*
X165250Y342833D01*
X165213Y342856D01*
X165183Y342888D01*
X165148Y342898D01*
X165093Y342934D01*
X164970Y342952D01*
X164936Y342963D01*
X163740Y342963D01*
X163697Y342954D01*
X163653Y342954D01*
X163621Y342937D01*
X163557Y342923D01*
X163457Y342849D01*
X163426Y342833D01*
X163401Y342808D01*
X159433Y342808D01*
X159408Y342833D01*
X159371Y342856D01*
X159341Y342888D01*
X159306Y342898D01*
X159251Y342934D01*
X159128Y342952D01*
X159094Y342963D01*
X157898Y342963D01*
X157855Y342954D01*
X157811Y342954D01*
X157779Y342937D01*
X157715Y342923D01*
X157615Y342849D01*
X157584Y342833D01*
X157559Y342808D01*
X153591Y342808D01*
X153566Y342833D01*
X153529Y342856D01*
X153499Y342888D01*
X153464Y342898D01*
X153409Y342934D01*
X153286Y342952D01*
X153252Y342963D01*
X152056Y342963D01*
X152013Y342954D01*
X151969Y342954D01*
X151937Y342937D01*
X151873Y342923D01*
X151773Y342849D01*
X151742Y342833D01*
X151717Y342808D01*
X147749Y342808D01*
X147724Y342833D01*
X147687Y342856D01*
X147657Y342888D01*
X147622Y342898D01*
X147567Y342934D01*
X147444Y342952D01*
X147410Y342963D01*
X146214Y342963D01*
X146171Y342954D01*
X146127Y342954D01*
X146095Y342937D01*
X146031Y342923D01*
X145931Y342849D01*
X145900Y342833D01*
X145875Y342808D01*
X141907Y342808D01*
X141882Y342833D01*
X141845Y342856D01*
X141815Y342888D01*
X141780Y342898D01*
X141725Y342934D01*
X141602Y342952D01*
X141568Y342963D01*
X129069Y342963D01*
X129026Y342954D01*
X128982Y342954D01*
X128950Y342937D01*
X128886Y342923D01*
X128786Y342849D01*
X128755Y342833D01*
X128730Y342808D01*
X124762Y342808D01*
X124737Y342833D01*
X124700Y342856D01*
X124670Y342888D01*
X124635Y342898D01*
X124580Y342934D01*
X124457Y342952D01*
X124423Y342963D01*
X123227Y342963D01*
X123184Y342954D01*
X123140Y342954D01*
X123108Y342937D01*
X123044Y342923D01*
X122944Y342849D01*
X122913Y342833D01*
X122888Y342808D01*
X118920Y342808D01*
X118895Y342833D01*
X118858Y342856D01*
X118828Y342888D01*
X118793Y342898D01*
X118738Y342934D01*
X118615Y342952D01*
X118581Y342963D01*
X117385Y342963D01*
X117342Y342954D01*
X117298Y342954D01*
X117266Y342937D01*
X117202Y342923D01*
X117102Y342849D01*
X117071Y342833D01*
X117046Y342808D01*
X113078Y342808D01*
X113053Y342833D01*
X113016Y342856D01*
X112986Y342888D01*
X112951Y342898D01*
X112896Y342934D01*
X112773Y342952D01*
X112739Y342963D01*
X111543Y342963D01*
X111500Y342954D01*
X111456Y342954D01*
X111424Y342937D01*
X111360Y342923D01*
X111260Y342849D01*
X111229Y342833D01*
X111204Y342808D01*
X107236Y342808D01*
X107211Y342833D01*
X107174Y342856D01*
X107144Y342888D01*
X107109Y342898D01*
X107054Y342934D01*
X106931Y342952D01*
X106897Y342963D01*
X105701Y342963D01*
X105658Y342954D01*
X105614Y342954D01*
X105582Y342937D01*
X105518Y342923D01*
X105418Y342849D01*
X105387Y342833D01*
X105362Y342808D01*
X101394Y342808D01*
X101369Y342833D01*
X101332Y342856D01*
X101302Y342888D01*
X101267Y342898D01*
X101212Y342934D01*
X101089Y342952D01*
X101055Y342963D01*
X99859Y342963D01*
X99816Y342954D01*
X99772Y342954D01*
X99740Y342937D01*
X99676Y342923D01*
X99576Y342849D01*
X99545Y342833D01*
X99520Y342808D01*
X95552Y342808D01*
X95527Y342833D01*
X95490Y342856D01*
X95460Y342888D01*
X95425Y342898D01*
X95370Y342934D01*
X95247Y342952D01*
X95213Y342963D01*
X94017Y342963D01*
X93974Y342954D01*
X93930Y342954D01*
X93898Y342937D01*
X93834Y342923D01*
X93734Y342849D01*
X93703Y342833D01*
X93678Y342808D01*
X89710Y342808D01*
X89685Y342833D01*
X89648Y342856D01*
X89618Y342888D01*
X89583Y342898D01*
X89528Y342934D01*
X89405Y342952D01*
X89371Y342963D01*
X80908Y342963D01*
X80880Y342957D01*
X80851Y342959D01*
X80789Y342937D01*
X80725Y342923D01*
X80702Y342906D01*
X80674Y342896D01*
X80627Y342850D01*
X80575Y342812D01*
X80561Y342786D01*
X80540Y342766D01*
X80528Y342727D01*
X80484Y342648D01*
X80476Y342558D01*
X80465Y342519D01*
X80465Y306443D01*
X80468Y306429D01*
X80466Y306414D01*
X80488Y306338D01*
X80504Y306260D01*
X80513Y306248D01*
X80517Y306234D01*
X80569Y306174D01*
X80616Y306110D01*
X80629Y306103D01*
X80638Y306091D01*
X80710Y306057D01*
X80780Y306019D01*
X80794Y306018D01*
X80808Y306011D01*
X80887Y306010D01*
X80966Y306003D01*
X80980Y306008D01*
X80995Y306008D01*
X81026Y306025D01*
X81143Y306066D01*
X81190Y306113D01*
X81222Y306130D01*
X82480Y307388D01*
X85414Y307388D01*
X86253Y306549D01*
X86265Y306541D01*
X86274Y306529D01*
X86343Y306490D01*
X86410Y306447D01*
X86425Y306445D01*
X86438Y306438D01*
X86517Y306431D01*
X86596Y306420D01*
X86610Y306424D01*
X86624Y306422D01*
X86699Y306449D01*
X86776Y306471D01*
X86787Y306481D01*
X86801Y306485D01*
X86858Y306541D01*
X86919Y306592D01*
X86925Y306606D01*
X86935Y306616D01*
X86946Y306650D01*
X86999Y306762D01*
X87000Y306828D01*
X87010Y306862D01*
X87010Y307092D01*
X89084Y309166D01*
X92018Y309166D01*
X94092Y307092D01*
X94092Y306752D01*
X94098Y306724D01*
X94096Y306695D01*
X94118Y306633D01*
X94131Y306569D01*
X94149Y306546D01*
X94159Y306518D01*
X94204Y306471D01*
X94243Y306419D01*
X94268Y306405D01*
X94289Y306384D01*
X94328Y306372D01*
X94407Y306328D01*
X94497Y306320D01*
X94535Y306309D01*
X97606Y306309D01*
X99680Y304235D01*
X99680Y301301D01*
X97606Y299227D01*
X94672Y299227D01*
X92598Y301301D01*
X92598Y301641D01*
X92592Y301669D01*
X92594Y301698D01*
X92572Y301760D01*
X92559Y301824D01*
X92541Y301847D01*
X92531Y301875D01*
X92486Y301922D01*
X92447Y301974D01*
X92422Y301988D01*
X92401Y302009D01*
X92362Y302021D01*
X92283Y302065D01*
X92193Y302073D01*
X92155Y302084D01*
X89084Y302084D01*
X88245Y302923D01*
X88233Y302931D01*
X88224Y302943D01*
X88155Y302982D01*
X88088Y303025D01*
X88073Y303027D01*
X88060Y303034D01*
X87981Y303041D01*
X87902Y303052D01*
X87888Y303048D01*
X87874Y303050D01*
X87799Y303023D01*
X87722Y303001D01*
X87711Y302991D01*
X87697Y302987D01*
X87640Y302931D01*
X87579Y302880D01*
X87573Y302866D01*
X87563Y302856D01*
X87552Y302822D01*
X87499Y302710D01*
X87498Y302644D01*
X87488Y302610D01*
X87488Y302380D01*
X85414Y300306D01*
X85350Y300306D01*
X85335Y300303D01*
X85321Y300305D01*
X85244Y300283D01*
X85167Y300267D01*
X85155Y300258D01*
X85141Y300254D01*
X85080Y300202D01*
X85016Y300155D01*
X85009Y300142D01*
X84998Y300133D01*
X84964Y300061D01*
X84925Y299991D01*
X84924Y299977D01*
X84918Y299963D01*
X84916Y299884D01*
X84910Y299805D01*
X84915Y299791D01*
X84915Y299776D01*
X84931Y299745D01*
X84973Y299628D01*
X85019Y299581D01*
X85036Y299549D01*
X88141Y296444D01*
X88141Y295070D01*
X88150Y295028D01*
X88149Y294984D01*
X88166Y294952D01*
X88180Y294887D01*
X88254Y294788D01*
X88271Y294757D01*
X89776Y293252D01*
X89776Y290318D01*
X87702Y288244D01*
X84768Y288244D01*
X82694Y290318D01*
X82694Y293252D01*
X84005Y294562D01*
X84021Y294587D01*
X84043Y294606D01*
X84071Y294665D01*
X84106Y294720D01*
X84111Y294749D01*
X84123Y294775D01*
X84124Y294840D01*
X84134Y294905D01*
X84126Y294933D01*
X84126Y294962D01*
X84107Y294998D01*
X84082Y295085D01*
X84024Y295154D01*
X84005Y295190D01*
X76653Y302541D01*
X76653Y342519D01*
X76647Y342548D01*
X76649Y342577D01*
X76627Y342638D01*
X76614Y342702D01*
X76596Y342726D01*
X76586Y342753D01*
X76541Y342800D01*
X76502Y342853D01*
X76477Y342867D01*
X76456Y342888D01*
X76417Y342900D01*
X76338Y342944D01*
X76248Y342951D01*
X76210Y342963D01*
X75221Y342963D01*
X75178Y342954D01*
X75134Y342954D01*
X75102Y342937D01*
X75038Y342923D01*
X74938Y342849D01*
X74907Y342833D01*
X74882Y342808D01*
X70914Y342808D01*
X70889Y342833D01*
X70852Y342856D01*
X70822Y342888D01*
X70787Y342898D01*
X70732Y342934D01*
X70609Y342952D01*
X70575Y342963D01*
X69379Y342963D01*
X69336Y342954D01*
X69292Y342954D01*
X69260Y342937D01*
X69196Y342923D01*
X69096Y342849D01*
X69065Y342833D01*
X69040Y342808D01*
X65072Y342808D01*
X65047Y342833D01*
X65010Y342856D01*
X64980Y342888D01*
X64945Y342898D01*
X64890Y342934D01*
X64767Y342952D01*
X64733Y342963D01*
X63537Y342963D01*
X63494Y342954D01*
X63450Y342954D01*
X63418Y342937D01*
X63354Y342923D01*
X63254Y342849D01*
X63223Y342833D01*
X63198Y342808D01*
X59230Y342808D01*
X59205Y342833D01*
X59168Y342856D01*
X59138Y342888D01*
X59103Y342898D01*
X59048Y342934D01*
X58925Y342952D01*
X58891Y342963D01*
X57695Y342963D01*
X57652Y342954D01*
X57608Y342954D01*
X57576Y342937D01*
X57512Y342923D01*
X57412Y342849D01*
X57381Y342833D01*
X57356Y342808D01*
X53388Y342808D01*
X53363Y342833D01*
X53326Y342856D01*
X53296Y342888D01*
X53261Y342898D01*
X53206Y342934D01*
X53083Y342952D01*
X53049Y342963D01*
X51853Y342963D01*
X51810Y342954D01*
X51766Y342954D01*
X51734Y342937D01*
X51670Y342923D01*
X51570Y342849D01*
X51539Y342833D01*
X51514Y342808D01*
X47546Y342808D01*
X47521Y342833D01*
X47484Y342856D01*
X47454Y342888D01*
X47419Y342898D01*
X47364Y342934D01*
X47241Y342952D01*
X47207Y342963D01*
X46011Y342963D01*
X45968Y342954D01*
X45924Y342954D01*
X45892Y342937D01*
X45828Y342923D01*
X45728Y342849D01*
X45697Y342833D01*
X45672Y342808D01*
X41704Y342808D01*
X41679Y342833D01*
X41642Y342856D01*
X41612Y342888D01*
X41577Y342898D01*
X41522Y342934D01*
X41399Y342952D01*
X41365Y342963D01*
X31496Y342963D01*
X31467Y342957D01*
X31438Y342959D01*
X31377Y342937D01*
X31313Y342923D01*
X31289Y342906D01*
X31262Y342896D01*
X31215Y342850D01*
X31162Y342812D01*
X31148Y342786D01*
X31127Y342766D01*
X31115Y342727D01*
X31071Y342648D01*
X31064Y342558D01*
X31052Y342519D01*
X31052Y268097D01*
X31058Y268068D01*
X31056Y268039D01*
X31078Y267978D01*
X31092Y267914D01*
X31109Y267890D01*
X31119Y267863D01*
X31165Y267816D01*
X31203Y267763D01*
X31229Y267749D01*
X31249Y267728D01*
X31288Y267716D01*
X31367Y267672D01*
X31457Y267665D01*
X31496Y267653D01*
X44159Y267653D01*
X44174Y267656D01*
G37*
%LPC*%
G36*
X143865Y107617D02*
X143865Y107617D01*
X141791Y109691D01*
X141791Y112625D01*
X142535Y113368D01*
X142551Y113393D01*
X142573Y113412D01*
X142601Y113471D01*
X142636Y113526D01*
X142641Y113555D01*
X142653Y113581D01*
X142654Y113646D01*
X142664Y113711D01*
X142656Y113739D01*
X142656Y113769D01*
X142637Y113804D01*
X142612Y113891D01*
X142564Y113948D01*
X142563Y113951D01*
X142553Y113961D01*
X142535Y113996D01*
X141791Y114739D01*
X141791Y117673D01*
X143848Y119730D01*
X143872Y119766D01*
X143903Y119797D01*
X143914Y119831D01*
X143950Y119887D01*
X143968Y120010D01*
X143978Y120043D01*
X143978Y122273D01*
X143969Y122315D01*
X143970Y122359D01*
X143953Y122391D01*
X143939Y122456D01*
X143865Y122555D01*
X143848Y122586D01*
X141791Y124643D01*
X141791Y127577D01*
X142535Y128320D01*
X142551Y128345D01*
X142573Y128364D01*
X142601Y128423D01*
X142636Y128478D01*
X142641Y128507D01*
X142653Y128533D01*
X142654Y128598D01*
X142664Y128663D01*
X142656Y128691D01*
X142656Y128720D01*
X142637Y128756D01*
X142612Y128843D01*
X142554Y128912D01*
X142535Y128948D01*
X141791Y129691D01*
X141791Y132625D01*
X143865Y134699D01*
X146799Y134699D01*
X148873Y132625D01*
X148873Y129691D01*
X148129Y128948D01*
X148113Y128923D01*
X148091Y128904D01*
X148063Y128845D01*
X148028Y128790D01*
X148023Y128761D01*
X148011Y128735D01*
X148010Y128670D01*
X148000Y128605D01*
X148008Y128577D01*
X148008Y128547D01*
X148027Y128512D01*
X148052Y128425D01*
X148110Y128356D01*
X148129Y128320D01*
X148873Y127577D01*
X148873Y124995D01*
X148882Y124953D01*
X148881Y124909D01*
X148898Y124877D01*
X148912Y124812D01*
X148986Y124713D01*
X149003Y124682D01*
X151060Y122625D01*
X151060Y119691D01*
X149003Y117634D01*
X148979Y117598D01*
X148948Y117567D01*
X148937Y117533D01*
X148901Y117477D01*
X148883Y117354D01*
X148873Y117321D01*
X148873Y114739D01*
X148129Y113996D01*
X148113Y113971D01*
X148091Y113952D01*
X148063Y113893D01*
X148028Y113838D01*
X148023Y113809D01*
X148011Y113783D01*
X148010Y113718D01*
X148000Y113653D01*
X148008Y113625D01*
X148008Y113596D01*
X148027Y113560D01*
X148052Y113473D01*
X148110Y113404D01*
X148129Y113368D01*
X148873Y112625D01*
X148873Y109691D01*
X146799Y107617D01*
X143865Y107617D01*
G37*
%LPD*%
G36*
X45236Y134193D02*
X45236Y134193D01*
X45251Y134193D01*
X45282Y134210D01*
X45399Y134251D01*
X45446Y134298D01*
X45478Y134315D01*
X45523Y134360D01*
X47652Y134360D01*
X47694Y134369D01*
X47738Y134368D01*
X47770Y134385D01*
X47835Y134399D01*
X47934Y134473D01*
X47966Y134490D01*
X65882Y152406D01*
X65906Y152443D01*
X65937Y152474D01*
X65948Y152508D01*
X65984Y152564D01*
X66002Y152686D01*
X66012Y152720D01*
X66012Y158773D01*
X66009Y158787D01*
X66011Y158802D01*
X65989Y158878D01*
X65973Y158956D01*
X65964Y158968D01*
X65960Y158982D01*
X65908Y159043D01*
X65861Y159106D01*
X65848Y159113D01*
X65839Y159125D01*
X65767Y159159D01*
X65697Y159197D01*
X65683Y159199D01*
X65669Y159205D01*
X65590Y159206D01*
X65511Y159213D01*
X65497Y159208D01*
X65482Y159208D01*
X65451Y159191D01*
X65334Y159150D01*
X65287Y159104D01*
X65255Y159086D01*
X44851Y138682D01*
X44827Y138646D01*
X44796Y138615D01*
X44785Y138581D01*
X44749Y138525D01*
X44731Y138402D01*
X44721Y138369D01*
X44721Y134628D01*
X44724Y134614D01*
X44722Y134599D01*
X44744Y134523D01*
X44760Y134445D01*
X44769Y134433D01*
X44773Y134419D01*
X44825Y134359D01*
X44872Y134295D01*
X44885Y134288D01*
X44894Y134276D01*
X44966Y134242D01*
X45036Y134204D01*
X45050Y134203D01*
X45064Y134196D01*
X45143Y134195D01*
X45222Y134188D01*
X45236Y134193D01*
G37*
%LPC*%
G36*
X92249Y160162D02*
X92249Y160162D01*
X91425Y160987D01*
X91400Y161003D01*
X91381Y161025D01*
X91322Y161053D01*
X91268Y161088D01*
X91239Y161093D01*
X91212Y161105D01*
X91147Y161106D01*
X91082Y161116D01*
X91054Y161108D01*
X91025Y161108D01*
X90989Y161089D01*
X90902Y161064D01*
X90833Y161006D01*
X90797Y160987D01*
X90135Y160324D01*
X87201Y160324D01*
X85127Y162398D01*
X85127Y165331D01*
X87201Y167405D01*
X90135Y167405D01*
X90959Y166581D01*
X90984Y166565D01*
X91003Y166543D01*
X91062Y166515D01*
X91117Y166479D01*
X91146Y166475D01*
X91172Y166463D01*
X91237Y166461D01*
X91302Y166452D01*
X91330Y166460D01*
X91359Y166459D01*
X91395Y166478D01*
X91482Y166503D01*
X91551Y166562D01*
X91587Y166581D01*
X92249Y167244D01*
X95183Y167244D01*
X95926Y166500D01*
X95951Y166484D01*
X95970Y166462D01*
X96029Y166434D01*
X96084Y166399D01*
X96113Y166394D01*
X96139Y166382D01*
X96204Y166381D01*
X96269Y166371D01*
X96297Y166379D01*
X96326Y166379D01*
X96362Y166398D01*
X96449Y166423D01*
X96518Y166481D01*
X96554Y166500D01*
X97297Y167244D01*
X100231Y167244D01*
X102305Y165170D01*
X102305Y162236D01*
X100231Y160162D01*
X97297Y160162D01*
X96554Y160906D01*
X96529Y160922D01*
X96510Y160944D01*
X96451Y160972D01*
X96396Y161007D01*
X96367Y161012D01*
X96341Y161024D01*
X96276Y161025D01*
X96211Y161035D01*
X96183Y161027D01*
X96153Y161027D01*
X96118Y161008D01*
X96031Y160983D01*
X95962Y160925D01*
X95926Y160906D01*
X95183Y160162D01*
X92249Y160162D01*
G37*
%LPD*%
%LPC*%
G36*
X148139Y303227D02*
X148139Y303227D01*
X146065Y305301D01*
X146065Y305785D01*
X146062Y305799D01*
X146064Y305814D01*
X146042Y305890D01*
X146026Y305968D01*
X146017Y305980D01*
X146013Y305994D01*
X145961Y306054D01*
X145914Y306118D01*
X145901Y306125D01*
X145892Y306137D01*
X145820Y306171D01*
X145750Y306209D01*
X145736Y306210D01*
X145722Y306217D01*
X145643Y306218D01*
X145564Y306225D01*
X145550Y306220D01*
X145535Y306220D01*
X145504Y306203D01*
X145387Y306162D01*
X145340Y306115D01*
X145308Y306098D01*
X144215Y305005D01*
X141281Y305005D01*
X139207Y307079D01*
X139207Y310013D01*
X141281Y312087D01*
X144215Y312087D01*
X146289Y310013D01*
X146289Y309529D01*
X146292Y309515D01*
X146290Y309500D01*
X146312Y309424D01*
X146328Y309346D01*
X146337Y309334D01*
X146341Y309320D01*
X146393Y309260D01*
X146440Y309196D01*
X146453Y309189D01*
X146462Y309177D01*
X146534Y309143D01*
X146604Y309105D01*
X146618Y309104D01*
X146632Y309097D01*
X146711Y309096D01*
X146790Y309089D01*
X146804Y309094D01*
X146819Y309094D01*
X146850Y309111D01*
X146967Y309152D01*
X147014Y309199D01*
X147046Y309216D01*
X148139Y310309D01*
X151073Y310309D01*
X153147Y308235D01*
X153147Y305301D01*
X151073Y303227D01*
X148139Y303227D01*
G37*
%LPD*%
%LPC*%
G36*
X139044Y40925D02*
X139044Y40925D01*
X136975Y42994D01*
X136939Y43017D01*
X136908Y43049D01*
X136874Y43059D01*
X136818Y43095D01*
X136695Y43114D01*
X136662Y43124D01*
X134104Y43124D01*
X132030Y45198D01*
X132030Y48131D01*
X134104Y50205D01*
X137038Y50205D01*
X139107Y48136D01*
X139143Y48113D01*
X139174Y48081D01*
X139208Y48071D01*
X139264Y48035D01*
X139387Y48016D01*
X139420Y48006D01*
X141978Y48006D01*
X144052Y45932D01*
X144052Y42999D01*
X141978Y40925D01*
X139044Y40925D01*
G37*
%LPD*%
%LPC*%
G36*
X87211Y68595D02*
X87211Y68595D01*
X85137Y70669D01*
X85137Y73603D01*
X87211Y75677D01*
X90145Y75677D01*
X90603Y75219D01*
X90627Y75203D01*
X90646Y75180D01*
X90705Y75152D01*
X90760Y75117D01*
X90789Y75113D01*
X90816Y75100D01*
X90881Y75099D01*
X90946Y75090D01*
X90974Y75098D01*
X91003Y75097D01*
X91039Y75116D01*
X91126Y75141D01*
X91195Y75200D01*
X91230Y75219D01*
X92259Y76248D01*
X95193Y76248D01*
X97267Y74174D01*
X97267Y71240D01*
X95193Y69166D01*
X92259Y69166D01*
X91801Y69624D01*
X91777Y69640D01*
X91758Y69663D01*
X91699Y69691D01*
X91644Y69726D01*
X91615Y69730D01*
X91588Y69743D01*
X91523Y69744D01*
X91459Y69753D01*
X91430Y69745D01*
X91401Y69746D01*
X91365Y69727D01*
X91278Y69702D01*
X91209Y69643D01*
X91174Y69624D01*
X90145Y68595D01*
X87211Y68595D01*
G37*
%LPD*%
%LPC*%
G36*
X143018Y49848D02*
X143018Y49848D01*
X140944Y51922D01*
X140944Y54856D01*
X143018Y56930D01*
X145951Y56930D01*
X146629Y56252D01*
X146654Y56236D01*
X146673Y56213D01*
X146732Y56185D01*
X146786Y56150D01*
X146815Y56146D01*
X146842Y56133D01*
X146907Y56132D01*
X146972Y56123D01*
X147000Y56131D01*
X147029Y56130D01*
X147065Y56149D01*
X147152Y56174D01*
X147221Y56233D01*
X147257Y56252D01*
X148066Y57061D01*
X150999Y57061D01*
X153073Y54987D01*
X153073Y52053D01*
X150999Y49979D01*
X148066Y49979D01*
X147388Y50657D01*
X147363Y50673D01*
X147344Y50696D01*
X147285Y50724D01*
X147230Y50759D01*
X147201Y50763D01*
X147175Y50776D01*
X147109Y50777D01*
X147045Y50786D01*
X147017Y50778D01*
X146987Y50779D01*
X146952Y50760D01*
X146865Y50735D01*
X146796Y50676D01*
X146760Y50657D01*
X145951Y49848D01*
X143018Y49848D01*
G37*
%LPD*%
%LPC*%
G36*
X81972Y272303D02*
X81972Y272303D01*
X79898Y274377D01*
X79898Y277311D01*
X81972Y279385D01*
X84906Y279385D01*
X86980Y277311D01*
X86980Y274377D01*
X84906Y272303D01*
X81972Y272303D01*
G37*
%LPD*%
%LPC*%
G36*
X129472Y272147D02*
X129472Y272147D01*
X127398Y274221D01*
X127398Y277155D01*
X129472Y279229D01*
X132406Y279229D01*
X134480Y277155D01*
X134480Y274221D01*
X132406Y272147D01*
X129472Y272147D01*
G37*
%LPD*%
%LPC*%
G36*
X143806Y136943D02*
X143806Y136943D01*
X141732Y139017D01*
X141732Y141950D01*
X143806Y144024D01*
X146740Y144024D01*
X148814Y141950D01*
X148814Y139017D01*
X146740Y136943D01*
X143806Y136943D01*
G37*
%LPD*%
%LPC*%
G36*
X157297Y95162D02*
X157297Y95162D01*
X155223Y97236D01*
X155223Y100170D01*
X157297Y102244D01*
X160231Y102244D01*
X162305Y100170D01*
X162305Y97236D01*
X160231Y95162D01*
X157297Y95162D01*
G37*
%LPD*%
%LPC*%
G36*
X143806Y93308D02*
X143806Y93308D01*
X141732Y95382D01*
X141732Y98316D01*
X143806Y100390D01*
X146740Y100390D01*
X148814Y98316D01*
X148814Y95382D01*
X146740Y93308D01*
X143806Y93308D01*
G37*
%LPD*%
%LPC*%
G36*
X119865Y88617D02*
X119865Y88617D01*
X117791Y90691D01*
X117791Y93625D01*
X119865Y95699D01*
X122799Y95699D01*
X124873Y93625D01*
X124873Y90691D01*
X122799Y88617D01*
X119865Y88617D01*
G37*
%LPD*%
%LPC*%
G36*
X157831Y85503D02*
X157831Y85503D01*
X155757Y87577D01*
X155757Y90511D01*
X157831Y92585D01*
X160764Y92585D01*
X162838Y90511D01*
X162838Y87577D01*
X160764Y85503D01*
X157831Y85503D01*
G37*
%LPD*%
%LPC*%
G36*
X167158Y76342D02*
X167158Y76342D01*
X165084Y78416D01*
X165084Y81350D01*
X167158Y83424D01*
X170092Y83424D01*
X172166Y81350D01*
X172166Y78416D01*
X170092Y76342D01*
X167158Y76342D01*
G37*
%LPD*%
%LPC*%
G36*
X145472Y58329D02*
X145472Y58329D01*
X143398Y60403D01*
X143398Y63337D01*
X145472Y65411D01*
X148406Y65411D01*
X150480Y63337D01*
X150480Y60403D01*
X148406Y58329D01*
X145472Y58329D01*
G37*
%LPD*%
%LPC*%
G36*
X110897Y47748D02*
X110897Y47748D01*
X108823Y49822D01*
X108823Y52755D01*
X110897Y54829D01*
X113831Y54829D01*
X115905Y52755D01*
X115905Y49822D01*
X113831Y47748D01*
X110897Y47748D01*
G37*
%LPD*%
%LPC*%
G36*
X102876Y42029D02*
X102876Y42029D01*
X100802Y44103D01*
X100802Y47036D01*
X102876Y49110D01*
X105810Y49110D01*
X107884Y47036D01*
X107884Y44103D01*
X105810Y42029D01*
X102876Y42029D01*
G37*
%LPD*%
%LPC*%
G36*
X157656Y40863D02*
X157656Y40863D01*
X155582Y42937D01*
X155582Y45871D01*
X157656Y47945D01*
X160589Y47945D01*
X162663Y45871D01*
X162663Y42937D01*
X160589Y40863D01*
X157656Y40863D01*
G37*
%LPD*%
%LPC*%
G36*
X70796Y34305D02*
X70796Y34305D01*
X68722Y36379D01*
X68722Y39313D01*
X70796Y41387D01*
X73730Y41387D01*
X75804Y39313D01*
X75804Y36379D01*
X73730Y34305D01*
X70796Y34305D01*
G37*
%LPD*%
D10*
X48768Y413004D02*
X48768Y413766D01*
X184150Y426212D02*
X184150Y426974D01*
X184404Y413639D02*
X184404Y413004D01*
X48768Y177165D02*
X48768Y176403D01*
X184150Y189611D02*
X184150Y190373D01*
X184404Y177038D02*
X184404Y176403D01*
D11*
X145332Y106110D03*
X116284Y91440D03*
X87476Y141302D03*
D12*
X103812Y157638D01*
X103812Y163703D01*
D11*
X103812Y163703D03*
X131332Y150158D03*
X112502Y56337D03*
X101725Y210164D03*
D13*
X31496Y313817D03*
X31496Y301244D03*
X31496Y288671D03*
X201676Y313817D03*
X201676Y301244D03*
X201676Y288671D03*
X201676Y276098D03*
D14*
X110744Y272415D03*
X122428Y272415D03*
X110744Y278257D03*
X116586Y278257D03*
X122428Y278257D03*
X110744Y284099D03*
X116586Y284099D03*
X122428Y284099D03*
X110744Y289941D03*
X116586Y289941D03*
X122428Y289941D03*
X104902Y272415D03*
X104902Y278257D03*
X104902Y284099D03*
X104902Y289941D03*
X116586Y272415D03*
D13*
X201676Y77216D03*
X201676Y64643D03*
X201676Y52070D03*
X201676Y39497D03*
D11*
X186935Y160050D03*
X187824Y67818D03*
X167600Y41023D03*
D13*
X31496Y276098D03*
X201676Y326390D03*
X31496Y326390D03*
D14*
X99060Y284099D03*
X99060Y289941D03*
X93218Y284099D03*
X93218Y289941D03*
D13*
X201676Y89789D03*
D11*
X45720Y115801D03*
X48356Y138978D03*
X77343Y47092D03*
D13*
X31496Y77216D03*
X31496Y64643D03*
X31496Y52070D03*
X31496Y39497D03*
X31496Y89789D03*
D11*
X104343Y45570D03*
X136332Y92158D03*
X136380Y150212D03*
D12*
X137825Y151657D02*
X137825Y151705D01*
D15*
X137253Y151941D02*
X137253Y151085D01*
X136380Y150212D01*
X136380Y92206D01*
X136332Y92158D01*
X151892Y166580D02*
X151892Y168520D01*
D11*
X151892Y168520D03*
D15*
X151892Y166580D02*
X137253Y151941D01*
D11*
X46990Y130819D03*
D15*
X67918Y163322D02*
X70364Y165768D01*
X67918Y151747D02*
X46990Y130819D01*
X67918Y151747D02*
X67918Y163322D01*
X70364Y165768D02*
X70758Y165768D01*
X77865Y165768D01*
X83047Y170950D01*
D11*
X83047Y170950D03*
X85725Y61849D03*
D13*
X201676Y166497D03*
X201676Y153924D03*
X201676Y141351D03*
X201676Y128778D03*
D11*
X167767Y47094D03*
D15*
X183261Y62588D01*
X183261Y122301D01*
D13*
X201676Y116205D03*
D15*
X201676Y128778D02*
X189738Y128778D01*
X183261Y122301D01*
D11*
X117023Y150212D03*
X158764Y98703D03*
X93726Y72707D03*
X73764Y118751D03*
D12*
X73764Y118695D01*
D11*
X140511Y44466D03*
X138764Y163703D03*
X87255Y116110D03*
X128812Y163703D03*
D12*
X88700Y117555D02*
X87255Y116110D01*
X88700Y117555D02*
X93819Y117555D01*
X125951Y149686D01*
X125951Y152387D01*
X128812Y155249D02*
X128812Y163703D01*
X128812Y155249D02*
X125951Y152387D01*
D11*
X118764Y165842D03*
X87255Y111062D03*
X159297Y89044D03*
X145273Y96849D03*
X187833Y79747D03*
X93716Y163703D03*
X145332Y126110D03*
X98764Y163703D03*
X147519Y121158D03*
X145332Y131158D03*
X88668Y163865D03*
D13*
X31496Y403098D03*
X31496Y390525D03*
X31496Y377952D03*
X201676Y403098D03*
X201676Y390525D03*
X201676Y377952D03*
X201676Y365379D03*
D11*
X86235Y291785D03*
D15*
X86235Y295655D01*
X78559Y303331D01*
D13*
X31496Y365379D03*
X31496Y352806D03*
X201676Y352806D03*
D15*
X78559Y361628D02*
X75243Y364944D01*
X31931Y364944D02*
X31496Y365379D01*
X31931Y364944D02*
X75243Y364944D01*
X78559Y361628D02*
X78559Y303331D01*
D11*
X121332Y92158D03*
X42155Y145578D03*
X90551Y305625D03*
X83439Y275844D03*
D14*
X47371Y272288D03*
X47371Y278130D03*
X53213Y272288D03*
X53213Y278130D03*
X59055Y278130D03*
X59055Y272288D03*
X64897Y272288D03*
X64897Y278130D03*
X70739Y278130D03*
X70739Y272288D03*
X47371Y283972D03*
X53213Y283972D03*
X59055Y283972D03*
X64897Y283972D03*
X70739Y283972D03*
X47371Y289814D03*
X53213Y289814D03*
X59055Y289814D03*
X64897Y289814D03*
X70739Y289814D03*
X49530Y353441D03*
X43688Y353441D03*
X43688Y347599D03*
X49530Y347599D03*
X55372Y353441D03*
X55372Y347599D03*
X61214Y353441D03*
X61214Y347599D03*
X67056Y347599D03*
X67056Y353441D03*
X72898Y353441D03*
X72898Y347599D03*
D11*
X83947Y303847D03*
D14*
X49530Y359283D03*
X43688Y359283D03*
X55372Y359283D03*
X61214Y359283D03*
X67056Y359283D03*
X72898Y359283D03*
D13*
X48895Y419989D03*
X61468Y419989D03*
X74041Y419989D03*
D14*
X91694Y347599D03*
X91694Y353441D03*
X97536Y353441D03*
X103378Y353441D03*
X109220Y353441D03*
X115062Y353441D03*
X120904Y353441D03*
X126746Y353441D03*
X126746Y347599D03*
X97536Y347599D03*
X103378Y347599D03*
X109220Y347599D03*
X115062Y347599D03*
X120904Y347599D03*
D11*
X96139Y302768D03*
D14*
X91694Y359283D03*
X97536Y359283D03*
X103378Y359283D03*
X109220Y359283D03*
X115062Y359283D03*
X120904Y359283D03*
X126746Y359283D03*
D13*
X104013Y419989D03*
X116586Y419989D03*
X129159Y419989D03*
D11*
X142748Y308546D03*
X130939Y275688D03*
X187833Y346202D03*
D15*
X187833Y335915D01*
D11*
X144289Y292371D03*
D15*
X187833Y335915D01*
D14*
X143891Y347599D03*
X143891Y353441D03*
X149733Y353441D03*
X155575Y353441D03*
X161417Y353441D03*
X167259Y353441D03*
X173101Y353441D03*
X178943Y353441D03*
X178943Y347599D03*
X173101Y347599D03*
X167259Y347599D03*
X161417Y347599D03*
X155575Y347599D03*
X149733Y347599D03*
D11*
X149606Y306768D03*
D14*
X143891Y359283D03*
X149733Y359283D03*
X155575Y359283D03*
X161417Y359283D03*
X167259Y359283D03*
X173101Y359283D03*
X178943Y359283D03*
D13*
X159131Y419989D03*
X171704Y419989D03*
X184277Y419989D03*
D14*
X155956Y278003D03*
X161798Y278003D03*
X167640Y278003D03*
X173482Y278003D03*
X179324Y278003D03*
X173482Y272161D03*
X179324Y272161D03*
X161798Y272161D03*
X167640Y272161D03*
X155956Y272161D03*
X155956Y283845D03*
X161798Y283845D03*
X167640Y283845D03*
X173482Y283845D03*
X179324Y283845D03*
X155956Y289687D03*
X161798Y289687D03*
X167640Y289687D03*
X173482Y289687D03*
X179324Y289687D03*
D11*
X187833Y290102D03*
X149422Y285863D03*
X130939Y61870D03*
X108764Y82002D03*
X130939Y39370D03*
D15*
X126764Y63599D02*
X129210Y66045D01*
X133047Y66045D02*
X138001Y70999D01*
X133047Y66045D02*
X129210Y66045D01*
D11*
X123730Y73115D03*
D15*
X124603Y74457D02*
X127049Y76903D01*
X135555Y76903D02*
X138001Y74457D01*
X138001Y70999D01*
X124603Y73988D02*
X123730Y73115D01*
X124603Y73988D02*
X124603Y74457D01*
X127049Y76903D02*
X135555Y76903D01*
X126764Y43545D02*
X130939Y39370D01*
X126764Y43545D02*
X126764Y63599D01*
D11*
X85725Y39349D03*
X128778Y72728D03*
D15*
X128778Y72259D01*
X87325Y45521D02*
X87325Y40949D01*
X85725Y39349D01*
X95036Y53232D02*
X97679Y53232D01*
X100125Y55677D01*
X100125Y55717D01*
X127905Y71386D02*
X127905Y71855D01*
X128778Y72728D01*
X125051Y68532D02*
X112940Y68532D01*
X125051Y68532D02*
X127905Y71386D01*
X112940Y68532D02*
X100125Y55717D01*
X95036Y53232D02*
X87325Y45521D01*
D11*
X146939Y61870D03*
X103759Y72707D03*
X88678Y72136D03*
X112364Y51289D03*
X133826Y72728D03*
X91500Y43792D03*
D12*
X132382Y71284D02*
X133826Y72728D01*
X132382Y71284D02*
X132382Y71235D01*
X129541Y68395D01*
X98591Y50882D02*
X91500Y43792D01*
X98591Y50882D02*
X98653Y50882D01*
X102475Y54704D02*
X102475Y54744D01*
X102475Y54704D02*
X98653Y50882D01*
X113913Y66183D02*
X126024Y66183D01*
X128236Y68395D02*
X129541Y68395D01*
X128236Y68395D02*
X126024Y66183D01*
X113913Y66183D02*
X102475Y54744D01*
D11*
X84086Y96849D03*
X90902Y56333D03*
D12*
X69753Y56333D01*
X67009Y59077D01*
D11*
X67009Y59077D03*
X95950Y57407D03*
X113792Y72707D03*
D12*
X98492Y57407D01*
X95950Y57407D01*
D11*
X136714Y57428D03*
D12*
X140351Y70025D02*
X140351Y75431D01*
X140351Y70025D02*
X136714Y66389D01*
X136714Y57428D01*
D11*
X98832Y84041D03*
D12*
X136529Y79253D02*
X140351Y75431D01*
X111110Y79253D02*
X110257Y78399D01*
X104474Y78399D02*
X98832Y84041D01*
X104474Y78399D02*
X110257Y78399D01*
X111110Y79253D02*
X136529Y79253D01*
D11*
X168625Y79883D03*
X73764Y93703D03*
X135571Y46665D03*
X85260Y136379D03*
D12*
X86580Y137699D01*
X88969Y137699D01*
X110161Y158890D01*
X110161Y165196D01*
X114434Y169470D01*
D11*
X158764Y143655D03*
D12*
X158764Y153797D02*
X158764Y154934D01*
X158764Y153797D02*
X158764Y143655D01*
X153385Y172124D02*
X150399Y172124D01*
X147745Y169470D01*
X153385Y172124D02*
X158764Y166744D01*
X158764Y154934D01*
X147745Y169470D02*
X114434Y169470D01*
D11*
X122023Y153044D03*
X60184Y111085D03*
X87838Y93462D03*
D16*
X70215Y111085D02*
X60184Y111085D01*
X85710Y100770D02*
X88007Y98473D01*
X88007Y95225D01*
X80530Y100770D02*
X70215Y111085D01*
X87838Y95056D02*
X88007Y95225D01*
X87838Y95056D02*
X87838Y93462D01*
X85710Y100770D02*
X80530Y100770D01*
D11*
X149532Y53520D03*
X73660Y113703D03*
X96332Y92187D03*
X133788Y165866D03*
D12*
X132416Y164494D01*
X127729Y151651D02*
X127729Y148665D01*
X130810Y145584D01*
X132416Y156338D02*
X132416Y164494D01*
X132416Y156338D02*
X127729Y151651D01*
X130810Y126665D02*
X96332Y92187D01*
X130810Y126665D02*
X130810Y145584D01*
D11*
X87255Y121158D03*
X123764Y163703D03*
D12*
X123764Y163068D02*
X123764Y162740D01*
X123764Y163068D02*
X123764Y163703D01*
X108279Y142182D02*
X87255Y121158D01*
X108279Y142182D02*
X108279Y152201D01*
X118316Y162239D02*
X120257Y162239D01*
X121086Y163068D01*
X123764Y163068D01*
X118316Y162239D02*
X108279Y152201D01*
D11*
X113764Y163703D03*
X87255Y106014D03*
X178983Y78096D03*
X168625Y55443D03*
X106008Y89362D03*
X54697Y92320D03*
D12*
X70051Y92320D01*
X97825Y88583D02*
X98604Y89362D01*
X106008Y89362D01*
X73788Y88583D02*
X70051Y92320D01*
X73788Y88583D02*
X97825Y88583D01*
D11*
X72263Y37846D03*
X111882Y150708D03*
X59775Y169926D03*
X141428Y150212D03*
X54864Y162433D03*
X145273Y140483D03*
X54745Y157218D03*
X145332Y116206D03*
X72093Y161593D03*
X145332Y111158D03*
X80399Y160187D03*
X144484Y53389D03*
X159123Y44404D03*
X87255Y131331D03*
X87245Y126245D03*
D12*
X73980Y139510D01*
X48483Y127216D02*
X45497Y127216D01*
X43387Y129326D01*
X60777Y139510D02*
X73980Y139510D01*
X60777Y139510D02*
X48483Y127216D01*
X43387Y129326D02*
X43387Y139105D01*
D11*
X71351Y172124D03*
D12*
X65569Y164296D02*
X65569Y161287D01*
X71351Y170078D02*
X71351Y172124D01*
X71351Y170078D02*
X65569Y164296D01*
X65569Y161287D02*
X43387Y139105D01*
D11*
X139241Y291529D03*
X142764Y281847D03*
X146939Y232410D03*
X140989Y227793D03*
X135941Y226845D03*
X130939Y232410D03*
X146939Y210185D03*
X140989Y215028D03*
X135941Y215976D03*
X130939Y210185D03*
X85725Y210164D03*
X91675Y215057D03*
X96723Y216005D03*
X85725Y232439D03*
X91675Y227822D03*
X96723Y226874D03*
X101725Y232439D03*
D13*
X31496Y166497D03*
X31496Y153924D03*
X31496Y141351D03*
X31496Y128778D03*
X31496Y116205D03*
X48895Y183388D03*
X61468Y183388D03*
X74041Y183388D03*
X104013Y183388D03*
X116586Y183388D03*
X129159Y183388D03*
X159131Y183388D03*
X171704Y183388D03*
X184277Y183388D03*
M02*
