G04 EAGLE Gerber RS-274X export*
G75*
%MOMM*%
%FSLAX34Y34*%
%LPD*%
%INSolderpaste Top*%
%IPPOS*%
%AMOC8*
5,1,8,0,0,1.08239X$1,22.5*%
G01*
%ADD10R,1.000000X1.100000*%
%ADD11R,1.100000X1.000000*%
%ADD12R,0.300000X1.500000*%
%ADD13R,1.500000X0.300000*%
%ADD14R,5.170000X5.170000*%
%ADD15R,0.710000X1.372000*%
%ADD16R,0.710000X0.686000*%
%ADD17R,4.520000X3.800000*%
%ADD18R,0.550000X0.600000*%
%ADD19R,0.240000X0.600000*%
%ADD20R,0.450000X0.600000*%
%ADD21R,0.800000X0.800000*%


D10*
X187824Y79883D03*
X170824Y79883D03*
D11*
X59690Y92320D03*
X59690Y75320D03*
X59690Y119244D03*
X59690Y102244D03*
D10*
X187325Y143628D03*
X187325Y126628D03*
X176784Y94751D03*
X176784Y111751D03*
X59690Y131454D03*
X59690Y148454D03*
D11*
X169935Y157988D03*
X186935Y157988D03*
D10*
X187833Y94751D03*
X187833Y111751D03*
D11*
X169935Y169037D03*
X186935Y169037D03*
D10*
X45720Y102117D03*
X45720Y119117D03*
D11*
X172847Y129930D03*
X172847Y146930D03*
X46990Y130819D03*
X46990Y147819D03*
D12*
X143764Y163703D03*
X138764Y163703D03*
X133764Y163703D03*
X128764Y163703D03*
X123764Y163703D03*
X118764Y163703D03*
X113764Y163703D03*
X108764Y163703D03*
X103764Y163703D03*
X98764Y163703D03*
X93764Y163703D03*
X88764Y163703D03*
X143764Y78703D03*
X138764Y78703D03*
X133764Y78703D03*
X128764Y78703D03*
X123764Y78703D03*
X118764Y78703D03*
X113764Y78703D03*
X108764Y78703D03*
X103764Y78703D03*
X98764Y78703D03*
X93764Y78703D03*
X88764Y78703D03*
D13*
X73764Y93703D03*
X73764Y98703D03*
X73764Y103703D03*
X73764Y108703D03*
X73764Y113703D03*
X73764Y118703D03*
X73764Y123703D03*
X73764Y128703D03*
X73764Y133703D03*
X73764Y138703D03*
X73764Y143703D03*
X73764Y148703D03*
X158764Y93703D03*
X158764Y98703D03*
X158764Y103703D03*
X158764Y108703D03*
X158764Y113703D03*
X158764Y118703D03*
X158764Y123703D03*
X158764Y128703D03*
X158764Y133703D03*
X158764Y138703D03*
X158764Y143703D03*
X158764Y148703D03*
D14*
X116264Y121203D03*
D15*
X97536Y346202D03*
X110236Y346202D03*
X122936Y346202D03*
D16*
X135636Y346202D03*
X135636Y403352D03*
D15*
X122936Y403352D03*
X110236Y403352D03*
X97536Y403352D03*
D17*
X116586Y384302D03*
D15*
X97536Y275844D03*
X110236Y275844D03*
X122936Y275844D03*
D16*
X135636Y275844D03*
X135636Y332994D03*
D15*
X122936Y332994D03*
X110236Y332994D03*
X97536Y332994D03*
D17*
X116586Y313944D03*
D15*
X45339Y346202D03*
X58039Y346202D03*
X70739Y346202D03*
D16*
X83439Y346202D03*
X83439Y403352D03*
D15*
X70739Y403352D03*
X58039Y403352D03*
X45339Y403352D03*
D17*
X64389Y384302D03*
D15*
X45339Y275844D03*
X58039Y275844D03*
X70739Y275844D03*
D16*
X83439Y275844D03*
X83439Y332994D03*
D15*
X70739Y332994D03*
X58039Y332994D03*
X45339Y332994D03*
D17*
X64389Y313944D03*
D15*
X149733Y346202D03*
X162433Y346202D03*
X175133Y346202D03*
D16*
X187833Y346202D03*
X187833Y403352D03*
D15*
X175133Y403352D03*
X162433Y403352D03*
X149733Y403352D03*
D17*
X168783Y384302D03*
D15*
X149733Y275844D03*
X162433Y275844D03*
X175133Y275844D03*
D16*
X187833Y275844D03*
X187833Y332994D03*
D15*
X175133Y332994D03*
X162433Y332994D03*
X149733Y332994D03*
D17*
X168783Y313944D03*
D18*
X146939Y210185D03*
D19*
X140939Y210185D03*
X136939Y210185D03*
D18*
X130939Y210185D03*
X130939Y232685D03*
X146939Y232685D03*
D19*
X140939Y232685D03*
X136939Y232685D03*
D20*
X154439Y210185D03*
X123439Y210185D03*
X154439Y232685D03*
X123439Y232685D03*
D18*
X146939Y39370D03*
D19*
X140939Y39370D03*
X136939Y39370D03*
D18*
X130939Y39370D03*
X130939Y61870D03*
X146939Y61870D03*
D19*
X140939Y61870D03*
X136939Y61870D03*
D20*
X154439Y39370D03*
X123439Y39370D03*
X154439Y61870D03*
X123439Y61870D03*
D18*
X85725Y232664D03*
D19*
X91725Y232664D03*
X95725Y232664D03*
D18*
X101725Y232664D03*
X101725Y210164D03*
X85725Y210164D03*
D19*
X91725Y210164D03*
X95725Y210164D03*
D20*
X78225Y232664D03*
X109225Y232664D03*
X78225Y210164D03*
X109225Y210164D03*
D18*
X85725Y61849D03*
D19*
X91725Y61849D03*
X95725Y61849D03*
D18*
X101725Y61849D03*
X101725Y39349D03*
X85725Y39349D03*
D19*
X91725Y39349D03*
X95725Y39349D03*
D20*
X78225Y61849D03*
X109225Y61849D03*
X78225Y39349D03*
X109225Y39349D03*
D10*
X170824Y55753D03*
X187824Y55753D03*
X187824Y67818D03*
X170824Y67818D03*
D21*
X47110Y169926D03*
X62110Y169926D03*
D10*
X63110Y159385D03*
X46110Y159385D03*
M02*
