M48
;GenerationSoftware,Autodesk,EAGLE,9.6.2*%
;CreationDate,2020-07-07T18:20:12Z*%
FMAT,2
ICI,OFF
METRIC,TZ,000.000
T3C0.200
T2C0.450
T1C1.000
%
G90
M71
T1
X20168Y32639
X20168Y3950
X20168Y39053
X3150Y39053
X3150Y37795
X3150Y27610
X20168Y40310
X3150Y31382
X3150Y30124
X3150Y28867
X20168Y31382
X20168Y30124
X20168Y28867
X20168Y27610
X3150Y32639
X4890Y41999
X6147Y41999
X20168Y16650
X20168Y15392
X20168Y14135
X20168Y12878
X7404Y41999
X20168Y8979
X20168Y11620
X3150Y7722
X3150Y6464
X3150Y5207
X3150Y3950
X3150Y8979
X3150Y40310
X20168Y7722
X20168Y6464
X20168Y5207
X20168Y37795
X20168Y36538
X3150Y36538
X3150Y35281
X20168Y35281
X10401Y41999
X11659Y41999
X12916Y41999
X17170Y18339
X15913Y41999
X17170Y41999
X18428Y41999
X18428Y18339
X3150Y16650
X3150Y15392
X3150Y14135
X3150Y12878
X3150Y11620
X4890Y18339
X6147Y18339
X7404Y18339
X10401Y18339
X11659Y18339
X12916Y18339
X15913Y18339
T2
X9906Y28410
X9906Y28994
X9322Y28410
X9322Y28994
X11074Y28994
X5321Y28981
X5905Y28981
X6490Y28981
X7074Y28981
X4953Y35344
X4369Y35344
X4369Y34760
X4953Y34760
X5537Y35344
X5537Y34760
X6121Y35344
X6121Y34760
X6706Y35344
X7290Y35344
X7290Y34760
X9754Y34760
X4953Y35928
X4369Y35928
X5537Y35928
X6121Y35928
X6706Y35928
X7290Y35928
X9169Y34760
X9169Y35344
X9754Y35344
X10338Y35344
X6706Y34760
X6490Y27813
X7074Y27813
X10922Y35344
X7074Y27229
X4737Y28397
X5321Y28397
X11506Y35344
X12090Y35344
X12675Y35344
X12675Y34760
X4737Y27229
X4737Y27813
X5321Y27229
X5321Y27813
X5905Y27813
X5905Y27229
X6490Y27229
X10922Y34760
X11506Y34760
X12090Y34760
X9169Y35928
X9754Y35928
X10338Y35928
X10922Y35928
X11506Y35928
X12090Y35928
X12675Y35928
X5905Y28397
X11074Y27241
X12243Y27241
X14389Y34760
X14389Y35344
X14973Y35344
X15557Y35344
X16142Y35344
X16726Y35344
X17310Y35344
X17894Y35344
X17894Y34760
X17310Y34760
X16726Y34760
X16142Y34760
X15557Y34760
X11074Y27826
X14389Y35928
X14973Y35928
X15557Y35928
X16142Y35928
X16726Y35928
X17310Y35928
X17894Y35928
X11659Y27826
X12243Y27826
X11074Y28410
X15596Y27800
X16180Y27800
X16764Y27800
X17348Y27800
X17932Y27800
X17348Y27216
X17932Y27216
X16180Y27216
X16764Y27216
X15596Y27216
X15596Y28384
X14973Y34760
X16764Y28384
X17348Y28384
X17932Y28384
X15596Y28969
X16180Y28969
X16764Y28969
X17348Y28969
X17932Y28969
X11659Y28410
X12243Y28410
X11659Y28994
X12243Y28994
X10490Y27241
X10490Y27826
X10490Y28410
X10490Y28994
X11659Y27241
X6490Y28397
X7074Y28397
X4737Y28981
X10338Y34760
X16180Y28384
T3
X11702Y15021
X15876Y9870
X9373Y7271
X7376Y11875
X14051Y4447
X13876Y16370
X8726Y11611
X14961Y30677
X12881Y16370
X11876Y16584
X8726Y11106
X15930Y8904
X14527Y9685
X18783Y7975
X9372Y16370
X14533Y12611
X9876Y16370
X14752Y12116
X14533Y13116
X8867Y16386
X8624Y29178
X12133Y9216
X4216Y14558
X9055Y30562
X8344Y27584
X8395Y30385
X14533Y10611
X11628Y9144
X8748Y14130
X10381Y16370
X9614Y30277
X13133Y15016
X11250Y5634
X10173Y21016
X18694Y16005
X18782Y6782
X16760Y4102
X4572Y11580
X18783Y29010
X14942Y28586
X13094Y6187
X10876Y8200
X13094Y3937
X12373Y7312
X8573Y3935
X12878Y7273
X14694Y6187
X10376Y7271
X8868Y7214
X4836Y13898
X13383Y7273
X9150Y4379
X8409Y9685
X9090Y5633
X6701Y5908
X9595Y5741
X11379Y7271
X13671Y5743
X9883Y8404
X16863Y7988
X7376Y9370
X13557Y4666
X8526Y13638
X15876Y14365
X12202Y15304
X6018Y11108
X8784Y9346
X14953Y5352
X7366Y11370
X9633Y9219
X13379Y16587
X8726Y12116
X12376Y16370
X11376Y16370
X8726Y10601
X17898Y7810
X16863Y5544
X10601Y8936
X5470Y9232
X7226Y3785
X11188Y15071
X5977Y16993
X14143Y15021
X5486Y16243
X14527Y14048
X5475Y15722
X14533Y11621
X11236Y5129
X14533Y11116
X8040Y16019
X14448Y5339
X15912Y4440
X8726Y13133
X8725Y12624
X7135Y17212
X13924Y29153
X14276Y28185
X14694Y23241
X14099Y22779
X13594Y22684
X13094Y23241
X14694Y21019
X14099Y21503
X13594Y21598
X13094Y21019
X8573Y21016
X9168Y21506
X9672Y21600
X8573Y23244
X9168Y22782
X9672Y22687
X10173Y23244
X7734Y4709
X10434Y4557
X14275Y30855
X13094Y27569
X18783Y34620
X14429Y29237
X13633Y9216
X13638Y15021
X15189Y16852
X4699Y13082
X8305Y17095
X8573Y6185
X16777Y4709
X7209Y16159
M30