G75*
%MOIN*%
%OFA0B0*%
%FSLAX25Y25*%
%IPPOS*%
%LPD*%
%AMOC8*
5,1,8,0,0,1.08239X$1,22.5*
%
%ADD10R,0.03595X0.06202*%
%ADD11R,0.18595X0.15761*%
%ADD12R,0.04343X0.04343*%
%ADD13R,0.06706X0.08674*%
%ADD14R,0.15761X0.08674*%
%ADD15R,0.05131X0.04737*%
%ADD16R,0.04737X0.05131*%
%ADD17R,0.01784X0.02887*%
%ADD18R,0.02887X0.01784*%
%ADD19R,0.04737X0.02965*%
%ADD20C,0.06800*%
%ADD21R,0.05524X0.01981*%
%ADD22R,0.01981X0.05524*%
%ADD23R,0.06312X0.07099*%
%ADD24R,0.05800X0.10800*%
%ADD25R,0.03950X0.03950*%
%ADD26R,0.02965X0.03044*%
%ADD27R,0.03556X0.03556*%
%ADD28R,0.07099X0.06312*%
%ADD29C,0.05600*%
%ADD30C,0.06800*%
%ADD31C,0.12611*%
%ADD32R,0.05918X0.06706*%
%ADD33R,0.06706X0.05918*%
%ADD34R,0.07099X0.07887*%
%ADD35C,0.03378*%
%ADD36R,0.04362X0.04362*%
%ADD37C,0.03181*%
D10*
X0042900Y0200104D03*
X0047900Y0200104D03*
X0052900Y0200104D03*
X0057900Y0200104D03*
X0065400Y0200104D03*
X0070400Y0200104D03*
X0075400Y0200104D03*
X0080400Y0200104D03*
X0087900Y0200104D03*
X0092900Y0200104D03*
X0097900Y0200104D03*
X0102900Y0200104D03*
X0110400Y0200104D03*
X0115400Y0200104D03*
X0120400Y0200104D03*
X0125400Y0200104D03*
X0132900Y0200104D03*
X0137900Y0200104D03*
X0142900Y0200104D03*
X0147900Y0200104D03*
X0155400Y0200104D03*
X0160400Y0200104D03*
X0165400Y0200104D03*
X0170400Y0200104D03*
X0177900Y0200104D03*
X0182900Y0200104D03*
X0187900Y0200104D03*
X0192900Y0200104D03*
X0200400Y0200104D03*
X0205400Y0200104D03*
X0210400Y0200104D03*
X0215400Y0200104D03*
X0222900Y0200104D03*
X0227900Y0200104D03*
X0232900Y0200104D03*
X0237900Y0200104D03*
X0237900Y0222604D03*
X0232900Y0222604D03*
X0227900Y0222604D03*
X0222900Y0222604D03*
X0215400Y0222604D03*
X0210400Y0222604D03*
X0205400Y0222604D03*
X0200400Y0222604D03*
X0192900Y0222604D03*
X0187900Y0222604D03*
X0182900Y0222604D03*
X0177900Y0222604D03*
X0170400Y0222604D03*
X0165400Y0222604D03*
X0160400Y0222604D03*
X0155400Y0222604D03*
X0147900Y0222604D03*
X0142900Y0222604D03*
X0137900Y0222604D03*
X0132900Y0222604D03*
X0125400Y0222604D03*
X0120400Y0222604D03*
X0115400Y0222604D03*
X0110400Y0222604D03*
X0102900Y0222604D03*
X0097900Y0222604D03*
X0092900Y0222604D03*
X0087900Y0222604D03*
X0080400Y0222604D03*
X0075400Y0222604D03*
X0070400Y0222604D03*
X0065400Y0222604D03*
X0057900Y0222604D03*
X0052900Y0222604D03*
X0047900Y0222604D03*
X0042900Y0222604D03*
X0042900Y0230104D03*
X0047900Y0230104D03*
X0052900Y0230104D03*
X0057900Y0230104D03*
X0065400Y0230104D03*
X0070400Y0230104D03*
X0075400Y0230104D03*
X0080400Y0230104D03*
X0087900Y0230104D03*
X0092900Y0230104D03*
X0097900Y0230104D03*
X0102900Y0230104D03*
X0110400Y0230104D03*
X0115400Y0230104D03*
X0120400Y0230104D03*
X0125400Y0230104D03*
X0132900Y0230104D03*
X0137900Y0230104D03*
X0142900Y0230104D03*
X0147900Y0230104D03*
X0155400Y0230104D03*
X0160400Y0230104D03*
X0165400Y0230104D03*
X0170400Y0230104D03*
X0177900Y0230104D03*
X0182900Y0230104D03*
X0187900Y0230104D03*
X0192900Y0230104D03*
X0200400Y0230104D03*
X0205400Y0230104D03*
X0210400Y0230104D03*
X0215400Y0230104D03*
X0222900Y0230104D03*
X0227900Y0230104D03*
X0232900Y0230104D03*
X0237900Y0230104D03*
X0237900Y0252604D03*
X0232900Y0252604D03*
X0227900Y0252604D03*
X0222900Y0252604D03*
X0215400Y0252604D03*
X0210400Y0252604D03*
X0205400Y0252604D03*
X0200400Y0252604D03*
X0192900Y0252604D03*
X0187900Y0252604D03*
X0182900Y0252604D03*
X0177900Y0252604D03*
X0170400Y0252604D03*
X0165400Y0252604D03*
X0160400Y0252604D03*
X0155400Y0252604D03*
X0147900Y0252604D03*
X0142900Y0252604D03*
X0137900Y0252604D03*
X0132900Y0252604D03*
X0125400Y0252604D03*
X0120400Y0252604D03*
X0115400Y0252604D03*
X0110400Y0252604D03*
X0102900Y0252604D03*
X0097900Y0252604D03*
X0092900Y0252604D03*
X0087900Y0252604D03*
X0080400Y0252604D03*
X0075400Y0252604D03*
X0070400Y0252604D03*
X0065400Y0252604D03*
X0057900Y0252604D03*
X0052900Y0252604D03*
X0047900Y0252604D03*
X0042900Y0252604D03*
D11*
X0050400Y0245104D03*
X0072900Y0245104D03*
X0095400Y0245104D03*
X0117900Y0245104D03*
X0140400Y0245104D03*
X0162900Y0245104D03*
X0185400Y0245104D03*
X0207900Y0245104D03*
X0230400Y0245104D03*
X0230400Y0215104D03*
X0207900Y0215104D03*
X0185400Y0215104D03*
X0162900Y0215104D03*
X0140400Y0215104D03*
X0117900Y0215104D03*
X0095400Y0215104D03*
X0072900Y0215104D03*
X0050400Y0215104D03*
D12*
X0051025Y0188854D03*
X0051025Y0185729D03*
X0046650Y0185729D03*
X0046650Y0188854D03*
X0042275Y0188854D03*
X0042275Y0185729D03*
X0037900Y0185729D03*
X0037900Y0188854D03*
X0042900Y0175104D03*
X0047900Y0175104D03*
X0052900Y0175104D03*
X0057900Y0175104D03*
X0062900Y0175104D03*
X0067900Y0175104D03*
X0072900Y0175104D03*
X0077900Y0175104D03*
X0082900Y0175104D03*
X0087900Y0175104D03*
X0092900Y0175104D03*
X0097900Y0175104D03*
X0102900Y0175104D03*
X0110400Y0175104D03*
X0115400Y0175104D03*
X0120400Y0175104D03*
X0125400Y0175104D03*
X0130400Y0175104D03*
X0135400Y0175104D03*
X0140400Y0175104D03*
X0145400Y0175104D03*
X0150400Y0175104D03*
X0160400Y0175104D03*
X0165400Y0175104D03*
X0170400Y0175104D03*
X0173525Y0185729D03*
X0173525Y0188854D03*
X0177900Y0188854D03*
X0177900Y0185729D03*
X0182275Y0185729D03*
X0182275Y0188854D03*
X0186650Y0188854D03*
X0186650Y0185729D03*
X0191025Y0185729D03*
X0191025Y0188854D03*
X0199775Y0188854D03*
X0199775Y0185729D03*
X0204150Y0185729D03*
X0204150Y0188854D03*
X0208525Y0188854D03*
X0208525Y0185729D03*
X0212900Y0185729D03*
X0212900Y0188854D03*
X0221650Y0188854D03*
X0221650Y0185729D03*
X0226025Y0185729D03*
X0226025Y0188854D03*
X0230400Y0188854D03*
X0230400Y0185729D03*
X0234775Y0185729D03*
X0234775Y0188854D03*
X0243525Y0188854D03*
X0243525Y0185729D03*
X0247900Y0185729D03*
X0247900Y0188854D03*
X0237900Y0175104D03*
X0232900Y0175104D03*
X0227900Y0175104D03*
X0217900Y0175104D03*
X0212900Y0175104D03*
X0207900Y0175104D03*
X0202900Y0175104D03*
X0197900Y0175104D03*
X0192900Y0175104D03*
X0188525Y0175104D03*
X0184150Y0175104D03*
X0164775Y0185729D03*
X0164775Y0188854D03*
X0160400Y0188854D03*
X0160400Y0185729D03*
X0156025Y0185729D03*
X0156025Y0188854D03*
X0151650Y0188854D03*
X0151650Y0185729D03*
X0142900Y0185729D03*
X0142900Y0188854D03*
X0138525Y0188854D03*
X0138525Y0185729D03*
X0134150Y0185729D03*
X0134150Y0188854D03*
X0129775Y0188854D03*
X0129775Y0185729D03*
X0121025Y0185729D03*
X0121025Y0188854D03*
X0116650Y0188854D03*
X0116650Y0185729D03*
X0112275Y0185729D03*
X0112275Y0188854D03*
X0107900Y0188854D03*
X0107900Y0185729D03*
X0103525Y0185729D03*
X0103525Y0188854D03*
X0094775Y0188854D03*
X0094775Y0185729D03*
X0090400Y0185729D03*
X0090400Y0188854D03*
X0086025Y0188854D03*
X0086025Y0185729D03*
X0081650Y0185729D03*
X0081650Y0188854D03*
X0072900Y0188854D03*
X0072900Y0185729D03*
X0068525Y0185729D03*
X0068525Y0188854D03*
X0064150Y0188854D03*
X0064150Y0185729D03*
X0059775Y0185729D03*
X0059775Y0188854D03*
D13*
X0055400Y0056255D03*
X0046345Y0056255D03*
X0064455Y0056255D03*
D14*
X0055400Y0031452D03*
D15*
X0072900Y0034257D03*
X0072900Y0040950D03*
X0072900Y0046757D03*
X0072900Y0053450D03*
X0172275Y0051132D03*
X0172275Y0057825D03*
X0189150Y0057825D03*
X0189150Y0051132D03*
X0183747Y0044479D03*
X0177054Y0044479D03*
X0241650Y0037200D03*
X0241650Y0030507D03*
X0193525Y0126757D03*
X0193525Y0133450D03*
X0205804Y0128854D03*
X0212497Y0128854D03*
X0217900Y0128007D03*
X0222900Y0128007D03*
X0222900Y0134700D03*
X0217900Y0134700D03*
X0220400Y0140507D03*
X0225400Y0140507D03*
X0225400Y0147200D03*
X0220400Y0147200D03*
X0193747Y0143854D03*
X0187054Y0143854D03*
X0164775Y0141757D03*
X0159775Y0141757D03*
X0159775Y0148450D03*
X0164775Y0148450D03*
X0154775Y0133450D03*
X0144775Y0133450D03*
X0144775Y0126757D03*
X0154775Y0126757D03*
X0128122Y0144479D03*
X0121429Y0144479D03*
X0080622Y0141354D03*
X0073929Y0141354D03*
X0068122Y0141354D03*
X0061429Y0141354D03*
X0055622Y0143229D03*
X0048929Y0143229D03*
X0051247Y0149479D03*
X0044554Y0149479D03*
X0062054Y0160104D03*
X0068747Y0160104D03*
X0074150Y0130950D03*
X0074150Y0124257D03*
D16*
X0068122Y0131354D03*
X0068122Y0136354D03*
X0073929Y0136354D03*
X0080622Y0136354D03*
X0061429Y0136354D03*
X0061429Y0131354D03*
X0055622Y0133229D03*
X0048929Y0133229D03*
X0048929Y0138229D03*
X0055622Y0138229D03*
X0114775Y0149882D03*
X0114775Y0156575D03*
X0121429Y0139479D03*
X0121429Y0134479D03*
X0128122Y0134479D03*
X0128122Y0139479D03*
X0141025Y0150507D03*
X0141025Y0157200D03*
X0154775Y0147200D03*
X0154775Y0140507D03*
X0149775Y0133450D03*
X0149775Y0126757D03*
X0182275Y0148007D03*
X0182275Y0154700D03*
X0187054Y0138854D03*
X0193747Y0138854D03*
X0206650Y0150507D03*
X0215400Y0147200D03*
X0215400Y0140507D03*
X0206650Y0157200D03*
X0206025Y0075950D03*
X0206025Y0069257D03*
X0176025Y0070950D03*
X0176025Y0064257D03*
X0170622Y0037604D03*
X0170622Y0031979D03*
X0163929Y0031979D03*
X0163929Y0037604D03*
X0146247Y0031979D03*
X0139554Y0031979D03*
X0133747Y0031979D03*
X0127054Y0031979D03*
X0121247Y0031979D03*
X0121247Y0038229D03*
X0114554Y0038229D03*
X0114554Y0031979D03*
X0111025Y0044882D03*
X0111025Y0051575D03*
X0079150Y0040950D03*
X0079150Y0034257D03*
X0246650Y0037200D03*
X0246650Y0030507D03*
D17*
X0200681Y0148854D03*
X0198712Y0148854D03*
X0196744Y0148854D03*
X0194775Y0148854D03*
X0194775Y0154169D03*
X0196744Y0154169D03*
X0198712Y0154169D03*
X0200681Y0154169D03*
X0133806Y0154794D03*
X0131837Y0154794D03*
X0129869Y0154794D03*
X0127900Y0154794D03*
X0127900Y0149479D03*
X0129869Y0149479D03*
X0131837Y0149479D03*
X0133806Y0149479D03*
X0049209Y0153805D03*
X0049406Y0160498D03*
D18*
X0051965Y0160104D03*
X0051965Y0158135D03*
X0051965Y0156167D03*
X0051965Y0154198D03*
X0046650Y0154198D03*
X0046650Y0156167D03*
X0046650Y0158135D03*
X0046650Y0160104D03*
X0127506Y0152235D03*
X0134199Y0152038D03*
X0194381Y0151610D03*
X0201074Y0151413D03*
D19*
X0198520Y0141334D03*
X0198520Y0137594D03*
X0198520Y0133854D03*
X0209150Y0133854D03*
X0209150Y0137594D03*
X0209150Y0141334D03*
X0148525Y0141344D03*
X0148525Y0137604D03*
X0148525Y0145084D03*
X0137895Y0145084D03*
X0137895Y0141344D03*
X0137895Y0137604D03*
X0071025Y0146354D03*
X0071025Y0150094D03*
X0071025Y0153834D03*
X0060395Y0153834D03*
X0060395Y0150094D03*
X0060395Y0146354D03*
D20*
X0035400Y0031354D03*
X0035400Y0041354D03*
X0035400Y0051354D03*
X0035400Y0119479D03*
X0035400Y0129479D03*
X0035400Y0139479D03*
X0035400Y0197604D03*
X0035400Y0207604D03*
X0035400Y0217604D03*
X0245400Y0231354D03*
X0245400Y0241354D03*
X0245400Y0251354D03*
X0245400Y0173229D03*
X0245400Y0163229D03*
X0245400Y0153229D03*
X0245400Y0095104D03*
X0245400Y0085104D03*
X0245400Y0075104D03*
X0245400Y0065104D03*
X0245400Y0055104D03*
X0245400Y0045104D03*
D21*
X0162841Y0049090D03*
X0162841Y0051059D03*
X0162841Y0053027D03*
X0162841Y0054996D03*
X0162841Y0056964D03*
X0162841Y0058933D03*
X0162841Y0060901D03*
X0162841Y0062870D03*
X0162841Y0064838D03*
X0162841Y0066807D03*
X0162841Y0068775D03*
X0162841Y0070744D03*
X0162841Y0072712D03*
X0162841Y0074681D03*
X0162841Y0076649D03*
X0162841Y0078618D03*
X0117959Y0078618D03*
X0117959Y0076649D03*
X0117959Y0074681D03*
X0117959Y0072712D03*
X0117959Y0070744D03*
X0117959Y0068775D03*
X0117959Y0066807D03*
X0117959Y0064838D03*
X0117959Y0062870D03*
X0117959Y0060901D03*
X0117959Y0058933D03*
X0117959Y0056964D03*
X0117959Y0054996D03*
X0117959Y0053027D03*
X0117959Y0051059D03*
X0117959Y0049090D03*
D22*
X0125636Y0041413D03*
X0127605Y0041413D03*
X0129573Y0041413D03*
X0131542Y0041413D03*
X0133510Y0041413D03*
X0135479Y0041413D03*
X0137447Y0041413D03*
X0139416Y0041413D03*
X0141384Y0041413D03*
X0143353Y0041413D03*
X0145321Y0041413D03*
X0147290Y0041413D03*
X0149258Y0041413D03*
X0151227Y0041413D03*
X0153195Y0041413D03*
X0155164Y0041413D03*
X0155164Y0086295D03*
X0153195Y0086295D03*
X0151227Y0086295D03*
X0149258Y0086295D03*
X0147290Y0086295D03*
X0145321Y0086295D03*
X0143353Y0086295D03*
X0141384Y0086295D03*
X0139416Y0086295D03*
X0137447Y0086295D03*
X0135479Y0086295D03*
X0133510Y0086295D03*
X0131542Y0086295D03*
X0129573Y0086295D03*
X0127605Y0086295D03*
X0125636Y0086295D03*
D23*
X0104775Y0046634D03*
X0104775Y0034823D03*
X0085400Y0031698D03*
X0085400Y0043509D03*
D24*
X0188525Y0031979D03*
X0198525Y0031979D03*
X0208525Y0031979D03*
X0218525Y0031979D03*
X0228525Y0031979D03*
D25*
X0158353Y0031979D03*
X0158353Y0036354D03*
X0152447Y0036354D03*
X0152447Y0031979D03*
D26*
X0178333Y0048815D03*
X0182900Y0048815D03*
X0182900Y0058854D03*
X0178333Y0058854D03*
D27*
X0169150Y0185729D03*
X0169150Y0188229D03*
X0147275Y0188229D03*
X0147275Y0185729D03*
X0125400Y0185729D03*
X0125400Y0188229D03*
X0099150Y0188229D03*
X0099150Y0185729D03*
X0077275Y0185729D03*
X0077275Y0188229D03*
X0055400Y0188229D03*
X0055400Y0185729D03*
X0195400Y0185729D03*
X0195400Y0188229D03*
X0217275Y0188229D03*
X0217275Y0185729D03*
X0239150Y0185729D03*
X0239150Y0188229D03*
D28*
X0199150Y0074479D03*
X0199150Y0065817D03*
X0182615Y0065817D03*
X0182615Y0074479D03*
D29*
X0278400Y0163829D02*
X0278400Y0168629D01*
X0288400Y0168629D02*
X0288400Y0163829D01*
X0289150Y0179579D02*
X0289150Y0184379D01*
X0299150Y0184379D02*
X0299150Y0179579D01*
X0309150Y0179579D02*
X0309150Y0184379D01*
X0319150Y0184379D02*
X0319150Y0179579D01*
X0329150Y0179579D02*
X0329150Y0184379D01*
X0339150Y0184379D02*
X0339150Y0179579D01*
X0349150Y0179579D02*
X0349150Y0184379D01*
X0349150Y0209579D02*
X0349150Y0214379D01*
X0339150Y0214379D02*
X0339150Y0209579D01*
X0329150Y0209579D02*
X0329150Y0214379D01*
X0319150Y0214379D02*
X0319150Y0209579D01*
X0309150Y0209579D02*
X0309150Y0214379D01*
X0299150Y0214379D02*
X0299150Y0209579D01*
X0289150Y0209579D02*
X0289150Y0214379D01*
X0279150Y0214379D02*
X0279150Y0209579D01*
X0277650Y0225579D02*
X0277650Y0230379D01*
X0287650Y0230379D02*
X0287650Y0225579D01*
X0279150Y0184379D02*
X0279150Y0179579D01*
D30*
X0308400Y0162604D02*
X0308400Y0156604D01*
X0318400Y0156604D02*
X0318400Y0162604D01*
X0361150Y0170604D02*
X0367150Y0170604D01*
X0367150Y0180604D02*
X0361150Y0180604D01*
X0362650Y0195479D02*
X0362650Y0201479D01*
X0372650Y0201479D02*
X0372650Y0195479D01*
X0349025Y0227979D02*
X0349025Y0233979D01*
X0339025Y0233979D02*
X0339025Y0227979D01*
X0319150Y0228229D02*
X0319150Y0234229D01*
X0309150Y0234229D02*
X0309150Y0228229D01*
D31*
X0382275Y0239479D03*
X0382275Y0143229D03*
X0268525Y0143229D03*
D32*
X0182265Y0129479D03*
X0174785Y0129479D03*
X0174785Y0122604D03*
X0182265Y0122604D03*
D33*
X0112275Y0128239D03*
X0106025Y0121969D03*
X0106025Y0114489D03*
X0112275Y0135719D03*
X0034775Y0148239D03*
X0034775Y0155719D03*
D34*
X0034888Y0065729D03*
X0045912Y0065729D03*
D35*
X0062900Y0062281D03*
X0082900Y0048536D03*
X0082900Y0046036D03*
X0085400Y0046036D03*
X0087900Y0046036D03*
X0090400Y0046036D03*
X0092900Y0046036D03*
X0092900Y0048536D03*
X0090400Y0048536D03*
X0087900Y0048536D03*
X0085400Y0048536D03*
X0085400Y0043509D03*
X0094775Y0030411D03*
X0075400Y0029786D03*
X0064150Y0041036D03*
X0061650Y0041036D03*
X0059150Y0041036D03*
X0056650Y0041036D03*
X0054150Y0041036D03*
X0054150Y0043536D03*
X0056650Y0043536D03*
X0059150Y0043536D03*
X0061650Y0043536D03*
X0064150Y0043536D03*
X0090306Y0062509D03*
X0102752Y0070396D03*
X0106330Y0070396D03*
X0109908Y0070396D03*
X0127788Y0058771D03*
X0123410Y0057947D03*
X0122410Y0048536D03*
X0130400Y0048536D03*
X0132900Y0048536D03*
X0142447Y0058765D03*
X0146025Y0058765D03*
X0148247Y0064943D03*
X0154025Y0069783D03*
X0156650Y0065729D03*
X0140853Y0066543D03*
X0137275Y0066543D03*
X0133697Y0066543D03*
X0129150Y0081844D03*
X0119150Y0087286D03*
X0116650Y0087286D03*
X0106711Y0091979D03*
X0091979Y0090426D03*
X0090400Y0076661D03*
X0130120Y0091626D03*
X0133698Y0092448D03*
X0137056Y0090746D03*
X0156487Y0090714D03*
X0160996Y0087275D03*
X0170400Y0091354D03*
X0179040Y0097604D03*
X0182275Y0110179D03*
X0173525Y0114060D03*
X0181025Y0117762D03*
X0173008Y0122184D03*
X0164150Y0129882D03*
X0164150Y0136500D03*
X0169150Y0136757D03*
X0174528Y0134786D03*
X0179946Y0136956D03*
X0176207Y0144479D03*
X0177793Y0149733D03*
X0175014Y0153771D03*
X0186693Y0153753D03*
X0190271Y0153753D03*
X0198712Y0146333D03*
X0206650Y0150507D03*
X0219150Y0158034D03*
X0221179Y0155003D03*
X0226189Y0156190D03*
X0232275Y0158843D03*
X0241650Y0158229D03*
X0240590Y0148418D03*
X0239150Y0143450D03*
X0233525Y0137825D03*
X0239150Y0137382D03*
X0233525Y0131132D03*
X0230914Y0125078D03*
X0226040Y0122750D03*
X0234775Y0116073D03*
X0230400Y0110729D03*
X0212003Y0118849D03*
X0206025Y0118921D03*
X0204150Y0113671D03*
X0208525Y0110729D03*
X0189441Y0125540D03*
X0209150Y0137594D03*
X0214437Y0131358D03*
X0170229Y0143450D03*
X0155357Y0158490D03*
X0152183Y0156604D03*
X0150400Y0161612D03*
X0154150Y0171182D03*
X0173525Y0165668D03*
X0184054Y0168602D03*
X0186693Y0166180D03*
X0190271Y0164980D03*
X0207733Y0166979D03*
X0217900Y0161612D03*
X0223525Y0194513D03*
X0225400Y0197604D03*
X0225400Y0200104D03*
X0225400Y0202604D03*
X0225400Y0205104D03*
X0222900Y0205104D03*
X0222900Y0202604D03*
X0222900Y0200104D03*
X0227900Y0200104D03*
X0227900Y0202604D03*
X0227900Y0205104D03*
X0230400Y0205104D03*
X0232900Y0205104D03*
X0232900Y0202604D03*
X0230400Y0202604D03*
X0230400Y0200104D03*
X0232900Y0200104D03*
X0232900Y0197604D03*
X0230400Y0197604D03*
X0227900Y0197604D03*
X0215309Y0200104D03*
X0210400Y0200104D03*
X0210400Y0202604D03*
X0210400Y0205104D03*
X0207900Y0205104D03*
X0205400Y0205104D03*
X0202900Y0205104D03*
X0200400Y0205104D03*
X0200400Y0202604D03*
X0202900Y0202604D03*
X0205400Y0202604D03*
X0207900Y0202604D03*
X0207900Y0200104D03*
X0205400Y0200104D03*
X0202900Y0200104D03*
X0200400Y0200104D03*
X0200400Y0197604D03*
X0202900Y0197604D03*
X0205400Y0197604D03*
X0207900Y0197604D03*
X0210400Y0197604D03*
X0196387Y0201354D03*
X0187900Y0202604D03*
X0187900Y0205104D03*
X0185400Y0205104D03*
X0182900Y0205104D03*
X0180400Y0205104D03*
X0177900Y0205104D03*
X0177900Y0202604D03*
X0180400Y0202604D03*
X0182900Y0202604D03*
X0185400Y0202604D03*
X0185400Y0200104D03*
X0182900Y0200104D03*
X0180400Y0200104D03*
X0177900Y0200104D03*
X0177900Y0197604D03*
X0180400Y0197604D03*
X0182900Y0197604D03*
X0185400Y0197604D03*
X0187900Y0197604D03*
X0187900Y0200104D03*
X0170400Y0205104D03*
X0165400Y0205104D03*
X0162900Y0205104D03*
X0160400Y0205104D03*
X0157900Y0205104D03*
X0155400Y0205104D03*
X0155400Y0202604D03*
X0157900Y0202604D03*
X0160400Y0202604D03*
X0162900Y0202604D03*
X0165400Y0202604D03*
X0165400Y0200104D03*
X0162900Y0200104D03*
X0160400Y0200104D03*
X0157900Y0200104D03*
X0155400Y0200104D03*
X0155400Y0197604D03*
X0157900Y0197604D03*
X0160400Y0197604D03*
X0162900Y0197604D03*
X0165400Y0197604D03*
X0147789Y0200104D03*
X0142900Y0200104D03*
X0142900Y0202604D03*
X0142900Y0205104D03*
X0140400Y0205104D03*
X0137900Y0205104D03*
X0135400Y0205104D03*
X0132900Y0205104D03*
X0132900Y0202604D03*
X0135400Y0202604D03*
X0137900Y0202604D03*
X0140400Y0202604D03*
X0140400Y0200104D03*
X0137900Y0200104D03*
X0135400Y0200104D03*
X0132900Y0200104D03*
X0132900Y0197604D03*
X0135400Y0197604D03*
X0137900Y0197604D03*
X0140400Y0197604D03*
X0142900Y0197604D03*
X0129810Y0195477D03*
X0120400Y0197604D03*
X0120400Y0200104D03*
X0120400Y0202604D03*
X0120400Y0205104D03*
X0117900Y0205104D03*
X0115400Y0205104D03*
X0112900Y0205104D03*
X0110400Y0205104D03*
X0110400Y0202604D03*
X0112900Y0202604D03*
X0115400Y0202604D03*
X0117900Y0202604D03*
X0117900Y0200104D03*
X0115400Y0200104D03*
X0112900Y0200104D03*
X0110400Y0200104D03*
X0110400Y0197604D03*
X0112900Y0197604D03*
X0115400Y0197604D03*
X0117900Y0197604D03*
X0102900Y0205104D03*
X0097900Y0205104D03*
X0095400Y0205104D03*
X0092900Y0205104D03*
X0090400Y0205104D03*
X0087900Y0205104D03*
X0087900Y0202604D03*
X0090400Y0202604D03*
X0092900Y0202604D03*
X0095400Y0202604D03*
X0097900Y0202604D03*
X0097900Y0200104D03*
X0095400Y0200104D03*
X0092900Y0200104D03*
X0090400Y0200104D03*
X0087900Y0200104D03*
X0087900Y0197604D03*
X0090400Y0197604D03*
X0092900Y0197604D03*
X0095400Y0197604D03*
X0097900Y0197604D03*
X0080309Y0200104D03*
X0075400Y0200104D03*
X0075400Y0202604D03*
X0075400Y0205104D03*
X0072900Y0205104D03*
X0070400Y0205104D03*
X0067900Y0205104D03*
X0065400Y0205104D03*
X0065400Y0202604D03*
X0067900Y0202604D03*
X0070400Y0202604D03*
X0072900Y0202604D03*
X0072900Y0200104D03*
X0070400Y0200104D03*
X0067900Y0200104D03*
X0065400Y0200104D03*
X0065400Y0197604D03*
X0067900Y0197604D03*
X0070400Y0197604D03*
X0072900Y0197604D03*
X0075400Y0197604D03*
X0061711Y0200944D03*
X0052900Y0200104D03*
X0052900Y0202604D03*
X0052900Y0205104D03*
X0050400Y0205104D03*
X0047900Y0205104D03*
X0045400Y0205104D03*
X0042900Y0205104D03*
X0042900Y0202604D03*
X0045400Y0202604D03*
X0047900Y0202604D03*
X0050400Y0202604D03*
X0050400Y0200104D03*
X0047900Y0200104D03*
X0045400Y0200104D03*
X0042900Y0200104D03*
X0042900Y0197604D03*
X0045400Y0197604D03*
X0047900Y0197604D03*
X0050400Y0197604D03*
X0052900Y0197604D03*
X0037900Y0192750D03*
X0065400Y0168733D03*
X0050733Y0165830D03*
X0041650Y0164740D03*
X0034775Y0155719D03*
X0044803Y0143425D03*
X0056150Y0151784D03*
X0071025Y0150094D03*
X0068122Y0141354D03*
X0080622Y0136354D03*
X0086709Y0128699D03*
X0083483Y0126740D03*
X0076867Y0118985D03*
X0070889Y0118913D03*
X0068525Y0111779D03*
X0064150Y0110729D03*
X0056671Y0121325D03*
X0042990Y0111354D03*
X0039040Y0097604D03*
X0090400Y0110729D03*
X0094775Y0110729D03*
X0112889Y0110729D03*
X0113747Y0118229D03*
X0113868Y0123286D03*
X0123971Y0125540D03*
X0134835Y0131558D03*
X0139896Y0131558D03*
X0138461Y0118985D03*
X0144439Y0118889D03*
X0138525Y0110729D03*
X0134150Y0110729D03*
X0160400Y0110729D03*
X0164775Y0110729D03*
X0160939Y0123828D03*
X0148525Y0141344D03*
X0141025Y0150507D03*
X0127287Y0149238D03*
X0123971Y0156634D03*
X0120608Y0158331D03*
X0128609Y0166390D03*
X0123011Y0167309D03*
X0118433Y0168509D03*
X0106650Y0171354D03*
X0088267Y0168733D03*
X0082178Y0159224D03*
X0083483Y0155646D03*
X0086650Y0153753D03*
X0081810Y0149475D03*
X0093525Y0157336D03*
X0101650Y0145325D03*
X0107679Y0144479D03*
X0101650Y0138632D03*
X0096650Y0137200D03*
X0096650Y0130507D03*
X0113971Y0137294D03*
X0109150Y0151132D03*
X0109150Y0157336D03*
X0110400Y0218854D03*
X0110400Y0221354D03*
X0110400Y0223854D03*
X0110400Y0226354D03*
X0112900Y0226354D03*
X0115400Y0226354D03*
X0117900Y0226354D03*
X0120400Y0226354D03*
X0120400Y0223854D03*
X0117900Y0223854D03*
X0115400Y0223854D03*
X0112900Y0223854D03*
X0112900Y0221354D03*
X0115400Y0221354D03*
X0117900Y0221354D03*
X0120400Y0221354D03*
X0120400Y0218854D03*
X0117900Y0218854D03*
X0115400Y0218854D03*
X0112900Y0218854D03*
X0097900Y0223229D03*
X0097900Y0225729D03*
X0097900Y0228229D03*
X0097900Y0230729D03*
X0095400Y0230729D03*
X0092900Y0230729D03*
X0090400Y0230729D03*
X0087900Y0230729D03*
X0087900Y0228229D03*
X0090400Y0228229D03*
X0092900Y0228229D03*
X0095400Y0228229D03*
X0095400Y0225729D03*
X0092900Y0225729D03*
X0090400Y0225729D03*
X0087900Y0225729D03*
X0087900Y0223229D03*
X0090400Y0223229D03*
X0092900Y0223229D03*
X0095400Y0223229D03*
X0075400Y0223229D03*
X0075400Y0225729D03*
X0075400Y0228229D03*
X0075400Y0230729D03*
X0072900Y0230729D03*
X0070400Y0230729D03*
X0067900Y0230729D03*
X0065400Y0230729D03*
X0065400Y0228229D03*
X0067900Y0228229D03*
X0070400Y0228229D03*
X0072900Y0228229D03*
X0072900Y0225729D03*
X0070400Y0225729D03*
X0067900Y0225729D03*
X0065400Y0225729D03*
X0065400Y0223229D03*
X0067900Y0223229D03*
X0070400Y0223229D03*
X0072900Y0223229D03*
X0076650Y0235515D03*
X0052900Y0226354D03*
X0050400Y0226354D03*
X0047900Y0226354D03*
X0045400Y0226354D03*
X0042900Y0226354D03*
X0042900Y0223854D03*
X0045400Y0223854D03*
X0047900Y0223854D03*
X0050400Y0223854D03*
X0052900Y0223854D03*
X0052900Y0221354D03*
X0050400Y0221354D03*
X0047900Y0221354D03*
X0045400Y0221354D03*
X0042900Y0221354D03*
X0042900Y0218854D03*
X0045400Y0218854D03*
X0047900Y0218854D03*
X0050400Y0218854D03*
X0052900Y0218854D03*
X0039411Y0227604D03*
X0132900Y0228229D03*
X0132900Y0230729D03*
X0135400Y0230729D03*
X0137900Y0230729D03*
X0140400Y0230729D03*
X0142900Y0230729D03*
X0142900Y0228229D03*
X0140400Y0228229D03*
X0137900Y0228229D03*
X0135400Y0228229D03*
X0135400Y0225729D03*
X0132900Y0225729D03*
X0132900Y0223229D03*
X0135400Y0223229D03*
X0137900Y0223229D03*
X0137900Y0225729D03*
X0140400Y0225729D03*
X0142900Y0225729D03*
X0142900Y0223229D03*
X0140400Y0223229D03*
X0155400Y0223854D03*
X0155400Y0226354D03*
X0155400Y0228854D03*
X0155400Y0231354D03*
X0157900Y0231354D03*
X0160400Y0231354D03*
X0162900Y0231354D03*
X0165400Y0231354D03*
X0165400Y0228854D03*
X0162900Y0228854D03*
X0160400Y0228854D03*
X0157900Y0228854D03*
X0157900Y0226354D03*
X0160400Y0226354D03*
X0162900Y0226354D03*
X0165400Y0226354D03*
X0165400Y0223854D03*
X0162900Y0223854D03*
X0160400Y0223854D03*
X0157900Y0223854D03*
X0177900Y0223854D03*
X0177900Y0226354D03*
X0180400Y0226354D03*
X0182900Y0226354D03*
X0185400Y0226354D03*
X0187900Y0226354D03*
X0187900Y0223854D03*
X0185400Y0223854D03*
X0182900Y0223854D03*
X0180400Y0223854D03*
X0180400Y0221354D03*
X0177900Y0221354D03*
X0177900Y0218854D03*
X0180400Y0218854D03*
X0182900Y0218854D03*
X0182900Y0221354D03*
X0185400Y0221354D03*
X0187900Y0221354D03*
X0187900Y0218854D03*
X0185400Y0218854D03*
X0200400Y0223854D03*
X0200400Y0226354D03*
X0200400Y0228854D03*
X0200400Y0231354D03*
X0202900Y0231354D03*
X0205400Y0231354D03*
X0207900Y0231354D03*
X0210400Y0231354D03*
X0210400Y0228854D03*
X0207900Y0228854D03*
X0205400Y0228854D03*
X0202900Y0228854D03*
X0202900Y0226354D03*
X0205400Y0226354D03*
X0207900Y0226354D03*
X0210400Y0226354D03*
X0210400Y0223854D03*
X0207900Y0223854D03*
X0205400Y0223854D03*
X0202900Y0223854D03*
X0207275Y0235515D03*
X0222900Y0231354D03*
X0225400Y0231354D03*
X0227900Y0231354D03*
X0230400Y0231354D03*
X0232900Y0231354D03*
X0232900Y0228854D03*
X0230400Y0228854D03*
X0227900Y0228854D03*
X0225400Y0228854D03*
X0222900Y0228854D03*
X0222900Y0226354D03*
X0225400Y0226354D03*
X0227900Y0226354D03*
X0230400Y0226354D03*
X0232900Y0226354D03*
X0232900Y0223854D03*
X0230400Y0223854D03*
X0227900Y0223854D03*
X0225400Y0223854D03*
X0222900Y0223854D03*
X0222900Y0216560D03*
X0239039Y0205104D03*
X0236650Y0235104D03*
X0141025Y0235515D03*
X0238525Y0087225D03*
X0212900Y0079479D03*
X0210400Y0079479D03*
X0207900Y0079479D03*
X0205400Y0079479D03*
X0205400Y0076979D03*
X0202900Y0076979D03*
X0207900Y0076979D03*
X0210400Y0076979D03*
X0212900Y0076979D03*
X0229506Y0064307D03*
X0229506Y0060729D03*
X0212900Y0048536D03*
X0212900Y0046036D03*
X0210400Y0046036D03*
X0207900Y0046036D03*
X0205400Y0046036D03*
X0202900Y0046036D03*
X0202900Y0048536D03*
X0205400Y0048536D03*
X0207900Y0048536D03*
X0210400Y0048536D03*
X0223525Y0037983D03*
X0208525Y0031979D03*
X0188525Y0029479D03*
X0183636Y0044590D03*
X0165252Y0042752D03*
X0193204Y0059165D03*
X0162174Y0081297D03*
X0237275Y0037983D03*
X0240511Y0031585D03*
X0246650Y0030507D03*
D36*
X0237900Y0100104D03*
X0232900Y0100104D03*
X0234775Y0104479D03*
X0230400Y0104479D03*
X0226025Y0104479D03*
X0221650Y0104479D03*
X0217275Y0104479D03*
X0212900Y0104479D03*
X0208525Y0104479D03*
X0204150Y0104479D03*
X0199775Y0104479D03*
X0195400Y0104479D03*
X0191025Y0104479D03*
X0186650Y0104479D03*
X0182275Y0104479D03*
X0177900Y0104479D03*
X0173525Y0104479D03*
X0169150Y0104479D03*
X0164775Y0104479D03*
X0160400Y0104479D03*
X0156025Y0104479D03*
X0151650Y0104479D03*
X0147275Y0104479D03*
X0142900Y0104479D03*
X0138525Y0104479D03*
X0134150Y0104479D03*
X0129775Y0104479D03*
X0125400Y0104479D03*
X0121025Y0104479D03*
X0116650Y0104479D03*
X0112275Y0104479D03*
X0107900Y0104479D03*
X0103525Y0104479D03*
X0099150Y0104479D03*
X0094775Y0104479D03*
X0090400Y0104479D03*
X0086025Y0104479D03*
X0081650Y0104479D03*
X0077275Y0104479D03*
X0072900Y0104479D03*
X0068525Y0104479D03*
X0064150Y0104479D03*
X0059775Y0104479D03*
X0055400Y0104479D03*
X0051025Y0104479D03*
X0046650Y0104479D03*
X0042275Y0104479D03*
X0037900Y0104479D03*
X0042900Y0100104D03*
X0047900Y0100104D03*
X0052900Y0100104D03*
X0057900Y0100104D03*
X0062900Y0100104D03*
X0067900Y0100104D03*
X0072900Y0100104D03*
X0077900Y0100104D03*
X0082900Y0100104D03*
X0087900Y0100104D03*
X0092900Y0100104D03*
X0097900Y0100104D03*
X0102900Y0100104D03*
X0110400Y0100104D03*
X0115400Y0100104D03*
X0120400Y0100104D03*
X0125400Y0100104D03*
X0130400Y0100104D03*
X0135400Y0100104D03*
X0140400Y0100104D03*
X0145400Y0100104D03*
X0150400Y0100104D03*
X0160400Y0100104D03*
X0165400Y0100104D03*
X0170400Y0100104D03*
X0182900Y0100104D03*
X0187900Y0100104D03*
X0192900Y0100104D03*
X0197900Y0100104D03*
X0202900Y0100104D03*
X0207900Y0100104D03*
X0212900Y0100104D03*
X0217900Y0100104D03*
X0227900Y0100104D03*
X0239150Y0104479D03*
X0243525Y0104479D03*
X0247900Y0104479D03*
X0237900Y0178229D03*
X0232900Y0178229D03*
X0234775Y0182604D03*
X0230400Y0182604D03*
X0226025Y0182604D03*
X0221650Y0182604D03*
X0217275Y0182604D03*
X0212900Y0182604D03*
X0208525Y0182604D03*
X0204150Y0182604D03*
X0199775Y0182604D03*
X0195400Y0182604D03*
X0191025Y0182604D03*
X0186650Y0182604D03*
X0182275Y0182604D03*
X0177900Y0182604D03*
X0173525Y0182604D03*
X0169150Y0182604D03*
X0164775Y0182604D03*
X0160400Y0182604D03*
X0156025Y0182604D03*
X0151650Y0182604D03*
X0147275Y0182604D03*
X0142900Y0182604D03*
X0138525Y0182604D03*
X0134150Y0182604D03*
X0129775Y0182604D03*
X0125400Y0182604D03*
X0121025Y0182604D03*
X0116650Y0182604D03*
X0112275Y0182604D03*
X0107900Y0182604D03*
X0103525Y0182604D03*
X0099150Y0182604D03*
X0094775Y0182604D03*
X0090400Y0182604D03*
X0086025Y0182604D03*
X0081650Y0182604D03*
X0077275Y0182604D03*
X0072900Y0182604D03*
X0068525Y0182604D03*
X0064150Y0182604D03*
X0059775Y0182604D03*
X0055400Y0182604D03*
X0051025Y0182604D03*
X0046650Y0182604D03*
X0042275Y0182604D03*
X0037900Y0182604D03*
X0042900Y0178229D03*
X0047900Y0178229D03*
X0052900Y0178229D03*
X0057900Y0178229D03*
X0062900Y0178229D03*
X0067900Y0178229D03*
X0072900Y0178229D03*
X0077900Y0178229D03*
X0082900Y0178229D03*
X0087900Y0178229D03*
X0092900Y0178229D03*
X0097900Y0178229D03*
X0102900Y0178229D03*
X0110400Y0178229D03*
X0115400Y0178229D03*
X0120400Y0178229D03*
X0125400Y0178229D03*
X0130400Y0178229D03*
X0135400Y0178229D03*
X0140400Y0178229D03*
X0145400Y0178229D03*
X0150400Y0178229D03*
X0160400Y0178229D03*
X0165400Y0178229D03*
X0170400Y0178229D03*
X0184150Y0178229D03*
X0188525Y0178229D03*
X0192900Y0178229D03*
X0197900Y0178229D03*
X0202900Y0178229D03*
X0207900Y0178229D03*
X0212900Y0178229D03*
X0217900Y0178229D03*
X0227900Y0178229D03*
X0239150Y0182604D03*
X0243525Y0182604D03*
X0247900Y0182604D03*
D37*
X0241650Y0200729D03*
M02*
