G04 EAGLE Gerber RS-274X export*
G75*
%MOMM*%
%FSLAX34Y34*%
%LPD*%
%INSolderpaste Bottom*%
%IPPOS*%
%AMOC8*
5,1,8,0,0,1.08239X$1,22.5*%
G01*
%ADD10R,3.200000X1.800000*%
%ADD11R,1.500000X1.300000*%
%ADD12R,0.600000X0.700000*%
%ADD13R,0.700000X0.600000*%
%ADD14R,2.540000X5.080000*%
%ADD15R,1.000000X1.100000*%
%ADD16R,0.228600X1.143000*%
%ADD17R,1.143000X0.228600*%
%ADD18R,5.170000X5.170000*%
%ADD19R,1.000000X0.550000*%
%ADD20R,0.220000X0.660000*%
%ADD21R,0.350000X0.440000*%
%ADD22R,0.220000X0.475000*%
%ADD23R,0.320000X0.650000*%
%ADD24R,1.800000X1.600000*%
%ADD25R,2.500000X3.500000*%


D10*
X245491Y299844D03*
X245491Y243844D03*
X365633Y299844D03*
X365633Y243844D03*
D11*
X374079Y122848D03*
X374079Y103848D03*
X374079Y135852D03*
X374079Y154852D03*
D12*
X360092Y130239D03*
X350092Y130239D03*
X360092Y140589D03*
X350092Y140589D03*
D13*
X251270Y94980D03*
X251270Y84980D03*
X356045Y106697D03*
X356045Y116697D03*
D12*
X352696Y157861D03*
X362696Y157861D03*
X332566Y84392D03*
X342566Y84392D03*
X261604Y162560D03*
X251604Y162560D03*
X251604Y171006D03*
X261604Y171006D03*
D14*
X250444Y345885D03*
X305562Y345885D03*
X360680Y345885D03*
D15*
X372927Y90932D03*
X355927Y90932D03*
D16*
X325501Y85027D03*
X320501Y85027D03*
X315501Y85027D03*
X310501Y85027D03*
X305501Y85027D03*
X300501Y85027D03*
X295501Y85027D03*
X290501Y85027D03*
X285501Y85027D03*
X280501Y85027D03*
X275501Y85027D03*
X270501Y85027D03*
X325501Y170027D03*
X320501Y170027D03*
X315501Y170027D03*
X310501Y170027D03*
X305501Y170027D03*
X300501Y170027D03*
X295501Y170027D03*
X290501Y170027D03*
X285501Y170027D03*
X280501Y170027D03*
X275501Y170027D03*
X270501Y170027D03*
D17*
X255501Y155027D03*
X255501Y150027D03*
X255501Y145027D03*
X255501Y140027D03*
X255501Y135027D03*
X255501Y130027D03*
X255501Y125027D03*
X255501Y120027D03*
X255501Y115027D03*
X255501Y110027D03*
X255501Y105027D03*
X255501Y100027D03*
X340501Y155027D03*
X340501Y150027D03*
X340501Y145027D03*
X340501Y140027D03*
X340501Y135027D03*
X340501Y130027D03*
X340501Y125027D03*
X340501Y120027D03*
X340501Y115027D03*
X340501Y110027D03*
X340501Y105027D03*
X340501Y100027D03*
D18*
X298001Y127527D03*
D19*
X235776Y181674D03*
X235776Y191174D03*
X235776Y200674D03*
X262776Y181674D03*
X262776Y191174D03*
X262776Y200674D03*
D20*
X323533Y259906D03*
X319533Y259906D03*
X315533Y259906D03*
X311533Y259906D03*
X307533Y259906D03*
X303533Y259906D03*
X299533Y259906D03*
X295533Y259906D03*
X291533Y259906D03*
X287533Y259906D03*
X323533Y246106D03*
X319533Y246106D03*
X315533Y246106D03*
X311533Y246106D03*
X307533Y246106D03*
X303533Y246106D03*
X299533Y246106D03*
X295533Y246106D03*
X291533Y246106D03*
X287533Y246106D03*
D21*
X333033Y253006D03*
X278033Y253006D03*
D22*
X323596Y200914D03*
X319596Y200914D03*
X315596Y200914D03*
X311596Y200914D03*
X307596Y200914D03*
X303596Y200914D03*
X299596Y200914D03*
X295596Y200914D03*
X291596Y200914D03*
X287596Y200914D03*
X323596Y179014D03*
X319596Y179014D03*
X315596Y179014D03*
X311596Y179014D03*
X307596Y179014D03*
X303596Y179014D03*
X299596Y179014D03*
X295596Y179014D03*
X291596Y179014D03*
X287596Y179014D03*
D23*
X333096Y199914D03*
X278096Y199914D03*
X333096Y179914D03*
X278096Y179914D03*
D24*
X237871Y124046D03*
X237871Y96046D03*
X237871Y140051D03*
X237871Y168051D03*
X355283Y170277D03*
X355283Y198277D03*
X373253Y170277D03*
X373253Y198277D03*
D25*
X91059Y353302D03*
X91059Y288302D03*
X520129Y353302D03*
X520129Y288302D03*
X177038Y353302D03*
X177038Y288302D03*
X434086Y353302D03*
X434086Y288302D03*
X177038Y187909D03*
X177038Y252909D03*
X434086Y187909D03*
X434086Y252909D03*
X434086Y152388D03*
X434086Y87388D03*
X520129Y188353D03*
X520129Y253353D03*
X90996Y187909D03*
X90996Y252909D03*
X177038Y152452D03*
X177038Y87452D03*
M02*
