G04 EAGLE Gerber RS-274X export*
G75*
%MOMM*%
%FSLAX34Y34*%
%LPD*%
%INTop Copper*%
%IPPOS*%
%AMOC8*
5,1,8,0,0,1.08239X$1,22.5*%
G01*
%ADD10C,0.101600*%
%ADD11R,1.000000X1.100000*%
%ADD12R,1.100000X1.000000*%
%ADD13R,0.300000X1.500000*%
%ADD14R,1.500000X0.300000*%
%ADD15R,5.170000X5.170000*%
%ADD16R,0.710000X1.372000*%
%ADD17R,0.710000X0.686000*%
%ADD18R,4.520000X3.800000*%
%ADD19R,0.550000X0.600000*%
%ADD20R,0.240000X0.600000*%
%ADD21R,0.450000X0.600000*%
%ADD22R,0.800000X0.800000*%
%ADD23C,0.454000*%
%ADD24C,0.088900*%
%ADD25C,0.203200*%
%ADD26R,1.500000X1.500000*%
%ADD27R,0.704000X0.704000*%
%ADD28C,0.609600*%
%ADD29C,0.152400*%
%ADD30C,1.270000*%
%ADD31C,1.016000*%
%ADD32C,1.500000*%

G36*
X254020Y-13458D02*
X254020Y-13458D01*
X254039Y-13460D01*
X254141Y-13438D01*
X254243Y-13422D01*
X254260Y-13412D01*
X254280Y-13408D01*
X254369Y-13355D01*
X254460Y-13306D01*
X254474Y-13292D01*
X254491Y-13282D01*
X254558Y-13203D01*
X254630Y-13128D01*
X254638Y-13110D01*
X254651Y-13095D01*
X254690Y-12999D01*
X254733Y-12905D01*
X254735Y-12885D01*
X254743Y-12867D01*
X254761Y-12700D01*
X254761Y469900D01*
X254758Y469920D01*
X254760Y469939D01*
X254738Y470041D01*
X254722Y470143D01*
X254712Y470160D01*
X254708Y470180D01*
X254655Y470269D01*
X254606Y470360D01*
X254592Y470374D01*
X254582Y470391D01*
X254503Y470458D01*
X254428Y470530D01*
X254410Y470538D01*
X254395Y470551D01*
X254299Y470590D01*
X254205Y470633D01*
X254185Y470635D01*
X254167Y470643D01*
X254000Y470661D01*
X-12700Y470661D01*
X-12720Y470658D01*
X-12739Y470660D01*
X-12841Y470638D01*
X-12943Y470622D01*
X-12960Y470612D01*
X-12980Y470608D01*
X-13069Y470555D01*
X-13160Y470506D01*
X-13174Y470492D01*
X-13191Y470482D01*
X-13258Y470403D01*
X-13330Y470328D01*
X-13338Y470310D01*
X-13351Y470295D01*
X-13390Y470199D01*
X-13433Y470105D01*
X-13435Y470085D01*
X-13443Y470067D01*
X-13461Y469900D01*
X-13461Y-12700D01*
X-13458Y-12720D01*
X-13460Y-12739D01*
X-13438Y-12841D01*
X-13422Y-12943D01*
X-13412Y-12960D01*
X-13408Y-12980D01*
X-13355Y-13069D01*
X-13306Y-13160D01*
X-13292Y-13174D01*
X-13282Y-13191D01*
X-13203Y-13258D01*
X-13128Y-13330D01*
X-13110Y-13338D01*
X-13095Y-13351D01*
X-12999Y-13390D01*
X-12905Y-13433D01*
X-12885Y-13435D01*
X-12867Y-13443D01*
X-12700Y-13461D01*
X254000Y-13461D01*
X254020Y-13458D01*
G37*
%LPC*%
G36*
X151384Y266100D02*
X151384Y266100D01*
X151264Y266220D01*
X151190Y266273D01*
X151120Y266333D01*
X151090Y266345D01*
X151064Y266364D01*
X150977Y266391D01*
X150892Y266425D01*
X150851Y266429D01*
X150829Y266436D01*
X150797Y266435D01*
X150725Y266443D01*
X145131Y266443D01*
X143642Y267932D01*
X143642Y276275D01*
X143639Y276295D01*
X143641Y276314D01*
X143619Y276416D01*
X143603Y276518D01*
X143593Y276535D01*
X143589Y276555D01*
X143536Y276644D01*
X143487Y276735D01*
X143473Y276749D01*
X143463Y276766D01*
X143384Y276833D01*
X143309Y276905D01*
X143291Y276913D01*
X143276Y276926D01*
X143180Y276965D01*
X143086Y277008D01*
X143066Y277010D01*
X143048Y277018D01*
X142881Y277036D01*
X142488Y277036D01*
X142468Y277033D01*
X142449Y277035D01*
X142347Y277013D01*
X142245Y276997D01*
X142228Y276987D01*
X142208Y276983D01*
X142119Y276930D01*
X142028Y276881D01*
X142014Y276867D01*
X141997Y276857D01*
X141930Y276778D01*
X141858Y276703D01*
X141850Y276685D01*
X141837Y276670D01*
X141798Y276574D01*
X141755Y276480D01*
X141753Y276460D01*
X141745Y276442D01*
X141727Y276275D01*
X141727Y271362D01*
X140238Y269873D01*
X131034Y269873D01*
X130253Y270654D01*
X130179Y270707D01*
X130109Y270767D01*
X130079Y270779D01*
X130053Y270798D01*
X129966Y270825D01*
X129881Y270859D01*
X129840Y270863D01*
X129818Y270870D01*
X129786Y270869D01*
X129714Y270877D01*
X128946Y270877D01*
X127786Y272037D01*
X127728Y272079D01*
X127676Y272129D01*
X127629Y272150D01*
X127587Y272181D01*
X127518Y272202D01*
X127453Y272232D01*
X127401Y272238D01*
X127351Y272253D01*
X127280Y272251D01*
X127209Y272259D01*
X127158Y272248D01*
X127106Y272247D01*
X127038Y272222D01*
X126968Y272207D01*
X126923Y272180D01*
X126875Y272162D01*
X126819Y272118D01*
X126757Y272081D01*
X126723Y272041D01*
X126683Y272009D01*
X126644Y271948D01*
X126597Y271894D01*
X126578Y271846D01*
X126550Y271802D01*
X126532Y271732D01*
X126505Y271666D01*
X126497Y271594D01*
X126489Y271563D01*
X126491Y271540D01*
X126487Y271499D01*
X126487Y268984D01*
X126486Y268983D01*
X124459Y268983D01*
X124459Y275082D01*
X124458Y275090D01*
X124458Y275092D01*
X124456Y275102D01*
X124458Y275121D01*
X124436Y275223D01*
X124419Y275325D01*
X124410Y275342D01*
X124406Y275362D01*
X124353Y275451D01*
X124304Y275542D01*
X124290Y275556D01*
X124280Y275573D01*
X124201Y275640D01*
X124126Y275711D01*
X124108Y275720D01*
X124093Y275733D01*
X123997Y275772D01*
X123903Y275815D01*
X123883Y275817D01*
X123865Y275825D01*
X123698Y275843D01*
X122935Y275843D01*
X122935Y275845D01*
X123698Y275845D01*
X123718Y275848D01*
X123737Y275846D01*
X123839Y275868D01*
X123941Y275885D01*
X123958Y275894D01*
X123978Y275898D01*
X124067Y275951D01*
X124158Y276000D01*
X124172Y276014D01*
X124189Y276024D01*
X124256Y276103D01*
X124327Y276178D01*
X124336Y276196D01*
X124349Y276211D01*
X124388Y276307D01*
X124431Y276401D01*
X124433Y276421D01*
X124441Y276439D01*
X124459Y276606D01*
X124459Y282705D01*
X126486Y282705D01*
X126487Y282704D01*
X126487Y279877D01*
X126498Y279806D01*
X126500Y279735D01*
X126518Y279686D01*
X126526Y279634D01*
X126560Y279571D01*
X126585Y279504D01*
X126617Y279463D01*
X126642Y279417D01*
X126694Y279367D01*
X126738Y279311D01*
X126782Y279283D01*
X126820Y279247D01*
X126885Y279217D01*
X126945Y279178D01*
X126996Y279166D01*
X127043Y279144D01*
X127114Y279136D01*
X127184Y279118D01*
X127236Y279122D01*
X127287Y279117D01*
X127358Y279132D01*
X127429Y279138D01*
X127477Y279158D01*
X127528Y279169D01*
X127589Y279206D01*
X127655Y279234D01*
X127711Y279279D01*
X127739Y279295D01*
X127754Y279313D01*
X127786Y279339D01*
X128946Y280499D01*
X129402Y280499D01*
X129492Y280513D01*
X129583Y280521D01*
X129613Y280533D01*
X129645Y280538D01*
X129726Y280581D01*
X129810Y280617D01*
X129842Y280643D01*
X129862Y280654D01*
X129885Y280677D01*
X129941Y280722D01*
X131034Y281815D01*
X137192Y281815D01*
X137212Y281818D01*
X137231Y281816D01*
X137333Y281838D01*
X137435Y281854D01*
X137452Y281864D01*
X137472Y281868D01*
X137561Y281921D01*
X137652Y281970D01*
X137666Y281984D01*
X137683Y281994D01*
X137750Y282073D01*
X137822Y282148D01*
X137830Y282166D01*
X137843Y282181D01*
X137882Y282277D01*
X137925Y282371D01*
X137927Y282391D01*
X137935Y282409D01*
X137953Y282576D01*
X137953Y283840D01*
X139532Y285419D01*
X139574Y285477D01*
X139624Y285529D01*
X139645Y285576D01*
X139676Y285618D01*
X139697Y285687D01*
X139727Y285752D01*
X139733Y285804D01*
X139748Y285854D01*
X139746Y285925D01*
X139754Y285996D01*
X139743Y286047D01*
X139742Y286099D01*
X139717Y286167D01*
X139702Y286237D01*
X139675Y286282D01*
X139657Y286330D01*
X139613Y286386D01*
X139576Y286448D01*
X139536Y286482D01*
X139504Y286522D01*
X139443Y286561D01*
X139389Y286608D01*
X139341Y286627D01*
X139297Y286655D01*
X139227Y286673D01*
X139161Y286700D01*
X139089Y286708D01*
X139058Y286716D01*
X139035Y286714D01*
X138994Y286718D01*
X137248Y286718D01*
X134430Y289536D01*
X134430Y291148D01*
X134427Y291167D01*
X134429Y291187D01*
X134407Y291288D01*
X134391Y291390D01*
X134381Y291408D01*
X134377Y291427D01*
X134324Y291516D01*
X134275Y291608D01*
X134261Y291621D01*
X134251Y291638D01*
X134172Y291706D01*
X134097Y291777D01*
X134079Y291785D01*
X134064Y291798D01*
X133968Y291837D01*
X133874Y291881D01*
X133854Y291883D01*
X133836Y291890D01*
X133669Y291909D01*
X91807Y291909D01*
X91787Y291906D01*
X91768Y291908D01*
X91666Y291886D01*
X91564Y291869D01*
X91547Y291860D01*
X91527Y291855D01*
X91438Y291802D01*
X91347Y291754D01*
X91333Y291740D01*
X91316Y291729D01*
X91249Y291651D01*
X91177Y291576D01*
X91169Y291558D01*
X91156Y291542D01*
X91117Y291446D01*
X91074Y291353D01*
X91072Y291333D01*
X91064Y291314D01*
X91046Y291148D01*
X91046Y289792D01*
X88228Y286974D01*
X84242Y286974D01*
X81424Y289792D01*
X81424Y291148D01*
X81421Y291167D01*
X81423Y291187D01*
X81401Y291288D01*
X81385Y291390D01*
X81375Y291408D01*
X81371Y291427D01*
X81318Y291516D01*
X81269Y291608D01*
X81255Y291621D01*
X81245Y291638D01*
X81166Y291706D01*
X81091Y291777D01*
X81073Y291785D01*
X81058Y291798D01*
X80962Y291837D01*
X80868Y291881D01*
X80848Y291883D01*
X80830Y291890D01*
X80663Y291909D01*
X77561Y291909D01*
X77541Y291906D01*
X77522Y291908D01*
X77420Y291886D01*
X77318Y291869D01*
X77301Y291860D01*
X77281Y291855D01*
X77192Y291802D01*
X77101Y291754D01*
X77087Y291740D01*
X77070Y291729D01*
X77003Y291651D01*
X76931Y291576D01*
X76923Y291558D01*
X76910Y291542D01*
X76871Y291446D01*
X76828Y291353D01*
X76826Y291333D01*
X76818Y291314D01*
X76800Y291148D01*
X76800Y284102D01*
X76815Y284011D01*
X76822Y283920D01*
X76830Y283901D01*
X76830Y281646D01*
X76841Y281575D01*
X76843Y281503D01*
X76861Y281454D01*
X76869Y281403D01*
X76903Y281340D01*
X76928Y281272D01*
X76960Y281232D01*
X76985Y281186D01*
X77037Y281136D01*
X77081Y281080D01*
X77125Y281052D01*
X77163Y281016D01*
X77228Y280986D01*
X77288Y280947D01*
X77339Y280934D01*
X77386Y280913D01*
X77457Y280905D01*
X77527Y280887D01*
X77579Y280891D01*
X77630Y280885D01*
X77701Y280901D01*
X77772Y280906D01*
X77820Y280927D01*
X77871Y280938D01*
X77932Y280975D01*
X77998Y281003D01*
X78054Y281047D01*
X78082Y281064D01*
X78097Y281082D01*
X78129Y281107D01*
X78837Y281815D01*
X88041Y281815D01*
X89530Y280326D01*
X89530Y271362D01*
X88041Y269873D01*
X78837Y269873D01*
X78129Y270581D01*
X78071Y270622D01*
X78019Y270672D01*
X77972Y270694D01*
X77930Y270724D01*
X77861Y270745D01*
X77796Y270775D01*
X77744Y270781D01*
X77694Y270797D01*
X77623Y270795D01*
X77552Y270803D01*
X77501Y270791D01*
X77449Y270790D01*
X77381Y270766D01*
X77311Y270750D01*
X77266Y270724D01*
X77218Y270706D01*
X77162Y270661D01*
X77100Y270624D01*
X77066Y270585D01*
X77026Y270552D01*
X76987Y270492D01*
X76940Y270437D01*
X76921Y270389D01*
X76893Y270345D01*
X76875Y270276D01*
X76848Y270209D01*
X76840Y270138D01*
X76832Y270107D01*
X76834Y270083D01*
X76830Y270042D01*
X76830Y267782D01*
X76818Y267753D01*
X76816Y267732D01*
X75311Y266227D01*
X42796Y266227D01*
X42732Y266273D01*
X42662Y266333D01*
X42632Y266345D01*
X42606Y266364D01*
X42519Y266391D01*
X42434Y266425D01*
X42393Y266429D01*
X42371Y266436D01*
X42339Y266435D01*
X42267Y266443D01*
X40737Y266443D01*
X39248Y267932D01*
X39248Y283756D01*
X40773Y285281D01*
X40792Y285284D01*
X40809Y285294D01*
X40829Y285298D01*
X40918Y285351D01*
X41009Y285400D01*
X41023Y285414D01*
X41040Y285424D01*
X41107Y285503D01*
X41179Y285578D01*
X41187Y285596D01*
X41200Y285611D01*
X41239Y285707D01*
X41282Y285801D01*
X41284Y285821D01*
X41292Y285839D01*
X41310Y286006D01*
X41310Y291148D01*
X41307Y291167D01*
X41309Y291187D01*
X41287Y291288D01*
X41271Y291390D01*
X41261Y291408D01*
X41257Y291427D01*
X41204Y291516D01*
X41155Y291608D01*
X41141Y291621D01*
X41131Y291638D01*
X41052Y291706D01*
X40977Y291777D01*
X40959Y291785D01*
X40944Y291798D01*
X40848Y291837D01*
X40754Y291881D01*
X40734Y291883D01*
X40716Y291890D01*
X40549Y291909D01*
X39022Y291909D01*
X37274Y293657D01*
X37274Y341567D01*
X37271Y341586D01*
X37273Y341606D01*
X37251Y341707D01*
X37234Y341809D01*
X37225Y341827D01*
X37220Y341846D01*
X37167Y341935D01*
X37119Y342027D01*
X37105Y342040D01*
X37094Y342057D01*
X37016Y342125D01*
X36941Y342196D01*
X36923Y342204D01*
X36907Y342217D01*
X36811Y342256D01*
X36718Y342300D01*
X36698Y342302D01*
X36679Y342309D01*
X36513Y342328D01*
X30259Y342328D01*
X30045Y342542D01*
X29971Y342595D01*
X29902Y342655D01*
X29871Y342667D01*
X29845Y342686D01*
X29758Y342713D01*
X29673Y342747D01*
X29632Y342751D01*
X29610Y342758D01*
X29578Y342757D01*
X29507Y342765D01*
X22944Y342765D01*
X21455Y344254D01*
X21455Y411650D01*
X22944Y413139D01*
X28999Y413139D01*
X29089Y413153D01*
X29180Y413161D01*
X29209Y413173D01*
X29241Y413178D01*
X29322Y413221D01*
X29406Y413257D01*
X29438Y413283D01*
X29459Y413294D01*
X29481Y413317D01*
X29537Y413362D01*
X30259Y414084D01*
X39334Y414084D01*
X39379Y414092D01*
X39425Y414090D01*
X39500Y414111D01*
X39576Y414124D01*
X39617Y414145D01*
X39661Y414158D01*
X39725Y414203D01*
X39794Y414239D01*
X39825Y414272D01*
X39863Y414299D01*
X39909Y414361D01*
X39963Y414417D01*
X39982Y414459D01*
X40010Y414496D01*
X40034Y414570D01*
X40067Y414640D01*
X40072Y414686D01*
X40086Y414730D01*
X40085Y414808D01*
X40094Y414885D01*
X40084Y414930D01*
X40084Y414976D01*
X40045Y415107D01*
X40042Y415125D01*
X40039Y415130D01*
X40037Y415137D01*
X38854Y417992D01*
X38854Y421986D01*
X40383Y425677D01*
X43207Y428501D01*
X46898Y430030D01*
X50892Y430030D01*
X51853Y429632D01*
X51919Y429616D01*
X51948Y429605D01*
X51984Y429601D01*
X52080Y429577D01*
X52086Y429577D01*
X52092Y429576D01*
X52209Y429587D01*
X52325Y429596D01*
X52331Y429598D01*
X52337Y429599D01*
X52398Y429626D01*
X52400Y429626D01*
X52403Y429628D01*
X52444Y429646D01*
X52552Y429692D01*
X52558Y429697D01*
X52562Y429699D01*
X52576Y429711D01*
X52606Y429735D01*
X52617Y429741D01*
X52629Y429754D01*
X52683Y429797D01*
X52916Y430030D01*
X82593Y430030D01*
X84082Y428541D01*
X84082Y414845D01*
X84085Y414826D01*
X84083Y414806D01*
X84105Y414705D01*
X84121Y414603D01*
X84131Y414585D01*
X84135Y414566D01*
X84188Y414477D01*
X84237Y414385D01*
X84251Y414372D01*
X84261Y414355D01*
X84340Y414287D01*
X84415Y414216D01*
X84433Y414208D01*
X84448Y414195D01*
X84544Y414156D01*
X84638Y414112D01*
X84658Y414110D01*
X84676Y414103D01*
X84843Y414084D01*
X93211Y414084D01*
X93231Y414087D01*
X93250Y414085D01*
X93352Y414107D01*
X93454Y414124D01*
X93471Y414133D01*
X93491Y414138D01*
X93580Y414191D01*
X93671Y414239D01*
X93685Y414253D01*
X93702Y414264D01*
X93769Y414342D01*
X93841Y414417D01*
X93849Y414435D01*
X93862Y414451D01*
X93901Y414547D01*
X93944Y414640D01*
X93946Y414660D01*
X93954Y414679D01*
X93972Y414845D01*
X93972Y428541D01*
X95461Y430030D01*
X137711Y430030D01*
X139200Y428541D01*
X139200Y414845D01*
X139203Y414826D01*
X139201Y414806D01*
X139223Y414705D01*
X139239Y414603D01*
X139249Y414585D01*
X139253Y414566D01*
X139306Y414477D01*
X139355Y414385D01*
X139369Y414372D01*
X139379Y414355D01*
X139458Y414287D01*
X139533Y414216D01*
X139551Y414208D01*
X139566Y414195D01*
X139662Y414156D01*
X139756Y414112D01*
X139776Y414110D01*
X139794Y414103D01*
X139961Y414084D01*
X148329Y414084D01*
X148349Y414087D01*
X148368Y414085D01*
X148470Y414107D01*
X148572Y414124D01*
X148589Y414133D01*
X148609Y414138D01*
X148698Y414191D01*
X148789Y414239D01*
X148803Y414253D01*
X148820Y414264D01*
X148887Y414342D01*
X148959Y414417D01*
X148967Y414435D01*
X148980Y414451D01*
X149019Y414547D01*
X149062Y414640D01*
X149064Y414660D01*
X149072Y414679D01*
X149090Y414845D01*
X149090Y428541D01*
X150579Y430030D01*
X180256Y430030D01*
X180489Y429797D01*
X180577Y429734D01*
X180620Y429697D01*
X180635Y429691D01*
X180678Y429659D01*
X180684Y429657D01*
X180689Y429653D01*
X180801Y429619D01*
X180912Y429583D01*
X180918Y429583D01*
X180924Y429581D01*
X181041Y429584D01*
X181158Y429585D01*
X181165Y429587D01*
X181170Y429587D01*
X181187Y429594D01*
X181298Y429626D01*
X181301Y429626D01*
X181302Y429627D01*
X181319Y429632D01*
X182280Y430030D01*
X186274Y430030D01*
X189965Y428501D01*
X192789Y425677D01*
X194318Y421986D01*
X194318Y417992D01*
X193135Y415137D01*
X193125Y415092D01*
X193105Y415050D01*
X193097Y414973D01*
X193079Y414897D01*
X193083Y414852D01*
X193078Y414806D01*
X193095Y414730D01*
X193102Y414652D01*
X193121Y414611D01*
X193130Y414566D01*
X193170Y414499D01*
X193202Y414428D01*
X193233Y414394D01*
X193257Y414355D01*
X193316Y414304D01*
X193368Y414247D01*
X193409Y414224D01*
X193444Y414195D01*
X193516Y414166D01*
X193584Y414128D01*
X193629Y414120D01*
X193672Y414103D01*
X193808Y414088D01*
X193826Y414084D01*
X193831Y414085D01*
X193838Y414084D01*
X202913Y414084D01*
X203635Y413362D01*
X203709Y413309D01*
X203778Y413249D01*
X203809Y413237D01*
X203835Y413218D01*
X203922Y413191D01*
X204007Y413157D01*
X204048Y413153D01*
X204070Y413146D01*
X204102Y413147D01*
X204173Y413139D01*
X210228Y413139D01*
X211717Y411650D01*
X211717Y344254D01*
X210228Y342765D01*
X203665Y342765D01*
X203575Y342751D01*
X203484Y342743D01*
X203455Y342731D01*
X203423Y342726D01*
X203342Y342683D01*
X203258Y342647D01*
X203226Y342621D01*
X203205Y342610D01*
X203183Y342587D01*
X203127Y342542D01*
X202913Y342328D01*
X195135Y342328D01*
X195116Y342325D01*
X195096Y342327D01*
X194995Y342305D01*
X194893Y342288D01*
X194875Y342279D01*
X194856Y342274D01*
X194767Y342221D01*
X194675Y342173D01*
X194662Y342159D01*
X194645Y342148D01*
X194577Y342070D01*
X194506Y341995D01*
X194498Y341977D01*
X194485Y341961D01*
X194446Y341865D01*
X194402Y341772D01*
X194400Y341752D01*
X194393Y341733D01*
X194374Y341567D01*
X194374Y293657D01*
X192867Y292150D01*
X192814Y292076D01*
X192754Y292007D01*
X192742Y291976D01*
X192723Y291950D01*
X192696Y291863D01*
X192662Y291778D01*
X192658Y291737D01*
X192651Y291715D01*
X192652Y291683D01*
X192644Y291612D01*
X192644Y288109D01*
X191613Y287078D01*
X191560Y287004D01*
X191500Y286935D01*
X191488Y286905D01*
X191469Y286879D01*
X191442Y286792D01*
X191408Y286707D01*
X191404Y286666D01*
X191397Y286643D01*
X191398Y286611D01*
X191390Y286540D01*
X191390Y282576D01*
X191393Y282556D01*
X191391Y282537D01*
X191413Y282435D01*
X191429Y282333D01*
X191439Y282316D01*
X191443Y282296D01*
X191496Y282207D01*
X191545Y282116D01*
X191559Y282102D01*
X191569Y282085D01*
X191648Y282018D01*
X191723Y281946D01*
X191741Y281938D01*
X191756Y281925D01*
X191852Y281886D01*
X191946Y281843D01*
X191966Y281841D01*
X191984Y281833D01*
X192151Y281815D01*
X192435Y281815D01*
X193924Y280326D01*
X193924Y271362D01*
X192435Y269873D01*
X186146Y269873D01*
X186126Y269870D01*
X186107Y269872D01*
X186005Y269850D01*
X185903Y269834D01*
X185886Y269824D01*
X185866Y269820D01*
X185777Y269767D01*
X185686Y269718D01*
X185672Y269704D01*
X185655Y269694D01*
X185588Y269615D01*
X185516Y269540D01*
X185508Y269522D01*
X185495Y269507D01*
X185456Y269411D01*
X185413Y269317D01*
X185411Y269297D01*
X185403Y269279D01*
X185385Y269112D01*
X185385Y267589D01*
X183896Y266100D01*
X151384Y266100D01*
G37*
%LPD*%
%LPC*%
G36*
X82449Y35078D02*
X82449Y35078D01*
X81704Y35823D01*
X81704Y42875D01*
X82449Y43620D01*
X87516Y43620D01*
X87544Y43626D01*
X87573Y43624D01*
X87635Y43646D01*
X87699Y43659D01*
X87722Y43677D01*
X87750Y43687D01*
X87797Y43732D01*
X87849Y43771D01*
X87863Y43796D01*
X87884Y43817D01*
X87896Y43856D01*
X87940Y43935D01*
X87948Y44025D01*
X87959Y44063D01*
X87959Y45262D01*
X87950Y45304D01*
X87951Y45348D01*
X87934Y45380D01*
X87920Y45445D01*
X87846Y45544D01*
X87829Y45575D01*
X87474Y45931D01*
X87437Y45954D01*
X87407Y45986D01*
X87372Y45996D01*
X87316Y46032D01*
X87194Y46051D01*
X87160Y46061D01*
X82476Y46061D01*
X81564Y46972D01*
X72441Y56096D01*
X71529Y57007D01*
X71529Y76756D01*
X72441Y77667D01*
X82621Y87848D01*
X82645Y87884D01*
X82676Y87915D01*
X82687Y87949D01*
X82723Y88005D01*
X82741Y88128D01*
X82751Y88161D01*
X82751Y90822D01*
X82748Y90836D01*
X82750Y90851D01*
X82728Y90928D01*
X82712Y91005D01*
X82703Y91017D01*
X82699Y91031D01*
X82647Y91092D01*
X82600Y91156D01*
X82587Y91163D01*
X82578Y91174D01*
X82506Y91208D01*
X82436Y91247D01*
X82422Y91248D01*
X82408Y91254D01*
X82329Y91255D01*
X82250Y91262D01*
X82236Y91257D01*
X82221Y91257D01*
X82190Y91240D01*
X82073Y91199D01*
X82026Y91153D01*
X81994Y91136D01*
X81790Y90932D01*
X76184Y90932D01*
X76142Y90923D01*
X76098Y90924D01*
X76066Y90907D01*
X76001Y90893D01*
X75902Y90819D01*
X75871Y90802D01*
X75231Y90162D01*
X72297Y90162D01*
X71657Y90802D01*
X71621Y90826D01*
X71590Y90857D01*
X71556Y90868D01*
X71500Y90904D01*
X71377Y90922D01*
X71344Y90932D01*
X66904Y90932D01*
X66876Y90926D01*
X66847Y90928D01*
X66785Y90906D01*
X66721Y90893D01*
X66698Y90875D01*
X66670Y90865D01*
X66623Y90820D01*
X66571Y90781D01*
X66557Y90756D01*
X66536Y90735D01*
X66524Y90696D01*
X66480Y90617D01*
X66472Y90527D01*
X66461Y90489D01*
X66461Y86794D01*
X65716Y86049D01*
X53664Y86049D01*
X52919Y86794D01*
X52919Y88907D01*
X52915Y88924D01*
X52915Y88925D01*
X52910Y88949D01*
X52911Y88993D01*
X52894Y89025D01*
X52880Y89090D01*
X52806Y89189D01*
X52789Y89220D01*
X51156Y90853D01*
X51156Y93787D01*
X52789Y95420D01*
X52813Y95456D01*
X52844Y95487D01*
X52855Y95521D01*
X52891Y95577D01*
X52909Y95700D01*
X52919Y95733D01*
X52919Y100466D01*
X52913Y100495D01*
X52915Y100524D01*
X52893Y100585D01*
X52880Y100649D01*
X52862Y100673D01*
X52852Y100700D01*
X52807Y100747D01*
X52768Y100800D01*
X52743Y100814D01*
X52722Y100835D01*
X52683Y100847D01*
X52604Y100891D01*
X52514Y100898D01*
X52476Y100910D01*
X52434Y100910D01*
X52406Y100904D01*
X52377Y100906D01*
X52315Y100884D01*
X52251Y100870D01*
X52228Y100853D01*
X52200Y100843D01*
X52153Y100797D01*
X52101Y100759D01*
X52087Y100733D01*
X52066Y100713D01*
X52054Y100674D01*
X52010Y100595D01*
X52002Y100505D01*
X51991Y100466D01*
X51991Y96091D01*
X51246Y95346D01*
X40194Y95346D01*
X39449Y96091D01*
X39449Y106991D01*
X39443Y107019D01*
X39445Y107048D01*
X39423Y107110D01*
X39410Y107174D01*
X39392Y107197D01*
X39382Y107225D01*
X39337Y107272D01*
X39298Y107324D01*
X39273Y107338D01*
X39252Y107359D01*
X39213Y107371D01*
X39134Y107415D01*
X39044Y107423D01*
X39006Y107434D01*
X31496Y107434D01*
X31467Y107428D01*
X31438Y107430D01*
X31377Y107408D01*
X31313Y107395D01*
X31289Y107377D01*
X31262Y107367D01*
X31215Y107322D01*
X31162Y107283D01*
X31148Y107258D01*
X31127Y107237D01*
X31115Y107198D01*
X31071Y107119D01*
X31064Y107029D01*
X31052Y106991D01*
X31052Y106164D01*
X22944Y106164D01*
X21455Y107653D01*
X21455Y175049D01*
X22944Y176538D01*
X39725Y176538D01*
X39770Y176545D01*
X39816Y176543D01*
X39891Y176565D01*
X39968Y176577D01*
X40008Y176599D01*
X40053Y176612D01*
X40117Y176656D01*
X40185Y176693D01*
X40217Y176726D01*
X40255Y176752D01*
X40301Y176815D01*
X40355Y176871D01*
X40374Y176913D01*
X40401Y176949D01*
X40426Y177023D01*
X40458Y177094D01*
X40463Y177140D01*
X40478Y177183D01*
X40477Y177261D01*
X40485Y177338D01*
X40476Y177383D01*
X40475Y177429D01*
X40437Y177561D01*
X40433Y177579D01*
X40431Y177583D01*
X40428Y177590D01*
X38854Y181391D01*
X38854Y185385D01*
X40383Y189076D01*
X43207Y191900D01*
X46898Y193429D01*
X50892Y193429D01*
X51853Y193031D01*
X51967Y193004D01*
X52080Y192976D01*
X52086Y192976D01*
X52092Y192975D01*
X52209Y192986D01*
X52325Y192995D01*
X52331Y192997D01*
X52337Y192998D01*
X52444Y193045D01*
X52552Y193091D01*
X52558Y193096D01*
X52562Y193098D01*
X52576Y193110D01*
X52683Y193196D01*
X52916Y193429D01*
X82593Y193429D01*
X84082Y191940D01*
X84082Y183832D01*
X83255Y183832D01*
X83227Y183826D01*
X83198Y183828D01*
X83136Y183806D01*
X83072Y183792D01*
X83049Y183775D01*
X83021Y183765D01*
X82974Y183719D01*
X82922Y183681D01*
X82908Y183655D01*
X82887Y183635D01*
X82875Y183596D01*
X82831Y183517D01*
X82823Y183427D01*
X82812Y183388D01*
X82812Y175362D01*
X82698Y175248D01*
X82690Y175236D01*
X82678Y175227D01*
X82640Y175158D01*
X82597Y175091D01*
X82595Y175076D01*
X82587Y175063D01*
X82581Y174984D01*
X82569Y174906D01*
X82573Y174891D01*
X82572Y174877D01*
X82599Y174802D01*
X82621Y174725D01*
X82630Y174714D01*
X82635Y174700D01*
X82691Y174643D01*
X82742Y174582D01*
X82755Y174576D01*
X82766Y174566D01*
X82800Y174555D01*
X82911Y174502D01*
X82977Y174501D01*
X83012Y174491D01*
X84513Y174491D01*
X86400Y172604D01*
X86437Y172580D01*
X86467Y172549D01*
X86502Y172538D01*
X86558Y172502D01*
X86680Y172484D01*
X86714Y172474D01*
X90790Y172474D01*
X90950Y172314D01*
X90975Y172298D01*
X90994Y172276D01*
X91053Y172248D01*
X91108Y172212D01*
X91137Y172208D01*
X91163Y172195D01*
X91228Y172194D01*
X91293Y172185D01*
X91321Y172193D01*
X91351Y172192D01*
X91386Y172211D01*
X91473Y172236D01*
X91542Y172295D01*
X91578Y172314D01*
X91738Y172474D01*
X95790Y172474D01*
X95950Y172314D01*
X95975Y172298D01*
X95994Y172276D01*
X96053Y172248D01*
X96108Y172212D01*
X96137Y172208D01*
X96163Y172195D01*
X96228Y172194D01*
X96293Y172185D01*
X96321Y172193D01*
X96351Y172192D01*
X96386Y172211D01*
X96473Y172236D01*
X96542Y172295D01*
X96578Y172314D01*
X96738Y172474D01*
X100790Y172474D01*
X101535Y171729D01*
X101535Y166123D01*
X101544Y166081D01*
X101543Y166037D01*
X101560Y166005D01*
X101574Y165940D01*
X101648Y165841D01*
X101665Y165810D01*
X102305Y165170D01*
X102305Y162236D01*
X101665Y161596D01*
X101641Y161560D01*
X101610Y161529D01*
X101599Y161495D01*
X101563Y161439D01*
X101545Y161316D01*
X101535Y161283D01*
X101535Y155677D01*
X100790Y154932D01*
X96738Y154932D01*
X96578Y155092D01*
X96553Y155108D01*
X96534Y155130D01*
X96475Y155158D01*
X96420Y155194D01*
X96391Y155198D01*
X96365Y155211D01*
X96300Y155212D01*
X96235Y155221D01*
X96207Y155213D01*
X96178Y155214D01*
X96142Y155195D01*
X96055Y155170D01*
X95986Y155111D01*
X95950Y155092D01*
X95790Y154932D01*
X91738Y154932D01*
X91578Y155092D01*
X91553Y155108D01*
X91534Y155130D01*
X91475Y155158D01*
X91420Y155194D01*
X91391Y155198D01*
X91365Y155211D01*
X91300Y155212D01*
X91235Y155221D01*
X91207Y155213D01*
X91178Y155214D01*
X91142Y155195D01*
X91055Y155170D01*
X90986Y155111D01*
X90950Y155092D01*
X90790Y154932D01*
X86738Y154932D01*
X85993Y155677D01*
X85993Y161348D01*
X85984Y161391D01*
X85985Y161435D01*
X85968Y161467D01*
X85954Y161531D01*
X85880Y161631D01*
X85863Y161662D01*
X85127Y162398D01*
X85127Y165331D01*
X85863Y166067D01*
X85887Y166104D01*
X85918Y166134D01*
X85929Y166169D01*
X85965Y166225D01*
X85983Y166347D01*
X85993Y166381D01*
X85993Y167818D01*
X85990Y167832D01*
X85992Y167847D01*
X85970Y167924D01*
X85954Y168001D01*
X85945Y168013D01*
X85941Y168027D01*
X85889Y168088D01*
X85842Y168152D01*
X85829Y168159D01*
X85820Y168170D01*
X85748Y168204D01*
X85678Y168243D01*
X85664Y168244D01*
X85650Y168250D01*
X85571Y168251D01*
X85492Y168258D01*
X85478Y168253D01*
X85463Y168253D01*
X85432Y168237D01*
X85315Y168195D01*
X85268Y168149D01*
X85236Y168132D01*
X84513Y167409D01*
X81580Y167409D01*
X79506Y169483D01*
X79506Y172417D01*
X80949Y173860D01*
X80957Y173872D01*
X80969Y173881D01*
X81007Y173950D01*
X81051Y174017D01*
X81053Y174032D01*
X81060Y174045D01*
X81066Y174124D01*
X81078Y174203D01*
X81074Y174217D01*
X81075Y174231D01*
X81048Y174306D01*
X81027Y174383D01*
X81017Y174394D01*
X81012Y174408D01*
X80957Y174465D01*
X80905Y174526D01*
X80892Y174532D01*
X80882Y174542D01*
X80848Y174553D01*
X80736Y174606D01*
X80670Y174607D01*
X80635Y174617D01*
X74936Y174617D01*
X74922Y174614D01*
X74907Y174616D01*
X74831Y174594D01*
X74753Y174578D01*
X74742Y174569D01*
X74727Y174565D01*
X74667Y174513D01*
X74603Y174466D01*
X74596Y174453D01*
X74584Y174444D01*
X74550Y174372D01*
X74512Y174302D01*
X74511Y174288D01*
X74504Y174274D01*
X74503Y174195D01*
X74497Y174116D01*
X74502Y174102D01*
X74501Y174087D01*
X74518Y174056D01*
X74560Y173939D01*
X74606Y173892D01*
X74623Y173860D01*
X74892Y173591D01*
X74892Y170658D01*
X72818Y168583D01*
X72754Y168583D01*
X72739Y168580D01*
X72725Y168582D01*
X72648Y168561D01*
X72571Y168544D01*
X72559Y168535D01*
X72545Y168531D01*
X72484Y168480D01*
X72420Y168432D01*
X72413Y168419D01*
X72402Y168410D01*
X72368Y168338D01*
X72329Y168268D01*
X72328Y168254D01*
X72322Y168240D01*
X72320Y168161D01*
X72314Y168082D01*
X72319Y168068D01*
X72319Y168053D01*
X72335Y168022D01*
X72377Y167905D01*
X72423Y167858D01*
X72440Y167826D01*
X73605Y166661D01*
X73642Y166637D01*
X73672Y166606D01*
X73707Y166595D01*
X73763Y166559D01*
X73885Y166541D01*
X73919Y166531D01*
X74138Y166531D01*
X77218Y163451D01*
X77623Y163046D01*
X77647Y163030D01*
X77666Y163008D01*
X77725Y162980D01*
X77780Y162945D01*
X77809Y162940D01*
X77836Y162928D01*
X77901Y162927D01*
X77966Y162917D01*
X77994Y162925D01*
X78023Y162925D01*
X78059Y162944D01*
X78146Y162969D01*
X78215Y163027D01*
X78250Y163046D01*
X78932Y163728D01*
X81865Y163728D01*
X83939Y161654D01*
X83939Y158720D01*
X81865Y156646D01*
X81801Y156646D01*
X81787Y156643D01*
X81772Y156645D01*
X81696Y156623D01*
X81618Y156607D01*
X81606Y156598D01*
X81592Y156594D01*
X81531Y156542D01*
X81468Y156495D01*
X81461Y156482D01*
X81449Y156473D01*
X81415Y156401D01*
X81377Y156331D01*
X81376Y156317D01*
X81369Y156303D01*
X81368Y156224D01*
X81361Y156145D01*
X81366Y156131D01*
X81366Y156116D01*
X81383Y156085D01*
X81425Y155968D01*
X81471Y155921D01*
X81488Y155889D01*
X85204Y152173D01*
X85241Y152149D01*
X85271Y152117D01*
X85306Y152107D01*
X85361Y152071D01*
X85484Y152053D01*
X85518Y152043D01*
X108025Y152043D01*
X108068Y152052D01*
X108112Y152051D01*
X108144Y152068D01*
X108209Y152082D01*
X108308Y152156D01*
X108339Y152173D01*
X110117Y153950D01*
X110133Y153975D01*
X110155Y153994D01*
X110183Y154053D01*
X110218Y154107D01*
X110223Y154136D01*
X110235Y154163D01*
X110236Y154228D01*
X110246Y154293D01*
X110238Y154321D01*
X110238Y154350D01*
X110219Y154386D01*
X110194Y154473D01*
X110136Y154542D01*
X110117Y154578D01*
X109892Y154802D01*
X109855Y154826D01*
X109825Y154857D01*
X109790Y154868D01*
X109734Y154904D01*
X109612Y154922D01*
X109578Y154932D01*
X106738Y154932D01*
X105993Y155677D01*
X105993Y171729D01*
X106738Y172474D01*
X110790Y172474D01*
X110950Y172314D01*
X110975Y172298D01*
X110994Y172276D01*
X111053Y172248D01*
X111108Y172212D01*
X111137Y172208D01*
X111163Y172195D01*
X111228Y172194D01*
X111293Y172185D01*
X111321Y172193D01*
X111351Y172192D01*
X111386Y172211D01*
X111473Y172236D01*
X111542Y172295D01*
X111578Y172314D01*
X111738Y172474D01*
X115790Y172474D01*
X115950Y172314D01*
X115975Y172298D01*
X115994Y172276D01*
X116053Y172248D01*
X116108Y172212D01*
X116137Y172208D01*
X116163Y172195D01*
X116228Y172194D01*
X116293Y172185D01*
X116321Y172193D01*
X116351Y172192D01*
X116386Y172211D01*
X116473Y172236D01*
X116542Y172295D01*
X116578Y172314D01*
X116738Y172474D01*
X120790Y172474D01*
X120950Y172314D01*
X120975Y172298D01*
X120994Y172276D01*
X121053Y172248D01*
X121108Y172212D01*
X121137Y172208D01*
X121163Y172195D01*
X121228Y172194D01*
X121293Y172185D01*
X121321Y172193D01*
X121351Y172192D01*
X121386Y172211D01*
X121473Y172236D01*
X121542Y172295D01*
X121578Y172314D01*
X121738Y172474D01*
X125790Y172474D01*
X125950Y172314D01*
X125975Y172298D01*
X125994Y172276D01*
X126053Y172248D01*
X126108Y172212D01*
X126137Y172208D01*
X126163Y172195D01*
X126228Y172194D01*
X126293Y172185D01*
X126321Y172193D01*
X126351Y172192D01*
X126386Y172211D01*
X126473Y172236D01*
X126542Y172295D01*
X126578Y172314D01*
X126738Y172474D01*
X130790Y172474D01*
X130950Y172314D01*
X130975Y172298D01*
X130994Y172276D01*
X131053Y172248D01*
X131108Y172212D01*
X131137Y172208D01*
X131163Y172195D01*
X131228Y172194D01*
X131293Y172185D01*
X131321Y172193D01*
X131351Y172192D01*
X131386Y172211D01*
X131473Y172236D01*
X131542Y172295D01*
X131578Y172314D01*
X131738Y172474D01*
X135790Y172474D01*
X135950Y172314D01*
X135975Y172298D01*
X135994Y172276D01*
X136053Y172248D01*
X136108Y172212D01*
X136137Y172208D01*
X136163Y172195D01*
X136228Y172194D01*
X136293Y172185D01*
X136321Y172193D01*
X136351Y172192D01*
X136386Y172211D01*
X136473Y172236D01*
X136542Y172295D01*
X136578Y172314D01*
X136738Y172474D01*
X140790Y172474D01*
X140950Y172314D01*
X140975Y172298D01*
X140994Y172276D01*
X141053Y172248D01*
X141108Y172212D01*
X141137Y172208D01*
X141163Y172195D01*
X141228Y172194D01*
X141293Y172185D01*
X141321Y172193D01*
X141351Y172192D01*
X141386Y172211D01*
X141473Y172236D01*
X141542Y172295D01*
X141578Y172314D01*
X141738Y172474D01*
X145790Y172474D01*
X146535Y171729D01*
X146535Y155677D01*
X145790Y154932D01*
X145542Y154932D01*
X145513Y154926D01*
X145484Y154928D01*
X145423Y154906D01*
X145359Y154893D01*
X145335Y154875D01*
X145308Y154865D01*
X145261Y154820D01*
X145208Y154781D01*
X145194Y154756D01*
X145173Y154735D01*
X145161Y154696D01*
X145117Y154617D01*
X145110Y154527D01*
X145098Y154489D01*
X145098Y153625D01*
X144374Y152901D01*
X144358Y152876D01*
X144336Y152857D01*
X144308Y152798D01*
X144272Y152744D01*
X144268Y152715D01*
X144256Y152688D01*
X144254Y152623D01*
X144245Y152558D01*
X144253Y152530D01*
X144252Y152501D01*
X144271Y152465D01*
X144296Y152378D01*
X144355Y152309D01*
X144374Y152273D01*
X144969Y151679D01*
X144969Y148745D01*
X142895Y146671D01*
X139961Y146671D01*
X139218Y147415D01*
X139193Y147431D01*
X139174Y147453D01*
X139115Y147481D01*
X139060Y147516D01*
X139031Y147521D01*
X139005Y147533D01*
X138940Y147534D01*
X138875Y147544D01*
X138847Y147536D01*
X138817Y147536D01*
X138782Y147517D01*
X138695Y147492D01*
X138626Y147434D01*
X138590Y147415D01*
X137847Y146671D01*
X134913Y146671D01*
X132839Y148745D01*
X132839Y151679D01*
X133247Y152086D01*
X133255Y152099D01*
X133267Y152107D01*
X133305Y152177D01*
X133348Y152244D01*
X133351Y152258D01*
X133358Y152271D01*
X133364Y152350D01*
X133376Y152429D01*
X133372Y152443D01*
X133373Y152458D01*
X133346Y152533D01*
X133325Y152609D01*
X133315Y152620D01*
X133310Y152634D01*
X133255Y152692D01*
X133203Y152752D01*
X133190Y152758D01*
X133180Y152769D01*
X133146Y152779D01*
X133034Y152832D01*
X132968Y152833D01*
X132933Y152844D01*
X126082Y152844D01*
X126040Y152835D01*
X125996Y152835D01*
X125964Y152818D01*
X125899Y152804D01*
X125800Y152731D01*
X125769Y152714D01*
X125694Y152639D01*
X125683Y152623D01*
X125674Y152616D01*
X125662Y152594D01*
X125639Y152572D01*
X125628Y152537D01*
X125592Y152481D01*
X125590Y152464D01*
X125583Y152452D01*
X125577Y152377D01*
X125574Y152359D01*
X125564Y152325D01*
X125564Y151577D01*
X123490Y149503D01*
X121007Y149503D01*
X120979Y149497D01*
X120950Y149499D01*
X120888Y149477D01*
X120824Y149464D01*
X120801Y149446D01*
X120773Y149436D01*
X120726Y149391D01*
X120674Y149352D01*
X120660Y149327D01*
X120639Y149306D01*
X120627Y149267D01*
X120583Y149188D01*
X120575Y149098D01*
X120564Y149060D01*
X120564Y148745D01*
X118490Y146671D01*
X115556Y146671D01*
X114518Y147709D01*
X114494Y147725D01*
X114475Y147748D01*
X114416Y147776D01*
X114361Y147811D01*
X114332Y147815D01*
X114305Y147828D01*
X114240Y147829D01*
X114175Y147838D01*
X114147Y147830D01*
X114118Y147831D01*
X114082Y147812D01*
X113995Y147787D01*
X113926Y147728D01*
X113891Y147709D01*
X113349Y147168D01*
X110416Y147168D01*
X108339Y149244D01*
X108302Y149268D01*
X108272Y149299D01*
X108237Y149310D01*
X108182Y149346D01*
X108059Y149364D01*
X108025Y149374D01*
X84229Y149374D01*
X83317Y150285D01*
X83292Y150310D01*
X83280Y150318D01*
X83271Y150330D01*
X83202Y150369D01*
X83135Y150412D01*
X83120Y150414D01*
X83107Y150421D01*
X83028Y150428D01*
X82950Y150439D01*
X82935Y150435D01*
X82921Y150437D01*
X82846Y150410D01*
X82770Y150388D01*
X82758Y150378D01*
X82744Y150373D01*
X82687Y150318D01*
X82627Y150267D01*
X82620Y150254D01*
X82610Y150243D01*
X82599Y150209D01*
X82546Y150098D01*
X82545Y150031D01*
X82535Y149997D01*
X82535Y146677D01*
X81790Y145932D01*
X65738Y145932D01*
X64993Y146677D01*
X64993Y150729D01*
X65738Y151474D01*
X81058Y151474D01*
X81072Y151477D01*
X81087Y151475D01*
X81163Y151497D01*
X81241Y151513D01*
X81253Y151522D01*
X81267Y151526D01*
X81328Y151578D01*
X81391Y151625D01*
X81398Y151638D01*
X81410Y151647D01*
X81444Y151719D01*
X81482Y151789D01*
X81483Y151803D01*
X81490Y151817D01*
X81491Y151896D01*
X81498Y151975D01*
X81493Y151989D01*
X81493Y152004D01*
X81476Y152035D01*
X81434Y152152D01*
X81388Y152199D01*
X81371Y152231D01*
X75461Y158142D01*
X75461Y158882D01*
X75458Y158897D01*
X75460Y158911D01*
X75438Y158988D01*
X75421Y159065D01*
X75413Y159077D01*
X75409Y159091D01*
X75357Y159152D01*
X75310Y159216D01*
X75297Y159223D01*
X75287Y159234D01*
X75215Y159268D01*
X75146Y159307D01*
X75131Y159308D01*
X75118Y159314D01*
X75038Y159316D01*
X74959Y159322D01*
X74945Y159317D01*
X74931Y159318D01*
X74899Y159301D01*
X74783Y159259D01*
X74735Y159213D01*
X74703Y159196D01*
X73560Y158052D01*
X70626Y158052D01*
X68552Y160126D01*
X68552Y163060D01*
X70679Y165186D01*
X70694Y165211D01*
X70717Y165230D01*
X70745Y165289D01*
X70780Y165343D01*
X70784Y165372D01*
X70797Y165399D01*
X70798Y165464D01*
X70808Y165529D01*
X70800Y165557D01*
X70800Y165586D01*
X70781Y165622D01*
X70756Y165709D01*
X70698Y165778D01*
X70679Y165814D01*
X68138Y168354D01*
X68126Y168362D01*
X68117Y168374D01*
X68048Y168412D01*
X67981Y168455D01*
X67966Y168458D01*
X67953Y168465D01*
X67874Y168471D01*
X67795Y168483D01*
X67781Y168479D01*
X67767Y168480D01*
X67692Y168453D01*
X67615Y168431D01*
X67604Y168422D01*
X67590Y168417D01*
X67533Y168362D01*
X67472Y168310D01*
X67466Y168297D01*
X67456Y168287D01*
X67445Y168253D01*
X67392Y168141D01*
X67391Y168075D01*
X67381Y168040D01*
X67381Y165400D01*
X66636Y164655D01*
X58720Y164655D01*
X58706Y164652D01*
X58691Y164654D01*
X58615Y164632D01*
X58537Y164616D01*
X58525Y164607D01*
X58511Y164603D01*
X58451Y164551D01*
X58387Y164504D01*
X58380Y164491D01*
X58368Y164482D01*
X58334Y164410D01*
X58296Y164340D01*
X58295Y164326D01*
X58288Y164312D01*
X58287Y164233D01*
X58280Y164154D01*
X58285Y164140D01*
X58285Y164125D01*
X58302Y164094D01*
X58343Y163977D01*
X58390Y163930D01*
X58405Y163901D01*
X58405Y160966D01*
X57518Y160080D01*
X57502Y160055D01*
X57480Y160036D01*
X57452Y159977D01*
X57417Y159922D01*
X57412Y159893D01*
X57400Y159867D01*
X57399Y159802D01*
X57389Y159737D01*
X57397Y159709D01*
X57397Y159680D01*
X57416Y159644D01*
X57441Y159557D01*
X57499Y159488D01*
X57518Y159452D01*
X58286Y158685D01*
X58286Y155751D01*
X56212Y153677D01*
X54204Y153677D01*
X54176Y153671D01*
X54147Y153673D01*
X54085Y153651D01*
X54021Y153638D01*
X53998Y153620D01*
X53970Y153610D01*
X53923Y153565D01*
X53871Y153526D01*
X53857Y153500D01*
X53836Y153480D01*
X53824Y153441D01*
X53780Y153362D01*
X53772Y153272D01*
X53761Y153233D01*
X53761Y142293D01*
X53016Y141548D01*
X40930Y141548D01*
X40867Y141589D01*
X40852Y141591D01*
X40839Y141599D01*
X40760Y141605D01*
X40682Y141617D01*
X40667Y141613D01*
X40653Y141614D01*
X40578Y141587D01*
X40501Y141565D01*
X40490Y141556D01*
X40476Y141551D01*
X40419Y141495D01*
X40359Y141444D01*
X40352Y141431D01*
X40342Y141420D01*
X40331Y141387D01*
X40278Y141275D01*
X40277Y141209D01*
X40267Y141174D01*
X40267Y137464D01*
X40270Y137450D01*
X40268Y137435D01*
X40290Y137359D01*
X40306Y137281D01*
X40315Y137269D01*
X40319Y137255D01*
X40371Y137194D01*
X40418Y137130D01*
X40431Y137123D01*
X40440Y137112D01*
X40512Y137078D01*
X40582Y137039D01*
X40596Y137038D01*
X40610Y137032D01*
X40689Y137031D01*
X40768Y137024D01*
X40782Y137029D01*
X40797Y137029D01*
X40828Y137046D01*
X40945Y137087D01*
X40947Y137090D01*
X52976Y137090D01*
X53004Y137096D01*
X53033Y137094D01*
X53095Y137116D01*
X53159Y137129D01*
X53182Y137147D01*
X53210Y137157D01*
X53257Y137202D01*
X53309Y137241D01*
X53323Y137266D01*
X53344Y137287D01*
X53356Y137326D01*
X53400Y137405D01*
X53405Y137466D01*
X54164Y138225D01*
X63582Y138225D01*
X63624Y138234D01*
X63668Y138233D01*
X63700Y138250D01*
X63765Y138264D01*
X63864Y138338D01*
X63896Y138355D01*
X64863Y139322D01*
X64887Y139359D01*
X64918Y139390D01*
X64929Y139424D01*
X64965Y139480D01*
X64983Y139602D01*
X64993Y139636D01*
X64993Y140729D01*
X65738Y141474D01*
X81790Y141474D01*
X82535Y140729D01*
X82535Y139732D01*
X82538Y139718D01*
X82536Y139703D01*
X82558Y139627D01*
X82574Y139549D01*
X82583Y139537D01*
X82587Y139523D01*
X82639Y139462D01*
X82686Y139399D01*
X82699Y139391D01*
X82708Y139380D01*
X82780Y139346D01*
X82850Y139308D01*
X82864Y139306D01*
X82878Y139300D01*
X82957Y139299D01*
X83036Y139292D01*
X83050Y139297D01*
X83065Y139297D01*
X83096Y139314D01*
X83213Y139355D01*
X83260Y139401D01*
X83292Y139418D01*
X83794Y139920D01*
X86727Y139920D01*
X88801Y137846D01*
X88801Y134976D01*
X88810Y134934D01*
X88809Y134890D01*
X88827Y134858D01*
X88841Y134793D01*
X88914Y134694D01*
X88931Y134663D01*
X90796Y132798D01*
X90796Y129865D01*
X90028Y129097D01*
X90012Y129072D01*
X89990Y129053D01*
X89962Y128994D01*
X89927Y128939D01*
X89922Y128910D01*
X89910Y128884D01*
X89909Y128819D01*
X89899Y128754D01*
X89907Y128726D01*
X89907Y128697D01*
X89926Y128661D01*
X89950Y128574D01*
X90009Y128505D01*
X90028Y128469D01*
X90786Y127711D01*
X90786Y124778D01*
X90028Y124020D01*
X90012Y123995D01*
X89990Y123976D01*
X89962Y123917D01*
X89927Y123862D01*
X89922Y123833D01*
X89910Y123807D01*
X89909Y123742D01*
X89899Y123677D01*
X89907Y123649D01*
X89907Y123620D01*
X89926Y123584D01*
X89950Y123497D01*
X90009Y123428D01*
X90028Y123392D01*
X90796Y122625D01*
X90796Y119691D01*
X90052Y118948D01*
X90036Y118923D01*
X90014Y118904D01*
X89986Y118845D01*
X89951Y118790D01*
X89946Y118761D01*
X89934Y118735D01*
X89933Y118670D01*
X89923Y118605D01*
X89931Y118577D01*
X89931Y118547D01*
X89950Y118512D01*
X89975Y118425D01*
X90024Y118366D01*
X90025Y118364D01*
X90034Y118355D01*
X90052Y118320D01*
X90796Y117577D01*
X90796Y114643D01*
X90052Y113900D01*
X90036Y113875D01*
X90014Y113856D01*
X89986Y113797D01*
X89951Y113742D01*
X89946Y113713D01*
X89934Y113687D01*
X89933Y113622D01*
X89923Y113557D01*
X89931Y113529D01*
X89931Y113500D01*
X89950Y113464D01*
X89975Y113377D01*
X90033Y113308D01*
X90052Y113272D01*
X90796Y112529D01*
X90796Y109595D01*
X90052Y108852D01*
X90036Y108827D01*
X90014Y108808D01*
X89986Y108749D01*
X89951Y108694D01*
X89946Y108665D01*
X89934Y108639D01*
X89933Y108574D01*
X89923Y108509D01*
X89931Y108481D01*
X89931Y108452D01*
X89950Y108416D01*
X89975Y108329D01*
X90033Y108260D01*
X90052Y108224D01*
X90796Y107481D01*
X90796Y104547D01*
X88722Y102473D01*
X85788Y102473D01*
X83714Y104547D01*
X83714Y107481D01*
X84458Y108224D01*
X84474Y108249D01*
X84496Y108268D01*
X84524Y108327D01*
X84559Y108382D01*
X84564Y108411D01*
X84576Y108437D01*
X84577Y108502D01*
X84587Y108567D01*
X84579Y108595D01*
X84579Y108625D01*
X84560Y108660D01*
X84535Y108747D01*
X84477Y108816D01*
X84458Y108852D01*
X83714Y109595D01*
X83714Y112484D01*
X83705Y112527D01*
X83706Y112570D01*
X83689Y112602D01*
X83675Y112667D01*
X83601Y112766D01*
X83584Y112798D01*
X83292Y113090D01*
X83280Y113098D01*
X83271Y113110D01*
X83201Y113148D01*
X83135Y113191D01*
X83120Y113193D01*
X83107Y113201D01*
X83028Y113207D01*
X82950Y113219D01*
X82935Y113215D01*
X82921Y113216D01*
X82846Y113189D01*
X82769Y113167D01*
X82758Y113158D01*
X82744Y113153D01*
X82687Y113097D01*
X82626Y113046D01*
X82620Y113033D01*
X82610Y113023D01*
X82599Y112989D01*
X82546Y112877D01*
X82545Y112811D01*
X82535Y112776D01*
X82535Y111677D01*
X81790Y110932D01*
X76080Y110932D01*
X76038Y110923D01*
X75994Y110924D01*
X75962Y110907D01*
X75897Y110893D01*
X75798Y110819D01*
X75767Y110802D01*
X75127Y110162D01*
X72193Y110162D01*
X71553Y110802D01*
X71517Y110826D01*
X71486Y110857D01*
X71452Y110868D01*
X71396Y110904D01*
X71273Y110922D01*
X71240Y110932D01*
X65738Y110932D01*
X64993Y111677D01*
X64993Y115729D01*
X65153Y115889D01*
X65169Y115914D01*
X65191Y115933D01*
X65219Y115992D01*
X65255Y116047D01*
X65259Y116076D01*
X65272Y116102D01*
X65273Y116167D01*
X65282Y116232D01*
X65274Y116260D01*
X65275Y116289D01*
X65256Y116325D01*
X65231Y116412D01*
X65172Y116481D01*
X65153Y116517D01*
X64993Y116677D01*
X64993Y120729D01*
X65153Y120889D01*
X65169Y120914D01*
X65191Y120933D01*
X65219Y120992D01*
X65255Y121047D01*
X65259Y121076D01*
X65272Y121102D01*
X65273Y121167D01*
X65282Y121232D01*
X65274Y121260D01*
X65275Y121289D01*
X65256Y121325D01*
X65231Y121412D01*
X65172Y121481D01*
X65153Y121517D01*
X64993Y121677D01*
X64993Y124240D01*
X64987Y124268D01*
X64989Y124297D01*
X64967Y124359D01*
X64954Y124423D01*
X64936Y124446D01*
X64926Y124474D01*
X64881Y124521D01*
X64842Y124573D01*
X64817Y124587D01*
X64796Y124608D01*
X64757Y124620D01*
X64678Y124664D01*
X64588Y124672D01*
X64550Y124683D01*
X54164Y124683D01*
X53971Y124876D01*
X53947Y124891D01*
X53928Y124914D01*
X53869Y124942D01*
X53814Y124977D01*
X53785Y124981D01*
X53758Y124994D01*
X53693Y124995D01*
X53629Y125005D01*
X53600Y124997D01*
X53571Y124997D01*
X53535Y124978D01*
X53448Y124953D01*
X53379Y124895D01*
X53344Y124876D01*
X53016Y124548D01*
X40930Y124548D01*
X40867Y124589D01*
X40852Y124591D01*
X40839Y124599D01*
X40760Y124605D01*
X40682Y124617D01*
X40667Y124613D01*
X40653Y124614D01*
X40578Y124587D01*
X40501Y124565D01*
X40490Y124556D01*
X40476Y124551D01*
X40419Y124495D01*
X40359Y124444D01*
X40352Y124431D01*
X40342Y124420D01*
X40331Y124387D01*
X40278Y124275D01*
X40277Y124209D01*
X40267Y124174D01*
X40267Y109331D01*
X40273Y109303D01*
X40271Y109274D01*
X40293Y109212D01*
X40306Y109148D01*
X40324Y109125D01*
X40334Y109097D01*
X40379Y109050D01*
X40418Y108998D01*
X40443Y108984D01*
X40464Y108963D01*
X40503Y108951D01*
X40582Y108907D01*
X40672Y108899D01*
X40710Y108888D01*
X51246Y108888D01*
X51991Y108143D01*
X51991Y104022D01*
X51997Y103993D01*
X51995Y103964D01*
X52017Y103903D01*
X52030Y103839D01*
X52048Y103815D01*
X52058Y103788D01*
X52103Y103741D01*
X52142Y103688D01*
X52167Y103674D01*
X52188Y103653D01*
X52227Y103641D01*
X52306Y103597D01*
X52396Y103590D01*
X52434Y103578D01*
X52476Y103578D01*
X52504Y103584D01*
X52533Y103582D01*
X52595Y103604D01*
X52659Y103618D01*
X52682Y103635D01*
X52710Y103645D01*
X52757Y103691D01*
X52809Y103729D01*
X52823Y103755D01*
X52844Y103775D01*
X52856Y103814D01*
X52900Y103893D01*
X52908Y103983D01*
X52919Y104022D01*
X52919Y107770D01*
X53664Y108515D01*
X56676Y108515D01*
X56690Y108518D01*
X56705Y108516D01*
X56781Y108538D01*
X56859Y108554D01*
X56871Y108563D01*
X56885Y108567D01*
X56945Y108619D01*
X57009Y108666D01*
X57016Y108679D01*
X57028Y108688D01*
X57062Y108760D01*
X57100Y108830D01*
X57101Y108844D01*
X57108Y108858D01*
X57109Y108937D01*
X57116Y109016D01*
X57111Y109030D01*
X57111Y109045D01*
X57094Y109076D01*
X57053Y109193D01*
X57006Y109240D01*
X56989Y109272D01*
X56643Y109618D01*
X56643Y112552D01*
X58717Y114626D01*
X61651Y114626D01*
X63725Y112552D01*
X63725Y109618D01*
X63379Y109272D01*
X63371Y109260D01*
X63359Y109251D01*
X63320Y109182D01*
X63277Y109115D01*
X63275Y109100D01*
X63268Y109087D01*
X63261Y109008D01*
X63250Y108929D01*
X63254Y108915D01*
X63252Y108901D01*
X63279Y108826D01*
X63301Y108749D01*
X63310Y108738D01*
X63315Y108724D01*
X63371Y108667D01*
X63422Y108606D01*
X63435Y108600D01*
X63446Y108590D01*
X63480Y108579D01*
X63592Y108526D01*
X63658Y108525D01*
X63692Y108515D01*
X65716Y108515D01*
X66461Y107770D01*
X66461Y101917D01*
X66467Y101889D01*
X66465Y101860D01*
X66487Y101798D01*
X66500Y101734D01*
X66518Y101711D01*
X66528Y101683D01*
X66573Y101636D01*
X66612Y101584D01*
X66637Y101570D01*
X66658Y101549D01*
X66697Y101537D01*
X66776Y101493D01*
X66866Y101485D01*
X66904Y101474D01*
X81790Y101474D01*
X82563Y100701D01*
X82574Y100650D01*
X82592Y100627D01*
X82602Y100599D01*
X82647Y100552D01*
X82686Y100500D01*
X82711Y100486D01*
X82732Y100465D01*
X82771Y100453D01*
X82850Y100409D01*
X82940Y100401D01*
X82978Y100390D01*
X85552Y100390D01*
X87626Y98316D01*
X87626Y97446D01*
X87632Y97418D01*
X87630Y97389D01*
X87652Y97327D01*
X87666Y97263D01*
X87683Y97240D01*
X87693Y97212D01*
X87739Y97165D01*
X87777Y97113D01*
X87803Y97099D01*
X87823Y97078D01*
X87862Y97066D01*
X87941Y97022D01*
X88031Y97014D01*
X88070Y97003D01*
X89304Y97003D01*
X91378Y94929D01*
X91378Y91995D01*
X89304Y89921D01*
X86371Y89921D01*
X86177Y90115D01*
X86165Y90123D01*
X86156Y90135D01*
X86086Y90173D01*
X86020Y90216D01*
X86005Y90219D01*
X85992Y90226D01*
X85913Y90232D01*
X85835Y90244D01*
X85820Y90240D01*
X85806Y90241D01*
X85731Y90214D01*
X85654Y90193D01*
X85643Y90183D01*
X85629Y90178D01*
X85572Y90123D01*
X85511Y90071D01*
X85505Y90058D01*
X85495Y90048D01*
X85484Y90014D01*
X85431Y89902D01*
X85430Y89836D01*
X85420Y89801D01*
X85420Y89203D01*
X85423Y89188D01*
X85421Y89174D01*
X85443Y89097D01*
X85459Y89020D01*
X85468Y89008D01*
X85472Y88994D01*
X85524Y88933D01*
X85571Y88869D01*
X85584Y88862D01*
X85593Y88851D01*
X85665Y88817D01*
X85735Y88778D01*
X85749Y88777D01*
X85763Y88771D01*
X85842Y88769D01*
X85921Y88763D01*
X85935Y88768D01*
X85950Y88768D01*
X85981Y88784D01*
X86098Y88826D01*
X86145Y88872D01*
X86177Y88889D01*
X86266Y88978D01*
X93462Y88978D01*
X93476Y88981D01*
X93491Y88979D01*
X93567Y89001D01*
X93645Y89018D01*
X93657Y89027D01*
X93671Y89031D01*
X93731Y89082D01*
X93795Y89129D01*
X93802Y89142D01*
X93814Y89152D01*
X93848Y89224D01*
X93886Y89293D01*
X93887Y89308D01*
X93894Y89321D01*
X93895Y89401D01*
X93902Y89480D01*
X93897Y89494D01*
X93897Y89508D01*
X93880Y89540D01*
X93839Y89656D01*
X93792Y89704D01*
X93775Y89736D01*
X92791Y90720D01*
X92791Y93653D01*
X94865Y95727D01*
X97799Y95727D01*
X99873Y93653D01*
X99873Y91282D01*
X99876Y91267D01*
X99874Y91253D01*
X99896Y91176D01*
X99912Y91098D01*
X99921Y91087D01*
X99925Y91072D01*
X99977Y91012D01*
X100024Y90948D01*
X100037Y90941D01*
X100046Y90930D01*
X100118Y90895D01*
X100188Y90857D01*
X100202Y90856D01*
X100216Y90849D01*
X100295Y90848D01*
X100374Y90842D01*
X100388Y90847D01*
X100403Y90846D01*
X100434Y90863D01*
X100551Y90905D01*
X100598Y90951D01*
X100630Y90968D01*
X103051Y93388D01*
X103962Y94300D01*
X108053Y94300D01*
X110945Y91407D01*
X110945Y89890D01*
X110954Y89848D01*
X110954Y89804D01*
X110971Y89772D01*
X110985Y89707D01*
X111058Y89608D01*
X111075Y89577D01*
X111651Y89001D01*
X111688Y88977D01*
X111718Y88946D01*
X111753Y88935D01*
X111809Y88899D01*
X111931Y88881D01*
X111965Y88871D01*
X116369Y88871D01*
X117636Y87604D01*
X117673Y87580D01*
X117703Y87549D01*
X117738Y87538D01*
X117794Y87502D01*
X117916Y87484D01*
X117950Y87474D01*
X120790Y87474D01*
X120950Y87314D01*
X120975Y87298D01*
X120994Y87276D01*
X121053Y87248D01*
X121108Y87212D01*
X121137Y87208D01*
X121163Y87195D01*
X121228Y87194D01*
X121293Y87185D01*
X121321Y87193D01*
X121351Y87192D01*
X121386Y87211D01*
X121473Y87236D01*
X121542Y87295D01*
X121578Y87314D01*
X121738Y87474D01*
X125790Y87474D01*
X125950Y87314D01*
X125975Y87298D01*
X125994Y87276D01*
X126053Y87248D01*
X126108Y87212D01*
X126137Y87208D01*
X126163Y87195D01*
X126228Y87194D01*
X126293Y87185D01*
X126321Y87193D01*
X126351Y87192D01*
X126386Y87211D01*
X126473Y87236D01*
X126542Y87295D01*
X126578Y87314D01*
X126738Y87474D01*
X130790Y87474D01*
X130950Y87314D01*
X130975Y87298D01*
X130994Y87276D01*
X131053Y87248D01*
X131108Y87212D01*
X131137Y87208D01*
X131163Y87195D01*
X131228Y87194D01*
X131293Y87185D01*
X131321Y87193D01*
X131351Y87192D01*
X131386Y87211D01*
X131473Y87236D01*
X131542Y87295D01*
X131578Y87314D01*
X131738Y87474D01*
X135790Y87474D01*
X135950Y87314D01*
X135975Y87298D01*
X135994Y87276D01*
X136053Y87248D01*
X136108Y87212D01*
X136137Y87208D01*
X136163Y87195D01*
X136228Y87194D01*
X136293Y87185D01*
X136321Y87193D01*
X136350Y87192D01*
X136386Y87211D01*
X136473Y87236D01*
X136542Y87295D01*
X136578Y87314D01*
X136738Y87474D01*
X140790Y87474D01*
X140950Y87314D01*
X140975Y87298D01*
X140994Y87276D01*
X141053Y87248D01*
X141108Y87212D01*
X141137Y87208D01*
X141163Y87195D01*
X141228Y87194D01*
X141293Y87185D01*
X141321Y87193D01*
X141351Y87192D01*
X141386Y87211D01*
X141473Y87236D01*
X141542Y87295D01*
X141578Y87314D01*
X141738Y87474D01*
X145790Y87474D01*
X146535Y86729D01*
X146535Y70677D01*
X145800Y69942D01*
X145776Y69905D01*
X145745Y69874D01*
X145734Y69840D01*
X145698Y69784D01*
X145680Y69662D01*
X145670Y69628D01*
X145670Y68299D01*
X144269Y66898D01*
X144261Y66886D01*
X144250Y66877D01*
X144211Y66808D01*
X144168Y66741D01*
X144166Y66726D01*
X144159Y66713D01*
X144152Y66634D01*
X144140Y66555D01*
X144144Y66541D01*
X144143Y66527D01*
X144170Y66452D01*
X144192Y66375D01*
X144201Y66364D01*
X144206Y66350D01*
X144262Y66293D01*
X144313Y66232D01*
X144326Y66226D01*
X144337Y66216D01*
X144370Y66205D01*
X144482Y66152D01*
X144549Y66151D01*
X144583Y66141D01*
X150215Y66141D01*
X150960Y65396D01*
X150960Y58344D01*
X150434Y57818D01*
X150426Y57806D01*
X150414Y57797D01*
X150376Y57728D01*
X150333Y57661D01*
X150331Y57646D01*
X150323Y57633D01*
X150317Y57554D01*
X150305Y57475D01*
X150309Y57461D01*
X150308Y57447D01*
X150335Y57372D01*
X150357Y57295D01*
X150366Y57284D01*
X150371Y57270D01*
X150427Y57213D01*
X150478Y57152D01*
X150491Y57146D01*
X150502Y57136D01*
X150535Y57125D01*
X150647Y57072D01*
X150713Y57071D01*
X150748Y57061D01*
X150999Y57061D01*
X153073Y54987D01*
X153073Y52053D01*
X150999Y49979D01*
X150852Y49979D01*
X150838Y49976D01*
X150823Y49978D01*
X150746Y49956D01*
X150669Y49940D01*
X150657Y49931D01*
X150643Y49927D01*
X150582Y49875D01*
X150519Y49828D01*
X150511Y49815D01*
X150500Y49806D01*
X150466Y49734D01*
X150428Y49664D01*
X150426Y49650D01*
X150420Y49636D01*
X150419Y49557D01*
X150412Y49478D01*
X150417Y49464D01*
X150417Y49449D01*
X150434Y49418D01*
X150475Y49301D01*
X150521Y49254D01*
X150538Y49222D01*
X153892Y45868D01*
X153929Y45845D01*
X153959Y45813D01*
X153994Y45803D01*
X154049Y45767D01*
X154172Y45748D01*
X154206Y45738D01*
X155266Y45738D01*
X155308Y45747D01*
X155352Y45747D01*
X155384Y45764D01*
X155449Y45778D01*
X155548Y45851D01*
X155579Y45868D01*
X157656Y47945D01*
X160589Y47945D01*
X162663Y45871D01*
X162663Y42937D01*
X160589Y40863D01*
X157656Y40863D01*
X155579Y42940D01*
X155543Y42963D01*
X155512Y42995D01*
X155478Y43005D01*
X155422Y43041D01*
X155299Y43060D01*
X155266Y43070D01*
X152917Y43070D01*
X152005Y43981D01*
X149031Y46956D01*
X149018Y46964D01*
X149010Y46975D01*
X148940Y47014D01*
X148873Y47057D01*
X148859Y47059D01*
X148846Y47066D01*
X148767Y47073D01*
X148688Y47085D01*
X148674Y47081D01*
X148659Y47082D01*
X148584Y47055D01*
X148508Y47033D01*
X148497Y47024D01*
X148483Y47019D01*
X148426Y46963D01*
X148365Y46912D01*
X148359Y46899D01*
X148348Y46888D01*
X148338Y46855D01*
X148285Y46743D01*
X148284Y46676D01*
X148273Y46642D01*
X148273Y44084D01*
X148279Y44056D01*
X148277Y44027D01*
X148299Y43965D01*
X148313Y43901D01*
X148330Y43878D01*
X148340Y43850D01*
X148386Y43803D01*
X148424Y43751D01*
X148450Y43737D01*
X148470Y43716D01*
X148509Y43704D01*
X148588Y43660D01*
X148678Y43652D01*
X148717Y43641D01*
X150215Y43641D01*
X150960Y42896D01*
X150960Y35844D01*
X150215Y35099D01*
X143663Y35099D01*
X143478Y35284D01*
X143453Y35300D01*
X143434Y35322D01*
X143375Y35350D01*
X143320Y35386D01*
X143291Y35390D01*
X143265Y35403D01*
X143200Y35404D01*
X143135Y35413D01*
X143107Y35405D01*
X143078Y35406D01*
X143042Y35387D01*
X142955Y35362D01*
X142886Y35303D01*
X142850Y35284D01*
X142665Y35099D01*
X139205Y35099D01*
X139150Y35125D01*
X139095Y35161D01*
X139066Y35165D01*
X139040Y35178D01*
X138975Y35179D01*
X138910Y35188D01*
X138882Y35180D01*
X138853Y35181D01*
X138817Y35162D01*
X138730Y35137D01*
X138686Y35099D01*
X135213Y35099D01*
X135028Y35284D01*
X135003Y35300D01*
X134984Y35322D01*
X134925Y35350D01*
X134870Y35386D01*
X134841Y35390D01*
X134815Y35403D01*
X134750Y35404D01*
X134685Y35413D01*
X134657Y35405D01*
X134628Y35406D01*
X134592Y35387D01*
X134505Y35362D01*
X134436Y35303D01*
X134400Y35284D01*
X134215Y35099D01*
X127663Y35099D01*
X126918Y35844D01*
X126918Y42896D01*
X127663Y43641D01*
X132516Y43641D01*
X132531Y43644D01*
X132545Y43642D01*
X132622Y43664D01*
X132699Y43680D01*
X132711Y43689D01*
X132725Y43693D01*
X132786Y43745D01*
X132850Y43792D01*
X132857Y43805D01*
X132868Y43814D01*
X132902Y43886D01*
X132941Y43956D01*
X132942Y43970D01*
X132948Y43984D01*
X132950Y44063D01*
X132956Y44142D01*
X132951Y44156D01*
X132951Y44171D01*
X132935Y44202D01*
X132893Y44319D01*
X132847Y44366D01*
X132830Y44398D01*
X132030Y45198D01*
X132030Y48131D01*
X134104Y50205D01*
X137038Y50205D01*
X139107Y48136D01*
X139143Y48113D01*
X139174Y48081D01*
X139208Y48071D01*
X139264Y48035D01*
X139387Y48016D01*
X139420Y48006D01*
X141813Y48006D01*
X141827Y48009D01*
X141842Y48007D01*
X141918Y48029D01*
X141996Y48046D01*
X142008Y48055D01*
X142022Y48059D01*
X142083Y48110D01*
X142146Y48157D01*
X142153Y48170D01*
X142165Y48180D01*
X142199Y48252D01*
X142237Y48321D01*
X142239Y48336D01*
X142245Y48349D01*
X142246Y48429D01*
X142253Y48508D01*
X142248Y48522D01*
X142248Y48536D01*
X142231Y48568D01*
X142190Y48684D01*
X142144Y48732D01*
X142126Y48764D01*
X139625Y51265D01*
X139589Y51288D01*
X139558Y51320D01*
X139524Y51330D01*
X139468Y51366D01*
X139345Y51385D01*
X139312Y51395D01*
X116348Y51395D01*
X116320Y51389D01*
X116291Y51391D01*
X116229Y51369D01*
X116165Y51355D01*
X116142Y51338D01*
X116114Y51328D01*
X116067Y51282D01*
X116015Y51244D01*
X116001Y51218D01*
X115980Y51198D01*
X115968Y51159D01*
X115924Y51080D01*
X115916Y50990D01*
X115905Y50951D01*
X115905Y49822D01*
X113831Y47748D01*
X110897Y47748D01*
X108823Y49822D01*
X108823Y52755D01*
X110897Y54829D01*
X113831Y54829D01*
X114467Y54193D01*
X114503Y54170D01*
X114534Y54138D01*
X114568Y54128D01*
X114624Y54092D01*
X114747Y54073D01*
X114780Y54063D01*
X134000Y54063D01*
X134014Y54066D01*
X134029Y54064D01*
X134105Y54086D01*
X134183Y54103D01*
X134195Y54112D01*
X134209Y54116D01*
X134269Y54167D01*
X134333Y54214D01*
X134340Y54227D01*
X134352Y54237D01*
X134386Y54309D01*
X134424Y54378D01*
X134425Y54393D01*
X134432Y54406D01*
X134433Y54486D01*
X134440Y54565D01*
X134435Y54579D01*
X134435Y54593D01*
X134418Y54625D01*
X134377Y54741D01*
X134330Y54789D01*
X134313Y54821D01*
X133173Y55961D01*
X133173Y57156D01*
X133167Y57184D01*
X133169Y57213D01*
X133147Y57275D01*
X133134Y57339D01*
X133116Y57362D01*
X133106Y57390D01*
X133061Y57437D01*
X133022Y57489D01*
X132997Y57503D01*
X132976Y57524D01*
X132937Y57536D01*
X132858Y57580D01*
X132768Y57588D01*
X132730Y57599D01*
X127663Y57599D01*
X126918Y58344D01*
X126918Y64426D01*
X126912Y64454D01*
X126914Y64483D01*
X126892Y64545D01*
X126879Y64609D01*
X126861Y64632D01*
X126851Y64660D01*
X126806Y64707D01*
X126767Y64759D01*
X126742Y64773D01*
X126721Y64794D01*
X126682Y64806D01*
X126603Y64850D01*
X126513Y64858D01*
X126475Y64869D01*
X121373Y64869D01*
X121330Y64860D01*
X121287Y64861D01*
X121263Y64848D01*
X107159Y64848D01*
X107116Y64839D01*
X107073Y64840D01*
X107041Y64823D01*
X106976Y64809D01*
X106877Y64735D01*
X106845Y64718D01*
X105876Y63749D01*
X105852Y63712D01*
X105821Y63681D01*
X105810Y63647D01*
X105774Y63591D01*
X105756Y63469D01*
X105746Y63435D01*
X105746Y58323D01*
X105001Y57578D01*
X99934Y57578D01*
X99906Y57572D01*
X99877Y57574D01*
X99815Y57552D01*
X99751Y57539D01*
X99728Y57521D01*
X99700Y57511D01*
X99653Y57466D01*
X99601Y57427D01*
X99587Y57402D01*
X99566Y57381D01*
X99554Y57342D01*
X99510Y57263D01*
X99502Y57173D01*
X99491Y57135D01*
X99491Y55940D01*
X97417Y53866D01*
X94483Y53866D01*
X94277Y54072D01*
X94252Y54088D01*
X94233Y54111D01*
X94174Y54139D01*
X94119Y54174D01*
X94090Y54178D01*
X94064Y54191D01*
X93999Y54192D01*
X93934Y54201D01*
X93906Y54193D01*
X93876Y54194D01*
X93841Y54175D01*
X93754Y54150D01*
X93685Y54091D01*
X93649Y54072D01*
X92369Y52792D01*
X89435Y52792D01*
X87361Y54866D01*
X87361Y57135D01*
X87355Y57163D01*
X87357Y57192D01*
X87335Y57254D01*
X87322Y57318D01*
X87304Y57341D01*
X87294Y57369D01*
X87249Y57416D01*
X87210Y57468D01*
X87185Y57482D01*
X87164Y57503D01*
X87125Y57515D01*
X87046Y57559D01*
X86956Y57567D01*
X86918Y57578D01*
X82449Y57578D01*
X81704Y58323D01*
X81704Y65375D01*
X82449Y66120D01*
X89001Y66120D01*
X89186Y65935D01*
X89211Y65919D01*
X89230Y65897D01*
X89289Y65869D01*
X89344Y65833D01*
X89373Y65829D01*
X89399Y65816D01*
X89464Y65815D01*
X89529Y65806D01*
X89557Y65814D01*
X89586Y65813D01*
X89622Y65832D01*
X89709Y65857D01*
X89778Y65916D01*
X89814Y65935D01*
X89999Y66120D01*
X91839Y66120D01*
X91882Y66129D01*
X91926Y66128D01*
X91958Y66145D01*
X92022Y66159D01*
X92122Y66233D01*
X92153Y66250D01*
X94312Y68409D01*
X94320Y68421D01*
X94332Y68430D01*
X94370Y68499D01*
X94414Y68566D01*
X94416Y68581D01*
X94423Y68594D01*
X94429Y68673D01*
X94441Y68752D01*
X94437Y68766D01*
X94438Y68780D01*
X94411Y68855D01*
X94390Y68932D01*
X94380Y68943D01*
X94375Y68957D01*
X94320Y69014D01*
X94268Y69075D01*
X94255Y69081D01*
X94245Y69091D01*
X94211Y69102D01*
X94099Y69155D01*
X94033Y69156D01*
X93998Y69166D01*
X92259Y69166D01*
X91801Y69624D01*
X91777Y69640D01*
X91758Y69663D01*
X91699Y69691D01*
X91644Y69726D01*
X91615Y69730D01*
X91588Y69743D01*
X91523Y69744D01*
X91458Y69753D01*
X91430Y69745D01*
X91401Y69746D01*
X91365Y69727D01*
X91278Y69702D01*
X91209Y69643D01*
X91174Y69624D01*
X90145Y68595D01*
X87211Y68595D01*
X85137Y70669D01*
X85137Y73603D01*
X85863Y74329D01*
X85887Y74365D01*
X85918Y74396D01*
X85929Y74430D01*
X85965Y74486D01*
X85972Y74534D01*
X85974Y74538D01*
X85976Y74562D01*
X85983Y74609D01*
X85993Y74642D01*
X85993Y83860D01*
X85990Y83874D01*
X85992Y83889D01*
X85970Y83966D01*
X85954Y84043D01*
X85945Y84055D01*
X85941Y84069D01*
X85889Y84130D01*
X85842Y84194D01*
X85829Y84201D01*
X85820Y84212D01*
X85748Y84246D01*
X85678Y84285D01*
X85664Y84286D01*
X85650Y84292D01*
X85571Y84293D01*
X85492Y84300D01*
X85478Y84295D01*
X85463Y84295D01*
X85432Y84279D01*
X85315Y84237D01*
X85268Y84191D01*
X85236Y84174D01*
X76106Y75044D01*
X76082Y75007D01*
X76051Y74976D01*
X76040Y74942D01*
X76004Y74886D01*
X75986Y74764D01*
X75976Y74730D01*
X75976Y59033D01*
X75985Y58990D01*
X75984Y58947D01*
X76001Y58915D01*
X76015Y58850D01*
X76089Y58751D01*
X76106Y58719D01*
X84188Y50637D01*
X84225Y50614D01*
X84255Y50582D01*
X84290Y50572D01*
X84345Y50536D01*
X84468Y50517D01*
X84502Y50507D01*
X91767Y50507D01*
X96438Y45837D01*
X96438Y44063D01*
X96444Y44035D01*
X96442Y44006D01*
X96464Y43944D01*
X96477Y43880D01*
X96495Y43857D01*
X96505Y43829D01*
X96550Y43782D01*
X96589Y43730D01*
X96614Y43716D01*
X96635Y43695D01*
X96674Y43683D01*
X96753Y43639D01*
X96843Y43631D01*
X96881Y43620D01*
X97451Y43620D01*
X98196Y42875D01*
X98196Y35823D01*
X97451Y35078D01*
X93991Y35078D01*
X93936Y35104D01*
X93881Y35140D01*
X93852Y35144D01*
X93826Y35157D01*
X93761Y35158D01*
X93696Y35167D01*
X93668Y35159D01*
X93638Y35160D01*
X93603Y35141D01*
X93516Y35116D01*
X93472Y35078D01*
X89999Y35078D01*
X89814Y35263D01*
X89789Y35279D01*
X89770Y35301D01*
X89711Y35329D01*
X89656Y35365D01*
X89627Y35369D01*
X89601Y35382D01*
X89536Y35383D01*
X89471Y35392D01*
X89443Y35384D01*
X89413Y35385D01*
X89378Y35366D01*
X89291Y35341D01*
X89222Y35282D01*
X89186Y35263D01*
X89001Y35078D01*
X82449Y35078D01*
G37*
%LPD*%
G36*
X38482Y344875D02*
X38482Y344875D01*
X38511Y344873D01*
X38573Y344895D01*
X38637Y344909D01*
X38660Y344926D01*
X38688Y344936D01*
X38735Y344982D01*
X38787Y345020D01*
X38801Y345046D01*
X38822Y345066D01*
X38834Y345105D01*
X38878Y345184D01*
X38886Y345274D01*
X38897Y345313D01*
X38897Y363329D01*
X39642Y364074D01*
X76944Y364074D01*
X76969Y364049D01*
X77003Y364027D01*
X77005Y364025D01*
X77006Y364025D01*
X77036Y363994D01*
X77071Y363984D01*
X77126Y363948D01*
X77249Y363929D01*
X77283Y363919D01*
X87309Y363919D01*
X87352Y363928D01*
X87396Y363928D01*
X87428Y363945D01*
X87492Y363959D01*
X87592Y364033D01*
X87623Y364049D01*
X87648Y364074D01*
X130792Y364074D01*
X130817Y364049D01*
X130851Y364027D01*
X130853Y364025D01*
X130854Y364025D01*
X130884Y363994D01*
X130919Y363984D01*
X130974Y363948D01*
X131097Y363929D01*
X131131Y363919D01*
X139506Y363919D01*
X139549Y363928D01*
X139593Y363928D01*
X139625Y363945D01*
X139689Y363959D01*
X139789Y364032D01*
X139820Y364049D01*
X139845Y364074D01*
X182989Y364074D01*
X183014Y364049D01*
X183048Y364027D01*
X183050Y364025D01*
X183051Y364025D01*
X183081Y363994D01*
X183116Y363984D01*
X183171Y363948D01*
X183294Y363929D01*
X183328Y363919D01*
X191942Y363919D01*
X192723Y363138D01*
X192723Y345313D01*
X192729Y345284D01*
X192727Y345255D01*
X192749Y345194D01*
X192763Y345130D01*
X192780Y345106D01*
X192790Y345079D01*
X192836Y345032D01*
X192874Y344979D01*
X192900Y344965D01*
X192920Y344944D01*
X192959Y344932D01*
X193038Y344888D01*
X193128Y344881D01*
X193167Y344869D01*
X201676Y344869D01*
X201705Y344875D01*
X201734Y344873D01*
X201795Y344895D01*
X201859Y344909D01*
X201883Y344926D01*
X201910Y344936D01*
X201957Y344982D01*
X202010Y345020D01*
X202024Y345046D01*
X202045Y345066D01*
X202057Y345105D01*
X202101Y345184D01*
X202108Y345274D01*
X202120Y345313D01*
X202120Y411099D01*
X202114Y411128D01*
X202116Y411157D01*
X202094Y411218D01*
X202080Y411282D01*
X202063Y411306D01*
X202053Y411333D01*
X202007Y411380D01*
X201969Y411433D01*
X201943Y411447D01*
X201923Y411468D01*
X201884Y411480D01*
X201805Y411524D01*
X201715Y411531D01*
X201676Y411543D01*
X186893Y411543D01*
X186748Y411511D01*
X186723Y411509D01*
X186022Y411218D01*
X182532Y411218D01*
X181831Y411509D01*
X181685Y411536D01*
X181661Y411543D01*
X180239Y411543D01*
X180196Y411534D01*
X180152Y411534D01*
X180120Y411517D01*
X180056Y411503D01*
X179956Y411429D01*
X179925Y411413D01*
X179730Y411218D01*
X151105Y411218D01*
X150910Y411413D01*
X150873Y411436D01*
X150843Y411468D01*
X150808Y411478D01*
X150753Y411514D01*
X150630Y411532D01*
X150596Y411543D01*
X137694Y411543D01*
X137651Y411534D01*
X137607Y411534D01*
X137575Y411517D01*
X137511Y411503D01*
X137411Y411429D01*
X137380Y411413D01*
X137185Y411218D01*
X95987Y411218D01*
X95792Y411413D01*
X95755Y411436D01*
X95725Y411468D01*
X95690Y411478D01*
X95635Y411514D01*
X95512Y411532D01*
X95478Y411543D01*
X82576Y411543D01*
X82533Y411534D01*
X82489Y411534D01*
X82457Y411517D01*
X82393Y411503D01*
X82293Y411429D01*
X82262Y411413D01*
X82067Y411218D01*
X53442Y411218D01*
X53247Y411413D01*
X53210Y411436D01*
X53180Y411468D01*
X53145Y411478D01*
X53090Y411514D01*
X52967Y411532D01*
X52933Y411543D01*
X51511Y411543D01*
X51366Y411511D01*
X51341Y411509D01*
X50640Y411218D01*
X47150Y411218D01*
X46449Y411509D01*
X46303Y411536D01*
X46279Y411543D01*
X31496Y411543D01*
X31467Y411537D01*
X31438Y411539D01*
X31377Y411517D01*
X31313Y411503D01*
X31289Y411486D01*
X31262Y411476D01*
X31215Y411430D01*
X31162Y411392D01*
X31148Y411366D01*
X31127Y411346D01*
X31115Y411307D01*
X31071Y411228D01*
X31064Y411138D01*
X31052Y411099D01*
X31052Y345313D01*
X31058Y345284D01*
X31056Y345255D01*
X31078Y345194D01*
X31092Y345130D01*
X31109Y345106D01*
X31119Y345079D01*
X31165Y345032D01*
X31203Y344979D01*
X31229Y344965D01*
X31249Y344944D01*
X31288Y344932D01*
X31367Y344888D01*
X31457Y344881D01*
X31496Y344869D01*
X38454Y344869D01*
X38482Y344875D01*
G37*
%LPC*%
G36*
X166300Y43553D02*
X166300Y43553D01*
X164226Y45627D01*
X164226Y48561D01*
X164659Y48993D01*
X164675Y49018D01*
X164697Y49037D01*
X164725Y49096D01*
X164761Y49151D01*
X164765Y49180D01*
X164777Y49206D01*
X164778Y49272D01*
X164788Y49336D01*
X164780Y49364D01*
X164780Y49394D01*
X164761Y49429D01*
X164737Y49516D01*
X164678Y49585D01*
X164659Y49621D01*
X164553Y49727D01*
X164553Y85909D01*
X165298Y86654D01*
X167921Y86654D01*
X167935Y86657D01*
X167950Y86655D01*
X168026Y86677D01*
X168104Y86693D01*
X168116Y86702D01*
X168130Y86706D01*
X168191Y86758D01*
X168254Y86805D01*
X168262Y86818D01*
X168273Y86827D01*
X168307Y86899D01*
X168345Y86969D01*
X168347Y86983D01*
X168353Y86997D01*
X168354Y87076D01*
X168361Y87155D01*
X168356Y87169D01*
X168356Y87184D01*
X168339Y87215D01*
X168298Y87332D01*
X168252Y87379D01*
X168235Y87411D01*
X164844Y90802D01*
X164807Y90826D01*
X164776Y90857D01*
X164742Y90868D01*
X164686Y90904D01*
X164564Y90922D01*
X164530Y90932D01*
X163282Y90932D01*
X163253Y90926D01*
X163224Y90928D01*
X163162Y90906D01*
X163099Y90893D01*
X163075Y90875D01*
X163047Y90865D01*
X163000Y90820D01*
X162948Y90781D01*
X162934Y90756D01*
X162913Y90735D01*
X162901Y90696D01*
X162857Y90617D01*
X162850Y90527D01*
X162838Y90489D01*
X162838Y87577D01*
X160764Y85503D01*
X157831Y85503D01*
X155754Y87580D01*
X155717Y87603D01*
X155687Y87635D01*
X155652Y87645D01*
X155597Y87681D01*
X155474Y87700D01*
X155440Y87710D01*
X151984Y87710D01*
X148596Y91098D01*
X148596Y91455D01*
X148587Y91498D01*
X148588Y91542D01*
X148571Y91574D01*
X148557Y91638D01*
X148483Y91738D01*
X148466Y91769D01*
X147057Y93178D01*
X147020Y93202D01*
X146994Y93229D01*
X146993Y93230D01*
X146990Y93233D01*
X146955Y93244D01*
X146899Y93280D01*
X146777Y93298D01*
X146743Y93308D01*
X143806Y93308D01*
X141732Y95382D01*
X141732Y98316D01*
X143806Y100390D01*
X146740Y100390D01*
X148814Y98316D01*
X148814Y95379D01*
X148823Y95336D01*
X148822Y95293D01*
X148839Y95261D01*
X148853Y95196D01*
X148927Y95096D01*
X148944Y95065D01*
X149236Y94773D01*
X149248Y94765D01*
X149257Y94753D01*
X149327Y94715D01*
X149393Y94672D01*
X149408Y94669D01*
X149421Y94662D01*
X149500Y94656D01*
X149578Y94644D01*
X149593Y94648D01*
X149607Y94647D01*
X149682Y94674D01*
X149759Y94696D01*
X149770Y94705D01*
X149784Y94710D01*
X149841Y94765D01*
X149902Y94817D01*
X149908Y94830D01*
X149918Y94840D01*
X149929Y94874D01*
X149982Y94986D01*
X149983Y95052D01*
X149993Y95087D01*
X149993Y95729D01*
X150153Y95889D01*
X150169Y95914D01*
X150191Y95933D01*
X150219Y95992D01*
X150255Y96047D01*
X150259Y96076D01*
X150272Y96102D01*
X150273Y96167D01*
X150282Y96232D01*
X150274Y96260D01*
X150275Y96289D01*
X150256Y96325D01*
X150231Y96412D01*
X150172Y96481D01*
X150153Y96517D01*
X149993Y96677D01*
X149993Y100729D01*
X150153Y100889D01*
X150169Y100914D01*
X150191Y100933D01*
X150219Y100992D01*
X150255Y101047D01*
X150259Y101076D01*
X150272Y101102D01*
X150273Y101167D01*
X150282Y101232D01*
X150274Y101260D01*
X150275Y101289D01*
X150256Y101325D01*
X150231Y101412D01*
X150172Y101481D01*
X150153Y101517D01*
X149993Y101677D01*
X149993Y105729D01*
X150153Y105889D01*
X150169Y105914D01*
X150191Y105933D01*
X150219Y105992D01*
X150255Y106047D01*
X150259Y106076D01*
X150272Y106102D01*
X150273Y106167D01*
X150282Y106232D01*
X150274Y106260D01*
X150275Y106289D01*
X150256Y106325D01*
X150231Y106412D01*
X150172Y106481D01*
X150153Y106517D01*
X149993Y106677D01*
X149993Y110729D01*
X150153Y110889D01*
X150169Y110914D01*
X150191Y110933D01*
X150219Y110992D01*
X150255Y111047D01*
X150259Y111076D01*
X150272Y111102D01*
X150273Y111167D01*
X150282Y111232D01*
X150274Y111260D01*
X150275Y111289D01*
X150256Y111325D01*
X150231Y111412D01*
X150172Y111481D01*
X150153Y111517D01*
X149993Y111677D01*
X149993Y115729D01*
X150153Y115889D01*
X150169Y115914D01*
X150191Y115933D01*
X150219Y115992D01*
X150255Y116047D01*
X150259Y116076D01*
X150272Y116102D01*
X150273Y116167D01*
X150282Y116232D01*
X150274Y116260D01*
X150275Y116289D01*
X150256Y116325D01*
X150231Y116412D01*
X150172Y116481D01*
X150153Y116517D01*
X149993Y116677D01*
X149993Y117554D01*
X149990Y117568D01*
X149992Y117583D01*
X149970Y117659D01*
X149954Y117737D01*
X149945Y117749D01*
X149941Y117763D01*
X149889Y117823D01*
X149842Y117887D01*
X149829Y117894D01*
X149820Y117906D01*
X149748Y117940D01*
X149678Y117978D01*
X149664Y117979D01*
X149650Y117986D01*
X149571Y117987D01*
X149492Y117994D01*
X149478Y117989D01*
X149463Y117989D01*
X149432Y117972D01*
X149315Y117931D01*
X149268Y117884D01*
X149236Y117867D01*
X149003Y117634D01*
X148979Y117598D01*
X148948Y117567D01*
X148937Y117532D01*
X148901Y117477D01*
X148883Y117354D01*
X148873Y117321D01*
X148873Y114739D01*
X148129Y113996D01*
X148113Y113971D01*
X148091Y113952D01*
X148063Y113893D01*
X148028Y113838D01*
X148023Y113809D01*
X148011Y113783D01*
X148010Y113718D01*
X148000Y113653D01*
X148008Y113625D01*
X148008Y113596D01*
X148027Y113560D01*
X148052Y113473D01*
X148110Y113404D01*
X148129Y113368D01*
X148873Y112625D01*
X148873Y109691D01*
X146799Y107617D01*
X143865Y107617D01*
X141791Y109691D01*
X141791Y112625D01*
X142535Y113368D01*
X142551Y113393D01*
X142573Y113412D01*
X142601Y113471D01*
X142636Y113526D01*
X142641Y113555D01*
X142653Y113581D01*
X142654Y113646D01*
X142664Y113711D01*
X142656Y113739D01*
X142656Y113769D01*
X142637Y113804D01*
X142612Y113891D01*
X142564Y113948D01*
X142563Y113951D01*
X142553Y113961D01*
X142535Y113996D01*
X141791Y114739D01*
X141791Y117673D01*
X143848Y119730D01*
X143872Y119766D01*
X143903Y119797D01*
X143914Y119831D01*
X143950Y119887D01*
X143968Y120010D01*
X143978Y120043D01*
X143978Y122273D01*
X143969Y122315D01*
X143970Y122359D01*
X143953Y122391D01*
X143939Y122456D01*
X143865Y122555D01*
X143848Y122586D01*
X141791Y124643D01*
X141791Y127577D01*
X142535Y128320D01*
X142551Y128345D01*
X142573Y128364D01*
X142601Y128423D01*
X142636Y128478D01*
X142641Y128507D01*
X142653Y128533D01*
X142654Y128598D01*
X142664Y128663D01*
X142656Y128691D01*
X142656Y128720D01*
X142637Y128756D01*
X142612Y128843D01*
X142554Y128912D01*
X142535Y128948D01*
X141791Y129691D01*
X141791Y132625D01*
X143865Y134699D01*
X146799Y134699D01*
X148873Y132625D01*
X148873Y129691D01*
X148129Y128948D01*
X148113Y128923D01*
X148091Y128904D01*
X148063Y128845D01*
X148028Y128790D01*
X148023Y128761D01*
X148011Y128735D01*
X148010Y128670D01*
X148000Y128605D01*
X148008Y128577D01*
X148008Y128547D01*
X148027Y128512D01*
X148052Y128425D01*
X148110Y128356D01*
X148129Y128320D01*
X148873Y127577D01*
X148873Y124995D01*
X148882Y124953D01*
X148881Y124909D01*
X148898Y124877D01*
X148912Y124812D01*
X148986Y124713D01*
X149003Y124682D01*
X149236Y124449D01*
X149248Y124441D01*
X149257Y124429D01*
X149326Y124390D01*
X149393Y124347D01*
X149408Y124345D01*
X149421Y124338D01*
X149500Y124331D01*
X149578Y124320D01*
X149593Y124324D01*
X149607Y124322D01*
X149682Y124349D01*
X149759Y124371D01*
X149770Y124380D01*
X149784Y124385D01*
X149841Y124441D01*
X149902Y124492D01*
X149908Y124505D01*
X149918Y124516D01*
X149929Y124550D01*
X149982Y124662D01*
X149983Y124728D01*
X149993Y124762D01*
X149993Y125729D01*
X150153Y125889D01*
X150169Y125914D01*
X150191Y125933D01*
X150219Y125992D01*
X150255Y126047D01*
X150259Y126076D01*
X150272Y126102D01*
X150273Y126167D01*
X150282Y126232D01*
X150274Y126260D01*
X150275Y126289D01*
X150256Y126325D01*
X150231Y126412D01*
X150172Y126481D01*
X150153Y126517D01*
X149993Y126677D01*
X149993Y130729D01*
X150738Y131474D01*
X165633Y131474D01*
X165661Y131480D01*
X165690Y131478D01*
X165752Y131500D01*
X165816Y131513D01*
X165839Y131531D01*
X165867Y131541D01*
X165914Y131586D01*
X165966Y131625D01*
X165980Y131650D01*
X166001Y131671D01*
X166013Y131710D01*
X166057Y131789D01*
X166065Y131879D01*
X166076Y131917D01*
X166076Y135489D01*
X166072Y135509D01*
X166072Y135518D01*
X166071Y135524D01*
X166072Y135546D01*
X166050Y135608D01*
X166037Y135672D01*
X166019Y135695D01*
X166009Y135723D01*
X165964Y135770D01*
X165925Y135822D01*
X165900Y135836D01*
X165879Y135857D01*
X165840Y135869D01*
X165761Y135913D01*
X165671Y135921D01*
X165633Y135932D01*
X150738Y135932D01*
X149993Y136677D01*
X149993Y137588D01*
X149991Y137598D01*
X149993Y137608D01*
X149971Y137689D01*
X149954Y137771D01*
X149948Y137779D01*
X149945Y137789D01*
X149925Y137811D01*
X149842Y137922D01*
X149790Y137951D01*
X149767Y137975D01*
X148927Y138447D01*
X148918Y138457D01*
X148864Y138521D01*
X148854Y138525D01*
X148848Y138533D01*
X148770Y138565D01*
X148694Y138601D01*
X148684Y138601D01*
X148675Y138605D01*
X148591Y138603D01*
X148507Y138604D01*
X148499Y138600D01*
X148488Y138600D01*
X148319Y138518D01*
X148298Y138493D01*
X148280Y138483D01*
X146740Y136943D01*
X143806Y136943D01*
X141732Y139017D01*
X141732Y141950D01*
X143806Y144024D01*
X146486Y144024D01*
X146517Y144031D01*
X146549Y144029D01*
X146608Y144050D01*
X146669Y144064D01*
X146695Y144083D01*
X146725Y144094D01*
X146769Y144138D01*
X146820Y144175D01*
X146835Y144203D01*
X146858Y144226D01*
X146869Y144264D01*
X146911Y144339D01*
X146919Y144434D01*
X146930Y144473D01*
X146927Y144684D01*
X146927Y144685D01*
X146938Y144721D01*
X146938Y151266D01*
X148185Y152513D01*
X148439Y152767D01*
X149686Y154014D01*
X162721Y154014D01*
X162749Y154020D01*
X162778Y154018D01*
X162840Y154040D01*
X162904Y154053D01*
X162927Y154071D01*
X162955Y154081D01*
X163002Y154126D01*
X163054Y154165D01*
X163068Y154190D01*
X163089Y154211D01*
X163101Y154250D01*
X163145Y154329D01*
X163153Y154419D01*
X163164Y154457D01*
X163164Y166688D01*
X163158Y166716D01*
X163160Y166745D01*
X163138Y166807D01*
X163125Y166871D01*
X163107Y166894D01*
X163097Y166922D01*
X163052Y166969D01*
X163013Y167021D01*
X162988Y167035D01*
X162967Y167056D01*
X162928Y167068D01*
X162849Y167112D01*
X162759Y167120D01*
X162721Y167131D01*
X155694Y167131D01*
X155652Y167122D01*
X155608Y167123D01*
X155576Y167106D01*
X155511Y167092D01*
X155412Y167018D01*
X155381Y167001D01*
X153359Y164979D01*
X150425Y164979D01*
X148351Y167053D01*
X148351Y169987D01*
X150425Y172061D01*
X153359Y172061D01*
X154347Y171073D01*
X154382Y171050D01*
X154396Y171035D01*
X154397Y171035D01*
X154414Y171018D01*
X154448Y171007D01*
X154504Y170971D01*
X154627Y170953D01*
X154660Y170943D01*
X162721Y170943D01*
X162749Y170949D01*
X162778Y170947D01*
X162840Y170969D01*
X162904Y170982D01*
X162927Y171000D01*
X162955Y171010D01*
X163002Y171055D01*
X163054Y171094D01*
X163068Y171119D01*
X163089Y171140D01*
X163101Y171179D01*
X163145Y171258D01*
X163153Y171348D01*
X163164Y171386D01*
X163164Y174174D01*
X163158Y174202D01*
X163160Y174231D01*
X163138Y174293D01*
X163125Y174357D01*
X163107Y174380D01*
X163097Y174408D01*
X163052Y174455D01*
X163013Y174507D01*
X162988Y174521D01*
X162967Y174542D01*
X162928Y174554D01*
X162849Y174598D01*
X162759Y174606D01*
X162721Y174617D01*
X151105Y174617D01*
X150360Y175362D01*
X150360Y183388D01*
X150354Y183416D01*
X150356Y183443D01*
X150356Y183444D01*
X150356Y183446D01*
X150334Y183507D01*
X150321Y183571D01*
X150303Y183595D01*
X150293Y183622D01*
X150248Y183669D01*
X150209Y183722D01*
X150184Y183736D01*
X150163Y183757D01*
X150124Y183769D01*
X150045Y183813D01*
X149955Y183820D01*
X149917Y183832D01*
X149090Y183832D01*
X149090Y191940D01*
X150579Y193429D01*
X180256Y193429D01*
X180489Y193196D01*
X180585Y193127D01*
X180678Y193058D01*
X180684Y193056D01*
X180689Y193052D01*
X180801Y193018D01*
X180912Y192982D01*
X180918Y192982D01*
X180924Y192980D01*
X181041Y192983D01*
X181158Y192984D01*
X181165Y192986D01*
X181170Y192986D01*
X181187Y192993D01*
X181319Y193031D01*
X182280Y193429D01*
X186274Y193429D01*
X189965Y191900D01*
X192789Y189076D01*
X194318Y185385D01*
X194318Y183832D01*
X193491Y183832D01*
X193463Y183826D01*
X193434Y183828D01*
X193372Y183806D01*
X193308Y183792D01*
X193285Y183775D01*
X193257Y183765D01*
X193210Y183719D01*
X193158Y183681D01*
X193144Y183655D01*
X193123Y183635D01*
X193111Y183596D01*
X193067Y183517D01*
X193059Y183427D01*
X193048Y183388D01*
X193048Y181643D01*
X191712Y178420D01*
X189245Y175953D01*
X186022Y174617D01*
X182532Y174617D01*
X180825Y175325D01*
X180789Y175331D01*
X180756Y175347D01*
X180698Y175348D01*
X180641Y175358D01*
X180605Y175349D01*
X180569Y175350D01*
X180534Y175331D01*
X180459Y175313D01*
X180376Y175247D01*
X180341Y175228D01*
X179730Y174617D01*
X177149Y174617D01*
X177121Y174611D01*
X177092Y174613D01*
X177030Y174591D01*
X176966Y174578D01*
X176943Y174560D01*
X176915Y174550D01*
X176868Y174505D01*
X176816Y174466D01*
X176802Y174441D01*
X176781Y174420D01*
X176769Y174381D01*
X176725Y174302D01*
X176717Y174212D01*
X176706Y174174D01*
X176706Y153644D01*
X176711Y153619D01*
X176710Y153596D01*
X176710Y153595D01*
X176710Y153587D01*
X176732Y153525D01*
X176745Y153461D01*
X176763Y153438D01*
X176773Y153410D01*
X176818Y153363D01*
X176857Y153311D01*
X176882Y153297D01*
X176903Y153276D01*
X176942Y153264D01*
X177021Y153220D01*
X177111Y153212D01*
X177149Y153201D01*
X178873Y153201D01*
X179044Y153030D01*
X179069Y153014D01*
X179088Y152992D01*
X179147Y152964D01*
X179202Y152928D01*
X179231Y152924D01*
X179257Y152911D01*
X179322Y152910D01*
X179387Y152901D01*
X179415Y152909D01*
X179445Y152908D01*
X179480Y152927D01*
X179567Y152952D01*
X179610Y152989D01*
X192251Y152989D01*
X192294Y152998D01*
X192337Y152997D01*
X192369Y153014D01*
X192434Y153028D01*
X192533Y153102D01*
X192565Y153119D01*
X192775Y153329D01*
X192799Y153366D01*
X192830Y153397D01*
X192841Y153431D01*
X192877Y153487D01*
X192881Y153517D01*
X192886Y153525D01*
X192891Y153579D01*
X192895Y153609D01*
X192905Y153643D01*
X192905Y174523D01*
X193650Y175268D01*
X201676Y175268D01*
X201705Y175274D01*
X201734Y175272D01*
X201795Y175294D01*
X201859Y175307D01*
X201883Y175325D01*
X201910Y175335D01*
X201957Y175380D01*
X202010Y175419D01*
X202024Y175444D01*
X202045Y175465D01*
X202057Y175504D01*
X202101Y175583D01*
X202108Y175673D01*
X202120Y175711D01*
X202120Y176538D01*
X210228Y176538D01*
X211717Y175049D01*
X211717Y107653D01*
X210228Y106164D01*
X202120Y106164D01*
X202120Y106991D01*
X202114Y107019D01*
X202116Y107048D01*
X202094Y107110D01*
X202080Y107174D01*
X202063Y107197D01*
X202053Y107225D01*
X202007Y107272D01*
X201969Y107324D01*
X201943Y107338D01*
X201923Y107359D01*
X201884Y107371D01*
X201805Y107415D01*
X201715Y107423D01*
X201676Y107434D01*
X193650Y107434D01*
X192905Y108179D01*
X192905Y116807D01*
X192899Y116835D01*
X192901Y116864D01*
X192879Y116926D01*
X192866Y116990D01*
X192848Y117013D01*
X192838Y117041D01*
X192793Y117088D01*
X192754Y117140D01*
X192729Y117154D01*
X192708Y117175D01*
X192669Y117187D01*
X192590Y117231D01*
X192500Y117239D01*
X192462Y117250D01*
X191272Y117250D01*
X191263Y117253D01*
X191207Y117289D01*
X191085Y117307D01*
X191051Y117317D01*
X183498Y117317D01*
X183470Y117311D01*
X183441Y117313D01*
X183379Y117291D01*
X183315Y117278D01*
X183292Y117260D01*
X183264Y117250D01*
X183217Y117205D01*
X183165Y117166D01*
X183151Y117141D01*
X183130Y117120D01*
X183118Y117081D01*
X183074Y117002D01*
X183066Y116912D01*
X183055Y116874D01*
X183055Y105725D01*
X182310Y104980D01*
X171258Y104980D01*
X170513Y105725D01*
X170513Y109973D01*
X170507Y110002D01*
X170509Y110031D01*
X170487Y110092D01*
X170474Y110156D01*
X170456Y110180D01*
X170446Y110207D01*
X170401Y110254D01*
X170362Y110307D01*
X170337Y110321D01*
X170316Y110342D01*
X170277Y110354D01*
X170198Y110398D01*
X170108Y110405D01*
X170070Y110417D01*
X168434Y110417D01*
X168392Y110408D01*
X168348Y110408D01*
X168316Y110391D01*
X168251Y110377D01*
X168152Y110304D01*
X168121Y110287D01*
X167665Y109831D01*
X167641Y109794D01*
X167610Y109764D01*
X167599Y109729D01*
X167563Y109674D01*
X167545Y109551D01*
X167535Y109517D01*
X167535Y106677D01*
X167375Y106517D01*
X167359Y106492D01*
X167337Y106473D01*
X167309Y106414D01*
X167273Y106359D01*
X167269Y106330D01*
X167256Y106304D01*
X167255Y106239D01*
X167246Y106174D01*
X167254Y106146D01*
X167253Y106116D01*
X167272Y106081D01*
X167297Y105994D01*
X167340Y105943D01*
X167342Y105939D01*
X167357Y105923D01*
X167375Y105889D01*
X167535Y105729D01*
X167535Y105481D01*
X167541Y105452D01*
X167539Y105423D01*
X167561Y105362D01*
X167574Y105298D01*
X167592Y105274D01*
X167602Y105247D01*
X167647Y105200D01*
X167686Y105147D01*
X167711Y105133D01*
X167732Y105112D01*
X167771Y105100D01*
X167850Y105056D01*
X167940Y105049D01*
X167978Y105037D01*
X168385Y105037D01*
X171770Y101652D01*
X171807Y101628D01*
X171837Y101597D01*
X171872Y101586D01*
X171928Y101550D01*
X172050Y101532D01*
X172084Y101522D01*
X193359Y101522D01*
X194104Y100777D01*
X194104Y88725D01*
X193359Y87980D01*
X186038Y87980D01*
X186010Y87974D01*
X185981Y87976D01*
X185919Y87954D01*
X185855Y87941D01*
X185832Y87923D01*
X185804Y87913D01*
X185757Y87868D01*
X185705Y87829D01*
X185691Y87804D01*
X185670Y87783D01*
X185658Y87744D01*
X185647Y87725D01*
X185333Y87411D01*
X185325Y87399D01*
X185314Y87390D01*
X185275Y87321D01*
X185232Y87254D01*
X185230Y87239D01*
X185223Y87226D01*
X185216Y87147D01*
X185204Y87069D01*
X185208Y87054D01*
X185207Y87040D01*
X185234Y86965D01*
X185256Y86888D01*
X185265Y86877D01*
X185270Y86863D01*
X185326Y86806D01*
X185377Y86745D01*
X185390Y86739D01*
X185401Y86729D01*
X185435Y86718D01*
X185546Y86665D01*
X185613Y86664D01*
X185647Y86654D01*
X193350Y86654D01*
X194095Y85909D01*
X194095Y73857D01*
X193350Y73112D01*
X182298Y73112D01*
X181553Y73857D01*
X181553Y74588D01*
X181550Y74602D01*
X181552Y74617D01*
X181530Y74693D01*
X181514Y74771D01*
X181505Y74783D01*
X181501Y74797D01*
X181449Y74857D01*
X181402Y74921D01*
X181389Y74928D01*
X181380Y74940D01*
X181308Y74974D01*
X181238Y75012D01*
X181224Y75013D01*
X181210Y75020D01*
X181131Y75021D01*
X181052Y75028D01*
X181038Y75023D01*
X181023Y75023D01*
X180992Y75006D01*
X180875Y74965D01*
X180828Y74918D01*
X180796Y74901D01*
X180450Y74555D01*
X179953Y74555D01*
X179910Y74546D01*
X179866Y74547D01*
X179834Y74530D01*
X179770Y74516D01*
X179670Y74442D01*
X179639Y74425D01*
X177225Y72011D01*
X177201Y71974D01*
X177170Y71944D01*
X177159Y71909D01*
X177123Y71853D01*
X177105Y71731D01*
X177095Y71697D01*
X177095Y52596D01*
X177098Y52582D01*
X177096Y52567D01*
X177118Y52490D01*
X177134Y52413D01*
X177143Y52401D01*
X177147Y52387D01*
X177199Y52326D01*
X177246Y52262D01*
X177259Y52255D01*
X177268Y52244D01*
X177340Y52210D01*
X177410Y52171D01*
X177424Y52170D01*
X177438Y52164D01*
X177517Y52163D01*
X177596Y52156D01*
X177610Y52161D01*
X177625Y52161D01*
X177656Y52178D01*
X177773Y52219D01*
X177820Y52265D01*
X177852Y52282D01*
X181423Y55853D01*
X181447Y55890D01*
X181478Y55921D01*
X181489Y55955D01*
X181525Y56011D01*
X181543Y56133D01*
X181553Y56167D01*
X181553Y61779D01*
X182298Y62524D01*
X193350Y62524D01*
X194095Y61779D01*
X194095Y49727D01*
X193350Y48982D01*
X182298Y48982D01*
X181434Y49846D01*
X181409Y49862D01*
X181390Y49884D01*
X181331Y49912D01*
X181276Y49948D01*
X181247Y49952D01*
X181221Y49964D01*
X181156Y49966D01*
X181091Y49975D01*
X181063Y49967D01*
X181034Y49968D01*
X180998Y49949D01*
X180911Y49924D01*
X180842Y49865D01*
X180806Y49846D01*
X178649Y47689D01*
X177402Y46442D01*
X171751Y46442D01*
X171723Y46436D01*
X171694Y46438D01*
X171632Y46416D01*
X171568Y46403D01*
X171545Y46385D01*
X171517Y46375D01*
X171470Y46330D01*
X171418Y46291D01*
X171404Y46266D01*
X171383Y46245D01*
X171371Y46206D01*
X171327Y46127D01*
X171319Y46037D01*
X171308Y45999D01*
X171308Y45627D01*
X169234Y43553D01*
X166300Y43553D01*
G37*
%LPD*%
G36*
X151741Y294459D02*
X151741Y294459D01*
X151785Y294459D01*
X151817Y294476D01*
X151826Y294478D01*
X183432Y294478D01*
X183548Y294461D01*
X183582Y294450D01*
X191389Y294450D01*
X191418Y294456D01*
X191447Y294454D01*
X191508Y294476D01*
X191572Y294490D01*
X191596Y294507D01*
X191623Y294517D01*
X191670Y294563D01*
X191723Y294601D01*
X191737Y294627D01*
X191758Y294647D01*
X191770Y294686D01*
X191814Y294765D01*
X191821Y294855D01*
X191833Y294894D01*
X191833Y341058D01*
X191827Y341082D01*
X191829Y341102D01*
X191828Y341104D01*
X191829Y341115D01*
X191807Y341177D01*
X191793Y341241D01*
X191776Y341264D01*
X191766Y341292D01*
X191720Y341339D01*
X191682Y341391D01*
X191656Y341405D01*
X191636Y341426D01*
X191597Y341438D01*
X191518Y341482D01*
X191428Y341490D01*
X191389Y341501D01*
X183757Y341501D01*
X183012Y342246D01*
X183012Y350158D01*
X183757Y350903D01*
X191389Y350903D01*
X191418Y350909D01*
X191447Y350907D01*
X191508Y350929D01*
X191572Y350942D01*
X191596Y350960D01*
X191623Y350970D01*
X191670Y351015D01*
X191723Y351054D01*
X191737Y351079D01*
X191758Y351100D01*
X191770Y351139D01*
X191814Y351218D01*
X191821Y351308D01*
X191833Y351346D01*
X191833Y362585D01*
X191827Y362614D01*
X191829Y362643D01*
X191807Y362704D01*
X191793Y362768D01*
X191776Y362792D01*
X191766Y362819D01*
X191720Y362866D01*
X191682Y362919D01*
X191656Y362933D01*
X191636Y362954D01*
X191597Y362966D01*
X191518Y363010D01*
X191428Y363017D01*
X191389Y363029D01*
X140462Y363029D01*
X140433Y363023D01*
X140404Y363025D01*
X140343Y363003D01*
X140279Y362989D01*
X140255Y362972D01*
X140228Y362962D01*
X140181Y362916D01*
X140128Y362878D01*
X140114Y362852D01*
X140093Y362832D01*
X140081Y362793D01*
X140037Y362714D01*
X140030Y362624D01*
X140018Y362585D01*
X140018Y350781D01*
X140023Y350759D01*
X140022Y350749D01*
X140027Y350734D01*
X140027Y350694D01*
X140044Y350662D01*
X140058Y350598D01*
X140132Y350498D01*
X140148Y350467D01*
X140457Y350158D01*
X140457Y342246D01*
X140148Y341937D01*
X140125Y341900D01*
X140093Y341870D01*
X140083Y341835D01*
X140047Y341780D01*
X140029Y341657D01*
X140018Y341623D01*
X140018Y341165D01*
X140027Y341122D01*
X140027Y341078D01*
X140044Y341046D01*
X140058Y340982D01*
X140132Y340882D01*
X140148Y340851D01*
X144654Y336345D01*
X144654Y311831D01*
X144663Y311789D01*
X144662Y311745D01*
X144679Y311713D01*
X144693Y311648D01*
X144767Y311549D01*
X144784Y311518D01*
X146289Y310013D01*
X146289Y307079D01*
X144215Y305005D01*
X141281Y305005D01*
X141214Y305072D01*
X141202Y305080D01*
X141193Y305092D01*
X141124Y305131D01*
X141057Y305174D01*
X141042Y305176D01*
X141029Y305183D01*
X140950Y305190D01*
X140872Y305201D01*
X140857Y305197D01*
X140843Y305199D01*
X140768Y305172D01*
X140691Y305150D01*
X140680Y305140D01*
X140666Y305136D01*
X140609Y305080D01*
X140548Y305029D01*
X140542Y305016D01*
X140532Y305005D01*
X140521Y304971D01*
X140468Y304859D01*
X140467Y304793D01*
X140457Y304759D01*
X140457Y295504D01*
X140466Y295462D01*
X140465Y295418D01*
X140482Y295386D01*
X140496Y295321D01*
X140570Y295222D01*
X140587Y295191D01*
X141030Y294747D01*
X141055Y294731D01*
X141074Y294709D01*
X141133Y294681D01*
X141188Y294645D01*
X141217Y294641D01*
X141243Y294628D01*
X141309Y294627D01*
X141373Y294618D01*
X141401Y294626D01*
X141431Y294625D01*
X141466Y294644D01*
X141553Y294669D01*
X141622Y294728D01*
X141658Y294747D01*
X142822Y295911D01*
X145756Y295911D01*
X147087Y294580D01*
X147123Y294557D01*
X147154Y294525D01*
X147188Y294515D01*
X147244Y294479D01*
X147367Y294461D01*
X147400Y294450D01*
X151698Y294450D01*
X151741Y294459D01*
G37*
G36*
X137014Y294459D02*
X137014Y294459D01*
X137058Y294459D01*
X137090Y294476D01*
X137154Y294490D01*
X137254Y294564D01*
X137285Y294580D01*
X137774Y295070D01*
X138684Y295070D01*
X138713Y295076D01*
X138742Y295074D01*
X138803Y295096D01*
X138867Y295109D01*
X138891Y295127D01*
X138918Y295137D01*
X138965Y295182D01*
X139018Y295221D01*
X139032Y295246D01*
X139053Y295267D01*
X139065Y295306D01*
X139109Y295385D01*
X139116Y295475D01*
X139128Y295513D01*
X139128Y336297D01*
X139119Y336340D01*
X139119Y336384D01*
X139102Y336416D01*
X139088Y336480D01*
X139015Y336580D01*
X138998Y336611D01*
X134238Y341371D01*
X134202Y341394D01*
X134184Y341413D01*
X134183Y341413D01*
X134170Y341426D01*
X134136Y341437D01*
X134080Y341473D01*
X133958Y341491D01*
X133924Y341501D01*
X131560Y341501D01*
X130815Y342246D01*
X130815Y350158D01*
X131560Y350903D01*
X138657Y350903D01*
X138685Y350909D01*
X138714Y350907D01*
X138776Y350929D01*
X138840Y350942D01*
X138863Y350960D01*
X138891Y350970D01*
X138938Y351015D01*
X138990Y351054D01*
X139004Y351079D01*
X139025Y351100D01*
X139037Y351139D01*
X139081Y351218D01*
X139089Y351308D01*
X139100Y351346D01*
X139100Y362585D01*
X139094Y362614D01*
X139096Y362643D01*
X139074Y362704D01*
X139061Y362768D01*
X139043Y362792D01*
X139033Y362819D01*
X138988Y362866D01*
X138949Y362919D01*
X138924Y362933D01*
X138903Y362954D01*
X138864Y362966D01*
X138785Y363010D01*
X138695Y363017D01*
X138657Y363029D01*
X88773Y363029D01*
X88744Y363023D01*
X88715Y363025D01*
X88654Y363003D01*
X88590Y362989D01*
X88566Y362972D01*
X88539Y362962D01*
X88492Y362916D01*
X88439Y362878D01*
X88425Y362852D01*
X88404Y362832D01*
X88392Y362793D01*
X88348Y362714D01*
X88341Y362624D01*
X88329Y362585D01*
X88329Y340657D01*
X88338Y340614D01*
X88338Y340570D01*
X88355Y340538D01*
X88369Y340474D01*
X88442Y340374D01*
X88459Y340343D01*
X89553Y339249D01*
X90800Y338002D01*
X90800Y309609D01*
X90806Y309581D01*
X90804Y309552D01*
X90826Y309490D01*
X90839Y309426D01*
X90857Y309403D01*
X90867Y309375D01*
X90912Y309328D01*
X90951Y309276D01*
X90976Y309262D01*
X90997Y309241D01*
X91036Y309229D01*
X91115Y309185D01*
X91205Y309177D01*
X91243Y309166D01*
X92018Y309166D01*
X94092Y307092D01*
X94092Y304158D01*
X92018Y302084D01*
X89083Y302084D01*
X89074Y302090D01*
X89066Y302102D01*
X88996Y302140D01*
X88929Y302183D01*
X88915Y302186D01*
X88902Y302193D01*
X88823Y302199D01*
X88744Y302211D01*
X88730Y302207D01*
X88715Y302208D01*
X88640Y302181D01*
X88564Y302160D01*
X88553Y302150D01*
X88539Y302145D01*
X88482Y302090D01*
X88421Y302038D01*
X88415Y302025D01*
X88404Y302015D01*
X88394Y301981D01*
X88341Y301869D01*
X88340Y301803D01*
X88329Y301768D01*
X88329Y294961D01*
X88332Y294946D01*
X88330Y294932D01*
X88352Y294855D01*
X88369Y294777D01*
X88378Y294766D01*
X88382Y294751D01*
X88433Y294691D01*
X88480Y294627D01*
X88493Y294620D01*
X88503Y294609D01*
X88575Y294575D01*
X88644Y294536D01*
X88659Y294535D01*
X88672Y294528D01*
X88752Y294527D01*
X88831Y294521D01*
X88845Y294526D01*
X88860Y294525D01*
X88891Y294542D01*
X89007Y294584D01*
X89055Y294630D01*
X89087Y294647D01*
X89172Y294732D01*
X126474Y294732D01*
X126626Y294580D01*
X126663Y294557D01*
X126693Y294525D01*
X126728Y294515D01*
X126783Y294479D01*
X126906Y294461D01*
X126940Y294450D01*
X136971Y294450D01*
X137014Y294459D01*
G37*
G36*
X43029Y294459D02*
X43029Y294459D01*
X43073Y294459D01*
X43105Y294476D01*
X43169Y294490D01*
X43269Y294564D01*
X43300Y294580D01*
X43325Y294605D01*
X74785Y294605D01*
X74810Y294580D01*
X74847Y294557D01*
X74877Y294525D01*
X74912Y294515D01*
X74967Y294479D01*
X75090Y294461D01*
X75124Y294450D01*
X83709Y294450D01*
X83752Y294459D01*
X83796Y294459D01*
X83828Y294476D01*
X83892Y294490D01*
X83992Y294564D01*
X84023Y294580D01*
X84768Y295326D01*
X86995Y295326D01*
X87024Y295332D01*
X87053Y295330D01*
X87114Y295352D01*
X87178Y295365D01*
X87202Y295383D01*
X87229Y295393D01*
X87276Y295438D01*
X87329Y295477D01*
X87343Y295502D01*
X87364Y295523D01*
X87376Y295562D01*
X87420Y295641D01*
X87427Y295731D01*
X87439Y295769D01*
X87439Y303546D01*
X87430Y303589D01*
X87430Y303633D01*
X87413Y303665D01*
X87399Y303729D01*
X87326Y303829D01*
X87309Y303860D01*
X87010Y304158D01*
X87010Y306287D01*
X87001Y306329D01*
X87002Y306373D01*
X86988Y306399D01*
X86988Y336240D01*
X86979Y336283D01*
X86980Y336326D01*
X86963Y336358D01*
X86949Y336423D01*
X86875Y336522D01*
X86858Y336554D01*
X82041Y341371D01*
X82005Y341394D01*
X81987Y341413D01*
X81986Y341413D01*
X81973Y341426D01*
X81939Y341437D01*
X81883Y341473D01*
X81761Y341491D01*
X81727Y341501D01*
X79363Y341501D01*
X78618Y342246D01*
X78618Y350158D01*
X79363Y350903D01*
X86460Y350903D01*
X86488Y350909D01*
X86517Y350907D01*
X86579Y350929D01*
X86643Y350942D01*
X86666Y350960D01*
X86694Y350970D01*
X86741Y351015D01*
X86793Y351054D01*
X86807Y351079D01*
X86828Y351100D01*
X86840Y351139D01*
X86884Y351218D01*
X86892Y351308D01*
X86903Y351346D01*
X86903Y362585D01*
X86897Y362614D01*
X86899Y362643D01*
X86877Y362704D01*
X86864Y362768D01*
X86846Y362792D01*
X86836Y362819D01*
X86791Y362866D01*
X86752Y362919D01*
X86727Y362933D01*
X86706Y362954D01*
X86667Y362966D01*
X86588Y363010D01*
X86498Y363017D01*
X86460Y363029D01*
X40710Y363029D01*
X40682Y363023D01*
X40653Y363025D01*
X40591Y363003D01*
X40527Y362989D01*
X40504Y362972D01*
X40476Y362962D01*
X40429Y362916D01*
X40377Y362878D01*
X40363Y362852D01*
X40342Y362832D01*
X40330Y362793D01*
X40286Y362714D01*
X40278Y362624D01*
X40267Y362585D01*
X40267Y344780D01*
X39945Y344458D01*
X39939Y344449D01*
X39931Y344443D01*
X39917Y344417D01*
X39890Y344391D01*
X39880Y344356D01*
X39844Y344301D01*
X39841Y344280D01*
X39840Y344279D01*
X39840Y344276D01*
X39826Y344178D01*
X39815Y344144D01*
X39815Y335052D01*
X39824Y335009D01*
X39824Y334965D01*
X39841Y334933D01*
X39855Y334869D01*
X39929Y334769D01*
X39945Y334738D01*
X40267Y334416D01*
X40267Y294894D01*
X40273Y294865D01*
X40271Y294836D01*
X40293Y294775D01*
X40306Y294711D01*
X40324Y294687D01*
X40334Y294660D01*
X40379Y294613D01*
X40418Y294560D01*
X40443Y294546D01*
X40464Y294525D01*
X40503Y294513D01*
X40582Y294469D01*
X40672Y294462D01*
X40710Y294450D01*
X42986Y294450D01*
X43029Y294459D01*
G37*
%LPC*%
G36*
X95987Y174617D02*
X95987Y174617D01*
X95242Y175362D01*
X95242Y183388D01*
X95236Y183416D01*
X95238Y183443D01*
X95238Y183444D01*
X95238Y183446D01*
X95216Y183507D01*
X95203Y183571D01*
X95185Y183595D01*
X95175Y183622D01*
X95130Y183669D01*
X95091Y183722D01*
X95066Y183736D01*
X95045Y183757D01*
X95006Y183769D01*
X94927Y183813D01*
X94837Y183820D01*
X94799Y183832D01*
X93972Y183832D01*
X93972Y191940D01*
X95461Y193429D01*
X137711Y193429D01*
X139200Y191940D01*
X139200Y183832D01*
X138373Y183832D01*
X138345Y183826D01*
X138316Y183828D01*
X138254Y183806D01*
X138190Y183792D01*
X138167Y183775D01*
X138139Y183765D01*
X138092Y183719D01*
X138040Y183681D01*
X138026Y183655D01*
X138005Y183635D01*
X137993Y183596D01*
X137949Y183517D01*
X137941Y183427D01*
X137930Y183388D01*
X137930Y175362D01*
X137185Y174617D01*
X95987Y174617D01*
G37*
%LPD*%
%LPC*%
G36*
X127137Y204644D02*
X127137Y204644D01*
X125648Y206133D01*
X125648Y206423D01*
X125645Y206443D01*
X125647Y206462D01*
X125625Y206564D01*
X125609Y206666D01*
X125599Y206683D01*
X125595Y206703D01*
X125542Y206792D01*
X125493Y206883D01*
X125479Y206897D01*
X125469Y206914D01*
X125390Y206981D01*
X125315Y207053D01*
X125297Y207061D01*
X125282Y207074D01*
X125186Y207113D01*
X125092Y207156D01*
X125072Y207158D01*
X125054Y207166D01*
X124887Y207184D01*
X124563Y207184D01*
X124563Y209822D01*
X124560Y209841D01*
X124562Y209861D01*
X124540Y209963D01*
X124524Y210065D01*
X124514Y210082D01*
X124510Y210102D01*
X124463Y210180D01*
X124492Y210250D01*
X124535Y210343D01*
X124537Y210363D01*
X124545Y210381D01*
X124563Y210548D01*
X124563Y213186D01*
X124887Y213186D01*
X124907Y213189D01*
X124926Y213187D01*
X125028Y213209D01*
X125130Y213225D01*
X125147Y213235D01*
X125167Y213239D01*
X125256Y213292D01*
X125347Y213341D01*
X125361Y213355D01*
X125378Y213365D01*
X125445Y213444D01*
X125517Y213519D01*
X125525Y213537D01*
X125538Y213552D01*
X125577Y213648D01*
X125620Y213742D01*
X125622Y213762D01*
X125630Y213780D01*
X125648Y213947D01*
X125648Y214237D01*
X127137Y215726D01*
X130369Y215726D01*
X130389Y215729D01*
X130408Y215727D01*
X130510Y215749D01*
X130612Y215765D01*
X130629Y215775D01*
X130649Y215779D01*
X130738Y215832D01*
X130829Y215881D01*
X130843Y215895D01*
X130860Y215905D01*
X130927Y215984D01*
X130999Y216059D01*
X131007Y216077D01*
X131020Y216092D01*
X131059Y216188D01*
X131102Y216282D01*
X131104Y216302D01*
X131112Y216320D01*
X131130Y216487D01*
X131130Y217968D01*
X134034Y220872D01*
X134045Y220888D01*
X134061Y220900D01*
X134117Y220988D01*
X134177Y221071D01*
X134183Y221090D01*
X134194Y221107D01*
X134219Y221208D01*
X134250Y221307D01*
X134249Y221326D01*
X134254Y221346D01*
X134246Y221449D01*
X134243Y221552D01*
X134236Y221571D01*
X134235Y221591D01*
X134195Y221686D01*
X134159Y221783D01*
X134146Y221799D01*
X134139Y221817D01*
X134034Y221948D01*
X131130Y224852D01*
X131130Y226383D01*
X131127Y226403D01*
X131129Y226422D01*
X131107Y226524D01*
X131091Y226626D01*
X131081Y226643D01*
X131077Y226663D01*
X131024Y226752D01*
X130975Y226843D01*
X130961Y226857D01*
X130951Y226874D01*
X130872Y226941D01*
X130797Y227013D01*
X130779Y227021D01*
X130764Y227034D01*
X130668Y227073D01*
X130574Y227116D01*
X130554Y227118D01*
X130536Y227126D01*
X130369Y227144D01*
X127137Y227144D01*
X125648Y228633D01*
X125648Y228923D01*
X125645Y228943D01*
X125647Y228962D01*
X125625Y229064D01*
X125609Y229166D01*
X125599Y229183D01*
X125595Y229203D01*
X125542Y229292D01*
X125493Y229383D01*
X125479Y229397D01*
X125469Y229414D01*
X125390Y229481D01*
X125315Y229553D01*
X125297Y229561D01*
X125282Y229574D01*
X125186Y229613D01*
X125092Y229656D01*
X125072Y229658D01*
X125054Y229666D01*
X124887Y229684D01*
X124563Y229684D01*
X124563Y232322D01*
X124560Y232341D01*
X124562Y232361D01*
X124540Y232462D01*
X124524Y232565D01*
X124514Y232582D01*
X124510Y232602D01*
X124463Y232680D01*
X124492Y232750D01*
X124535Y232843D01*
X124537Y232863D01*
X124545Y232881D01*
X124563Y233048D01*
X124563Y235686D01*
X124887Y235686D01*
X124907Y235689D01*
X124926Y235687D01*
X125028Y235709D01*
X125130Y235725D01*
X125147Y235735D01*
X125167Y235739D01*
X125256Y235792D01*
X125347Y235841D01*
X125361Y235855D01*
X125378Y235865D01*
X125445Y235944D01*
X125517Y236019D01*
X125525Y236037D01*
X125538Y236052D01*
X125577Y236148D01*
X125620Y236242D01*
X125622Y236262D01*
X125630Y236280D01*
X125648Y236447D01*
X125648Y236737D01*
X127137Y238226D01*
X150741Y238226D01*
X152230Y236737D01*
X152230Y236447D01*
X152233Y236427D01*
X152231Y236408D01*
X152253Y236306D01*
X152269Y236204D01*
X152279Y236187D01*
X152283Y236167D01*
X152336Y236078D01*
X152385Y235987D01*
X152399Y235973D01*
X152409Y235956D01*
X152488Y235889D01*
X152563Y235817D01*
X152581Y235809D01*
X152596Y235796D01*
X152692Y235757D01*
X152786Y235714D01*
X152806Y235712D01*
X152824Y235704D01*
X152991Y235686D01*
X153315Y235686D01*
X153315Y233048D01*
X153318Y233029D01*
X153316Y233009D01*
X153338Y232907D01*
X153354Y232805D01*
X153364Y232788D01*
X153368Y232768D01*
X153415Y232690D01*
X153386Y232620D01*
X153343Y232527D01*
X153341Y232507D01*
X153333Y232489D01*
X153315Y232322D01*
X153315Y229684D01*
X152991Y229684D01*
X152971Y229681D01*
X152952Y229683D01*
X152851Y229661D01*
X152748Y229645D01*
X152731Y229635D01*
X152711Y229631D01*
X152622Y229578D01*
X152531Y229529D01*
X152517Y229515D01*
X152500Y229505D01*
X152433Y229426D01*
X152362Y229351D01*
X152353Y229333D01*
X152340Y229318D01*
X152301Y229222D01*
X152258Y229128D01*
X152256Y229108D01*
X152248Y229090D01*
X152230Y228923D01*
X152230Y228633D01*
X150741Y227144D01*
X146561Y227144D01*
X146541Y227141D01*
X146522Y227143D01*
X146420Y227121D01*
X146318Y227105D01*
X146301Y227095D01*
X146281Y227091D01*
X146192Y227038D01*
X146101Y226989D01*
X146087Y226975D01*
X146070Y226965D01*
X146003Y226886D01*
X145931Y226811D01*
X145923Y226793D01*
X145910Y226778D01*
X145871Y226682D01*
X145828Y226588D01*
X145826Y226568D01*
X145818Y226550D01*
X145800Y226383D01*
X145800Y225800D01*
X142982Y222982D01*
X139197Y222982D01*
X139107Y222967D01*
X139016Y222960D01*
X138986Y222947D01*
X138954Y222942D01*
X138874Y222899D01*
X138790Y222864D01*
X138758Y222838D01*
X138737Y222827D01*
X138715Y222804D01*
X138659Y222759D01*
X137848Y221948D01*
X137837Y221932D01*
X137821Y221920D01*
X137765Y221832D01*
X137705Y221749D01*
X137699Y221730D01*
X137688Y221713D01*
X137663Y221612D01*
X137632Y221513D01*
X137633Y221494D01*
X137628Y221474D01*
X137636Y221371D01*
X137639Y221268D01*
X137646Y221249D01*
X137647Y221229D01*
X137687Y221134D01*
X137723Y221037D01*
X137736Y221021D01*
X137743Y221003D01*
X137848Y220872D01*
X138659Y220061D01*
X138733Y220008D01*
X138802Y219949D01*
X138832Y219936D01*
X138858Y219918D01*
X138945Y219891D01*
X139030Y219857D01*
X139071Y219852D01*
X139094Y219845D01*
X139126Y219846D01*
X139197Y219838D01*
X142982Y219838D01*
X145800Y217020D01*
X145800Y216487D01*
X145803Y216467D01*
X145801Y216448D01*
X145823Y216346D01*
X145839Y216244D01*
X145849Y216227D01*
X145853Y216207D01*
X145906Y216118D01*
X145955Y216027D01*
X145969Y216013D01*
X145979Y215996D01*
X146058Y215929D01*
X146133Y215857D01*
X146151Y215849D01*
X146166Y215836D01*
X146262Y215797D01*
X146356Y215754D01*
X146376Y215752D01*
X146394Y215744D01*
X146561Y215726D01*
X150741Y215726D01*
X152230Y214237D01*
X152230Y213947D01*
X152233Y213927D01*
X152231Y213908D01*
X152253Y213806D01*
X152269Y213704D01*
X152279Y213687D01*
X152283Y213667D01*
X152336Y213578D01*
X152385Y213487D01*
X152399Y213473D01*
X152409Y213456D01*
X152488Y213389D01*
X152563Y213317D01*
X152581Y213309D01*
X152596Y213296D01*
X152692Y213257D01*
X152786Y213214D01*
X152806Y213212D01*
X152824Y213204D01*
X152991Y213186D01*
X153315Y213186D01*
X153315Y210548D01*
X153318Y210529D01*
X153316Y210509D01*
X153338Y210407D01*
X153354Y210305D01*
X153364Y210288D01*
X153368Y210268D01*
X153415Y210190D01*
X153386Y210120D01*
X153343Y210027D01*
X153341Y210007D01*
X153333Y209989D01*
X153315Y209822D01*
X153315Y207184D01*
X152991Y207184D01*
X152971Y207181D01*
X152952Y207183D01*
X152851Y207161D01*
X152748Y207145D01*
X152731Y207135D01*
X152711Y207131D01*
X152622Y207078D01*
X152531Y207029D01*
X152517Y207015D01*
X152500Y207005D01*
X152433Y206926D01*
X152362Y206851D01*
X152353Y206833D01*
X152340Y206818D01*
X152301Y206722D01*
X152258Y206628D01*
X152256Y206608D01*
X152248Y206590D01*
X152230Y206423D01*
X152230Y206133D01*
X150741Y204644D01*
X127137Y204644D01*
G37*
%LPD*%
%LPC*%
G36*
X81923Y204623D02*
X81923Y204623D01*
X80434Y206112D01*
X80434Y206402D01*
X80431Y206422D01*
X80433Y206441D01*
X80411Y206543D01*
X80395Y206645D01*
X80385Y206662D01*
X80381Y206682D01*
X80328Y206771D01*
X80279Y206862D01*
X80265Y206876D01*
X80255Y206893D01*
X80176Y206960D01*
X80101Y207032D01*
X80083Y207040D01*
X80068Y207053D01*
X79972Y207092D01*
X79878Y207135D01*
X79858Y207137D01*
X79840Y207145D01*
X79673Y207163D01*
X79349Y207163D01*
X79349Y209801D01*
X79346Y209820D01*
X79348Y209840D01*
X79326Y209942D01*
X79310Y210044D01*
X79300Y210061D01*
X79296Y210081D01*
X79249Y210159D01*
X79278Y210229D01*
X79321Y210322D01*
X79323Y210342D01*
X79331Y210360D01*
X79349Y210527D01*
X79349Y213165D01*
X79673Y213165D01*
X79693Y213168D01*
X79712Y213166D01*
X79814Y213188D01*
X79916Y213204D01*
X79933Y213214D01*
X79953Y213218D01*
X80042Y213271D01*
X80133Y213320D01*
X80147Y213334D01*
X80164Y213344D01*
X80231Y213423D01*
X80303Y213498D01*
X80311Y213516D01*
X80324Y213531D01*
X80363Y213627D01*
X80406Y213721D01*
X80408Y213741D01*
X80416Y213759D01*
X80434Y213926D01*
X80434Y214216D01*
X81923Y215705D01*
X86103Y215705D01*
X86123Y215708D01*
X86142Y215706D01*
X86244Y215728D01*
X86346Y215744D01*
X86363Y215754D01*
X86383Y215758D01*
X86472Y215811D01*
X86563Y215860D01*
X86577Y215874D01*
X86594Y215884D01*
X86661Y215963D01*
X86733Y216038D01*
X86741Y216056D01*
X86754Y216071D01*
X86793Y216167D01*
X86836Y216261D01*
X86838Y216281D01*
X86846Y216299D01*
X86864Y216466D01*
X86864Y217049D01*
X89682Y219867D01*
X93467Y219867D01*
X93557Y219882D01*
X93648Y219889D01*
X93678Y219902D01*
X93710Y219907D01*
X93790Y219950D01*
X93874Y219985D01*
X93906Y220011D01*
X93927Y220022D01*
X93949Y220045D01*
X94005Y220090D01*
X94816Y220901D01*
X94827Y220917D01*
X94843Y220929D01*
X94899Y221017D01*
X94959Y221100D01*
X94965Y221119D01*
X94976Y221136D01*
X95001Y221237D01*
X95032Y221336D01*
X95031Y221355D01*
X95036Y221375D01*
X95028Y221478D01*
X95025Y221581D01*
X95018Y221600D01*
X95017Y221620D01*
X94977Y221715D01*
X94941Y221812D01*
X94928Y221828D01*
X94921Y221846D01*
X94816Y221977D01*
X94005Y222788D01*
X93931Y222841D01*
X93862Y222900D01*
X93832Y222913D01*
X93806Y222931D01*
X93719Y222958D01*
X93634Y222992D01*
X93593Y222997D01*
X93570Y223004D01*
X93538Y223003D01*
X93467Y223011D01*
X89682Y223011D01*
X86864Y225829D01*
X86864Y226362D01*
X86863Y226370D01*
X86863Y226372D01*
X86861Y226382D01*
X86863Y226401D01*
X86841Y226503D01*
X86825Y226605D01*
X86815Y226622D01*
X86811Y226642D01*
X86758Y226731D01*
X86709Y226822D01*
X86695Y226836D01*
X86685Y226853D01*
X86606Y226920D01*
X86531Y226992D01*
X86513Y227000D01*
X86498Y227013D01*
X86402Y227052D01*
X86308Y227095D01*
X86288Y227097D01*
X86270Y227105D01*
X86103Y227123D01*
X81923Y227123D01*
X80434Y228612D01*
X80434Y228902D01*
X80431Y228922D01*
X80433Y228941D01*
X80411Y229043D01*
X80395Y229145D01*
X80385Y229162D01*
X80381Y229182D01*
X80328Y229271D01*
X80279Y229362D01*
X80265Y229376D01*
X80255Y229393D01*
X80176Y229460D01*
X80101Y229532D01*
X80083Y229540D01*
X80068Y229553D01*
X79972Y229592D01*
X79878Y229635D01*
X79858Y229637D01*
X79840Y229645D01*
X79673Y229663D01*
X79349Y229663D01*
X79349Y232301D01*
X79346Y232320D01*
X79348Y232340D01*
X79326Y232442D01*
X79310Y232544D01*
X79300Y232561D01*
X79296Y232581D01*
X79249Y232659D01*
X79278Y232729D01*
X79321Y232822D01*
X79323Y232842D01*
X79331Y232860D01*
X79349Y233027D01*
X79349Y235665D01*
X79673Y235665D01*
X79693Y235668D01*
X79712Y235666D01*
X79814Y235688D01*
X79916Y235704D01*
X79933Y235714D01*
X79953Y235718D01*
X80042Y235771D01*
X80133Y235820D01*
X80147Y235834D01*
X80164Y235844D01*
X80231Y235923D01*
X80303Y235998D01*
X80311Y236016D01*
X80324Y236031D01*
X80363Y236127D01*
X80406Y236221D01*
X80408Y236241D01*
X80416Y236259D01*
X80434Y236426D01*
X80434Y236716D01*
X81923Y238205D01*
X105527Y238205D01*
X107016Y236716D01*
X107016Y236426D01*
X107019Y236406D01*
X107017Y236387D01*
X107039Y236285D01*
X107055Y236183D01*
X107065Y236166D01*
X107069Y236146D01*
X107122Y236057D01*
X107171Y235966D01*
X107185Y235952D01*
X107195Y235935D01*
X107274Y235868D01*
X107349Y235796D01*
X107367Y235788D01*
X107382Y235775D01*
X107478Y235736D01*
X107572Y235693D01*
X107592Y235691D01*
X107610Y235683D01*
X107777Y235665D01*
X108101Y235665D01*
X108101Y233027D01*
X108104Y233008D01*
X108102Y232988D01*
X108124Y232886D01*
X108140Y232784D01*
X108150Y232767D01*
X108154Y232747D01*
X108201Y232669D01*
X108172Y232599D01*
X108129Y232506D01*
X108127Y232486D01*
X108119Y232468D01*
X108101Y232301D01*
X108101Y229663D01*
X107777Y229663D01*
X107757Y229660D01*
X107738Y229662D01*
X107637Y229640D01*
X107534Y229624D01*
X107517Y229614D01*
X107497Y229610D01*
X107408Y229557D01*
X107317Y229508D01*
X107303Y229494D01*
X107286Y229484D01*
X107219Y229405D01*
X107148Y229330D01*
X107139Y229312D01*
X107126Y229297D01*
X107087Y229201D01*
X107044Y229107D01*
X107042Y229087D01*
X107034Y229069D01*
X107016Y228902D01*
X107016Y228612D01*
X105527Y227123D01*
X102295Y227123D01*
X102275Y227120D01*
X102256Y227122D01*
X102154Y227100D01*
X102052Y227084D01*
X102035Y227074D01*
X102015Y227070D01*
X101926Y227017D01*
X101835Y226968D01*
X101821Y226954D01*
X101804Y226944D01*
X101737Y226865D01*
X101665Y226790D01*
X101657Y226772D01*
X101644Y226757D01*
X101605Y226661D01*
X101562Y226567D01*
X101560Y226547D01*
X101552Y226529D01*
X101534Y226362D01*
X101534Y224881D01*
X98630Y221977D01*
X98619Y221961D01*
X98603Y221949D01*
X98547Y221861D01*
X98487Y221778D01*
X98481Y221759D01*
X98470Y221742D01*
X98445Y221641D01*
X98414Y221542D01*
X98415Y221523D01*
X98410Y221503D01*
X98418Y221400D01*
X98421Y221297D01*
X98428Y221278D01*
X98429Y221258D01*
X98469Y221163D01*
X98505Y221066D01*
X98518Y221050D01*
X98525Y221032D01*
X98630Y220901D01*
X101534Y217997D01*
X101534Y214012D01*
X100574Y213052D01*
X100521Y212978D01*
X100461Y212908D01*
X100449Y212878D01*
X100430Y212852D01*
X100403Y212765D01*
X100369Y212680D01*
X100365Y212639D01*
X100358Y212617D01*
X100359Y212585D01*
X100351Y212513D01*
X100351Y210777D01*
X100354Y210758D01*
X100352Y210738D01*
X100374Y210636D01*
X100390Y210534D01*
X100400Y210517D01*
X100404Y210497D01*
X100457Y210408D01*
X100506Y210317D01*
X100520Y210303D01*
X100530Y210286D01*
X100609Y210219D01*
X100666Y210165D01*
X100652Y210157D01*
X100638Y210143D01*
X100621Y210133D01*
X100554Y210054D01*
X100482Y209979D01*
X100474Y209961D01*
X100461Y209946D01*
X100422Y209849D01*
X100379Y209756D01*
X100377Y209736D01*
X100369Y209718D01*
X100351Y209551D01*
X100351Y207163D01*
X100227Y207163D01*
X100207Y207160D01*
X100188Y207162D01*
X100087Y207140D01*
X99984Y207124D01*
X99967Y207114D01*
X99947Y207110D01*
X99858Y207057D01*
X99767Y207008D01*
X99753Y206994D01*
X99736Y206984D01*
X99669Y206905D01*
X99598Y206830D01*
X99589Y206812D01*
X99576Y206797D01*
X99537Y206701D01*
X99494Y206607D01*
X99492Y206587D01*
X99484Y206569D01*
X99466Y206402D01*
X99466Y206112D01*
X97977Y204623D01*
X81923Y204623D01*
G37*
%LPD*%
%LPC*%
G36*
X65542Y55537D02*
X65542Y55537D01*
X63468Y57611D01*
X63468Y60544D01*
X65544Y62621D01*
X65568Y62657D01*
X65599Y62688D01*
X65610Y62722D01*
X65646Y62778D01*
X65664Y62900D01*
X65674Y62934D01*
X65674Y67265D01*
X65665Y67308D01*
X65666Y67352D01*
X65649Y67384D01*
X65635Y67448D01*
X65561Y67548D01*
X65544Y67579D01*
X64204Y68919D01*
X64167Y68943D01*
X64137Y68974D01*
X64102Y68985D01*
X64046Y69021D01*
X63924Y69039D01*
X63890Y69049D01*
X53664Y69049D01*
X52919Y69794D01*
X52919Y80846D01*
X53664Y81591D01*
X65716Y81591D01*
X66461Y80846D01*
X66461Y70620D01*
X66470Y70577D01*
X66469Y70533D01*
X66486Y70501D01*
X66500Y70437D01*
X66574Y70337D01*
X66591Y70306D01*
X68343Y68554D01*
X68343Y62934D01*
X68352Y62892D01*
X68351Y62848D01*
X68368Y62816D01*
X68382Y62751D01*
X68456Y62652D01*
X68473Y62621D01*
X70549Y60544D01*
X70549Y57611D01*
X68475Y55537D01*
X65542Y55537D01*
G37*
%LPD*%
%LPC*%
G36*
X70796Y34305D02*
X70796Y34305D01*
X68722Y36379D01*
X68722Y39313D01*
X70796Y41387D01*
X73730Y41387D01*
X75804Y39313D01*
X75804Y36379D01*
X73730Y34305D01*
X70796Y34305D01*
G37*
%LPD*%
%LPC*%
G36*
X119865Y88617D02*
X119865Y88617D01*
X117791Y90691D01*
X117791Y93625D01*
X119865Y95699D01*
X122799Y95699D01*
X124873Y93625D01*
X124873Y90691D01*
X122799Y88617D01*
X119865Y88617D01*
G37*
%LPD*%
%LPC*%
G36*
X134865Y88617D02*
X134865Y88617D01*
X132791Y90691D01*
X132791Y93625D01*
X134865Y95699D01*
X137799Y95699D01*
X139873Y93625D01*
X139873Y90691D01*
X137799Y88617D01*
X134865Y88617D01*
G37*
%LPD*%
%LPC*%
G36*
X102876Y42029D02*
X102876Y42029D01*
X100802Y44103D01*
X100802Y47036D01*
X102876Y49110D01*
X105810Y49110D01*
X107884Y47036D01*
X107884Y44103D01*
X105810Y42029D01*
X102876Y42029D01*
G37*
%LPD*%
%LPC*%
G36*
X99059Y277367D02*
X99059Y277367D01*
X99059Y282705D01*
X101086Y282705D01*
X101087Y282704D01*
X101087Y277367D01*
X99059Y277367D01*
G37*
%LPD*%
%LPC*%
G36*
X111759Y277367D02*
X111759Y277367D01*
X111759Y282705D01*
X113786Y282705D01*
X113787Y282704D01*
X113787Y277367D01*
X111759Y277367D01*
G37*
%LPD*%
%LPC*%
G36*
X99059Y268983D02*
X99059Y268983D01*
X99059Y274321D01*
X101087Y274321D01*
X101087Y268984D01*
X101086Y268983D01*
X99059Y268983D01*
G37*
%LPD*%
%LPC*%
G36*
X111759Y268983D02*
X111759Y268983D01*
X111759Y274321D01*
X113787Y274321D01*
X113787Y268984D01*
X113786Y268983D01*
X111759Y268983D01*
G37*
%LPD*%
%LPC*%
G36*
X93985Y277367D02*
X93985Y277367D01*
X93985Y282704D01*
X93986Y282705D01*
X96013Y282705D01*
X96013Y277367D01*
X93985Y277367D01*
G37*
%LPD*%
%LPC*%
G36*
X119385Y277367D02*
X119385Y277367D01*
X119385Y282704D01*
X119386Y282705D01*
X121413Y282705D01*
X121413Y277367D01*
X119385Y277367D01*
G37*
%LPD*%
%LPC*%
G36*
X106685Y277367D02*
X106685Y277367D01*
X106685Y282704D01*
X106686Y282705D01*
X108713Y282705D01*
X108713Y277367D01*
X106685Y277367D01*
G37*
%LPD*%
%LPC*%
G36*
X93986Y268983D02*
X93986Y268983D01*
X93985Y268984D01*
X93985Y274321D01*
X96013Y274321D01*
X96013Y268983D01*
X93986Y268983D01*
G37*
%LPD*%
%LPC*%
G36*
X119386Y268983D02*
X119386Y268983D01*
X119385Y268984D01*
X119385Y274321D01*
X121413Y274321D01*
X121413Y268983D01*
X119386Y268983D01*
G37*
%LPD*%
%LPC*%
G36*
X106686Y268983D02*
X106686Y268983D01*
X106685Y268984D01*
X106685Y274321D01*
X108713Y274321D01*
X108713Y268983D01*
X106686Y268983D01*
G37*
%LPD*%
%LPC*%
G36*
X103099Y211538D02*
X103099Y211538D01*
X103099Y213165D01*
X104475Y213165D01*
X104476Y213164D01*
X104476Y211538D01*
X103099Y211538D01*
G37*
%LPD*%
%LPC*%
G36*
X103099Y207163D02*
X103099Y207163D01*
X103099Y208790D01*
X104476Y208790D01*
X104476Y207164D01*
X104475Y207163D01*
X103099Y207163D01*
G37*
%LPD*%
%LPC*%
G36*
X155563Y211309D02*
X155563Y211309D01*
X155563Y213186D01*
X156689Y213186D01*
X156690Y213185D01*
X156690Y211309D01*
X155563Y211309D01*
G37*
%LPD*%
%LPC*%
G36*
X110349Y233788D02*
X110349Y233788D01*
X110349Y235665D01*
X111475Y235665D01*
X111476Y235664D01*
X111476Y233788D01*
X110349Y233788D01*
G37*
%LPD*%
%LPC*%
G36*
X110349Y211288D02*
X110349Y211288D01*
X110349Y213165D01*
X111475Y213165D01*
X111476Y213164D01*
X111476Y211288D01*
X110349Y211288D01*
G37*
%LPD*%
%LPC*%
G36*
X155563Y233809D02*
X155563Y233809D01*
X155563Y235686D01*
X156689Y235686D01*
X156690Y235685D01*
X156690Y233809D01*
X155563Y233809D01*
G37*
%LPD*%
%LPC*%
G36*
X155563Y229684D02*
X155563Y229684D01*
X155563Y231561D01*
X156690Y231561D01*
X156690Y229685D01*
X156689Y229684D01*
X155563Y229684D01*
G37*
%LPD*%
%LPC*%
G36*
X110349Y229663D02*
X110349Y229663D01*
X110349Y231540D01*
X111476Y231540D01*
X111476Y229664D01*
X111475Y229663D01*
X110349Y229663D01*
G37*
%LPD*%
%LPC*%
G36*
X155563Y207184D02*
X155563Y207184D01*
X155563Y209061D01*
X156690Y209061D01*
X156690Y207185D01*
X156689Y207184D01*
X155563Y207184D01*
G37*
%LPD*%
%LPC*%
G36*
X110349Y207163D02*
X110349Y207163D01*
X110349Y209040D01*
X111476Y209040D01*
X111476Y207164D01*
X111475Y207163D01*
X110349Y207163D01*
G37*
%LPD*%
%LPC*%
G36*
X121188Y211309D02*
X121188Y211309D01*
X121188Y213185D01*
X121189Y213186D01*
X122315Y213186D01*
X122315Y211309D01*
X121188Y211309D01*
G37*
%LPD*%
%LPC*%
G36*
X75974Y211288D02*
X75974Y211288D01*
X75974Y213164D01*
X75975Y213165D01*
X77101Y213165D01*
X77101Y211288D01*
X75974Y211288D01*
G37*
%LPD*%
%LPC*%
G36*
X106974Y211288D02*
X106974Y211288D01*
X106974Y213164D01*
X106975Y213165D01*
X108101Y213165D01*
X108101Y211288D01*
X106974Y211288D01*
G37*
%LPD*%
%LPC*%
G36*
X75974Y233788D02*
X75974Y233788D01*
X75974Y235664D01*
X75975Y235665D01*
X77101Y235665D01*
X77101Y233788D01*
X75974Y233788D01*
G37*
%LPD*%
%LPC*%
G36*
X121188Y233809D02*
X121188Y233809D01*
X121188Y235685D01*
X121189Y235686D01*
X122315Y235686D01*
X122315Y233809D01*
X121188Y233809D01*
G37*
%LPD*%
%LPC*%
G36*
X75975Y229663D02*
X75975Y229663D01*
X75974Y229664D01*
X75974Y231540D01*
X77101Y231540D01*
X77101Y229663D01*
X75975Y229663D01*
G37*
%LPD*%
%LPC*%
G36*
X121189Y229684D02*
X121189Y229684D01*
X121188Y229685D01*
X121188Y231561D01*
X122315Y231561D01*
X122315Y229684D01*
X121189Y229684D01*
G37*
%LPD*%
%LPC*%
G36*
X106975Y207163D02*
X106975Y207163D01*
X106974Y207164D01*
X106974Y209040D01*
X108101Y209040D01*
X108101Y207163D01*
X106975Y207163D01*
G37*
%LPD*%
%LPC*%
G36*
X75975Y207163D02*
X75975Y207163D01*
X75974Y207164D01*
X75974Y209040D01*
X77101Y209040D01*
X77101Y207163D01*
X75975Y207163D01*
G37*
%LPD*%
%LPC*%
G36*
X121189Y207184D02*
X121189Y207184D01*
X121188Y207185D01*
X121188Y209061D01*
X122315Y209061D01*
X122315Y207184D01*
X121189Y207184D01*
G37*
%LPD*%
%LPC*%
G36*
X97535Y275843D02*
X97535Y275843D01*
X97535Y275845D01*
X97537Y275845D01*
X97537Y275843D01*
X97535Y275843D01*
G37*
%LPD*%
%LPC*%
G36*
X110235Y275843D02*
X110235Y275843D01*
X110235Y275845D01*
X110237Y275845D01*
X110237Y275843D01*
X110235Y275843D01*
G37*
%LPD*%
D10*
X48768Y413004D02*
X48768Y413766D01*
X184150Y426212D02*
X184150Y426974D01*
X184404Y413639D02*
X184404Y413004D01*
X48768Y177165D02*
X48768Y176403D01*
X184150Y189611D02*
X184150Y190373D01*
X184404Y177038D02*
X184404Y176403D01*
D11*
X187824Y79883D03*
X170824Y79883D03*
D12*
X59690Y92320D03*
X59690Y75320D03*
X59690Y119244D03*
X59690Y102244D03*
D11*
X187325Y143628D03*
X187325Y126628D03*
X176784Y94751D03*
X176784Y111751D03*
X59690Y131454D03*
X59690Y148454D03*
D12*
X169935Y157988D03*
X186935Y157988D03*
D11*
X187833Y94751D03*
X187833Y111751D03*
D12*
X169935Y169037D03*
X186935Y169037D03*
D11*
X45720Y102117D03*
X45720Y119117D03*
D12*
X172847Y129930D03*
X172847Y146930D03*
X46990Y130819D03*
X46990Y147819D03*
D13*
X143764Y163703D03*
X138764Y163703D03*
X133764Y163703D03*
X128764Y163703D03*
X123764Y163703D03*
X118764Y163703D03*
X113764Y163703D03*
X108764Y163703D03*
X103764Y163703D03*
X98764Y163703D03*
X93764Y163703D03*
X88764Y163703D03*
X143764Y78703D03*
X138764Y78703D03*
X133764Y78703D03*
X128764Y78703D03*
X123764Y78703D03*
X118764Y78703D03*
X113764Y78703D03*
X108764Y78703D03*
X103764Y78703D03*
X98764Y78703D03*
X93764Y78703D03*
X88764Y78703D03*
D14*
X73764Y93703D03*
X73764Y98703D03*
X73764Y103703D03*
X73764Y108703D03*
X73764Y113703D03*
X73764Y118703D03*
X73764Y123703D03*
X73764Y128703D03*
X73764Y133703D03*
X73764Y138703D03*
X73764Y143703D03*
X73764Y148703D03*
X158764Y93703D03*
X158764Y98703D03*
X158764Y103703D03*
X158764Y108703D03*
X158764Y113703D03*
X158764Y118703D03*
X158764Y123703D03*
X158764Y128703D03*
X158764Y133703D03*
X158764Y138703D03*
X158764Y143703D03*
X158764Y148703D03*
D15*
X116264Y121203D03*
D16*
X97536Y346202D03*
X110236Y346202D03*
X122936Y346202D03*
D17*
X135636Y346202D03*
X135636Y403352D03*
D16*
X122936Y403352D03*
X110236Y403352D03*
X97536Y403352D03*
D18*
X116586Y384302D03*
D16*
X97536Y275844D03*
X110236Y275844D03*
X122936Y275844D03*
D17*
X135636Y275844D03*
X135636Y332994D03*
D16*
X122936Y332994D03*
X110236Y332994D03*
X97536Y332994D03*
D18*
X116586Y313944D03*
D16*
X45339Y346202D03*
X58039Y346202D03*
X70739Y346202D03*
D17*
X83439Y346202D03*
X83439Y403352D03*
D16*
X70739Y403352D03*
X58039Y403352D03*
X45339Y403352D03*
D18*
X64389Y384302D03*
D16*
X45339Y275844D03*
X58039Y275844D03*
X70739Y275844D03*
D17*
X83439Y275844D03*
X83439Y332994D03*
D16*
X70739Y332994D03*
X58039Y332994D03*
X45339Y332994D03*
D18*
X64389Y313944D03*
D16*
X149733Y346202D03*
X162433Y346202D03*
X175133Y346202D03*
D17*
X187833Y346202D03*
X187833Y403352D03*
D16*
X175133Y403352D03*
X162433Y403352D03*
X149733Y403352D03*
D18*
X168783Y384302D03*
D16*
X149733Y275844D03*
X162433Y275844D03*
X175133Y275844D03*
D17*
X187833Y275844D03*
X187833Y332994D03*
D16*
X175133Y332994D03*
X162433Y332994D03*
X149733Y332994D03*
D18*
X168783Y313944D03*
D19*
X146939Y210185D03*
D20*
X140939Y210185D03*
X136939Y210185D03*
D19*
X130939Y210185D03*
X130939Y232685D03*
X146939Y232685D03*
D20*
X140939Y232685D03*
X136939Y232685D03*
D21*
X154439Y210185D03*
X123439Y210185D03*
X154439Y232685D03*
X123439Y232685D03*
D19*
X146939Y39370D03*
D20*
X140939Y39370D03*
X136939Y39370D03*
D19*
X130939Y39370D03*
X130939Y61870D03*
X146939Y61870D03*
D20*
X140939Y61870D03*
X136939Y61870D03*
D21*
X154439Y39370D03*
X123439Y39370D03*
X154439Y61870D03*
X123439Y61870D03*
D19*
X85725Y232664D03*
D20*
X91725Y232664D03*
X95725Y232664D03*
D19*
X101725Y232664D03*
X101725Y210164D03*
X85725Y210164D03*
D20*
X91725Y210164D03*
X95725Y210164D03*
D21*
X78225Y232664D03*
X109225Y232664D03*
X78225Y210164D03*
X109225Y210164D03*
D19*
X85725Y61849D03*
D20*
X91725Y61849D03*
X95725Y61849D03*
D19*
X101725Y61849D03*
X101725Y39349D03*
X85725Y39349D03*
D20*
X91725Y39349D03*
X95725Y39349D03*
D21*
X78225Y61849D03*
X109225Y61849D03*
X78225Y39349D03*
X109225Y39349D03*
D11*
X170824Y55753D03*
X187824Y55753D03*
X187824Y67818D03*
X170824Y67818D03*
D22*
X47110Y169926D03*
X62110Y169926D03*
D11*
X63110Y159385D03*
X46110Y159385D03*
D23*
X145332Y106110D03*
D24*
X140397Y106110D01*
X138684Y107823D01*
X124714Y107823D01*
X116264Y116273D02*
X116264Y121203D01*
X123063Y109474D02*
X124714Y107823D01*
X123063Y109474D02*
X116264Y116273D01*
D23*
X116284Y91440D03*
D24*
X116284Y103759D01*
X116284Y104346D01*
X117221Y105283D01*
X118872Y105283D01*
X123063Y109474D01*
X157099Y133703D02*
X158764Y133703D01*
X157099Y133703D02*
X147883Y133703D01*
X146825Y134762D01*
X138811Y134762D01*
X130063Y134762D01*
X116504Y121203D02*
X116264Y121203D01*
X116504Y121203D02*
X130063Y134762D01*
D23*
X87476Y141302D03*
D24*
X82345Y141302D01*
X79629Y144018D01*
X74549Y144018D01*
X74079Y144018D01*
X73764Y143703D01*
D23*
X103812Y163703D03*
D24*
X103764Y163703D01*
X99900Y141302D02*
X87476Y141302D01*
X99900Y141302D02*
X100330Y141732D01*
X116264Y125798D01*
X116264Y121203D01*
D23*
X131332Y150158D03*
D24*
X131332Y143270D01*
X116264Y128202D02*
X116264Y117475D01*
X116264Y128202D02*
X131332Y143270D01*
X73764Y108703D02*
X73764Y103703D01*
X85762Y102411D02*
X88748Y102411D01*
X90096Y103759D01*
X116284Y103759D01*
X84470Y103703D02*
X73764Y103703D01*
X84470Y103703D02*
X85762Y102411D01*
X109225Y61849D02*
X109474Y61849D01*
X123418Y61849D01*
X123439Y61870D01*
X123418Y39349D02*
X109225Y39349D01*
X123418Y39349D02*
X123439Y39370D01*
X109225Y39349D02*
X108458Y39349D01*
X101811Y39349D01*
X101725Y39349D01*
X82423Y35016D02*
X81642Y35797D01*
X81642Y35933D02*
X78225Y39349D01*
X81642Y35933D02*
X81642Y35797D01*
X82423Y35016D02*
X97477Y35016D01*
X101811Y39349D01*
X160615Y40801D02*
X162726Y42911D01*
X162726Y45897D01*
X155870Y40801D02*
X154439Y39370D01*
X154439Y54184D02*
X154439Y61870D01*
X155870Y40801D02*
X160615Y40801D01*
X162726Y45897D02*
X154439Y54184D01*
X81642Y58433D02*
X78225Y61849D01*
X81642Y58433D02*
X81642Y58297D01*
X91951Y50951D02*
X96882Y46021D01*
X96882Y44278D01*
X101811Y39349D01*
X88987Y50951D02*
X81642Y58297D01*
X88987Y50951D02*
X91951Y50951D01*
X108761Y61136D02*
X109474Y61849D01*
D23*
X112502Y56337D03*
D24*
X109474Y59365D01*
X109474Y61849D01*
X109225Y61849D02*
X109225Y53246D01*
X108761Y52781D01*
X108761Y39652D02*
X108458Y39349D01*
X108761Y39652D02*
X108761Y52781D01*
D23*
X101725Y210164D03*
D25*
X78225Y221361D02*
X78225Y232664D01*
X78225Y221361D02*
X78225Y210164D01*
X109225Y221361D02*
X109225Y232664D01*
X109225Y221361D02*
X109225Y210164D01*
X109225Y221361D02*
X78225Y221361D01*
X109225Y232664D02*
X123439Y232664D01*
X123439Y232685D01*
X123439Y210164D02*
X109225Y210164D01*
X123439Y210164D02*
X123439Y210185D01*
X123439Y221107D02*
X123439Y232685D01*
X123439Y221107D02*
X123439Y210185D01*
X154439Y221107D02*
X154439Y232685D01*
X154439Y221107D02*
X154439Y210185D01*
X154439Y221107D02*
X123439Y221107D01*
X109225Y210164D02*
X101725Y210164D01*
D26*
X31496Y313817D03*
X31496Y301244D03*
X31496Y288671D03*
X201676Y313817D03*
X201676Y301244D03*
X201676Y288671D03*
X201676Y276098D03*
D27*
X110744Y272415D03*
X122428Y272415D03*
D28*
X122809Y275844D02*
X122809Y279019D01*
X122809Y275844D02*
X122428Y275463D01*
X122809Y273812D02*
X122809Y272796D01*
X122428Y272415D01*
D27*
X110744Y278257D03*
X116586Y278257D03*
X122428Y278257D03*
X110744Y284099D03*
X116586Y284099D03*
X122428Y284099D03*
X110744Y289941D03*
X116586Y289941D03*
X122428Y289941D03*
X104902Y272415D03*
X104902Y278257D03*
X104902Y284099D03*
X104902Y289941D03*
X116586Y272415D03*
D26*
X201676Y77216D03*
X201676Y64643D03*
X201676Y52070D03*
X201676Y39497D03*
D25*
X186935Y160050D02*
X186935Y169037D01*
X186935Y160050D02*
X186935Y157988D01*
D23*
X186935Y160050D03*
D25*
X157099Y133703D02*
X152070Y133703D01*
X157706Y134762D02*
X158764Y133703D01*
X157706Y134762D02*
X147633Y134762D01*
X147061Y135333D01*
X143603Y135333D01*
X143031Y134762D01*
X138811Y134762D01*
X187833Y111751D02*
X192142Y107442D01*
D23*
X187824Y67818D03*
D24*
X189348Y69342D01*
D23*
X167600Y41023D03*
D24*
X164615Y41023D01*
X162726Y42911D01*
D26*
X31496Y276098D03*
X201676Y326390D03*
X31496Y326390D03*
D27*
X99060Y284099D03*
X99060Y289941D03*
X93218Y284099D03*
X93218Y289941D03*
D26*
X201676Y89789D03*
D23*
X45720Y115801D03*
D25*
X45720Y119117D01*
X45847Y119244D01*
X59690Y119244D01*
X64359Y114575D01*
X64359Y111414D01*
X67070Y108703D01*
X73764Y108703D01*
D23*
X48356Y138978D03*
D25*
X54395Y143159D02*
X59690Y148454D01*
X54395Y143159D02*
X54395Y142030D01*
X51343Y138978D01*
X48356Y138978D01*
X59690Y148454D02*
X63110Y151874D01*
X63110Y159385D01*
X59690Y148454D02*
X64126Y144018D01*
X74549Y144018D01*
X78225Y46210D02*
X78225Y39349D01*
X78225Y46210D02*
X77343Y47092D01*
D23*
X77343Y47092D03*
D26*
X31496Y77216D03*
X31496Y64643D03*
X31496Y52070D03*
X31496Y39497D03*
X31496Y89789D03*
D25*
X194738Y96727D02*
X194738Y101040D01*
X194738Y96727D02*
X201676Y89789D01*
X187833Y107945D02*
X187833Y111751D01*
X187833Y107945D02*
X194738Y101040D01*
X198501Y67818D02*
X187824Y67818D01*
X198501Y67818D02*
X201676Y64643D01*
D23*
X104343Y45570D03*
X136332Y92158D03*
X136380Y150212D03*
X151892Y168520D03*
D25*
X152409Y169037D02*
X169935Y169037D01*
X152409Y169037D02*
X151892Y168520D01*
D23*
X46990Y130819D03*
X83047Y170950D03*
D24*
X152273Y114300D02*
X152273Y113098D01*
X152273Y114300D02*
X158167Y114300D01*
X158764Y113703D01*
D23*
X85725Y61849D03*
D26*
X201676Y166497D03*
X201676Y153924D03*
X201676Y141351D03*
X201676Y128778D03*
D25*
X176267Y146930D02*
X172847Y146930D01*
X176267Y146930D02*
X180420Y151083D01*
X193224Y151083D01*
X167053Y115298D02*
X160359Y115298D01*
X158764Y113703D01*
X167053Y115298D02*
X170978Y119223D01*
X192024Y119223D02*
X193114Y119223D01*
X192024Y119223D02*
X170978Y119223D01*
D23*
X167767Y47094D03*
D25*
X169021Y48348D01*
X176613Y48348D01*
X184018Y55753D02*
X187824Y55753D01*
X184018Y55753D02*
X176613Y48348D01*
D26*
X201676Y116205D03*
D25*
X193622Y119156D02*
X192091Y119156D01*
X192024Y119223D01*
X196573Y116205D02*
X201676Y116205D01*
X196573Y116205D02*
X193622Y119156D01*
X196065Y153924D02*
X201676Y153924D01*
X196065Y153924D02*
X193224Y151083D01*
X201676Y128778D02*
X201676Y116205D01*
X201676Y128778D02*
X201676Y141351D01*
X201676Y153924D01*
X201676Y166497D01*
X150475Y152108D02*
X148844Y150477D01*
X150475Y152108D02*
X164055Y152108D01*
X169935Y157988D01*
D29*
X158764Y138703D02*
X158745Y138684D01*
D25*
X158764Y138703D02*
X154286Y138449D01*
X154287Y138449D02*
X154141Y138450D01*
X153995Y138454D01*
X153850Y138462D01*
X153705Y138474D01*
X153560Y138490D01*
X153416Y138510D01*
X153272Y138534D01*
X153129Y138561D01*
X152987Y138593D01*
X152845Y138628D01*
X152705Y138668D01*
X152566Y138711D01*
X152428Y138757D01*
X152291Y138808D01*
X152156Y138862D01*
X152022Y138920D01*
X151890Y138981D01*
X151760Y139046D01*
X151631Y139115D01*
X151504Y139187D01*
X151380Y139262D01*
X151257Y139341D01*
X151137Y139422D01*
X151019Y139508D01*
X150903Y139596D01*
X150789Y139688D01*
X150678Y139782D01*
X150570Y139879D01*
X150465Y139980D01*
X150362Y140083D01*
X150262Y140189D01*
X150165Y140298D01*
X150071Y140409D01*
X149980Y140522D01*
X149892Y140639D01*
X149807Y140757D01*
X149725Y140878D01*
X149647Y141001D01*
X149572Y141126D01*
X149501Y141253D01*
X149433Y141381D01*
X149368Y141512D01*
X149307Y141644D01*
X149250Y141778D01*
X149196Y141914D01*
X149146Y142050D01*
X149100Y142189D01*
X149057Y142328D01*
X149019Y142468D01*
X148984Y142610D01*
X148953Y142752D01*
X148926Y142895D01*
X148902Y143039D01*
X148883Y143183D01*
X148867Y143328D01*
X148856Y143473D01*
X148848Y143619D01*
X148844Y143764D01*
X148844Y150477D01*
X66939Y138703D02*
X59690Y131454D01*
X66939Y138703D02*
X73764Y138703D01*
D24*
X158764Y93703D02*
X164084Y93703D01*
D25*
X182573Y87346D02*
X183689Y88462D01*
X182573Y87346D02*
X170995Y87346D01*
X183689Y88462D02*
X183689Y90607D01*
X164638Y93703D02*
X164084Y93703D01*
X183689Y90607D02*
X187833Y94751D01*
X170995Y87346D02*
X164638Y93703D01*
D24*
X182516Y121819D02*
X187325Y126628D01*
X168428Y121819D02*
X165227Y118618D01*
X158849Y118618D01*
X158764Y118703D01*
X168428Y121819D02*
X182516Y121819D01*
X179681Y124378D02*
X178899Y123597D01*
X179681Y135984D02*
X187325Y143628D01*
X179681Y135984D02*
X179681Y124378D01*
X158871Y123597D02*
X158764Y123703D01*
X158871Y123597D02*
X178899Y123597D01*
X176784Y111751D02*
X167698Y111751D01*
X164650Y108703D01*
X158764Y108703D01*
X169105Y102430D02*
X176784Y94751D01*
X169105Y102430D02*
X167832Y103703D01*
X158764Y103703D01*
X73764Y148703D02*
X73397Y148336D01*
X108764Y157780D02*
X108764Y157817D01*
X108764Y163703D01*
D23*
X117023Y150212D03*
D24*
X115486Y151749D01*
X115486Y152201D01*
X112817Y154870D01*
X111712Y154870D01*
X108764Y157817D01*
X158764Y128703D02*
X160655Y128703D01*
D25*
X172654Y128703D02*
X172847Y129930D01*
X172654Y128703D02*
X160655Y128703D01*
D23*
X158764Y98703D03*
D24*
X93764Y84589D02*
X93668Y84685D01*
X93764Y84589D02*
X93764Y78703D01*
D23*
X93726Y72707D03*
D24*
X93668Y72765D01*
X93668Y84685D01*
D23*
X73764Y118751D03*
D24*
X73764Y118703D01*
X67878Y118703D01*
X140939Y44038D02*
X140939Y39370D01*
X140939Y44038D02*
X140511Y44466D01*
D23*
X140511Y44466D03*
X138764Y163703D03*
X87255Y116110D03*
X128812Y163703D03*
D24*
X128764Y163703D01*
X118764Y163703D02*
X118764Y165842D01*
D23*
X118764Y165842D03*
X87255Y111062D03*
D24*
X85762Y112507D02*
X83652Y114617D01*
X85762Y112507D02*
X85811Y112507D01*
X87255Y111062D01*
X79650Y123703D02*
X73764Y123703D01*
X79650Y123703D02*
X83652Y119701D01*
X83652Y114617D01*
D23*
X159297Y89044D03*
X145273Y96849D03*
D24*
X149931Y92192D02*
X149931Y91651D01*
X149931Y92192D02*
X145273Y96849D01*
X152537Y89044D02*
X159297Y89044D01*
X152537Y89044D02*
X149931Y91651D01*
X187824Y79883D02*
X187824Y79756D01*
X187833Y79747D01*
D23*
X187833Y79747D03*
X93716Y163703D03*
D24*
X93764Y163703D01*
D23*
X145332Y126110D03*
X98764Y163703D03*
X147519Y121158D03*
X145332Y131158D03*
X88668Y163865D03*
D24*
X88668Y163799D01*
X88764Y163703D01*
D26*
X31496Y403098D03*
X31496Y390525D03*
X31496Y377952D03*
D30*
X64389Y384175D02*
X64389Y384302D01*
D26*
X201676Y403098D03*
X201676Y390525D03*
X201676Y377952D03*
X201676Y365379D03*
D30*
X185166Y384302D02*
X168783Y384302D01*
D23*
X86235Y291785D03*
D26*
X31496Y365379D03*
X31496Y352806D03*
X201676Y352806D03*
D23*
X121332Y92158D03*
X42155Y145578D03*
D25*
X83439Y342668D02*
X83439Y346202D01*
X83439Y342668D02*
X88894Y337213D01*
X88894Y307282D02*
X90551Y305625D01*
D23*
X90551Y305625D03*
D25*
X88894Y307282D02*
X88894Y337213D01*
D23*
X83439Y275844D03*
D27*
X47371Y272288D03*
X47371Y278130D03*
X53213Y272288D03*
X53213Y278130D03*
X59055Y278130D03*
X59055Y272288D03*
X64897Y272288D03*
X64897Y278130D03*
X70739Y278130D03*
X70739Y272288D03*
D28*
X70485Y278003D02*
X70612Y278130D01*
X70485Y278003D02*
X70485Y272542D01*
D27*
X47371Y283972D03*
X53213Y283972D03*
X59055Y283972D03*
X64897Y283972D03*
X70739Y283972D03*
X47371Y289814D03*
X53213Y289814D03*
X59055Y289814D03*
X64897Y289814D03*
X70739Y289814D03*
D31*
X64389Y313944D02*
X64389Y313951D01*
D27*
X49530Y353441D03*
X43688Y353441D03*
X43688Y347599D03*
X49530Y347599D03*
X55372Y353441D03*
X55372Y347599D03*
X61214Y353441D03*
X61214Y347599D03*
X67056Y347599D03*
X67056Y353441D03*
X72898Y353441D03*
X72898Y347599D03*
D23*
X83947Y303847D03*
D24*
X82233Y303847D01*
D27*
X49530Y359283D03*
X43688Y359283D03*
X55372Y359283D03*
X61214Y359283D03*
X67056Y359283D03*
X72898Y359283D03*
D32*
X48895Y419989D03*
D26*
X61468Y419989D03*
X74041Y419989D03*
D27*
X91694Y347599D03*
X91694Y353441D03*
X97536Y353441D03*
X103378Y353441D03*
X109220Y353441D03*
X115062Y353441D03*
X120904Y353441D03*
X126746Y353441D03*
X126746Y347599D03*
X97536Y347599D03*
X103378Y347599D03*
X109220Y347599D03*
X115062Y347599D03*
X120904Y347599D03*
D23*
X96139Y302768D03*
D24*
X97663Y304292D01*
X115570Y304292D02*
X116586Y305308D01*
D27*
X91694Y359283D03*
X97536Y359283D03*
X103378Y359283D03*
X109220Y359283D03*
X115062Y359283D03*
X120904Y359283D03*
X126746Y359283D03*
D26*
X104013Y419989D03*
X116586Y419989D03*
X129159Y419989D03*
D25*
X135636Y346202D02*
X135636Y342668D01*
X142748Y335556D01*
D23*
X142748Y308546D03*
D25*
X142748Y335556D01*
D23*
X130939Y275688D03*
D25*
X131095Y275844D01*
X135636Y275844D01*
D23*
X187833Y346202D03*
X144289Y292371D03*
D27*
X143891Y347599D03*
X143891Y353441D03*
X149733Y353441D03*
X155575Y353441D03*
X161417Y353441D03*
X167259Y353441D03*
X173101Y353441D03*
X178943Y353441D03*
X178943Y347599D03*
X173101Y347599D03*
X167259Y347599D03*
X161417Y347599D03*
X155575Y347599D03*
X149733Y347599D03*
D23*
X149606Y306768D03*
D27*
X143891Y359283D03*
X149733Y359283D03*
X155575Y359283D03*
X161417Y359283D03*
X167259Y359283D03*
X173101Y359283D03*
X178943Y359283D03*
D26*
X159131Y419989D03*
X171704Y419989D03*
D32*
X184277Y419989D03*
D27*
X155956Y278003D03*
X161798Y278003D03*
X167640Y278003D03*
X173482Y278003D03*
X179324Y278003D03*
X173482Y272161D03*
X179324Y272161D03*
X161798Y272161D03*
X167640Y272161D03*
X155956Y272161D03*
X155956Y283845D03*
X161798Y283845D03*
X167640Y283845D03*
X173482Y283845D03*
X179324Y283845D03*
X155956Y289687D03*
X161798Y289687D03*
X167640Y289687D03*
X173482Y289687D03*
X179324Y289687D03*
D25*
X187833Y290102D02*
X187833Y275844D01*
D23*
X187833Y290102D03*
X149422Y285863D03*
X130939Y61870D03*
X108764Y82002D03*
D25*
X108764Y78703D01*
D23*
X130939Y39370D03*
D25*
X123764Y73149D02*
X123764Y78703D01*
X123764Y73149D02*
X123730Y73115D01*
D23*
X123730Y73115D03*
D25*
X128764Y78703D02*
X128812Y78703D01*
D23*
X85725Y39349D03*
D25*
X128764Y72742D02*
X128764Y78703D01*
X128764Y72742D02*
X128778Y72728D01*
D23*
X128778Y72728D03*
X146939Y61870D03*
D25*
X103764Y72712D02*
X103764Y78703D01*
X103764Y72712D02*
X103759Y72707D01*
D23*
X103759Y72707D03*
D24*
X88764Y78703D02*
X88597Y78536D01*
X146939Y48420D02*
X146939Y39370D01*
X145573Y49786D02*
X142992Y49786D01*
X140048Y52729D01*
X145573Y49786D02*
X146939Y48420D01*
D23*
X88678Y72136D03*
D24*
X88678Y78454D01*
X88597Y78536D01*
X113805Y52729D02*
X140048Y52729D01*
X113805Y52729D02*
X112364Y51289D01*
D23*
X112364Y51289D03*
D25*
X133764Y72790D02*
X133764Y78703D01*
X133764Y72790D02*
X133826Y72728D01*
D23*
X133826Y72728D03*
X91500Y43792D03*
D24*
X91500Y39574D01*
X91725Y39349D01*
D23*
X84086Y96849D03*
D24*
X82232Y98703D01*
X73764Y98703D01*
X84086Y96849D02*
X84086Y87425D01*
X72864Y76203D01*
X72864Y57560D02*
X83029Y47395D01*
X87897Y47395D01*
X91500Y43792D01*
X72864Y57560D02*
X72864Y76203D01*
X95104Y39971D02*
X95725Y39349D01*
X95104Y39971D02*
X95104Y45284D01*
X99193Y87644D02*
X104515Y92966D01*
X107500Y92966D02*
X109611Y90855D01*
X109611Y89154D01*
X107500Y92966D02*
X104515Y92966D01*
X109611Y89154D02*
X111229Y87537D01*
X117628Y85725D02*
X119380Y85725D01*
X117628Y85725D02*
X115816Y87537D01*
X111229Y87537D01*
X119380Y85725D02*
X119380Y79319D01*
X118764Y78703D01*
X91215Y49173D02*
X95104Y45284D01*
X91215Y49173D02*
X83765Y49173D01*
X76947Y55992D01*
X74642Y58297D01*
X86819Y87644D02*
X99193Y87644D01*
X74642Y75466D02*
X74642Y58297D01*
X74642Y75466D02*
X86819Y87644D01*
D25*
X101725Y62293D02*
X101725Y61849D01*
X101725Y62293D02*
X106186Y66754D01*
X120379Y66754D01*
X120400Y66775D01*
X141451Y66775D01*
X143764Y69088D02*
X143764Y78703D01*
X143764Y69088D02*
X141451Y66775D01*
D24*
X138764Y69172D02*
X138764Y78703D01*
X138764Y69172D02*
X138811Y69125D01*
X119427Y69125D01*
X119406Y69104D01*
D23*
X90902Y56333D03*
D24*
X91725Y57156D01*
X91725Y61849D01*
X93192Y63316D01*
X93192Y65401D01*
X96894Y69104D01*
X119406Y69104D01*
D23*
X67009Y59077D03*
D24*
X67009Y68002D01*
X59690Y75320D01*
X113764Y74528D02*
X113764Y78703D01*
D23*
X95950Y57407D03*
D24*
X95950Y61624D01*
X95725Y61849D01*
X113764Y72735D02*
X113764Y78703D01*
X113764Y72735D02*
X113792Y72707D01*
D23*
X113792Y72707D03*
D25*
X98764Y78703D02*
X98716Y78703D01*
D23*
X136714Y57428D03*
D24*
X136939Y57653D01*
X136939Y61870D01*
D23*
X98832Y84041D03*
D24*
X98764Y83973D01*
X98764Y78703D01*
D23*
X168625Y79883D03*
D24*
X170824Y79883D01*
X136939Y39370D02*
X136714Y39145D01*
D23*
X73764Y93703D03*
X135571Y46665D03*
D24*
X136939Y42941D02*
X136939Y39370D01*
X136939Y42941D02*
X136908Y42973D01*
X136908Y45328D01*
X135571Y46665D01*
D23*
X85260Y136379D03*
X158764Y143655D03*
D24*
X158764Y143703D01*
X143764Y154178D02*
X143764Y163703D01*
X143764Y154178D02*
X125346Y154178D01*
X124212Y153044D01*
X122023Y153044D01*
D23*
X122023Y153044D03*
X60184Y111085D03*
X87838Y93462D03*
D24*
X73764Y113703D02*
X73660Y113703D01*
D23*
X149532Y53520D03*
D24*
X142856Y59954D02*
X140939Y61870D01*
X142856Y59954D02*
X142856Y58318D01*
X149449Y53520D02*
X149532Y53520D01*
X149449Y53520D02*
X145977Y56993D01*
X144181Y56993D02*
X142856Y58318D01*
X144181Y56993D02*
X145977Y56993D01*
D23*
X73660Y113703D03*
X96332Y92187D03*
X133788Y165866D03*
D24*
X133788Y163727D01*
X133764Y163703D01*
D23*
X87255Y121158D03*
X123764Y163703D03*
X113764Y163703D03*
X87255Y106014D03*
X178983Y78096D03*
D24*
X176056Y73050D02*
X170824Y67818D01*
X176056Y73050D02*
X176376Y73050D01*
X178983Y75656D01*
X178983Y78096D01*
X170824Y67818D02*
X170824Y55753D01*
X170514Y55443D01*
X168625Y55443D01*
D23*
X168625Y55443D03*
X106008Y89362D03*
D24*
X45847Y102244D02*
X45720Y102117D01*
X45847Y102244D02*
X59690Y102244D01*
X59690Y92320D01*
X54697Y92320D01*
D23*
X54697Y92320D03*
X72263Y37846D03*
X111882Y150708D03*
X59775Y169926D03*
D24*
X62110Y169926D01*
X68453Y169926D01*
X73183Y165197D01*
X73586Y165197D01*
X76795Y161987D01*
X76795Y158694D01*
X84781Y150708D01*
X111882Y150708D01*
D23*
X141428Y150212D03*
X54864Y162433D03*
X145273Y140483D03*
X54745Y157218D03*
X145332Y116206D03*
X72093Y161593D03*
X145332Y111158D03*
X80399Y160187D03*
X144484Y53389D03*
D24*
X153469Y44404D01*
X159123Y44404D01*
D23*
X159123Y44404D03*
X87255Y131331D03*
D24*
X82410Y131331D01*
X79883Y133858D01*
X73919Y133858D01*
X73764Y133703D01*
X47110Y160385D02*
X47110Y169926D01*
X47110Y160385D02*
X46110Y159385D01*
D23*
X87245Y126245D03*
X71351Y172124D03*
X139241Y291529D03*
X142764Y281847D03*
X146939Y232410D03*
D25*
X146939Y232685D01*
D23*
X140989Y227793D03*
D25*
X140989Y232685D01*
X140939Y232685D01*
X136939Y232685D02*
X135941Y232685D01*
X135941Y226845D01*
D23*
X135941Y226845D03*
D25*
X130939Y232410D02*
X130939Y232685D01*
D23*
X130939Y232410D03*
X146939Y210185D03*
D25*
X140989Y210185D02*
X140939Y210185D01*
X140989Y210185D02*
X140989Y215028D01*
D23*
X140989Y215028D03*
X135941Y215976D03*
D25*
X135941Y210185D01*
X136939Y210185D01*
D23*
X130939Y210185D03*
X85725Y210164D03*
D25*
X91675Y210164D02*
X91725Y210164D01*
X91675Y210164D02*
X91675Y215057D01*
D23*
X91675Y215057D03*
X96723Y216005D03*
D25*
X96723Y210164D01*
X95725Y210164D01*
X85725Y232439D02*
X85725Y232664D01*
D23*
X85725Y232439D03*
X91675Y227822D03*
D25*
X91725Y227822D01*
X91725Y232664D01*
X95725Y232664D02*
X96723Y232664D01*
X96723Y226874D01*
D23*
X96723Y226874D03*
X101725Y232439D03*
D25*
X101725Y232664D01*
D26*
X31496Y166497D03*
X31496Y153924D03*
X31496Y141351D03*
X31496Y128778D03*
X31496Y116205D03*
D32*
X48895Y183388D03*
D26*
X61468Y183388D03*
X74041Y183388D03*
X104013Y183388D03*
X116586Y183388D03*
X129159Y183388D03*
X159131Y183388D03*
X171704Y183388D03*
D32*
X184277Y183388D03*
M02*
