G04 EAGLE Gerber RS-274X export*
G75*
%MOMM*%
%FSLAX34Y34*%
%LPD*%
%INSilkscreen Bottom*%
%IPPOS*%
%AMOC8*
5,1,8,0,0,1.08239X$1,22.5*%
G01*
%ADD10C,0.127000*%
%ADD11C,0.152400*%


D10*
X99343Y32592D02*
X99343Y61592D01*
X82343Y61592D01*
X82343Y37592D01*
X82343Y32592D01*
X87343Y32592D01*
X99343Y32592D01*
X87343Y37592D02*
X82343Y37592D01*
X87343Y37592D02*
X87343Y32592D01*
D11*
X77235Y278188D02*
X77235Y295688D01*
X110735Y295688D01*
X110735Y278188D02*
X77235Y278188D01*
X110735Y278188D02*
X110735Y295688D01*
X107235Y295688D02*
X107237Y295806D01*
X107243Y295924D01*
X107253Y296042D01*
X107267Y296159D01*
X107285Y296276D01*
X107307Y296393D01*
X107332Y296508D01*
X107362Y296622D01*
X107396Y296736D01*
X107433Y296848D01*
X107474Y296959D01*
X107519Y297068D01*
X107567Y297176D01*
X107619Y297282D01*
X107675Y297387D01*
X107734Y297489D01*
X107796Y297589D01*
X107862Y297687D01*
X107931Y297783D01*
X108004Y297877D01*
X108079Y297968D01*
X108158Y298056D01*
X108239Y298142D01*
X108324Y298225D01*
X108411Y298305D01*
X108500Y298382D01*
X108593Y298456D01*
X108687Y298526D01*
X108784Y298594D01*
X108884Y298658D01*
X108985Y298719D01*
X109088Y298776D01*
X109194Y298830D01*
X109301Y298881D01*
X109409Y298927D01*
X109519Y298970D01*
X109631Y299009D01*
X109744Y299045D01*
X109858Y299076D01*
X109973Y299104D01*
X110088Y299128D01*
X110205Y299148D01*
X110322Y299164D01*
X110440Y299176D01*
X110558Y299184D01*
X110676Y299188D01*
X110794Y299188D01*
X110912Y299184D01*
X111030Y299176D01*
X111148Y299164D01*
X111265Y299148D01*
X111382Y299128D01*
X111497Y299104D01*
X111612Y299076D01*
X111726Y299045D01*
X111839Y299009D01*
X111951Y298970D01*
X112061Y298927D01*
X112169Y298881D01*
X112276Y298830D01*
X112382Y298776D01*
X112485Y298719D01*
X112586Y298658D01*
X112686Y298594D01*
X112783Y298526D01*
X112877Y298456D01*
X112970Y298382D01*
X113059Y298305D01*
X113146Y298225D01*
X113231Y298142D01*
X113312Y298056D01*
X113391Y297968D01*
X113466Y297877D01*
X113539Y297783D01*
X113608Y297687D01*
X113674Y297589D01*
X113736Y297489D01*
X113795Y297387D01*
X113851Y297282D01*
X113903Y297176D01*
X113951Y297068D01*
X113996Y296959D01*
X114037Y296848D01*
X114074Y296736D01*
X114108Y296622D01*
X114138Y296508D01*
X114163Y296393D01*
X114185Y296276D01*
X114203Y296159D01*
X114217Y296042D01*
X114227Y295924D01*
X114233Y295806D01*
X114235Y295688D01*
X114233Y295570D01*
X114227Y295452D01*
X114217Y295334D01*
X114203Y295217D01*
X114185Y295100D01*
X114163Y294983D01*
X114138Y294868D01*
X114108Y294754D01*
X114074Y294640D01*
X114037Y294528D01*
X113996Y294417D01*
X113951Y294308D01*
X113903Y294200D01*
X113851Y294094D01*
X113795Y293989D01*
X113736Y293887D01*
X113674Y293787D01*
X113608Y293689D01*
X113539Y293593D01*
X113466Y293499D01*
X113391Y293408D01*
X113312Y293320D01*
X113231Y293234D01*
X113146Y293151D01*
X113059Y293071D01*
X112970Y292994D01*
X112877Y292920D01*
X112783Y292850D01*
X112686Y292782D01*
X112586Y292718D01*
X112485Y292657D01*
X112382Y292600D01*
X112276Y292546D01*
X112169Y292495D01*
X112061Y292449D01*
X111951Y292406D01*
X111839Y292367D01*
X111726Y292331D01*
X111612Y292300D01*
X111497Y292272D01*
X111382Y292248D01*
X111265Y292228D01*
X111148Y292212D01*
X111030Y292200D01*
X110912Y292192D01*
X110794Y292188D01*
X110676Y292188D01*
X110558Y292192D01*
X110440Y292200D01*
X110322Y292212D01*
X110205Y292228D01*
X110088Y292248D01*
X109973Y292272D01*
X109858Y292300D01*
X109744Y292331D01*
X109631Y292367D01*
X109519Y292406D01*
X109409Y292449D01*
X109301Y292495D01*
X109194Y292546D01*
X109088Y292600D01*
X108985Y292657D01*
X108884Y292718D01*
X108784Y292782D01*
X108687Y292850D01*
X108593Y292920D01*
X108500Y292994D01*
X108411Y293071D01*
X108324Y293151D01*
X108239Y293234D01*
X108158Y293320D01*
X108079Y293408D01*
X108004Y293499D01*
X107931Y293593D01*
X107862Y293689D01*
X107796Y293787D01*
X107734Y293887D01*
X107675Y293989D01*
X107619Y294094D01*
X107567Y294200D01*
X107519Y294308D01*
X107474Y294417D01*
X107433Y294528D01*
X107396Y294640D01*
X107362Y294754D01*
X107332Y294868D01*
X107307Y294983D01*
X107285Y295100D01*
X107267Y295217D01*
X107253Y295334D01*
X107243Y295452D01*
X107237Y295570D01*
X107235Y295688D01*
X121939Y295688D02*
X121939Y278188D01*
X121939Y295688D02*
X155439Y295688D01*
X155439Y278188D02*
X121939Y278188D01*
X155439Y278188D02*
X155439Y295688D01*
X151939Y295688D02*
X151941Y295806D01*
X151947Y295924D01*
X151957Y296042D01*
X151971Y296159D01*
X151989Y296276D01*
X152011Y296393D01*
X152036Y296508D01*
X152066Y296622D01*
X152100Y296736D01*
X152137Y296848D01*
X152178Y296959D01*
X152223Y297068D01*
X152271Y297176D01*
X152323Y297282D01*
X152379Y297387D01*
X152438Y297489D01*
X152500Y297589D01*
X152566Y297687D01*
X152635Y297783D01*
X152708Y297877D01*
X152783Y297968D01*
X152862Y298056D01*
X152943Y298142D01*
X153028Y298225D01*
X153115Y298305D01*
X153204Y298382D01*
X153297Y298456D01*
X153391Y298526D01*
X153488Y298594D01*
X153588Y298658D01*
X153689Y298719D01*
X153792Y298776D01*
X153898Y298830D01*
X154005Y298881D01*
X154113Y298927D01*
X154223Y298970D01*
X154335Y299009D01*
X154448Y299045D01*
X154562Y299076D01*
X154677Y299104D01*
X154792Y299128D01*
X154909Y299148D01*
X155026Y299164D01*
X155144Y299176D01*
X155262Y299184D01*
X155380Y299188D01*
X155498Y299188D01*
X155616Y299184D01*
X155734Y299176D01*
X155852Y299164D01*
X155969Y299148D01*
X156086Y299128D01*
X156201Y299104D01*
X156316Y299076D01*
X156430Y299045D01*
X156543Y299009D01*
X156655Y298970D01*
X156765Y298927D01*
X156873Y298881D01*
X156980Y298830D01*
X157086Y298776D01*
X157189Y298719D01*
X157290Y298658D01*
X157390Y298594D01*
X157487Y298526D01*
X157581Y298456D01*
X157674Y298382D01*
X157763Y298305D01*
X157850Y298225D01*
X157935Y298142D01*
X158016Y298056D01*
X158095Y297968D01*
X158170Y297877D01*
X158243Y297783D01*
X158312Y297687D01*
X158378Y297589D01*
X158440Y297489D01*
X158499Y297387D01*
X158555Y297282D01*
X158607Y297176D01*
X158655Y297068D01*
X158700Y296959D01*
X158741Y296848D01*
X158778Y296736D01*
X158812Y296622D01*
X158842Y296508D01*
X158867Y296393D01*
X158889Y296276D01*
X158907Y296159D01*
X158921Y296042D01*
X158931Y295924D01*
X158937Y295806D01*
X158939Y295688D01*
X158937Y295570D01*
X158931Y295452D01*
X158921Y295334D01*
X158907Y295217D01*
X158889Y295100D01*
X158867Y294983D01*
X158842Y294868D01*
X158812Y294754D01*
X158778Y294640D01*
X158741Y294528D01*
X158700Y294417D01*
X158655Y294308D01*
X158607Y294200D01*
X158555Y294094D01*
X158499Y293989D01*
X158440Y293887D01*
X158378Y293787D01*
X158312Y293689D01*
X158243Y293593D01*
X158170Y293499D01*
X158095Y293408D01*
X158016Y293320D01*
X157935Y293234D01*
X157850Y293151D01*
X157763Y293071D01*
X157674Y292994D01*
X157581Y292920D01*
X157487Y292850D01*
X157390Y292782D01*
X157290Y292718D01*
X157189Y292657D01*
X157086Y292600D01*
X156980Y292546D01*
X156873Y292495D01*
X156765Y292449D01*
X156655Y292406D01*
X156543Y292367D01*
X156430Y292331D01*
X156316Y292300D01*
X156201Y292272D01*
X156086Y292248D01*
X155969Y292228D01*
X155852Y292212D01*
X155734Y292200D01*
X155616Y292192D01*
X155498Y292188D01*
X155380Y292188D01*
X155262Y292192D01*
X155144Y292200D01*
X155026Y292212D01*
X154909Y292228D01*
X154792Y292248D01*
X154677Y292272D01*
X154562Y292300D01*
X154448Y292331D01*
X154335Y292367D01*
X154223Y292406D01*
X154113Y292449D01*
X154005Y292495D01*
X153898Y292546D01*
X153792Y292600D01*
X153689Y292657D01*
X153588Y292718D01*
X153488Y292782D01*
X153391Y292850D01*
X153297Y292920D01*
X153204Y292994D01*
X153115Y293071D01*
X153028Y293151D01*
X152943Y293234D01*
X152862Y293320D01*
X152783Y293408D01*
X152708Y293499D01*
X152635Y293593D01*
X152566Y293689D01*
X152500Y293787D01*
X152438Y293887D01*
X152379Y293989D01*
X152323Y294094D01*
X152271Y294200D01*
X152223Y294308D01*
X152178Y294417D01*
X152137Y294528D01*
X152100Y294640D01*
X152066Y294754D01*
X152036Y294868D01*
X152011Y294983D01*
X151989Y295100D01*
X151971Y295217D01*
X151957Y295334D01*
X151947Y295452D01*
X151941Y295570D01*
X151939Y295688D01*
X121939Y230410D02*
X121939Y212910D01*
X121939Y230410D02*
X155439Y230410D01*
X155439Y212910D02*
X121939Y212910D01*
X155439Y212910D02*
X155439Y230410D01*
X151939Y230410D02*
X151941Y230528D01*
X151947Y230646D01*
X151957Y230764D01*
X151971Y230881D01*
X151989Y230998D01*
X152011Y231115D01*
X152036Y231230D01*
X152066Y231344D01*
X152100Y231458D01*
X152137Y231570D01*
X152178Y231681D01*
X152223Y231790D01*
X152271Y231898D01*
X152323Y232004D01*
X152379Y232109D01*
X152438Y232211D01*
X152500Y232311D01*
X152566Y232409D01*
X152635Y232505D01*
X152708Y232599D01*
X152783Y232690D01*
X152862Y232778D01*
X152943Y232864D01*
X153028Y232947D01*
X153115Y233027D01*
X153204Y233104D01*
X153297Y233178D01*
X153391Y233248D01*
X153488Y233316D01*
X153588Y233380D01*
X153689Y233441D01*
X153792Y233498D01*
X153898Y233552D01*
X154005Y233603D01*
X154113Y233649D01*
X154223Y233692D01*
X154335Y233731D01*
X154448Y233767D01*
X154562Y233798D01*
X154677Y233826D01*
X154792Y233850D01*
X154909Y233870D01*
X155026Y233886D01*
X155144Y233898D01*
X155262Y233906D01*
X155380Y233910D01*
X155498Y233910D01*
X155616Y233906D01*
X155734Y233898D01*
X155852Y233886D01*
X155969Y233870D01*
X156086Y233850D01*
X156201Y233826D01*
X156316Y233798D01*
X156430Y233767D01*
X156543Y233731D01*
X156655Y233692D01*
X156765Y233649D01*
X156873Y233603D01*
X156980Y233552D01*
X157086Y233498D01*
X157189Y233441D01*
X157290Y233380D01*
X157390Y233316D01*
X157487Y233248D01*
X157581Y233178D01*
X157674Y233104D01*
X157763Y233027D01*
X157850Y232947D01*
X157935Y232864D01*
X158016Y232778D01*
X158095Y232690D01*
X158170Y232599D01*
X158243Y232505D01*
X158312Y232409D01*
X158378Y232311D01*
X158440Y232211D01*
X158499Y232109D01*
X158555Y232004D01*
X158607Y231898D01*
X158655Y231790D01*
X158700Y231681D01*
X158741Y231570D01*
X158778Y231458D01*
X158812Y231344D01*
X158842Y231230D01*
X158867Y231115D01*
X158889Y230998D01*
X158907Y230881D01*
X158921Y230764D01*
X158931Y230646D01*
X158937Y230528D01*
X158939Y230410D01*
X158937Y230292D01*
X158931Y230174D01*
X158921Y230056D01*
X158907Y229939D01*
X158889Y229822D01*
X158867Y229705D01*
X158842Y229590D01*
X158812Y229476D01*
X158778Y229362D01*
X158741Y229250D01*
X158700Y229139D01*
X158655Y229030D01*
X158607Y228922D01*
X158555Y228816D01*
X158499Y228711D01*
X158440Y228609D01*
X158378Y228509D01*
X158312Y228411D01*
X158243Y228315D01*
X158170Y228221D01*
X158095Y228130D01*
X158016Y228042D01*
X157935Y227956D01*
X157850Y227873D01*
X157763Y227793D01*
X157674Y227716D01*
X157581Y227642D01*
X157487Y227572D01*
X157390Y227504D01*
X157290Y227440D01*
X157189Y227379D01*
X157086Y227322D01*
X156980Y227268D01*
X156873Y227217D01*
X156765Y227171D01*
X156655Y227128D01*
X156543Y227089D01*
X156430Y227053D01*
X156316Y227022D01*
X156201Y226994D01*
X156086Y226970D01*
X155969Y226950D01*
X155852Y226934D01*
X155734Y226922D01*
X155616Y226914D01*
X155498Y226910D01*
X155380Y226910D01*
X155262Y226914D01*
X155144Y226922D01*
X155026Y226934D01*
X154909Y226950D01*
X154792Y226970D01*
X154677Y226994D01*
X154562Y227022D01*
X154448Y227053D01*
X154335Y227089D01*
X154223Y227128D01*
X154113Y227171D01*
X154005Y227217D01*
X153898Y227268D01*
X153792Y227322D01*
X153689Y227379D01*
X153588Y227440D01*
X153488Y227504D01*
X153391Y227572D01*
X153297Y227642D01*
X153204Y227716D01*
X153115Y227793D01*
X153028Y227873D01*
X152943Y227956D01*
X152862Y228042D01*
X152783Y228130D01*
X152708Y228221D01*
X152635Y228315D01*
X152566Y228411D01*
X152500Y228509D01*
X152438Y228609D01*
X152379Y228711D01*
X152323Y228816D01*
X152271Y228922D01*
X152223Y229030D01*
X152178Y229139D01*
X152137Y229250D01*
X152100Y229362D01*
X152066Y229476D01*
X152036Y229590D01*
X152011Y229705D01*
X151989Y229822D01*
X151971Y229939D01*
X151957Y230056D01*
X151947Y230174D01*
X151941Y230292D01*
X151939Y230410D01*
X110725Y229939D02*
X110725Y212439D01*
X77225Y212439D01*
X77225Y229939D02*
X110725Y229939D01*
X77225Y229939D02*
X77225Y212439D01*
X73725Y212439D02*
X73727Y212557D01*
X73733Y212675D01*
X73743Y212793D01*
X73757Y212910D01*
X73775Y213027D01*
X73797Y213144D01*
X73822Y213259D01*
X73852Y213373D01*
X73886Y213487D01*
X73923Y213599D01*
X73964Y213710D01*
X74009Y213819D01*
X74057Y213927D01*
X74109Y214033D01*
X74165Y214138D01*
X74224Y214240D01*
X74286Y214340D01*
X74352Y214438D01*
X74421Y214534D01*
X74494Y214628D01*
X74569Y214719D01*
X74648Y214807D01*
X74729Y214893D01*
X74814Y214976D01*
X74901Y215056D01*
X74990Y215133D01*
X75083Y215207D01*
X75177Y215277D01*
X75274Y215345D01*
X75374Y215409D01*
X75475Y215470D01*
X75578Y215527D01*
X75684Y215581D01*
X75791Y215632D01*
X75899Y215678D01*
X76009Y215721D01*
X76121Y215760D01*
X76234Y215796D01*
X76348Y215827D01*
X76463Y215855D01*
X76578Y215879D01*
X76695Y215899D01*
X76812Y215915D01*
X76930Y215927D01*
X77048Y215935D01*
X77166Y215939D01*
X77284Y215939D01*
X77402Y215935D01*
X77520Y215927D01*
X77638Y215915D01*
X77755Y215899D01*
X77872Y215879D01*
X77987Y215855D01*
X78102Y215827D01*
X78216Y215796D01*
X78329Y215760D01*
X78441Y215721D01*
X78551Y215678D01*
X78659Y215632D01*
X78766Y215581D01*
X78872Y215527D01*
X78975Y215470D01*
X79076Y215409D01*
X79176Y215345D01*
X79273Y215277D01*
X79367Y215207D01*
X79460Y215133D01*
X79549Y215056D01*
X79636Y214976D01*
X79721Y214893D01*
X79802Y214807D01*
X79881Y214719D01*
X79956Y214628D01*
X80029Y214534D01*
X80098Y214438D01*
X80164Y214340D01*
X80226Y214240D01*
X80285Y214138D01*
X80341Y214033D01*
X80393Y213927D01*
X80441Y213819D01*
X80486Y213710D01*
X80527Y213599D01*
X80564Y213487D01*
X80598Y213373D01*
X80628Y213259D01*
X80653Y213144D01*
X80675Y213027D01*
X80693Y212910D01*
X80707Y212793D01*
X80717Y212675D01*
X80723Y212557D01*
X80725Y212439D01*
X80723Y212321D01*
X80717Y212203D01*
X80707Y212085D01*
X80693Y211968D01*
X80675Y211851D01*
X80653Y211734D01*
X80628Y211619D01*
X80598Y211505D01*
X80564Y211391D01*
X80527Y211279D01*
X80486Y211168D01*
X80441Y211059D01*
X80393Y210951D01*
X80341Y210845D01*
X80285Y210740D01*
X80226Y210638D01*
X80164Y210538D01*
X80098Y210440D01*
X80029Y210344D01*
X79956Y210250D01*
X79881Y210159D01*
X79802Y210071D01*
X79721Y209985D01*
X79636Y209902D01*
X79549Y209822D01*
X79460Y209745D01*
X79367Y209671D01*
X79273Y209601D01*
X79176Y209533D01*
X79076Y209469D01*
X78975Y209408D01*
X78872Y209351D01*
X78766Y209297D01*
X78659Y209246D01*
X78551Y209200D01*
X78441Y209157D01*
X78329Y209118D01*
X78216Y209082D01*
X78102Y209051D01*
X77987Y209023D01*
X77872Y208999D01*
X77755Y208979D01*
X77638Y208963D01*
X77520Y208951D01*
X77402Y208943D01*
X77284Y208939D01*
X77166Y208939D01*
X77048Y208943D01*
X76930Y208951D01*
X76812Y208963D01*
X76695Y208979D01*
X76578Y208999D01*
X76463Y209023D01*
X76348Y209051D01*
X76234Y209082D01*
X76121Y209118D01*
X76009Y209157D01*
X75899Y209200D01*
X75791Y209246D01*
X75684Y209297D01*
X75578Y209351D01*
X75475Y209408D01*
X75374Y209469D01*
X75274Y209533D01*
X75177Y209601D01*
X75083Y209671D01*
X74990Y209745D01*
X74901Y209822D01*
X74814Y209902D01*
X74729Y209985D01*
X74648Y210071D01*
X74569Y210159D01*
X74494Y210250D01*
X74421Y210344D01*
X74352Y210440D01*
X74286Y210538D01*
X74224Y210638D01*
X74165Y210740D01*
X74109Y210845D01*
X74057Y210951D01*
X74009Y211059D01*
X73964Y211168D01*
X73923Y211279D01*
X73886Y211391D01*
X73852Y211505D01*
X73822Y211619D01*
X73797Y211734D01*
X73775Y211851D01*
X73757Y211968D01*
X73743Y212085D01*
X73733Y212203D01*
X73727Y212321D01*
X73725Y212439D01*
D10*
X86332Y91158D02*
X146332Y91158D01*
X146332Y151158D01*
X86332Y151158D01*
X86332Y91158D01*
X133504Y101158D02*
X133506Y101264D01*
X133512Y101369D01*
X133522Y101475D01*
X133536Y101579D01*
X133553Y101684D01*
X133575Y101787D01*
X133600Y101890D01*
X133630Y101992D01*
X133663Y102092D01*
X133699Y102191D01*
X133740Y102289D01*
X133784Y102385D01*
X133832Y102479D01*
X133883Y102572D01*
X133937Y102663D01*
X133995Y102751D01*
X134057Y102837D01*
X134121Y102921D01*
X134188Y103003D01*
X134259Y103082D01*
X134332Y103158D01*
X134408Y103231D01*
X134487Y103302D01*
X134569Y103369D01*
X134653Y103433D01*
X134739Y103495D01*
X134827Y103553D01*
X134918Y103607D01*
X135011Y103658D01*
X135105Y103706D01*
X135201Y103750D01*
X135299Y103791D01*
X135398Y103827D01*
X135498Y103860D01*
X135600Y103890D01*
X135703Y103915D01*
X135806Y103937D01*
X135911Y103954D01*
X136015Y103968D01*
X136121Y103978D01*
X136226Y103984D01*
X136332Y103986D01*
X136438Y103984D01*
X136543Y103978D01*
X136649Y103968D01*
X136753Y103954D01*
X136858Y103937D01*
X136961Y103915D01*
X137064Y103890D01*
X137166Y103860D01*
X137266Y103827D01*
X137365Y103791D01*
X137463Y103750D01*
X137559Y103706D01*
X137653Y103658D01*
X137746Y103607D01*
X137837Y103553D01*
X137925Y103495D01*
X138011Y103433D01*
X138095Y103369D01*
X138177Y103302D01*
X138256Y103231D01*
X138332Y103158D01*
X138405Y103082D01*
X138476Y103003D01*
X138543Y102921D01*
X138607Y102837D01*
X138669Y102751D01*
X138727Y102663D01*
X138781Y102572D01*
X138832Y102479D01*
X138880Y102385D01*
X138924Y102289D01*
X138965Y102191D01*
X139001Y102092D01*
X139034Y101992D01*
X139064Y101890D01*
X139089Y101787D01*
X139111Y101684D01*
X139128Y101579D01*
X139142Y101475D01*
X139152Y101369D01*
X139158Y101264D01*
X139160Y101158D01*
X139158Y101052D01*
X139152Y100947D01*
X139142Y100841D01*
X139128Y100737D01*
X139111Y100632D01*
X139089Y100529D01*
X139064Y100426D01*
X139034Y100324D01*
X139001Y100224D01*
X138965Y100125D01*
X138924Y100027D01*
X138880Y99931D01*
X138832Y99837D01*
X138781Y99744D01*
X138727Y99653D01*
X138669Y99565D01*
X138607Y99479D01*
X138543Y99395D01*
X138476Y99313D01*
X138405Y99234D01*
X138332Y99158D01*
X138256Y99085D01*
X138177Y99014D01*
X138095Y98947D01*
X138011Y98883D01*
X137925Y98821D01*
X137837Y98763D01*
X137746Y98709D01*
X137653Y98658D01*
X137559Y98610D01*
X137463Y98566D01*
X137365Y98525D01*
X137266Y98489D01*
X137166Y98456D01*
X137064Y98426D01*
X136961Y98401D01*
X136858Y98379D01*
X136753Y98362D01*
X136649Y98348D01*
X136543Y98338D01*
X136438Y98332D01*
X136332Y98330D01*
X136226Y98332D01*
X136121Y98338D01*
X136015Y98348D01*
X135911Y98362D01*
X135806Y98379D01*
X135703Y98401D01*
X135600Y98426D01*
X135498Y98456D01*
X135398Y98489D01*
X135299Y98525D01*
X135201Y98566D01*
X135105Y98610D01*
X135011Y98658D01*
X134918Y98709D01*
X134827Y98763D01*
X134739Y98821D01*
X134653Y98883D01*
X134569Y98947D01*
X134487Y99014D01*
X134408Y99085D01*
X134332Y99158D01*
X134259Y99234D01*
X134188Y99313D01*
X134121Y99395D01*
X134057Y99479D01*
X133995Y99565D01*
X133937Y99653D01*
X133883Y99744D01*
X133832Y99837D01*
X133784Y99931D01*
X133740Y100027D01*
X133699Y100125D01*
X133663Y100224D01*
X133630Y100324D01*
X133600Y100426D01*
X133575Y100529D01*
X133553Y100632D01*
X133536Y100737D01*
X133522Y100841D01*
X133512Y100947D01*
X133506Y101052D01*
X133504Y101158D01*
D11*
X67434Y173274D02*
X41934Y173274D01*
X41934Y130774D01*
X67434Y130774D02*
X67434Y173274D01*
X67434Y130774D02*
X41934Y130774D01*
X36984Y173274D02*
X36986Y173414D01*
X36992Y173554D01*
X37002Y173694D01*
X37016Y173833D01*
X37033Y173972D01*
X37055Y174111D01*
X37081Y174248D01*
X37110Y174385D01*
X37144Y174521D01*
X37181Y174656D01*
X37222Y174790D01*
X37267Y174923D01*
X37315Y175054D01*
X37368Y175184D01*
X37423Y175313D01*
X37483Y175440D01*
X37546Y175565D01*
X37613Y175688D01*
X37683Y175809D01*
X37756Y175929D01*
X37833Y176046D01*
X37913Y176161D01*
X37996Y176273D01*
X38083Y176384D01*
X38172Y176491D01*
X38265Y176597D01*
X38360Y176699D01*
X38459Y176799D01*
X38560Y176896D01*
X38664Y176990D01*
X38770Y177081D01*
X38879Y177169D01*
X38991Y177254D01*
X39104Y177335D01*
X39220Y177414D01*
X39339Y177489D01*
X39459Y177561D01*
X39581Y177629D01*
X39705Y177694D01*
X39831Y177755D01*
X39959Y177813D01*
X40088Y177867D01*
X40219Y177917D01*
X40351Y177964D01*
X40485Y178007D01*
X40619Y178046D01*
X40755Y178081D01*
X40891Y178113D01*
X41028Y178140D01*
X41167Y178164D01*
X41305Y178184D01*
X41444Y178200D01*
X41584Y178212D01*
X41724Y178220D01*
X41864Y178224D01*
X42004Y178224D01*
X42144Y178220D01*
X42284Y178212D01*
X42424Y178200D01*
X42563Y178184D01*
X42701Y178164D01*
X42840Y178140D01*
X42977Y178113D01*
X43113Y178081D01*
X43249Y178046D01*
X43383Y178007D01*
X43517Y177964D01*
X43649Y177917D01*
X43780Y177867D01*
X43909Y177813D01*
X44037Y177755D01*
X44163Y177694D01*
X44287Y177629D01*
X44409Y177561D01*
X44529Y177489D01*
X44648Y177414D01*
X44764Y177335D01*
X44877Y177254D01*
X44989Y177169D01*
X45098Y177081D01*
X45204Y176990D01*
X45308Y176896D01*
X45409Y176799D01*
X45508Y176699D01*
X45603Y176597D01*
X45696Y176491D01*
X45785Y176384D01*
X45872Y176273D01*
X45955Y176161D01*
X46035Y176046D01*
X46112Y175929D01*
X46185Y175809D01*
X46255Y175688D01*
X46322Y175565D01*
X46385Y175440D01*
X46445Y175313D01*
X46500Y175184D01*
X46553Y175054D01*
X46601Y174923D01*
X46646Y174790D01*
X46687Y174656D01*
X46724Y174521D01*
X46758Y174385D01*
X46787Y174248D01*
X46813Y174111D01*
X46835Y173972D01*
X46852Y173833D01*
X46866Y173694D01*
X46876Y173554D01*
X46882Y173414D01*
X46884Y173274D01*
X46882Y173134D01*
X46876Y172994D01*
X46866Y172854D01*
X46852Y172715D01*
X46835Y172576D01*
X46813Y172437D01*
X46787Y172300D01*
X46758Y172163D01*
X46724Y172027D01*
X46687Y171892D01*
X46646Y171758D01*
X46601Y171625D01*
X46553Y171494D01*
X46500Y171364D01*
X46445Y171235D01*
X46385Y171108D01*
X46322Y170983D01*
X46255Y170860D01*
X46185Y170739D01*
X46112Y170619D01*
X46035Y170502D01*
X45955Y170387D01*
X45872Y170275D01*
X45785Y170164D01*
X45696Y170057D01*
X45603Y169951D01*
X45508Y169849D01*
X45409Y169749D01*
X45308Y169652D01*
X45204Y169558D01*
X45098Y169467D01*
X44989Y169379D01*
X44877Y169294D01*
X44764Y169213D01*
X44648Y169134D01*
X44529Y169059D01*
X44409Y168987D01*
X44287Y168919D01*
X44163Y168854D01*
X44037Y168793D01*
X43909Y168735D01*
X43780Y168681D01*
X43649Y168631D01*
X43517Y168584D01*
X43383Y168541D01*
X43249Y168502D01*
X43113Y168467D01*
X42977Y168435D01*
X42840Y168408D01*
X42701Y168384D01*
X42563Y168364D01*
X42424Y168348D01*
X42284Y168336D01*
X42144Y168328D01*
X42004Y168324D01*
X41864Y168324D01*
X41724Y168328D01*
X41584Y168336D01*
X41444Y168348D01*
X41305Y168364D01*
X41167Y168384D01*
X41028Y168408D01*
X40891Y168435D01*
X40755Y168467D01*
X40619Y168502D01*
X40485Y168541D01*
X40351Y168584D01*
X40219Y168631D01*
X40088Y168681D01*
X39959Y168735D01*
X39831Y168793D01*
X39705Y168854D01*
X39581Y168919D01*
X39459Y168987D01*
X39339Y169059D01*
X39220Y169134D01*
X39104Y169213D01*
X38991Y169294D01*
X38879Y169379D01*
X38770Y169467D01*
X38664Y169558D01*
X38560Y169652D01*
X38459Y169749D01*
X38360Y169849D01*
X38265Y169951D01*
X38172Y170057D01*
X38083Y170164D01*
X37996Y170275D01*
X37913Y170387D01*
X37833Y170502D01*
X37756Y170619D01*
X37683Y170739D01*
X37613Y170860D01*
X37546Y170983D01*
X37483Y171108D01*
X37423Y171235D01*
X37368Y171364D01*
X37315Y171494D01*
X37267Y171625D01*
X37222Y171758D01*
X37181Y171892D01*
X37144Y172027D01*
X37110Y172163D01*
X37081Y172300D01*
X37055Y172437D01*
X37033Y172576D01*
X37016Y172715D01*
X37002Y172854D01*
X36992Y172994D01*
X36986Y173134D01*
X36984Y173274D01*
X170320Y84574D02*
X170320Y32774D01*
X170320Y84574D02*
X137020Y84574D01*
X137020Y32774D01*
X170320Y32774D01*
D10*
X163625Y161337D02*
X163625Y173337D01*
X183125Y173337D01*
X185625Y170837D01*
X185625Y161837D02*
X185625Y150837D01*
X163625Y151837D02*
X163625Y138837D01*
X185625Y138837D01*
X185625Y141837D01*
M02*
