M48
;GenerationSoftware,Autodesk,EAGLE,9.6.2*%
;CreationDate,2020-10-24T11:55:15Z*%
FMAT,2
ICI,OFF
METRIC,TZ,000.000
T7C0.200
T6C0.300
T5C0.350
T4C0.550
T3C0.813
T2C1.000
T1C1.016
%
G90
M71
T1
X94564Y88087
X92024Y88087
X92024Y85547
X89484Y88087
X89484Y85547
X86944Y88087
X86944Y85547
X84404Y88087
X84404Y85547
X66078Y52146
X81864Y55067
X79324Y55067
X97104Y70307
X94564Y70307
X63538Y52146
X60998Y52146
X58458Y52146
X55918Y52146
X53378Y52146
X97104Y72847
X50838Y52146
X48298Y52146
X45758Y52146
X43218Y52146
X33693Y52146
X31153Y52146
X28613Y52146
X26073Y52146
X23533Y52146
X20993Y52146
X18453Y52146
X15913Y52146
X13373Y52146
X10833Y52146
X97104Y55067
X94564Y55067
X92024Y55067
X89484Y55067
X94564Y72847
X97104Y75387
X94564Y75387
X97104Y77927
X94564Y77927
X97104Y80467
X94564Y80467
X97104Y83007
X94564Y83007
X97104Y85547
X86944Y55067
X84404Y55067
X94564Y85547
X97104Y88087
T2
X65380Y13881
X83134Y82347
X79959Y82347
X83134Y68428
X79959Y68428
X64110Y13881
X62840Y13881
X38392Y30074
X68237Y28804
X39726Y68656
X39726Y67386
X39726Y66116
X39726Y64846
X39726Y63576
X39726Y62306
X37186Y68656
X37186Y67386
X37186Y66116
X37186Y64846
X37186Y63576
X68237Y30074
X68237Y31344
X68237Y32614
X68237Y33884
X68237Y35154
X68237Y36424
X38392Y36424
X38392Y35154
X38392Y33884
X38392Y32614
X8890Y23177
X6350Y23177
X55220Y13881
X3810Y23177
X3810Y20638
X6350Y20638
X8890Y20638
X14605Y20638
X17145Y20638
X19685Y20638
X19685Y23177
X17145Y23177
X14605Y23177
X37186Y62306
X30480Y23177
X27940Y23177
X25400Y23177
X25400Y20638
X27940Y20638
X30480Y20638
X38392Y31344
X7341Y68656
X37186Y86119
X37186Y84849
X37186Y83579
X37186Y82309
X37186Y81039
X37186Y79769
X39726Y79769
X39726Y81039
X39726Y82309
X39726Y83579
X39726Y84849
X39726Y86119
X69571Y86119
X69571Y84849
X69571Y83579
X69571Y82309
X69571Y81039
X69571Y79769
X7341Y86119
X7341Y84849
X7341Y83579
X7341Y82309
X7341Y81039
X7341Y79769
X7341Y67386
X7341Y66116
X7341Y64846
X7341Y63576
X7341Y62306
X69571Y68656
X69571Y67386
X69571Y66116
X69571Y64846
X69571Y63576
X69571Y62306
X22987Y12421
X24270Y12484
X10833Y12319
X9576Y12306
X2223Y19050
X2223Y17780
X2223Y16510
X2223Y15240
X32067Y19050
X32067Y17780
X32067Y16510
X32067Y15240
X2223Y12700
X2223Y13970
X32067Y12700
X32067Y13970
X2223Y28575
X2223Y29845
X2223Y31115
X2223Y32385
X2223Y33655
X61570Y13881
X32067Y28575
X32067Y29845
X32067Y31115
X32067Y32385
X46965Y21819
X45695Y21819
X44425Y23089
X46965Y23089
X44425Y21819
X45695Y23089
X44425Y24359
X46965Y24359
X45695Y24359
X32067Y33655
X38710Y13881
X39980Y13881
X41250Y13881
X42520Y13881
X43790Y13881
X45060Y13881
X45060Y15151
X43790Y15151
X42520Y15151
X41250Y15151
X39980Y15151
X38710Y15151
X56490Y16434
X49505Y15151
X50775Y15151
X52045Y15151
X50775Y13881
X52045Y13881
X55220Y15151
X49505Y16421
X50775Y16421
X52045Y16421
X55220Y16421
X2223Y34925
X2223Y36195
X53315Y23089
X53315Y21819
X52045Y21819
X52045Y23089
X53315Y24359
X52045Y24359
X54585Y24359
X54585Y23089
X54585Y21819
X32067Y36195
X32067Y34925
X60935Y23089
X60935Y21819
X59665Y23089
X59665Y24359
X60935Y24359
X62205Y24359
X62205Y23089
X62205Y21819
X59665Y21819
X38392Y28804
X60300Y13881
X60300Y15151
X61570Y15151
X62840Y15151
X64110Y15151
X65380Y15151
X66650Y15151
X66650Y13881
T3
X38456Y72593
X91516Y62052
X95072Y62052
X81356Y62052
X84912Y62052
X38456Y76149
X70841Y72593
X70841Y76149
X6071Y72593
X6071Y76149
T4
X73825Y23685
X74517Y22993
X75209Y22993
X75902Y22993
X73825Y22993
X76943Y16192
X77635Y16192
X78327Y16192
X76251Y16192
X77661Y20212
X76968Y20212
X76968Y18136
X77661Y18828
X76968Y18828
X77661Y18136
X77661Y19520
X76371Y19863
X76968Y19520
X76371Y19171
X79991Y18828
X80683Y18828
X81375Y18828
X79299Y18828
X79991Y18136
X80683Y18136
X75070Y11862
X74378Y12554
X74378Y11862
X73685Y13246
X73685Y11862
X74378Y13246
X73685Y12554
X75070Y13246
X84842Y22669
X86919Y22669
X86227Y22669
X85535Y22669
X82760Y18828
X79019Y16192
X80283Y22600
X80975Y22600
X78899Y22600
X79591Y23292
X81667Y22600
X78899Y23292
X79591Y22600
X80283Y23292
X88411Y12554
X88411Y11862
X87719Y12554
X87719Y11862
X87027Y13246
X87027Y11862
X87719Y13246
X87027Y12554
X88411Y13246
X74517Y23685
X75209Y23685
X75902Y23685
X84842Y23362
X86919Y23362
X86227Y23362
X85535Y23362
X85719Y19171
X85122Y19520
X85719Y19863
X84430Y19520
X75070Y12554
X85122Y18828
X84430Y18828
X85122Y18136
X85122Y20212
X84430Y20212
X82760Y18136
X82067Y18828
X82067Y18136
X79299Y18136
X81375Y18136
X84430Y18136
T5
X23647Y11957
X13335Y14287
T6
X78950Y25597
X78251Y25597
X77553Y25597
X76854Y25597
X81744Y25597
X82442Y25597
X83141Y25597
X83839Y25597
X84538Y25597
X85236Y25597
X88817Y32328
X88817Y31629
X88817Y30931
X88817Y30232
X88817Y29534
X88817Y28835
X88817Y28137
X88817Y27438
X88817Y26740
X88817Y26041
X79299Y32760
X78600Y32760
X77902Y32760
X77203Y32760
X76854Y24092
X77553Y24092
X78251Y24092
X49124Y11798
X49822Y11798
X50521Y11798
X51219Y11798
X51918Y11798
X52616Y11798
X53315Y11798
X54013Y11798
X54712Y11798
X55410Y11798
X56109Y11798
X56807Y11798
X57506Y11798
X12954Y11570
X13652Y11570
X14351Y11570
X15049Y11570
X15748Y11570
X16447Y11570
X17844Y11570
X18542Y11570
X19241Y11570
X19939Y11570
X20638Y11570
X21336Y11570
X78950Y24092
X79648Y24092
X80347Y24092
X81045Y24092
X81744Y24092
X82442Y24092
X83141Y24092
X83839Y24092
X84538Y24092
X85236Y24092
X91567Y75387
X91567Y74689
X91567Y73990
X91567Y73292
X91567Y72593
X91567Y71895
X91567Y71196
X91567Y76086
X91567Y76784
X91567Y77483
X91567Y78181
X91567Y78880
X91567Y79578
X84836Y83160
X85535Y83160
X86233Y83160
X86932Y83160
X87630Y83160
X88328Y83160
X89027Y83160
X89725Y83160
X90424Y83160
X91122Y83160
X17145Y11570
X81045Y25597
X80347Y25597
X79648Y25597
X14491Y68224
X14491Y67526
X14491Y66827
X14491Y66129
X14491Y65430
X14491Y64732
X14491Y64033
X14491Y63335
X14491Y62636
X14491Y61938
X46876Y68224
X46876Y67526
X46876Y66827
X46876Y66129
X46876Y65430
X46876Y64732
X46876Y64033
X46876Y63335
X46876Y62636
X46876Y61938
T7
X85595Y31880
X85166Y26308
X75325Y31559
X76325Y30772
X76325Y32347
X75395Y29991
X82950Y23373
X79418Y32091
X86487Y25960
X87928Y29685
X87262Y30529
X76258Y27180
X88049Y31526
X86703Y27662
X80467Y32596
X73837Y27180
X74636Y29197
X82404Y26956
X77845Y31921
X75197Y25889
X80474Y28410
X84169Y30881
X82321Y29153
X53315Y33566
X84169Y29045
X80473Y31001
X73636Y31559
X86989Y31396
X86201Y31396
X87274Y26960
X86487Y26960
X75389Y29197
X86703Y28623
X79924Y32596
X84267Y32595
X73627Y29207
X68310Y13811
X64110Y17844
X68310Y26511
X53315Y19114
X57515Y26511
X46732Y13963
X42520Y21111
X88062Y26960
X77730Y30318
X77951Y28778
X88328Y16180
X78400Y17272
X75721Y28232
X77934Y26818
X85175Y32228
X74636Y31559
X76537Y26230
X74636Y30772
X73837Y26230
X87709Y32228
X82095Y32596
X82638Y32596
X86592Y30602
X85856Y28983
X83181Y32596
X85858Y27408
X78568Y28429
X85859Y27951
X78828Y28937
X86049Y30602
X85858Y29704
X86398Y29932
X87262Y29529
X78755Y30024
X81010Y32595
X81553Y32596
X78212Y30033
X77730Y29748
X83724Y32596
M30