G04 EAGLE Gerber RS-274X export*
G75*
%MOMM*%
%FSLAX34Y34*%
%LPD*%
%INBottom Copper*%
%IPPOS*%
%AMOC8*
5,1,8,0,0,1.08239X$1,22.5*%
G01*
G04 Define Apertures*
%ADD10P,1.924489X8X112.500000*%
%ADD11C,1.905000*%
%ADD12P,2.061953X8X22.500000*%
%ADD13P,2.061953X8X292.500000*%
%ADD14C,0.756400*%
%ADD15C,0.906400*%
%ADD16C,0.304800*%
%ADD17C,0.203200*%
%ADD18C,0.152400*%
G36*
X310685Y403285D02*
X310935Y403457D01*
X311099Y403712D01*
X311150Y403987D01*
X311150Y473013D01*
X311159Y473068D01*
X311162Y473069D01*
X311202Y473075D01*
X433378Y473075D01*
X433675Y473135D01*
X433925Y473307D01*
X434089Y473562D01*
X434140Y473837D01*
X434140Y576328D01*
X434080Y576625D01*
X433908Y576875D01*
X433653Y577039D01*
X433378Y577090D01*
X10922Y577090D01*
X10625Y577030D01*
X10375Y576858D01*
X10211Y576603D01*
X10160Y576328D01*
X10160Y473837D01*
X10220Y473540D01*
X10392Y473290D01*
X10647Y473126D01*
X10922Y473075D01*
X260288Y473075D01*
X260343Y473066D01*
X260344Y473063D01*
X260350Y473023D01*
X260350Y403987D01*
X260410Y403690D01*
X260582Y403440D01*
X260837Y403276D01*
X261112Y403225D01*
X310388Y403225D01*
X310685Y403285D01*
G37*
G36*
X433675Y12760D02*
X433925Y12932D01*
X434089Y13187D01*
X434140Y13462D01*
X434140Y405028D01*
X434080Y405325D01*
X433908Y405575D01*
X433653Y405739D01*
X433354Y405790D01*
X433059Y405720D01*
X432839Y405567D01*
X431918Y404646D01*
X429782Y403761D01*
X427469Y403761D01*
X425332Y404646D01*
X423696Y406282D01*
X422811Y408419D01*
X422811Y410732D01*
X423696Y412868D01*
X425354Y414526D01*
X425521Y414779D01*
X425577Y415065D01*
X425577Y470281D01*
X425517Y470578D01*
X425345Y470828D01*
X425090Y470992D01*
X424815Y471043D01*
X313944Y471043D01*
X313647Y470983D01*
X313397Y470811D01*
X313233Y470556D01*
X313182Y470281D01*
X313182Y403266D01*
X313129Y402780D01*
X313030Y402461D01*
X312874Y402155D01*
X312670Y401880D01*
X312421Y401643D01*
X312137Y401452D01*
X311824Y401311D01*
X311492Y401225D01*
X311118Y401193D01*
X260391Y401193D01*
X259905Y401246D01*
X259586Y401345D01*
X259280Y401501D01*
X259005Y401705D01*
X258768Y401954D01*
X258577Y402238D01*
X258436Y402551D01*
X258350Y402883D01*
X258318Y403257D01*
X258318Y470281D01*
X258258Y470578D01*
X258086Y470828D01*
X257831Y470992D01*
X257556Y471043D01*
X10922Y471043D01*
X10625Y470983D01*
X10375Y470811D01*
X10211Y470556D01*
X10160Y470281D01*
X10160Y13462D01*
X10220Y13165D01*
X10392Y12915D01*
X10647Y12751D01*
X10922Y12700D01*
X433378Y12700D01*
X433675Y12760D01*
G37*
%LPC*%
G36*
X331613Y356788D02*
X329476Y357673D01*
X327924Y359225D01*
X327671Y359392D01*
X327373Y359448D01*
X327094Y359390D01*
X324838Y358455D01*
X322525Y358455D01*
X320388Y359340D01*
X318752Y360976D01*
X317867Y363113D01*
X317867Y365426D01*
X318752Y367563D01*
X320388Y369198D01*
X322525Y370083D01*
X324869Y370083D01*
X325166Y370144D01*
X325408Y370306D01*
X327425Y372324D01*
X332772Y372324D01*
X333070Y372384D01*
X333311Y372547D01*
X352727Y391963D01*
X352895Y392215D01*
X352950Y392501D01*
X352950Y394846D01*
X353835Y396983D01*
X355471Y398618D01*
X357608Y399503D01*
X359921Y399503D01*
X362058Y398618D01*
X363693Y396983D01*
X364134Y395919D01*
X364303Y395667D01*
X364557Y395502D01*
X364856Y395449D01*
X365152Y395516D01*
X365377Y395671D01*
X366357Y396652D01*
X366522Y396899D01*
X366557Y396983D01*
X368192Y398618D01*
X370329Y399503D01*
X372642Y399503D01*
X374779Y398618D01*
X376415Y396983D01*
X376486Y396810D01*
X376656Y396559D01*
X376910Y396393D01*
X377208Y396340D01*
X377504Y396408D01*
X377750Y396585D01*
X377907Y396844D01*
X377952Y397102D01*
X377952Y400882D01*
X377892Y401179D01*
X377729Y401421D01*
X376071Y403079D01*
X375186Y405216D01*
X375186Y407529D01*
X376071Y409665D01*
X377707Y411301D01*
X379844Y412186D01*
X382157Y412186D01*
X384293Y411301D01*
X385929Y409665D01*
X386814Y407529D01*
X386814Y405216D01*
X385929Y403079D01*
X384271Y401421D01*
X384104Y401168D01*
X384048Y400882D01*
X384048Y395278D01*
X384108Y394981D01*
X384271Y394739D01*
X391033Y387978D01*
X391033Y381001D01*
X391093Y380704D01*
X391256Y380462D01*
X392914Y378804D01*
X393799Y376668D01*
X393799Y374355D01*
X392914Y372218D01*
X391278Y370582D01*
X389141Y369697D01*
X386828Y369697D01*
X384692Y370582D01*
X383056Y372218D01*
X382171Y374355D01*
X382171Y376668D01*
X383056Y378804D01*
X384714Y380462D01*
X384881Y380715D01*
X384937Y381001D01*
X384937Y385137D01*
X384877Y385434D01*
X384714Y385676D01*
X378269Y392120D01*
X378016Y392288D01*
X377718Y392343D01*
X377422Y392278D01*
X377175Y392103D01*
X377026Y391873D01*
X376415Y390396D01*
X374779Y388760D01*
X372642Y387875D01*
X370329Y387875D01*
X368192Y388760D01*
X368178Y388774D01*
X367926Y388942D01*
X367627Y388998D01*
X367331Y388933D01*
X367101Y388774D01*
X341449Y363122D01*
X339345Y363122D01*
X339048Y363062D01*
X338798Y362891D01*
X338634Y362635D01*
X338583Y362360D01*
X338583Y361446D01*
X337698Y359309D01*
X336062Y357673D01*
X333926Y356788D01*
X331613Y356788D01*
G37*
G36*
X32626Y366268D02*
X28378Y368027D01*
X25127Y371278D01*
X23368Y375526D01*
X23368Y380124D01*
X25127Y384372D01*
X28378Y387623D01*
X32626Y389382D01*
X37224Y389382D01*
X41472Y387623D01*
X44723Y384372D01*
X46482Y380124D01*
X46482Y375526D01*
X44723Y371278D01*
X41472Y368027D01*
X37224Y366268D01*
X32626Y366268D01*
G37*
G36*
X315048Y309806D02*
X312911Y310692D01*
X311276Y312327D01*
X310391Y314464D01*
X310391Y316808D01*
X310330Y317105D01*
X310167Y317347D01*
X308029Y319486D01*
X307776Y319653D01*
X307478Y319709D01*
X307182Y319644D01*
X306934Y319468D01*
X306775Y319210D01*
X306728Y318947D01*
X306728Y317055D01*
X305843Y314918D01*
X304207Y313282D01*
X302070Y312397D01*
X299757Y312397D01*
X297621Y313282D01*
X295985Y314918D01*
X295100Y317055D01*
X295100Y319399D01*
X295040Y319696D01*
X294877Y319938D01*
X289329Y325485D01*
X289076Y325653D01*
X288778Y325708D01*
X288482Y325643D01*
X288235Y325468D01*
X288075Y325210D01*
X288028Y324946D01*
X288028Y322721D01*
X287143Y320585D01*
X285508Y318949D01*
X283371Y318064D01*
X281058Y318064D01*
X278921Y318949D01*
X277286Y320585D01*
X277241Y320692D01*
X277072Y320944D01*
X276817Y321109D01*
X276537Y321163D01*
X178667Y321163D01*
X177596Y322233D01*
X177344Y322400D01*
X177058Y322456D01*
X174713Y322456D01*
X172576Y323341D01*
X170941Y324976D01*
X170056Y327113D01*
X170056Y329426D01*
X170941Y331563D01*
X172576Y333199D01*
X174713Y334084D01*
X177026Y334084D01*
X179163Y333199D01*
X180799Y331563D01*
X181684Y329426D01*
X181684Y328021D01*
X181744Y327723D01*
X181916Y327473D01*
X182171Y327310D01*
X182446Y327259D01*
X200818Y327259D01*
X201116Y327319D01*
X201366Y327490D01*
X201529Y327746D01*
X201580Y328045D01*
X201510Y328340D01*
X201357Y328559D01*
X195077Y334840D01*
X194824Y335007D01*
X194538Y335063D01*
X192194Y335063D01*
X190057Y335948D01*
X188421Y337584D01*
X187536Y339721D01*
X187536Y342034D01*
X188421Y344170D01*
X190057Y345806D01*
X192194Y346691D01*
X194507Y346691D01*
X196643Y345806D01*
X198279Y344170D01*
X199164Y342034D01*
X199164Y339689D01*
X199224Y339392D01*
X199387Y339150D01*
X205620Y332917D01*
X205873Y332750D01*
X206159Y332694D01*
X210675Y332694D01*
X210973Y332755D01*
X211223Y332926D01*
X211386Y333182D01*
X211437Y333480D01*
X211367Y333776D01*
X211188Y334020D01*
X210967Y334160D01*
X209432Y334796D01*
X207796Y336432D01*
X206911Y338569D01*
X206911Y340882D01*
X207796Y343018D01*
X209432Y344654D01*
X211569Y345539D01*
X213882Y345539D01*
X216018Y344654D01*
X217654Y343018D01*
X218539Y340882D01*
X218539Y339257D01*
X218599Y338960D01*
X218771Y338710D01*
X219026Y338546D01*
X219301Y338495D01*
X239555Y338495D01*
X239852Y338555D01*
X240102Y338727D01*
X240266Y338982D01*
X240316Y339281D01*
X240247Y339576D01*
X240094Y339796D01*
X236386Y343503D01*
X236134Y343671D01*
X235848Y343726D01*
X233503Y343726D01*
X231366Y344611D01*
X229731Y346247D01*
X228846Y348384D01*
X228846Y350697D01*
X229731Y352834D01*
X231366Y354469D01*
X233503Y355354D01*
X235816Y355354D01*
X237953Y354469D01*
X239589Y352834D01*
X240474Y350697D01*
X240474Y348352D01*
X240534Y348055D01*
X240697Y347814D01*
X246236Y342274D01*
X246489Y342107D01*
X246775Y342051D01*
X300362Y342051D01*
X312125Y330288D01*
X312378Y330120D01*
X312676Y330065D01*
X312955Y330123D01*
X314976Y330959D01*
X317289Y330959D01*
X319425Y330074D01*
X321061Y328439D01*
X321946Y326302D01*
X321946Y323989D01*
X321061Y321852D01*
X320167Y320958D01*
X319999Y320705D01*
X319944Y320407D01*
X320009Y320111D01*
X320167Y319880D01*
X321134Y318914D01*
X322019Y316777D01*
X322019Y314464D01*
X321134Y312327D01*
X319498Y310692D01*
X317361Y309806D01*
X315048Y309806D01*
G37*
G36*
X32626Y277368D02*
X28378Y279127D01*
X25127Y282378D01*
X23368Y286626D01*
X23368Y291224D01*
X25127Y295472D01*
X28378Y298723D01*
X32626Y300482D01*
X37224Y300482D01*
X41472Y298723D01*
X44723Y295472D01*
X46482Y291224D01*
X46482Y286626D01*
X44723Y282378D01*
X41472Y279127D01*
X37224Y277368D01*
X32626Y277368D01*
G37*
G36*
X301358Y241836D02*
X299221Y242721D01*
X297585Y244357D01*
X296700Y246494D01*
X296700Y248807D01*
X297585Y250943D01*
X299221Y252579D01*
X301358Y253464D01*
X303671Y253464D01*
X305807Y252579D01*
X306957Y251429D01*
X307210Y251262D01*
X307496Y251206D01*
X328393Y251206D01*
X328690Y251266D01*
X328932Y251429D01*
X330082Y252579D01*
X332219Y253464D01*
X334532Y253464D01*
X336668Y252579D01*
X338304Y250943D01*
X339189Y248807D01*
X339189Y246494D01*
X338304Y244357D01*
X336668Y242721D01*
X334532Y241836D01*
X332219Y241836D01*
X330082Y242721D01*
X328932Y243871D01*
X328679Y244038D01*
X328393Y244094D01*
X307496Y244094D01*
X307199Y244034D01*
X306957Y243871D01*
X305807Y242721D01*
X303671Y241836D01*
X301358Y241836D01*
G37*
G36*
X202175Y171986D02*
X200038Y172871D01*
X198402Y174507D01*
X197517Y176644D01*
X197517Y178004D01*
X197457Y178302D01*
X197294Y178543D01*
X171361Y204476D01*
X171361Y223507D01*
X171301Y223804D01*
X171129Y224054D01*
X170891Y224211D01*
X170722Y224280D01*
X169087Y225916D01*
X168202Y228053D01*
X168202Y230366D01*
X169087Y232503D01*
X170722Y234138D01*
X172859Y235023D01*
X175172Y235023D01*
X177309Y234138D01*
X178945Y232503D01*
X179014Y232334D01*
X179184Y232083D01*
X179438Y231917D01*
X179718Y231864D01*
X218505Y231864D01*
X229461Y220908D01*
X229461Y214034D01*
X229521Y213736D01*
X229684Y213495D01*
X246642Y196537D01*
X246895Y196370D01*
X247181Y196314D01*
X248807Y196314D01*
X250943Y195429D01*
X252579Y193793D01*
X253464Y191657D01*
X253464Y189344D01*
X252579Y187207D01*
X250943Y185571D01*
X248807Y184686D01*
X246494Y184686D01*
X244357Y185571D01*
X242721Y187207D01*
X241836Y189344D01*
X241836Y190969D01*
X241776Y191267D01*
X241613Y191508D01*
X222349Y210772D01*
X222349Y217647D01*
X222289Y217944D01*
X222126Y218185D01*
X215783Y224529D01*
X215530Y224696D01*
X215244Y224752D01*
X179235Y224752D01*
X178938Y224692D01*
X178688Y224520D01*
X178524Y224265D01*
X178473Y223990D01*
X178473Y207737D01*
X178533Y207440D01*
X178696Y207199D01*
X202058Y183837D01*
X202310Y183670D01*
X202596Y183614D01*
X204488Y183614D01*
X206624Y182729D01*
X208260Y181093D01*
X209145Y178957D01*
X209145Y176644D01*
X208260Y174507D01*
X206624Y172871D01*
X204488Y171986D01*
X202175Y171986D01*
G37*
G36*
X32626Y188468D02*
X28378Y190227D01*
X25127Y193478D01*
X23368Y197726D01*
X23368Y202324D01*
X25127Y206572D01*
X28378Y209823D01*
X32626Y211582D01*
X37224Y211582D01*
X41472Y209823D01*
X44723Y206572D01*
X46482Y202324D01*
X46482Y197726D01*
X44723Y193478D01*
X41472Y190227D01*
X37224Y188468D01*
X32626Y188468D01*
G37*
G36*
X313223Y137007D02*
X311086Y137892D01*
X309450Y139528D01*
X308565Y141664D01*
X308565Y143977D01*
X309450Y146114D01*
X311108Y147772D01*
X311275Y148025D01*
X311331Y148311D01*
X311331Y168589D01*
X311271Y168887D01*
X311099Y169137D01*
X310861Y169293D01*
X309889Y169696D01*
X308253Y171332D01*
X307368Y173469D01*
X307368Y175782D01*
X308253Y177918D01*
X309889Y179554D01*
X312026Y180439D01*
X314339Y180439D01*
X316475Y179554D01*
X318111Y177918D01*
X318996Y175782D01*
X318996Y173469D01*
X318111Y171332D01*
X317650Y170871D01*
X317483Y170618D01*
X317427Y170332D01*
X317427Y148311D01*
X317487Y148014D01*
X317650Y147772D01*
X319308Y146114D01*
X320193Y143977D01*
X320193Y141664D01*
X319308Y139528D01*
X317673Y137892D01*
X315536Y137007D01*
X313223Y137007D01*
G37*
G36*
X270687Y146586D02*
X268550Y147471D01*
X266914Y149107D01*
X266029Y151244D01*
X266029Y153557D01*
X266914Y155693D01*
X267544Y156324D01*
X267712Y156577D01*
X267768Y156875D01*
X267702Y157171D01*
X267544Y157401D01*
X266314Y158632D01*
X265429Y160769D01*
X265429Y163082D01*
X266314Y165218D01*
X267950Y166854D01*
X270087Y167739D01*
X272400Y167739D01*
X274536Y166854D01*
X276194Y165196D01*
X276447Y165029D01*
X276733Y164973D01*
X286489Y164973D01*
X286786Y165033D01*
X287036Y165205D01*
X287134Y165353D01*
X288807Y167026D01*
X290944Y167911D01*
X293257Y167911D01*
X295393Y167026D01*
X297029Y165391D01*
X297914Y163254D01*
X297914Y160941D01*
X297029Y158804D01*
X296067Y157842D01*
X295899Y157589D01*
X295843Y157291D01*
X295909Y156994D01*
X296067Y156764D01*
X296528Y156303D01*
X297413Y154166D01*
X297413Y151853D01*
X296528Y149716D01*
X294892Y148080D01*
X292756Y147195D01*
X290443Y147195D01*
X288306Y148080D01*
X287257Y149129D01*
X287004Y149296D01*
X286718Y149352D01*
X277333Y149352D01*
X277036Y149292D01*
X276794Y149129D01*
X275136Y147471D01*
X273000Y146586D01*
X270687Y146586D01*
G37*
G36*
X153304Y114836D02*
X151167Y115721D01*
X149531Y117357D01*
X148646Y119494D01*
X148646Y121807D01*
X149419Y123672D01*
X149477Y123970D01*
X149414Y124267D01*
X149241Y124515D01*
X149006Y124668D01*
X147611Y125246D01*
X145975Y126882D01*
X145090Y129019D01*
X145090Y131331D01*
X145708Y132824D01*
X145766Y133122D01*
X145704Y133419D01*
X145530Y133667D01*
X145296Y133820D01*
X144055Y134334D01*
X142419Y135970D01*
X141534Y138107D01*
X141534Y140420D01*
X142337Y142357D01*
X142395Y142655D01*
X142332Y142952D01*
X142159Y143201D01*
X141902Y143362D01*
X141633Y143411D01*
X141059Y143411D01*
X138923Y144296D01*
X137287Y145932D01*
X136402Y148069D01*
X136402Y150382D01*
X137287Y152518D01*
X138923Y154154D01*
X141059Y155039D01*
X143372Y155039D01*
X145509Y154154D01*
X147145Y152518D01*
X147157Y152489D01*
X147326Y152238D01*
X147580Y152072D01*
X147861Y152019D01*
X173242Y152019D01*
X173539Y152079D01*
X173789Y152251D01*
X173946Y152489D01*
X173958Y152518D01*
X175594Y154154D01*
X177731Y155039D01*
X180044Y155039D01*
X182180Y154154D01*
X183816Y152518D01*
X184701Y150382D01*
X184701Y148069D01*
X183816Y145932D01*
X183008Y145124D01*
X182841Y144871D01*
X182785Y144573D01*
X182850Y144277D01*
X183008Y144046D01*
X183816Y143238D01*
X184701Y141101D01*
X184701Y138788D01*
X183816Y136652D01*
X183104Y135940D01*
X182937Y135687D01*
X182881Y135389D01*
X182946Y135093D01*
X183104Y134862D01*
X183816Y134150D01*
X184701Y132013D01*
X184701Y129700D01*
X183816Y127564D01*
X183104Y126852D01*
X182937Y126599D01*
X182881Y126301D01*
X182946Y126005D01*
X183104Y125774D01*
X183816Y125062D01*
X184701Y122925D01*
X184701Y120612D01*
X183816Y118476D01*
X182180Y116840D01*
X180044Y115955D01*
X177731Y115955D01*
X175594Y116840D01*
X175055Y117379D01*
X174802Y117546D01*
X174516Y117602D01*
X159950Y117602D01*
X159653Y117542D01*
X159411Y117379D01*
X157753Y115721D01*
X155617Y114836D01*
X153304Y114836D01*
G37*
G36*
X32626Y99568D02*
X28378Y101327D01*
X25127Y104578D01*
X23368Y108826D01*
X23368Y113424D01*
X25127Y117672D01*
X28378Y120923D01*
X32626Y122682D01*
X37224Y122682D01*
X41472Y120923D01*
X44723Y117672D01*
X46482Y113424D01*
X46482Y108826D01*
X44723Y104578D01*
X41472Y101327D01*
X37224Y99568D01*
X32626Y99568D01*
G37*
G36*
X197519Y73561D02*
X195382Y74446D01*
X193746Y76082D01*
X192861Y78219D01*
X192861Y78232D01*
X192801Y78529D01*
X192629Y78779D01*
X192374Y78943D01*
X192099Y78994D01*
X128807Y78994D01*
X128510Y78934D01*
X128268Y78771D01*
X127118Y77621D01*
X124982Y76736D01*
X122669Y76736D01*
X120532Y77621D01*
X118896Y79257D01*
X118011Y81394D01*
X118011Y83707D01*
X118896Y85843D01*
X120532Y87479D01*
X122669Y88364D01*
X124982Y88364D01*
X127118Y87479D01*
X128268Y86329D01*
X128521Y86162D01*
X128807Y86106D01*
X196973Y86106D01*
X197667Y85412D01*
X197920Y85245D01*
X198206Y85189D01*
X199832Y85189D01*
X201968Y84304D01*
X203604Y82668D01*
X204489Y80532D01*
X204489Y78219D01*
X203604Y76082D01*
X201968Y74446D01*
X199832Y73561D01*
X197519Y73561D01*
G37*
G36*
X190636Y51095D02*
X188499Y51980D01*
X186863Y53616D01*
X186857Y53632D01*
X186687Y53883D01*
X186433Y54049D01*
X186153Y54102D01*
X161065Y54102D01*
X160768Y54042D01*
X160526Y53879D01*
X158868Y52221D01*
X156732Y51336D01*
X154419Y51336D01*
X152282Y52221D01*
X150646Y53857D01*
X149761Y55994D01*
X149761Y58307D01*
X150646Y60443D01*
X151576Y61374D01*
X151744Y61627D01*
X151800Y61925D01*
X151734Y62221D01*
X151576Y62451D01*
X150646Y63382D01*
X149761Y65519D01*
X149761Y67832D01*
X150646Y69968D01*
X152282Y71604D01*
X154419Y72489D01*
X156732Y72489D01*
X158868Y71604D01*
X160526Y69946D01*
X160779Y69779D01*
X161065Y69723D01*
X186168Y69723D01*
X186465Y69783D01*
X186707Y69946D01*
X187687Y70926D01*
X189824Y71811D01*
X192137Y71811D01*
X194273Y70926D01*
X195909Y69290D01*
X196794Y67154D01*
X196794Y64841D01*
X195909Y62704D01*
X195603Y62398D01*
X195436Y62145D01*
X195380Y61847D01*
X195445Y61551D01*
X195603Y61320D01*
X196721Y60202D01*
X197606Y58066D01*
X197606Y55753D01*
X196721Y53616D01*
X195086Y51980D01*
X192949Y51095D01*
X190636Y51095D01*
G37*
G36*
X243126Y14478D02*
X236728Y20876D01*
X236728Y29924D01*
X243126Y36322D01*
X250190Y36322D01*
X250487Y36382D01*
X250737Y36554D01*
X250901Y36809D01*
X250952Y37084D01*
X250952Y45635D01*
X250892Y45932D01*
X250729Y46174D01*
X249071Y47832D01*
X248186Y49969D01*
X248186Y52282D01*
X249071Y54418D01*
X250707Y56054D01*
X252844Y56939D01*
X255157Y56939D01*
X257293Y56054D01*
X258929Y54418D01*
X259814Y52282D01*
X259814Y49969D01*
X258929Y47832D01*
X257271Y46174D01*
X257104Y45921D01*
X257048Y45635D01*
X257048Y31764D01*
X257108Y31466D01*
X257271Y31225D01*
X258572Y29924D01*
X258572Y20876D01*
X252174Y14478D01*
X243126Y14478D01*
G37*
G36*
X293926Y14478D02*
X287528Y20876D01*
X287528Y29924D01*
X293926Y36322D01*
X302974Y36322D01*
X309372Y29924D01*
X309372Y20876D01*
X302974Y14478D01*
X293926Y14478D01*
G37*
G36*
X268526Y14478D02*
X262128Y20876D01*
X262128Y29924D01*
X268526Y36322D01*
X277574Y36322D01*
X283972Y29924D01*
X283972Y20876D01*
X277574Y14478D01*
X268526Y14478D01*
G37*
G36*
X217726Y14478D02*
X211328Y20876D01*
X211328Y29924D01*
X217726Y36322D01*
X226774Y36322D01*
X233172Y29924D01*
X233172Y20876D01*
X226774Y14478D01*
X217726Y14478D01*
G37*
G36*
X166926Y14478D02*
X160528Y20876D01*
X160528Y29924D01*
X166926Y36322D01*
X175974Y36322D01*
X182372Y29924D01*
X182372Y20876D01*
X175974Y14478D01*
X166926Y14478D01*
G37*
G36*
X141526Y14478D02*
X135128Y20876D01*
X135128Y29924D01*
X141526Y36322D01*
X150574Y36322D01*
X156972Y29924D01*
X156972Y20876D01*
X150574Y14478D01*
X141526Y14478D01*
G37*
G36*
X116126Y14478D02*
X109728Y20876D01*
X109728Y29924D01*
X116126Y36322D01*
X125174Y36322D01*
X131572Y29924D01*
X131572Y20876D01*
X125174Y14478D01*
X116126Y14478D01*
G37*
%LPD*%
D10*
X95250Y25400D03*
X120650Y25400D03*
X146050Y25400D03*
X171450Y25400D03*
X196850Y25400D03*
X222250Y25400D03*
X247650Y25400D03*
X273050Y25400D03*
X298450Y25400D03*
X323850Y25400D03*
D11*
X34925Y111125D03*
D12*
X85725Y111125D03*
D11*
X34925Y200025D03*
D12*
X85725Y200025D03*
D11*
X34925Y288925D03*
D12*
X85725Y288925D03*
D11*
X34925Y377825D03*
D12*
X85725Y377825D03*
D11*
X285750Y415925D03*
D13*
X285750Y365125D03*
D14*
X409575Y355600D03*
X409575Y342900D03*
X389919Y342900D03*
X389919Y355600D03*
X370869Y355600D03*
X370869Y342900D03*
X351819Y342900D03*
X351819Y355600D03*
X342900Y323850D03*
X311150Y276225D03*
X327025Y282575D03*
X355600Y307975D03*
X323850Y333375D03*
X390525Y396875D03*
X415925Y422275D03*
X390525Y415925D03*
X390525Y463550D03*
X317500Y419100D03*
X260350Y396875D03*
X187325Y463550D03*
X187325Y431800D03*
X200025Y463550D03*
X200025Y425450D03*
X174625Y422275D03*
X200025Y374650D03*
X158750Y415925D03*
X123825Y409575D03*
X333375Y260350D03*
X371475Y282575D03*
X292100Y257175D03*
X273050Y257175D03*
X200025Y197556D03*
X219075Y216606D03*
X155575Y177800D03*
X196850Y219075D03*
X184150Y206375D03*
X171450Y193675D03*
X161925Y244475D03*
X161925Y228600D03*
X133350Y200025D03*
X142875Y123825D03*
X146050Y73025D03*
X146050Y92075D03*
X142875Y50800D03*
X155575Y44450D03*
X180975Y38100D03*
X133350Y15875D03*
X254000Y79375D03*
X234950Y15875D03*
X260350Y15875D03*
X234950Y34925D03*
X209550Y34925D03*
X269875Y53975D03*
X273050Y41275D03*
X333375Y228600D03*
X396875Y288925D03*
X301625Y234950D03*
X292100Y174625D03*
X254000Y241300D03*
X269875Y177800D03*
X254000Y158750D03*
X254131Y180975D03*
X193806Y171450D03*
X196981Y155575D03*
X181106Y161925D03*
X139700Y257175D03*
X393700Y314456D03*
X365125Y403356D03*
X82550Y422406D03*
X155524Y336499D03*
X174625Y372054D03*
X320675Y393700D03*
X269875Y317500D03*
X174625Y247650D03*
X276225Y206375D03*
X282575Y104775D03*
X377825Y250825D03*
X365259Y257041D03*
X120650Y368300D03*
X107950Y463550D03*
D15*
X352425Y447675D03*
X352425Y460375D03*
X361950Y447675D03*
X361950Y460375D03*
X371475Y447675D03*
X371475Y434975D03*
X371475Y460375D03*
X215900Y447675D03*
X215900Y460375D03*
X225425Y460375D03*
X234950Y460375D03*
X225425Y447675D03*
X234950Y447675D03*
X215407Y435468D03*
X234457Y435468D03*
X59832Y435468D03*
X78882Y435468D03*
X78882Y448168D03*
X78882Y460868D03*
X59832Y460868D03*
X69357Y460868D03*
X69357Y448168D03*
X59832Y448168D03*
X320182Y460868D03*
X329707Y460868D03*
X329707Y432293D03*
X320182Y444993D03*
X329707Y444993D03*
X320182Y432293D03*
D14*
X346075Y393700D03*
X419100Y400050D03*
X374650Y377825D03*
X397073Y377825D03*
X168240Y339821D03*
X205260Y390525D03*
D15*
X298196Y374650D03*
D14*
X184181Y349804D03*
X209550Y60325D03*
X187325Y92075D03*
D15*
X218582Y282686D03*
X205882Y282686D03*
X205882Y295386D03*
X218582Y295386D03*
X231282Y295386D03*
X231282Y282686D03*
X231282Y269986D03*
X218582Y269986D03*
X205882Y269986D03*
X224932Y127111D03*
X212232Y127111D03*
X237632Y127111D03*
X224932Y139811D03*
X212232Y139811D03*
X237632Y139811D03*
X237632Y114411D03*
X224932Y114411D03*
X212232Y114411D03*
X82550Y123825D03*
X92075Y123825D03*
X101600Y123825D03*
X101600Y111125D03*
X101600Y98425D03*
X92075Y98425D03*
X82550Y98425D03*
X101600Y200025D03*
X101600Y288925D03*
X82550Y187325D03*
X92075Y187325D03*
X101600Y187325D03*
X101600Y212725D03*
X92075Y212725D03*
X82550Y212725D03*
X82550Y301625D03*
X92075Y301625D03*
X101600Y301625D03*
X101600Y276225D03*
X92075Y276225D03*
X82550Y276225D03*
X101600Y377825D03*
X101600Y365125D03*
X92075Y365125D03*
X82550Y365125D03*
X82550Y390525D03*
X92075Y390525D03*
X101600Y390525D03*
D14*
X126453Y422275D03*
X285749Y15995D03*
X428625Y19050D03*
X428625Y28575D03*
X419100Y19050D03*
X428625Y203200D03*
X428625Y212725D03*
X428625Y222250D03*
X241300Y365125D03*
X425450Y381000D03*
D15*
X123825Y269875D03*
D14*
X211175Y411172D03*
X231437Y422406D03*
D15*
X225425Y436207D03*
X361950Y435856D03*
X352155Y435245D03*
X69357Y435856D03*
D14*
X368300Y298450D03*
X231775Y390525D03*
X336550Y412750D03*
X142875Y403804D03*
X76200Y409706D03*
X374650Y111125D03*
D15*
X298196Y365125D03*
X298196Y355600D03*
X298196Y346075D03*
X285496Y346075D03*
X272796Y346075D03*
X272796Y374650D03*
X272796Y365125D03*
X272796Y355600D03*
D14*
X66675Y320675D03*
X203331Y177800D03*
X247650Y190500D03*
X123825Y82550D03*
X198675Y79375D03*
X333375Y247650D03*
X302514Y247650D03*
D16*
X333375Y247650D01*
X195500Y82550D02*
X123825Y82550D01*
X195500Y82550D02*
X198675Y79375D01*
X247650Y190500D02*
X225905Y212245D01*
X225905Y219435D01*
X217032Y228308D01*
X174917Y228308D01*
D14*
X174016Y229209D03*
D16*
X174917Y228308D01*
X203066Y177800D02*
X203331Y177800D01*
X203066Y177800D02*
X174917Y205949D01*
X174917Y228308D01*
D15*
X15394Y482600D03*
X28094Y482600D03*
X28094Y492125D03*
X28094Y501650D03*
X28094Y511175D03*
X15394Y511175D03*
X15394Y501650D03*
X15394Y492125D03*
X40794Y492125D03*
X40794Y501650D03*
X40794Y511175D03*
X40794Y482600D03*
X269394Y409575D03*
X278919Y409575D03*
X291619Y409575D03*
X301144Y409575D03*
X269394Y419100D03*
X269394Y428625D03*
X278919Y428625D03*
X301144Y419100D03*
X301144Y428625D03*
X291619Y428625D03*
D14*
X428625Y409575D03*
D17*
X428625Y476250D01*
D14*
X155575Y57150D03*
D17*
X191540Y57150D02*
X191781Y56909D01*
X191540Y57150D02*
X155575Y57150D01*
X191781Y56909D02*
X191792Y56909D01*
D14*
X191792Y56909D03*
X142216Y149225D03*
X178887Y149225D03*
D18*
X142216Y149225D01*
D14*
X154460Y120650D03*
D17*
X175359Y120650D02*
X176478Y121769D01*
X175359Y120650D02*
X154460Y120650D01*
D14*
X178887Y121769D03*
D17*
X176478Y121769D01*
X254000Y31750D02*
X247650Y25400D01*
D14*
X254000Y51125D03*
D17*
X254000Y31750D01*
D14*
X300914Y318211D03*
D17*
X257172Y330200D02*
X256619Y329646D01*
X257172Y330200D02*
X288925Y330200D01*
X300914Y318211D01*
D14*
X193350Y340877D03*
D17*
X204581Y329646D01*
X256619Y329646D01*
X381000Y393700D02*
X387985Y386715D01*
D14*
X381000Y406372D03*
D17*
X381000Y393700D01*
D14*
X387985Y375511D03*
D17*
X387985Y386715D01*
D14*
X332769Y362602D03*
D17*
X336337Y366170D01*
D14*
X371486Y393689D03*
D17*
X367705Y393689D01*
X340186Y366170D02*
X336337Y366170D01*
X340186Y366170D02*
X367705Y393689D01*
D14*
X212725Y339725D03*
X316205Y315620D03*
D17*
X296378Y335447D01*
X217003Y335447D01*
X212725Y339725D01*
D14*
X155575Y66675D03*
D17*
X189794Y66675D02*
X190472Y65997D01*
X189794Y66675D02*
X155575Y66675D01*
X190472Y65997D02*
X190980Y65997D01*
D14*
X190980Y65997D03*
D17*
X328687Y369276D02*
X334351Y369276D01*
X328687Y369276D02*
X323681Y364269D01*
D14*
X323681Y364269D03*
X358764Y393689D03*
D17*
X334351Y369276D01*
D14*
X282214Y323878D03*
D17*
X281882Y324211D01*
X179929Y324211D01*
D14*
X175870Y328270D03*
D17*
X179929Y324211D01*
D14*
X147348Y139263D03*
D18*
X174677Y139263D02*
X175359Y139945D01*
X174677Y139263D02*
X147348Y139263D01*
D14*
X178887Y139945D03*
D18*
X175359Y139945D01*
D14*
X150904Y130175D03*
D18*
X174677Y130175D01*
X175359Y130857D01*
D14*
X178887Y130857D03*
D18*
X175359Y130857D01*
D14*
X271243Y161925D03*
X292100Y162097D03*
D17*
X291928Y161925D02*
X271243Y161925D01*
X291928Y161925D02*
X292100Y162097D01*
D14*
X314379Y142821D03*
X313182Y174625D03*
D17*
X314379Y173428D01*
X314379Y142821D01*
D14*
X271843Y152400D03*
X291599Y153009D03*
D17*
X291491Y153009D01*
X290882Y152400D02*
X271843Y152400D01*
X290882Y152400D02*
X291491Y153009D01*
D14*
X316132Y325145D03*
D17*
X312957Y325145D01*
D14*
X234660Y349540D03*
D17*
X299099Y339003D02*
X312957Y325145D01*
X299099Y339003D02*
X245197Y339003D01*
X234660Y349540D01*
M02*
