M48
;GenerationSoftware,Autodesk,EAGLE,9.7.0*%
;CreationDate,2021-03-04T17:08:00Z*%
FMAT,2
ICI,OFF
METRIC,TZ,000.000
T4C0.350
T3C0.500
T2C0.813
T1C1.016
%
G90
M71
T1
X12065Y2540
X9525Y2540
X27305Y2540
X24765Y2540
X22225Y2540
X19685Y2540
X17145Y2540
X14605Y2540
X32385Y2540
X29845Y2540
T2
X28575Y36513
X28575Y41593
X8573Y37783
X3492Y37783
X8573Y28892
X3492Y28892
X8573Y20003
X3492Y20003
X8573Y11112
X3492Y11112
T3
X22493Y13981
X21223Y13981
X23763Y13981
X23763Y11441
X22493Y11441
X21223Y11441
X8255Y12382
X9208Y12382
X10160Y12382
X1539Y51117
X10160Y9843
X9208Y9843
X8255Y9843
X10160Y20003
X10160Y28892
X8255Y18733
X9208Y18733
X10160Y18733
X10160Y21273
X9208Y21273
X8255Y21273
X8255Y30162
X9208Y30162
X10160Y30162
X10160Y27622
X9208Y27622
X8255Y27622
X10160Y37783
X10160Y36513
X9208Y36513
X8255Y36513
X8255Y39053
X9208Y39053
X10160Y39053
X12382Y26987
X10160Y11112
X22542Y43621
X36195Y43586
X35216Y43524
X6936Y43586
X29820Y36513
X29820Y35560
X29820Y34608
X28550Y34608
X27280Y34608
X27280Y37465
X27280Y36513
X27280Y35560
X1539Y48260
X2809Y48260
X2809Y49212
X2809Y50165
X2809Y51117
X1539Y50165
X1539Y49212
X4079Y49212
X4079Y50165
X4079Y51117
X4079Y48260
X26939Y40958
X27892Y40958
X29162Y40958
X30114Y40958
X26939Y41910
X26939Y42863
X27892Y42863
X30114Y41910
X30114Y42863
X29162Y42863
X35243Y44767
X35243Y46037
X36195Y44767
X36195Y46037
X37148Y44767
X37148Y43498
X37148Y46037
X21590Y44767
X21590Y46037
X22542Y46037
X23495Y46037
X22542Y44767
X23495Y44767
X21541Y43547
X23446Y43547
X5983Y43547
X7888Y43547
X7888Y44817
X7888Y46087
X5983Y46087
X6936Y46087
X6936Y44817
X5983Y44817
X32018Y46087
X32971Y46087
X32971Y43229
X32018Y44499
X32971Y44499
X32018Y43229
X29820Y37465
X21858Y28269
X20588Y28269
X20588Y29539
X21858Y29539
X23128Y29539
X23128Y28269
X23128Y26999
X21858Y26999
X20588Y26999
X22493Y12711
X21223Y12711
X23763Y12711
T4
X40958Y35560
X40958Y34290
X38992Y34290
X38992Y35560
X37087Y35560
X37087Y34290
X35182Y34290
X35182Y35560
X34290Y32385
X31115Y27622
X32702Y28257
X35560Y30797
X32385Y33338
X39053Y39688
X41593Y42228
X39053Y41593
X39053Y46355
X31750Y41910
X26035Y39688
X18733Y46355
X18733Y43180
X20003Y46355
X20003Y42545
X17463Y42228
X20003Y37465
X15875Y41593
X12382Y40958
X33338Y26035
X37148Y28257
X29210Y25717
X27305Y25717
X20003Y19756
X21907Y21661
X15557Y17780
X19685Y21907
X17145Y19368
X16192Y24447
X16192Y22860
X13335Y20003
X14287Y12382
X14605Y7302
X14605Y9208
X14287Y5080
X15557Y4445
X18098Y3810
X13335Y1587
X25400Y7937
X23495Y1587
X26035Y1587
X23495Y3492
X20955Y3492
X26987Y5398
X27305Y4128
X33338Y22860
X39688Y28892
X30162Y23495
X29210Y17463
X25400Y24130
X26987Y17780
X25400Y15875
X25413Y18098
X19381Y17145
X19698Y15557
X18111Y16192
X13970Y25717
X39370Y31446
X36513Y40336
X8255Y42241
X12382Y8255
X19868Y7937
X33338Y24765
X30251Y24765
X17402Y22921
X28575Y1600
X42863Y1905
X42863Y2857
X41910Y1905
X36830Y29845
X18733Y9208
X23177Y39053
X33655Y41275
X14287Y40380
X7620Y40971
X37465Y11112
X42863Y20320
X42863Y21273
X42863Y22225
X24130Y36513
X42545Y38100
X12645Y42228
X21117Y41117
X23144Y42241
X6667Y32067
X20333Y17780
X24765Y19050
X42863Y40958
X15557Y5715
X19179Y5691
X14222Y14922
X17889Y14922
X15446Y12065
X17889Y12177
X25400Y5113
X30091Y31821
X19335Y34088
X38100Y40637
X38798Y37551
X33277Y36260
X37149Y39369
X21273Y33973
X31620Y31562
X15557Y6667
X19098Y6600
X18415Y20638
X35876Y39369
X28221Y32388
X17587Y32827
X14735Y13926
X17889Y13994
X15090Y13017
X17889Y13086
X27124Y16192
X29210Y16210
X31438Y14282
X31318Y17463
X27184Y15240
X29160Y15301
X31613Y32515
X23466Y34954
X20955Y6032
X18418Y34980
X20526Y39053
X16824Y33982
X39707Y37783
X37465Y37783
X41910Y40005
X34608Y39370
X10795Y46355
X12065Y36830
X36526Y25704
X37783Y25082
X28257Y10478
X27622Y20638
X17463Y24765
X26987Y31750
X32067Y39370
X17463Y37205
X15552Y33650
X32368Y36427
M30