G04 EAGLE Gerber RS-274X export*
G75*
%MOMM*%
%FSLAX34Y34*%
%LPD*%
%INSoldermask Bottom*%
%IPPOS*%
%AMOC8*
5,1,8,0,0,1.08239X$1,22.5*%
G01*
%ADD10C,0.280800*%
%ADD11R,0.280800X0.650800*%
%ADD12R,0.650800X0.280800*%
%ADD13C,0.225047*%
%ADD14R,4.550800X4.250800*%
%ADD15R,3.150800X0.750800*%
%ADD16R,0.750800X0.750800*%
%ADD17R,0.750800X0.650800*%
%ADD18R,0.650800X0.750800*%
%ADD19R,1.050800X0.550800*%
%ADD20P,1.787026X8X22.500000*%
%ADD21C,1.651000*%
%ADD22C,0.609600*%
%ADD23C,0.660400*%
%ADD24C,1.550800*%
%ADD25P,1.869504X8X22.500000*%
%ADD26P,1.869504X8X292.500000*%
%ADD27P,1.979475X8X112.500000*%
%ADD28P,1.787026X8X292.500000*%
%ADD29R,3.250800X1.850800*%
%ADD30R,2.590800X5.130800*%
%ADD31R,2.050800X2.050800*%
%ADD32C,0.504800*%
%ADD33C,0.875800*%
%ADD34C,0.654800*%


D10*
X843214Y262679D02*
X843214Y266379D01*
D11*
X838214Y264529D03*
X833214Y264529D03*
X828214Y264529D03*
X823214Y264529D03*
X818214Y264529D03*
X813214Y264529D03*
X808214Y264529D03*
D10*
X803214Y262679D02*
X803214Y266379D01*
X798064Y271529D02*
X794364Y271529D01*
D12*
X796214Y276529D03*
X796214Y281529D03*
X796214Y286529D03*
X796214Y291529D03*
X796214Y296529D03*
X796214Y301529D03*
X796214Y306529D03*
D10*
X794364Y311529D02*
X798064Y311529D01*
X803214Y316679D02*
X803214Y320379D01*
D11*
X808214Y318529D03*
X813214Y318529D03*
X818214Y318529D03*
X823214Y318529D03*
X828214Y318529D03*
X833214Y318529D03*
X838214Y318529D03*
D10*
X843214Y320379D02*
X843214Y316679D01*
X848364Y311529D02*
X852064Y311529D01*
D12*
X850214Y306529D03*
X850214Y301529D03*
X850214Y296529D03*
X850214Y291529D03*
X850214Y286529D03*
X850214Y281529D03*
X850214Y276529D03*
D10*
X852064Y271529D02*
X848364Y271529D01*
D13*
X840843Y273900D02*
X840843Y309158D01*
X840843Y273900D02*
X805585Y273900D01*
X805585Y309158D01*
X840843Y309158D01*
X840843Y276037D02*
X805585Y276037D01*
X805585Y278174D02*
X840843Y278174D01*
X840843Y280311D02*
X805585Y280311D01*
X805585Y282448D02*
X840843Y282448D01*
X840843Y284585D02*
X805585Y284585D01*
X805585Y286722D02*
X840843Y286722D01*
X840843Y288859D02*
X805585Y288859D01*
X805585Y290996D02*
X840843Y290996D01*
X840843Y293133D02*
X805585Y293133D01*
X805585Y295270D02*
X840843Y295270D01*
X840843Y297407D02*
X805585Y297407D01*
X805585Y299544D02*
X840843Y299544D01*
X840843Y301681D02*
X805585Y301681D01*
X805585Y303818D02*
X840843Y303818D01*
X840843Y305955D02*
X805585Y305955D01*
X805585Y308092D02*
X840843Y308092D01*
D14*
X757727Y135491D03*
D15*
X750727Y170991D03*
D16*
X776727Y170991D03*
D14*
X757727Y198229D03*
D15*
X750727Y233729D03*
D16*
X776727Y233729D03*
D14*
X810495Y198229D03*
D15*
X803495Y233729D03*
D16*
X829495Y233729D03*
D14*
X810495Y135491D03*
D15*
X803495Y170991D03*
D16*
X829495Y170991D03*
D14*
X863264Y135491D03*
D15*
X856264Y170991D03*
D16*
X882264Y170991D03*
D14*
X863264Y198229D03*
D15*
X856264Y233729D03*
D16*
X882264Y233729D03*
D17*
X862013Y323961D03*
X862013Y313961D03*
X872617Y305292D03*
X872617Y295292D03*
X880491Y315261D03*
X880491Y305261D03*
X880491Y296656D03*
X880491Y286656D03*
X867029Y276623D03*
X867029Y286623D03*
X869887Y323961D03*
X869887Y313961D03*
X872744Y259605D03*
X872744Y269605D03*
X787527Y320913D03*
X787527Y310913D03*
X864870Y259605D03*
X864870Y269605D03*
D18*
X753254Y307721D03*
X763254Y307721D03*
X736363Y299847D03*
X746363Y299847D03*
X763254Y299847D03*
X753254Y299847D03*
D17*
X770636Y305165D03*
X770636Y295165D03*
D18*
X753254Y323469D03*
X763254Y323469D03*
X736363Y323469D03*
X746363Y323469D03*
X763254Y291973D03*
X753254Y291973D03*
X746363Y315595D03*
X736363Y315595D03*
X746363Y307721D03*
X736363Y307721D03*
D19*
X765366Y281496D03*
X765366Y271996D03*
X765366Y262496D03*
X738366Y281496D03*
X738366Y271996D03*
X738366Y262496D03*
D18*
X746363Y291973D03*
X736363Y291973D03*
X763254Y315595D03*
X753254Y315595D03*
X780145Y320421D03*
X770145Y320421D03*
X770145Y312547D03*
X780145Y312547D03*
D20*
X849122Y620522D03*
D21*
X813562Y620522D03*
D20*
X950722Y620522D03*
D21*
X915162Y620522D03*
D22*
X810451Y255969D03*
X803466Y255969D03*
X796481Y255969D03*
X789496Y255969D03*
X782511Y255969D03*
X775526Y255969D03*
X768541Y255969D03*
X817436Y255969D03*
X824421Y255969D03*
X831406Y255969D03*
X838391Y255969D03*
X845376Y255969D03*
X852361Y255969D03*
X888175Y323279D03*
X888175Y316294D03*
X888175Y309309D03*
D23*
X888175Y302324D03*
D22*
X888175Y295339D03*
X888175Y288354D03*
X888175Y281369D03*
X888175Y274384D03*
X888175Y267399D03*
X888175Y260414D03*
X792988Y327597D03*
X786003Y327597D03*
X779018Y327597D03*
X772033Y327597D03*
X768541Y240919D03*
X775526Y240919D03*
X782511Y240919D03*
X789496Y240919D03*
X796481Y240919D03*
X803466Y240919D03*
X810451Y240919D03*
X817436Y240919D03*
X824421Y240919D03*
X831406Y240919D03*
X838391Y240919D03*
X845376Y240919D03*
X852361Y240919D03*
D17*
X778129Y276115D03*
X778129Y286115D03*
X880618Y259605D03*
X880618Y269605D03*
D22*
X915670Y753872D03*
X915670Y746887D03*
X915670Y739902D03*
X915670Y732917D03*
X915670Y725932D03*
X915670Y718947D03*
X915670Y711962D03*
X915670Y760857D03*
X915670Y767842D03*
X915670Y774827D03*
X915670Y781812D03*
X915670Y788797D03*
X915670Y795782D03*
X848360Y831596D03*
X855345Y831596D03*
X862330Y831596D03*
D23*
X869315Y831596D03*
D22*
X876300Y831596D03*
X883285Y831596D03*
X890270Y831596D03*
X897255Y831596D03*
X904240Y831596D03*
X911225Y831596D03*
D24*
X799592Y684276D03*
X831342Y684276D03*
X799592Y823468D03*
X831342Y823468D03*
D25*
X844042Y855472D03*
X844042Y880872D03*
X869442Y855472D03*
X869442Y880872D03*
X894842Y855472D03*
X894842Y880872D03*
X920242Y855472D03*
X920242Y880872D03*
D26*
X945642Y880872D03*
X971042Y880872D03*
X945642Y855472D03*
X971042Y855472D03*
X945642Y830072D03*
X971042Y830072D03*
X945642Y804672D03*
X971042Y804672D03*
X945642Y779272D03*
X971042Y779272D03*
X945642Y753872D03*
X971042Y753872D03*
X945642Y728472D03*
X971042Y728472D03*
X945642Y703072D03*
X971042Y703072D03*
D27*
X793242Y550672D03*
X818642Y550672D03*
X844042Y550672D03*
X869442Y550672D03*
X894842Y550672D03*
X920242Y550672D03*
X945642Y550672D03*
X971042Y550672D03*
D28*
X384556Y725932D03*
D21*
X384556Y761492D03*
D28*
X708406Y725932D03*
D21*
X708406Y761492D03*
D24*
X88900Y231775D03*
X63500Y231775D03*
X38100Y231775D03*
D29*
X471551Y183194D03*
X471551Y127194D03*
X594995Y182940D03*
X594995Y126940D03*
D22*
X491236Y117983D03*
X498221Y117983D03*
X505206Y117983D03*
X512191Y117983D03*
X519176Y117983D03*
X526161Y117983D03*
X533146Y117983D03*
X540131Y117983D03*
X547116Y117983D03*
X554101Y117983D03*
X561086Y117983D03*
X568071Y117983D03*
X575056Y117983D03*
X494729Y189611D03*
X501714Y189611D03*
X508699Y189611D03*
X515684Y189611D03*
D30*
X469646Y237236D03*
X533146Y237236D03*
X596646Y237236D03*
D31*
X682371Y291211D03*
X383921Y291211D03*
X383921Y180086D03*
X682371Y180086D03*
D29*
X109601Y124654D03*
X109601Y180654D03*
X233299Y124654D03*
X233299Y180654D03*
D22*
X129540Y115697D03*
X136525Y115697D03*
X143510Y115697D03*
X150495Y115697D03*
X157480Y115697D03*
X164465Y115697D03*
X171450Y115697D03*
X178435Y115697D03*
X185420Y115697D03*
X192405Y115697D03*
X199390Y115697D03*
X206375Y115697D03*
X213360Y115697D03*
X133033Y187325D03*
X140018Y187325D03*
X147003Y187325D03*
X153988Y187325D03*
D24*
X38100Y206375D03*
X63500Y206375D03*
X88900Y206375D03*
X146050Y206375D03*
X171450Y206375D03*
X196850Y206375D03*
X196850Y231775D03*
X171450Y231775D03*
X146050Y231775D03*
X304800Y231775D03*
X279400Y231775D03*
X254000Y231775D03*
X254000Y206375D03*
X279400Y206375D03*
X304800Y206375D03*
D28*
X60706Y725932D03*
D21*
X60706Y761492D03*
D27*
X108331Y521462D03*
X133731Y521462D03*
X159131Y521462D03*
X184531Y521462D03*
X209931Y521462D03*
X235331Y521462D03*
X260731Y521462D03*
X286131Y521462D03*
X311531Y521462D03*
X336931Y521462D03*
X432181Y521462D03*
X457581Y521462D03*
X482981Y521462D03*
X508381Y521462D03*
X533781Y521462D03*
X559181Y521462D03*
X584581Y521462D03*
X609981Y521462D03*
X635381Y521462D03*
X660781Y521462D03*
D22*
X144907Y682244D03*
X144907Y675259D03*
X144907Y668274D03*
X144907Y661289D03*
X144907Y654304D03*
X144907Y647319D03*
X144907Y640334D03*
X144907Y633349D03*
X144907Y626364D03*
X144907Y619379D03*
X468757Y682244D03*
X468757Y675259D03*
X468757Y668274D03*
X468757Y661289D03*
X468757Y654304D03*
X468757Y647319D03*
X468757Y640334D03*
X468757Y633349D03*
X468757Y626364D03*
X468757Y619379D03*
D32*
X762580Y271805D03*
X736266Y292069D03*
X842671Y325946D03*
X799239Y325958D03*
X867029Y286228D03*
X753889Y291973D03*
X864870Y269605D03*
X872744Y269605D03*
X862013Y313961D03*
X869887Y313961D03*
X736363Y315595D03*
X804734Y310009D03*
X841693Y290449D03*
X823214Y291529D03*
X841693Y308814D03*
X804736Y284099D03*
X751967Y258890D03*
X778447Y319215D03*
X824040Y269558D03*
X746363Y291973D03*
X738366Y271805D03*
X804668Y325958D03*
X867029Y276623D03*
X880491Y315261D03*
X872617Y305292D03*
X879285Y296846D03*
X864870Y259605D03*
X794178Y320913D03*
D33*
X745173Y236855D03*
X752094Y236855D03*
X759016Y236855D03*
X738251Y236855D03*
X745173Y229934D03*
X752094Y229934D03*
X759016Y229934D03*
X738251Y229934D03*
X769430Y161925D03*
X776351Y161925D03*
X783273Y161925D03*
X762508Y161925D03*
X790194Y161925D03*
X776605Y202121D03*
X769684Y202121D03*
X769684Y181356D03*
X776605Y188278D03*
X769684Y188278D03*
X776605Y181356D03*
X776605Y195199D03*
X763715Y198628D03*
X769684Y195199D03*
X763715Y191707D03*
D32*
X829495Y233729D03*
D33*
X799910Y188278D03*
X806831Y188278D03*
X813753Y188278D03*
X792988Y188278D03*
X799910Y181356D03*
X806831Y181356D03*
X813753Y181356D03*
X792988Y181356D03*
X820674Y181356D03*
X820674Y188278D03*
X827596Y181356D03*
X827596Y188278D03*
X844296Y202121D03*
X851218Y202121D03*
X851218Y181356D03*
X844296Y188278D03*
X851218Y188278D03*
X844296Y181356D03*
X844296Y195199D03*
X857187Y198628D03*
X851218Y195199D03*
X857187Y191707D03*
X855345Y233617D03*
X862267Y233617D03*
X869188Y233617D03*
X848424Y233617D03*
X855345Y226695D03*
X862267Y226695D03*
X869188Y226695D03*
X848424Y226695D03*
D32*
X753952Y299911D03*
D24*
X371856Y861187D03*
X371856Y848487D03*
X371856Y835787D03*
X371856Y823087D03*
X371856Y810387D03*
X371856Y797687D03*
X397256Y797687D03*
X397256Y810387D03*
X397256Y823087D03*
X397256Y835787D03*
X397256Y848487D03*
X397256Y861187D03*
X695706Y861187D03*
X695706Y848487D03*
X695706Y835787D03*
X695706Y823087D03*
X695706Y810387D03*
X695706Y797687D03*
X73406Y861187D03*
X73406Y848487D03*
X73406Y835787D03*
X73406Y823087D03*
X73406Y810387D03*
X73406Y797687D03*
D32*
X763254Y323469D03*
X763254Y307721D03*
X753254Y315595D03*
X851662Y263081D03*
X855948Y318798D03*
X837242Y325958D03*
X777295Y297477D03*
X782120Y300329D03*
X815526Y325958D03*
X810097Y325947D03*
X787549Y300237D03*
X872617Y295292D03*
X863979Y299321D03*
X858584Y297039D03*
X860489Y306024D03*
X788277Y289369D03*
X858593Y279513D03*
X785682Y284286D03*
X858584Y274084D03*
X831813Y325958D03*
X858563Y289832D03*
X865918Y306024D03*
X826384Y325958D03*
X820955Y325958D03*
X877093Y322279D03*
X738366Y262305D03*
X746363Y307721D03*
X765366Y262305D03*
X746363Y315595D03*
X851751Y322279D03*
X779336Y268177D03*
X757207Y282321D03*
X784005Y172723D03*
D33*
X750697Y132461D03*
X736854Y125540D03*
X743776Y132461D03*
X736854Y118618D03*
X736854Y132461D03*
X743776Y118618D03*
X743776Y125540D03*
X750697Y118618D03*
X750697Y125540D03*
X884111Y132461D03*
X870268Y125540D03*
X877189Y132461D03*
X870268Y118618D03*
X870268Y132461D03*
X877189Y118618D03*
X877189Y125540D03*
X884111Y118618D03*
X884111Y125540D03*
D32*
X883285Y161798D03*
D33*
X795909Y232918D03*
X802831Y232918D03*
X816674Y225997D03*
X788988Y232918D03*
X795909Y225997D03*
X802831Y225997D03*
X809752Y225997D03*
X788988Y225997D03*
D32*
X779510Y287782D03*
X777295Y303182D03*
X880618Y269605D03*
X425196Y211111D03*
D24*
X469646Y218186D03*
X456946Y218186D03*
X444246Y230886D03*
X469646Y230886D03*
X444246Y218186D03*
X456946Y230886D03*
X444246Y243586D03*
X469646Y243586D03*
X456946Y243586D03*
D32*
X467323Y139635D03*
D24*
X387096Y138811D03*
X399796Y138811D03*
X412496Y138811D03*
X425196Y138811D03*
X437896Y138811D03*
X450596Y138811D03*
X450596Y151511D03*
X437896Y151511D03*
X425196Y151511D03*
X412496Y151511D03*
X399796Y151511D03*
X387096Y151511D03*
X564896Y164338D03*
X495046Y151511D03*
X507746Y151511D03*
X520446Y151511D03*
X507746Y138811D03*
X520446Y138811D03*
X552196Y151511D03*
X552196Y138811D03*
X495046Y164211D03*
X507746Y164211D03*
X520446Y164211D03*
X552196Y164211D03*
D32*
X575146Y265111D03*
X533146Y191135D03*
D24*
X533146Y230886D03*
X533146Y218186D03*
X520446Y218186D03*
X520446Y230886D03*
X533146Y243586D03*
X520446Y243586D03*
X545846Y243586D03*
X545846Y230886D03*
X545846Y218186D03*
D32*
X683096Y265111D03*
X641096Y178435D03*
D24*
X609346Y230886D03*
X609346Y218186D03*
X596646Y230886D03*
X596646Y243586D03*
X609346Y243586D03*
X622046Y243586D03*
X622046Y230886D03*
X622046Y218186D03*
X596646Y218186D03*
D32*
X683096Y138111D03*
D24*
X602996Y138811D03*
X602996Y151511D03*
X615696Y151511D03*
X628396Y151511D03*
X641096Y151511D03*
X653796Y151511D03*
X666496Y151511D03*
X666496Y138811D03*
X653796Y138811D03*
X641096Y138811D03*
X628396Y138811D03*
X615696Y138811D03*
D32*
X533146Y335661D03*
D24*
X682371Y288036D03*
X682371Y300736D03*
X682371Y313436D03*
X682371Y326136D03*
X682371Y338836D03*
X682371Y351536D03*
X682371Y364236D03*
X383921Y364236D03*
X383921Y351536D03*
X383921Y338836D03*
X383921Y326136D03*
X383921Y313436D03*
X383921Y300736D03*
X383921Y288036D03*
X320675Y349250D03*
X320675Y361950D03*
X22225Y361950D03*
X22225Y349250D03*
X320675Y336550D03*
X320675Y323850D03*
X320675Y311150D03*
X320675Y298450D03*
X320675Y285750D03*
X22225Y336550D03*
X22225Y323850D03*
X22225Y311150D03*
X22225Y298450D03*
X22225Y285750D03*
D34*
X133350Y142875D03*
X236474Y119574D03*
D24*
X320675Y139700D03*
X320675Y127000D03*
X22225Y139700D03*
X22225Y127000D03*
X320675Y152400D03*
X320675Y165100D03*
X320675Y177800D03*
X320675Y190500D03*
X22225Y152400D03*
X22225Y165100D03*
X22225Y177800D03*
X22225Y190500D03*
X95758Y123063D03*
X108331Y123190D03*
X242697Y124841D03*
X229870Y124206D03*
X695706Y623062D03*
X695706Y635762D03*
X695706Y648462D03*
X695706Y661162D03*
X695706Y673862D03*
X695706Y686562D03*
X73406Y623062D03*
X73406Y635762D03*
X73406Y648462D03*
X73406Y661162D03*
X73406Y673862D03*
X73406Y686562D03*
X371856Y623062D03*
X371856Y635762D03*
X371856Y648462D03*
X371856Y661162D03*
X371856Y673862D03*
X371856Y686562D03*
X397256Y623062D03*
X397256Y635762D03*
X397256Y648462D03*
X397256Y661162D03*
X397256Y673862D03*
X397256Y686562D03*
M02*
