G04 EAGLE Gerber RS-274X export*
G75*
%MOMM*%
%FSLAX34Y34*%
%LPD*%
%INSolderpaste Bottom*%
%IPPOS*%
%AMOC8*
5,1,8,0,0,1.08239X$1,22.5*%
G01*
%ADD10C,0.230000*%
%ADD11R,0.230000X0.600000*%
%ADD12R,0.600000X0.230000*%
%ADD13C,0.185000*%
%ADD14R,4.500000X4.200000*%
%ADD15R,3.100000X0.700000*%
%ADD16R,0.700000X0.700000*%
%ADD17R,0.700000X0.600000*%
%ADD18R,0.600000X0.700000*%
%ADD19R,1.000000X0.500000*%
%ADD20R,3.200000X1.800000*%
%ADD21C,0.558800*%
%ADD22R,2.540000X5.080000*%


D10*
X843214Y262679D02*
X843214Y266379D01*
D11*
X838214Y264529D03*
X833214Y264529D03*
X828214Y264529D03*
X823214Y264529D03*
X818214Y264529D03*
X813214Y264529D03*
X808214Y264529D03*
D10*
X803214Y262679D02*
X803214Y266379D01*
X798064Y271529D02*
X794364Y271529D01*
D12*
X796214Y276529D03*
X796214Y281529D03*
X796214Y286529D03*
X796214Y291529D03*
X796214Y296529D03*
X796214Y301529D03*
X796214Y306529D03*
D10*
X794364Y311529D02*
X798064Y311529D01*
X803214Y316679D02*
X803214Y320379D01*
D11*
X808214Y318529D03*
X813214Y318529D03*
X818214Y318529D03*
X823214Y318529D03*
X828214Y318529D03*
X833214Y318529D03*
X838214Y318529D03*
D10*
X843214Y320379D02*
X843214Y316679D01*
X848364Y311529D02*
X852064Y311529D01*
D12*
X850214Y306529D03*
X850214Y301529D03*
X850214Y296529D03*
X850214Y291529D03*
X850214Y286529D03*
X850214Y281529D03*
X850214Y276529D03*
D10*
X852064Y271529D02*
X848364Y271529D01*
D13*
X840789Y273954D02*
X840789Y309104D01*
X840789Y273954D02*
X805639Y273954D01*
X805639Y309104D01*
X840789Y309104D01*
X840789Y275711D02*
X805639Y275711D01*
X805639Y277468D02*
X840789Y277468D01*
X840789Y279225D02*
X805639Y279225D01*
X805639Y280982D02*
X840789Y280982D01*
X840789Y282739D02*
X805639Y282739D01*
X805639Y284496D02*
X840789Y284496D01*
X840789Y286253D02*
X805639Y286253D01*
X805639Y288010D02*
X840789Y288010D01*
X840789Y289767D02*
X805639Y289767D01*
X805639Y291524D02*
X840789Y291524D01*
X840789Y293281D02*
X805639Y293281D01*
X805639Y295038D02*
X840789Y295038D01*
X840789Y296795D02*
X805639Y296795D01*
X805639Y298552D02*
X840789Y298552D01*
X840789Y300309D02*
X805639Y300309D01*
X805639Y302066D02*
X840789Y302066D01*
X840789Y303823D02*
X805639Y303823D01*
X805639Y305580D02*
X840789Y305580D01*
X840789Y307337D02*
X805639Y307337D01*
X805639Y309094D02*
X840789Y309094D01*
D14*
X757727Y135491D03*
D15*
X750727Y170991D03*
D16*
X776727Y170991D03*
D14*
X757727Y198229D03*
D15*
X750727Y233729D03*
D16*
X776727Y233729D03*
D14*
X810495Y198229D03*
D15*
X803495Y233729D03*
D16*
X829495Y233729D03*
D14*
X810495Y135491D03*
D15*
X803495Y170991D03*
D16*
X829495Y170991D03*
D14*
X863264Y135491D03*
D15*
X856264Y170991D03*
D16*
X882264Y170991D03*
D14*
X863264Y198229D03*
D15*
X856264Y233729D03*
D16*
X882264Y233729D03*
D17*
X862013Y323961D03*
X862013Y313961D03*
X872617Y305292D03*
X872617Y295292D03*
X880491Y315261D03*
X880491Y305261D03*
X880491Y296656D03*
X880491Y286656D03*
X867029Y276623D03*
X867029Y286623D03*
X869887Y323961D03*
X869887Y313961D03*
X872744Y259605D03*
X872744Y269605D03*
X787527Y320913D03*
X787527Y310913D03*
X864870Y259605D03*
X864870Y269605D03*
D18*
X753254Y307721D03*
X763254Y307721D03*
X736363Y299847D03*
X746363Y299847D03*
X763254Y299847D03*
X753254Y299847D03*
D17*
X770636Y305165D03*
X770636Y295165D03*
D18*
X753254Y323469D03*
X763254Y323469D03*
X736363Y323469D03*
X746363Y323469D03*
X763254Y291973D03*
X753254Y291973D03*
X746363Y315595D03*
X736363Y315595D03*
X746363Y307721D03*
X736363Y307721D03*
D19*
X765366Y281496D03*
X765366Y271996D03*
X765366Y262496D03*
X738366Y281496D03*
X738366Y271996D03*
X738366Y262496D03*
D18*
X746363Y291973D03*
X736363Y291973D03*
X763254Y315595D03*
X753254Y315595D03*
X780145Y320421D03*
X770145Y320421D03*
X770145Y312547D03*
X780145Y312547D03*
D17*
X778129Y276115D03*
X778129Y286115D03*
X880618Y259605D03*
X880618Y269605D03*
D20*
X471551Y183194D03*
X471551Y127194D03*
X594995Y182940D03*
X594995Y126940D03*
D21*
X494729Y189611D03*
X501714Y189611D03*
X508699Y189611D03*
X515684Y189611D03*
D22*
X469646Y237236D03*
X533146Y237236D03*
X596646Y237236D03*
D20*
X109601Y124654D03*
X109601Y180654D03*
X233299Y124654D03*
X233299Y180654D03*
D21*
X133033Y187325D03*
X140018Y187325D03*
X147003Y187325D03*
X153988Y187325D03*
M02*
