G04 EAGLE Gerber X2 export*
%TF.Part,Single*%
%TF.FileFunction,Other,Solder stop mask SOL*%
%TF.FilePolarity,Positive*%
%TF.GenerationSoftware,Autodesk,EAGLE,8.6.0*%
%TF.CreationDate,2019-03-18T10:45:52Z*%
G75*
%MOMM*%
%FSLAX34Y34*%
%LPD*%
%AMOC8*
5,1,8,0,0,1.08239X$1,22.5*%
G01*
%ADD10R,0.503200X1.703200*%
%ADD11R,1.703200X0.503200*%
%ADD12R,5.373200X5.373200*%
%ADD13R,3.403200X2.003200*%
%ADD14R,1.203200X1.303200*%
%ADD15R,1.303200X1.203200*%
%ADD16R,1.003200X1.003200*%
%ADD17R,5.283200X2.743200*%
%ADD18R,1.103000X1.103000*%
%ADD19R,0.803200X1.503200*%
%ADD20C,1.727200*%
%ADD21R,0.753200X0.773200*%
%ADD22R,3.703200X2.703200*%
%ADD23R,0.903200X0.903200*%
%ADD24C,1.422400*%
%ADD25R,1.503200X1.703200*%
%ADD26R,1.703200X1.503200*%
%ADD27C,1.727200*%
%ADD28C,3.203200*%
%ADD29C,0.858000*%
%ADD30R,1.108000X1.108000*%
%ADD31C,0.808000*%


D10*
X73025Y747713D03*
X78025Y747713D03*
X83025Y747713D03*
X88025Y747713D03*
X93025Y747713D03*
X98025Y747713D03*
X103025Y747713D03*
X108025Y747713D03*
X113025Y747713D03*
X118025Y747713D03*
X123025Y747713D03*
X128025Y747713D03*
X73025Y662713D03*
X78025Y662713D03*
X83025Y662713D03*
X88025Y662713D03*
X93025Y662713D03*
X98025Y662713D03*
X103025Y662713D03*
X108025Y662713D03*
X113025Y662713D03*
X118025Y662713D03*
X123025Y662713D03*
X128025Y662713D03*
D11*
X143025Y677713D03*
X143025Y682713D03*
X143025Y687713D03*
X143025Y692713D03*
X143025Y697713D03*
X143025Y702713D03*
X143025Y707713D03*
X143025Y712713D03*
X143025Y717713D03*
X143025Y722713D03*
X143025Y727713D03*
X143025Y732713D03*
X58025Y677713D03*
X58025Y682713D03*
X58025Y687713D03*
X58025Y692713D03*
X58025Y697713D03*
X58025Y702713D03*
X58025Y707713D03*
X58025Y712713D03*
X58025Y717713D03*
X58025Y722713D03*
X58025Y727713D03*
X58025Y732713D03*
D12*
X100525Y705213D03*
D13*
X101600Y829250D03*
X101600Y885250D03*
X44450Y829250D03*
X44450Y885250D03*
X158750Y829250D03*
X158750Y885250D03*
D14*
X28575Y740338D03*
X28575Y723338D03*
X31750Y685238D03*
X31750Y702238D03*
X160338Y736038D03*
X160338Y753038D03*
X44450Y742388D03*
X44450Y759388D03*
D15*
X32775Y652463D03*
X49775Y652463D03*
D14*
X28575Y756675D03*
X28575Y773675D03*
X134375Y779463D03*
X151375Y779463D03*
X106925Y779463D03*
X89925Y779463D03*
D15*
X11113Y775263D03*
X11113Y758263D03*
D16*
X161925Y765613D03*
X161925Y780613D03*
X79375Y768788D03*
X79375Y783788D03*
D14*
X180975Y678425D03*
X180975Y661425D03*
X168275Y697475D03*
X168275Y680475D03*
D17*
X50800Y909638D03*
X50800Y946150D03*
X50800Y984250D03*
D18*
X41275Y622300D03*
X52388Y622300D03*
X107950Y622300D03*
X74613Y622300D03*
X85725Y622300D03*
X130175Y622300D03*
X141288Y622300D03*
X163513Y622300D03*
X19050Y622300D03*
D14*
X180975Y718113D03*
X180975Y701113D03*
D10*
X244475Y747713D03*
X249475Y747713D03*
X254475Y747713D03*
X259475Y747713D03*
X264475Y747713D03*
X269475Y747713D03*
X274475Y747713D03*
X279475Y747713D03*
X284475Y747713D03*
X289475Y747713D03*
X294475Y747713D03*
X299475Y747713D03*
X244475Y662713D03*
X249475Y662713D03*
X254475Y662713D03*
X259475Y662713D03*
X264475Y662713D03*
X269475Y662713D03*
X274475Y662713D03*
X279475Y662713D03*
X284475Y662713D03*
X289475Y662713D03*
X294475Y662713D03*
X299475Y662713D03*
D11*
X314475Y677713D03*
X314475Y682713D03*
X314475Y687713D03*
X314475Y692713D03*
X314475Y697713D03*
X314475Y702713D03*
X314475Y707713D03*
X314475Y712713D03*
X314475Y717713D03*
X314475Y722713D03*
X314475Y727713D03*
X314475Y732713D03*
X229475Y677713D03*
X229475Y682713D03*
X229475Y687713D03*
X229475Y692713D03*
X229475Y697713D03*
X229475Y702713D03*
X229475Y707713D03*
X229475Y712713D03*
X229475Y717713D03*
X229475Y722713D03*
X229475Y727713D03*
X229475Y732713D03*
D12*
X271975Y705213D03*
D13*
X273050Y829250D03*
X273050Y885250D03*
X215900Y830838D03*
X215900Y886838D03*
X330200Y829250D03*
X330200Y885250D03*
D14*
X182563Y748275D03*
X182563Y731275D03*
D15*
X211700Y681038D03*
X194700Y681038D03*
D14*
X333375Y732863D03*
X333375Y749863D03*
X212725Y729688D03*
X212725Y746688D03*
D15*
X194700Y649288D03*
X211700Y649288D03*
D14*
X200025Y732863D03*
X200025Y749863D03*
X341875Y779463D03*
X324875Y779463D03*
X277250Y779463D03*
X294250Y779463D03*
X213288Y715963D03*
X196288Y715963D03*
D16*
X314325Y768788D03*
X314325Y783788D03*
X304800Y768788D03*
X304800Y783788D03*
D14*
X352425Y678425D03*
X352425Y661425D03*
X339725Y695888D03*
X339725Y678888D03*
D17*
X222250Y911225D03*
X222250Y946150D03*
X222250Y984250D03*
D14*
X352425Y713350D03*
X352425Y696350D03*
D19*
X139700Y904875D03*
X120700Y904875D03*
X130200Y883975D03*
X307975Y903288D03*
X288975Y903288D03*
X298475Y882388D03*
D14*
X341875Y766763D03*
X324875Y766763D03*
X277250Y766763D03*
X294250Y766763D03*
X134375Y766763D03*
X151375Y766763D03*
X106925Y766763D03*
X89925Y766763D03*
D18*
X363538Y622300D03*
D10*
X415925Y747713D03*
X420925Y747713D03*
X425925Y747713D03*
X430925Y747713D03*
X435925Y747713D03*
X440925Y747713D03*
X445925Y747713D03*
X450925Y747713D03*
X455925Y747713D03*
X460925Y747713D03*
X465925Y747713D03*
X470925Y747713D03*
X415925Y662713D03*
X420925Y662713D03*
X425925Y662713D03*
X430925Y662713D03*
X435925Y662713D03*
X440925Y662713D03*
X445925Y662713D03*
X450925Y662713D03*
X455925Y662713D03*
X460925Y662713D03*
X465925Y662713D03*
X470925Y662713D03*
D11*
X485925Y677713D03*
X485925Y682713D03*
X485925Y687713D03*
X485925Y692713D03*
X485925Y697713D03*
X485925Y702713D03*
X485925Y707713D03*
X485925Y712713D03*
X485925Y717713D03*
X485925Y722713D03*
X485925Y727713D03*
X485925Y732713D03*
X400925Y677713D03*
X400925Y682713D03*
X400925Y687713D03*
X400925Y692713D03*
X400925Y697713D03*
X400925Y702713D03*
X400925Y707713D03*
X400925Y712713D03*
X400925Y717713D03*
X400925Y722713D03*
X400925Y727713D03*
X400925Y732713D03*
D12*
X443425Y705213D03*
D13*
X444500Y829250D03*
X444500Y885250D03*
X387350Y830838D03*
X387350Y886838D03*
X501650Y829250D03*
X501650Y885250D03*
D14*
X355600Y743513D03*
X355600Y726513D03*
D15*
X383150Y681038D03*
X366150Y681038D03*
D14*
X511175Y732863D03*
X511175Y749863D03*
X384175Y729688D03*
X384175Y746688D03*
D15*
X366150Y649288D03*
X383150Y649288D03*
D14*
X371475Y732863D03*
X371475Y749863D03*
X514913Y777875D03*
X497913Y777875D03*
X448700Y782638D03*
X465700Y782638D03*
X386325Y715963D03*
X369325Y715963D03*
D16*
X485775Y768788D03*
X485775Y783788D03*
X476250Y768788D03*
X476250Y783788D03*
D14*
X530225Y683188D03*
X530225Y666188D03*
X515938Y699063D03*
X515938Y682063D03*
D17*
X393700Y911225D03*
X393700Y946150D03*
X393700Y984250D03*
D14*
X530225Y714938D03*
X530225Y697938D03*
D19*
X479425Y904875D03*
X460425Y904875D03*
X469925Y883975D03*
D14*
X514913Y765175D03*
X497913Y765175D03*
X448700Y769938D03*
X465700Y769938D03*
D18*
X541338Y630238D03*
D20*
X546100Y936625D03*
X546100Y962025D03*
X546100Y987425D03*
X12700Y850900D03*
X12700Y876300D03*
X12700Y901700D03*
X546100Y738188D03*
X546100Y763588D03*
X546100Y788988D03*
X12700Y652463D03*
X12700Y677863D03*
X12700Y703263D03*
D18*
X185738Y622300D03*
X412750Y595313D03*
X425450Y595313D03*
X438150Y595313D03*
X476250Y595313D03*
X501650Y595313D03*
X514350Y595313D03*
X527050Y595313D03*
X342900Y595313D03*
X330200Y595313D03*
X304800Y595313D03*
X279400Y595313D03*
X266700Y595313D03*
X254000Y595313D03*
X463550Y595313D03*
X228600Y595313D03*
X241300Y595313D03*
X184150Y595313D03*
X171450Y595313D03*
X158750Y595313D03*
X146050Y595313D03*
X133350Y595313D03*
X120650Y595313D03*
X107950Y595313D03*
X82550Y595313D03*
X69850Y595313D03*
X57150Y595313D03*
X44450Y595313D03*
X31750Y595313D03*
X95250Y595313D03*
X292100Y595313D03*
X450850Y595313D03*
D20*
X12700Y428625D03*
X12700Y454025D03*
X12700Y479425D03*
X546100Y539750D03*
X546100Y565150D03*
X546100Y590550D03*
D21*
X539750Y447675D03*
X551350Y447675D03*
X539750Y422175D03*
X551350Y422175D03*
D22*
X515100Y463550D03*
X450100Y463550D03*
X515100Y552450D03*
X450100Y552450D03*
X413500Y552450D03*
X348500Y552450D03*
X413500Y463550D03*
X348500Y463550D03*
X311900Y463550D03*
X246900Y463550D03*
X210300Y463550D03*
X145300Y463550D03*
X108700Y463550D03*
X43700Y463550D03*
X108700Y552450D03*
X43700Y552450D03*
X210300Y552450D03*
X145300Y552450D03*
X311900Y552450D03*
X246900Y552450D03*
D20*
X546100Y463550D03*
X546100Y488950D03*
X546100Y514350D03*
D18*
X552450Y622300D03*
D15*
X363538Y764613D03*
X363538Y781613D03*
X377825Y764613D03*
X377825Y781613D03*
D23*
X63500Y622300D03*
D18*
X96838Y622300D03*
X30163Y622300D03*
X152400Y622300D03*
D23*
X119063Y622300D03*
X174625Y622300D03*
D18*
X19050Y630238D03*
X41275Y630238D03*
D23*
X63500Y628650D03*
D18*
X52388Y630238D03*
D23*
X119063Y628650D03*
D18*
X107950Y630238D03*
X74613Y630238D03*
X85725Y630238D03*
X130175Y630238D03*
X141288Y630238D03*
D23*
X174625Y628650D03*
D18*
X163513Y630238D03*
X30163Y630238D03*
X96838Y630238D03*
X152400Y630238D03*
X185738Y630238D03*
X219075Y630238D03*
X230188Y622300D03*
X285750Y622300D03*
X252413Y622300D03*
X263525Y622300D03*
X307975Y630238D03*
X319088Y630238D03*
X341313Y622300D03*
X196850Y622300D03*
D23*
X241300Y622300D03*
X296863Y622300D03*
X352425Y622300D03*
D18*
X196850Y630238D03*
X219075Y622300D03*
D23*
X241300Y628650D03*
D18*
X230188Y630238D03*
D23*
X296863Y628650D03*
D18*
X285750Y630238D03*
X252413Y630238D03*
X263525Y630238D03*
X307975Y622300D03*
X319088Y622300D03*
D23*
X352425Y628650D03*
D18*
X341313Y630238D03*
X274638Y622300D03*
X207963Y622300D03*
X330200Y622300D03*
X207963Y630238D03*
X274638Y630238D03*
X330200Y630238D03*
X363538Y630238D03*
X396875Y622300D03*
X407988Y622300D03*
X463550Y622300D03*
X430213Y630238D03*
X441325Y630238D03*
X485775Y622300D03*
X496888Y622300D03*
X519113Y622300D03*
X374650Y630238D03*
D23*
X419100Y628650D03*
X474663Y628650D03*
X530225Y628650D03*
D18*
X374650Y622300D03*
X396875Y630238D03*
D23*
X419100Y622300D03*
D18*
X407988Y630238D03*
D23*
X474663Y622300D03*
D18*
X463550Y630238D03*
X430213Y622300D03*
X441325Y622300D03*
X485775Y630238D03*
X496888Y630238D03*
D23*
X530225Y622300D03*
D18*
X519113Y630238D03*
X541338Y622300D03*
X452438Y630238D03*
X385763Y622300D03*
X508000Y630238D03*
X385763Y630238D03*
X452438Y622300D03*
X508000Y622300D03*
X552450Y630238D03*
X400050Y595313D03*
X387350Y595313D03*
X215900Y595313D03*
X203200Y595313D03*
X355600Y595313D03*
D24*
X631825Y805117D02*
X631825Y817309D01*
X657225Y817309D02*
X657225Y805117D01*
X784225Y805117D02*
X784225Y817309D01*
X809625Y817309D02*
X809625Y805117D01*
X682625Y805117D02*
X682625Y817309D01*
X708025Y817309D02*
X708025Y805117D01*
X758825Y805117D02*
X758825Y817309D01*
X733425Y817309D02*
X733425Y805117D01*
X809625Y881317D02*
X809625Y893509D01*
X784225Y893509D02*
X784225Y881317D01*
X758825Y881317D02*
X758825Y893509D01*
X733425Y893509D02*
X733425Y881317D01*
X708025Y881317D02*
X708025Y893509D01*
X682625Y893509D02*
X682625Y881317D01*
X657225Y881317D02*
X657225Y893509D01*
X631825Y893509D02*
X631825Y881317D01*
D25*
X789013Y769303D03*
X808013Y769303D03*
D26*
X681038Y771183D03*
X681038Y752183D03*
D27*
X706120Y746760D02*
X706120Y762000D01*
X731520Y762000D02*
X731520Y746760D01*
X708025Y928688D02*
X708025Y943928D01*
X733425Y943928D02*
X733425Y928688D01*
X843915Y860743D02*
X843915Y845503D01*
X869315Y845503D02*
X869315Y860743D01*
X855345Y807720D02*
X840105Y807720D01*
X840105Y782320D02*
X855345Y782320D01*
D26*
X679450Y943903D03*
X679450Y924903D03*
D24*
X655320Y777304D02*
X655320Y765112D01*
X629920Y765112D02*
X629920Y777304D01*
X653415Y921957D02*
X653415Y934149D01*
X628015Y934149D02*
X628015Y921957D01*
D28*
X893763Y712788D03*
X893763Y957263D03*
X604838Y712788D03*
D27*
X809308Y928053D02*
X809308Y943293D01*
X783908Y943293D02*
X783908Y928053D01*
D26*
X11113Y744513D03*
X11113Y725513D03*
D15*
X341875Y515938D03*
X324875Y515938D03*
D14*
X294713Y515938D03*
X311713Y515938D03*
D29*
X497304Y745709D03*
X139700Y459500D03*
X536575Y750888D03*
X103188Y730225D03*
X130580Y728654D03*
X200025Y748619D03*
X280988Y731275D03*
X300038Y708000D03*
X246094Y728050D03*
X278119Y683145D03*
X160338Y748619D03*
X127563Y695325D03*
X265264Y683145D03*
X211700Y649288D03*
X366085Y691344D03*
X427513Y720671D03*
X447675Y731275D03*
X454025Y698475D03*
X390281Y777235D03*
X193675Y784225D03*
X549275Y426475D03*
X525463Y445462D03*
X334706Y555481D03*
X331715Y570665D03*
X250825Y556869D03*
X528638Y570538D03*
X389219Y462244D03*
X233706Y472268D03*
X452438Y430213D03*
X342525Y457575D03*
X490538Y445462D03*
X463550Y544513D03*
X463550Y472268D03*
X457200Y472268D03*
X450850Y472268D03*
X444500Y472268D03*
X438150Y472268D03*
X463550Y465918D03*
X457200Y465918D03*
X450850Y465918D03*
X444500Y465918D03*
X438150Y465918D03*
X457200Y544513D03*
X450850Y544513D03*
X444500Y544513D03*
X438150Y544513D03*
X463550Y550863D03*
X457200Y550863D03*
X450850Y550863D03*
X444500Y550863D03*
X260350Y472268D03*
X254000Y472268D03*
X225425Y570693D03*
X219075Y570693D03*
X152400Y543706D03*
X158750Y472268D03*
X152400Y472268D03*
X146050Y472268D03*
X139700Y472268D03*
X133350Y472268D03*
X158750Y465918D03*
X152400Y465918D03*
X146050Y465918D03*
X139700Y465918D03*
X133350Y465918D03*
X163513Y426231D03*
X114300Y424643D03*
X85725Y459568D03*
X79375Y459568D03*
X73025Y459568D03*
X85725Y453218D03*
X79375Y453218D03*
X73025Y453218D03*
X66675Y453218D03*
X66675Y459568D03*
X60325Y453218D03*
X60325Y459568D03*
X512763Y752447D03*
X28575Y767426D03*
X467453Y682637D03*
X382588Y648102D03*
X95813Y708025D03*
X314008Y526236D03*
X88900Y777569D03*
X146982Y777569D03*
X51646Y770194D03*
X314325Y783788D03*
X529943Y869950D03*
X523875Y946150D03*
X65405Y734519D03*
X449263Y947194D03*
X280988Y947194D03*
X117475Y947194D03*
X200025Y732863D03*
X363538Y769783D03*
X401638Y423863D03*
X533682Y429211D03*
X299332Y513941D03*
D30*
X552450Y812800D03*
X552450Y614363D03*
X476250Y801688D03*
X476250Y603250D03*
D29*
X236246Y496172D03*
X413523Y499265D03*
X320262Y579400D03*
X533881Y725969D03*
X367319Y739565D03*
X374377Y729309D03*
X196288Y715963D03*
X370351Y715963D03*
X379847Y696855D03*
X11113Y744513D03*
X36583Y713285D03*
X212271Y697713D03*
X101600Y935038D03*
X95250Y935038D03*
X88900Y935038D03*
X107950Y935038D03*
X114300Y935038D03*
X88900Y928688D03*
X95250Y928688D03*
X101600Y928688D03*
X107950Y928688D03*
X114300Y928688D03*
X114300Y922338D03*
X107950Y922338D03*
X101600Y922338D03*
X95250Y922338D03*
X88900Y922338D03*
X88900Y915988D03*
X95250Y915988D03*
X101600Y915988D03*
X107950Y915988D03*
X114300Y915988D03*
D30*
X107950Y812800D03*
X119063Y614363D03*
X74613Y614363D03*
D29*
X44450Y904875D03*
X44450Y911225D03*
X44450Y923925D03*
X50800Y923925D03*
X57150Y923925D03*
X57150Y904875D03*
X44450Y917575D03*
X38100Y917575D03*
X31750Y917575D03*
X31750Y904875D03*
X31750Y911225D03*
X38100Y904875D03*
X38100Y923925D03*
X38100Y911225D03*
X31750Y923925D03*
X50800Y904875D03*
X50800Y911225D03*
X50800Y917575D03*
X57150Y917575D03*
X57150Y911225D03*
D30*
X41275Y812800D03*
X63500Y614363D03*
X130175Y614363D03*
X174625Y614363D03*
X95250Y801688D03*
X19050Y812800D03*
D29*
X19050Y838571D03*
X22888Y927100D03*
D30*
X52388Y614363D03*
D29*
X44450Y869950D03*
X44450Y863600D03*
X50800Y863600D03*
X44450Y857250D03*
X50800Y869950D03*
X44450Y850900D03*
X50800Y857250D03*
X31750Y857250D03*
X31750Y863600D03*
X31750Y869950D03*
X31750Y850900D03*
X50800Y850900D03*
X57150Y850900D03*
X57150Y857250D03*
X57150Y863600D03*
X57150Y869950D03*
X38100Y850900D03*
X38100Y857250D03*
X38100Y863600D03*
X38100Y869950D03*
D30*
X52388Y812800D03*
X119063Y812800D03*
D29*
X79530Y859384D03*
X126768Y857250D03*
D30*
X74613Y812800D03*
D29*
X168275Y697475D03*
X85725Y630238D03*
D30*
X85725Y614363D03*
D29*
X101600Y863600D03*
X107950Y863600D03*
X107950Y857250D03*
X101600Y857250D03*
X88900Y857250D03*
X114300Y857250D03*
X107950Y850900D03*
X101600Y850900D03*
X114300Y850900D03*
X88900Y850900D03*
X88900Y869950D03*
X114300Y863600D03*
X88900Y863600D03*
X101600Y869950D03*
X107950Y869950D03*
X114300Y869950D03*
X95250Y869950D03*
X95250Y863600D03*
X95250Y857250D03*
X95250Y850900D03*
D30*
X85725Y812800D03*
X130175Y812800D03*
D29*
X158750Y935038D03*
X152400Y935038D03*
X146050Y935038D03*
X146050Y928688D03*
X152400Y928688D03*
X152400Y922338D03*
X146050Y922338D03*
X158750Y922338D03*
X158750Y928688D03*
X165100Y928688D03*
X165100Y935038D03*
X171450Y935038D03*
X171450Y928688D03*
X171450Y922338D03*
X165100Y922338D03*
X146050Y915988D03*
X152400Y915988D03*
X158750Y915988D03*
X165100Y915988D03*
X171450Y915988D03*
D30*
X141288Y812800D03*
D29*
X180975Y718113D03*
X163513Y630238D03*
D30*
X163513Y614363D03*
D29*
X146050Y857250D03*
X152400Y869950D03*
X152400Y857250D03*
X158750Y857250D03*
X158750Y869950D03*
X152400Y850900D03*
X152400Y863600D03*
X146050Y863600D03*
X158750Y850900D03*
X146050Y850900D03*
X146050Y869950D03*
X158750Y863600D03*
X165100Y869950D03*
X171450Y869950D03*
X171450Y863600D03*
X165100Y863600D03*
X165100Y857250D03*
X171450Y857250D03*
X171450Y850900D03*
X165100Y850900D03*
D30*
X163513Y812800D03*
X19050Y614363D03*
X57150Y801688D03*
X69850Y801688D03*
X82550Y801688D03*
X107950Y801688D03*
X158750Y801688D03*
X171450Y801688D03*
X184150Y801688D03*
X292100Y801688D03*
D29*
X212009Y662134D03*
D30*
X254000Y801688D03*
X266700Y801688D03*
X279400Y801688D03*
X304800Y801688D03*
X330200Y801688D03*
X342900Y801688D03*
X355600Y801688D03*
D29*
X184150Y869950D03*
D30*
X185738Y812800D03*
D29*
X355600Y869950D03*
D30*
X363538Y812800D03*
X450850Y801688D03*
D29*
X450426Y773113D03*
X362223Y659334D03*
X530225Y713350D03*
X519113Y643811D03*
D30*
X519113Y614363D03*
X412750Y801688D03*
X425450Y801688D03*
X438150Y801688D03*
X463550Y801688D03*
X501650Y801688D03*
X514350Y801688D03*
X527050Y801688D03*
D31*
X536575Y858838D03*
D30*
X541338Y812800D03*
D29*
X479425Y750394D03*
X134831Y744327D03*
X317392Y751551D03*
D30*
X133350Y801688D03*
D29*
X484577Y742694D03*
X142875Y739519D03*
X309329Y746761D03*
D30*
X120650Y801688D03*
D29*
X476250Y759482D03*
X304800Y759482D03*
X131515Y753415D03*
D30*
X146050Y801688D03*
X44450Y801688D03*
D29*
X406071Y739519D03*
X406071Y768036D03*
X229127Y751148D03*
X223603Y777000D03*
D30*
X241300Y801688D03*
D29*
X396983Y739519D03*
X396983Y771084D03*
X237669Y746837D03*
X249449Y771618D03*
X235232Y773952D03*
D30*
X228600Y801688D03*
X508000Y812800D03*
X452438Y812800D03*
X385763Y812800D03*
X330200Y812800D03*
X274638Y812800D03*
X207963Y812800D03*
X152400Y812800D03*
X96838Y812800D03*
X30163Y812800D03*
D29*
X118025Y651209D03*
D30*
X141288Y614363D03*
D29*
X66727Y657153D03*
D30*
X41275Y614363D03*
D29*
X102841Y651025D03*
D30*
X107950Y614363D03*
D29*
X134831Y670907D03*
D30*
X185738Y614363D03*
X363538Y614363D03*
D29*
X363538Y638700D03*
X496926Y660771D03*
D30*
X541338Y614363D03*
D29*
X82550Y507181D03*
D30*
X133350Y603250D03*
X63500Y812800D03*
X174625Y812800D03*
X196850Y812800D03*
X241300Y812800D03*
D29*
X203200Y850900D03*
X203200Y863600D03*
X209550Y857250D03*
X209550Y850900D03*
X209550Y869950D03*
X203200Y857250D03*
X209550Y863600D03*
X215900Y869950D03*
X215900Y863600D03*
X215900Y857250D03*
X215900Y850900D03*
X222250Y850900D03*
X228600Y850900D03*
X222250Y857250D03*
X222250Y863600D03*
X222250Y869950D03*
X228600Y869950D03*
X228600Y863600D03*
X203200Y869950D03*
X228600Y857250D03*
D30*
X230188Y812800D03*
D29*
X222250Y917575D03*
X203200Y923925D03*
X209550Y911225D03*
X228600Y917575D03*
X215900Y911225D03*
X215900Y904875D03*
X203200Y917575D03*
X203200Y911225D03*
X203200Y904875D03*
X209550Y917575D03*
X215900Y917575D03*
X209550Y904875D03*
X209550Y923925D03*
X215900Y923925D03*
X222250Y923925D03*
X222250Y904875D03*
X222250Y911225D03*
X228600Y911225D03*
X228600Y904875D03*
X228600Y923925D03*
D30*
X219075Y812800D03*
D29*
X273050Y928688D03*
X266700Y928688D03*
X279400Y928688D03*
X285750Y928688D03*
X260350Y928688D03*
X260350Y935038D03*
X266700Y935038D03*
X273050Y935038D03*
X279400Y935038D03*
X285750Y935038D03*
X285750Y922338D03*
X279400Y922338D03*
X273050Y922338D03*
X266700Y922338D03*
X260350Y922338D03*
X260350Y915988D03*
X266700Y915988D03*
X273050Y915988D03*
X279400Y915988D03*
X285750Y915988D03*
D30*
X285750Y812800D03*
X296863Y812800D03*
D29*
X298168Y857250D03*
X252502Y845497D03*
D30*
X252413Y812800D03*
D29*
X260350Y863600D03*
X260350Y869950D03*
X260350Y857250D03*
X260350Y850900D03*
X266700Y869950D03*
X266700Y863600D03*
X266700Y857250D03*
X266700Y850900D03*
X273050Y869950D03*
X273050Y863600D03*
X273050Y857250D03*
X273050Y850900D03*
X279400Y869950D03*
X279400Y863600D03*
X279400Y857250D03*
X279400Y850900D03*
X285750Y869950D03*
X285750Y863600D03*
X285750Y857250D03*
X285750Y850900D03*
D30*
X263525Y812800D03*
X307975Y812800D03*
D29*
X330200Y923925D03*
X336550Y923925D03*
X330200Y917575D03*
X323850Y923925D03*
X323850Y930275D03*
X330200Y936625D03*
X336550Y936625D03*
X342900Y936625D03*
X342900Y930275D03*
X336550Y917575D03*
X342900Y917575D03*
X323850Y917575D03*
X317500Y917575D03*
X317500Y923925D03*
X323850Y936625D03*
X317500Y936625D03*
X317500Y930275D03*
X330200Y930275D03*
X336550Y930275D03*
X342900Y923925D03*
D30*
X319088Y812800D03*
D29*
X317500Y857250D03*
X317500Y863600D03*
X317500Y869950D03*
X317500Y850900D03*
X323850Y869950D03*
X323850Y863600D03*
X323850Y857250D03*
X323850Y850900D03*
X330200Y850900D03*
X330200Y857250D03*
X330200Y863600D03*
X330200Y869950D03*
X336550Y869950D03*
X336550Y863600D03*
X336550Y857250D03*
X336550Y850900D03*
X342900Y869950D03*
X342900Y863600D03*
X342900Y857250D03*
X342900Y850900D03*
D30*
X341313Y812800D03*
X352425Y812800D03*
D29*
X143025Y675883D03*
X31978Y631825D03*
D30*
X30163Y614363D03*
D29*
X168275Y680475D03*
X96838Y632905D03*
D30*
X96838Y614363D03*
D29*
X180975Y701113D03*
X152400Y630238D03*
D30*
X152400Y614363D03*
D29*
X253290Y581716D03*
D30*
X228600Y603250D03*
D29*
X262378Y583804D03*
D30*
X241300Y603250D03*
X374650Y812800D03*
X419100Y812800D03*
D29*
X374650Y863600D03*
X374650Y869950D03*
X374650Y857250D03*
X374650Y850900D03*
X381000Y869950D03*
X387350Y869950D03*
X393700Y869950D03*
X400050Y869950D03*
X381000Y863600D03*
X387350Y863600D03*
X393700Y863600D03*
X400050Y863600D03*
X381000Y857250D03*
X381000Y850900D03*
X387350Y850900D03*
X387350Y857250D03*
X393700Y857250D03*
X400050Y857250D03*
X400050Y850900D03*
X393700Y850900D03*
D30*
X407988Y812800D03*
D29*
X387350Y911225D03*
X374650Y911225D03*
X381000Y911225D03*
X374650Y917575D03*
X381000Y917575D03*
X387350Y917575D03*
X393700Y917575D03*
X400050Y917575D03*
X400050Y911225D03*
X393700Y911225D03*
X393700Y904875D03*
X400050Y904875D03*
X387350Y904875D03*
X381000Y904875D03*
X374650Y904875D03*
X374650Y923925D03*
X381000Y923925D03*
X387350Y923925D03*
X393700Y923925D03*
X400050Y923925D03*
D30*
X396875Y812800D03*
D29*
X444500Y923925D03*
X438150Y923925D03*
X450850Y923925D03*
X431800Y923925D03*
X431800Y936625D03*
X438150Y936625D03*
X444500Y936625D03*
X450850Y936625D03*
X457200Y936625D03*
X457200Y923925D03*
X450850Y917575D03*
X457200Y917575D03*
X444500Y917575D03*
X438150Y917575D03*
X431800Y917575D03*
X431800Y930275D03*
X438150Y930275D03*
X444500Y930275D03*
X450850Y930275D03*
X457200Y930275D03*
D30*
X463550Y812800D03*
X474663Y812800D03*
D29*
X421606Y860425D03*
X469668Y857250D03*
D30*
X430213Y812800D03*
D29*
X438150Y869950D03*
X444500Y869950D03*
X431800Y863600D03*
X431800Y869950D03*
X431800Y857250D03*
X438150Y850900D03*
X438150Y863600D03*
X431800Y850900D03*
X438150Y857250D03*
X450850Y869950D03*
X457200Y869950D03*
X457200Y863600D03*
X450850Y863600D03*
X444500Y863600D03*
X444500Y857250D03*
X450850Y857250D03*
X457200Y857250D03*
X457200Y850900D03*
X450850Y850900D03*
X444500Y850900D03*
D30*
X441325Y812800D03*
X485775Y812800D03*
D29*
X488950Y923925D03*
X495300Y923925D03*
X501650Y923925D03*
X508000Y923925D03*
X514350Y923925D03*
X488950Y930275D03*
X495300Y930275D03*
X501650Y930275D03*
X508000Y930275D03*
X514350Y930275D03*
X488950Y917575D03*
X495300Y917575D03*
X514350Y917575D03*
X508000Y917575D03*
X501650Y917575D03*
X488950Y936625D03*
X495300Y936625D03*
X501650Y936625D03*
X508000Y936625D03*
X514350Y936625D03*
X488950Y899048D03*
X490538Y843048D03*
D30*
X496888Y812800D03*
D29*
X488950Y863600D03*
X488950Y869950D03*
X495300Y857250D03*
X488950Y857250D03*
X495300Y863600D03*
X495300Y869950D03*
X501650Y869950D03*
X495300Y850900D03*
X501650Y850900D03*
X501650Y857250D03*
X501650Y863600D03*
X508000Y869950D03*
X514350Y869950D03*
X508000Y863600D03*
X514350Y863600D03*
X508000Y857250D03*
X514350Y857250D03*
X508000Y850900D03*
X514350Y850900D03*
D30*
X519113Y812800D03*
X530225Y812800D03*
X296863Y614363D03*
X252413Y614363D03*
X241300Y614363D03*
X307975Y614363D03*
X352425Y614363D03*
X230188Y614363D03*
D29*
X339725Y695696D03*
X263525Y630238D03*
D30*
X263525Y614363D03*
D29*
X355167Y713350D03*
X341313Y630238D03*
D30*
X341313Y614363D03*
X196850Y614363D03*
D29*
X289659Y650965D03*
D30*
X319088Y614363D03*
D29*
X237669Y667859D03*
D30*
X219075Y614363D03*
D29*
X274475Y651209D03*
D30*
X285750Y614363D03*
D29*
X331569Y663510D03*
X209522Y630238D03*
D30*
X207963Y614363D03*
D29*
X339725Y678888D03*
X274638Y630238D03*
D30*
X274638Y614363D03*
D29*
X352425Y696350D03*
X330200Y630238D03*
D30*
X330200Y614363D03*
X474663Y614363D03*
X430213Y614363D03*
X419100Y614363D03*
X485775Y614363D03*
X530225Y614363D03*
X407988Y614363D03*
D29*
X515938Y699063D03*
X441325Y637710D03*
D30*
X441325Y614363D03*
X374650Y614363D03*
D29*
X403963Y667859D03*
D30*
X396875Y614363D03*
D29*
X446088Y651046D03*
D30*
X463550Y614363D03*
D29*
X461272Y650862D03*
D30*
X496888Y614363D03*
D29*
X509306Y666685D03*
X385763Y628841D03*
D30*
X385763Y614363D03*
D29*
X515938Y682063D03*
X452438Y630238D03*
D30*
X452438Y614363D03*
D29*
X530225Y697938D03*
X508000Y630238D03*
D30*
X508000Y614363D03*
X31750Y603250D03*
X44450Y603250D03*
X57150Y603250D03*
X69850Y603250D03*
X82550Y603250D03*
D29*
X152160Y507760D03*
X21945Y596900D03*
D30*
X95250Y603250D03*
D29*
X247366Y498265D03*
X193830Y582613D03*
D30*
X107950Y603250D03*
X120650Y603250D03*
X146050Y603250D03*
D29*
X280551Y518005D03*
X183774Y527793D03*
D30*
X158750Y603250D03*
D29*
X271463Y518005D03*
X192862Y527793D03*
D30*
X171450Y603250D03*
D29*
X262375Y518005D03*
X201950Y527793D03*
D30*
X184150Y603250D03*
D29*
X156410Y578668D03*
D30*
X203200Y603250D03*
D29*
X270907Y579481D03*
D30*
X215900Y603250D03*
X254000Y603250D03*
X266700Y603250D03*
X279400Y603250D03*
X292100Y603250D03*
X304800Y603250D03*
D29*
X355600Y581025D03*
D30*
X355600Y603250D03*
X387350Y603250D03*
X400050Y603250D03*
D29*
X377545Y596900D03*
D30*
X412750Y603250D03*
X425450Y603250D03*
X438150Y603250D03*
X450850Y603250D03*
X463550Y603250D03*
X501650Y603250D03*
X514350Y603250D03*
X527050Y603250D03*
X342900Y603250D03*
X330200Y603250D03*
D29*
X505730Y503238D03*
X293688Y498249D03*
X505730Y512326D03*
X284600Y498249D03*
D30*
X390525Y801688D03*
X203200Y801688D03*
X31750Y801688D03*
X401638Y801688D03*
X215900Y801688D03*
D29*
X320675Y515938D03*
M02*
