%
M48
M72
T01C0.01181
T02C0.01378
T03C0.02362
T04C0.03200
T05C0.04000
T06C0.11811
%
T01
X241650Y200729
T02
X239039Y205104
X232900Y205104
X230400Y205104
X227900Y205104
X225400Y205104
X222900Y205104
X222900Y202604
X225400Y202604
X227900Y202604
X230400Y202604
X232900Y202604
X232900Y200104
X230400Y200104
X227900Y200104
X225400Y200104
X222900Y200104
X225400Y197604
X227900Y197604
X230400Y197604
X232900Y197604
X223525Y194513
X215309Y200104
X210400Y200104
X210400Y202604
X210400Y205104
X207900Y205104
X205400Y205104
X202900Y205104
X200400Y205104
X200400Y202604
X202900Y202604
X205400Y202604
X207900Y202604
X207900Y200104
X205400Y200104
X202900Y200104
X200400Y200104
X200400Y197604
X202900Y197604
X205400Y197604
X207900Y197604
X210400Y197604
X196387Y201354
X187900Y202604
X187900Y205104
X185400Y205104
X182900Y205104
X180400Y205104
X177900Y205104
X177900Y202604
X180400Y202604
X182900Y202604
X185400Y202604
X185400Y200104
X182900Y200104
X180400Y200104
X177900Y200104
X177900Y197604
X180400Y197604
X182900Y197604
X185400Y197604
X187900Y197604
X187900Y200104
X170400Y205104
X165400Y205104
X162900Y205104
X160400Y205104
X157900Y205104
X155400Y205104
X155400Y202604
X157900Y202604
X160400Y202604
X162900Y202604
X165400Y202604
X165400Y200104
X162900Y200104
X160400Y200104
X157900Y200104
X155400Y200104
X155400Y197604
X157900Y197604
X160400Y197604
X162900Y197604
X165400Y197604
X147789Y200104
X142900Y200104
X142900Y202604
X142900Y205104
X140400Y205104
X137900Y205104
X135400Y205104
X132900Y205104
X132900Y202604
X135400Y202604
X137900Y202604
X140400Y202604
X140400Y200104
X137900Y200104
X135400Y200104
X132900Y200104
X132900Y197604
X135400Y197604
X137900Y197604
X140400Y197604
X142900Y197604
X129810Y195477
X120400Y197604
X120400Y200104
X120400Y202604
X120400Y205104
X117900Y205104
X115400Y205104
X112900Y205104
X110400Y205104
X110400Y202604
X112900Y202604
X115400Y202604
X117900Y202604
X117900Y200104
X115400Y200104
X112900Y200104
X110400Y200104
X110400Y197604
X112900Y197604
X115400Y197604
X117900Y197604
X102900Y205104
X97900Y205104
X95400Y205104
X92900Y205104
X90400Y205104
X87900Y205104
X87900Y202604
X90400Y202604
X92900Y202604
X95400Y202604
X97900Y202604
X97900Y200104
X95400Y200104
X92900Y200104
X90400Y200104
X87900Y200104
X87900Y197604
X90400Y197604
X92900Y197604
X95400Y197604
X97900Y197604
X80309Y200104
X75400Y200104
X75400Y202604
X75400Y205104
X72900Y205104
X70400Y205104
X67900Y205104
X65400Y205104
X65400Y202604
X67900Y202604
X70400Y202604
X72900Y202604
X72900Y200104
X70400Y200104
X67900Y200104
X65400Y200104
X65400Y197604
X67900Y197604
X70400Y197604
X72900Y197604
X75400Y197604
X61711Y200944
X52900Y200104
X52900Y202604
X52900Y205104
X50400Y205104
X47900Y205104
X45400Y205104
X42900Y205104
X42900Y202604
X45400Y202604
X47900Y202604
X50400Y202604
X50400Y200104
X47900Y200104
X45400Y200104
X42900Y200104
X42900Y197604
X45400Y197604
X47900Y197604
X50400Y197604
X52900Y197604
X37900Y192750
X65400Y168733
X50733Y165830
X41650Y164740
X34775Y155719
X44803Y143425
X56150Y151784
X71025Y150094
X68122Y141354
X80622Y136354
X86709Y128699
X83483Y126740
X76867Y118985
X70889Y118913
X68525Y111779
X64150Y110729
X56671Y121325
X42990Y111354
X39040Y97604
X62900Y62281
X82900Y48536
X82900Y46036
X85400Y46036
X87900Y46036
X90400Y46036
X92900Y46036
X92900Y48536
X90400Y48536
X87900Y48536
X85400Y48536
X85400Y43509
X94775Y30411
X75400Y29786
X64150Y41036
X61650Y41036
X59150Y41036
X56650Y41036
X54150Y41036
X54150Y43536
X56650Y43536
X59150Y43536
X61650Y43536
X64150Y43536
X90306Y62509
X102752Y70396
X106330Y70396
X109908Y70396
X127788Y58771
X123410Y57947
X122410Y48536
X130400Y48536
X132900Y48536
X142447Y58765
X146025Y58765
X148247Y64943
X154025Y69783
X156650Y65729
X140853Y66543
X137275Y66543
X133697Y66543
X129150Y81844
X119150Y87286
X116650Y87286
X106711Y91979
X91979Y90426
X90400Y76661
X130120Y91626
X133698Y92448
X137056Y90746
X156487Y90714
X160996Y87275
X170400Y91354
X179040Y97604
X182275Y110179
X173525Y114060
X181025Y117762
X173008Y122184
X164150Y129882
X164150Y136500
X169150Y136757
X174528Y134786
X179946Y136956
X176207Y144479
X177793Y149733
X175014Y153771
X186693Y153753
X190271Y153753
X198712Y146333
X206650Y150507
X219150Y158034
X221179Y155003
X226189Y156190
X232275Y158843
X241650Y158229
X240590Y148418
X239150Y143450
X233525Y137825
X239150Y137382
X233525Y131132
X230914Y125078
X226040Y122750
X234775Y116073
X230400Y110729
X212003Y118849
X206025Y118921
X204150Y113671
X208525Y110729
X189441Y125540
X209150Y137594
X214437Y131358
X170229Y143450
X155357Y158490
X152183Y156604
X150400Y161612
X154150Y171182
X173525Y165668
X184054Y168602
X186693Y166180
X190271Y164980
X207733Y166979
X217900Y161612
X160939Y123828
X144439Y118889
X138461Y118985
X138525Y110729
X134150Y110729
X112889Y110729
X113747Y118229
X113868Y123286
X123971Y125540
X134835Y131558
X139896Y131558
X148525Y141344
X141025Y150507
X127287Y149238
X123971Y156634
X120608Y158331
X128609Y166390
X123011Y167309
X118433Y168509
X106650Y171354
X88267Y168733
X82178Y159224
X83483Y155646
X86650Y153753
X81810Y149475
X93525Y157336
X101650Y145325
X107679Y144479
X101650Y138632
X96650Y137200
X96650Y130507
X113971Y137294
X109150Y151132
X109150Y157336
X94775Y110729
X90400Y110729
X160400Y110729
X164775Y110729
X162174Y81297
X193204Y59165
X202900Y48536
X202900Y46036
X205400Y46036
X207900Y46036
X210400Y46036
X212900Y46036
X212900Y48536
X210400Y48536
X207900Y48536
X205400Y48536
X223525Y37983
X208525Y31979
X188525Y29479
X183636Y44590
X165252Y42752
X202900Y76979
X205400Y76979
X205400Y79479
X207900Y79479
X210400Y79479
X212900Y79479
X212900Y76979
X210400Y76979
X207900Y76979
X229506Y64307
X229506Y60729
X237275Y37983
X240511Y31585
X246650Y30507
X238525Y87225
X222900Y216560
X222900Y223854
X222900Y226354
X222900Y228854
X222900Y231354
X225400Y231354
X227900Y231354
X230400Y231354
X232900Y231354
X232900Y228854
X230400Y228854
X227900Y228854
X225400Y228854
X225400Y226354
X227900Y226354
X230400Y226354
X232900Y226354
X232900Y223854
X230400Y223854
X227900Y223854
X225400Y223854
X210400Y223854
X210400Y226354
X210400Y228854
X210400Y231354
X207900Y231354
X205400Y231354
X202900Y231354
X200400Y231354
X200400Y228854
X202900Y228854
X205400Y228854
X207900Y228854
X207900Y226354
X205400Y226354
X202900Y226354
X200400Y226354
X200400Y223854
X202900Y223854
X205400Y223854
X207900Y223854
X207275Y235515
X187900Y226354
X185400Y226354
X182900Y226354
X180400Y226354
X177900Y226354
X177900Y223854
X180400Y223854
X182900Y223854
X185400Y223854
X187900Y223854
X187900Y221354
X185400Y221354
X182900Y221354
X180400Y221354
X177900Y221354
X177900Y218854
X180400Y218854
X182900Y218854
X185400Y218854
X187900Y218854
X165400Y223854
X165400Y226354
X165400Y228854
X165400Y231354
X162900Y231354
X160400Y231354
X157900Y231354
X155400Y231354
X155400Y228854
X157900Y228854
X160400Y228854
X162900Y228854
X162900Y226354
X160400Y226354
X157900Y226354
X155400Y226354
X155400Y223854
X157900Y223854
X160400Y223854
X162900Y223854
X142900Y223229
X142900Y225729
X142900Y228229
X142900Y230729
X140400Y230729
X137900Y230729
X135400Y230729
X132900Y230729
X132900Y228229
X135400Y228229
X137900Y228229
X140400Y228229
X140400Y225729
X137900Y225729
X135400Y225729
X132900Y225729
X132900Y223229
X135400Y223229
X137900Y223229
X140400Y223229
X141025Y235515
X120400Y226354
X117900Y226354
X115400Y226354
X112900Y226354
X110400Y226354
X110400Y223854
X112900Y223854
X115400Y223854
X117900Y223854
X120400Y223854
X120400Y221354
X117900Y221354
X115400Y221354
X112900Y221354
X110400Y221354
X110400Y218854
X112900Y218854
X115400Y218854
X117900Y218854
X120400Y218854
X97900Y223229
X97900Y225729
X97900Y228229
X97900Y230729
X95400Y230729
X92900Y230729
X90400Y230729
X87900Y230729
X87900Y228229
X90400Y228229
X92900Y228229
X95400Y228229
X95400Y225729
X92900Y225729
X90400Y225729
X87900Y225729
X87900Y223229
X90400Y223229
X92900Y223229
X95400Y223229
X75400Y223229
X75400Y225729
X75400Y228229
X75400Y230729
X72900Y230729
X70400Y230729
X67900Y230729
X65400Y230729
X65400Y228229
X67900Y228229
X70400Y228229
X72900Y228229
X72900Y225729
X70400Y225729
X67900Y225729
X65400Y225729
X65400Y223229
X67900Y223229
X70400Y223229
X72900Y223229
X76650Y235515
X52900Y226354
X50400Y226354
X47900Y226354
X45400Y226354
X42900Y226354
X42900Y223854
X45400Y223854
X47900Y223854
X50400Y223854
X52900Y223854
X52900Y221354
X50400Y221354
X47900Y221354
X45400Y221354
X42900Y221354
X42900Y218854
X45400Y218854
X47900Y218854
X50400Y218854
X52900Y218854
X39411Y227604
X236650Y235104
T03
X234775Y182604
X230400Y182604
X226025Y182604
X221650Y182604
X217275Y182604
X212900Y182604
X208525Y182604
X204150Y182604
X199775Y182604
X195400Y182604
X191025Y182604
X186650Y182604
X182275Y182604
X177900Y182604
X173525Y182604
X169150Y182604
X164775Y182604
X160400Y182604
X156025Y182604
X151650Y182604
X147275Y182604
X142900Y182604
X138525Y182604
X134150Y182604
X129775Y182604
X125400Y182604
X121025Y182604
X116650Y182604
X112275Y182604
X107900Y182604
X103525Y182604
X99150Y182604
X94775Y182604
X90400Y182604
X86025Y182604
X81650Y182604
X77275Y182604
X72900Y182604
X68525Y182604
X64150Y182604
X59775Y182604
X55400Y182604
X51025Y182604
X46650Y182604
X42275Y182604
X37900Y182604
X42900Y178229
X47900Y178229
X52900Y178229
X57900Y178229
X62900Y178229
X67900Y178229
X72900Y178229
X77900Y178229
X82900Y178229
X87900Y178229
X92900Y178229
X97900Y178229
X102900Y178229
X110400Y178229
X115400Y178229
X120400Y178229
X125400Y178229
X130400Y178229
X135400Y178229
X140400Y178229
X145400Y178229
X150400Y178229
X160400Y178229
X165400Y178229
X170400Y178229
X184150Y178229
X188525Y178229
X192900Y178229
X197900Y178229
X202900Y178229
X207900Y178229
X212900Y178229
X217900Y178229
X227900Y178229
X232900Y178229
X237900Y178229
X239150Y182604
X243525Y182604
X247900Y182604
X247900Y104479
X243525Y104479
X239150Y104479
X234775Y104479
X230400Y104479
X226025Y104479
X221650Y104479
X217275Y104479
X212900Y104479
X208525Y104479
X204150Y104479
X199775Y104479
X195400Y104479
X191025Y104479
X186650Y104479
X182275Y104479
X177900Y104479
X173525Y104479
X169150Y104479
X164775Y104479
X160400Y104479
X156025Y104479
X151650Y104479
X147275Y104479
X142900Y104479
X138525Y104479
X134150Y104479
X129775Y104479
X125400Y104479
X121025Y104479
X116650Y104479
X112275Y104479
X107900Y104479
X103525Y104479
X99150Y104479
X94775Y104479
X90400Y104479
X86025Y104479
X81650Y104479
X77275Y104479
X72900Y104479
X68525Y104479
X64150Y104479
X59775Y104479
X55400Y104479
X51025Y104479
X46650Y104479
X42275Y104479
X37900Y104479
X42900Y100104
X47900Y100104
X52900Y100104
X57900Y100104
X62900Y100104
X67900Y100104
X72900Y100104
X77900Y100104
X82900Y100104
X87900Y100104
X92900Y100104
X97900Y100104
X102900Y100104
X110400Y100104
X115400Y100104
X120400Y100104
X125400Y100104
X130400Y100104
X135400Y100104
X140400Y100104
X145400Y100104
X150400Y100104
X160400Y100104
X165400Y100104
X170400Y100104
X182900Y100104
X187900Y100104
X192900Y100104
X197900Y100104
X202900Y100104
X207900Y100104
X212900Y100104
X217900Y100104
X227900Y100104
X232900Y100104
X237900Y100104
T04
X278400Y166229
X288400Y166229
X289150Y181979
X299150Y181979
X309150Y181979
X319150Y181979
X329150Y181979
X339150Y181979
X349150Y181979
X349150Y211979
X339150Y211979
X329150Y211979
X319150Y211979
X309150Y211979
X299150Y211979
X289150Y211979
X279150Y211979
X277650Y227979
X287650Y227979
X279150Y181979
T05
X35400Y31354
X35400Y41354
X35400Y51354
X35400Y119479
X35400Y129479
X35400Y139479
X35400Y197604
X35400Y207604
X35400Y217604
X245400Y231354
X245400Y241354
X245400Y251354
X309150Y231229
X319150Y231229
X339025Y230979
X349025Y230979
X362650Y198479
X372650Y198479
X364150Y180604
X364150Y170604
X318400Y159604
X308400Y159604
X245400Y163229
X245400Y173229
X245400Y153229
X245400Y95104
X245400Y85104
X245400Y75104
X245400Y65104
X245400Y55104
X245400Y45104
T06
X268525Y143229
X382275Y143229
X382275Y239479
M30
