G04 EAGLE Gerber X2 export*
%TF.Part,Single*%
%TF.FileFunction,Other,Silkscreen bl*%
%TF.FilePolarity,Positive*%
%TF.GenerationSoftware,Autodesk,EAGLE,8.6.0*%
%TF.CreationDate,2019-03-18T10:45:52Z*%
G75*
%MOMM*%
%FSLAX34Y34*%
%LPD*%
%AMOC8*
5,1,8,0,0,1.08239X$1,22.5*%
G01*
%ADD10C,0.152400*%
%ADD11C,0.101600*%
%ADD12C,0.127000*%
%ADD13R,0.225000X0.250000*%
%ADD14C,0.203200*%
%ADD15C,0.000000*%


D10*
X0Y415925D02*
X934838Y415925D01*
X934838Y1000000D01*
X0Y1000000D01*
X0Y415925D01*
X11113Y812800D02*
X558800Y812800D01*
X558800Y801688D01*
X11113Y801688D01*
X11113Y812800D01*
X11113Y614363D02*
X11113Y603250D01*
X558800Y603250D01*
X558800Y614363D01*
X11113Y614363D01*
X558800Y987425D02*
X569913Y987425D01*
X569913Y823913D02*
X558800Y823913D01*
X558800Y987425D01*
X569913Y987425D02*
X569913Y823913D01*
X569913Y788988D02*
X558800Y788988D01*
X558800Y625475D02*
X569913Y625475D01*
X558800Y625475D02*
X558800Y788988D01*
X569913Y788988D02*
X569913Y625475D01*
X569913Y592138D02*
X558800Y592138D01*
X558800Y428625D02*
X569913Y428625D01*
X558800Y428625D02*
X558800Y592138D01*
X569913Y592138D02*
X569913Y428625D01*
X581025Y660400D02*
X581025Y671513D01*
X923925Y671513D01*
X923925Y660400D01*
X581025Y660400D01*
D11*
X53467Y583692D02*
X53467Y575254D01*
X53465Y575141D01*
X53459Y575028D01*
X53449Y574915D01*
X53435Y574802D01*
X53418Y574690D01*
X53396Y574579D01*
X53371Y574469D01*
X53341Y574359D01*
X53308Y574251D01*
X53271Y574144D01*
X53231Y574038D01*
X53186Y573934D01*
X53138Y573831D01*
X53087Y573730D01*
X53032Y573631D01*
X52974Y573534D01*
X52912Y573439D01*
X52847Y573346D01*
X52779Y573256D01*
X52708Y573168D01*
X52633Y573082D01*
X52556Y572999D01*
X52476Y572919D01*
X52393Y572842D01*
X52307Y572767D01*
X52219Y572696D01*
X52129Y572628D01*
X52036Y572563D01*
X51941Y572501D01*
X51844Y572443D01*
X51745Y572388D01*
X51644Y572337D01*
X51541Y572289D01*
X51437Y572244D01*
X51331Y572204D01*
X51224Y572167D01*
X51116Y572134D01*
X51006Y572104D01*
X50896Y572079D01*
X50785Y572057D01*
X50673Y572040D01*
X50560Y572026D01*
X50447Y572016D01*
X50334Y572010D01*
X50221Y572008D01*
X50108Y572010D01*
X49995Y572016D01*
X49882Y572026D01*
X49769Y572040D01*
X49657Y572057D01*
X49546Y572079D01*
X49436Y572104D01*
X49326Y572134D01*
X49218Y572167D01*
X49111Y572204D01*
X49005Y572244D01*
X48901Y572289D01*
X48798Y572337D01*
X48697Y572388D01*
X48598Y572443D01*
X48501Y572501D01*
X48406Y572563D01*
X48313Y572628D01*
X48223Y572696D01*
X48135Y572767D01*
X48049Y572842D01*
X47966Y572919D01*
X47886Y572999D01*
X47809Y573082D01*
X47734Y573168D01*
X47663Y573256D01*
X47595Y573346D01*
X47530Y573439D01*
X47468Y573534D01*
X47410Y573631D01*
X47355Y573730D01*
X47304Y573831D01*
X47256Y573934D01*
X47211Y574038D01*
X47171Y574144D01*
X47134Y574251D01*
X47101Y574359D01*
X47071Y574469D01*
X47046Y574579D01*
X47024Y574690D01*
X47007Y574802D01*
X46993Y574915D01*
X46983Y575028D01*
X46977Y575141D01*
X46975Y575254D01*
X46976Y575254D02*
X46976Y583692D01*
X41106Y578499D02*
X37860Y578499D01*
X37860Y578500D02*
X37747Y578498D01*
X37634Y578492D01*
X37521Y578482D01*
X37408Y578468D01*
X37296Y578451D01*
X37185Y578429D01*
X37075Y578404D01*
X36965Y578374D01*
X36857Y578341D01*
X36750Y578304D01*
X36644Y578264D01*
X36540Y578219D01*
X36437Y578171D01*
X36336Y578120D01*
X36237Y578065D01*
X36140Y578007D01*
X36045Y577945D01*
X35952Y577880D01*
X35862Y577812D01*
X35774Y577741D01*
X35688Y577666D01*
X35605Y577589D01*
X35525Y577509D01*
X35448Y577426D01*
X35373Y577340D01*
X35302Y577252D01*
X35234Y577162D01*
X35169Y577069D01*
X35107Y576974D01*
X35049Y576877D01*
X34994Y576778D01*
X34943Y576677D01*
X34895Y576574D01*
X34850Y576470D01*
X34810Y576364D01*
X34773Y576257D01*
X34740Y576149D01*
X34710Y576039D01*
X34685Y575929D01*
X34663Y575818D01*
X34646Y575706D01*
X34632Y575593D01*
X34622Y575480D01*
X34616Y575367D01*
X34614Y575254D01*
X34616Y575141D01*
X34622Y575028D01*
X34632Y574915D01*
X34646Y574802D01*
X34663Y574690D01*
X34685Y574579D01*
X34710Y574469D01*
X34740Y574359D01*
X34773Y574251D01*
X34810Y574144D01*
X34850Y574038D01*
X34895Y573934D01*
X34943Y573831D01*
X34994Y573730D01*
X35049Y573631D01*
X35107Y573534D01*
X35169Y573439D01*
X35234Y573346D01*
X35302Y573256D01*
X35373Y573168D01*
X35448Y573082D01*
X35525Y572999D01*
X35605Y572919D01*
X35688Y572842D01*
X35774Y572767D01*
X35862Y572696D01*
X35952Y572628D01*
X36045Y572563D01*
X36140Y572501D01*
X36237Y572443D01*
X36336Y572388D01*
X36437Y572337D01*
X36540Y572289D01*
X36644Y572244D01*
X36750Y572204D01*
X36857Y572167D01*
X36965Y572134D01*
X37075Y572104D01*
X37185Y572079D01*
X37296Y572057D01*
X37408Y572040D01*
X37521Y572026D01*
X37634Y572016D01*
X37747Y572010D01*
X37860Y572008D01*
X41106Y572008D01*
X41106Y583692D01*
X37860Y583692D01*
X37759Y583690D01*
X37659Y583684D01*
X37559Y583674D01*
X37459Y583661D01*
X37360Y583643D01*
X37261Y583622D01*
X37164Y583597D01*
X37067Y583568D01*
X36972Y583535D01*
X36878Y583499D01*
X36786Y583459D01*
X36695Y583416D01*
X36606Y583369D01*
X36519Y583319D01*
X36433Y583265D01*
X36350Y583208D01*
X36270Y583148D01*
X36191Y583085D01*
X36115Y583018D01*
X36042Y582949D01*
X35972Y582877D01*
X35904Y582803D01*
X35839Y582726D01*
X35778Y582646D01*
X35719Y582564D01*
X35664Y582480D01*
X35612Y582394D01*
X35563Y582306D01*
X35518Y582216D01*
X35476Y582124D01*
X35438Y582031D01*
X35404Y581936D01*
X35373Y581841D01*
X35346Y581744D01*
X35323Y581646D01*
X35303Y581547D01*
X35288Y581447D01*
X35276Y581347D01*
X35268Y581247D01*
X35264Y581146D01*
X35264Y581046D01*
X35268Y580945D01*
X35276Y580845D01*
X35288Y580745D01*
X35303Y580645D01*
X35323Y580546D01*
X35346Y580448D01*
X35373Y580351D01*
X35404Y580256D01*
X35438Y580161D01*
X35476Y580068D01*
X35518Y579976D01*
X35563Y579886D01*
X35612Y579798D01*
X35664Y579712D01*
X35719Y579628D01*
X35778Y579546D01*
X35839Y579466D01*
X35904Y579389D01*
X35972Y579315D01*
X36042Y579243D01*
X36115Y579174D01*
X36191Y579107D01*
X36270Y579044D01*
X36350Y578984D01*
X36433Y578927D01*
X36519Y578873D01*
X36606Y578823D01*
X36695Y578776D01*
X36786Y578733D01*
X36878Y578693D01*
X36972Y578657D01*
X37067Y578624D01*
X37164Y578595D01*
X37261Y578570D01*
X37360Y578549D01*
X37459Y578531D01*
X37559Y578518D01*
X37659Y578508D01*
X37759Y578502D01*
X37860Y578500D01*
X29822Y572008D02*
X24630Y572008D01*
X29822Y572008D02*
X29822Y583692D01*
X24630Y583692D01*
X25928Y578499D02*
X29822Y578499D01*
X19865Y583692D02*
X19865Y572008D01*
X19865Y583692D02*
X16620Y583692D01*
X16507Y583690D01*
X16394Y583684D01*
X16281Y583674D01*
X16168Y583660D01*
X16056Y583643D01*
X15945Y583621D01*
X15835Y583596D01*
X15725Y583566D01*
X15617Y583533D01*
X15510Y583496D01*
X15404Y583456D01*
X15300Y583411D01*
X15197Y583363D01*
X15096Y583312D01*
X14997Y583257D01*
X14900Y583199D01*
X14805Y583137D01*
X14712Y583072D01*
X14622Y583004D01*
X14534Y582933D01*
X14448Y582858D01*
X14365Y582781D01*
X14285Y582701D01*
X14208Y582618D01*
X14133Y582532D01*
X14062Y582444D01*
X13994Y582354D01*
X13929Y582261D01*
X13867Y582166D01*
X13809Y582069D01*
X13754Y581970D01*
X13703Y581869D01*
X13655Y581766D01*
X13610Y581662D01*
X13570Y581556D01*
X13533Y581449D01*
X13500Y581341D01*
X13470Y581231D01*
X13445Y581121D01*
X13423Y581010D01*
X13406Y580898D01*
X13392Y580785D01*
X13382Y580672D01*
X13376Y580559D01*
X13374Y580446D01*
X13376Y580333D01*
X13382Y580220D01*
X13392Y580107D01*
X13406Y579994D01*
X13423Y579882D01*
X13445Y579771D01*
X13470Y579661D01*
X13500Y579551D01*
X13533Y579443D01*
X13570Y579336D01*
X13610Y579230D01*
X13655Y579126D01*
X13703Y579023D01*
X13754Y578922D01*
X13809Y578823D01*
X13867Y578726D01*
X13929Y578631D01*
X13994Y578538D01*
X14062Y578448D01*
X14133Y578360D01*
X14208Y578274D01*
X14285Y578191D01*
X14365Y578111D01*
X14448Y578034D01*
X14534Y577959D01*
X14622Y577888D01*
X14712Y577820D01*
X14805Y577755D01*
X14900Y577693D01*
X14997Y577635D01*
X15096Y577580D01*
X15197Y577529D01*
X15300Y577481D01*
X15404Y577436D01*
X15510Y577396D01*
X15617Y577359D01*
X15725Y577326D01*
X15835Y577296D01*
X15945Y577271D01*
X16056Y577249D01*
X16168Y577232D01*
X16281Y577218D01*
X16394Y577208D01*
X16507Y577202D01*
X16620Y577200D01*
X16620Y577201D02*
X19865Y577201D01*
X15971Y577201D02*
X13374Y572008D01*
X761492Y695904D02*
X761492Y704342D01*
X761492Y695904D02*
X761490Y695791D01*
X761484Y695678D01*
X761474Y695565D01*
X761460Y695452D01*
X761443Y695340D01*
X761421Y695229D01*
X761396Y695119D01*
X761366Y695009D01*
X761333Y694901D01*
X761296Y694794D01*
X761256Y694688D01*
X761211Y694584D01*
X761163Y694481D01*
X761112Y694380D01*
X761057Y694281D01*
X760999Y694184D01*
X760937Y694089D01*
X760872Y693996D01*
X760804Y693906D01*
X760733Y693818D01*
X760658Y693732D01*
X760581Y693649D01*
X760501Y693569D01*
X760418Y693492D01*
X760332Y693417D01*
X760244Y693346D01*
X760154Y693278D01*
X760061Y693213D01*
X759966Y693151D01*
X759869Y693093D01*
X759770Y693038D01*
X759669Y692987D01*
X759566Y692939D01*
X759462Y692894D01*
X759356Y692854D01*
X759249Y692817D01*
X759141Y692784D01*
X759031Y692754D01*
X758921Y692729D01*
X758810Y692707D01*
X758698Y692690D01*
X758585Y692676D01*
X758472Y692666D01*
X758359Y692660D01*
X758246Y692658D01*
X758133Y692660D01*
X758020Y692666D01*
X757907Y692676D01*
X757794Y692690D01*
X757682Y692707D01*
X757571Y692729D01*
X757461Y692754D01*
X757351Y692784D01*
X757243Y692817D01*
X757136Y692854D01*
X757030Y692894D01*
X756926Y692939D01*
X756823Y692987D01*
X756722Y693038D01*
X756623Y693093D01*
X756526Y693151D01*
X756431Y693213D01*
X756338Y693278D01*
X756248Y693346D01*
X756160Y693417D01*
X756074Y693492D01*
X755991Y693569D01*
X755911Y693649D01*
X755834Y693732D01*
X755759Y693818D01*
X755688Y693906D01*
X755620Y693996D01*
X755555Y694089D01*
X755493Y694184D01*
X755435Y694281D01*
X755380Y694380D01*
X755329Y694481D01*
X755281Y694584D01*
X755236Y694688D01*
X755196Y694794D01*
X755159Y694901D01*
X755126Y695009D01*
X755096Y695119D01*
X755071Y695229D01*
X755049Y695340D01*
X755032Y695452D01*
X755018Y695565D01*
X755008Y695678D01*
X755002Y695791D01*
X755000Y695904D01*
X755001Y695904D02*
X755001Y704342D01*
X749131Y699149D02*
X745885Y699149D01*
X745885Y699150D02*
X745772Y699148D01*
X745659Y699142D01*
X745546Y699132D01*
X745433Y699118D01*
X745321Y699101D01*
X745210Y699079D01*
X745100Y699054D01*
X744990Y699024D01*
X744882Y698991D01*
X744775Y698954D01*
X744669Y698914D01*
X744565Y698869D01*
X744462Y698821D01*
X744361Y698770D01*
X744262Y698715D01*
X744165Y698657D01*
X744070Y698595D01*
X743977Y698530D01*
X743887Y698462D01*
X743799Y698391D01*
X743713Y698316D01*
X743630Y698239D01*
X743550Y698159D01*
X743473Y698076D01*
X743398Y697990D01*
X743327Y697902D01*
X743259Y697812D01*
X743194Y697719D01*
X743132Y697624D01*
X743074Y697527D01*
X743019Y697428D01*
X742968Y697327D01*
X742920Y697224D01*
X742875Y697120D01*
X742835Y697014D01*
X742798Y696907D01*
X742765Y696799D01*
X742735Y696689D01*
X742710Y696579D01*
X742688Y696468D01*
X742671Y696356D01*
X742657Y696243D01*
X742647Y696130D01*
X742641Y696017D01*
X742639Y695904D01*
X742641Y695791D01*
X742647Y695678D01*
X742657Y695565D01*
X742671Y695452D01*
X742688Y695340D01*
X742710Y695229D01*
X742735Y695119D01*
X742765Y695009D01*
X742798Y694901D01*
X742835Y694794D01*
X742875Y694688D01*
X742920Y694584D01*
X742968Y694481D01*
X743019Y694380D01*
X743074Y694281D01*
X743132Y694184D01*
X743194Y694089D01*
X743259Y693996D01*
X743327Y693906D01*
X743398Y693818D01*
X743473Y693732D01*
X743550Y693649D01*
X743630Y693569D01*
X743713Y693492D01*
X743799Y693417D01*
X743887Y693346D01*
X743977Y693278D01*
X744070Y693213D01*
X744165Y693151D01*
X744262Y693093D01*
X744361Y693038D01*
X744462Y692987D01*
X744565Y692939D01*
X744669Y692894D01*
X744775Y692854D01*
X744882Y692817D01*
X744990Y692784D01*
X745100Y692754D01*
X745210Y692729D01*
X745321Y692707D01*
X745433Y692690D01*
X745546Y692676D01*
X745659Y692666D01*
X745772Y692660D01*
X745885Y692658D01*
X749131Y692658D01*
X749131Y704342D01*
X745885Y704342D01*
X745784Y704340D01*
X745684Y704334D01*
X745584Y704324D01*
X745484Y704311D01*
X745385Y704293D01*
X745286Y704272D01*
X745189Y704247D01*
X745092Y704218D01*
X744997Y704185D01*
X744903Y704149D01*
X744811Y704109D01*
X744720Y704066D01*
X744631Y704019D01*
X744544Y703969D01*
X744458Y703915D01*
X744375Y703858D01*
X744295Y703798D01*
X744216Y703735D01*
X744140Y703668D01*
X744067Y703599D01*
X743997Y703527D01*
X743929Y703453D01*
X743864Y703376D01*
X743803Y703296D01*
X743744Y703214D01*
X743689Y703130D01*
X743637Y703044D01*
X743588Y702956D01*
X743543Y702866D01*
X743501Y702774D01*
X743463Y702681D01*
X743429Y702586D01*
X743398Y702491D01*
X743371Y702394D01*
X743348Y702296D01*
X743328Y702197D01*
X743313Y702097D01*
X743301Y701997D01*
X743293Y701897D01*
X743289Y701796D01*
X743289Y701696D01*
X743293Y701595D01*
X743301Y701495D01*
X743313Y701395D01*
X743328Y701295D01*
X743348Y701196D01*
X743371Y701098D01*
X743398Y701001D01*
X743429Y700906D01*
X743463Y700811D01*
X743501Y700718D01*
X743543Y700626D01*
X743588Y700536D01*
X743637Y700448D01*
X743689Y700362D01*
X743744Y700278D01*
X743803Y700196D01*
X743864Y700116D01*
X743929Y700039D01*
X743997Y699965D01*
X744067Y699893D01*
X744140Y699824D01*
X744216Y699757D01*
X744295Y699694D01*
X744375Y699634D01*
X744458Y699577D01*
X744544Y699523D01*
X744631Y699473D01*
X744720Y699426D01*
X744811Y699383D01*
X744903Y699343D01*
X744997Y699307D01*
X745092Y699274D01*
X745189Y699245D01*
X745286Y699220D01*
X745385Y699199D01*
X745484Y699181D01*
X745584Y699168D01*
X745684Y699158D01*
X745784Y699152D01*
X745885Y699150D01*
X737847Y692658D02*
X732655Y692658D01*
X737847Y692658D02*
X737847Y704342D01*
X732655Y704342D01*
X733953Y699149D02*
X737847Y699149D01*
X727890Y704342D02*
X727890Y692658D01*
X727890Y704342D02*
X724645Y704342D01*
X724532Y704340D01*
X724419Y704334D01*
X724306Y704324D01*
X724193Y704310D01*
X724081Y704293D01*
X723970Y704271D01*
X723860Y704246D01*
X723750Y704216D01*
X723642Y704183D01*
X723535Y704146D01*
X723429Y704106D01*
X723325Y704061D01*
X723222Y704013D01*
X723121Y703962D01*
X723022Y703907D01*
X722925Y703849D01*
X722830Y703787D01*
X722737Y703722D01*
X722647Y703654D01*
X722559Y703583D01*
X722473Y703508D01*
X722390Y703431D01*
X722310Y703351D01*
X722233Y703268D01*
X722158Y703182D01*
X722087Y703094D01*
X722019Y703004D01*
X721954Y702911D01*
X721892Y702816D01*
X721834Y702719D01*
X721779Y702620D01*
X721728Y702519D01*
X721680Y702416D01*
X721635Y702312D01*
X721595Y702206D01*
X721558Y702099D01*
X721525Y701991D01*
X721495Y701881D01*
X721470Y701771D01*
X721448Y701660D01*
X721431Y701548D01*
X721417Y701435D01*
X721407Y701322D01*
X721401Y701209D01*
X721399Y701096D01*
X721401Y700983D01*
X721407Y700870D01*
X721417Y700757D01*
X721431Y700644D01*
X721448Y700532D01*
X721470Y700421D01*
X721495Y700311D01*
X721525Y700201D01*
X721558Y700093D01*
X721595Y699986D01*
X721635Y699880D01*
X721680Y699776D01*
X721728Y699673D01*
X721779Y699572D01*
X721834Y699473D01*
X721892Y699376D01*
X721954Y699281D01*
X722019Y699188D01*
X722087Y699098D01*
X722158Y699010D01*
X722233Y698924D01*
X722310Y698841D01*
X722390Y698761D01*
X722473Y698684D01*
X722559Y698609D01*
X722647Y698538D01*
X722737Y698470D01*
X722830Y698405D01*
X722925Y698343D01*
X723022Y698285D01*
X723121Y698230D01*
X723222Y698179D01*
X723325Y698131D01*
X723429Y698086D01*
X723535Y698046D01*
X723642Y698009D01*
X723750Y697976D01*
X723860Y697946D01*
X723970Y697921D01*
X724081Y697899D01*
X724193Y697882D01*
X724306Y697868D01*
X724419Y697858D01*
X724532Y697852D01*
X724645Y697850D01*
X724645Y697851D02*
X727890Y697851D01*
X723996Y697851D02*
X721399Y692658D01*
D12*
X53025Y737713D02*
X53025Y752713D01*
X68025Y752713D01*
X53025Y672713D02*
X53025Y657713D01*
X68025Y657713D01*
X133025Y657713D02*
X148025Y657713D01*
X148025Y672713D01*
X148025Y737713D02*
X148025Y752713D01*
X133025Y752713D01*
X68025Y752713D02*
X53025Y737713D01*
D11*
X165425Y771113D02*
X165425Y775113D01*
X158425Y775113D02*
X158425Y771113D01*
D13*
X164800Y771863D03*
D11*
X82875Y774288D02*
X82875Y778288D01*
X75875Y778288D02*
X75875Y774288D01*
D13*
X82250Y775038D03*
D12*
X224475Y752713D02*
X224475Y737713D01*
X224475Y752713D02*
X239475Y752713D01*
X224475Y672713D02*
X224475Y657713D01*
X239475Y657713D01*
X304475Y657713D02*
X319475Y657713D01*
X319475Y672713D01*
X319475Y737713D02*
X319475Y752713D01*
X304475Y752713D01*
X239475Y752713D02*
X224475Y737713D01*
D11*
X317825Y774288D02*
X317825Y778288D01*
X310825Y778288D02*
X310825Y774288D01*
D13*
X317200Y775038D03*
D11*
X308300Y774288D02*
X308300Y778288D01*
X301300Y778288D02*
X301300Y774288D01*
D13*
X307675Y775038D03*
D12*
X115000Y887775D02*
X115000Y902025D01*
X145400Y902025D01*
X145400Y887775D01*
X115000Y887775D01*
X115000Y902025D02*
X115000Y903925D01*
X115000Y902025D02*
X113100Y902025D01*
X283275Y900438D02*
X283275Y886188D01*
X283275Y900438D02*
X313675Y900438D01*
X313675Y886188D01*
X283275Y886188D01*
X283275Y900438D02*
X283275Y902338D01*
X283275Y900438D02*
X281375Y900438D01*
X395925Y752713D02*
X395925Y737713D01*
X395925Y752713D02*
X410925Y752713D01*
X395925Y672713D02*
X395925Y657713D01*
X410925Y657713D01*
X475925Y657713D02*
X490925Y657713D01*
X490925Y672713D01*
X490925Y737713D02*
X490925Y752713D01*
X475925Y752713D01*
X410925Y752713D02*
X395925Y737713D01*
D11*
X489275Y774288D02*
X489275Y778288D01*
X482275Y778288D02*
X482275Y774288D01*
D13*
X488650Y775038D03*
D11*
X479750Y774288D02*
X479750Y778288D01*
X472750Y778288D02*
X472750Y774288D01*
D13*
X479125Y775038D03*
D12*
X454725Y887775D02*
X454725Y902025D01*
X485125Y902025D01*
X485125Y887775D01*
X454725Y887775D01*
X454725Y902025D02*
X454725Y903925D01*
X454725Y902025D02*
X452825Y902025D01*
X535750Y449675D02*
X535750Y420675D01*
X555750Y420675D02*
X555750Y449675D01*
D14*
X516600Y421550D02*
X434100Y421550D01*
X531100Y436050D02*
X531100Y449050D01*
X531100Y478050D02*
X531100Y491050D01*
X516600Y505550D02*
X434100Y505550D01*
X434100Y478050D01*
X434100Y449050D02*
X434100Y421550D01*
X516600Y421550D02*
X531100Y436050D01*
X531100Y491050D02*
X516600Y505550D01*
X519100Y449550D02*
X518749Y448666D01*
X518376Y447791D01*
X517982Y446925D01*
X517567Y446069D01*
X517131Y445223D01*
X516675Y444389D01*
X516199Y443565D01*
X515702Y442754D01*
X515187Y441954D01*
X514652Y441168D01*
X514097Y440395D01*
X513525Y439635D01*
X512934Y438890D01*
X512325Y438159D01*
X511698Y437443D01*
X511054Y436743D01*
X510393Y436058D01*
X509716Y435390D01*
X509023Y434739D01*
X508314Y434105D01*
X507590Y433488D01*
X506851Y432888D01*
X506098Y432307D01*
X505331Y431745D01*
X504550Y431201D01*
X503757Y430677D01*
X502951Y430172D01*
X502132Y429686D01*
X501303Y429221D01*
X500462Y428776D01*
X499611Y428352D01*
X498749Y427948D01*
X497878Y427566D01*
X496998Y427205D01*
X496109Y426865D01*
X495213Y426548D01*
X494309Y426252D01*
X493398Y425978D01*
X492480Y425726D01*
X491557Y425497D01*
X490628Y425290D01*
X489695Y425106D01*
X488758Y424945D01*
X487817Y424807D01*
X486872Y424691D01*
X485926Y424599D01*
X484977Y424529D01*
X484027Y424483D01*
X483076Y424460D01*
X482124Y424460D01*
X481173Y424483D01*
X480223Y424529D01*
X479274Y424599D01*
X478328Y424691D01*
X477383Y424807D01*
X476442Y424945D01*
X475505Y425106D01*
X474572Y425290D01*
X473643Y425497D01*
X472720Y425726D01*
X471802Y425978D01*
X470891Y426252D01*
X469987Y426548D01*
X469091Y426865D01*
X468202Y427205D01*
X467322Y427566D01*
X466451Y427948D01*
X465589Y428352D01*
X464738Y428776D01*
X463897Y429221D01*
X463068Y429686D01*
X462249Y430172D01*
X461443Y430677D01*
X460650Y431201D01*
X459869Y431745D01*
X459102Y432307D01*
X458349Y432888D01*
X457610Y433488D01*
X456886Y434105D01*
X456177Y434739D01*
X455484Y435390D01*
X454807Y436058D01*
X454146Y436743D01*
X453502Y437443D01*
X452875Y438159D01*
X452266Y438890D01*
X451675Y439635D01*
X451103Y440395D01*
X450548Y441168D01*
X450013Y441954D01*
X449498Y442754D01*
X449001Y443565D01*
X448525Y444389D01*
X448069Y445223D01*
X447633Y446069D01*
X447218Y446925D01*
X446824Y447791D01*
X446451Y448666D01*
X446100Y449550D01*
X446100Y477550D02*
X446451Y478434D01*
X446824Y479309D01*
X447218Y480175D01*
X447633Y481031D01*
X448069Y481877D01*
X448525Y482711D01*
X449001Y483535D01*
X449498Y484346D01*
X450013Y485146D01*
X450548Y485932D01*
X451103Y486705D01*
X451675Y487465D01*
X452266Y488210D01*
X452875Y488941D01*
X453502Y489657D01*
X454146Y490357D01*
X454807Y491042D01*
X455484Y491710D01*
X456177Y492361D01*
X456886Y492995D01*
X457610Y493612D01*
X458349Y494212D01*
X459102Y494793D01*
X459869Y495355D01*
X460650Y495899D01*
X461443Y496423D01*
X462249Y496928D01*
X463068Y497414D01*
X463897Y497879D01*
X464738Y498324D01*
X465589Y498748D01*
X466451Y499152D01*
X467322Y499534D01*
X468202Y499895D01*
X469091Y500235D01*
X469987Y500552D01*
X470891Y500848D01*
X471802Y501122D01*
X472720Y501374D01*
X473643Y501603D01*
X474572Y501810D01*
X475505Y501994D01*
X476442Y502155D01*
X477383Y502293D01*
X478328Y502409D01*
X479274Y502501D01*
X480223Y502571D01*
X481173Y502617D01*
X482124Y502640D01*
X483076Y502640D01*
X484027Y502617D01*
X484977Y502571D01*
X485926Y502501D01*
X486872Y502409D01*
X487817Y502293D01*
X488758Y502155D01*
X489695Y501994D01*
X490628Y501810D01*
X491557Y501603D01*
X492480Y501374D01*
X493398Y501122D01*
X494309Y500848D01*
X495213Y500552D01*
X496109Y500235D01*
X496998Y499895D01*
X497878Y499534D01*
X498749Y499152D01*
X499611Y498748D01*
X500462Y498324D01*
X501303Y497879D01*
X502132Y497414D01*
X502951Y496928D01*
X503757Y496423D01*
X504550Y495899D01*
X505331Y495355D01*
X506098Y494793D01*
X506851Y494212D01*
X507590Y493612D01*
X508314Y492995D01*
X509023Y492361D01*
X509716Y491710D01*
X510393Y491042D01*
X511054Y490357D01*
X511698Y489657D01*
X512325Y488941D01*
X512934Y488210D01*
X513525Y487465D01*
X514097Y486705D01*
X514652Y485932D01*
X515187Y485146D01*
X515702Y484346D01*
X516199Y483535D01*
X516675Y482711D01*
X517131Y481877D01*
X517567Y481031D01*
X517982Y480175D01*
X518376Y479309D01*
X518749Y478434D01*
X519100Y477550D01*
X516600Y510450D02*
X434100Y510450D01*
X531100Y524950D02*
X531100Y537950D01*
X531100Y566950D02*
X531100Y579950D01*
X516600Y594450D02*
X434100Y594450D01*
X434100Y566950D01*
X434100Y537950D02*
X434100Y510450D01*
X516600Y510450D02*
X531100Y524950D01*
X531100Y579950D02*
X516600Y594450D01*
X519100Y538450D02*
X518749Y537566D01*
X518376Y536691D01*
X517982Y535825D01*
X517567Y534969D01*
X517131Y534123D01*
X516675Y533289D01*
X516199Y532465D01*
X515702Y531654D01*
X515187Y530854D01*
X514652Y530068D01*
X514097Y529295D01*
X513525Y528535D01*
X512934Y527790D01*
X512325Y527059D01*
X511698Y526343D01*
X511054Y525643D01*
X510393Y524958D01*
X509716Y524290D01*
X509023Y523639D01*
X508314Y523005D01*
X507590Y522388D01*
X506851Y521788D01*
X506098Y521207D01*
X505331Y520645D01*
X504550Y520101D01*
X503757Y519577D01*
X502951Y519072D01*
X502132Y518586D01*
X501303Y518121D01*
X500462Y517676D01*
X499611Y517252D01*
X498749Y516848D01*
X497878Y516466D01*
X496998Y516105D01*
X496109Y515765D01*
X495213Y515448D01*
X494309Y515152D01*
X493398Y514878D01*
X492480Y514626D01*
X491557Y514397D01*
X490628Y514190D01*
X489695Y514006D01*
X488758Y513845D01*
X487817Y513707D01*
X486872Y513591D01*
X485926Y513499D01*
X484977Y513429D01*
X484027Y513383D01*
X483076Y513360D01*
X482124Y513360D01*
X481173Y513383D01*
X480223Y513429D01*
X479274Y513499D01*
X478328Y513591D01*
X477383Y513707D01*
X476442Y513845D01*
X475505Y514006D01*
X474572Y514190D01*
X473643Y514397D01*
X472720Y514626D01*
X471802Y514878D01*
X470891Y515152D01*
X469987Y515448D01*
X469091Y515765D01*
X468202Y516105D01*
X467322Y516466D01*
X466451Y516848D01*
X465589Y517252D01*
X464738Y517676D01*
X463897Y518121D01*
X463068Y518586D01*
X462249Y519072D01*
X461443Y519577D01*
X460650Y520101D01*
X459869Y520645D01*
X459102Y521207D01*
X458349Y521788D01*
X457610Y522388D01*
X456886Y523005D01*
X456177Y523639D01*
X455484Y524290D01*
X454807Y524958D01*
X454146Y525643D01*
X453502Y526343D01*
X452875Y527059D01*
X452266Y527790D01*
X451675Y528535D01*
X451103Y529295D01*
X450548Y530068D01*
X450013Y530854D01*
X449498Y531654D01*
X449001Y532465D01*
X448525Y533289D01*
X448069Y534123D01*
X447633Y534969D01*
X447218Y535825D01*
X446824Y536691D01*
X446451Y537566D01*
X446100Y538450D01*
X446100Y566450D02*
X446451Y567334D01*
X446824Y568209D01*
X447218Y569075D01*
X447633Y569931D01*
X448069Y570777D01*
X448525Y571611D01*
X449001Y572435D01*
X449498Y573246D01*
X450013Y574046D01*
X450548Y574832D01*
X451103Y575605D01*
X451675Y576365D01*
X452266Y577110D01*
X452875Y577841D01*
X453502Y578557D01*
X454146Y579257D01*
X454807Y579942D01*
X455484Y580610D01*
X456177Y581261D01*
X456886Y581895D01*
X457610Y582512D01*
X458349Y583112D01*
X459102Y583693D01*
X459869Y584255D01*
X460650Y584799D01*
X461443Y585323D01*
X462249Y585828D01*
X463068Y586314D01*
X463897Y586779D01*
X464738Y587224D01*
X465589Y587648D01*
X466451Y588052D01*
X467322Y588434D01*
X468202Y588795D01*
X469091Y589135D01*
X469987Y589452D01*
X470891Y589748D01*
X471802Y590022D01*
X472720Y590274D01*
X473643Y590503D01*
X474572Y590710D01*
X475505Y590894D01*
X476442Y591055D01*
X477383Y591193D01*
X478328Y591309D01*
X479274Y591401D01*
X480223Y591471D01*
X481173Y591517D01*
X482124Y591540D01*
X483076Y591540D01*
X484027Y591517D01*
X484977Y591471D01*
X485926Y591401D01*
X486872Y591309D01*
X487817Y591193D01*
X488758Y591055D01*
X489695Y590894D01*
X490628Y590710D01*
X491557Y590503D01*
X492480Y590274D01*
X493398Y590022D01*
X494309Y589748D01*
X495213Y589452D01*
X496109Y589135D01*
X496998Y588795D01*
X497878Y588434D01*
X498749Y588052D01*
X499611Y587648D01*
X500462Y587224D01*
X501303Y586779D01*
X502132Y586314D01*
X502951Y585828D01*
X503757Y585323D01*
X504550Y584799D01*
X505331Y584255D01*
X506098Y583693D01*
X506851Y583112D01*
X507590Y582512D01*
X508314Y581895D01*
X509023Y581261D01*
X509716Y580610D01*
X510393Y579942D01*
X511054Y579257D01*
X511698Y578557D01*
X512325Y577841D01*
X512934Y577110D01*
X513525Y576365D01*
X514097Y575605D01*
X514652Y574832D01*
X515187Y574046D01*
X515702Y573246D01*
X516199Y572435D01*
X516675Y571611D01*
X517131Y570777D01*
X517567Y569931D01*
X517982Y569075D01*
X518376Y568209D01*
X518749Y567334D01*
X519100Y566450D01*
X415000Y510450D02*
X332500Y510450D01*
X429500Y524950D02*
X429500Y537950D01*
X429500Y566950D02*
X429500Y579950D01*
X415000Y594450D02*
X332500Y594450D01*
X332500Y566950D01*
X332500Y537950D02*
X332500Y510450D01*
X415000Y510450D02*
X429500Y524950D01*
X429500Y579950D02*
X415000Y594450D01*
X417500Y538450D02*
X417149Y537566D01*
X416776Y536691D01*
X416382Y535825D01*
X415967Y534969D01*
X415531Y534123D01*
X415075Y533289D01*
X414599Y532465D01*
X414102Y531654D01*
X413587Y530854D01*
X413052Y530068D01*
X412497Y529295D01*
X411925Y528535D01*
X411334Y527790D01*
X410725Y527059D01*
X410098Y526343D01*
X409454Y525643D01*
X408793Y524958D01*
X408116Y524290D01*
X407423Y523639D01*
X406714Y523005D01*
X405990Y522388D01*
X405251Y521788D01*
X404498Y521207D01*
X403731Y520645D01*
X402950Y520101D01*
X402157Y519577D01*
X401351Y519072D01*
X400532Y518586D01*
X399703Y518121D01*
X398862Y517676D01*
X398011Y517252D01*
X397149Y516848D01*
X396278Y516466D01*
X395398Y516105D01*
X394509Y515765D01*
X393613Y515448D01*
X392709Y515152D01*
X391798Y514878D01*
X390880Y514626D01*
X389957Y514397D01*
X389028Y514190D01*
X388095Y514006D01*
X387158Y513845D01*
X386217Y513707D01*
X385272Y513591D01*
X384326Y513499D01*
X383377Y513429D01*
X382427Y513383D01*
X381476Y513360D01*
X380524Y513360D01*
X379573Y513383D01*
X378623Y513429D01*
X377674Y513499D01*
X376728Y513591D01*
X375783Y513707D01*
X374842Y513845D01*
X373905Y514006D01*
X372972Y514190D01*
X372043Y514397D01*
X371120Y514626D01*
X370202Y514878D01*
X369291Y515152D01*
X368387Y515448D01*
X367491Y515765D01*
X366602Y516105D01*
X365722Y516466D01*
X364851Y516848D01*
X363989Y517252D01*
X363138Y517676D01*
X362297Y518121D01*
X361468Y518586D01*
X360649Y519072D01*
X359843Y519577D01*
X359050Y520101D01*
X358269Y520645D01*
X357502Y521207D01*
X356749Y521788D01*
X356010Y522388D01*
X355286Y523005D01*
X354577Y523639D01*
X353884Y524290D01*
X353207Y524958D01*
X352546Y525643D01*
X351902Y526343D01*
X351275Y527059D01*
X350666Y527790D01*
X350075Y528535D01*
X349503Y529295D01*
X348948Y530068D01*
X348413Y530854D01*
X347898Y531654D01*
X347401Y532465D01*
X346925Y533289D01*
X346469Y534123D01*
X346033Y534969D01*
X345618Y535825D01*
X345224Y536691D01*
X344851Y537566D01*
X344500Y538450D01*
X344500Y566450D02*
X344851Y567334D01*
X345224Y568209D01*
X345618Y569075D01*
X346033Y569931D01*
X346469Y570777D01*
X346925Y571611D01*
X347401Y572435D01*
X347898Y573246D01*
X348413Y574046D01*
X348948Y574832D01*
X349503Y575605D01*
X350075Y576365D01*
X350666Y577110D01*
X351275Y577841D01*
X351902Y578557D01*
X352546Y579257D01*
X353207Y579942D01*
X353884Y580610D01*
X354577Y581261D01*
X355286Y581895D01*
X356010Y582512D01*
X356749Y583112D01*
X357502Y583693D01*
X358269Y584255D01*
X359050Y584799D01*
X359843Y585323D01*
X360649Y585828D01*
X361468Y586314D01*
X362297Y586779D01*
X363138Y587224D01*
X363989Y587648D01*
X364851Y588052D01*
X365722Y588434D01*
X366602Y588795D01*
X367491Y589135D01*
X368387Y589452D01*
X369291Y589748D01*
X370202Y590022D01*
X371120Y590274D01*
X372043Y590503D01*
X372972Y590710D01*
X373905Y590894D01*
X374842Y591055D01*
X375783Y591193D01*
X376728Y591309D01*
X377674Y591401D01*
X378623Y591471D01*
X379573Y591517D01*
X380524Y591540D01*
X381476Y591540D01*
X382427Y591517D01*
X383377Y591471D01*
X384326Y591401D01*
X385272Y591309D01*
X386217Y591193D01*
X387158Y591055D01*
X388095Y590894D01*
X389028Y590710D01*
X389957Y590503D01*
X390880Y590274D01*
X391798Y590022D01*
X392709Y589748D01*
X393613Y589452D01*
X394509Y589135D01*
X395398Y588795D01*
X396278Y588434D01*
X397149Y588052D01*
X398011Y587648D01*
X398862Y587224D01*
X399703Y586779D01*
X400532Y586314D01*
X401351Y585828D01*
X402157Y585323D01*
X402950Y584799D01*
X403731Y584255D01*
X404498Y583693D01*
X405251Y583112D01*
X405990Y582512D01*
X406714Y581895D01*
X407423Y581261D01*
X408116Y580610D01*
X408793Y579942D01*
X409454Y579257D01*
X410098Y578557D01*
X410725Y577841D01*
X411334Y577110D01*
X411925Y576365D01*
X412497Y575605D01*
X413052Y574832D01*
X413587Y574046D01*
X414102Y573246D01*
X414599Y572435D01*
X415075Y571611D01*
X415531Y570777D01*
X415967Y569931D01*
X416382Y569075D01*
X416776Y568209D01*
X417149Y567334D01*
X417500Y566450D01*
X415000Y421550D02*
X332500Y421550D01*
X429500Y436050D02*
X429500Y449050D01*
X429500Y478050D02*
X429500Y491050D01*
X415000Y505550D02*
X332500Y505550D01*
X332500Y478050D01*
X332500Y449050D02*
X332500Y421550D01*
X415000Y421550D02*
X429500Y436050D01*
X429500Y491050D02*
X415000Y505550D01*
X417500Y449550D02*
X417149Y448666D01*
X416776Y447791D01*
X416382Y446925D01*
X415967Y446069D01*
X415531Y445223D01*
X415075Y444389D01*
X414599Y443565D01*
X414102Y442754D01*
X413587Y441954D01*
X413052Y441168D01*
X412497Y440395D01*
X411925Y439635D01*
X411334Y438890D01*
X410725Y438159D01*
X410098Y437443D01*
X409454Y436743D01*
X408793Y436058D01*
X408116Y435390D01*
X407423Y434739D01*
X406714Y434105D01*
X405990Y433488D01*
X405251Y432888D01*
X404498Y432307D01*
X403731Y431745D01*
X402950Y431201D01*
X402157Y430677D01*
X401351Y430172D01*
X400532Y429686D01*
X399703Y429221D01*
X398862Y428776D01*
X398011Y428352D01*
X397149Y427948D01*
X396278Y427566D01*
X395398Y427205D01*
X394509Y426865D01*
X393613Y426548D01*
X392709Y426252D01*
X391798Y425978D01*
X390880Y425726D01*
X389957Y425497D01*
X389028Y425290D01*
X388095Y425106D01*
X387158Y424945D01*
X386217Y424807D01*
X385272Y424691D01*
X384326Y424599D01*
X383377Y424529D01*
X382427Y424483D01*
X381476Y424460D01*
X380524Y424460D01*
X379573Y424483D01*
X378623Y424529D01*
X377674Y424599D01*
X376728Y424691D01*
X375783Y424807D01*
X374842Y424945D01*
X373905Y425106D01*
X372972Y425290D01*
X372043Y425497D01*
X371120Y425726D01*
X370202Y425978D01*
X369291Y426252D01*
X368387Y426548D01*
X367491Y426865D01*
X366602Y427205D01*
X365722Y427566D01*
X364851Y427948D01*
X363989Y428352D01*
X363138Y428776D01*
X362297Y429221D01*
X361468Y429686D01*
X360649Y430172D01*
X359843Y430677D01*
X359050Y431201D01*
X358269Y431745D01*
X357502Y432307D01*
X356749Y432888D01*
X356010Y433488D01*
X355286Y434105D01*
X354577Y434739D01*
X353884Y435390D01*
X353207Y436058D01*
X352546Y436743D01*
X351902Y437443D01*
X351275Y438159D01*
X350666Y438890D01*
X350075Y439635D01*
X349503Y440395D01*
X348948Y441168D01*
X348413Y441954D01*
X347898Y442754D01*
X347401Y443565D01*
X346925Y444389D01*
X346469Y445223D01*
X346033Y446069D01*
X345618Y446925D01*
X345224Y447791D01*
X344851Y448666D01*
X344500Y449550D01*
X344500Y477550D02*
X344851Y478434D01*
X345224Y479309D01*
X345618Y480175D01*
X346033Y481031D01*
X346469Y481877D01*
X346925Y482711D01*
X347401Y483535D01*
X347898Y484346D01*
X348413Y485146D01*
X348948Y485932D01*
X349503Y486705D01*
X350075Y487465D01*
X350666Y488210D01*
X351275Y488941D01*
X351902Y489657D01*
X352546Y490357D01*
X353207Y491042D01*
X353884Y491710D01*
X354577Y492361D01*
X355286Y492995D01*
X356010Y493612D01*
X356749Y494212D01*
X357502Y494793D01*
X358269Y495355D01*
X359050Y495899D01*
X359843Y496423D01*
X360649Y496928D01*
X361468Y497414D01*
X362297Y497879D01*
X363138Y498324D01*
X363989Y498748D01*
X364851Y499152D01*
X365722Y499534D01*
X366602Y499895D01*
X367491Y500235D01*
X368387Y500552D01*
X369291Y500848D01*
X370202Y501122D01*
X371120Y501374D01*
X372043Y501603D01*
X372972Y501810D01*
X373905Y501994D01*
X374842Y502155D01*
X375783Y502293D01*
X376728Y502409D01*
X377674Y502501D01*
X378623Y502571D01*
X379573Y502617D01*
X380524Y502640D01*
X381476Y502640D01*
X382427Y502617D01*
X383377Y502571D01*
X384326Y502501D01*
X385272Y502409D01*
X386217Y502293D01*
X387158Y502155D01*
X388095Y501994D01*
X389028Y501810D01*
X389957Y501603D01*
X390880Y501374D01*
X391798Y501122D01*
X392709Y500848D01*
X393613Y500552D01*
X394509Y500235D01*
X395398Y499895D01*
X396278Y499534D01*
X397149Y499152D01*
X398011Y498748D01*
X398862Y498324D01*
X399703Y497879D01*
X400532Y497414D01*
X401351Y496928D01*
X402157Y496423D01*
X402950Y495899D01*
X403731Y495355D01*
X404498Y494793D01*
X405251Y494212D01*
X405990Y493612D01*
X406714Y492995D01*
X407423Y492361D01*
X408116Y491710D01*
X408793Y491042D01*
X409454Y490357D01*
X410098Y489657D01*
X410725Y488941D01*
X411334Y488210D01*
X411925Y487465D01*
X412497Y486705D01*
X413052Y485932D01*
X413587Y485146D01*
X414102Y484346D01*
X414599Y483535D01*
X415075Y482711D01*
X415531Y481877D01*
X415967Y481031D01*
X416382Y480175D01*
X416776Y479309D01*
X417149Y478434D01*
X417500Y477550D01*
X313400Y421550D02*
X230900Y421550D01*
X327900Y436050D02*
X327900Y449050D01*
X327900Y478050D02*
X327900Y491050D01*
X313400Y505550D02*
X230900Y505550D01*
X230900Y478050D01*
X230900Y449050D02*
X230900Y421550D01*
X313400Y421550D02*
X327900Y436050D01*
X327900Y491050D02*
X313400Y505550D01*
X315900Y449550D02*
X315549Y448666D01*
X315176Y447791D01*
X314782Y446925D01*
X314367Y446069D01*
X313931Y445223D01*
X313475Y444389D01*
X312999Y443565D01*
X312502Y442754D01*
X311987Y441954D01*
X311452Y441168D01*
X310897Y440395D01*
X310325Y439635D01*
X309734Y438890D01*
X309125Y438159D01*
X308498Y437443D01*
X307854Y436743D01*
X307193Y436058D01*
X306516Y435390D01*
X305823Y434739D01*
X305114Y434105D01*
X304390Y433488D01*
X303651Y432888D01*
X302898Y432307D01*
X302131Y431745D01*
X301350Y431201D01*
X300557Y430677D01*
X299751Y430172D01*
X298932Y429686D01*
X298103Y429221D01*
X297262Y428776D01*
X296411Y428352D01*
X295549Y427948D01*
X294678Y427566D01*
X293798Y427205D01*
X292909Y426865D01*
X292013Y426548D01*
X291109Y426252D01*
X290198Y425978D01*
X289280Y425726D01*
X288357Y425497D01*
X287428Y425290D01*
X286495Y425106D01*
X285558Y424945D01*
X284617Y424807D01*
X283672Y424691D01*
X282726Y424599D01*
X281777Y424529D01*
X280827Y424483D01*
X279876Y424460D01*
X278924Y424460D01*
X277973Y424483D01*
X277023Y424529D01*
X276074Y424599D01*
X275128Y424691D01*
X274183Y424807D01*
X273242Y424945D01*
X272305Y425106D01*
X271372Y425290D01*
X270443Y425497D01*
X269520Y425726D01*
X268602Y425978D01*
X267691Y426252D01*
X266787Y426548D01*
X265891Y426865D01*
X265002Y427205D01*
X264122Y427566D01*
X263251Y427948D01*
X262389Y428352D01*
X261538Y428776D01*
X260697Y429221D01*
X259868Y429686D01*
X259049Y430172D01*
X258243Y430677D01*
X257450Y431201D01*
X256669Y431745D01*
X255902Y432307D01*
X255149Y432888D01*
X254410Y433488D01*
X253686Y434105D01*
X252977Y434739D01*
X252284Y435390D01*
X251607Y436058D01*
X250946Y436743D01*
X250302Y437443D01*
X249675Y438159D01*
X249066Y438890D01*
X248475Y439635D01*
X247903Y440395D01*
X247348Y441168D01*
X246813Y441954D01*
X246298Y442754D01*
X245801Y443565D01*
X245325Y444389D01*
X244869Y445223D01*
X244433Y446069D01*
X244018Y446925D01*
X243624Y447791D01*
X243251Y448666D01*
X242900Y449550D01*
X242900Y477550D02*
X243251Y478434D01*
X243624Y479309D01*
X244018Y480175D01*
X244433Y481031D01*
X244869Y481877D01*
X245325Y482711D01*
X245801Y483535D01*
X246298Y484346D01*
X246813Y485146D01*
X247348Y485932D01*
X247903Y486705D01*
X248475Y487465D01*
X249066Y488210D01*
X249675Y488941D01*
X250302Y489657D01*
X250946Y490357D01*
X251607Y491042D01*
X252284Y491710D01*
X252977Y492361D01*
X253686Y492995D01*
X254410Y493612D01*
X255149Y494212D01*
X255902Y494793D01*
X256669Y495355D01*
X257450Y495899D01*
X258243Y496423D01*
X259049Y496928D01*
X259868Y497414D01*
X260697Y497879D01*
X261538Y498324D01*
X262389Y498748D01*
X263251Y499152D01*
X264122Y499534D01*
X265002Y499895D01*
X265891Y500235D01*
X266787Y500552D01*
X267691Y500848D01*
X268602Y501122D01*
X269520Y501374D01*
X270443Y501603D01*
X271372Y501810D01*
X272305Y501994D01*
X273242Y502155D01*
X274183Y502293D01*
X275128Y502409D01*
X276074Y502501D01*
X277023Y502571D01*
X277973Y502617D01*
X278924Y502640D01*
X279876Y502640D01*
X280827Y502617D01*
X281777Y502571D01*
X282726Y502501D01*
X283672Y502409D01*
X284617Y502293D01*
X285558Y502155D01*
X286495Y501994D01*
X287428Y501810D01*
X288357Y501603D01*
X289280Y501374D01*
X290198Y501122D01*
X291109Y500848D01*
X292013Y500552D01*
X292909Y500235D01*
X293798Y499895D01*
X294678Y499534D01*
X295549Y499152D01*
X296411Y498748D01*
X297262Y498324D01*
X298103Y497879D01*
X298932Y497414D01*
X299751Y496928D01*
X300557Y496423D01*
X301350Y495899D01*
X302131Y495355D01*
X302898Y494793D01*
X303651Y494212D01*
X304390Y493612D01*
X305114Y492995D01*
X305823Y492361D01*
X306516Y491710D01*
X307193Y491042D01*
X307854Y490357D01*
X308498Y489657D01*
X309125Y488941D01*
X309734Y488210D01*
X310325Y487465D01*
X310897Y486705D01*
X311452Y485932D01*
X311987Y485146D01*
X312502Y484346D01*
X312999Y483535D01*
X313475Y482711D01*
X313931Y481877D01*
X314367Y481031D01*
X314782Y480175D01*
X315176Y479309D01*
X315549Y478434D01*
X315900Y477550D01*
X211800Y421550D02*
X129300Y421550D01*
X226300Y436050D02*
X226300Y449050D01*
X226300Y478050D02*
X226300Y491050D01*
X211800Y505550D02*
X129300Y505550D01*
X129300Y478050D01*
X129300Y449050D02*
X129300Y421550D01*
X211800Y421550D02*
X226300Y436050D01*
X226300Y491050D02*
X211800Y505550D01*
X214300Y449550D02*
X213949Y448666D01*
X213576Y447791D01*
X213182Y446925D01*
X212767Y446069D01*
X212331Y445223D01*
X211875Y444389D01*
X211399Y443565D01*
X210902Y442754D01*
X210387Y441954D01*
X209852Y441168D01*
X209297Y440395D01*
X208725Y439635D01*
X208134Y438890D01*
X207525Y438159D01*
X206898Y437443D01*
X206254Y436743D01*
X205593Y436058D01*
X204916Y435390D01*
X204223Y434739D01*
X203514Y434105D01*
X202790Y433488D01*
X202051Y432888D01*
X201298Y432307D01*
X200531Y431745D01*
X199750Y431201D01*
X198957Y430677D01*
X198151Y430172D01*
X197332Y429686D01*
X196503Y429221D01*
X195662Y428776D01*
X194811Y428352D01*
X193949Y427948D01*
X193078Y427566D01*
X192198Y427205D01*
X191309Y426865D01*
X190413Y426548D01*
X189509Y426252D01*
X188598Y425978D01*
X187680Y425726D01*
X186757Y425497D01*
X185828Y425290D01*
X184895Y425106D01*
X183958Y424945D01*
X183017Y424807D01*
X182072Y424691D01*
X181126Y424599D01*
X180177Y424529D01*
X179227Y424483D01*
X178276Y424460D01*
X177324Y424460D01*
X176373Y424483D01*
X175423Y424529D01*
X174474Y424599D01*
X173528Y424691D01*
X172583Y424807D01*
X171642Y424945D01*
X170705Y425106D01*
X169772Y425290D01*
X168843Y425497D01*
X167920Y425726D01*
X167002Y425978D01*
X166091Y426252D01*
X165187Y426548D01*
X164291Y426865D01*
X163402Y427205D01*
X162522Y427566D01*
X161651Y427948D01*
X160789Y428352D01*
X159938Y428776D01*
X159097Y429221D01*
X158268Y429686D01*
X157449Y430172D01*
X156643Y430677D01*
X155850Y431201D01*
X155069Y431745D01*
X154302Y432307D01*
X153549Y432888D01*
X152810Y433488D01*
X152086Y434105D01*
X151377Y434739D01*
X150684Y435390D01*
X150007Y436058D01*
X149346Y436743D01*
X148702Y437443D01*
X148075Y438159D01*
X147466Y438890D01*
X146875Y439635D01*
X146303Y440395D01*
X145748Y441168D01*
X145213Y441954D01*
X144698Y442754D01*
X144201Y443565D01*
X143725Y444389D01*
X143269Y445223D01*
X142833Y446069D01*
X142418Y446925D01*
X142024Y447791D01*
X141651Y448666D01*
X141300Y449550D01*
X141300Y477550D02*
X141651Y478434D01*
X142024Y479309D01*
X142418Y480175D01*
X142833Y481031D01*
X143269Y481877D01*
X143725Y482711D01*
X144201Y483535D01*
X144698Y484346D01*
X145213Y485146D01*
X145748Y485932D01*
X146303Y486705D01*
X146875Y487465D01*
X147466Y488210D01*
X148075Y488941D01*
X148702Y489657D01*
X149346Y490357D01*
X150007Y491042D01*
X150684Y491710D01*
X151377Y492361D01*
X152086Y492995D01*
X152810Y493612D01*
X153549Y494212D01*
X154302Y494793D01*
X155069Y495355D01*
X155850Y495899D01*
X156643Y496423D01*
X157449Y496928D01*
X158268Y497414D01*
X159097Y497879D01*
X159938Y498324D01*
X160789Y498748D01*
X161651Y499152D01*
X162522Y499534D01*
X163402Y499895D01*
X164291Y500235D01*
X165187Y500552D01*
X166091Y500848D01*
X167002Y501122D01*
X167920Y501374D01*
X168843Y501603D01*
X169772Y501810D01*
X170705Y501994D01*
X171642Y502155D01*
X172583Y502293D01*
X173528Y502409D01*
X174474Y502501D01*
X175423Y502571D01*
X176373Y502617D01*
X177324Y502640D01*
X178276Y502640D01*
X179227Y502617D01*
X180177Y502571D01*
X181126Y502501D01*
X182072Y502409D01*
X183017Y502293D01*
X183958Y502155D01*
X184895Y501994D01*
X185828Y501810D01*
X186757Y501603D01*
X187680Y501374D01*
X188598Y501122D01*
X189509Y500848D01*
X190413Y500552D01*
X191309Y500235D01*
X192198Y499895D01*
X193078Y499534D01*
X193949Y499152D01*
X194811Y498748D01*
X195662Y498324D01*
X196503Y497879D01*
X197332Y497414D01*
X198151Y496928D01*
X198957Y496423D01*
X199750Y495899D01*
X200531Y495355D01*
X201298Y494793D01*
X202051Y494212D01*
X202790Y493612D01*
X203514Y492995D01*
X204223Y492361D01*
X204916Y491710D01*
X205593Y491042D01*
X206254Y490357D01*
X206898Y489657D01*
X207525Y488941D01*
X208134Y488210D01*
X208725Y487465D01*
X209297Y486705D01*
X209852Y485932D01*
X210387Y485146D01*
X210902Y484346D01*
X211399Y483535D01*
X211875Y482711D01*
X212331Y481877D01*
X212767Y481031D01*
X213182Y480175D01*
X213576Y479309D01*
X213949Y478434D01*
X214300Y477550D01*
X110200Y421550D02*
X27700Y421550D01*
X124700Y436050D02*
X124700Y449050D01*
X124700Y478050D02*
X124700Y491050D01*
X110200Y505550D02*
X27700Y505550D01*
X27700Y478050D01*
X27700Y449050D02*
X27700Y421550D01*
X110200Y421550D02*
X124700Y436050D01*
X124700Y491050D02*
X110200Y505550D01*
X112700Y449550D02*
X112349Y448666D01*
X111976Y447791D01*
X111582Y446925D01*
X111167Y446069D01*
X110731Y445223D01*
X110275Y444389D01*
X109799Y443565D01*
X109302Y442754D01*
X108787Y441954D01*
X108252Y441168D01*
X107697Y440395D01*
X107125Y439635D01*
X106534Y438890D01*
X105925Y438159D01*
X105298Y437443D01*
X104654Y436743D01*
X103993Y436058D01*
X103316Y435390D01*
X102623Y434739D01*
X101914Y434105D01*
X101190Y433488D01*
X100451Y432888D01*
X99698Y432307D01*
X98931Y431745D01*
X98150Y431201D01*
X97357Y430677D01*
X96551Y430172D01*
X95732Y429686D01*
X94903Y429221D01*
X94062Y428776D01*
X93211Y428352D01*
X92349Y427948D01*
X91478Y427566D01*
X90598Y427205D01*
X89709Y426865D01*
X88813Y426548D01*
X87909Y426252D01*
X86998Y425978D01*
X86080Y425726D01*
X85157Y425497D01*
X84228Y425290D01*
X83295Y425106D01*
X82358Y424945D01*
X81417Y424807D01*
X80472Y424691D01*
X79526Y424599D01*
X78577Y424529D01*
X77627Y424483D01*
X76676Y424460D01*
X75724Y424460D01*
X74773Y424483D01*
X73823Y424529D01*
X72874Y424599D01*
X71928Y424691D01*
X70983Y424807D01*
X70042Y424945D01*
X69105Y425106D01*
X68172Y425290D01*
X67243Y425497D01*
X66320Y425726D01*
X65402Y425978D01*
X64491Y426252D01*
X63587Y426548D01*
X62691Y426865D01*
X61802Y427205D01*
X60922Y427566D01*
X60051Y427948D01*
X59189Y428352D01*
X58338Y428776D01*
X57497Y429221D01*
X56668Y429686D01*
X55849Y430172D01*
X55043Y430677D01*
X54250Y431201D01*
X53469Y431745D01*
X52702Y432307D01*
X51949Y432888D01*
X51210Y433488D01*
X50486Y434105D01*
X49777Y434739D01*
X49084Y435390D01*
X48407Y436058D01*
X47746Y436743D01*
X47102Y437443D01*
X46475Y438159D01*
X45866Y438890D01*
X45275Y439635D01*
X44703Y440395D01*
X44148Y441168D01*
X43613Y441954D01*
X43098Y442754D01*
X42601Y443565D01*
X42125Y444389D01*
X41669Y445223D01*
X41233Y446069D01*
X40818Y446925D01*
X40424Y447791D01*
X40051Y448666D01*
X39700Y449550D01*
X39700Y477550D02*
X40051Y478434D01*
X40424Y479309D01*
X40818Y480175D01*
X41233Y481031D01*
X41669Y481877D01*
X42125Y482711D01*
X42601Y483535D01*
X43098Y484346D01*
X43613Y485146D01*
X44148Y485932D01*
X44703Y486705D01*
X45275Y487465D01*
X45866Y488210D01*
X46475Y488941D01*
X47102Y489657D01*
X47746Y490357D01*
X48407Y491042D01*
X49084Y491710D01*
X49777Y492361D01*
X50486Y492995D01*
X51210Y493612D01*
X51949Y494212D01*
X52702Y494793D01*
X53469Y495355D01*
X54250Y495899D01*
X55043Y496423D01*
X55849Y496928D01*
X56668Y497414D01*
X57497Y497879D01*
X58338Y498324D01*
X59189Y498748D01*
X60051Y499152D01*
X60922Y499534D01*
X61802Y499895D01*
X62691Y500235D01*
X63587Y500552D01*
X64491Y500848D01*
X65402Y501122D01*
X66320Y501374D01*
X67243Y501603D01*
X68172Y501810D01*
X69105Y501994D01*
X70042Y502155D01*
X70983Y502293D01*
X71928Y502409D01*
X72874Y502501D01*
X73823Y502571D01*
X74773Y502617D01*
X75724Y502640D01*
X76676Y502640D01*
X77627Y502617D01*
X78577Y502571D01*
X79526Y502501D01*
X80472Y502409D01*
X81417Y502293D01*
X82358Y502155D01*
X83295Y501994D01*
X84228Y501810D01*
X85157Y501603D01*
X86080Y501374D01*
X86998Y501122D01*
X87909Y500848D01*
X88813Y500552D01*
X89709Y500235D01*
X90598Y499895D01*
X91478Y499534D01*
X92349Y499152D01*
X93211Y498748D01*
X94062Y498324D01*
X94903Y497879D01*
X95732Y497414D01*
X96551Y496928D01*
X97357Y496423D01*
X98150Y495899D01*
X98931Y495355D01*
X99698Y494793D01*
X100451Y494212D01*
X101190Y493612D01*
X101914Y492995D01*
X102623Y492361D01*
X103316Y491710D01*
X103993Y491042D01*
X104654Y490357D01*
X105298Y489657D01*
X105925Y488941D01*
X106534Y488210D01*
X107125Y487465D01*
X107697Y486705D01*
X108252Y485932D01*
X108787Y485146D01*
X109302Y484346D01*
X109799Y483535D01*
X110275Y482711D01*
X110731Y481877D01*
X111167Y481031D01*
X111582Y480175D01*
X111976Y479309D01*
X112349Y478434D01*
X112700Y477550D01*
X110200Y510450D02*
X27700Y510450D01*
X124700Y524950D02*
X124700Y537950D01*
X124700Y566950D02*
X124700Y579950D01*
X110200Y594450D02*
X27700Y594450D01*
X27700Y566950D01*
X27700Y537950D02*
X27700Y510450D01*
X110200Y510450D02*
X124700Y524950D01*
X124700Y579950D02*
X110200Y594450D01*
X112700Y538450D02*
X112349Y537566D01*
X111976Y536691D01*
X111582Y535825D01*
X111167Y534969D01*
X110731Y534123D01*
X110275Y533289D01*
X109799Y532465D01*
X109302Y531654D01*
X108787Y530854D01*
X108252Y530068D01*
X107697Y529295D01*
X107125Y528535D01*
X106534Y527790D01*
X105925Y527059D01*
X105298Y526343D01*
X104654Y525643D01*
X103993Y524958D01*
X103316Y524290D01*
X102623Y523639D01*
X101914Y523005D01*
X101190Y522388D01*
X100451Y521788D01*
X99698Y521207D01*
X98931Y520645D01*
X98150Y520101D01*
X97357Y519577D01*
X96551Y519072D01*
X95732Y518586D01*
X94903Y518121D01*
X94062Y517676D01*
X93211Y517252D01*
X92349Y516848D01*
X91478Y516466D01*
X90598Y516105D01*
X89709Y515765D01*
X88813Y515448D01*
X87909Y515152D01*
X86998Y514878D01*
X86080Y514626D01*
X85157Y514397D01*
X84228Y514190D01*
X83295Y514006D01*
X82358Y513845D01*
X81417Y513707D01*
X80472Y513591D01*
X79526Y513499D01*
X78577Y513429D01*
X77627Y513383D01*
X76676Y513360D01*
X75724Y513360D01*
X74773Y513383D01*
X73823Y513429D01*
X72874Y513499D01*
X71928Y513591D01*
X70983Y513707D01*
X70042Y513845D01*
X69105Y514006D01*
X68172Y514190D01*
X67243Y514397D01*
X66320Y514626D01*
X65402Y514878D01*
X64491Y515152D01*
X63587Y515448D01*
X62691Y515765D01*
X61802Y516105D01*
X60922Y516466D01*
X60051Y516848D01*
X59189Y517252D01*
X58338Y517676D01*
X57497Y518121D01*
X56668Y518586D01*
X55849Y519072D01*
X55043Y519577D01*
X54250Y520101D01*
X53469Y520645D01*
X52702Y521207D01*
X51949Y521788D01*
X51210Y522388D01*
X50486Y523005D01*
X49777Y523639D01*
X49084Y524290D01*
X48407Y524958D01*
X47746Y525643D01*
X47102Y526343D01*
X46475Y527059D01*
X45866Y527790D01*
X45275Y528535D01*
X44703Y529295D01*
X44148Y530068D01*
X43613Y530854D01*
X43098Y531654D01*
X42601Y532465D01*
X42125Y533289D01*
X41669Y534123D01*
X41233Y534969D01*
X40818Y535825D01*
X40424Y536691D01*
X40051Y537566D01*
X39700Y538450D01*
X39700Y566450D02*
X40051Y567334D01*
X40424Y568209D01*
X40818Y569075D01*
X41233Y569931D01*
X41669Y570777D01*
X42125Y571611D01*
X42601Y572435D01*
X43098Y573246D01*
X43613Y574046D01*
X44148Y574832D01*
X44703Y575605D01*
X45275Y576365D01*
X45866Y577110D01*
X46475Y577841D01*
X47102Y578557D01*
X47746Y579257D01*
X48407Y579942D01*
X49084Y580610D01*
X49777Y581261D01*
X50486Y581895D01*
X51210Y582512D01*
X51949Y583112D01*
X52702Y583693D01*
X53469Y584255D01*
X54250Y584799D01*
X55043Y585323D01*
X55849Y585828D01*
X56668Y586314D01*
X57497Y586779D01*
X58338Y587224D01*
X59189Y587648D01*
X60051Y588052D01*
X60922Y588434D01*
X61802Y588795D01*
X62691Y589135D01*
X63587Y589452D01*
X64491Y589748D01*
X65402Y590022D01*
X66320Y590274D01*
X67243Y590503D01*
X68172Y590710D01*
X69105Y590894D01*
X70042Y591055D01*
X70983Y591193D01*
X71928Y591309D01*
X72874Y591401D01*
X73823Y591471D01*
X74773Y591517D01*
X75724Y591540D01*
X76676Y591540D01*
X77627Y591517D01*
X78577Y591471D01*
X79526Y591401D01*
X80472Y591309D01*
X81417Y591193D01*
X82358Y591055D01*
X83295Y590894D01*
X84228Y590710D01*
X85157Y590503D01*
X86080Y590274D01*
X86998Y590022D01*
X87909Y589748D01*
X88813Y589452D01*
X89709Y589135D01*
X90598Y588795D01*
X91478Y588434D01*
X92349Y588052D01*
X93211Y587648D01*
X94062Y587224D01*
X94903Y586779D01*
X95732Y586314D01*
X96551Y585828D01*
X97357Y585323D01*
X98150Y584799D01*
X98931Y584255D01*
X99698Y583693D01*
X100451Y583112D01*
X101190Y582512D01*
X101914Y581895D01*
X102623Y581261D01*
X103316Y580610D01*
X103993Y579942D01*
X104654Y579257D01*
X105298Y578557D01*
X105925Y577841D01*
X106534Y577110D01*
X107125Y576365D01*
X107697Y575605D01*
X108252Y574832D01*
X108787Y574046D01*
X109302Y573246D01*
X109799Y572435D01*
X110275Y571611D01*
X110731Y570777D01*
X111167Y569931D01*
X111582Y569075D01*
X111976Y568209D01*
X112349Y567334D01*
X112700Y566450D01*
X129300Y510450D02*
X211800Y510450D01*
X226300Y524950D02*
X226300Y537950D01*
X226300Y566950D02*
X226300Y579950D01*
X211800Y594450D02*
X129300Y594450D01*
X129300Y566950D01*
X129300Y537950D02*
X129300Y510450D01*
X211800Y510450D02*
X226300Y524950D01*
X226300Y579950D02*
X211800Y594450D01*
X214300Y538450D02*
X213949Y537566D01*
X213576Y536691D01*
X213182Y535825D01*
X212767Y534969D01*
X212331Y534123D01*
X211875Y533289D01*
X211399Y532465D01*
X210902Y531654D01*
X210387Y530854D01*
X209852Y530068D01*
X209297Y529295D01*
X208725Y528535D01*
X208134Y527790D01*
X207525Y527059D01*
X206898Y526343D01*
X206254Y525643D01*
X205593Y524958D01*
X204916Y524290D01*
X204223Y523639D01*
X203514Y523005D01*
X202790Y522388D01*
X202051Y521788D01*
X201298Y521207D01*
X200531Y520645D01*
X199750Y520101D01*
X198957Y519577D01*
X198151Y519072D01*
X197332Y518586D01*
X196503Y518121D01*
X195662Y517676D01*
X194811Y517252D01*
X193949Y516848D01*
X193078Y516466D01*
X192198Y516105D01*
X191309Y515765D01*
X190413Y515448D01*
X189509Y515152D01*
X188598Y514878D01*
X187680Y514626D01*
X186757Y514397D01*
X185828Y514190D01*
X184895Y514006D01*
X183958Y513845D01*
X183017Y513707D01*
X182072Y513591D01*
X181126Y513499D01*
X180177Y513429D01*
X179227Y513383D01*
X178276Y513360D01*
X177324Y513360D01*
X176373Y513383D01*
X175423Y513429D01*
X174474Y513499D01*
X173528Y513591D01*
X172583Y513707D01*
X171642Y513845D01*
X170705Y514006D01*
X169772Y514190D01*
X168843Y514397D01*
X167920Y514626D01*
X167002Y514878D01*
X166091Y515152D01*
X165187Y515448D01*
X164291Y515765D01*
X163402Y516105D01*
X162522Y516466D01*
X161651Y516848D01*
X160789Y517252D01*
X159938Y517676D01*
X159097Y518121D01*
X158268Y518586D01*
X157449Y519072D01*
X156643Y519577D01*
X155850Y520101D01*
X155069Y520645D01*
X154302Y521207D01*
X153549Y521788D01*
X152810Y522388D01*
X152086Y523005D01*
X151377Y523639D01*
X150684Y524290D01*
X150007Y524958D01*
X149346Y525643D01*
X148702Y526343D01*
X148075Y527059D01*
X147466Y527790D01*
X146875Y528535D01*
X146303Y529295D01*
X145748Y530068D01*
X145213Y530854D01*
X144698Y531654D01*
X144201Y532465D01*
X143725Y533289D01*
X143269Y534123D01*
X142833Y534969D01*
X142418Y535825D01*
X142024Y536691D01*
X141651Y537566D01*
X141300Y538450D01*
X141300Y566450D02*
X141651Y567334D01*
X142024Y568209D01*
X142418Y569075D01*
X142833Y569931D01*
X143269Y570777D01*
X143725Y571611D01*
X144201Y572435D01*
X144698Y573246D01*
X145213Y574046D01*
X145748Y574832D01*
X146303Y575605D01*
X146875Y576365D01*
X147466Y577110D01*
X148075Y577841D01*
X148702Y578557D01*
X149346Y579257D01*
X150007Y579942D01*
X150684Y580610D01*
X151377Y581261D01*
X152086Y581895D01*
X152810Y582512D01*
X153549Y583112D01*
X154302Y583693D01*
X155069Y584255D01*
X155850Y584799D01*
X156643Y585323D01*
X157449Y585828D01*
X158268Y586314D01*
X159097Y586779D01*
X159938Y587224D01*
X160789Y587648D01*
X161651Y588052D01*
X162522Y588434D01*
X163402Y588795D01*
X164291Y589135D01*
X165187Y589452D01*
X166091Y589748D01*
X167002Y590022D01*
X167920Y590274D01*
X168843Y590503D01*
X169772Y590710D01*
X170705Y590894D01*
X171642Y591055D01*
X172583Y591193D01*
X173528Y591309D01*
X174474Y591401D01*
X175423Y591471D01*
X176373Y591517D01*
X177324Y591540D01*
X178276Y591540D01*
X179227Y591517D01*
X180177Y591471D01*
X181126Y591401D01*
X182072Y591309D01*
X183017Y591193D01*
X183958Y591055D01*
X184895Y590894D01*
X185828Y590710D01*
X186757Y590503D01*
X187680Y590274D01*
X188598Y590022D01*
X189509Y589748D01*
X190413Y589452D01*
X191309Y589135D01*
X192198Y588795D01*
X193078Y588434D01*
X193949Y588052D01*
X194811Y587648D01*
X195662Y587224D01*
X196503Y586779D01*
X197332Y586314D01*
X198151Y585828D01*
X198957Y585323D01*
X199750Y584799D01*
X200531Y584255D01*
X201298Y583693D01*
X202051Y583112D01*
X202790Y582512D01*
X203514Y581895D01*
X204223Y581261D01*
X204916Y580610D01*
X205593Y579942D01*
X206254Y579257D01*
X206898Y578557D01*
X207525Y577841D01*
X208134Y577110D01*
X208725Y576365D01*
X209297Y575605D01*
X209852Y574832D01*
X210387Y574046D01*
X210902Y573246D01*
X211399Y572435D01*
X211875Y571611D01*
X212331Y570777D01*
X212767Y569931D01*
X213182Y569075D01*
X213576Y568209D01*
X213949Y567334D01*
X214300Y566450D01*
X230900Y510450D02*
X313400Y510450D01*
X327900Y524950D02*
X327900Y537950D01*
X327900Y566950D02*
X327900Y579950D01*
X313400Y594450D02*
X230900Y594450D01*
X230900Y566950D01*
X230900Y537950D02*
X230900Y510450D01*
X313400Y510450D02*
X327900Y524950D01*
X327900Y579950D02*
X313400Y594450D01*
X315900Y538450D02*
X315549Y537566D01*
X315176Y536691D01*
X314782Y535825D01*
X314367Y534969D01*
X313931Y534123D01*
X313475Y533289D01*
X312999Y532465D01*
X312502Y531654D01*
X311987Y530854D01*
X311452Y530068D01*
X310897Y529295D01*
X310325Y528535D01*
X309734Y527790D01*
X309125Y527059D01*
X308498Y526343D01*
X307854Y525643D01*
X307193Y524958D01*
X306516Y524290D01*
X305823Y523639D01*
X305114Y523005D01*
X304390Y522388D01*
X303651Y521788D01*
X302898Y521207D01*
X302131Y520645D01*
X301350Y520101D01*
X300557Y519577D01*
X299751Y519072D01*
X298932Y518586D01*
X298103Y518121D01*
X297262Y517676D01*
X296411Y517252D01*
X295549Y516848D01*
X294678Y516466D01*
X293798Y516105D01*
X292909Y515765D01*
X292013Y515448D01*
X291109Y515152D01*
X290198Y514878D01*
X289280Y514626D01*
X288357Y514397D01*
X287428Y514190D01*
X286495Y514006D01*
X285558Y513845D01*
X284617Y513707D01*
X283672Y513591D01*
X282726Y513499D01*
X281777Y513429D01*
X280827Y513383D01*
X279876Y513360D01*
X278924Y513360D01*
X277973Y513383D01*
X277023Y513429D01*
X276074Y513499D01*
X275128Y513591D01*
X274183Y513707D01*
X273242Y513845D01*
X272305Y514006D01*
X271372Y514190D01*
X270443Y514397D01*
X269520Y514626D01*
X268602Y514878D01*
X267691Y515152D01*
X266787Y515448D01*
X265891Y515765D01*
X265002Y516105D01*
X264122Y516466D01*
X263251Y516848D01*
X262389Y517252D01*
X261538Y517676D01*
X260697Y518121D01*
X259868Y518586D01*
X259049Y519072D01*
X258243Y519577D01*
X257450Y520101D01*
X256669Y520645D01*
X255902Y521207D01*
X255149Y521788D01*
X254410Y522388D01*
X253686Y523005D01*
X252977Y523639D01*
X252284Y524290D01*
X251607Y524958D01*
X250946Y525643D01*
X250302Y526343D01*
X249675Y527059D01*
X249066Y527790D01*
X248475Y528535D01*
X247903Y529295D01*
X247348Y530068D01*
X246813Y530854D01*
X246298Y531654D01*
X245801Y532465D01*
X245325Y533289D01*
X244869Y534123D01*
X244433Y534969D01*
X244018Y535825D01*
X243624Y536691D01*
X243251Y537566D01*
X242900Y538450D01*
X242900Y566450D02*
X243251Y567334D01*
X243624Y568209D01*
X244018Y569075D01*
X244433Y569931D01*
X244869Y570777D01*
X245325Y571611D01*
X245801Y572435D01*
X246298Y573246D01*
X246813Y574046D01*
X247348Y574832D01*
X247903Y575605D01*
X248475Y576365D01*
X249066Y577110D01*
X249675Y577841D01*
X250302Y578557D01*
X250946Y579257D01*
X251607Y579942D01*
X252284Y580610D01*
X252977Y581261D01*
X253686Y581895D01*
X254410Y582512D01*
X255149Y583112D01*
X255902Y583693D01*
X256669Y584255D01*
X257450Y584799D01*
X258243Y585323D01*
X259049Y585828D01*
X259868Y586314D01*
X260697Y586779D01*
X261538Y587224D01*
X262389Y587648D01*
X263251Y588052D01*
X264122Y588434D01*
X265002Y588795D01*
X265891Y589135D01*
X266787Y589452D01*
X267691Y589748D01*
X268602Y590022D01*
X269520Y590274D01*
X270443Y590503D01*
X271372Y590710D01*
X272305Y590894D01*
X273242Y591055D01*
X274183Y591193D01*
X275128Y591309D01*
X276074Y591401D01*
X277023Y591471D01*
X277973Y591517D01*
X278924Y591540D01*
X279876Y591540D01*
X280827Y591517D01*
X281777Y591471D01*
X282726Y591401D01*
X283672Y591309D01*
X284617Y591193D01*
X285558Y591055D01*
X286495Y590894D01*
X287428Y590710D01*
X288357Y590503D01*
X289280Y590274D01*
X290198Y590022D01*
X291109Y589748D01*
X292013Y589452D01*
X292909Y589135D01*
X293798Y588795D01*
X294678Y588434D01*
X295549Y588052D01*
X296411Y587648D01*
X297262Y587224D01*
X298103Y586779D01*
X298932Y586314D01*
X299751Y585828D01*
X300557Y585323D01*
X301350Y584799D01*
X302131Y584255D01*
X302898Y583693D01*
X303651Y583112D01*
X304390Y582512D01*
X305114Y581895D01*
X305823Y581261D01*
X306516Y580610D01*
X307193Y579942D01*
X307854Y579257D01*
X308498Y578557D01*
X309125Y577841D01*
X309734Y577110D01*
X310325Y576365D01*
X310897Y575605D01*
X311452Y574832D01*
X311987Y574046D01*
X312502Y573246D01*
X312999Y572435D01*
X313475Y571611D01*
X313931Y570777D01*
X314367Y569931D01*
X314782Y569075D01*
X315176Y568209D01*
X315549Y567334D01*
X315900Y566450D01*
D15*
X878763Y712788D02*
X878768Y713156D01*
X878781Y713524D01*
X878804Y713891D01*
X878835Y714258D01*
X878876Y714624D01*
X878925Y714989D01*
X878984Y715352D01*
X879051Y715714D01*
X879127Y716075D01*
X879213Y716433D01*
X879306Y716789D01*
X879409Y717142D01*
X879520Y717493D01*
X879640Y717841D01*
X879768Y718186D01*
X879905Y718528D01*
X880050Y718867D01*
X880203Y719201D01*
X880365Y719532D01*
X880534Y719859D01*
X880712Y720181D01*
X880897Y720500D01*
X881090Y720813D01*
X881291Y721122D01*
X881499Y721425D01*
X881715Y721723D01*
X881938Y722016D01*
X882168Y722304D01*
X882405Y722586D01*
X882649Y722861D01*
X882899Y723131D01*
X883156Y723395D01*
X883420Y723652D01*
X883690Y723902D01*
X883965Y724146D01*
X884247Y724383D01*
X884535Y724613D01*
X884828Y724836D01*
X885126Y725052D01*
X885429Y725260D01*
X885738Y725461D01*
X886051Y725654D01*
X886370Y725839D01*
X886692Y726017D01*
X887019Y726186D01*
X887350Y726348D01*
X887684Y726501D01*
X888023Y726646D01*
X888365Y726783D01*
X888710Y726911D01*
X889058Y727031D01*
X889409Y727142D01*
X889762Y727245D01*
X890118Y727338D01*
X890476Y727424D01*
X890837Y727500D01*
X891199Y727567D01*
X891562Y727626D01*
X891927Y727675D01*
X892293Y727716D01*
X892660Y727747D01*
X893027Y727770D01*
X893395Y727783D01*
X893763Y727788D01*
X894131Y727783D01*
X894499Y727770D01*
X894866Y727747D01*
X895233Y727716D01*
X895599Y727675D01*
X895964Y727626D01*
X896327Y727567D01*
X896689Y727500D01*
X897050Y727424D01*
X897408Y727338D01*
X897764Y727245D01*
X898117Y727142D01*
X898468Y727031D01*
X898816Y726911D01*
X899161Y726783D01*
X899503Y726646D01*
X899842Y726501D01*
X900176Y726348D01*
X900507Y726186D01*
X900834Y726017D01*
X901156Y725839D01*
X901475Y725654D01*
X901788Y725461D01*
X902097Y725260D01*
X902400Y725052D01*
X902698Y724836D01*
X902991Y724613D01*
X903279Y724383D01*
X903561Y724146D01*
X903836Y723902D01*
X904106Y723652D01*
X904370Y723395D01*
X904627Y723131D01*
X904877Y722861D01*
X905121Y722586D01*
X905358Y722304D01*
X905588Y722016D01*
X905811Y721723D01*
X906027Y721425D01*
X906235Y721122D01*
X906436Y720813D01*
X906629Y720500D01*
X906814Y720181D01*
X906992Y719859D01*
X907161Y719532D01*
X907323Y719201D01*
X907476Y718867D01*
X907621Y718528D01*
X907758Y718186D01*
X907886Y717841D01*
X908006Y717493D01*
X908117Y717142D01*
X908220Y716789D01*
X908313Y716433D01*
X908399Y716075D01*
X908475Y715714D01*
X908542Y715352D01*
X908601Y714989D01*
X908650Y714624D01*
X908691Y714258D01*
X908722Y713891D01*
X908745Y713524D01*
X908758Y713156D01*
X908763Y712788D01*
X908758Y712420D01*
X908745Y712052D01*
X908722Y711685D01*
X908691Y711318D01*
X908650Y710952D01*
X908601Y710587D01*
X908542Y710224D01*
X908475Y709862D01*
X908399Y709501D01*
X908313Y709143D01*
X908220Y708787D01*
X908117Y708434D01*
X908006Y708083D01*
X907886Y707735D01*
X907758Y707390D01*
X907621Y707048D01*
X907476Y706709D01*
X907323Y706375D01*
X907161Y706044D01*
X906992Y705717D01*
X906814Y705395D01*
X906629Y705076D01*
X906436Y704763D01*
X906235Y704454D01*
X906027Y704151D01*
X905811Y703853D01*
X905588Y703560D01*
X905358Y703272D01*
X905121Y702990D01*
X904877Y702715D01*
X904627Y702445D01*
X904370Y702181D01*
X904106Y701924D01*
X903836Y701674D01*
X903561Y701430D01*
X903279Y701193D01*
X902991Y700963D01*
X902698Y700740D01*
X902400Y700524D01*
X902097Y700316D01*
X901788Y700115D01*
X901475Y699922D01*
X901156Y699737D01*
X900834Y699559D01*
X900507Y699390D01*
X900176Y699228D01*
X899842Y699075D01*
X899503Y698930D01*
X899161Y698793D01*
X898816Y698665D01*
X898468Y698545D01*
X898117Y698434D01*
X897764Y698331D01*
X897408Y698238D01*
X897050Y698152D01*
X896689Y698076D01*
X896327Y698009D01*
X895964Y697950D01*
X895599Y697901D01*
X895233Y697860D01*
X894866Y697829D01*
X894499Y697806D01*
X894131Y697793D01*
X893763Y697788D01*
X893395Y697793D01*
X893027Y697806D01*
X892660Y697829D01*
X892293Y697860D01*
X891927Y697901D01*
X891562Y697950D01*
X891199Y698009D01*
X890837Y698076D01*
X890476Y698152D01*
X890118Y698238D01*
X889762Y698331D01*
X889409Y698434D01*
X889058Y698545D01*
X888710Y698665D01*
X888365Y698793D01*
X888023Y698930D01*
X887684Y699075D01*
X887350Y699228D01*
X887019Y699390D01*
X886692Y699559D01*
X886370Y699737D01*
X886051Y699922D01*
X885738Y700115D01*
X885429Y700316D01*
X885126Y700524D01*
X884828Y700740D01*
X884535Y700963D01*
X884247Y701193D01*
X883965Y701430D01*
X883690Y701674D01*
X883420Y701924D01*
X883156Y702181D01*
X882899Y702445D01*
X882649Y702715D01*
X882405Y702990D01*
X882168Y703272D01*
X881938Y703560D01*
X881715Y703853D01*
X881499Y704151D01*
X881291Y704454D01*
X881090Y704763D01*
X880897Y705076D01*
X880712Y705395D01*
X880534Y705717D01*
X880365Y706044D01*
X880203Y706375D01*
X880050Y706709D01*
X879905Y707048D01*
X879768Y707390D01*
X879640Y707735D01*
X879520Y708083D01*
X879409Y708434D01*
X879306Y708787D01*
X879213Y709143D01*
X879127Y709501D01*
X879051Y709862D01*
X878984Y710224D01*
X878925Y710587D01*
X878876Y710952D01*
X878835Y711318D01*
X878804Y711685D01*
X878781Y712052D01*
X878768Y712420D01*
X878763Y712788D01*
X878763Y957263D02*
X878768Y957631D01*
X878781Y957999D01*
X878804Y958366D01*
X878835Y958733D01*
X878876Y959099D01*
X878925Y959464D01*
X878984Y959827D01*
X879051Y960189D01*
X879127Y960550D01*
X879213Y960908D01*
X879306Y961264D01*
X879409Y961617D01*
X879520Y961968D01*
X879640Y962316D01*
X879768Y962661D01*
X879905Y963003D01*
X880050Y963342D01*
X880203Y963676D01*
X880365Y964007D01*
X880534Y964334D01*
X880712Y964656D01*
X880897Y964975D01*
X881090Y965288D01*
X881291Y965597D01*
X881499Y965900D01*
X881715Y966198D01*
X881938Y966491D01*
X882168Y966779D01*
X882405Y967061D01*
X882649Y967336D01*
X882899Y967606D01*
X883156Y967870D01*
X883420Y968127D01*
X883690Y968377D01*
X883965Y968621D01*
X884247Y968858D01*
X884535Y969088D01*
X884828Y969311D01*
X885126Y969527D01*
X885429Y969735D01*
X885738Y969936D01*
X886051Y970129D01*
X886370Y970314D01*
X886692Y970492D01*
X887019Y970661D01*
X887350Y970823D01*
X887684Y970976D01*
X888023Y971121D01*
X888365Y971258D01*
X888710Y971386D01*
X889058Y971506D01*
X889409Y971617D01*
X889762Y971720D01*
X890118Y971813D01*
X890476Y971899D01*
X890837Y971975D01*
X891199Y972042D01*
X891562Y972101D01*
X891927Y972150D01*
X892293Y972191D01*
X892660Y972222D01*
X893027Y972245D01*
X893395Y972258D01*
X893763Y972263D01*
X894131Y972258D01*
X894499Y972245D01*
X894866Y972222D01*
X895233Y972191D01*
X895599Y972150D01*
X895964Y972101D01*
X896327Y972042D01*
X896689Y971975D01*
X897050Y971899D01*
X897408Y971813D01*
X897764Y971720D01*
X898117Y971617D01*
X898468Y971506D01*
X898816Y971386D01*
X899161Y971258D01*
X899503Y971121D01*
X899842Y970976D01*
X900176Y970823D01*
X900507Y970661D01*
X900834Y970492D01*
X901156Y970314D01*
X901475Y970129D01*
X901788Y969936D01*
X902097Y969735D01*
X902400Y969527D01*
X902698Y969311D01*
X902991Y969088D01*
X903279Y968858D01*
X903561Y968621D01*
X903836Y968377D01*
X904106Y968127D01*
X904370Y967870D01*
X904627Y967606D01*
X904877Y967336D01*
X905121Y967061D01*
X905358Y966779D01*
X905588Y966491D01*
X905811Y966198D01*
X906027Y965900D01*
X906235Y965597D01*
X906436Y965288D01*
X906629Y964975D01*
X906814Y964656D01*
X906992Y964334D01*
X907161Y964007D01*
X907323Y963676D01*
X907476Y963342D01*
X907621Y963003D01*
X907758Y962661D01*
X907886Y962316D01*
X908006Y961968D01*
X908117Y961617D01*
X908220Y961264D01*
X908313Y960908D01*
X908399Y960550D01*
X908475Y960189D01*
X908542Y959827D01*
X908601Y959464D01*
X908650Y959099D01*
X908691Y958733D01*
X908722Y958366D01*
X908745Y957999D01*
X908758Y957631D01*
X908763Y957263D01*
X908758Y956895D01*
X908745Y956527D01*
X908722Y956160D01*
X908691Y955793D01*
X908650Y955427D01*
X908601Y955062D01*
X908542Y954699D01*
X908475Y954337D01*
X908399Y953976D01*
X908313Y953618D01*
X908220Y953262D01*
X908117Y952909D01*
X908006Y952558D01*
X907886Y952210D01*
X907758Y951865D01*
X907621Y951523D01*
X907476Y951184D01*
X907323Y950850D01*
X907161Y950519D01*
X906992Y950192D01*
X906814Y949870D01*
X906629Y949551D01*
X906436Y949238D01*
X906235Y948929D01*
X906027Y948626D01*
X905811Y948328D01*
X905588Y948035D01*
X905358Y947747D01*
X905121Y947465D01*
X904877Y947190D01*
X904627Y946920D01*
X904370Y946656D01*
X904106Y946399D01*
X903836Y946149D01*
X903561Y945905D01*
X903279Y945668D01*
X902991Y945438D01*
X902698Y945215D01*
X902400Y944999D01*
X902097Y944791D01*
X901788Y944590D01*
X901475Y944397D01*
X901156Y944212D01*
X900834Y944034D01*
X900507Y943865D01*
X900176Y943703D01*
X899842Y943550D01*
X899503Y943405D01*
X899161Y943268D01*
X898816Y943140D01*
X898468Y943020D01*
X898117Y942909D01*
X897764Y942806D01*
X897408Y942713D01*
X897050Y942627D01*
X896689Y942551D01*
X896327Y942484D01*
X895964Y942425D01*
X895599Y942376D01*
X895233Y942335D01*
X894866Y942304D01*
X894499Y942281D01*
X894131Y942268D01*
X893763Y942263D01*
X893395Y942268D01*
X893027Y942281D01*
X892660Y942304D01*
X892293Y942335D01*
X891927Y942376D01*
X891562Y942425D01*
X891199Y942484D01*
X890837Y942551D01*
X890476Y942627D01*
X890118Y942713D01*
X889762Y942806D01*
X889409Y942909D01*
X889058Y943020D01*
X888710Y943140D01*
X888365Y943268D01*
X888023Y943405D01*
X887684Y943550D01*
X887350Y943703D01*
X887019Y943865D01*
X886692Y944034D01*
X886370Y944212D01*
X886051Y944397D01*
X885738Y944590D01*
X885429Y944791D01*
X885126Y944999D01*
X884828Y945215D01*
X884535Y945438D01*
X884247Y945668D01*
X883965Y945905D01*
X883690Y946149D01*
X883420Y946399D01*
X883156Y946656D01*
X882899Y946920D01*
X882649Y947190D01*
X882405Y947465D01*
X882168Y947747D01*
X881938Y948035D01*
X881715Y948328D01*
X881499Y948626D01*
X881291Y948929D01*
X881090Y949238D01*
X880897Y949551D01*
X880712Y949870D01*
X880534Y950192D01*
X880365Y950519D01*
X880203Y950850D01*
X880050Y951184D01*
X879905Y951523D01*
X879768Y951865D01*
X879640Y952210D01*
X879520Y952558D01*
X879409Y952909D01*
X879306Y953262D01*
X879213Y953618D01*
X879127Y953976D01*
X879051Y954337D01*
X878984Y954699D01*
X878925Y955062D01*
X878876Y955427D01*
X878835Y955793D01*
X878804Y956160D01*
X878781Y956527D01*
X878768Y956895D01*
X878763Y957263D01*
X589838Y712788D02*
X589843Y713156D01*
X589856Y713524D01*
X589879Y713891D01*
X589910Y714258D01*
X589951Y714624D01*
X590000Y714989D01*
X590059Y715352D01*
X590126Y715714D01*
X590202Y716075D01*
X590288Y716433D01*
X590381Y716789D01*
X590484Y717142D01*
X590595Y717493D01*
X590715Y717841D01*
X590843Y718186D01*
X590980Y718528D01*
X591125Y718867D01*
X591278Y719201D01*
X591440Y719532D01*
X591609Y719859D01*
X591787Y720181D01*
X591972Y720500D01*
X592165Y720813D01*
X592366Y721122D01*
X592574Y721425D01*
X592790Y721723D01*
X593013Y722016D01*
X593243Y722304D01*
X593480Y722586D01*
X593724Y722861D01*
X593974Y723131D01*
X594231Y723395D01*
X594495Y723652D01*
X594765Y723902D01*
X595040Y724146D01*
X595322Y724383D01*
X595610Y724613D01*
X595903Y724836D01*
X596201Y725052D01*
X596504Y725260D01*
X596813Y725461D01*
X597126Y725654D01*
X597445Y725839D01*
X597767Y726017D01*
X598094Y726186D01*
X598425Y726348D01*
X598759Y726501D01*
X599098Y726646D01*
X599440Y726783D01*
X599785Y726911D01*
X600133Y727031D01*
X600484Y727142D01*
X600837Y727245D01*
X601193Y727338D01*
X601551Y727424D01*
X601912Y727500D01*
X602274Y727567D01*
X602637Y727626D01*
X603002Y727675D01*
X603368Y727716D01*
X603735Y727747D01*
X604102Y727770D01*
X604470Y727783D01*
X604838Y727788D01*
X605206Y727783D01*
X605574Y727770D01*
X605941Y727747D01*
X606308Y727716D01*
X606674Y727675D01*
X607039Y727626D01*
X607402Y727567D01*
X607764Y727500D01*
X608125Y727424D01*
X608483Y727338D01*
X608839Y727245D01*
X609192Y727142D01*
X609543Y727031D01*
X609891Y726911D01*
X610236Y726783D01*
X610578Y726646D01*
X610917Y726501D01*
X611251Y726348D01*
X611582Y726186D01*
X611909Y726017D01*
X612231Y725839D01*
X612550Y725654D01*
X612863Y725461D01*
X613172Y725260D01*
X613475Y725052D01*
X613773Y724836D01*
X614066Y724613D01*
X614354Y724383D01*
X614636Y724146D01*
X614911Y723902D01*
X615181Y723652D01*
X615445Y723395D01*
X615702Y723131D01*
X615952Y722861D01*
X616196Y722586D01*
X616433Y722304D01*
X616663Y722016D01*
X616886Y721723D01*
X617102Y721425D01*
X617310Y721122D01*
X617511Y720813D01*
X617704Y720500D01*
X617889Y720181D01*
X618067Y719859D01*
X618236Y719532D01*
X618398Y719201D01*
X618551Y718867D01*
X618696Y718528D01*
X618833Y718186D01*
X618961Y717841D01*
X619081Y717493D01*
X619192Y717142D01*
X619295Y716789D01*
X619388Y716433D01*
X619474Y716075D01*
X619550Y715714D01*
X619617Y715352D01*
X619676Y714989D01*
X619725Y714624D01*
X619766Y714258D01*
X619797Y713891D01*
X619820Y713524D01*
X619833Y713156D01*
X619838Y712788D01*
X619833Y712420D01*
X619820Y712052D01*
X619797Y711685D01*
X619766Y711318D01*
X619725Y710952D01*
X619676Y710587D01*
X619617Y710224D01*
X619550Y709862D01*
X619474Y709501D01*
X619388Y709143D01*
X619295Y708787D01*
X619192Y708434D01*
X619081Y708083D01*
X618961Y707735D01*
X618833Y707390D01*
X618696Y707048D01*
X618551Y706709D01*
X618398Y706375D01*
X618236Y706044D01*
X618067Y705717D01*
X617889Y705395D01*
X617704Y705076D01*
X617511Y704763D01*
X617310Y704454D01*
X617102Y704151D01*
X616886Y703853D01*
X616663Y703560D01*
X616433Y703272D01*
X616196Y702990D01*
X615952Y702715D01*
X615702Y702445D01*
X615445Y702181D01*
X615181Y701924D01*
X614911Y701674D01*
X614636Y701430D01*
X614354Y701193D01*
X614066Y700963D01*
X613773Y700740D01*
X613475Y700524D01*
X613172Y700316D01*
X612863Y700115D01*
X612550Y699922D01*
X612231Y699737D01*
X611909Y699559D01*
X611582Y699390D01*
X611251Y699228D01*
X610917Y699075D01*
X610578Y698930D01*
X610236Y698793D01*
X609891Y698665D01*
X609543Y698545D01*
X609192Y698434D01*
X608839Y698331D01*
X608483Y698238D01*
X608125Y698152D01*
X607764Y698076D01*
X607402Y698009D01*
X607039Y697950D01*
X606674Y697901D01*
X606308Y697860D01*
X605941Y697829D01*
X605574Y697806D01*
X605206Y697793D01*
X604838Y697788D01*
X604470Y697793D01*
X604102Y697806D01*
X603735Y697829D01*
X603368Y697860D01*
X603002Y697901D01*
X602637Y697950D01*
X602274Y698009D01*
X601912Y698076D01*
X601551Y698152D01*
X601193Y698238D01*
X600837Y698331D01*
X600484Y698434D01*
X600133Y698545D01*
X599785Y698665D01*
X599440Y698793D01*
X599098Y698930D01*
X598759Y699075D01*
X598425Y699228D01*
X598094Y699390D01*
X597767Y699559D01*
X597445Y699737D01*
X597126Y699922D01*
X596813Y700115D01*
X596504Y700316D01*
X596201Y700524D01*
X595903Y700740D01*
X595610Y700963D01*
X595322Y701193D01*
X595040Y701430D01*
X594765Y701674D01*
X594495Y701924D01*
X594231Y702181D01*
X593974Y702445D01*
X593724Y702715D01*
X593480Y702990D01*
X593243Y703272D01*
X593013Y703560D01*
X592790Y703853D01*
X592574Y704151D01*
X592366Y704454D01*
X592165Y704763D01*
X591972Y705076D01*
X591787Y705395D01*
X591609Y705717D01*
X591440Y706044D01*
X591278Y706375D01*
X591125Y706709D01*
X590980Y707048D01*
X590843Y707390D01*
X590715Y707735D01*
X590595Y708083D01*
X590484Y708434D01*
X590381Y708787D01*
X590288Y709143D01*
X590202Y709501D01*
X590126Y709862D01*
X590059Y710224D01*
X590000Y710587D01*
X589951Y710952D01*
X589910Y711318D01*
X589879Y711685D01*
X589856Y712052D01*
X589843Y712420D01*
X589838Y712788D01*
M02*
