G04 EAGLE Gerber X2 export*
%TF.Part,Single*%
%TF.FileFunction,Other,Solder stop mask CMP*%
%TF.FilePolarity,Positive*%
%TF.GenerationSoftware,Autodesk,EAGLE,8.6.0*%
%TF.CreationDate,2019-03-18T10:45:52Z*%
G75*
%MOMM*%
%FSLAX34Y34*%
%LPD*%
%AMOC8*
5,1,8,0,0,1.08239X$1,22.5*%
G01*
%ADD10R,0.913200X1.575200*%
%ADD11R,4.723200X4.003200*%
%ADD12R,1.103000X1.103000*%
%ADD13R,1.703200X2.203200*%
%ADD14R,4.003200X2.203200*%
%ADD15R,1.303200X1.203200*%
%ADD16R,1.203200X1.303200*%
%ADD17R,0.453200X0.733200*%
%ADD18R,0.733200X0.453200*%
%ADD19R,1.203200X0.753200*%
%ADD20C,1.727200*%
%ADD21R,1.403200X0.503200*%
%ADD22R,0.503200X1.403200*%
%ADD23R,1.603200X1.803200*%
%ADD24R,1.473200X2.743200*%
%ADD25R,1.003200X1.003200*%
%ADD26R,0.753200X0.773200*%
%ADD27R,0.903200X0.903200*%
%ADD28R,1.803200X1.603200*%
%ADD29C,1.422400*%
%ADD30C,1.727200*%
%ADD31C,3.203200*%
%ADD32R,1.503200X1.703200*%
%ADD33R,1.703200X1.503200*%
%ADD34R,1.803200X2.003200*%
%ADD35C,0.858000*%
%ADD36R,1.108000X1.108000*%
%ADD37C,0.808000*%


D10*
X88900Y933450D03*
X101600Y933450D03*
X114300Y933450D03*
X127000Y933450D03*
X127000Y990600D03*
X114300Y990600D03*
X101600Y990600D03*
X88900Y990600D03*
D11*
X107950Y971550D03*
D10*
X88900Y857250D03*
X101600Y857250D03*
X114300Y857250D03*
X127000Y857250D03*
X127000Y914400D03*
X114300Y914400D03*
X101600Y914400D03*
X88900Y914400D03*
D11*
X107950Y895350D03*
D10*
X31750Y933450D03*
X44450Y933450D03*
X57150Y933450D03*
X69850Y933450D03*
X69850Y990600D03*
X57150Y990600D03*
X44450Y990600D03*
X31750Y990600D03*
D11*
X50800Y971550D03*
D10*
X31750Y857250D03*
X44450Y857250D03*
X57150Y857250D03*
X69850Y857250D03*
X69850Y914400D03*
X57150Y914400D03*
X44450Y914400D03*
X31750Y914400D03*
D11*
X50800Y895350D03*
D10*
X146050Y933450D03*
X158750Y933450D03*
X171450Y933450D03*
X184150Y933450D03*
X184150Y990600D03*
X171450Y990600D03*
X158750Y990600D03*
X146050Y990600D03*
D11*
X165100Y971550D03*
D10*
X146050Y857250D03*
X158750Y857250D03*
X171450Y857250D03*
X184150Y857250D03*
X184150Y914400D03*
X171450Y914400D03*
X158750Y914400D03*
X146050Y914400D03*
D11*
X165100Y895350D03*
D12*
X107950Y820738D03*
X85725Y820738D03*
X130175Y820738D03*
X141288Y820738D03*
X163513Y820738D03*
X152400Y820738D03*
X31750Y793750D03*
X44450Y793750D03*
X57150Y793750D03*
X69850Y793750D03*
X82550Y793750D03*
X146050Y793750D03*
X107950Y793750D03*
X120650Y793750D03*
X133350Y793750D03*
X171450Y793750D03*
X158750Y793750D03*
X184150Y793750D03*
D13*
X86500Y491875D03*
X63500Y491875D03*
X40500Y491875D03*
D14*
X63500Y428875D03*
D10*
X260350Y933450D03*
X273050Y933450D03*
X285750Y933450D03*
X298450Y933450D03*
X298450Y990600D03*
X285750Y990600D03*
X273050Y990600D03*
X260350Y990600D03*
D11*
X279400Y971550D03*
D10*
X260350Y857250D03*
X273050Y857250D03*
X285750Y857250D03*
X298450Y857250D03*
X298450Y914400D03*
X285750Y914400D03*
X273050Y914400D03*
X260350Y914400D03*
D11*
X279400Y895350D03*
D10*
X203200Y933450D03*
X215900Y933450D03*
X228600Y933450D03*
X241300Y933450D03*
X241300Y990600D03*
X228600Y990600D03*
X215900Y990600D03*
X203200Y990600D03*
D11*
X222250Y971550D03*
D10*
X203200Y857250D03*
X215900Y857250D03*
X228600Y857250D03*
X241300Y857250D03*
X241300Y914400D03*
X228600Y914400D03*
X215900Y914400D03*
X203200Y914400D03*
D11*
X222250Y895350D03*
D10*
X317500Y933450D03*
X330200Y933450D03*
X342900Y933450D03*
X355600Y933450D03*
X355600Y990600D03*
X342900Y990600D03*
X330200Y990600D03*
X317500Y990600D03*
D11*
X336550Y971550D03*
D10*
X317500Y857250D03*
X330200Y857250D03*
X342900Y857250D03*
X355600Y857250D03*
X355600Y914400D03*
X342900Y914400D03*
X330200Y914400D03*
X317500Y914400D03*
D11*
X336550Y895350D03*
D12*
X254000Y793750D03*
X266700Y793750D03*
X279400Y793750D03*
X304800Y793750D03*
X342900Y793750D03*
X330200Y793750D03*
X355600Y793750D03*
D15*
X341313Y709050D03*
X341313Y726050D03*
X328613Y726050D03*
X328613Y709050D03*
D16*
X248213Y690563D03*
X231213Y690563D03*
X231213Y703263D03*
X248213Y703263D03*
D15*
X315913Y687950D03*
X315913Y670950D03*
X290513Y670950D03*
X290513Y687950D03*
D17*
X247650Y728663D03*
X252650Y728663D03*
X257650Y728663D03*
X262650Y728663D03*
X247650Y742163D03*
X252650Y742163D03*
X257650Y742163D03*
X262650Y742163D03*
D18*
X246650Y735663D03*
X263650Y735163D03*
D15*
X248213Y715963D03*
X231213Y715963D03*
D16*
X303213Y687950D03*
X303213Y670950D03*
X315913Y705875D03*
X315913Y722875D03*
D12*
X185738Y820738D03*
X363538Y820738D03*
D19*
X300038Y698500D03*
X300038Y708000D03*
X300038Y717500D03*
X273038Y698500D03*
X273038Y708000D03*
X273038Y717500D03*
D16*
X280988Y748275D03*
X280988Y731275D03*
X214313Y746688D03*
X214313Y729688D03*
D12*
X241300Y793750D03*
X228600Y793750D03*
D10*
X431800Y933450D03*
X444500Y933450D03*
X457200Y933450D03*
X469900Y933450D03*
X469900Y990600D03*
X457200Y990600D03*
X444500Y990600D03*
X431800Y990600D03*
D11*
X450850Y971550D03*
D10*
X431800Y857250D03*
X444500Y857250D03*
X457200Y857250D03*
X469900Y857250D03*
X469900Y914400D03*
X457200Y914400D03*
X444500Y914400D03*
X431800Y914400D03*
D11*
X450850Y895350D03*
D10*
X374650Y933450D03*
X387350Y933450D03*
X400050Y933450D03*
X412750Y933450D03*
X412750Y990600D03*
X400050Y990600D03*
X387350Y990600D03*
X374650Y990600D03*
D11*
X393700Y971550D03*
D10*
X374650Y857250D03*
X387350Y857250D03*
X400050Y857250D03*
X412750Y857250D03*
X412750Y914400D03*
X400050Y914400D03*
X387350Y914400D03*
X374650Y914400D03*
D11*
X393700Y895350D03*
D10*
X488950Y933450D03*
X501650Y933450D03*
X514350Y933450D03*
X527050Y933450D03*
X527050Y990600D03*
X514350Y990600D03*
X501650Y990600D03*
X488950Y990600D03*
D11*
X508000Y971550D03*
D10*
X488950Y857250D03*
X501650Y857250D03*
X514350Y857250D03*
X527050Y857250D03*
X527050Y914400D03*
X514350Y914400D03*
X501650Y914400D03*
X488950Y914400D03*
D11*
X508000Y895350D03*
D12*
X412750Y793750D03*
X425450Y793750D03*
X438150Y793750D03*
X463550Y793750D03*
X514350Y793750D03*
X501650Y793750D03*
X527050Y793750D03*
D15*
X495300Y705875D03*
X495300Y722875D03*
X482600Y722875D03*
X482600Y705875D03*
X414338Y687950D03*
X414338Y670950D03*
D16*
X397900Y701675D03*
X414900Y701675D03*
D15*
X488950Y691125D03*
X488950Y674125D03*
X476250Y674125D03*
X476250Y691125D03*
D17*
X417513Y727075D03*
X422513Y727075D03*
X427513Y727075D03*
X432513Y727075D03*
X417513Y740575D03*
X422513Y740575D03*
X427513Y740575D03*
X432513Y740575D03*
D18*
X416513Y734075D03*
X433513Y733575D03*
D15*
X414900Y714375D03*
X397900Y714375D03*
X445525Y676275D03*
X462525Y676275D03*
D16*
X469900Y705875D03*
X469900Y722875D03*
D12*
X541338Y820738D03*
D19*
X454025Y688975D03*
X454025Y698475D03*
X454025Y707975D03*
X427025Y688975D03*
X427025Y698475D03*
X427025Y707975D03*
D16*
X447675Y748275D03*
X447675Y731275D03*
X385763Y741925D03*
X385763Y724925D03*
D20*
X546100Y936625D03*
X546100Y962025D03*
X546100Y987425D03*
X12700Y850900D03*
X12700Y876300D03*
X12700Y901700D03*
X546100Y738188D03*
X546100Y763588D03*
X546100Y788988D03*
X12700Y652463D03*
X12700Y677863D03*
X12700Y703263D03*
D15*
X111125Y681600D03*
X111125Y664600D03*
D16*
X127563Y695325D03*
X110563Y695325D03*
X64063Y687388D03*
X47063Y687388D03*
X47063Y700088D03*
X64063Y700088D03*
X78813Y682625D03*
X95813Y682625D03*
X95813Y695325D03*
X78813Y695325D03*
D18*
X41275Y755650D03*
X41275Y750650D03*
X41275Y745650D03*
X41275Y740650D03*
X54775Y755650D03*
X54775Y750650D03*
X54775Y745650D03*
X54775Y740650D03*
D17*
X48275Y756650D03*
X47775Y739650D03*
D15*
X64063Y712788D03*
X47063Y712788D03*
X78813Y708025D03*
X95813Y708025D03*
X110563Y708025D03*
X127563Y708025D03*
D19*
X103188Y720725D03*
X103188Y730225D03*
X103188Y739725D03*
X76188Y720725D03*
X76188Y730225D03*
X76188Y739725D03*
D15*
X80400Y755650D03*
X97400Y755650D03*
X52950Y728663D03*
X35950Y728663D03*
D12*
X476250Y793750D03*
D21*
X336400Y473675D03*
X336400Y478675D03*
X336400Y483675D03*
X336400Y488675D03*
X336400Y493675D03*
X336400Y498675D03*
X336400Y503675D03*
X336400Y508675D03*
X336400Y513675D03*
X336400Y518675D03*
X336400Y523675D03*
X336400Y528675D03*
X336400Y533675D03*
X336400Y538675D03*
X336400Y543675D03*
X336400Y548675D03*
D22*
X316900Y568175D03*
X311900Y568175D03*
X306900Y568175D03*
X301900Y568175D03*
X296900Y568175D03*
X291900Y568175D03*
X286900Y568175D03*
X281900Y568175D03*
X276900Y568175D03*
X271900Y568175D03*
X266900Y568175D03*
X261900Y568175D03*
X256900Y568175D03*
X251900Y568175D03*
X246900Y568175D03*
X241900Y568175D03*
D21*
X222400Y548675D03*
X222400Y543675D03*
X222400Y538675D03*
X222400Y533675D03*
X222400Y528675D03*
X222400Y523675D03*
X222400Y518675D03*
X222400Y513675D03*
X222400Y508675D03*
X222400Y503675D03*
X222400Y498675D03*
X222400Y493675D03*
X222400Y488675D03*
X222400Y483675D03*
X222400Y478675D03*
X222400Y473675D03*
D22*
X241900Y454175D03*
X246900Y454175D03*
X251900Y454175D03*
X256900Y454175D03*
X261900Y454175D03*
X266900Y454175D03*
X271900Y454175D03*
X276900Y454175D03*
X281900Y454175D03*
X286900Y454175D03*
X291900Y454175D03*
X296900Y454175D03*
X301900Y454175D03*
X306900Y454175D03*
X311900Y454175D03*
X316900Y454175D03*
D16*
X446088Y524900D03*
X446088Y541900D03*
X369888Y512200D03*
X369888Y529200D03*
D15*
X536575Y426475D03*
X536575Y443475D03*
D16*
X294250Y430213D03*
X277250Y430213D03*
X245500Y430213D03*
X262500Y430213D03*
X549275Y443475D03*
X549275Y426475D03*
X204788Y462988D03*
X204788Y479988D03*
D12*
X450850Y793750D03*
X292100Y793750D03*
X95250Y793750D03*
D20*
X12700Y428625D03*
X12700Y454025D03*
X12700Y479425D03*
X546100Y539750D03*
X546100Y565150D03*
X546100Y590550D03*
D23*
X188913Y437438D03*
X188913Y467438D03*
X139700Y429500D03*
X139700Y459500D03*
D16*
X123825Y436000D03*
X123825Y453000D03*
D15*
X107950Y467750D03*
X107950Y484750D03*
X107950Y453000D03*
X107950Y436000D03*
D20*
X546100Y463550D03*
X546100Y488950D03*
X546100Y514350D03*
D24*
X401638Y430213D03*
X427038Y430213D03*
X452438Y430213D03*
X477838Y430213D03*
X503238Y430213D03*
D12*
X552450Y820738D03*
D25*
X325000Y430213D03*
X310000Y430213D03*
D16*
X356163Y430213D03*
X339163Y430213D03*
D26*
X387350Y498475D03*
X375750Y498475D03*
X387350Y472975D03*
X375750Y472975D03*
D15*
X403225Y495863D03*
X403225Y478863D03*
X360363Y495863D03*
X360363Y478863D03*
X372500Y461963D03*
X389500Y461963D03*
D25*
X325000Y441325D03*
X310000Y441325D03*
D16*
X356163Y444500D03*
X339163Y444500D03*
D27*
X63500Y820738D03*
D12*
X19050Y820738D03*
X52388Y820738D03*
X30163Y820738D03*
D27*
X174625Y820738D03*
X119063Y820738D03*
D12*
X74613Y820738D03*
X41275Y820738D03*
X19050Y828675D03*
X41275Y828675D03*
D27*
X63500Y827088D03*
D12*
X52388Y828675D03*
X30163Y828675D03*
X96838Y820738D03*
D27*
X119063Y827088D03*
D12*
X107950Y828675D03*
X74613Y828675D03*
X85725Y828675D03*
X96838Y828675D03*
X130175Y828675D03*
X141288Y828675D03*
D27*
X174625Y827088D03*
D12*
X163513Y828675D03*
X152400Y828675D03*
X185738Y828675D03*
D27*
X241300Y827088D03*
D12*
X196850Y828675D03*
X230188Y828675D03*
X207963Y828675D03*
X219075Y828675D03*
X196850Y820738D03*
X219075Y820738D03*
D27*
X241300Y820738D03*
D12*
X230188Y820738D03*
X207963Y820738D03*
X285750Y828675D03*
X263525Y820738D03*
D27*
X296863Y820738D03*
D12*
X252413Y828675D03*
X274638Y828675D03*
D27*
X296863Y827088D03*
D12*
X285750Y820738D03*
X252413Y820738D03*
X263525Y828675D03*
X274638Y820738D03*
X307975Y828675D03*
X319088Y828675D03*
X341313Y828675D03*
X330200Y828675D03*
D27*
X352425Y827088D03*
D12*
X307975Y820738D03*
X319088Y820738D03*
D27*
X352425Y820738D03*
D12*
X341313Y820738D03*
X330200Y820738D03*
D27*
X419100Y827088D03*
D12*
X374650Y828675D03*
X407988Y828675D03*
X385763Y828675D03*
X396875Y820738D03*
X374650Y820738D03*
X396875Y828675D03*
D27*
X419100Y820738D03*
D12*
X407988Y820738D03*
X385763Y820738D03*
X463550Y828675D03*
X441325Y820738D03*
D27*
X474663Y820738D03*
D12*
X430213Y820738D03*
X452438Y820738D03*
D27*
X474663Y827088D03*
D12*
X463550Y820738D03*
X430213Y828675D03*
X441325Y828675D03*
X452438Y828675D03*
X485775Y828675D03*
X496888Y828675D03*
X519113Y828675D03*
X508000Y828675D03*
D27*
X530225Y827088D03*
D12*
X485775Y820738D03*
X496888Y820738D03*
D27*
X530225Y820738D03*
D12*
X519113Y820738D03*
X508000Y820738D03*
X541338Y828675D03*
X552450Y828675D03*
D28*
X428625Y538163D03*
X428625Y516163D03*
X386625Y538163D03*
X386625Y516163D03*
D16*
X213750Y430213D03*
X230750Y430213D03*
X213750Y446088D03*
X230750Y446088D03*
D12*
X203200Y793750D03*
X390525Y793750D03*
X215900Y793750D03*
X401638Y793750D03*
X363538Y828675D03*
D29*
X631825Y817309D02*
X631825Y805117D01*
X657225Y805117D02*
X657225Y817309D01*
X784225Y817309D02*
X784225Y805117D01*
X809625Y805117D02*
X809625Y817309D01*
X682625Y817309D02*
X682625Y805117D01*
X708025Y805117D02*
X708025Y817309D01*
X758825Y817309D02*
X758825Y805117D01*
X733425Y805117D02*
X733425Y817309D01*
X809625Y881317D02*
X809625Y893509D01*
X784225Y893509D02*
X784225Y881317D01*
X758825Y881317D02*
X758825Y893509D01*
X733425Y893509D02*
X733425Y881317D01*
X708025Y881317D02*
X708025Y893509D01*
X682625Y893509D02*
X682625Y881317D01*
X657225Y881317D02*
X657225Y893509D01*
X631825Y893509D02*
X631825Y881317D01*
D30*
X706120Y762000D02*
X706120Y746760D01*
X731520Y746760D02*
X731520Y762000D01*
X708025Y928688D02*
X708025Y943928D01*
X733425Y943928D02*
X733425Y928688D01*
X843915Y860743D02*
X843915Y845503D01*
X869315Y845503D02*
X869315Y860743D01*
X855345Y807720D02*
X840105Y807720D01*
X840105Y782320D02*
X855345Y782320D01*
D29*
X655320Y777304D02*
X655320Y765112D01*
X629920Y765112D02*
X629920Y777304D01*
X653415Y921957D02*
X653415Y934149D01*
X628015Y934149D02*
X628015Y921957D01*
D31*
X893763Y712788D03*
X893763Y957263D03*
X604838Y712788D03*
D30*
X809308Y928053D02*
X809308Y943293D01*
X783908Y943293D02*
X783908Y928053D01*
D32*
X385738Y677863D03*
X366738Y677863D03*
D33*
X207963Y693713D03*
X207963Y674713D03*
X11113Y744513D03*
X11113Y725513D03*
D32*
X385738Y660400D03*
X366738Y660400D03*
D33*
X192088Y658788D03*
X192088Y639788D03*
D34*
X39400Y515938D03*
X11400Y515938D03*
D35*
X497304Y745709D03*
X139700Y459500D03*
X536575Y750888D03*
X103188Y730225D03*
X130580Y728654D03*
X200025Y748619D03*
X280988Y731275D03*
X300038Y708000D03*
X246094Y728050D03*
X278119Y683145D03*
X160338Y748619D03*
X127563Y695325D03*
X265264Y683145D03*
X211700Y649288D03*
X366085Y691344D03*
X427513Y720671D03*
X447675Y731275D03*
X454025Y698475D03*
X390281Y777235D03*
X193675Y784225D03*
X549275Y426475D03*
X525463Y445462D03*
X334706Y555481D03*
X331715Y570665D03*
X250825Y556869D03*
X528638Y570538D03*
X389219Y462244D03*
X233706Y472268D03*
X452438Y430213D03*
X342525Y457575D03*
X490538Y445462D03*
X463550Y544513D03*
X463550Y472268D03*
X457200Y472268D03*
X450850Y472268D03*
X444500Y472268D03*
X438150Y472268D03*
X463550Y465918D03*
X457200Y465918D03*
X450850Y465918D03*
X444500Y465918D03*
X438150Y465918D03*
X457200Y544513D03*
X450850Y544513D03*
X444500Y544513D03*
X438150Y544513D03*
X463550Y550863D03*
X457200Y550863D03*
X450850Y550863D03*
X444500Y550863D03*
X260350Y472268D03*
X254000Y472268D03*
X225425Y570693D03*
X219075Y570693D03*
X152400Y543706D03*
X158750Y472268D03*
X152400Y472268D03*
X146050Y472268D03*
X139700Y472268D03*
X133350Y472268D03*
X158750Y465918D03*
X152400Y465918D03*
X146050Y465918D03*
X139700Y465918D03*
X133350Y465918D03*
X163513Y426231D03*
X114300Y424643D03*
X85725Y459568D03*
X79375Y459568D03*
X73025Y459568D03*
X85725Y453218D03*
X79375Y453218D03*
X73025Y453218D03*
X66675Y453218D03*
X66675Y459568D03*
X60325Y453218D03*
X60325Y459568D03*
X512763Y752447D03*
X28575Y767426D03*
X467453Y682637D03*
X382588Y648102D03*
X95813Y708025D03*
X314008Y526236D03*
X88900Y777569D03*
X146982Y777569D03*
X51646Y770194D03*
X314325Y783788D03*
X529943Y869950D03*
X523875Y946150D03*
X65405Y734519D03*
X449263Y947194D03*
X280988Y947194D03*
X117475Y947194D03*
X200025Y732863D03*
X363538Y769783D03*
X401638Y423863D03*
X533682Y429211D03*
X299332Y513941D03*
D36*
X552450Y812800D03*
X552450Y614363D03*
X476250Y801688D03*
X476250Y603250D03*
D35*
X236246Y496172D03*
X413523Y499265D03*
X320262Y579400D03*
X533881Y725969D03*
X367319Y739565D03*
X374377Y729309D03*
X196288Y715963D03*
X370351Y715963D03*
X379847Y696855D03*
X11113Y744513D03*
X36583Y713285D03*
X212271Y697713D03*
X101600Y935038D03*
X95250Y935038D03*
X88900Y935038D03*
X107950Y935038D03*
X114300Y935038D03*
X88900Y928688D03*
X95250Y928688D03*
X101600Y928688D03*
X107950Y928688D03*
X114300Y928688D03*
X114300Y922338D03*
X107950Y922338D03*
X101600Y922338D03*
X95250Y922338D03*
X88900Y922338D03*
X88900Y915988D03*
X95250Y915988D03*
X101600Y915988D03*
X107950Y915988D03*
X114300Y915988D03*
D36*
X107950Y812800D03*
X119063Y614363D03*
X74613Y614363D03*
D35*
X44450Y904875D03*
X44450Y911225D03*
X44450Y923925D03*
X50800Y923925D03*
X57150Y923925D03*
X57150Y904875D03*
X44450Y917575D03*
X38100Y917575D03*
X31750Y917575D03*
X31750Y904875D03*
X31750Y911225D03*
X38100Y904875D03*
X38100Y923925D03*
X38100Y911225D03*
X31750Y923925D03*
X50800Y904875D03*
X50800Y911225D03*
X50800Y917575D03*
X57150Y917575D03*
X57150Y911225D03*
D36*
X41275Y812800D03*
X63500Y614363D03*
X130175Y614363D03*
X174625Y614363D03*
X95250Y801688D03*
X19050Y812800D03*
D35*
X19050Y838571D03*
X22888Y927100D03*
D36*
X52388Y614363D03*
D35*
X44450Y869950D03*
X44450Y863600D03*
X50800Y863600D03*
X44450Y857250D03*
X50800Y869950D03*
X44450Y850900D03*
X50800Y857250D03*
X31750Y857250D03*
X31750Y863600D03*
X31750Y869950D03*
X31750Y850900D03*
X50800Y850900D03*
X57150Y850900D03*
X57150Y857250D03*
X57150Y863600D03*
X57150Y869950D03*
X38100Y850900D03*
X38100Y857250D03*
X38100Y863600D03*
X38100Y869950D03*
D36*
X52388Y812800D03*
X119063Y812800D03*
D35*
X79530Y859384D03*
X126768Y857250D03*
D36*
X74613Y812800D03*
D35*
X168275Y697475D03*
X85725Y630238D03*
D36*
X85725Y614363D03*
D35*
X101600Y863600D03*
X107950Y863600D03*
X107950Y857250D03*
X101600Y857250D03*
X88900Y857250D03*
X114300Y857250D03*
X107950Y850900D03*
X101600Y850900D03*
X114300Y850900D03*
X88900Y850900D03*
X88900Y869950D03*
X114300Y863600D03*
X88900Y863600D03*
X101600Y869950D03*
X107950Y869950D03*
X114300Y869950D03*
X95250Y869950D03*
X95250Y863600D03*
X95250Y857250D03*
X95250Y850900D03*
D36*
X85725Y812800D03*
X130175Y812800D03*
D35*
X158750Y935038D03*
X152400Y935038D03*
X146050Y935038D03*
X146050Y928688D03*
X152400Y928688D03*
X152400Y922338D03*
X146050Y922338D03*
X158750Y922338D03*
X158750Y928688D03*
X165100Y928688D03*
X165100Y935038D03*
X171450Y935038D03*
X171450Y928688D03*
X171450Y922338D03*
X165100Y922338D03*
X146050Y915988D03*
X152400Y915988D03*
X158750Y915988D03*
X165100Y915988D03*
X171450Y915988D03*
D36*
X141288Y812800D03*
D35*
X180975Y718113D03*
X163513Y630238D03*
D36*
X163513Y614363D03*
D35*
X146050Y857250D03*
X152400Y869950D03*
X152400Y857250D03*
X158750Y857250D03*
X158750Y869950D03*
X152400Y850900D03*
X152400Y863600D03*
X146050Y863600D03*
X158750Y850900D03*
X146050Y850900D03*
X146050Y869950D03*
X158750Y863600D03*
X165100Y869950D03*
X171450Y869950D03*
X171450Y863600D03*
X165100Y863600D03*
X165100Y857250D03*
X171450Y857250D03*
X171450Y850900D03*
X165100Y850900D03*
D36*
X163513Y812800D03*
X19050Y614363D03*
X57150Y801688D03*
X69850Y801688D03*
X82550Y801688D03*
X107950Y801688D03*
X158750Y801688D03*
X171450Y801688D03*
X184150Y801688D03*
X292100Y801688D03*
D35*
X212009Y662134D03*
D36*
X254000Y801688D03*
X266700Y801688D03*
X279400Y801688D03*
X304800Y801688D03*
X330200Y801688D03*
X342900Y801688D03*
X355600Y801688D03*
D35*
X184150Y869950D03*
D36*
X185738Y812800D03*
D35*
X355600Y869950D03*
D36*
X363538Y812800D03*
X450850Y801688D03*
D35*
X450426Y773113D03*
X362223Y659334D03*
X530225Y713350D03*
X519113Y643811D03*
D36*
X519113Y614363D03*
X412750Y801688D03*
X425450Y801688D03*
X438150Y801688D03*
X463550Y801688D03*
X501650Y801688D03*
X514350Y801688D03*
X527050Y801688D03*
D37*
X536575Y858838D03*
D36*
X541338Y812800D03*
D35*
X479425Y750394D03*
X134831Y744327D03*
X317392Y751551D03*
D36*
X133350Y801688D03*
D35*
X484577Y742694D03*
X142875Y739519D03*
X309329Y746761D03*
D36*
X120650Y801688D03*
D35*
X476250Y759482D03*
X304800Y759482D03*
X131515Y753415D03*
D36*
X146050Y801688D03*
X44450Y801688D03*
D35*
X406071Y739519D03*
X406071Y768036D03*
X229127Y751148D03*
X223603Y777000D03*
D36*
X241300Y801688D03*
D35*
X396983Y739519D03*
X396983Y771084D03*
X237669Y746837D03*
X249449Y771618D03*
X235232Y773952D03*
D36*
X228600Y801688D03*
X508000Y812800D03*
X452438Y812800D03*
X385763Y812800D03*
X330200Y812800D03*
X274638Y812800D03*
X207963Y812800D03*
X152400Y812800D03*
X96838Y812800D03*
X30163Y812800D03*
D35*
X118025Y651209D03*
D36*
X141288Y614363D03*
D35*
X66727Y657153D03*
D36*
X41275Y614363D03*
D35*
X102841Y651025D03*
D36*
X107950Y614363D03*
D35*
X134831Y670907D03*
D36*
X185738Y614363D03*
X363538Y614363D03*
D35*
X363538Y638700D03*
X496926Y660771D03*
D36*
X541338Y614363D03*
D35*
X82550Y507181D03*
D36*
X133350Y603250D03*
X63500Y812800D03*
X174625Y812800D03*
X196850Y812800D03*
X241300Y812800D03*
D35*
X203200Y850900D03*
X203200Y863600D03*
X209550Y857250D03*
X209550Y850900D03*
X209550Y869950D03*
X203200Y857250D03*
X209550Y863600D03*
X215900Y869950D03*
X215900Y863600D03*
X215900Y857250D03*
X215900Y850900D03*
X222250Y850900D03*
X228600Y850900D03*
X222250Y857250D03*
X222250Y863600D03*
X222250Y869950D03*
X228600Y869950D03*
X228600Y863600D03*
X203200Y869950D03*
X228600Y857250D03*
D36*
X230188Y812800D03*
D35*
X222250Y917575D03*
X203200Y923925D03*
X209550Y911225D03*
X228600Y917575D03*
X215900Y911225D03*
X215900Y904875D03*
X203200Y917575D03*
X203200Y911225D03*
X203200Y904875D03*
X209550Y917575D03*
X215900Y917575D03*
X209550Y904875D03*
X209550Y923925D03*
X215900Y923925D03*
X222250Y923925D03*
X222250Y904875D03*
X222250Y911225D03*
X228600Y911225D03*
X228600Y904875D03*
X228600Y923925D03*
D36*
X219075Y812800D03*
D35*
X273050Y928688D03*
X266700Y928688D03*
X279400Y928688D03*
X285750Y928688D03*
X260350Y928688D03*
X260350Y935038D03*
X266700Y935038D03*
X273050Y935038D03*
X279400Y935038D03*
X285750Y935038D03*
X285750Y922338D03*
X279400Y922338D03*
X273050Y922338D03*
X266700Y922338D03*
X260350Y922338D03*
X260350Y915988D03*
X266700Y915988D03*
X273050Y915988D03*
X279400Y915988D03*
X285750Y915988D03*
D36*
X285750Y812800D03*
X296863Y812800D03*
D35*
X298168Y857250D03*
X252502Y845497D03*
D36*
X252413Y812800D03*
D35*
X260350Y863600D03*
X260350Y869950D03*
X260350Y857250D03*
X260350Y850900D03*
X266700Y869950D03*
X266700Y863600D03*
X266700Y857250D03*
X266700Y850900D03*
X273050Y869950D03*
X273050Y863600D03*
X273050Y857250D03*
X273050Y850900D03*
X279400Y869950D03*
X279400Y863600D03*
X279400Y857250D03*
X279400Y850900D03*
X285750Y869950D03*
X285750Y863600D03*
X285750Y857250D03*
X285750Y850900D03*
D36*
X263525Y812800D03*
X307975Y812800D03*
D35*
X330200Y923925D03*
X336550Y923925D03*
X330200Y917575D03*
X323850Y923925D03*
X323850Y930275D03*
X330200Y936625D03*
X336550Y936625D03*
X342900Y936625D03*
X342900Y930275D03*
X336550Y917575D03*
X342900Y917575D03*
X323850Y917575D03*
X317500Y917575D03*
X317500Y923925D03*
X323850Y936625D03*
X317500Y936625D03*
X317500Y930275D03*
X330200Y930275D03*
X336550Y930275D03*
X342900Y923925D03*
D36*
X319088Y812800D03*
D35*
X317500Y857250D03*
X317500Y863600D03*
X317500Y869950D03*
X317500Y850900D03*
X323850Y869950D03*
X323850Y863600D03*
X323850Y857250D03*
X323850Y850900D03*
X330200Y850900D03*
X330200Y857250D03*
X330200Y863600D03*
X330200Y869950D03*
X336550Y869950D03*
X336550Y863600D03*
X336550Y857250D03*
X336550Y850900D03*
X342900Y869950D03*
X342900Y863600D03*
X342900Y857250D03*
X342900Y850900D03*
D36*
X341313Y812800D03*
X352425Y812800D03*
D35*
X143025Y675883D03*
X31978Y631825D03*
D36*
X30163Y614363D03*
D35*
X168275Y680475D03*
X96838Y632905D03*
D36*
X96838Y614363D03*
D35*
X180975Y701113D03*
X152400Y630238D03*
D36*
X152400Y614363D03*
D35*
X253290Y581716D03*
D36*
X228600Y603250D03*
D35*
X262378Y583804D03*
D36*
X241300Y603250D03*
X374650Y812800D03*
X419100Y812800D03*
D35*
X374650Y863600D03*
X374650Y869950D03*
X374650Y857250D03*
X374650Y850900D03*
X381000Y869950D03*
X387350Y869950D03*
X393700Y869950D03*
X400050Y869950D03*
X381000Y863600D03*
X387350Y863600D03*
X393700Y863600D03*
X400050Y863600D03*
X381000Y857250D03*
X381000Y850900D03*
X387350Y850900D03*
X387350Y857250D03*
X393700Y857250D03*
X400050Y857250D03*
X400050Y850900D03*
X393700Y850900D03*
D36*
X407988Y812800D03*
D35*
X387350Y911225D03*
X374650Y911225D03*
X381000Y911225D03*
X374650Y917575D03*
X381000Y917575D03*
X387350Y917575D03*
X393700Y917575D03*
X400050Y917575D03*
X400050Y911225D03*
X393700Y911225D03*
X393700Y904875D03*
X400050Y904875D03*
X387350Y904875D03*
X381000Y904875D03*
X374650Y904875D03*
X374650Y923925D03*
X381000Y923925D03*
X387350Y923925D03*
X393700Y923925D03*
X400050Y923925D03*
D36*
X396875Y812800D03*
D35*
X444500Y923925D03*
X438150Y923925D03*
X450850Y923925D03*
X431800Y923925D03*
X431800Y936625D03*
X438150Y936625D03*
X444500Y936625D03*
X450850Y936625D03*
X457200Y936625D03*
X457200Y923925D03*
X450850Y917575D03*
X457200Y917575D03*
X444500Y917575D03*
X438150Y917575D03*
X431800Y917575D03*
X431800Y930275D03*
X438150Y930275D03*
X444500Y930275D03*
X450850Y930275D03*
X457200Y930275D03*
D36*
X463550Y812800D03*
X474663Y812800D03*
D35*
X421606Y860425D03*
X469668Y857250D03*
D36*
X430213Y812800D03*
D35*
X438150Y869950D03*
X444500Y869950D03*
X431800Y863600D03*
X431800Y869950D03*
X431800Y857250D03*
X438150Y850900D03*
X438150Y863600D03*
X431800Y850900D03*
X438150Y857250D03*
X450850Y869950D03*
X457200Y869950D03*
X457200Y863600D03*
X450850Y863600D03*
X444500Y863600D03*
X444500Y857250D03*
X450850Y857250D03*
X457200Y857250D03*
X457200Y850900D03*
X450850Y850900D03*
X444500Y850900D03*
D36*
X441325Y812800D03*
X485775Y812800D03*
D35*
X488950Y923925D03*
X495300Y923925D03*
X501650Y923925D03*
X508000Y923925D03*
X514350Y923925D03*
X488950Y930275D03*
X495300Y930275D03*
X501650Y930275D03*
X508000Y930275D03*
X514350Y930275D03*
X488950Y917575D03*
X495300Y917575D03*
X514350Y917575D03*
X508000Y917575D03*
X501650Y917575D03*
X488950Y936625D03*
X495300Y936625D03*
X501650Y936625D03*
X508000Y936625D03*
X514350Y936625D03*
X488950Y899048D03*
X490538Y843048D03*
D36*
X496888Y812800D03*
D35*
X488950Y863600D03*
X488950Y869950D03*
X495300Y857250D03*
X488950Y857250D03*
X495300Y863600D03*
X495300Y869950D03*
X501650Y869950D03*
X495300Y850900D03*
X501650Y850900D03*
X501650Y857250D03*
X501650Y863600D03*
X508000Y869950D03*
X514350Y869950D03*
X508000Y863600D03*
X514350Y863600D03*
X508000Y857250D03*
X514350Y857250D03*
X508000Y850900D03*
X514350Y850900D03*
D36*
X519113Y812800D03*
X530225Y812800D03*
X296863Y614363D03*
X252413Y614363D03*
X241300Y614363D03*
X307975Y614363D03*
X352425Y614363D03*
X230188Y614363D03*
D35*
X339725Y695696D03*
X263525Y630238D03*
D36*
X263525Y614363D03*
D35*
X355167Y713350D03*
X341313Y630238D03*
D36*
X341313Y614363D03*
X196850Y614363D03*
D35*
X289659Y650965D03*
D36*
X319088Y614363D03*
D35*
X237669Y667859D03*
D36*
X219075Y614363D03*
D35*
X274475Y651209D03*
D36*
X285750Y614363D03*
D35*
X331569Y663510D03*
X209522Y630238D03*
D36*
X207963Y614363D03*
D35*
X339725Y678888D03*
X274638Y630238D03*
D36*
X274638Y614363D03*
D35*
X352425Y696350D03*
X330200Y630238D03*
D36*
X330200Y614363D03*
X474663Y614363D03*
X430213Y614363D03*
X419100Y614363D03*
X485775Y614363D03*
X530225Y614363D03*
X407988Y614363D03*
D35*
X515938Y699063D03*
X441325Y637710D03*
D36*
X441325Y614363D03*
X374650Y614363D03*
D35*
X403963Y667859D03*
D36*
X396875Y614363D03*
D35*
X446088Y651046D03*
D36*
X463550Y614363D03*
D35*
X461272Y650862D03*
D36*
X496888Y614363D03*
D35*
X509306Y666685D03*
X385763Y628841D03*
D36*
X385763Y614363D03*
D35*
X515938Y682063D03*
X452438Y630238D03*
D36*
X452438Y614363D03*
D35*
X530225Y697938D03*
X508000Y630238D03*
D36*
X508000Y614363D03*
X31750Y603250D03*
X44450Y603250D03*
X57150Y603250D03*
X69850Y603250D03*
X82550Y603250D03*
D35*
X152160Y507760D03*
X21945Y596900D03*
D36*
X95250Y603250D03*
D35*
X247366Y498265D03*
X193830Y582613D03*
D36*
X107950Y603250D03*
X120650Y603250D03*
X146050Y603250D03*
D35*
X280551Y518005D03*
X183774Y527793D03*
D36*
X158750Y603250D03*
D35*
X271463Y518005D03*
X192862Y527793D03*
D36*
X171450Y603250D03*
D35*
X262375Y518005D03*
X201950Y527793D03*
D36*
X184150Y603250D03*
D35*
X156410Y578668D03*
D36*
X203200Y603250D03*
D35*
X270907Y579481D03*
D36*
X215900Y603250D03*
X254000Y603250D03*
X266700Y603250D03*
X279400Y603250D03*
X292100Y603250D03*
X304800Y603250D03*
D35*
X355600Y581025D03*
D36*
X355600Y603250D03*
X387350Y603250D03*
X400050Y603250D03*
D35*
X377545Y596900D03*
D36*
X412750Y603250D03*
X425450Y603250D03*
X438150Y603250D03*
X450850Y603250D03*
X463550Y603250D03*
X501650Y603250D03*
X514350Y603250D03*
X527050Y603250D03*
X342900Y603250D03*
X330200Y603250D03*
D35*
X505730Y503238D03*
X293688Y498249D03*
X505730Y512326D03*
X284600Y498249D03*
D36*
X390525Y801688D03*
X203200Y801688D03*
X31750Y801688D03*
X401638Y801688D03*
X215900Y801688D03*
D35*
X320675Y515938D03*
M02*
